<?xml version="1.0" encoding="UTF-8" standalone="no"?>
<svg xmlns:dc="http://purl.org/dc/elements/1.1/" xmlns:cc="http://creativecommons.org/ns#"
        xmlns:rdf="http://www.w3.org/1999/02/22-rdf-syntax-ns#"
        xmlns:svg="http://www.w3.org/2000/svg" xmlns="http://www.w3.org/2000/svg"
        xmlns:sodipodi="http://sodipodi.sourceforge.net/DTD/sodipodi-0.dtd"
        xmlns:inkscape="http://www.inkscape.org/namespaces/inkscape" width="24" height="24"
        viewBox="0 0 24 24" version="1.1" id="svg6" sodipodi:docname="ic_browser_movie.svg"
        inkscape:version="0.92.3 (2405546, 2018-03-11)">
    <metadata id="metadata12">
        <rdf:RDF>
            <cc:Work rdf:about="">
                <dc:format>image/svg+xml</dc:format>
                <dc:type rdf:resource="http://purl.org/dc/dcmitype/StillImage" />
            </cc:Work>
        </rdf:RDF>
    </metadata>
    <defs id="defs10" />
    <sodipodi:namedview pagecolor="#ffffff" bordercolor="#666666" borderopacity="1"
            objecttolerance="10" gridtolerance="10" guidetolerance="10" inkscape:pageopacity="0"
            inkscape:pageshadow="2" inkscape:window-width="1920" inkscape:window-height="1053"
            id="namedview8" showgrid="false" inkscape:zoom="9.8333333" inkscape:cx="0.15254237"
            inkscape:cy="12" inkscape:window-x="0" inkscape:window-y="27"
            inkscape:window-maximized="1" inkscape:current-layer="svg6" />
    <path d="M18 3v2h-2V3H8v2H6V3H4v18h2v-2h2v2h8v-2h2v2h2V3h-2zM8 17H6v-2h2v2zm0-4H6v-2h2v2zm0-4H6V7h2v2zm10 8h-2v-2h2v2zm0-4h-2v-2h2v2zm0-4h-2V7h2v2z"
            id="path2" style="fill:#757575;fill-opacity:1" />
    <path d="M0 0h24v24H0z" fill="none" id="path4" />
</svg>
