<?xml version="1.0" encoding="UTF-8" standalone="no"?>
<!-- Created with Inkscape (http://www.inkscape.org/) -->

<svg
   xmlns:dc="http://purl.org/dc/elements/1.1/"
   xmlns:cc="http://creativecommons.org/ns#"
   xmlns:rdf="http://www.w3.org/1999/02/22-rdf-syntax-ns#"
   xmlns:svg="http://www.w3.org/2000/svg"
   xmlns="http://www.w3.org/2000/svg"
   xmlns:sodipodi="http://sodipodi.sourceforge.net/DTD/sodipodi-0.dtd"
   xmlns:inkscape="http://www.inkscape.org/namespaces/inkscape"
   width="512"
   height="512"
   viewBox="0 0 512 512"
   id="svg4826"
   version="1.1"
   inkscape:version="0.92.4 (5da689c313, 2019-01-14)"
   sodipodi:docname="cone.bug.svg"
   inkscape:export-filename="test.png"
   inkscape:export-xdpi="96"
   inkscape:export-ydpi="96">
  <defs
     id="defs4828">
    <clipPath
       clipPathUnits="userSpaceOnUse"
       id="clipPath4813">
      <path
         id="path4815"
         d="m 256,24 c -10,0 -16.56131,4.44436 -22,10 -7.51989,7.68159 -14,30 -14,30 l -84,252 h -34 c -10.63636,0 -20.71454,9.30699 -24,20 L 43,456 c -4.67669,16.03434 -3,31.99999 19,32 h 194 194 c 22,-10e-6 23.67669,-15.96566 19,-32 L 434,336 c -3.28546,-10.69301 -13.36364,-20 -24,-20 H 376 L 292,64 c 0,0 -6.48011,-22.31841 -14,-30 -5.43869,-5.55564 -12,-10 -22,-10 z"
         style="fill:#ff8800"
         inkscape:connector-curvature="0" />
    </clipPath>
    <clipPath
       clipPathUnits="userSpaceOnUse"
       id="clipPath4792">
      <path
         style="fill:#ff8800"
         d="m 48.196759,963.10825 c -1.65441,1.23855 -2.321076,3.2256 -3.761719,7.51954 -1.440643,4.29394 -1.503906,4.51171 -1.503906,4.51171 l -5.265625,15.79688 -6.015625,18.05082 -3.007812,9.0234 h -6.34375 c -2,0 -3.860873,1.5107 -4.445313,3.5039 l -3.503906,11.9199 c -1.144783,3.9115 -2.279638,7.7947 -3.429687,11.7266 -0.481394,1.6434 0.0011,2.852 0.777343,3.6875 0.481014,0.5172 1.074588,0.8913 1.621094,1.1406 0.54688,0.2429 0.920775,0.3731 1.351562,0.3731 1.004345,0 18.539258,-0.01 36.572266,-0.01 v 0 c 18.033008,0 35.567921,0.01 36.572266,0.01 0.430787,0 0.804682,-0.1302 1.351562,-0.3731 0.546506,-0.2493 1.14008,-0.6234 1.621094,-1.1406 0.776228,-0.8355 1.258738,-2.0441 0.777344,-3.6875 -1.150049,-3.9319 -2.284905,-7.8151 -3.429688,-11.7266 l -3.503906,-11.9199 c -0.58444,-1.9932 -2.445313,-3.5039 -4.445313,-3.5039 h -6.34375 l -3.007812,-9.0234 -6.015625,-18.05082 -5.265625,-15.79688 c 0,0 -0.06885,-0.23443 -1.503906,-4.51171 -1.435052,-4.27728 -2.097358,-6.25133 -3.761719,-7.51954 -0.831195,-0.63336 -1.999923,-0.74609 -3.044922,-0.74609 -1.044999,0 -2.208378,0.11982 -3.044922,0.74609 z"
         id="path4794"
         inkscape:connector-curvature="0"
         sodipodi:nodetypes="szccccscccccsccscccccscccczsas" />
    </clipPath>
    <clipPath
       clipPathUnits="userSpaceOnUse"
       id="clipPath1097">
      <path
         style="fill:#ff8800"
         d="m 256,24 c -10,0 -16.56131,4.44436 -22,10 -7.51989,7.68159 -14,30 -14,30 l -84,252 h -34 c -10.63636,0 -20.71454,9.30699 -24,20 L 43,456 c -4.67669,16.0344 -3,32 19,32 h 194 z"
         id="path1099"
         inkscape:connector-curvature="0" />
    </clipPath>
    <clipPath
       clipPathUnits="userSpaceOnUse"
       id="clipPath1117">
      <rect
         style="color:#000000;display:inline;overflow:visible;visibility:visible;opacity:1;vector-effect:none;fill:#ff8800;fill-opacity:1;fill-rule:nonzero;stroke:none;stroke-width:4;stroke-linecap:round;stroke-linejoin:round;stroke-miterlimit:4;stroke-dasharray:none;stroke-dashoffset:0;stroke-opacity:1;marker:none;paint-order:markers fill stroke;enable-background:accumulate"
         id="rect1119"
         width="288"
         height="544"
         x="-384"
         y="542.49548" />
    </clipPath>
    <clipPath
       clipPathUnits="userSpaceOnUse"
       id="clipPath1140">
      <path
         style="fill:#ff8800"
         d="m 256,24 c -10,0 -16.56131,4.44436 -22,10 -7.51989,7.68159 -14,30 -14,30 l -84,252 h -34 c -10.63636,0 -20.71454,9.30699 -24,20 L 43,456 c -4.67669,16.0344 -3,32 19,32 h 152 v -97.23047 c -0.0402,-1.5663 -0.0644,-3.13518 -0.0644,-4.70508 v -48 c 0,-74.19766 45.03727,-145.00385 113.73828,-167.04492 L 292,64 c 0,0 -6.48011,-22.31841 -14,-30 -5.43869,-5.55564 -12,-10 -22,-10 z"
         id="path1142"
         inkscape:connector-curvature="0" />
    </clipPath>
    <clipPath
       clipPathUnits="userSpaceOnUse"
       id="clipPath1249">
      <path
         inkscape:connector-curvature="0"
         style="fill:#ff8800"
         d="m 1436,1198.4955 c -10,0 -16.5613,4.4444 -22,10 -7.5199,7.6816 -14,30 -14,30 l -84,252 h -34 c -10.6364,0 -20.7145,9.307 -24,20 l -35,120 c -4.6767,16.0343 -3,32 19,32 h 194 194 c 22,0 23.6767,-15.9657 19,-32 l -35,-120 c -3.2855,-10.693 -13.3636,-20 -24,-20 h -34 l -84,-252 c 0,0 -6.4801,-22.3184 -14,-30 -5.4387,-5.5556 -12,-10 -22,-10 z"
         id="path1251" />
    </clipPath>
  </defs>
  <sodipodi:namedview
     id="base"
     pagecolor="#ffffff"
     bordercolor="#666666"
     borderopacity="1.0"
     inkscape:pageopacity="0.0"
     inkscape:pageshadow="2"
     inkscape:zoom="0.98953517"
     inkscape:cx="264.93943"
     inkscape:cy="199.6772"
     inkscape:document-units="px"
     inkscape:current-layer="layer1"
     showgrid="true"
     units="px"
     inkscape:window-width="1920"
     inkscape:window-height="1016"
     inkscape:window-x="0"
     inkscape:window-y="27"
     inkscape:window-maximized="1"
     inkscape:snap-bbox="true"
     inkscape:bbox-paths="true"
     inkscape:bbox-nodes="true"
     inkscape:snap-bbox-edge-midpoints="true"
     inkscape:snap-bbox-midpoints="true"
     inkscape:object-paths="true"
     inkscape:snap-intersection-paths="true"
     inkscape:snap-midpoints="true"
     inkscape:snap-object-midpoints="true"
     inkscape:snap-center="true"
     inkscape:snap-grids="false"
     inkscape:snap-to-guides="true"
     inkscape:snap-global="true">
    <inkscape:grid
       type="xygrid"
       id="grid821" />
  </sodipodi:namedview>
  <metadata
     id="metadata4831">
    <rdf:RDF>
      <cc:Work
         rdf:about="">
        <dc:format>image/svg+xml</dc:format>
        <dc:type
           rdf:resource="http://purl.org/dc/dcmitype/StillImage" />
        <dc:title></dc:title>
      </cc:Work>
    </rdf:RDF>
  </metadata>
  <g
     inkscape:label="Layer 1"
     inkscape:groupmode="layer"
     id="layer1"
     transform="translate(0,-574.49552)">
    <g
       transform="matrix(0.62068966,0,0,0.62068966,193.06422,751.59897)"
       id="g1590"
       clip-path="url(#clipPath4813)">
      <path
         id="path1582"
         d="m 256,24 c -10,0 -16.56131,4.444363 -22,10 -7.51989,7.681589 -14,30 -14,30 l -84,252 h -34 c -10.63636,0 -20.71454,9.30699 -24,20 L 43,456 c -4.67669,16.03434 -3,31.99999 19,32 h 194 194 c 22,-10e-6 23.67669,-15.96566 19,-32 L 434,336 c -3.28546,-10.69301 -13.36364,-20 -24,-20 H 376 L 292,64 c 0,0 -6.48011,-22.318411 -14,-30 -5.43869,-5.555637 -12,-10 -22,-10 z"
         style="fill:#ff8800"
         inkscape:connector-curvature="0" />
      <path
         inkscape:connector-curvature="0"
         id="path1584"
         d="m 376,316 c 0,0 5.33596,15.99774 8,24 3.86569,11.61172 5.72158,17.44905 -0.0566,24.10156 C 352.00038,395.99957 301.0881,408.013 256,408 210.88287,407.987 160.2209,395.52936 128,364 L 244,480 H 43.53125 c 2.987307,4.87249 8.73663,8 18.46875,8 h 194 194 c 22,-10e-6 23.67669,-15.96566 19,-32 L 434,336 c -3.28546,-10.69301 -13.36364,-20 -24,-20 z"
         style="fill:#f46e00;fill-opacity:1" />
      <path
         id="path1586"
         sodipodi:nodetypes="cacccccssacsccacc"
         inkscape:connector-curvature="0"
         d="m 184,172 c 24,18 46.36799,27 72,27 25.63201,0 48,-9 72,-27 48,0 32,-108 -28,-84 -33.16814,17.49548 -55.99922,15.99974 -88,0 -60,-24 -76,84 -28,84 z m -48,144 c 0,0 -5.33263,16.0004 -8,24 -4.00162,12.00101 -6.03383,18.09576 0,24 32.2209,31.52936 82.88287,43.98701 128,44 45.0881,0.013 96,-12 127.94294,-43.89801 C 389.7212,357.44948 387.86569,351.61172 384,340 c -2.66404,-8.00226 -8,-24 -8,-24 28,0 0,-68 -16,-48 -32,32 -66.85763,40 -104,40 -37.14237,0 -72,-8 -104,-40 -16,-16 -44,48 -16,48 z"
         style="fill:#fafafa" />
      <path
         sodipodi:nodetypes="sssss"
         inkscape:connector-curvature="0"
         id="path1588"
         d="m 152,312 c -16.66494,51.58194 52.97315,57.34558 59.63772,19.87924 L 260,60 c 4.46875,-25.122067 -15.31793,-34.873087 -24,-8 z"
         style="opacity:0.6;fill:#ffffff;fill-opacity:0.31372549;fill-rule:evenodd;stroke:none;stroke-width:1px;stroke-linecap:butt;stroke-linejoin:miter;stroke-opacity:1" />
    </g>
    <path
       style="color:#000000;display:inline;overflow:visible;visibility:visible;opacity:1;vector-effect:none;fill:#5555ff;fill-opacity:1;fill-rule:nonzero;stroke:none;stroke-width:4;stroke-linecap:round;stroke-linejoin:round;stroke-miterlimit:4;stroke-dasharray:none;stroke-dashoffset:0;stroke-opacity:1;marker:none;paint-order:markers fill stroke;enable-background:accumulate"
       d="m 299.00781,203.59354 c 2.20467,-5.63119 2.87225,-11.79776 13.78516,-22.94531 C 319.51536,173.7815 335.21871,164.02148 352,164.02148 L 356.74023,164 c -8.14378,-16.49369 -18.59815,-31.32243 -30.90625,-43.87109 l 56.5586,-56.558598 -33.94141,-33.941406 -61.625,61.625 C 267.69608,81.466746 246.43068,76.021484 224,76.021484 c -22.43068,0 -43.69608,5.445122 -62.82617,15.232422 l -61.625002,-61.625 -33.941406,33.941406 56.558598,56.558598 c -12.3198,12.5606 -22.798217,27.37997 -30.945317,43.89257 H 24 v 48 H 75.318359 C 73.150559,223.62618 72,235.66528 72,248.02148 v 12 H 24 v 48 h 48 v 12 c 0,12.3562 1.150559,24.3953 3.318359,36 H 24 v 48 H 91.220703 C 110.0059,442.09553 141.49531,470.85705 179,484 L 216.18172,356.02127 H 168 v -48 h 96.0625 z M 168,212.02148 h 112 v 48 H 168 Z m 255.9375,48 0.0625,0.18946 v -0.18946 z"
       transform="translate(0,574.49552)"
       id="path1609"
       inkscape:connector-curvature="0"
       sodipodi:nodetypes="csccccccsccccccccsccccsccccccccccccccccccc" />
    <g
       transform="matrix(0.62068968,0,0,0.62068968,193.06421,395.01552)"
       id="layer1-9">
      <g
         transform="translate(-0.00144695,1e-5)"
         id="g1425">
        <path
           inkscape:connector-curvature="0"
           style="fill:#ff8800"
           d="m 256,24 c -10,0 -16.56131,4.44436 -22,10 -7.51989,7.68159 -14,30 -14,30 l -8,24 c 3.70307,1.851462 7.27985,3.499007 10.76758,4.955078 L 236,52 c 3.52709,-10.917193 8.88729,-15.789637 13.70898,-16.042969 0.22023,-0.01157 0.4385,-0.01342 0.65625,-0.0059 C 257.11548,36.185711 262.5704,45.549903 260,60 l -7.19727,40.46484 C 267.56737,101.25457 282.31468,97.328624 300,88 l -8,-24 c 0,0 -6.48011,-22.31841 -14,-30 -5.43869,-5.55564 -12,-10 -22,-10 z m -3.19727,76.46484 c -1.10786,-0.0592 -2.21678,-0.15334 -3.32617,-0.26562 1.10986,0.11219 2.21777,0.20634 3.32617,0.26562 z m -30.02734,-7.507809 c 2.57716,1.075758 5.1035,2.041285 7.5918,2.894531 -2.48916,-0.853977 -5.01393,-1.818482 -7.5918,-2.894531 z m 7.92188,3.007813 c 2.4658,0.836779 4.89553,1.563851 7.29882,2.175781 -2.40331,-0.6126 -4.83309,-1.338569 -7.29882,-2.175781 z m 7.60937,2.251953 c 1.0765,0.269945 2.14919,0.516329 3.2168,0.740234 -1.06829,-0.22431 -2.13961,-0.469818 -3.2168,-0.740234 z m 3.66211,0.835937 c 1.17282,0.239138 2.3407,0.453964 3.50586,0.636719 -1.16472,-0.182941 -2.33347,-0.397376 -3.50586,-0.636719 z m 3.66406,0.660157 c 1.05384,0.163008 2.10636,0.297739 3.15625,0.414059 -1.05045,-0.11643 -2.10184,-0.251011 -3.15625,-0.414059 z M 184,172 152,268 c 3.62821,3.62821 7.29525,6.93233 10.99609,9.9668 l 31.80274,-98.43946 C 191.22458,177.21556 187.63203,174.72402 184,172 Z m -21.00391,105.9668 c 0.93643,0.76781 1.8754,1.51637 2.81641,2.24804 -0.9409,-0.73162 -1.88008,-1.48031 -2.81641,-2.24804 z m 2.81641,2.24804 c 0.9289,0.72226 1.85963,1.42747 2.79297,2.11524 -0.93353,-0.68797 -1.86388,-1.39279 -2.79297,-2.11524 z M 328,172 c -24,18 -46.36799,27 -72,27 -6.99898,0 -13.7533,-0.67746 -20.36523,-2.01953 L 216.58203,304.08398 C 229.40419,306.94108 242.55158,308 256,308 c 37.14237,0 72,-8 104,-40 z M 216.58203,304.08398 c -1.14063,-0.25415 -2.27863,-0.52136 -3.41406,-0.80468 1.13545,0.28331 2.27342,0.55052 3.41406,0.80468 z m -47.90039,-21.69726 c 0.932,0.68576 1.86634,1.35569 2.80274,2.00781 -0.9363,-0.65215 -1.87084,-1.32206 -2.80274,-2.00781 z m 2.80274,2.00781 c 7.59972,5.2926 15.34481,9.49282 23.22656,12.78711 -7.8818,-3.29556 -15.62673,-7.49366 -23.22656,-12.78711 z m 23.22656,12.78711 c 0.98512,0.41175 1.97153,0.80943 2.96094,1.19336 -0.98952,-0.38411 -1.97572,-0.78141 -2.96094,-1.19336 z m 2.96094,1.19336 c 0.98921,0.38385 1.98114,0.75258 2.9746,1.10938 -0.99298,-0.35677 -1.98588,-0.72557 -2.9746,-1.10938 z m 2.97851,1.11133 c 0.96802,0.34762 1.93813,0.68321 2.91016,1.00586 -0.97254,-0.32292 -1.94164,-0.65793 -2.91016,-1.00586 z m 3.07617,1.06055 c 0.92273,0.30487 1.84712,0.59978 2.77344,0.88281 -0.92634,-0.28311 -1.8507,-0.57784 -2.77344,-0.88281 z m 3.125,0.98828 c 0.9306,0.28146 1.86268,0.55433 2.79688,0.81445 -0.93405,-0.26013 -1.86643,-0.53296 -2.79688,-0.81445 z m 2.79688,0.81445 c 1.13033,0.31473 2.26287,0.61398 3.39844,0.89844 -1.1353,-0.28447 -2.26838,-0.58372 -3.39844,-0.89844 z M 102,316 c -10.63636,0 -20.71454,9.30699 -24,20 L 43,456 c -2.607867,8.94128 -3.234416,17.85796 0.53125,24 H 244 L 128,364 c -6.03383,-5.90424 -4.00162,-11.99899 0,-24 2.66737,-7.9996 8,-24 8,-24 z M 44.150391,480.92578 c 0.161001,0.22282 0.331593,0.44011 0.505859,0.6543 -0.174455,-0.21453 -0.344685,-0.43113 -0.505859,-0.6543 z m 0.716797,0.9082 c 0.170632,0.20014 0.348314,0.39593 0.53125,0.5879 -0.182858,-0.19201 -0.360679,-0.38774 -0.53125,-0.5879 z m 0.765624,0.82813 c 0.188129,0.18839 0.381282,0.37288 0.582032,0.55273 -0.200699,-0.17994 -0.393946,-0.36426 -0.582032,-0.55273 z m 0.853516,0.78711 c 0.203345,0.17341 0.409084,0.345 0.625,0.50976 -0.215839,-0.16483 -0.421724,-0.33629 -0.625,-0.50976 z m 0.949219,0.74414 c 0.211944,0.15311 0.422802,0.30626 0.646484,0.45117 -0.223331,-0.14482 -0.434861,-0.29816 -0.646484,-0.45117 z m 1.074219,0.70898 c 0.208768,0.12629 0.41226,0.2557 0.630859,0.375 -0.218084,-0.11918 -0.422569,-0.24886 -0.630859,-0.375 z m 1.75,0.93555 c 0.179067,0.0819 0.369708,0.15482 0.554687,0.23242 -0.184691,-0.0776 -0.375896,-0.15056 -0.554687,-0.23242 z m 1.27539,0.52539 c 0.184492,0.0689 0.378319,0.13045 0.56836,0.19531 -0.189971,-0.0649 -0.383941,-0.1263 -0.56836,-0.19531 z m 1.369141,0.45508 c 0.21095,0.0631 0.429072,0.12144 0.646484,0.17969 -0.217763,-0.0584 -0.435211,-0.11646 -0.646484,-0.17969 z m 1.425781,0.37695 c 0.233553,0.0545 0.470272,0.10713 0.710938,0.15625 -0.240456,-0.0491 -0.477591,-0.10178 -0.710938,-0.15625 z m 1.617188,0.32422 c 0.216953,0.0369 0.433799,0.0728 0.65625,0.10547 -0.222133,-0.0327 -0.439607,-0.0686 -0.65625,-0.10547 z m 1.693359,0.23828 c 0.224339,0.0255 0.446138,0.0528 0.675781,0.0742 -0.229729,-0.0214 -0.451368,-0.0487 -0.675781,-0.0742 z m 1.833984,0.15821 c 0.21223,0.013 0.418242,0.0294 0.634766,0.0391 -0.216671,-0.01 -0.4224,-0.0261 -0.634766,-0.0391 z"
           id="path4795-9"
           transform="translate(0,574.49552)" />
        <path
           inkscape:connector-curvature="0"
           style="fill:#f46e00;fill-opacity:1"
           d="m 376,890.49552 c 0,0 5.33596,15.99774 8,24 3.86569,11.61172 5.72158,17.44905 -0.0566,24.10156 -31.94302,31.89801 -82.8553,43.91144 -127.9434,43.89844 -45.11713,-0.013 -95.7791,-12.47064 -128,-44 L 244,1054.4955 H 43.53125 c 2.987307,4.8725 8.73663,8 18.46875,8 h 194 194 c 22,0 23.67669,-15.9656 19,-32 L 434,910.49552 c -3.28546,-10.69301 -13.36364,-20 -24,-20 z"
           id="path4790-6" />
        <path
           inkscape:connector-curvature="0"
           style="fill:#fafafa"
           d="m 212,88 -28,84 c 24,18 46.36799,27 72,27 25.63201,0 48,-9 72,-27 L 300,88 c -33.16814,17.49548 -55.99922,15.99974 -88,0 z m -60,180 -16,48 c 0,0 -5.33263,16.0004 -8,24 -4.00162,12.00101 -6.03383,18.09576 0,24 32.2209,31.52936 82.88287,43.98701 128,44 45.0881,0.013 96.00042,-12.00043 127.94336,-43.89844 5.77826,-6.65251 3.92229,-12.48984 0.0566,-24.10156 -2.66404,-8.00226 -8,-24 -8,-24 l -16,-48 c -32,32 -66.85763,40 -104,40 -37.14237,0 -72,-8 -104,-40 z"
           id="path3151-2-6-0-0"
           transform="translate(0,574.49552)" />
        <path
           inkscape:connector-curvature="0"
           style="opacity:1;fill:#ff9e30;fill-opacity:1;fill-rule:evenodd;stroke:none;stroke-width:1px;stroke-linecap:butt;stroke-linejoin:miter;stroke-opacity:1"
           d="m 250.36523,35.951172 c -0.21775,-0.0076 -0.43602,-0.0057 -0.65625,0.0059 C 244.88729,36.210363 239.52709,41.082807 236,52 l -13.23242,40.955078 c 0.002,0.001 0.005,9.12e-4 0.008,0.002 2.592,1.081949 5.1304,2.052734 7.63281,2.910157 0.0963,0.03298 0.19288,0.06502 0.28907,0.09766 2.46573,0.837212 4.89551,1.563181 7.29882,2.175781 0.1036,0.02638 0.20705,0.05022 0.31055,0.07617 1.07719,0.270416 2.14851,0.515924 3.2168,0.740234 0.14775,0.03099 0.29575,0.0656 0.44336,0.0957 1.17303,0.239499 2.34246,0.453679 3.50781,0.636719 0.03,0.0047 0.0598,0.009 0.0898,0.01367 1.08392,0.168913 2.16444,0.306321 3.24414,0.425781 0.2208,0.0244 0.44144,0.048 0.66211,0.0703 1.11133,0.11254 2.22223,0.20626 3.33203,0.26562 L 260,60 c 2.5704,-14.450097 -2.88452,-23.814289 -9.63477,-24.048828 z m -55.5664,143.576168 -31.80274,98.43946 c 14.98119,12.28367 30.55008,19.89833 46.65235,24.38281 1.14895,0.31998 2.30072,0.62539 3.45508,0.91406 0.001,3.1e-4 0.003,-3e-4 0.004,0 0.002,5e-4 0.004,0.001 0.006,0.002 1.1536,0.2884 2.30979,0.56012 3.46875,0.81836 l 19.05274,-107.10351 c -7.59016,-1.54063 -14.99127,-3.98377 -22.35352,-7.29297 -0.39867,-0.17946 -0.79684,-0.36028 -1.19531,-0.54492 -1.35007,-0.62471 -2.69988,-1.2806 -4.04883,-1.96485 -0.2134,-0.10836 -0.42722,-0.21241 -0.64063,-0.32226 -0.81363,-0.41839 -1.62753,-0.84902 -2.4414,-1.28906 -1.68766,-0.91249 -3.37891,-1.87525 -5.07031,-2.88086 -1.69203,-1.00598 -3.38651,-2.05904 -5.08594,-3.15821 z"
           id="path836"
           transform="translate(0,574.49552)" />
      </g>
    </g>
  </g>
</svg>
