<?xml version="1.0" encoding="UTF-8" standalone="no"?>
<!-- Created with Inkscape (http://www.inkscape.org/) -->

<svg
   xmlns:dc="http://purl.org/dc/elements/1.1/"
   xmlns:cc="http://creativecommons.org/ns#"
   xmlns:rdf="http://www.w3.org/1999/02/22-rdf-syntax-ns#"
   xmlns:svg="http://www.w3.org/2000/svg"
   xmlns="http://www.w3.org/2000/svg"
   xmlns:sodipodi="http://sodipodi.sourceforge.net/DTD/sodipodi-0.dtd"
   xmlns:inkscape="http://www.inkscape.org/namespaces/inkscape"
   width="24"
   height="24"
   id="svg4682"
   version="1.1"
   inkscape:version="0.48.5 r10040"
   sodipodi:docname="ic_menu_search.svg"
   inkscape:export-filename="/home/corbax/Dev/android/Icons/Test 1/ic_play_normal.png"
   inkscape:export-xdpi="90"
   inkscape:export-ydpi="90">
  <defs
     id="defs4684" />
  <sodipodi:namedview
     id="base"
     pagecolor="#ffffff"
     bordercolor="#666666"
     borderopacity="1.0"
     inkscape:pageopacity="0.0"
     inkscape:pageshadow="2"
     inkscape:zoom="32"
     inkscape:cx="10.973175"
     inkscape:cy="12.939953"
     inkscape:document-units="px"
     inkscape:current-layer="layer1"
     showgrid="true"
     inkscape:window-width="1920"
     inkscape:window-height="1056"
     inkscape:window-x="1920"
     inkscape:window-y="24"
     inkscape:window-maximized="1">
    <inkscape:grid
       type="xygrid"
       id="grid2983" />
  </sodipodi:namedview>
  <metadata
     id="metadata4687">
    <rdf:RDF>
      <cc:Work
         rdf:about="">
        <dc:format>image/svg+xml</dc:format>
        <dc:type
           rdf:resource="http://purl.org/dc/dcmitype/StillImage" />
        <dc:title />
      </cc:Work>
    </rdf:RDF>
  </metadata>
  <g
     inkscape:label="Layer 1"
     inkscape:groupmode="layer"
     id="layer1"
     transform="translate(0,-1028.3622)">
    <path
       style="color:#000000;fill:#fafafa;fill-opacity:1;fill-rule:nonzero;stroke:none;stroke-width:0.5;marker:none;visibility:visible;display:inline;overflow:visible;enable-background:accumulate"
       d="m 10.000025,1032.3622 c -3.31371,0 -6,2.6863 -6,6 0,3.3137 2.68629,6 6,6 1.44975,0 2.77535,-0.5191 3.8125,-1.375 0.007,0.01 0.0262,-0.01 0.0312,0 0.0509,0.051 0.20536,0.2054 0.15625,0.1563 l 0.34375,0.3437 0,0.5625 4.25,4.3125 1.40625,-1.4687 -4.25,-4.25 -0.46875,0 -0.59375,-0.5625 c 0.81379,-1.0241 1.31255,-2.3092 1.31255,-3.7188 0,-3.3137 -2.68629,-6 -6,-6 z m 0,2 c 2.20914,0 4,1.7909 4,4 0,2.2091 -1.79086,4 -4,4 -2.20914,0 -4,-1.7909 -4,-4 0,-2.2091 1.79086,-4 4,-4 z"
       id="path4951"
       inkscape:connector-curvature="0" />
  </g>
</svg>
