<?xml version="1.0" encoding="UTF-8" standalone="no"?>
<!-- Created with Inkscape (http://www.inkscape.org/) -->

<svg
        xmlns:dc="http://purl.org/dc/elements/1.1/"
        xmlns:cc="http://creativecommons.org/ns#"
        xmlns:rdf="http://www.w3.org/1999/02/22-rdf-syntax-ns#"
        xmlns:svg="http://www.w3.org/2000/svg"
        xmlns="http://www.w3.org/2000/svg"
        xmlns:sodipodi="http://sodipodi.sourceforge.net/DTD/sodipodi-0.dtd"
        xmlns:inkscape="http://www.inkscape.org/namespaces/inkscape"
        width="24"
        height="24"
        id="svg4682"
        version="1.1"
        inkscape:version="0.92.4 (5da689c313, 2019-01-14)"
        sodipodi:docname="ic_audio_repeat_normal.svg"
        inkscape:export-filename="/home/corbax/Dev/android/Icons/Test 1/ic_play_normal.png"
        inkscape:export-xdpi="90"
        inkscape:export-ydpi="90">
    <defs
            id="defs4684"/>
    <sodipodi:namedview
            id="base"
            pagecolor="#ffffff"
            bordercolor="#666666"
            borderopacity="1.0"
            inkscape:pageopacity="0.0"
            inkscape:pageshadow="2"
            inkscape:zoom="22.4"
            inkscape:cx="11.206786"
            inkscape:cy="12.917112"
            inkscape:document-units="px"
            inkscape:current-layer="layer1"
            showgrid="true"
            inkscape:window-width="960"
            inkscape:window-height="1028"
            inkscape:window-x="1920"
            inkscape:window-y="15"
            inkscape:window-maximized="0">
        <inkscape:grid
                type="xygrid"
                id="grid3002"/>
    </sodipodi:namedview>
    <metadata
            id="metadata4687">
        <rdf:RDF>
            <cc:Work
                    rdf:about="">
                <dc:format>image/svg+xml</dc:format>
                <dc:type
                        rdf:resource="http://purl.org/dc/dcmitype/StillImage"/>
                <dc:title></dc:title>
            </cc:Work>
        </rdf:RDF>
    </metadata>
    <g
            inkscape:label="Layer 1"
            inkscape:groupmode="layer"
            id="layer1"
            transform="translate(0,-1028.3622)">
        <path
                style="color:#000000;font-style:normal;font-variant:normal;font-weight:normal;font-stretch:normal;font-size:medium;line-height:normal;font-family:sans-serif;font-variant-ligatures:normal;font-variant-position:normal;font-variant-caps:normal;font-variant-numeric:normal;font-variant-alternates:normal;font-feature-settings:normal;text-indent:0;text-align:start;text-decoration:none;text-decoration-line:none;text-decoration-style:solid;text-decoration-color:#000000;letter-spacing:normal;word-spacing:normal;text-transform:none;writing-mode:lr-tb;direction:ltr;text-orientation:mixed;dominant-baseline:auto;baseline-shift:baseline;text-anchor:start;white-space:normal;shape-padding:0;clip-rule:nonzero;display:inline;overflow:visible;visibility:visible;opacity:1;isolation:auto;mix-blend-mode:normal;color-interpolation:sRGB;color-interpolation-filters:linearRGB;solid-color:#000000;solid-opacity:1;vector-effect:none;fill:#212121;fill-opacity:1;fill-rule:evenodd;stroke:none;stroke-width:2;stroke-linecap:round;stroke-linejoin:round;stroke-miterlimit:4;stroke-dasharray:none;stroke-dashoffset:0;stroke-opacity:1;color-rendering:auto;image-rendering:auto;shape-rendering:auto;text-rendering:auto;enable-background:accumulate"
                d="m 16.488281,1032.0634 c -0.129037,0 -0.257965,0.054 -0.353515,0.1562 -0.089,0.089 -0.134266,0.2139 -0.134766,0.3399 v 1.8027 H 9 c -1.6568999,0 -2.9999999,1.3431 -2.9999999,3 v 1 c -0.01,0.5638 0.451825,1.0225 1.015625,1.0137 0.5515,-0.01 0.991975,-0.4621 0.984375,-1.0137 v -1 c 0,-0.5523 0.4477,-1 0.9999999,-1 H 11.824219 16 v 1.8047 c 2e-4,0.4415 0.533403,0.6617 0.845703,0.3496 L 20,1035.3622 l -3.154297,-3.1543 c -0.0987,-0.099 -0.228384,-0.1469 -0.357422,-0.1445 z m 0.496094,9.2851 c -0.5515,0.01 -0.991975,0.4621 -0.984375,1.0137 v 1 c 0,0.5523 -0.4477,1 -1,1 H 12.175781 8.0000001 v -1.8027 c -2e-4,-0.4415 -0.5334031,-0.6637 -0.8457031,-0.3516 l -3.1542969,3.1563 3.1542969,3.1543 c 0.1974,0.1974 0.5178844,0.1904 0.7089844,-0.014 0.089,-0.089 0.1362187,-0.2119 0.1367187,-0.3379 v -1.8047 H 15 c 1.6569,0 3,-1.3431 3,-3 v -1 c 0.01,-0.5638 -0.451825,-1.0225 -1.015625,-1.0137 z"
                id="path7574"
                inkscape:connector-curvature="0"/>
    </g>
</svg>
