<?xml version="1.0" encoding="UTF-8" standalone="no"?>
<!-- Created with Inkscape (http://www.inkscape.org/) -->

<svg
   xmlns:dc="http://purl.org/dc/elements/1.1/"
   xmlns:cc="http://creativecommons.org/ns#"
   xmlns:rdf="http://www.w3.org/1999/02/22-rdf-syntax-ns#"
   xmlns:svg="http://www.w3.org/2000/svg"
   xmlns="http://www.w3.org/2000/svg"
   xmlns:sodipodi="http://sodipodi.sourceforge.net/DTD/sodipodi-0.dtd"
   xmlns:inkscape="http://www.inkscape.org/namespaces/inkscape"
   width="45.155556mm"
   height="24.835556mm"
   viewBox="0 0 160 88"
   id="svg6906"
   version="1.1"
   inkscape:version="0.91 r13725"
   sodipodi:docname="banner.svg">
  <defs
     id="defs6908">
    <filter
       inkscape:collect="always"
       style="color-interpolation-filters:sRGB"
       id="filter8749"
       x="-0.012411024"
       width="1.024822"
       y="-0.011615328"
       height="1.0232307">
      <feGaussianBlur
         inkscape:collect="always"
         stdDeviation="0.63884308"
         id="feGaussianBlur8751" />
    </filter>
  </defs>
  <sodipodi:namedview
     id="base"
     pagecolor="#ffffff"
     bordercolor="#666666"
     borderopacity="1.0"
     inkscape:pageopacity="0.0"
     inkscape:pageshadow="2"
     inkscape:zoom="1.979899"
     inkscape:cx="94.334404"
     inkscape:cy="113.63215"
     inkscape:document-units="px"
     inkscape:current-layer="layer1"
     showgrid="false"
     fit-margin-top="0"
     fit-margin-left="0"
     fit-margin-right="0"
     fit-margin-bottom="0"
     inkscape:window-width="1920"
     inkscape:window-height="1056"
     inkscape:window-x="0"
     inkscape:window-y="24"
     inkscape:window-maximized="1" />
  <metadata
     id="metadata6911">
    <rdf:RDF>
      <cc:Work
         rdf:about="">
        <dc:format>image/svg+xml</dc:format>
        <dc:type
           rdf:resource="http://purl.org/dc/dcmitype/StillImage" />
        <dc:title></dc:title>
      </cc:Work>
    </rdf:RDF>
  </metadata>
  <g
     inkscape:label="Layer 1"
     inkscape:groupmode="layer"
     id="layer1"
     transform="translate(-25.714283,-752.36218)">
    <g
       id="g4159"
       transform="matrix(0.5,0,0,0.5,-102.85992,357.99835)">
      <rect
         y="788.72766"
         x="257.14841"
         height="176"
         width="320"
         id="rect6741"
         style="color:#000000;display:inline;overflow:visible;visibility:visible;opacity:1;fill:#ff8800;fill-opacity:1;fill-rule:nonzero;stroke:none;stroke-width:0;stroke-linecap:round;stroke-linejoin:round;stroke-miterlimit:4;stroke-dasharray:none;stroke-dashoffset:0;stroke-opacity:1;marker:none;enable-background:accumulate" />
      <path
         inkscape:connector-curvature="0"
         id="path6774-7"
         d="m 281.44955,938.73056 c -1.09267,4.04551 3.78739,6.34516 7.17421,5.83 36.88972,-0.0203 73.78097,0.0405 110.66974,-0.0304 3.55835,1.11074 8.49507,-6.33912 3.14645,-5.83845 -40.32898,-0.83478 -80.66133,-0.70528 -120.9904,0.0389 z"
         style="fill:#ca6800;fill-opacity:1;stroke:none;filter:url(#filter8749)" />
      <path
         style="fill:#fafafa;fill-opacity:1;stroke:none"
         d="m 343.04956,810.72766 c -1.77328,0 -3.54649,0.43164 -4.95002,1.29967 -3.1386,1.94001 -4.95002,9.90145 -4.95002,9.90145 l -2.97001,8.91146 c 8.57992,5.39714 17.15991,5.45337 25.73988,0 l -2.96993,-8.91146 c 0,0 -1.81148,-7.96144 -4.95009,-9.90145 -1.40353,-0.8677 -3.17674,-1.29967 -4.94981,-1.29967 z m -20.79001,43.87633 -9.90009,29.70456 c 20.30345,13.09513 40.76078,13.34943 61.37997,0 l -9.90002,-29.70456 c -13.97636,10.39804 -27.83689,10.43104 -41.57986,0 z m -30.25,47.31367 c -3.52,11.66 -7.04,23.32001 -10.56,34.98001 -0.88,2.915 1.76,5.83 6.16,5.83 36.96,0 73.92,0 110.88,0 4.4,0 7.04,-2.64 6.16,-5.83 -3.52,-11.66 -7.04,-23.32001 -10.56,-34.98001 -1.49749,-4.94523 -2.64,-5.83 -9.185,-5.83 l -7.425,0 2.19982,6.04373 c 0,0 1.64452,5.30838 0,6.93099 -17.38525,17.15485 -56.10787,16.3979 -73.25985,-0.99006 -1.39072,-1.4097 0,-5.94093 0,-5.94093 l 2.19995,-6.04373 -7.42495,0 c -6.54497,0 -7.75497,0.86625 -9.18497,5.83 z"
         id="path6774"
         inkscape:connector-curvature="0"
         sodipodi:nodetypes="sccccccscccccccccccccccccccc" />
      <text
         sodipodi:linespacing="125%"
         id="text6776"
         y="897.96765"
         x="426.49112"
         style="font-style:normal;font-variant:normal;font-weight:normal;font-stretch:normal;font-size:50px;line-height:125%;font-family:Raleway;-inkscape-font-specification:'Raleway, Normal';text-align:start;letter-spacing:0px;word-spacing:0px;writing-mode:lr-tb;text-anchor:start;fill:#fafafa;fill-opacity:1;stroke:none;stroke-width:1px;stroke-linecap:butt;stroke-linejoin:miter;stroke-opacity:1"
         xml:space="preserve"><tspan
           style="font-style:normal;font-variant:normal;font-weight:600;font-stretch:normal;font-size:60px;font-family:Raleway;-inkscape-font-specification:'Raleway Semi-Bold';fill:#fafafa;fill-opacity:1"
           y="897.96765"
           x="426.49112"
           id="tspan6778"
           sodipodi:role="line">VLC</tspan></text>
    </g>
  </g>
</svg>
