<?xml version="1.0" encoding="UTF-8" standalone="no"?>
<!-- Created with Inkscape (http://www.inkscape.org/) -->

<svg
   xmlns:dc="http://purl.org/dc/elements/1.1/"
   xmlns:cc="http://creativecommons.org/ns#"
   xmlns:rdf="http://www.w3.org/1999/02/22-rdf-syntax-ns#"
   xmlns:svg="http://www.w3.org/2000/svg"
   xmlns="http://www.w3.org/2000/svg"
   xmlns:sodipodi="http://sodipodi.sourceforge.net/DTD/sodipodi-0.dtd"
   xmlns:inkscape="http://www.inkscape.org/namespaces/inkscape"
   width="260"
   height="260"
   id="svg4682"
   version="1.1"
   inkscape:version="0.48.5 r10040"
   sodipodi:docname="ic_album_big.svg"
   inkscape:export-filename="/home/corbax/Dev/android/Icons/Test 1/ic_play_normal.png"
   inkscape:export-xdpi="90"
   inkscape:export-ydpi="90">
  <defs
     id="defs4684" />
  <sodipodi:namedview
     id="base"
     pagecolor="#ffffff"
     bordercolor="#666666"
     borderopacity="1.0"
     inkscape:pageopacity="0.0"
     inkscape:pageshadow="2"
     inkscape:zoom="0.98994949"
     inkscape:cx="-245.63718"
     inkscape:cy="415.2526"
     inkscape:document-units="px"
     inkscape:current-layer="layer1"
     showgrid="false"
     inkscape:window-width="1920"
     inkscape:window-height="1056"
     inkscape:window-x="1920"
     inkscape:window-y="24"
     inkscape:window-maximized="1" />
  <metadata
     id="metadata4687">
    <rdf:RDF>
      <cc:Work
         rdf:about="">
        <dc:format>image/svg+xml</dc:format>
        <dc:type
           rdf:resource="http://purl.org/dc/dcmitype/StillImage" />
        <dc:title></dc:title>
      </cc:Work>
    </rdf:RDF>
  </metadata>
  <g
     inkscape:label="Layer 1"
     inkscape:groupmode="layer"
     id="layer1"
     transform="translate(0,-792.36218)">
    <path
       style="color:#000000;fill:#777777;fill-opacity:1;fill-rule:nonzero;stroke:none;stroke-width:0.5;marker:none;visibility:visible;display:inline;overflow:visible;enable-background:accumulate"
       d="m 130,822.36218 c -55.22844,0 -100,44.77156 -100,100 0,55.22844 44.77156,100.00002 100,100.00002 55.22844,0 100,-44.77158 100,-100.00002 0,-55.22844 -44.77156,-100 -100,-100 z m 0,61.11111 c 21.47778,0 38.88889,17.41111 38.88889,38.88889 0,21.47778 -17.41111,38.88889 -38.88889,38.88889 -21.47778,0 -38.88889,-17.41111 -38.88889,-38.88889 0,-21.47778 17.41111,-38.88889 38.88889,-38.88889 z m 0,27.77778 c -6.13656,0 -11.11111,4.97467 -11.11111,11.11111 0,6.13644 4.97455,11.11111 11.11111,11.11111 6.13644,0 11.11111,-4.97467 11.11111,-11.11111 0,-6.13644 -4.97467,-11.11111 -11.11111,-11.11111 z"
       id="path6784"
       inkscape:connector-curvature="0" />
  </g>
</svg>
