<?xml version="1.0" encoding="UTF-8" standalone="no"?>
<!-- Created with Inkscape (http://www.inkscape.org/) -->

<svg
   xmlns:dc="http://purl.org/dc/elements/1.1/"
   xmlns:cc="http://creativecommons.org/ns#"
   xmlns:rdf="http://www.w3.org/1999/02/22-rdf-syntax-ns#"
   xmlns:svg="http://www.w3.org/2000/svg"
   xmlns="http://www.w3.org/2000/svg"
   xmlns:sodipodi="http://sodipodi.sourceforge.net/DTD/sodipodi-0.dtd"
   xmlns:inkscape="http://www.inkscape.org/namespaces/inkscape"
   width="20"
   height="20"
   id="svg3428"
   version="1.1"
   inkscape:version="0.48.5 r10040"
   sodipodi:docname="ic_audiosub_circle_pressed_o.svg">
  <defs
     id="defs3430" />
  <sodipodi:namedview
     id="base"
     pagecolor="#ffffff"
     bordercolor="#666666"
     borderopacity="1.0"
     inkscape:pageopacity="0.0"
     inkscape:pageshadow="2"
     inkscape:zoom="31.678384"
     inkscape:cx="-0.91944596"
     inkscape:cy="13.792185"
     inkscape:document-units="px"
     inkscape:current-layer="layer1"
     showgrid="true"
     inkscape:window-width="1920"
     inkscape:window-height="1056"
     inkscape:window-x="1920"
     inkscape:window-y="24"
     inkscape:window-maximized="1">
    <inkscape:grid
       type="xygrid"
       id="grid3436"
       empspacing="4"
       visible="true"
       enabled="true"
       snapvisiblegridlinesonly="true" />
  </sodipodi:namedview>
  <metadata
     id="metadata3433">
    <rdf:RDF>
      <cc:Work
         rdf:about="">
        <dc:format>image/svg+xml</dc:format>
        <dc:type
           rdf:resource="http://purl.org/dc/dcmitype/StillImage" />
        <dc:title />
      </cc:Work>
    </rdf:RDF>
  </metadata>
  <g
     inkscape:label="Layer 1"
     inkscape:groupmode="layer"
     id="layer1"
     transform="translate(0,-1032.3622)">
    <path
       d="m 295,507.36218 c 0,27.61424 -22.38576,50 -50,50 -27.61424,0 -50,-22.38576 -50,-50 0,-27.61423 22.38576,-50 50,-50 27.61424,0 50,22.38577 50,50 z"
       sodipodi:ry="50"
       sodipodi:rx="50"
       sodipodi:cy="507.36218"
       sodipodi:cx="245"
       id="path6409"
       style="fill:#fecb65;fill-opacity:1;stroke:none"
       sodipodi:type="arc"
       transform="matrix(0.16,0,0,0.16,-29.2,961.18425)" />
    <path
       inkscape:connector-curvature="0"
       id="path6411"
       d="m 7.6,1039.1578 c -0.8864,0 -1.6,0.7136 -1.6,1.6 l 0,3.2 c 0,0.8864 0.7136,1.6 1.6,1.6 l 2.31,0 -0.56,2.03 a 0.240024,0.21699386 0 0 0 0.40504,0.21 l 2.47496,-2.24 0.17,0 c 0.8864,0 1.6,-0.7136 1.6,-1.6 l 0,-3.2 c 0,-0.8864 -0.7136,-1.6 -1.6,-1.6 l -4.8,0 z m -0.64,1.2 6.08,0 c 0.08864,0 0.16,0.071 0.16,0.16 l 0,0.48 c 0,0.089 -0.0712,0.16 -0.16,0.16 l -6.08,0 c -0.08864,0 -0.16,-0.071 -0.16,-0.16 l 0,-0.48 c 0,-0.089 0.0712,-0.16 0.16,-0.16 z m 0,1.6 3.36,0 c 0.08864,0 0.16,0.071 0.16,0.16 l 0,0.48 c 0,0.089 -0.0712,0.16 -0.16,0.16 l -3.36,0 c -0.08864,0 -0.16,-0.071 -0.16,-0.16 l 0,-0.48 c 0,-0.089 0.0712,-0.16 0.16,-0.16 z m 4.48,0 1.6,0 c 0.08864,0 0.16,0.071 0.16,0.16 l 0,0.48 c 0,0.089 -0.0712,0.16 -0.16,0.16 l -1.6,0 c -0.08864,0 -0.16,-0.071 -0.16,-0.16 l 0,-0.48 c 0,-0.089 0.0712,-0.16 0.16,-0.16 z m -4.48,1.6 4.48,0 c 0.08864,0 0.16,0.071 0.16,0.16 l 0,0.48 c 0,0.089 -0.0712,0.16 -0.16,0.16 l -4.48,0 c -0.08864,0 -0.16,-0.071 -0.16,-0.16 l 0,-0.48 c 0,-0.089 0.0712,-0.16 0.16,-0.16 z m 5.6,0 0.48,0 c 0.08864,0 0.16,0.071 0.16,0.16 l 0,0.48 c 0,0.089 -0.0712,0.16 -0.16,0.16 l -0.48,0 c -0.08864,0 -0.16,-0.071 -0.16,-0.16 l 0,-0.48 c 0,-0.089 0.0712,-0.16 0.16,-0.16 z"
       style="color:#000000;fill:#ff7200;fill-opacity:1;fill-rule:nonzero;stroke:none;stroke-width:0.2;marker:none;visibility:visible;display:inline;overflow:visible;enable-background:accumulate" />
  </g>
</svg>
