<?xml version="1.0" encoding="UTF-8" standalone="no"?>
<!-- Created with Inkscape (http://www.inkscape.org/) -->

<svg
   xmlns:dc="http://purl.org/dc/elements/1.1/"
   xmlns:cc="http://creativecommons.org/ns#"
   xmlns:rdf="http://www.w3.org/1999/02/22-rdf-syntax-ns#"
   xmlns:svg="http://www.w3.org/2000/svg"
   xmlns="http://www.w3.org/2000/svg"
   xmlns:sodipodi="http://sodipodi.sourceforge.net/DTD/sodipodi-0.dtd"
   xmlns:inkscape="http://www.inkscape.org/namespaces/inkscape"
   width="28"
   height="28"
   id="svg3428"
   version="1.1"
   inkscape:version="0.92.3 (unknown)"
   sodipodi:docname="ic_abrepeat_setb_circle_pressed.svg">
  <defs
     id="defs3430" />
  <sodipodi:namedview
     id="base"
     pagecolor="#ffffff"
     bordercolor="#666666"
     borderopacity="1.0"
     inkscape:pageopacity="0.0"
     inkscape:pageshadow="2"
     inkscape:zoom="22.4"
     inkscape:cx="13.964964"
     inkscape:cy="13.314024"
     inkscape:document-units="px"
     inkscape:current-layer="g933"
     showgrid="true"
     inkscape:window-width="1920"
     inkscape:window-height="1052"
     inkscape:window-x="1920"
     inkscape:window-y="0"
     inkscape:window-maximized="1">
    <inkscape:grid
       type="xygrid"
       id="grid3436"
       empspacing="4"
       visible="true"
       enabled="true"
       snapvisiblegridlinesonly="true"
       spacingx="1"
       spacingy="1"
       originx="2"
       originy="2" />
  </sodipodi:namedview>
  <metadata
     id="metadata3433">
    <rdf:RDF>
      <cc:Work
         rdf:about="">
        <dc:format>image/svg+xml</dc:format>
        <dc:type
           rdf:resource="http://purl.org/dc/dcmitype/StillImage" />
        <dc:title></dc:title>
      </cc:Work>
    </rdf:RDF>
  </metadata>
  <g
     inkscape:label="Layer 1"
     inkscape:groupmode="layer"
     id="layer1"
     transform="translate(0,-1024.3622)">
    <g
       id="g4951"
       transform="translate(-3.0000002,1.999999)">
      <g
         id="g933"
         transform="matrix(0.84615385,0,0,0.84615385,21.076923,157.05573)">
        <g
           id="g826"
           transform="matrix(1.1818182,0,0,1.1818182,2.2727277,-190.33859)">
          <circle
             r="13"
             cy="-1040.3622"
             cx="6"
             style="color:#000000;display:inline;overflow:visible;visibility:visible;fill:#fecb65;fill-opacity:1;fill-rule:nonzero;stroke:none;stroke-width:0.13;marker:none;enable-background:accumulate"
             id="circle6300"
             transform="scale(-1)" />
          <path
             inkscape:connector-curvature="0"
             id="path6302"
             d="m -0.9999998,1030.3613 v 3 H -11 -13 v 6 h 2 v -4 h 10.0000002 v 3 l 4,-4 z m 0,11 v 4 H -11 v -3 l -4,4 4,4 v -3 h 10.0000002 2 v -6 z"
             style="fill:#ff7200;fill-opacity:1;stroke:none" />
          <path
             sodipodi:nodetypes="ssccccccsssccccc"
             inkscape:connector-curvature="0"
             id="path6304"
             d="m -8.9999998,1038.3622 c -0.55228,0 -1,0.4477 -1,1 v 4 h 1 v -1.5 h 1 v 1.5 h 1 v -4 c 0,-0.5523 -0.44772,-1 -1,-1 z m 0,1 h 1 v 1.5 h -1 z"
             style="fill:#ff7200;fill-opacity:1;fill-rule:evenodd;stroke:none;stroke-width:1px;stroke-linecap:butt;stroke-linejoin:miter;stroke-opacity:1" />
          <path
             sodipodi:nodetypes="ccssscsssccccccccccc"
             inkscape:connector-curvature="0"
             id="path6307"
             d="m -5.4999998,1037.3622 v 6 h 2.5 c 0.55228,0 1,-0.4477 1,-1 v -1 c 0,-0.5523 -0.44772,-1 -1,-1 0.55228,0 1,-0.4477 1,-1 v -1 c 0,-0.5523 -0.44772,-1 -1,-1 z m 2.5,2.5 h -1.5 v -1.5 h 1.5 z m -1.5,1 h 1.5 v 1.5 h -1.5 z"
             style="color:#000000;display:inline;overflow:visible;visibility:visible;opacity:1;vector-effect:none;fill:#212121;fill-opacity:1;fill-rule:nonzero;stroke:none;stroke-width:4;stroke-linecap:butt;stroke-linejoin:round;stroke-miterlimit:4;stroke-dasharray:none;stroke-dashoffset:47.29829788;stroke-opacity:1;marker:none;enable-background:accumulate" />
        </g>
      </g>
    </g>
  </g>
</svg>
