<?xml version="1.0" encoding="UTF-8" standalone="no"?>
<!-- Created with Inkscape (http://www.inkscape.org/) -->

<svg
   xmlns:dc="http://purl.org/dc/elements/1.1/"
   xmlns:cc="http://creativecommons.org/ns#"
   xmlns:rdf="http://www.w3.org/1999/02/22-rdf-syntax-ns#"
   xmlns:svg="http://www.w3.org/2000/svg"
   xmlns="http://www.w3.org/2000/svg"
   xmlns:sodipodi="http://sodipodi.sourceforge.net/DTD/sodipodi-0.dtd"
   xmlns:inkscape="http://www.inkscape.org/namespaces/inkscape"
   width="48"
   height="48"
   id="svg4682"
   version="1.1"
   inkscape:version="0.48.5 r10040"
   sodipodi:docname="ic_browser_unknown_big_normal.svg"
   inkscape:export-filename="/home/corbax/Dev/android/Icons/Test 1/ic_play_normal.png"
   inkscape:export-xdpi="90"
   inkscape:export-ydpi="90">
  <defs
     id="defs4684" />
  <sodipodi:namedview
     id="base"
     pagecolor="#ffffff"
     bordercolor="#666666"
     borderopacity="1.0"
     inkscape:pageopacity="0.0"
     inkscape:pageshadow="2"
     inkscape:zoom="11.2"
     inkscape:cx="-26.842084"
     inkscape:cy="27.939419"
     inkscape:document-units="px"
     inkscape:current-layer="layer1"
     showgrid="false"
     inkscape:window-width="1920"
     inkscape:window-height="1056"
     inkscape:window-x="0"
     inkscape:window-y="24"
     inkscape:window-maximized="1" />
  <metadata
     id="metadata4687">
    <rdf:RDF>
      <cc:Work
         rdf:about="">
        <dc:format>image/svg+xml</dc:format>
        <dc:type
           rdf:resource="http://purl.org/dc/dcmitype/StillImage" />
        <dc:title></dc:title>
      </cc:Work>
    </rdf:RDF>
  </metadata>
  <g
     inkscape:label="Layer 1"
     inkscape:groupmode="layer"
     id="layer1"
     transform="translate(0,-1004.3622)">
    <path
       style="color:#000000;fill:#757575;fill-opacity:1;fill-rule:nonzero;stroke:none;stroke-width:1;marker:none;visibility:visible;display:inline;overflow:visible;enable-background:accumulate"
       d="m 23.999999,1012.3622 c -1.1248,0 -2.332818,0.7784 -2.666666,1.7778 l -8.888889,25.7778 -2.6666661,0 c -0.9818321,0 -1.7777781,0.7958 -1.7777781,1.7778 l 0,2.6666 c 10.1818132,-0.038 21.8181872,-0.038 32.0000002,0 l 0,-2.6666 c 0,-0.982 -0.795946,-1.7778 -1.777778,-1.7778 l -2.666667,0 -8.888888,-25.7778 c -0.343486,-0.9962 -1.541868,-1.7778 -2.666668,-1.7778 z m 0,10.7224 c 2.951112,0 5.333334,2.3822 5.333334,5.3332 0,1.1734 -0.457778,2.2356 -1.222222,3 0,0 -0.706668,0.7622 -1.222222,1.2778 -0.853334,0.8532 -1.444446,2.0334 -1.444446,2.8334 l -2.888888,0 c 0,-1.4756 0.831112,-2.7022 1.666666,-3.5556 l 1.666668,-1.6666 c 0.48,-0.48 0.777778,-1.16 0.777778,-1.889 0,-1.4756 -1.191112,-2.6666 -2.666668,-2.6666 -1.475556,0 -2.666666,1.191 -2.666666,2.6666 l -2.666666,0 c 0,-2.951 2.382222,-5.3332 5.333332,-5.3332 z m -1.666666,14.3332 3.333334,0 0,3.3888 -3.333334,0 0,-3.3888 z"
       id="path4926"
       inkscape:connector-curvature="0" />
  </g>
</svg>
