<?xml version="1.0" encoding="UTF-8" standalone="no"?>
<!-- Created with Inkscape (http://www.inkscape.org/) -->

<svg
   xmlns:dc="http://purl.org/dc/elements/1.1/"
   xmlns:cc="http://creativecommons.org/ns#"
   xmlns:rdf="http://www.w3.org/1999/02/22-rdf-syntax-ns#"
   xmlns:svg="http://www.w3.org/2000/svg"
   xmlns="http://www.w3.org/2000/svg"
   xmlns:sodipodi="http://sodipodi.sourceforge.net/DTD/sodipodi-0.dtd"
   xmlns:inkscape="http://www.inkscape.org/namespaces/inkscape"
   width="48"
   height="48"
   id="svg4682"
   version="1.1"
   inkscape:version="0.92.1 r15371"
   sodipodi:docname="ic_browser_unknown_big_normal.svg"
   inkscape:export-filename="/home/corbax/Dev/android/Icons/Test 1/ic_play_normal.png"
   inkscape:export-xdpi="90"
   inkscape:export-ydpi="90">
  <defs
     id="defs4684" />
  <sodipodi:namedview
     id="base"
     pagecolor="#ffffff"
     bordercolor="#666666"
     borderopacity="1.0"
     inkscape:pageopacity="0.0"
     inkscape:pageshadow="2"
     inkscape:zoom="11.2"
     inkscape:cx="54.140059"
     inkscape:cy="27.939419"
     inkscape:document-units="px"
     inkscape:current-layer="layer1"
     showgrid="true"
     inkscape:window-width="1920"
     inkscape:window-height="1027"
     inkscape:window-x="0"
     inkscape:window-y="27"
     inkscape:window-maximized="1">
    <inkscape:grid
       type="xygrid"
       id="grid4483" />
  </sodipodi:namedview>
  <metadata
     id="metadata4687">
    <rdf:RDF>
      <cc:Work
         rdf:about="">
        <dc:format>image/svg+xml</dc:format>
        <dc:type
           rdf:resource="http://purl.org/dc/dcmitype/StillImage" />
        <dc:title></dc:title>
      </cc:Work>
    </rdf:RDF>
  </metadata>
  <g
     inkscape:label="Layer 1"
     inkscape:groupmode="layer"
     id="layer1"
     transform="translate(0,-1004.3622)">
    <path
       style="color:#000000;display:inline;overflow:visible;visibility:visible;fill:#757575;fill-opacity:1;fill-rule:nonzero;stroke:none;stroke-width:1.125;marker:none;enable-background:accumulate"
       d="m 23.999999,1010.3622 c -1.2654,0 -2.62442,0.8757 -2.999999,2 l -10,29.0001 H 8 c -1.104561,0 -2,0.8952 -2,2 v 2.9999 c 11.45454,-0.043 24.54546,-0.043 36,0 v -2.9999 c 0,-1.1048 -0.895439,-2 -2,-2 H 36.999999 L 27,1012.3622 c -0.386421,-1.1207 -1.734601,-2 -3.000001,-2 z m 0,12.0627 c 3.320001,0 6.000001,2.68 6.000001,5.9999 0,1.32 -0.515001,2.515 -1.375,3.375 0,0 -0.795002,0.8574 -1.375,1.4375 -0.960001,0.9598 -1.625002,2.2876 -1.625002,3.1876 h -3.249999 c 0,-1.6601 0.935001,-3.04 1.875,-4.0001 l 1.875001,-1.8749 c 0.54,-0.54 0.875,-1.305 0.875,-2.1251 0,-1.6601 -1.340001,-3 -3.000001,-3 -1.660001,0 -2.999999,1.3399 -2.999999,3 h -3 c 0,-3.3199 2.68,-5.9999 5.999999,-5.9999 z M 22.125,1038.5498 h 3.75 v 3.8124 h -3.75 z"
       id="path4926"
       inkscape:connector-curvature="0" />
  </g>
</svg>
