<?xml version="1.0" encoding="UTF-8" standalone="no"?>
<!-- Created with Inkscape (http://www.inkscape.org/) -->

<svg
   xmlns:dc="http://purl.org/dc/elements/1.1/"
   xmlns:cc="http://creativecommons.org/ns#"
   xmlns:rdf="http://www.w3.org/1999/02/22-rdf-syntax-ns#"
   xmlns:svg="http://www.w3.org/2000/svg"
   xmlns="http://www.w3.org/2000/svg"
   xmlns:sodipodi="http://sodipodi.sourceforge.net/DTD/sodipodi-0.dtd"
   xmlns:inkscape="http://www.inkscape.org/namespaces/inkscape"
   width="24"
   height="24"
   id="svg4682"
   version="1.1"
   inkscape:version="0.48.5 r10040"
   sodipodi:docname="ic_subtitle_normal.svg"
   inkscape:export-filename="/home/corbax/Dev/android/Icons/Test 1/ic_play_normal.png"
   inkscape:export-xdpi="90"
   inkscape:export-ydpi="90">
  <defs
     id="defs4684" />
  <sodipodi:namedview
     id="base"
     pagecolor="#ffffff"
     bordercolor="#666666"
     borderopacity="1.0"
     inkscape:pageopacity="0.0"
     inkscape:pageshadow="2"
     inkscape:zoom="7.919596"
     inkscape:cx="-3.8703699"
     inkscape:cy="8.0868141"
     inkscape:document-units="px"
     inkscape:current-layer="layer1"
     showgrid="false"
     inkscape:window-width="960"
     inkscape:window-height="1028"
     inkscape:window-x="2356"
     inkscape:window-y="24"
     inkscape:window-maximized="0" />
  <metadata
     id="metadata4687">
    <rdf:RDF>
      <cc:Work
         rdf:about="">
        <dc:format>image/svg+xml</dc:format>
        <dc:type
           rdf:resource="http://purl.org/dc/dcmitype/StillImage" />
        <dc:title />
      </cc:Work>
    </rdf:RDF>
  </metadata>
  <g
     inkscape:label="Layer 1"
     inkscape:groupmode="layer"
     id="layer1"
     transform="translate(0,-1028.3622)">
    <path
       style="color:#000000;fill:#757575;fill-opacity:1;fill-rule:nonzero;stroke:none;stroke-width:0.5;marker:none;visibility:visible;display:inline;overflow:visible;enable-background:accumulate"
       d="m 6.875,1032.3622 c -1.59275,0 -2.875,1.2824 -2.875,2.8753 l 0,5.7505 c 0,1.5929 1.28225,2.8753 2.875,2.8753 l 4.03125,0 -0.710937,3.9027 c -0.10316,0.4093 0.49364,0.7766 0.8125,0.5 l 5.054687,-4.4027 1.0625,0 c 1.59275,0 2.875,-1.2824 2.875,-2.8753 l 0,-5.7505 c 0,-1.5929 -1.28225,-2.8753 -2.875,-2.8753 z m -0.875,2.0002 12,0 0,1.5001 -12,0 z m 0,3.0003 7,0 0,1.5001 -7,0 z m 8.5,0 3.5,0 0,1.5001 -3.5,0 z m -8.5,3.0002 9,0 0,1.5002 -9,0 z m 10.5,0 1.5,0 0,1.5002 -1.5,0 z"
       id="rect4758"
       inkscape:connector-curvature="0"
       sodipodi:nodetypes="ssssccccsssssccccccccccccccccccccccccc" />
  </g>
</svg>
