<?xml version="1.0" encoding="UTF-8" standalone="no"?>
<!-- Created with Inkscape (http://www.inkscape.org/) -->

<svg
   xmlns:dc="http://purl.org/dc/elements/1.1/"
   xmlns:cc="http://creativecommons.org/ns#"
   xmlns:rdf="http://www.w3.org/1999/02/22-rdf-syntax-ns#"
   xmlns:svg="http://www.w3.org/2000/svg"
   xmlns="http://www.w3.org/2000/svg"
   xmlns:sodipodi="http://sodipodi.sourceforge.net/DTD/sodipodi-0.dtd"
   xmlns:inkscape="http://www.inkscape.org/namespaces/inkscape"
   width="48"
   height="48"
   id="svg4682"
   version="1.1"
   inkscape:version="0.92.1 r15371"
   sodipodi:docname="ic_browser_audio_big_normal.svg"
   inkscape:export-filename="/home/corbax/Dev/android/Icons/Test 1/ic_play_normal.png"
   inkscape:export-xdpi="90"
   inkscape:export-ydpi="90">
  <defs
     id="defs4684" />
  <sodipodi:namedview
     id="base"
     pagecolor="#ffffff"
     bordercolor="#666666"
     borderopacity="1.0"
     inkscape:pageopacity="0.0"
     inkscape:pageshadow="2"
     inkscape:zoom="5.6"
     inkscape:cx="-7.5988954"
     inkscape:cy="31.074178"
     inkscape:document-units="px"
     inkscape:current-layer="layer1"
     showgrid="true"
     inkscape:window-width="1920"
     inkscape:window-height="1027"
     inkscape:window-x="0"
     inkscape:window-y="27"
     inkscape:window-maximized="1">
    <inkscape:grid
       type="xygrid"
       id="grid4483" />
  </sodipodi:namedview>
  <metadata
     id="metadata4687">
    <rdf:RDF>
      <cc:Work
         rdf:about="">
        <dc:format>image/svg+xml</dc:format>
        <dc:type
           rdf:resource="http://purl.org/dc/dcmitype/StillImage" />
        <dc:title></dc:title>
      </cc:Work>
    </rdf:RDF>
  </metadata>
  <g
     inkscape:label="Layer 1"
     inkscape:groupmode="layer"
     id="layer1"
     transform="translate(0,-1004.3622)">
    <path
       style="color:#000000;display:inline;overflow:visible;visibility:visible;fill:#757575;fill-opacity:1;fill-rule:nonzero;stroke:none;stroke-width:1.125;marker:none;enable-background:accumulate"
       d="m 36,1010.3622 -17.75015,7.1251 c -1.326872,0.6509 -2.250019,1.9847 -2.250019,3.5626 v 5.3125 10.0627 c -0.325482,-0.065 -0.654823,-0.063 -1.000008,-0.063 -2.761442,0 -5.000041,2.2385 -5.000041,5 0,2.7616 2.238599,5.0001 5.000041,5.0001 2.761443,0 5.000041,-2.2385 5.000041,-5.0001 v -16.6252 l 12.000102,-4.7499 v 12.4375 c -0.325484,-0.065 -0.654825,-0.061 -1.000008,-0.061 -2.761445,0 -5.00004,2.2385 -5.00004,4.9999 0,2.7615 2.238596,5 5.00004,5 2.76144,0 5.000039,-2.2385 5.000039,-5 v -19.0002 -8.0001 z"
       id="path6883"
       inkscape:connector-curvature="0" />
  </g>
</svg>
