<?xml version="1.0" encoding="UTF-8" standalone="no"?>
<!-- Created with Inkscape (http://www.inkscape.org/) -->

<svg
   xmlns:dc="http://purl.org/dc/elements/1.1/"
   xmlns:cc="http://creativecommons.org/ns#"
   xmlns:rdf="http://www.w3.org/1999/02/22-rdf-syntax-ns#"
   xmlns:svg="http://www.w3.org/2000/svg"
   xmlns="http://www.w3.org/2000/svg"
   xmlns:sodipodi="http://sodipodi.sourceforge.net/DTD/sodipodi-0.dtd"
   xmlns:inkscape="http://www.inkscape.org/namespaces/inkscape"
   width="24"
   height="24"
   id="svg4682"
   version="1.1"
   inkscape:version="0.48.5 r10040"
   sodipodi:docname="ic_browser_video_normal.svg"
   inkscape:export-filename="/home/corbax/Dev/android/Icons/Test 1/ic_play_normal.png"
   inkscape:export-xdpi="90"
   inkscape:export-ydpi="90">
  <defs
     id="defs4684" />
  <sodipodi:namedview
     id="base"
     pagecolor="#ffffff"
     bordercolor="#666666"
     borderopacity="1.0"
     inkscape:pageopacity="0.0"
     inkscape:pageshadow="2"
     inkscape:zoom="22.4"
     inkscape:cx="19.026992"
     inkscape:cy="9.1843418"
     inkscape:document-units="px"
     inkscape:current-layer="layer1"
     showgrid="true"
     inkscape:window-width="1920"
     inkscape:window-height="1056"
     inkscape:window-x="1920"
     inkscape:window-y="24"
     inkscape:window-maximized="1">
    <inkscape:grid
       type="xygrid"
       id="grid2983" />
  </sodipodi:namedview>
  <metadata
     id="metadata4687">
    <rdf:RDF>
      <cc:Work
         rdf:about="">
        <dc:format>image/svg+xml</dc:format>
        <dc:type
           rdf:resource="http://purl.org/dc/dcmitype/StillImage" />
        <dc:title />
      </cc:Work>
    </rdf:RDF>
  </metadata>
  <g
     inkscape:label="Layer 1"
     inkscape:groupmode="layer"
     id="layer1"
     transform="translate(0,-1028.3622)">
    <path
       style="color:#000000;fill:#757575;fill-opacity:1;fill-rule:nonzero;stroke:none;stroke-width:1;marker:none;visibility:visible;display:inline;overflow:visible;enable-background:accumulate"
       d="m 19.194444,1032.3622 -3.5,0.6389 1.444445,2.8889 2.611111,-0.5 -0.555556,-3.0278 z m -5.25,0.9723 -3.5,0.6388 1.444445,2.8889 3.5,-0.6388 -1.444445,-2.8889 z m -5.2499996,0.9444 -3.5,0.6389 1.4444445,2.8888 3.5000001,-0.6388 -1.4444446,-2.8889 z M 4,1035.0289 4,1041.2511 4.8888889,1038.14 4,1035.0289 z m 0,6.2222 0,5.3333 c 0,0.9849 0.7928889,1.7778 1.7777778,1.7778 l 12.4444442,0 c 0.984889,0 1.777778,-0.7929 1.777778,-1.7778 l 0,-5.3333 0,-3.1111 -2.666667,0 -0.888889,3.1111 -1.777777,0 0.888889,-3.1111 -3.555556,0 -0.888889,3.1111 -1.7777777,0 0.8888887,-3.1111 -3.5555553,0 -0.8888889,3.1111 -1.7777778,0 z"
       id="rect6936"
       inkscape:connector-curvature="0" />
  </g>
</svg>
