<?xml version="1.0" encoding="UTF-8" standalone="no"?>
<!-- Created with Inkscape (http://www.inkscape.org/) -->

<svg
   xmlns:dc="http://purl.org/dc/elements/1.1/"
   xmlns:cc="http://creativecommons.org/ns#"
   xmlns:rdf="http://www.w3.org/1999/02/22-rdf-syntax-ns#"
   xmlns:svg="http://www.w3.org/2000/svg"
   xmlns="http://www.w3.org/2000/svg"
   xmlns:sodipodi="http://sodipodi.sourceforge.net/DTD/sodipodi-0.dtd"
   xmlns:inkscape="http://www.inkscape.org/namespaces/inkscape"
   width="48"
   height="48"
   id="svg4682"
   version="1.1"
   inkscape:version="0.48.5 r10040"
   sodipodi:docname="ic_browser_video_big_normal.svg"
   inkscape:export-filename="/home/corbax/Dev/android/Icons/Test 1/ic_play_normal.png"
   inkscape:export-xdpi="90"
   inkscape:export-ydpi="90">
  <defs
     id="defs4684" />
  <sodipodi:namedview
     id="base"
     pagecolor="#ffffff"
     bordercolor="#666666"
     borderopacity="1.0"
     inkscape:pageopacity="0.0"
     inkscape:pageshadow="2"
     inkscape:zoom="11.2"
     inkscape:cx="-16.217084"
     inkscape:cy="27.939419"
     inkscape:document-units="px"
     inkscape:current-layer="layer1"
     showgrid="false"
     inkscape:window-width="1920"
     inkscape:window-height="1056"
     inkscape:window-x="0"
     inkscape:window-y="24"
     inkscape:window-maximized="1" />
  <metadata
     id="metadata4687">
    <rdf:RDF>
      <cc:Work
         rdf:about="">
        <dc:format>image/svg+xml</dc:format>
        <dc:type
           rdf:resource="http://purl.org/dc/dcmitype/StillImage" />
        <dc:title></dc:title>
      </cc:Work>
    </rdf:RDF>
  </metadata>
  <g
     inkscape:label="Layer 1"
     inkscape:groupmode="layer"
     id="layer1"
     transform="translate(0,-1004.3622)">
    <path
       style="color:#000000;fill:#757575;fill-opacity:1;fill-rule:nonzero;stroke:none;stroke-width:1;marker:none;visibility:visible;display:inline;overflow:visible;enable-background:accumulate"
       d="m 38.388888,1012.3622 -7,1.2778 2.88889,5.7778 5.222222,-1 -1.111112,-6.0556 z m -10.5,1.9446 -7,1.2776 2.88889,5.7778 7,-1.2776 -2.88889,-5.7778 z m -10.5,1.8888 -7,1.2778 2.88889,5.7776 7,-1.2776 -2.88889,-5.7778 z M 8,1017.6956 8,1030.14 9.777778,1023.9178 8,1017.6956 z m 0,12.4444 0,10.6666 c 0,1.9698 1.585778,3.5556 3.555556,3.5556 l 24.888888,0 c 1.969778,0 3.555556,-1.5858 3.555556,-3.5556 l 0,-10.6666 0,-6.2222 -5.333334,0 -1.777778,6.2222 -3.555554,0 1.777778,-6.2222 -7.111112,0 -1.777778,6.2222 -3.555556,0 1.777778,-6.2222 -7.111112,0 -1.777776,6.2222 -3.555556,0 z"
       id="rect6936"
       inkscape:connector-curvature="0" />
  </g>
</svg>
