<?xml version="1.0" encoding="UTF-8" standalone="no"?>
<!-- Created with Inkscape (http://www.inkscape.org/) -->

<svg
   xmlns:dc="http://purl.org/dc/elements/1.1/"
   xmlns:cc="http://creativecommons.org/ns#"
   xmlns:rdf="http://www.w3.org/1999/02/22-rdf-syntax-ns#"
   xmlns:svg="http://www.w3.org/2000/svg"
   xmlns="http://www.w3.org/2000/svg"
   xmlns:sodipodi="http://sodipodi.sourceforge.net/DTD/sodipodi-0.dtd"
   xmlns:inkscape="http://www.inkscape.org/namespaces/inkscape"
   width="200"
   height="200"
   id="svg4682"
   version="1.1"
   inkscape:version="0.48.4 r9939"
   sodipodi:docname="ic_crop_circle_normal_o.svg"
   inkscape:export-filename="/home/corbax/Dev/android/Icons/Test 1/ic_play_normal.png"
   inkscape:export-xdpi="90"
   inkscape:export-ydpi="90">
  <defs
     id="defs4684">
    <filter
       color-interpolation-filters="sRGB"
       inkscape:collect="always"
       id="filter5575"
       x="-0.23999999"
       width="1.48"
       y="-0.23999999"
       height="1.48">
      <feGaussianBlur
         inkscape:collect="always"
         stdDeviation="10"
         id="feGaussianBlur5577" />
    </filter>
  </defs>
  <sodipodi:namedview
     id="base"
     pagecolor="#ffffff"
     bordercolor="#666666"
     borderopacity="1.0"
     inkscape:pageopacity="0.0"
     inkscape:pageshadow="2"
     inkscape:zoom="2.8284271"
     inkscape:cx="87.38478"
     inkscape:cy="100.75747"
     inkscape:document-units="px"
     inkscape:current-layer="layer1"
     showgrid="false"
     inkscape:window-width="1680"
     inkscape:window-height="1026"
     inkscape:window-x="1920"
     inkscape:window-y="54"
     inkscape:window-maximized="1" />
  <metadata
     id="metadata4687">
    <rdf:RDF>
      <cc:Work
         rdf:about="">
        <dc:format>image/svg+xml</dc:format>
        <dc:type
           rdf:resource="http://purl.org/dc/dcmitype/StillImage" />
        <dc:title></dc:title>
      </cc:Work>
    </rdf:RDF>
  </metadata>
  <g
     inkscape:label="Layer 1"
     inkscape:groupmode="layer"
     id="layer1"
     transform="translate(0,-852.36218)">
    <g
       id="g3874"
       transform="matrix(1.25,0,0,1.25,-226.25,338.15945)" />
    <g
       id="g5583"
       transform="matrix(1.5,0,0,1.5,530.81547,1339.1864)">
      <path
         transform="translate(-532.21031,-765.245)"
         sodipodi:type="arc"
         style="opacity:0.9;fill:#ff8800;fill-opacity:1;stroke:none"
         id="path5299"
         sodipodi:cx="245"
         sodipodi:cy="507.36218"
         sodipodi:rx="50"
         sodipodi:ry="50"
         d="m 295,507.36218 c 0,27.61424 -22.38576,50 -50,50 -27.61424,0 -50,-22.38576 -50,-50 0,-27.61423 22.38576,-50 50,-50 27.61424,0 50,22.38577 50,50 z" />
      <path
         inkscape:connector-curvature="0"
         style="fill:#fafafa;fill-opacity:1;stroke:none"
         d="m -307.19057,-287.91043 0,10 -10,0 0,5 10,0 0,35 35,0 0,10 5,0 0,-10 10,0 0,-5 -10,0 0,-35 -35,0 0,-10 -5,0 z m 5,15 30,0 0,30 -30,0 0,-30 z m 7.8125,8.5625 a 1.4521819,1.4521819 0 0 0 -1.125,0.7813 l -5,10 a 1.4521819,1.4521819 0 0 0 -0.125,0.6562 l 0,7 a 1.4521819,1.4521819 0 0 0 1.4375,1.4375 l 24,0 a 1.4521819,1.4521819 0 0 0 1.4375,-1.4375 l 0,-6 a 1.4521819,1.4521819 0 0 0 -1.03125,-1.4062 l -7,-2 a 1.4521819,1.4521819 0 0 0 -1.3125,0.2812 l -3.625,2.9062 -6.1875,-11.4687 a 1.4521819,1.4521819 0 0 0 -1.46875,-0.75 z"
         id="path5301" />
    </g>
  </g>
</svg>
