<?xml version="1.0" encoding="UTF-8" standalone="no"?>
<!-- Created with Inkscape (http://www.inkscape.org/) -->

<svg
   xmlns:dc="http://purl.org/dc/elements/1.1/"
   xmlns:cc="http://creativecommons.org/ns#"
   xmlns:rdf="http://www.w3.org/1999/02/22-rdf-syntax-ns#"
   xmlns:svg="http://www.w3.org/2000/svg"
   xmlns="http://www.w3.org/2000/svg"
   xmlns:sodipodi="http://sodipodi.sourceforge.net/DTD/sodipodi-0.dtd"
   xmlns:inkscape="http://www.inkscape.org/namespaces/inkscape"
   width="20"
   height="20"
   id="svg3428"
   version="1.1"
   inkscape:version="0.48.5 r10040"
   sodipodi:docname="ic_crop_circle_pressed_o.svg">
  <defs
     id="defs3430" />
  <sodipodi:namedview
     id="base"
     pagecolor="#ffffff"
     bordercolor="#666666"
     borderopacity="1.0"
     inkscape:pageopacity="0.0"
     inkscape:pageshadow="2"
     inkscape:zoom="22.4"
     inkscape:cx="16.116207"
     inkscape:cy="9.2204448"
     inkscape:document-units="px"
     inkscape:current-layer="layer1"
     showgrid="true"
     inkscape:window-width="1920"
     inkscape:window-height="1056"
     inkscape:window-x="1920"
     inkscape:window-y="24"
     inkscape:window-maximized="1">
    <inkscape:grid
       type="xygrid"
       id="grid3436"
       empspacing="4"
       visible="true"
       enabled="true"
       snapvisiblegridlinesonly="true" />
  </sodipodi:namedview>
  <metadata
     id="metadata3433">
    <rdf:RDF>
      <cc:Work
         rdf:about="">
        <dc:format>image/svg+xml</dc:format>
        <dc:type
           rdf:resource="http://purl.org/dc/dcmitype/StillImage" />
        <dc:title />
      </cc:Work>
    </rdf:RDF>
  </metadata>
  <g
     inkscape:label="Layer 1"
     inkscape:groupmode="layer"
     id="layer1"
     transform="translate(0,-1032.3622)">
    <path
       transform="matrix(0.16,0,0,0.16,-29.2,961.18425)"
       sodipodi:type="arc"
       style="fill:#fecb65;fill-opacity:1;stroke:none"
       id="path6419"
       sodipodi:cx="245"
       sodipodi:cy="507.36218"
       sodipodi:rx="50"
       sodipodi:ry="50"
       d="m 295,507.36218 c 0,27.61424 -22.38576,50 -50,50 -27.61424,0 -50,-22.38576 -50,-50 0,-27.61423 22.38576,-50 50,-50 27.61424,0 50,22.38577 50,50 z" />
    <path
       style="fill:#ff7200;fill-opacity:1;stroke:none"
       d="m 6.8,1037.568 0,1.6 -1.6,0 0,0.8 1.6,0 0,4.8 c 0,0.4432 0.3568,0.8 0.8,0.8 l 4.8,0 0,1.6 0.8,0 0,-1.6 1.6,0 0,-0.8 -1.6,0 0,-4.8 c 0,-0.4432 -0.35688,-0.8 -0.8,-0.8 l -4.8,0 0,-1.6 -0.8,0 z m 0.8,2.4 4.8,0 0,4.8 -4.8,0 0,-4.8 z m 1.22496,1.35 a 0.2323491,0.2323491 0 0 0 -0.0752,0.05 0.2323491,0.2323491 0 0 0 -0.0248,0.025 0.2323491,0.2323491 0 0 0 -0.0496,0.05 l -0.8,1.6 a 0.2323491,0.2323491 0 0 0 -0.0248,0.1 0.2323491,0.2323491 0 0 0 0,0.025 l 0,1.1 a 0.2323491,0.2323491 0 0 0 0.0248,0.1 0.2323491,0.2323491 0 0 0 0.0248,0.05 0.2323491,0.2323491 0 0 0 0.0248,0.025 0.2323491,0.2323491 0 0 0 0.0248,0.025 0.2323491,0.2323491 0 0 0 0.0496,0.025 0.2323491,0.2323491 0 0 0 0.0752,0.025 l 3.85,0 a 0.2323491,0.2323491 0 0 0 0.0752,-0.025 0.2323491,0.2323491 0 0 0 0.0496,-0.025 0.2323491,0.2323491 0 0 0 0.0248,-0.025 0.2323491,0.2323491 0 0 0 0.0248,-0.025 0.2323491,0.2323491 0 0 0 0.0248,-0.05 0.2323491,0.2323491 0 0 0 0.0248,-0.1 l 0,-0.95 a 0.2323491,0.2323491 0 0 0 -0.0248,-0.1 0.2323491,0.2323491 0 0 0 -0.0248,-0.05 0.2323491,0.2323491 0 0 0 -0.0248,-0.025 0.2323491,0.2323491 0 0 0 -0.0496,-0.025 0.2323491,0.2323491 0 0 0 -0.0496,-0.025 l -1.1,-0.3249 a 0.2323491,0.2323491 0 0 0 -0.12496,0 0.2323491,0.2323491 0 0 0 -0.1,0.05 l -0.57504,0.4749 -1,-1.85 a 0.2323491,0.2323491 0 0 0 -0.1,-0.1 0.2323491,0.2323491 0 0 0 -0.1,-0.025 0.2323491,0.2323491 0 0 0 -0.0248,0 0.2323491,0.2323491 0 0 0 -0.0248,0 z"
       id="path6421"
       inkscape:connector-curvature="0" />
  </g>
</svg>
