<?xml version="1.0" encoding="UTF-8" standalone="no"?>
<!-- Created with Inkscape (http://www.inkscape.org/) -->

<svg
   xmlns:dc="http://purl.org/dc/elements/1.1/"
   xmlns:cc="http://creativecommons.org/ns#"
   xmlns:rdf="http://www.w3.org/1999/02/22-rdf-syntax-ns#"
   xmlns:svg="http://www.w3.org/2000/svg"
   xmlns="http://www.w3.org/2000/svg"
   xmlns:sodipodi="http://sodipodi.sourceforge.net/DTD/sodipodi-0.dtd"
   xmlns:inkscape="http://www.inkscape.org/namespaces/inkscape"
   width="24"
   height="24"
   id="svg3428"
   version="1.1"
   inkscape:version="0.48.5 r10040"
   sodipodi:docname="ic_crop_circle_normal_o.svg">
  <defs
     id="defs3430" />
  <sodipodi:namedview
     id="base"
     pagecolor="#ffffff"
     bordercolor="#666666"
     borderopacity="1.0"
     inkscape:pageopacity="0.0"
     inkscape:pageshadow="2"
     inkscape:zoom="22.4"
     inkscape:cx="0.90602264"
     inkscape:cy="12.473858"
     inkscape:document-units="px"
     inkscape:current-layer="g3755"
     showgrid="true"
     inkscape:window-width="960"
     inkscape:window-height="1028"
     inkscape:window-x="1920"
     inkscape:window-y="24"
     inkscape:window-maximized="0">
    <inkscape:grid
       type="xygrid"
       id="grid3436"
       empspacing="4"
       visible="true"
       enabled="true"
       snapvisiblegridlinesonly="true" />
  </sodipodi:namedview>
  <metadata
     id="metadata3433">
    <rdf:RDF>
      <cc:Work
         rdf:about="">
        <dc:format>image/svg+xml</dc:format>
        <dc:type
           rdf:resource="http://purl.org/dc/dcmitype/StillImage" />
        <dc:title />
      </cc:Work>
    </rdf:RDF>
  </metadata>
  <g
     inkscape:label="Layer 1"
     inkscape:groupmode="layer"
     id="layer1"
     transform="translate(0,-1028.3622)">
    <g
       id="g4552"
       transform="translate(3,1.0000035)">
      <g
         transform="translate(-1965.6949,565.00001)"
         id="g6375"
         style="opacity:1">
        <g
           id="g3755">
          <path
             transform="matrix(0.2,0,0,0.2,1925.6949,372.88975)"
             sodipodi:type="arc"
             style="fill:#ff8800;fill-opacity:0.70588236999999998;stroke:none;opacity:1"
             id="path6377"
             sodipodi:cx="245"
             sodipodi:cy="507.36218"
             sodipodi:rx="50"
             sodipodi:ry="50"
             d="m 295,507.36218 c 0,27.61424 -22.38576,50 -50,50 -27.61424,0 -50,-22.38576 -50,-50 0,-27.61423 22.38576,-50 50,-50 27.61424,0 50,22.38577 50,50 z" />
          <path
             style="fill:#eeeeee;fill-opacity:1;stroke:none"
             d="m 1970.6989,468.36949 0,2 -2,0 0,1 2,0 0,6 c 0,0.554 0.446,1 1,1 l 6,0 0,2 1,0 0,-2 2,0 0,-1 -2,0 0,-6 c 0,-0.554 -0.4461,-1 -1,-1 l -6,0 0,-2 -1,0 z m 1,3 6,0 0,6 -6,0 0,-6 z m 1.5312,1.6875 a 0.29043638,0.29043638 0 0 0 -0.094,0.0625 0.29043638,0.29043638 0 0 0 -0.031,0.0312 0.29043638,0.29043638 0 0 0 -0.062,0.0625 l -1,2 a 0.29043638,0.29043638 0 0 0 -0.031,0.125 0.29043638,0.29043638 0 0 0 0,0.0312 l 0,1.375 a 0.29043638,0.29043638 0 0 0 0.031,0.125 0.29043638,0.29043638 0 0 0 0.031,0.0625 0.29043638,0.29043638 0 0 0 0.031,0.0312 0.29043638,0.29043638 0 0 0 0.031,0.0312 0.29043638,0.29043638 0 0 0 0.062,0.0312 0.29043638,0.29043638 0 0 0 0.094,0.0312 l 4.8125,0 a 0.29043638,0.29043638 0 0 0 0.094,-0.0312 0.29043638,0.29043638 0 0 0 0.062,-0.0312 0.29043638,0.29043638 0 0 0 0.031,-0.0312 0.29043638,0.29043638 0 0 0 0.031,-0.0312 0.29043638,0.29043638 0 0 0 0.031,-0.0625 0.29043638,0.29043638 0 0 0 0.031,-0.125 l 0,-1.1875 a 0.29043638,0.29043638 0 0 0 -0.031,-0.125 0.29043638,0.29043638 0 0 0 -0.031,-0.0625 0.29043638,0.29043638 0 0 0 -0.031,-0.0312 0.29043638,0.29043638 0 0 0 -0.062,-0.0312 0.29043638,0.29043638 0 0 0 -0.062,-0.0312 l -1.375,-0.40625 a 0.29043638,0.29043638 0 0 0 -0.1562,0 0.29043638,0.29043638 0 0 0 -0.125,0.0625 l -0.7188,0.59375 -1.25,-2.3125 a 0.29043638,0.29043638 0 0 0 -0.125,-0.125 0.29043638,0.29043638 0 0 0 -0.125,-0.0312 0.29043638,0.29043638 0 0 0 -0.031,0 0.29043638,0.29043638 0 0 0 -0.031,0 z"
             id="path6379"
             inkscape:connector-curvature="0" />
        </g>
      </g>
    </g>
  </g>
</svg>
