<?xml version="1.0" encoding="UTF-8" standalone="no"?><!-- Created with Inkscape (http://www.inkscape.org/) -->

<svg xmlns:dc="http://purl.org/dc/elements/1.1/" xmlns:cc="http://creativecommons.org/ns#"
        xmlns:rdf="http://www.w3.org/1999/02/22-rdf-syntax-ns#"
        xmlns:svg="http://www.w3.org/2000/svg" xmlns="http://www.w3.org/2000/svg"
        xmlns:sodipodi="http://sodipodi.sourceforge.net/DTD/sodipodi-0.dtd"
        xmlns:inkscape="http://www.inkscape.org/namespaces/inkscape" width="20" height="20"
        id="svg4682" version="1.1" inkscape:version="0.92.4 (5da689c313, 2019-01-14)"
        sodipodi:docname="ic_ctx_share_normal.svg"
        inkscape:export-filename="/home/corbax/Dev/android/Icons/Test 1/ic_play_normal.png"
        inkscape:export-xdpi="90" inkscape:export-ydpi="90">
    <defs id="defs4684" />
    <sodipodi:namedview id="base" pagecolor="#ffffff" bordercolor="#666666" borderopacity="1.0"
            inkscape:pageopacity="0.0" inkscape:pageshadow="2" inkscape:zoom="22.4"
            inkscape:cx="-3.3288069" inkscape:cy="13.024106" inkscape:document-units="px"
            inkscape:current-layer="layer1" showgrid="true" inkscape:window-width="1920"
            inkscape:window-height="1043" inkscape:window-x="1920" inkscape:window-y="0"
            inkscape:window-maximized="1" inkscape:snap-bbox="true" inkscape:bbox-nodes="true"
            inkscape:bbox-paths="true" inkscape:snap-bbox-edge-midpoints="true"
            inkscape:snap-bbox-midpoints="true" inkscape:object-paths="true"
            inkscape:snap-intersection-paths="true" inkscape:object-nodes="true"
            inkscape:snap-smooth-nodes="true" inkscape:snap-midpoints="true"
            inkscape:snap-object-midpoints="true" inkscape:snap-center="true">
        <inkscape:grid type="xygrid" id="grid3002" />
    </sodipodi:namedview>
    <metadata id="metadata4687">
        <rdf:RDF>
            <cc:Work rdf:about="">
                <dc:format>image/svg+xml</dc:format>
                <dc:type rdf:resource="http://purl.org/dc/dcmitype/StillImage" />
                <dc:title></dc:title>
            </cc:Work>
        </rdf:RDF>
    </metadata>
    <g inkscape:label="Layer 1" inkscape:groupmode="layer" id="layer1"
            transform="translate(0,-1032.3622)">
        <path inkscape:connector-curvature="0"
                style="color:#000000;display:inline;overflow:visible;visibility:visible;opacity:1;vector-effect:none;fill:#212121;fill-opacity:1;fill-rule:nonzero;stroke:none;stroke-width:15.11811066;stroke-linecap:round;stroke-linejoin:round;stroke-miterlimit:4;stroke-dasharray:none;stroke-dashoffset:0;stroke-opacity:1;marker:none;paint-order:markers fill stroke;enable-background:accumulate"
                d="m 14.5,1034.3622 a 2.5,2.5 0 0 0 -2.5,2.5 2.5,2.5 0 0 0 0.082,0.6211 l -4.88867,3.043 A 2.5,2.5 0 0 0 5.5,1039.8622 a 2.5,2.5 0 0 0 -2.5,2.5 2.5,2.5 0 0 0 2.5,2.5 2.5,2.5 0 0 0 1.64062,-0.6172 l 4.93555,3.0156 A 2.5,2.5 0 0 0 12,1047.8622 a 2.5,2.5 0 0 0 2.5,2.5 2.5,2.5 0 0 0 2.5,-2.5 2.5,2.5 0 0 0 -2.5,-2.5 2.5,2.5 0 0 0 -1.64258,0.6191 l -4.93554,-3.0156 A 2.5,2.5 0 0 0 8,1042.3622 2.5,2.5 0 0 0 7.9375,1041.827 l 4.93359,-3.0683 a 2.5,2.5 0 0 0 1.62891,0.6035 2.5,2.5 0 0 0 2.5,-2.5 2.5,2.5 0 0 0 -2.5,-2.5 z"
                id="circle7821" />
    </g>
</svg>
