<?xml version="1.0" encoding="UTF-8" standalone="no"?>
<!-- Created with Inkscape (http://www.inkscape.org/) -->

<svg
   xmlns:dc="http://purl.org/dc/elements/1.1/"
   xmlns:cc="http://creativecommons.org/ns#"
   xmlns:rdf="http://www.w3.org/1999/02/22-rdf-syntax-ns#"
   xmlns:svg="http://www.w3.org/2000/svg"
   xmlns="http://www.w3.org/2000/svg"
   xmlns:sodipodi="http://sodipodi.sourceforge.net/DTD/sodipodi-0.dtd"
   xmlns:inkscape="http://www.inkscape.org/namespaces/inkscape"
   width="24"
   height="24"
   id="svg3428"
   version="1.1"
   inkscape:version="0.48.5 r10040"
   sodipodi:docname="ic_crop_circle_pressed_o.svg">
  <defs
     id="defs3430" />
  <sodipodi:namedview
     id="base"
     pagecolor="#ffffff"
     bordercolor="#666666"
     borderopacity="1.0"
     inkscape:pageopacity="0.0"
     inkscape:pageshadow="2"
     inkscape:zoom="22.4"
     inkscape:cx="13.966697"
     inkscape:cy="11.035005"
     inkscape:document-units="px"
     inkscape:current-layer="layer1"
     showgrid="true"
     inkscape:window-width="1920"
     inkscape:window-height="1056"
     inkscape:window-x="1920"
     inkscape:window-y="24"
     inkscape:window-maximized="1">
    <inkscape:grid
       type="xygrid"
       id="grid3436"
       empspacing="4"
       visible="true"
       enabled="true"
       snapvisiblegridlinesonly="true" />
  </sodipodi:namedview>
  <metadata
     id="metadata3433">
    <rdf:RDF>
      <cc:Work
         rdf:about="">
        <dc:format>image/svg+xml</dc:format>
        <dc:type
           rdf:resource="http://purl.org/dc/dcmitype/StillImage" />
        <dc:title />
      </cc:Work>
    </rdf:RDF>
  </metadata>
  <g
     inkscape:label="Layer 1"
     inkscape:groupmode="layer"
     id="layer1"
     transform="translate(0,-1028.3622)">
    <path
       transform="matrix(0.2,0,0,0.2,-37,938.88976)"
       sodipodi:type="arc"
       style="fill:#ffbb33;fill-opacity:0.70588236999999998;stroke:none;opacity:1"
       id="path6419"
       sodipodi:cx="245"
       sodipodi:cy="507.36218"
       sodipodi:rx="50"
       sodipodi:ry="50"
       d="m 295,507.36218 c 0,27.61424 -22.38576,50 -50,50 -27.61424,0 -50,-22.38576 -50,-50 0,-27.61423 22.38576,-50 50,-50 27.61424,0 50,22.38577 50,50 z" />
    <path
       style="fill:#ff5014;fill-opacity:1;stroke:none"
       d="m 8,1034.3695 0,2 -2,0 0,1 2,0 0,6 c 0,0.554 0.446,1 1,1 l 6,0 0,2 1,0 0,-2 2,0 0,-1 -2,0 0,-6 c 0,-0.554 -0.4461,-1 -1,-1 l -6,0 0,-2 -1,0 z m 1,3 6,0 0,6 -6,0 0,-6 z m 1.5312,1.6875 a 0.29043638,0.29043638 0 0 0 -0.094,0.062 0.29043638,0.29043638 0 0 0 -0.031,0.031 0.29043638,0.29043638 0 0 0 -0.062,0.062 l -1,2 a 0.29043638,0.29043638 0 0 0 -0.031,0.125 0.29043638,0.29043638 0 0 0 0,0.031 l 0,1.375 a 0.29043638,0.29043638 0 0 0 0.031,0.125 0.29043638,0.29043638 0 0 0 0.031,0.062 0.29043638,0.29043638 0 0 0 0.031,0.031 0.29043638,0.29043638 0 0 0 0.031,0.031 0.29043638,0.29043638 0 0 0 0.062,0.031 0.29043638,0.29043638 0 0 0 0.094,0.031 l 4.8125,0 a 0.29043638,0.29043638 0 0 0 0.094,-0.031 0.29043638,0.29043638 0 0 0 0.062,-0.031 0.29043638,0.29043638 0 0 0 0.031,-0.031 0.29043638,0.29043638 0 0 0 0.031,-0.031 0.29043638,0.29043638 0 0 0 0.031,-0.062 0.29043638,0.29043638 0 0 0 0.031,-0.125 l 0,-1.1875 a 0.29043638,0.29043638 0 0 0 -0.031,-0.125 0.29043638,0.29043638 0 0 0 -0.031,-0.062 0.29043638,0.29043638 0 0 0 -0.031,-0.031 0.29043638,0.29043638 0 0 0 -0.062,-0.031 0.29043638,0.29043638 0 0 0 -0.062,-0.031 l -1.375,-0.4062 a 0.29043638,0.29043638 0 0 0 -0.1562,0 0.29043638,0.29043638 0 0 0 -0.125,0.062 l -0.7188,0.5937 -1.25,-2.3125 a 0.29043638,0.29043638 0 0 0 -0.125,-0.125 0.29043638,0.29043638 0 0 0 -0.125,-0.031 0.29043638,0.29043638 0 0 0 -0.031,0 0.29043638,0.29043638 0 0 0 -0.031,0 z"
       id="path6421"
       inkscape:connector-curvature="0" />
  </g>
</svg>
