<?xml version="1.0" encoding="UTF-8" standalone="no"?>
<!-- Created with Inkscape (http://www.inkscape.org/) -->

<svg
   xmlns:dc="http://purl.org/dc/elements/1.1/"
   xmlns:cc="http://creativecommons.org/ns#"
   xmlns:rdf="http://www.w3.org/1999/02/22-rdf-syntax-ns#"
   xmlns:svg="http://www.w3.org/2000/svg"
   xmlns="http://www.w3.org/2000/svg"
   xmlns:sodipodi="http://sodipodi.sourceforge.net/DTD/sodipodi-0.dtd"
   xmlns:inkscape="http://www.inkscape.org/namespaces/inkscape"
   width="24"
   height="24"
   id="svg4682"
   version="1.1"
   inkscape:version="0.92.3 (unknown)"
   sodipodi:docname="ic_crop_player.svg"
   inkscape:export-filename="/home/corbax/Dev/android/Icons/Test 1/ic_play_normal.png"
   inkscape:export-xdpi="90"
   inkscape:export-ydpi="90">
  <defs
     id="defs4684" />
  <sodipodi:namedview
     id="base"
     pagecolor="#ffffff"
     bordercolor="#666666"
     borderopacity="1.0"
     inkscape:pageopacity="0.0"
     inkscape:pageshadow="2"
     inkscape:zoom="15.839192"
     inkscape:cx="9.8625268"
     inkscape:cy="15.929419"
     inkscape:document-units="px"
     inkscape:current-layer="layer1"
     showgrid="true"
     inkscape:window-width="1920"
     inkscape:window-height="1043"
     inkscape:window-x="1920"
     inkscape:window-y="0"
     inkscape:window-maximized="1">
    <inkscape:grid
       type="xygrid"
       id="grid3956"
       empspacing="4"
       visible="true"
       enabled="true"
       snapvisiblegridlinesonly="true" />
  </sodipodi:namedview>
  <metadata
     id="metadata4687">
    <rdf:RDF>
      <cc:Work
         rdf:about="">
        <dc:format>image/svg+xml</dc:format>
        <dc:type
           rdf:resource="http://purl.org/dc/dcmitype/StillImage" />
        <dc:title />
      </cc:Work>
    </rdf:RDF>
  </metadata>
  <g
     inkscape:label="Layer 1"
     inkscape:groupmode="layer"
     id="layer1"
     transform="translate(0,-1028.3622)">
    <path
       style="fill:#212121;fill-opacity:1;stroke:none;stroke-width:1.33333337"
       d="m 6.666016,1032.3622 v 2.666 H 4 v 1.334 h 2.666016 v 8 c 0,0.7387 0.595314,1.334 1.333984,1.334 h 8 v 2.666 h 1.333984 v -2.666 H 20 v -1.334 h -2.666016 v -8 c 0,-0.7387 -0.595444,-1.334 -1.333984,-1.334 H 8 v -2.666 z m 1.333984,4 h 8 v 8 H 8 Z m 2.476562,1.5039 c -0.123474,0.033 -0.239032,0.2305 -0.351562,0.4961 l -0.75,2 c 0,0 -0.375,1 -0.375,1.5 v 0.5 c 0,0 0,1 1,1 h 4 c 0,0 1,0 1,-1 v -0.5 c 0,-0.5 0,-0.5 -0.75,-1.5 0,0 -0.43114,-0.5937 -0.75,-0.5937 -0.31886,0 -0.75,0.5937 -0.75,0.5937 l -0.75,1 -1.125,-3 c -0.14357,-0.3956 -0.274963,-0.5286 -0.398438,-0.4961 z"
       id="path6414"
       inkscape:connector-curvature="0" />
  </g>
</svg>
