<?xml version="1.0" encoding="UTF-8" standalone="no"?>
<!-- Created with Inkscape (http://www.inkscape.org/) -->

<svg
   xmlns:dc="http://purl.org/dc/elements/1.1/"
   xmlns:cc="http://creativecommons.org/ns#"
   xmlns:rdf="http://www.w3.org/1999/02/22-rdf-syntax-ns#"
   xmlns:svg="http://www.w3.org/2000/svg"
   xmlns="http://www.w3.org/2000/svg"
   xmlns:sodipodi="http://sodipodi.sourceforge.net/DTD/sodipodi-0.dtd"
   xmlns:inkscape="http://www.inkscape.org/namespaces/inkscape"
   width="160"
   height="160"
   id="svg4682"
   version="1.1"
   inkscape:version="0.48.4 r9939"
   sodipodi:docname="ic_audio_circle_pressed.svg"
   inkscape:export-filename="/home/corbax/Dev/android/Icons/Test 1/ic_play_normal.png"
   inkscape:export-xdpi="90"
   inkscape:export-ydpi="90">
  <defs
     id="defs4684">
    <filter
       color-interpolation-filters="sRGB"
       inkscape:collect="always"
       id="filter3934-5-0"
       x="-0.23999999"
       width="1.48"
       y="-0.23999999"
       height="1.48">
      <feGaussianBlur
         inkscape:collect="always"
         stdDeviation="10"
         id="feGaussianBlur3936-8-3" />
    </filter>
    <filter
       color-interpolation-filters="sRGB"
       inkscape:collect="always"
       id="filter3934-5-0-1"
       x="-0.23999999"
       width="1.48"
       y="-0.23999999"
       height="1.48">
      <feGaussianBlur
         inkscape:collect="always"
         stdDeviation="10"
         id="feGaussianBlur3936-8-3-4" />
    </filter>
  </defs>
  <sodipodi:namedview
     id="base"
     pagecolor="#ffffff"
     bordercolor="#666666"
     borderopacity="1.0"
     inkscape:pageopacity="0.0"
     inkscape:pageshadow="2"
     inkscape:zoom="2.8"
     inkscape:cx="-5.261652"
     inkscape:cy="46.946388"
     inkscape:document-units="px"
     inkscape:current-layer="layer1"
     showgrid="false"
     inkscape:window-width="1680"
     inkscape:window-height="1026"
     inkscape:window-x="1920"
     inkscape:window-y="24"
     inkscape:window-maximized="1" />
  <metadata
     id="metadata4687">
    <rdf:RDF>
      <cc:Work
         rdf:about="">
        <dc:format>image/svg+xml</dc:format>
        <dc:type
           rdf:resource="http://purl.org/dc/dcmitype/StillImage" />
        <dc:title></dc:title>
      </cc:Work>
    </rdf:RDF>
  </metadata>
  <g
     inkscape:label="Layer 1"
     inkscape:groupmode="layer"
     id="layer1"
     transform="translate(0,-892.36218)">
    <g
       id="g3874"
       transform="matrix(1.25,0,0,1.25,-226.25,338.15945)" />
    <g
       transform="matrix(1.25,0,0,1.25,589.20272,739.86053)"
       id="g5205">
      <g
         style="fill:#ff8800;fill-opacity:1;filter:url(#filter3934-5-0-1)"
         id="g5121"
         transform="translate(-652.36218,-321.36086)">
        <path
           sodipodi:type="arc"
           style="opacity:0.76954735;fill:#ff8800;fill-opacity:1;stroke:none"
           id="path5124"
           sodipodi:cx="245"
           sodipodi:cy="507.36218"
           sodipodi:rx="50"
           sodipodi:ry="50"
           d="m 295,507.36218 c 0,27.61424 -22.38576,50 -50,50 -27.61424,0 -50,-22.38576 -50,-50 0,-27.61423 22.38576,-50 50,-50 27.61424,0 50,22.38577 50,50 z" />
        <path
           sodipodi:type="star"
           style="fill:#ff8800;fill-opacity:1;stroke:none"
           id="path5129"
           sodipodi:sides="3"
           sodipodi:cx="245"
           sodipodi:cy="507.36218"
           sodipodi:r1="25"
           sodipodi:r2="12.5"
           sodipodi:arg1="0"
           sodipodi:arg2="1.0471976"
           inkscape:flatsided="true"
           inkscape:rounded="0"
           inkscape:randomized="0"
           d="m 270,507.36218 -37.5,21.65064 0,-43.30127 z"
           inkscape:transform-center-x="-6.25" />
      </g>
      <g
         id="g5131"
         transform="translate(12.63782,103.88414)">
        <g
           id="g5135"
           transform="translate(0,-90.245007)">
          <path
             style="opacity:0.9;fill:#2d2d2d;fill-opacity:1;stroke:none"
             d="m -370,172.36219 c 0,27.61424 -22.3858,50 -50,50 -27.6142,0 -50,-22.38576 -50,-50 0,-27.61423 22.3858,-50 50,-50 27.6142,0 50,22.38577 50,50 z"
             id="path5145"
             inkscape:connector-curvature="0"
             sodipodi:nodetypes="sssss"
             inkscape:export-filename="/home/corbax/Dev/android/Design/Icons/DVD_Home_Icon.png"
             inkscape:export-xdpi="90"
             inkscape:export-ydpi="90" />
          <path
             style="color:#000000;fill:#fafafa;fill-opacity:1;fill-rule:nonzero;stroke:none;stroke-width:0.5;marker:none;visibility:visible;display:inline;overflow:visible;enable-background:accumulate"
             d="m -420,142.375 c -16.5685,0 -30,13.43146 -30,30 0,16.56854 13.4315,30 30,30 0.7058,0 1.40195,-0.0465 2.09375,-0.0937 l 0,-0.1875 0,-4.8125 c -0.6925,0.0533 -1.38805,0.0937 -2.09375,0.0937 -13.8071,0 -25,-11.19288 -25,-25 0,-13.80712 11.1929,-25 25,-25 13.8071,0 25,11.19288 25,25 0,2.50374 -0.3767,4.90731 -1.0625,7.1875 l 3.90625,3.90625 c 1.3738,-3.43433 2.15625,-7.16886 2.15625,-11.09375 0,-16.56854 -13.4315,-30 -30,-30 z m -8.875,9.3125 c -1.2572,0.54097 -2.46725,1.21757 -3.59375,1.96875 l 6.90625,10.375 c 0.5101,-0.34143 1.0544,-0.59956 1.625,-0.84375 l -4.9375,-11.5 z m -7.03125,4.75 c -4.0717,4.0717 -6.59375,9.7243 -6.59375,15.9375 l 12.5,0 c 0,-2.75325 1.1373,-5.25414 2.9375,-7.0625 l 0,-0.0312 -8.84375,-8.84375 z M -420,164.875 c -4.1421,0 -7.5,3.35786 -7.5,7.5 0,4.14214 3.3579,7.5 7.5,7.5 4.1421,0 7.5,-3.35786 7.5,-7.5 0,-4.14214 -3.3579,-7.5 -7.5,-7.5 z m 14,8.4375 -15.78125,15.78125 2.78125,2.78125 13,-12.96875 13,12.96875 2.78125,-2.78125 L -406,173.3125 z m 0,7.4375 -9.28125,9.28125 0,12.0625 6.5,0 0,-10.21875 5.5625,0 0,10.21875 6.5,0 0,-12.0625 L -406,180.75 z"
             id="path5148"
             inkscape:connector-curvature="0" />
        </g>
      </g>
    </g>
  </g>
</svg>
