<?xml version="1.0" encoding="UTF-8" standalone="no"?>
<!-- Created with Inkscape (http://www.inkscape.org/) -->

<svg
   xmlns:dc="http://purl.org/dc/elements/1.1/"
   xmlns:cc="http://creativecommons.org/ns#"
   xmlns:rdf="http://www.w3.org/1999/02/22-rdf-syntax-ns#"
   xmlns:svg="http://www.w3.org/2000/svg"
   xmlns="http://www.w3.org/2000/svg"
   xmlns:sodipodi="http://sodipodi.sourceforge.net/DTD/sodipodi-0.dtd"
   xmlns:inkscape="http://www.inkscape.org/namespaces/inkscape"
   width="20"
   height="20"
   id="svg3428"
   version="1.1"
   inkscape:version="0.92.3 (unknown)"
   sodipodi:docname="ic_dial_circle_pressed.svg">
  <defs
     id="defs3430" />
  <sodipodi:namedview
     id="base"
     pagecolor="#ffffff"
     bordercolor="#666666"
     borderopacity="1.0"
     inkscape:pageopacity="0.0"
     inkscape:pageshadow="2"
     inkscape:zoom="22.4"
     inkscape:cx="-2.4481046"
     inkscape:cy="11.97441"
     inkscape:document-units="px"
     inkscape:current-layer="g859"
     showgrid="true"
     inkscape:window-width="1920"
     inkscape:window-height="1052"
     inkscape:window-x="1920"
     inkscape:window-y="0"
     inkscape:window-maximized="1">
    <inkscape:grid
       type="xygrid"
       id="grid3436"
       empspacing="4"
       visible="true"
       enabled="true"
       snapvisiblegridlinesonly="true" />
  </sodipodi:namedview>
  <metadata
     id="metadata3433">
    <rdf:RDF>
      <cc:Work
         rdf:about="">
        <dc:format>image/svg+xml</dc:format>
        <dc:type
           rdf:resource="http://purl.org/dc/dcmitype/StillImage" />
        <dc:title></dc:title>
      </cc:Work>
    </rdf:RDF>
  </metadata>
  <g
     inkscape:label="Layer 1"
     inkscape:groupmode="layer"
     id="layer1"
     transform="translate(0,-1032.3622)">
    <g
       id="g4552"
       transform="translate(3,1.0000035)">
      <g
         transform="translate(-1965.6949,565.00001)"
         id="g6375">
        <g
           id="g3755">
          <g
             id="g859"
             transform="matrix(0.61538462,0,0,0.61538462,775.34415,182.60084)">
            <circle
               transform="scale(-1)"
               id="circle6122"
               style="color:#000000;display:inline;overflow:visible;visibility:visible;fill:#fecb65;fill-opacity:1;fill-rule:nonzero;stroke:none;stroke-width:0.13;marker:none;enable-background:accumulate"
               cx="-1945.6949"
               cy="-477.36218"
               r="13" />
            <path
               style="color:#000000;display:inline;overflow:visible;visibility:visible;opacity:1;vector-effect:none;fill:#ff7200;fill-opacity:1;fill-rule:nonzero;stroke:none;stroke-width:2.46153855;stroke-linecap:butt;stroke-linejoin:round;stroke-miterlimit:4;stroke-dasharray:none;stroke-dashoffset:47.29829788;stroke-opacity:1;marker:none;enable-background:accumulate"
               d="M 7.2304688 5.6914062 A 0.92307693 0.92307693 0 0 0 6.3085938 6.6152344 A 0.92307693 0.92307693 0 0 0 7.2304688 7.5390625 A 0.92307693 0.92307693 0 0 0 8.1542969 6.6152344 A 0.92307693 0.92307693 0 0 0 7.2304688 5.6914062 z M 10 5.6914062 A 0.92307693 0.92307693 0 0 0 9.0761719 6.6152344 A 0.92307693 0.92307693 0 0 0 10 7.5390625 A 0.92307693 0.92307693 0 0 0 10.923828 6.6152344 A 0.92307693 0.92307693 0 0 0 10 5.6914062 z M 12.769531 5.6914062 A 0.92307693 0.92307693 0 0 0 11.845703 6.6152344 A 0.92307693 0.92307693 0 0 0 12.769531 7.5390625 A 0.92307693 0.92307693 0 0 0 13.691406 6.6152344 A 0.92307693 0.92307693 0 0 0 12.769531 5.6914062 z M 7.2304688 8.1542969 A 0.92307693 0.92307693 0 0 0 6.3085938 9.0761719 A 0.92307693 0.92307693 0 0 0 7.2304688 10 A 0.92307693 0.92307693 0 0 0 8.1542969 9.0761719 A 0.92307693 0.92307693 0 0 0 7.2304688 8.1542969 z M 10 8.1542969 A 0.92307693 0.92307693 0 0 0 9.0761719 9.0761719 A 0.92307693 0.92307693 0 0 0 10 10 A 0.92307693 0.92307693 0 0 0 10.923828 9.0761719 A 0.92307693 0.92307693 0 0 0 10 8.1542969 z M 12.769531 8.1542969 A 0.92307693 0.92307693 0 0 0 11.845703 9.0761719 A 0.92307693 0.92307693 0 0 0 12.769531 10 A 0.92307693 0.92307693 0 0 0 13.691406 9.0761719 A 0.92307693 0.92307693 0 0 0 12.769531 8.1542969 z M 7.2304688 10.615234 A 0.92307693 0.92307693 0 0 0 6.3085938 11.539062 A 0.92307693 0.92307693 0 0 0 7.2304688 12.460938 A 0.92307693 0.92307693 0 0 0 8.1542969 11.539062 A 0.92307693 0.92307693 0 0 0 7.2304688 10.615234 z M 10 10.615234 A 0.92307693 0.92307693 0 0 0 9.0761719 11.539062 A 0.92307693 0.92307693 0 0 0 10 12.460938 A 0.92307693 0.92307693 0 0 0 10.923828 11.539062 A 0.92307693 0.92307693 0 0 0 10 10.615234 z M 12.769531 10.615234 A 0.92307693 0.92307693 0 0 0 11.845703 11.539062 A 0.92307693 0.92307693 0 0 0 12.769531 12.460938 A 0.92307693 0.92307693 0 0 0 13.691406 11.539062 A 0.92307693 0.92307693 0 0 0 12.769531 10.615234 z M 10 13.076172 A 0.92307693 0.92307693 0 0 0 9.0761719 14 A 0.92307693 0.92307693 0 0 0 10 14.923828 A 0.92307693 0.92307693 0 0 0 10.923828 14 A 0.92307693 0.92307693 0 0 0 10 13.076172 z "
               transform="matrix(1.625,0,0,1.625,1929.445,461.11218)"
               id="path5395" />
          </g>
        </g>
      </g>
    </g>
  </g>
</svg>
