<?xml version="1.0" encoding="UTF-8" standalone="no"?>
<!-- Created with Inkscape (http://www.inkscape.org/) -->

<svg
   xmlns:dc="http://purl.org/dc/elements/1.1/"
   xmlns:cc="http://creativecommons.org/ns#"
   xmlns:rdf="http://www.w3.org/1999/02/22-rdf-syntax-ns#"
   xmlns:svg="http://www.w3.org/2000/svg"
   xmlns="http://www.w3.org/2000/svg"
   xmlns:sodipodi="http://sodipodi.sourceforge.net/DTD/sodipodi-0.dtd"
   xmlns:inkscape="http://www.inkscape.org/namespaces/inkscape"
   width="130"
   height="130"
   id="svg4682"
   version="1.1"
   inkscape:version="0.48.4 r9939"
   sodipodi:docname="ic_equalizer_normal_w.svg"
   inkscape:export-filename="/home/corbax/Dev/android/Icons/Test 1/ic_play_normal.png"
   inkscape:export-xdpi="90"
   inkscape:export-ydpi="90">
  <defs
     id="defs4684" />
  <sodipodi:namedview
     id="base"
     pagecolor="#ffffff"
     bordercolor="#666666"
     borderopacity="1.0"
     inkscape:pageopacity="0.0"
     inkscape:pageshadow="2"
     inkscape:zoom="3.959798"
     inkscape:cx="-11.857302"
     inkscape:cy="74.339893"
     inkscape:document-units="px"
     inkscape:current-layer="layer1"
     showgrid="false"
     inkscape:window-width="1680"
     inkscape:window-height="1026"
     inkscape:window-x="1920"
     inkscape:window-y="54"
     inkscape:window-maximized="1" />
  <metadata
     id="metadata4687">
    <rdf:RDF>
      <cc:Work
         rdf:about="">
        <dc:format>image/svg+xml</dc:format>
        <dc:type
           rdf:resource="http://purl.org/dc/dcmitype/StillImage" />
        <dc:title />
      </cc:Work>
    </rdf:RDF>
  </metadata>
  <g
     inkscape:label="Layer 1"
     inkscape:groupmode="layer"
     id="layer1"
     transform="translate(0,-922.36218)">
    <path
       inkscape:connector-curvature="0"
       style="fill:#fafafa;fill-opacity:1;fill-rule:nonzero;stroke:none"
       d="m 34.5,954.86217 c -1.108,0 -2,0.892 -2,2 l 0,38.00003 -3,0 c -1.108,0 -2,0.892 -2,2 l 0,6 c 0,1.108 0.892,2 2,2 l 3,0 0,13 c 0,1.108 0.892,2 2,2 l 5.999999,0 c 1.108,0 2,-0.892 2,-2 l 0,-13 3,0 c 1.108,0 2,-0.892 2,-2 l 0,-6 c 0,-1.108 -0.892,-2 -2,-2 l -3,0 0,-38.00003 c 0,-1.108 -0.892,-2 -2,-2 l -5.999999,0 z m 27.499998,0 c -1.108,0 -2,0.892 -2,2 l 0,13 -3,0 c -1.108,0 -2,0.892 -2,2 l 0,5.99999 c 0,1.108 0.892,2 2,2 l 3,0 0,38.00004 c 0,1.108 0.892,2 2,2 l 5.999999,0 c 1.108,0 2,-0.892 2,-2 l 0,-38.00004 3,0 c 1.108,0 2,-0.892 2,-2 l 0,-5.99999 c 0,-1.108 -0.892,-2 -2,-2 l -3,0 0,-13 c 0,-1.108 -0.892,-2 -2,-2 l -5.999999,0 z m 27.499996,0 c -1.108,0 -2,0.892 -2,2 l 0,27.99999 -2.999998,0 c -1.108,0 -2,0.892 -2,2 l 0,6 c 0,1.10804 0.892,2.00004 2,2.00004 l 2.999998,0 0,23 c 0,1.108 0.892,2 2,2 l 5.999998,0 c 1.108,0 2.000008,-0.892 2.000008,-2 l 0,-23 3,0 c 1.108,0 2,-0.892 2,-2.00004 l 0,-6 c 0,-1.108 -0.892,-2 -2,-2 l -3,0 0,-27.99999 c 0,-1.108 -0.892008,-2 -2.000008,-2 l -5.999998,0 z"
       id="rect5587" />
  </g>
</svg>
