<?xml version="1.0" encoding="UTF-8" standalone="no"?>
<!-- Created with Inkscape (http://www.inkscape.org/) -->

<svg
   xmlns:dc="http://purl.org/dc/elements/1.1/"
   xmlns:cc="http://creativecommons.org/ns#"
   xmlns:rdf="http://www.w3.org/1999/02/22-rdf-syntax-ns#"
   xmlns:svg="http://www.w3.org/2000/svg"
   xmlns="http://www.w3.org/2000/svg"
   xmlns:sodipodi="http://sodipodi.sourceforge.net/DTD/sodipodi-0.dtd"
   xmlns:inkscape="http://www.inkscape.org/namespaces/inkscape"
   width="130"
   height="130"
   id="svg4682"
   version="1.1"
   inkscape:version="0.48.4 r9939"
   sodipodi:docname="ic_equalizer_normal.svg"
   inkscape:export-filename="/home/corbax/Dev/android/Icons/Test 1/ic_play_normal.png"
   inkscape:export-xdpi="90"
   inkscape:export-ydpi="90">
  <defs
     id="defs4684" />
  <sodipodi:namedview
     id="base"
     pagecolor="#ffffff"
     bordercolor="#666666"
     borderopacity="1.0"
     inkscape:pageopacity="0.0"
     inkscape:pageshadow="2"
     inkscape:zoom="3.959798"
     inkscape:cx="-41.90934"
     inkscape:cy="74.339893"
     inkscape:document-units="px"
     inkscape:current-layer="layer1"
     showgrid="false"
     inkscape:window-width="1680"
     inkscape:window-height="1026"
     inkscape:window-x="1920"
     inkscape:window-y="54"
     inkscape:window-maximized="1" />
  <metadata
     id="metadata4687">
    <rdf:RDF>
      <cc:Work
         rdf:about="">
        <dc:format>image/svg+xml</dc:format>
        <dc:type
           rdf:resource="http://purl.org/dc/dcmitype/StillImage" />
        <dc:title />
      </cc:Work>
    </rdf:RDF>
  </metadata>
  <g
     inkscape:label="Layer 1"
     inkscape:groupmode="layer"
     id="layer1"
     transform="translate(0,-922.36218)">
    <path
       inkscape:connector-curvature="0"
       style="opacity:0.9;fill:#323232;fill-opacity:1;fill-rule:nonzero;stroke:none"
       d="m 34.5,954.86218 c -1.108,0 -2,0.892 -2,2 l 0,38 -3,0 c -1.108,0 -2,0.892 -2,2 l 0,6.00002 c 0,1.108 0.892,2 2,2 l 3,0 0,13 c 0,1.108 0.892,2 2,2 l 6,0 c 1.108,0 2,-0.892 2,-2 l 0,-13 3,0 c 1.108,0 2,-0.892 2,-2 l 0,-6.00002 c 0,-1.108 -0.892,-2 -2,-2 l -3,0 0,-38 c 0,-1.108 -0.892,-2 -2,-2 l -6,0 z m 27.500001,0 c -1.108,0 -2.000001,0.892 -2.000001,2 l 0,13.00001 -3.000001,0 c -1.108,0 -2,0.892 -2,2 l 0,6 c 0,1.108 0.892,2 2,2 l 3.000001,0 0,38.00001 c 0,1.108 0.892001,2 2.000001,2 l 6,0 c 1.107999,0 1.999999,-0.892 1.999999,-2 l 0,-38.00001 2.999999,0 c 1.108,0 2.000001,-0.892 2.000001,-2 l 0,-6 c 0,-1.108 -0.892001,-2 -2.000001,-2 l -2.999999,0 0,-13.00001 c 0,-1.108 -0.892001,-2 -1.999999,-2 l -6,0 z m 27.499998,0 c -1.108,0 -2,0.892 -2,2 l 0,28.00001 -3,0 c -1.108,0 -2,0.892 -2,2 l 0,6 c 0,1.10799 0.892,1.99999 2,1.99999 l 3,0 0,23.00002 c 0,1.108 0.892,2 2,2 l 6.000001,0 c 1.108,0 2,-0.892 2,-2 l 0,-23.00002 3,0 c 1.108,0 2,-0.892 2,-1.99999 l 0,-6 c 0,-1.108 -0.892,-2 -2,-2 l -3,0 0,-28.00001 c 0,-1.108 -0.892,-2 -2,-2 l -6.000001,0 z"
       id="rect5587-7" />
  </g>
</svg>
