<?xml version="1.0" encoding="UTF-8" standalone="no"?>
<!-- Created with Inkscape (http://www.inkscape.org/) -->

<svg
   xmlns:dc="http://purl.org/dc/elements/1.1/"
   xmlns:cc="http://creativecommons.org/ns#"
   xmlns:rdf="http://www.w3.org/1999/02/22-rdf-syntax-ns#"
   xmlns:svg="http://www.w3.org/2000/svg"
   xmlns="http://www.w3.org/2000/svg"
   xmlns:sodipodi="http://sodipodi.sourceforge.net/DTD/sodipodi-0.dtd"
   xmlns:inkscape="http://www.inkscape.org/namespaces/inkscape"
   width="24"
   height="24"
   id="svg3428"
   version="1.1"
   inkscape:version="0.48.5 r10040"
   sodipodi:docname="ic_locked_circle_pressed_o.svg">
  <defs
     id="defs3430" />
  <sodipodi:namedview
     id="base"
     pagecolor="#ffffff"
     bordercolor="#666666"
     borderopacity="1.0"
     inkscape:pageopacity="0.0"
     inkscape:pageshadow="2"
     inkscape:zoom="11.2"
     inkscape:cx="-8.5031728"
     inkscape:cy="12.158472"
     inkscape:document-units="px"
     inkscape:current-layer="layer1"
     showgrid="true"
     inkscape:window-width="1920"
     inkscape:window-height="1056"
     inkscape:window-x="0"
     inkscape:window-y="24"
     inkscape:window-maximized="1">
    <inkscape:grid
       type="xygrid"
       id="grid3436"
       empspacing="4"
       visible="true"
       enabled="true"
       snapvisiblegridlinesonly="true" />
  </sodipodi:namedview>
  <metadata
     id="metadata3433">
    <rdf:RDF>
      <cc:Work
         rdf:about="">
        <dc:format>image/svg+xml</dc:format>
        <dc:type
           rdf:resource="http://purl.org/dc/dcmitype/StillImage" />
        <dc:title />
      </cc:Work>
    </rdf:RDF>
  </metadata>
  <g
     inkscape:label="Layer 1"
     inkscape:groupmode="layer"
     id="layer1"
     transform="translate(0,-1028.3622)">
    <path
       transform="matrix(-1,0,0,-1,102,1096.7244)"
       sodipodi:type="arc"
       style="color:#000000;fill:#ffbb33;fill-opacity:0.70588237;fill-rule:nonzero;stroke:none;stroke-width:0.10000000000000001;marker:none;visibility:visible;display:inline;overflow:visible;enable-background:accumulate"
       id="path4819"
       sodipodi:cx="90"
       sodipodi:cy="56.362183"
       sodipodi:rx="10"
       sodipodi:ry="10"
       d="m 100,56.362183 a 10,10 0 1 1 -20,0 10,10 0 1 1 20,0 z" />
    <path
       id="path4821"
       d="m 12,1034.375 c -1.65685,0 -3,1.3432 -3,3 l 0,1 0,2 c -0.55228,0 -1,0.4477 -1,1 l 0,4 c 0,0.5523 0.44772,1 1,1 l 6,0 c 0.55228,0 1,-0.4477 1,-1 l 0,-4 c 0,-0.5523 -0.44772,-1 -1,-1 l 0,-3 c 0,-1.6568 -1.34315,-3 -3,-3 z m 0,1 c 1.10457,0 2,0.8954 2,2 l 0,3 -4,0 0,-2 0,-1 c 0,-1.1046 0.89543,-2 2,-2 z"
       style="color:#000000;fill:#ff5014;fill-opacity:1;stroke:none;stroke-width:0.1;marker:none;visibility:visible;display:inline;overflow:visible;enable-background:accumulate"
       inkscape:connector-curvature="0" />
  </g>
</svg>
