<?xml version="1.0" encoding="UTF-8" standalone="no"?>
<!-- Created with Inkscape (http://www.inkscape.org/) -->

<svg
   xmlns:dc="http://purl.org/dc/elements/1.1/"
   xmlns:cc="http://creativecommons.org/ns#"
   xmlns:rdf="http://www.w3.org/1999/02/22-rdf-syntax-ns#"
   xmlns:svg="http://www.w3.org/2000/svg"
   xmlns="http://www.w3.org/2000/svg"
   xmlns:sodipodi="http://sodipodi.sourceforge.net/DTD/sodipodi-0.dtd"
   xmlns:inkscape="http://www.inkscape.org/namespaces/inkscape"
   width="260"
   height="260"
   id="svg4682"
   version="1.1"
   inkscape:version="0.48.5 r10040"
   sodipodi:docname="ic_menu_preferences_double.svg"
   inkscape:export-filename="/home/corbax/Dev/android/Icons/Test 1/ic_play_normal.png"
   inkscape:export-xdpi="90"
   inkscape:export-ydpi="90">
  <defs
     id="defs4684" />
  <sodipodi:namedview
     id="base"
     pagecolor="#ffffff"
     bordercolor="#666666"
     borderopacity="1.0"
     inkscape:pageopacity="0.0"
     inkscape:pageshadow="2"
     inkscape:zoom="1.4"
     inkscape:cx="-129.8241"
     inkscape:cy="-8.5657367"
     inkscape:document-units="px"
     inkscape:current-layer="layer1"
     showgrid="false"
     inkscape:window-width="1920"
     inkscape:window-height="1056"
     inkscape:window-x="0"
     inkscape:window-y="24"
     inkscape:window-maximized="1" />
  <metadata
     id="metadata4687">
    <rdf:RDF>
      <cc:Work
         rdf:about="">
        <dc:format>image/svg+xml</dc:format>
        <dc:type
           rdf:resource="http://purl.org/dc/dcmitype/StillImage" />
        <dc:title></dc:title>
      </cc:Work>
    </rdf:RDF>
  </metadata>
  <g
     inkscape:label="Layer 1"
     inkscape:groupmode="layer"
     id="layer1"
     transform="translate(0,-792.36218)">
    <path
       id="path4724"
       d="m 115.5576,822.39561 c -0.3576,0.0402 -0.6576,0.13733 -1.0136,0.25306 l -30.82773,10.01007 c -2.848267,0.92167 -4.472801,3.97713 -3.547467,6.81376 l 5.067734,15.56215 c -1.988267,1.31198 -3.8832,2.72896 -5.743201,4.20569 L 66.148533,849.56679 C 63.725867,847.81359 60.392,848.33152 58.632,850.74445 l -19.088,26.16111 c -1.760267,2.41267 -1.240267,5.73331 1.1824,7.48649 l 13.3448,9.6738 c -0.837333,2.22236 -1.554933,4.50314 -2.196,6.81349 l -16.469867,0 c -2.9944,0 -5.405333,2.40111 -5.405333,5.3836 l 0,32.30171 c 0,2.98251 2.410933,5.3836 5.405333,5.3836 l 16.469867,0 c 0.641067,2.31038 1.358667,4.59116 2.196,6.81354 l -13.3448,9.58977 c -2.422667,1.75289 -2.942667,5.07334 -1.1824,7.48645 l 19.088,26.16113 c 1.76,2.41267 5.093867,2.93067 7.516533,1.17733 l 13.344803,-9.58913 c 1.860001,1.47647 3.754934,2.89358 5.743201,4.20558 l -5.067734,15.56218 c -0.925334,2.8365 0.6992,5.8077 3.547467,6.7297 l 30.82773,10.0097 c 2.848,0.9216 5.83147,-0.612 6.7568,-3.4486 l 5.06747,-15.5621 c 1.21466,0.053 2.40373,0.082 3.63173,0.082 1.228,0 2.41707,-0.029 3.632,-0.082 l 5.06747,15.5621 c 0.92506,2.8366 3.90853,4.3702 6.7568,3.4486 l 30.82747,-10.0097 c 2.84827,-0.922 4.4728,-3.8932 3.54747,-6.7297 l -5.06773,-15.56218 c 1.98826,-1.312 3.8832,-2.72911 5.7432,-4.20558 l 13.34479,9.58913 c 2.42266,1.75334 5.75653,1.23534 7.5168,-1.17733 l 19.088,-26.16113 c 1.76,-2.41311 1.24,-5.73356 -1.1824,-7.48645 l -13.3448,-9.58977 c 0.83706,-2.22238 1.55466,-4.50316 2.196,-6.81354 l 16.4696,0 c 2.9944,0 5.40533,-2.40109 5.40533,-5.3836 l 0,-32.30171 c 0,-2.98249 -2.41093,-5.3836 -5.40533,-5.3836 l -16.4696,0 c -0.64134,-2.31035 -1.35894,-4.59113 -2.196,-6.81349 l 13.3448,-9.6738 c 2.4224,-1.75318 2.9424,-5.07382 1.1824,-7.48649 l -19.088,-26.16111 c -1.76027,-2.41293 -5.09414,-2.93086 -7.5168,-1.17766 l -13.34479,9.67355 c -1.86,-1.47673 -3.75494,-2.89371 -5.7432,-4.20571 l 5.06773,-15.56213 c 0.92533,-2.83665 -0.6992,-5.89209 -3.54747,-6.81376 l -30.82747,-10.01007 c -2.84827,-0.92166 -5.83174,0.61238 -6.7568,3.44907 l -5.06747,15.64585 c -1.21493,-0.0538 -2.404,-0.0836 -3.632,-0.0836 -1.228,0 -2.41707,0.0296 -3.63173,0.0836 l -5.06747,-15.64585 c -0.8096,-2.48218 -3.24133,-3.98498 -5.7432,-3.70129 z m 11.65547,46.1812 c 0.92106,-0.0456 1.85386,0 2.78693,0 29.85334,0 54.05414,24.10324 54.05414,53.83615 0,29.73283 -24.2008,53.83594 -54.05414,53.83594 -29.85333,0 -54.054131,-24.10311 -54.054131,-53.83594 0,-28.80369 22.706661,-52.39415 51.267201,-53.83615 z m 29.81387,16.8238 -27.78694,16.82378 c -6.0168,0.21288 -11.81253,3.10122 -15.62507,8.32793 -6.58053,9.01971 -4.58026,21.62624 4.47654,28.17973 9.0568,6.554 21.71386,4.56205 28.2936,-4.45849 3.81333,-5.22666 4.78,-11.64797 3.12533,-17.41246 l 7.51654,-31.46049 z"
       style="color:#000000;fill:#777777;fill-opacity:1;fill-rule:nonzero;stroke:none;stroke-width:0.2;marker:none;visibility:visible;display:inline;overflow:visible;enable-background:accumulate"
       inkscape:connector-curvature="0" />
  </g>
</svg>
