<?xml version="1.0" encoding="UTF-8" standalone="no"?>
<!-- Created with Inkscape (http://www.inkscape.org/) -->

<svg
   xmlns:dc="http://purl.org/dc/elements/1.1/"
   xmlns:cc="http://creativecommons.org/ns#"
   xmlns:rdf="http://www.w3.org/1999/02/22-rdf-syntax-ns#"
   xmlns:svg="http://www.w3.org/2000/svg"
   xmlns="http://www.w3.org/2000/svg"
   xmlns:sodipodi="http://sodipodi.sourceforge.net/DTD/sodipodi-0.dtd"
   xmlns:inkscape="http://www.inkscape.org/namespaces/inkscape"
   width="130"
   height="130"
   id="svg4682"
   version="1.1"
   inkscape:version="0.48.4 r9939"
   sodipodi:docname="ic_menu_video.svg"
   inkscape:export-filename="/home/corbax/Dev/android/Icons/Test 1/ic_play_normal.png"
   inkscape:export-xdpi="90"
   inkscape:export-ydpi="90">
  <defs
     id="defs4684" />
  <sodipodi:namedview
     id="base"
     pagecolor="#ffffff"
     bordercolor="#666666"
     borderopacity="1.0"
     inkscape:pageopacity="0.0"
     inkscape:pageshadow="2"
     inkscape:zoom="3.959798"
     inkscape:cx="-11.857302"
     inkscape:cy="74.339893"
     inkscape:document-units="px"
     inkscape:current-layer="layer1"
     showgrid="false"
     inkscape:window-width="1680"
     inkscape:window-height="1026"
     inkscape:window-x="1920"
     inkscape:window-y="54"
     inkscape:window-maximized="1" />
  <metadata
     id="metadata4687">
    <rdf:RDF>
      <cc:Work
         rdf:about="">
        <dc:format>image/svg+xml</dc:format>
        <dc:type
           rdf:resource="http://purl.org/dc/dcmitype/StillImage" />
        <dc:title />
      </cc:Work>
    </rdf:RDF>
  </metadata>
  <g
     inkscape:label="Layer 1"
     inkscape:groupmode="layer"
     id="layer1"
     transform="translate(0,-922.36218)">
    <path
       sodipodi:type="inkscape:offset"
       inkscape:radius="0.45348555"
       inkscape:original="M 2070.4375 1098.4375 L 2056.0625 1101 L 2063.375 1114.5312 L 2072.9688 1112.8438 L 2070.4375 1098.4375 z M 2046.4688 1102.6875 L 2032.0938 1105.2188 L 2039.4062 1118.75 L 2053.8125 1116.2188 L 2046.4688 1102.6875 z M 2022.5 1106.9062 L 2008.125 1109.4688 L 2015.4375 1122.9688 L 2029.8438 1120.4375 L 2022.5 1106.9062 z M 2001 1110.0625 L 2001 1124.6562 L 2001 1139.25 L 2005.875 1124.6562 L 2001 1110.0625 z M 2001 1139.25 L 2001 1161.625 L 2001 1166.5 C 2001 1169.195 2003.1788 1171.375 2005.875 1171.375 L 2069.125 1171.375 C 2071.8211 1171.375 2074 1169.195 2074 1166.5 L 2074 1161.625 L 2074 1139.25 L 2074 1124.6562 L 2064.2812 1124.6562 L 2059.4062 1139.25 L 2049.6562 1139.25 L 2054.5312 1124.6562 L 2039.9375 1124.6562 L 2035.0625 1139.25 L 2025.3438 1139.25 L 2030.1875 1124.6562 L 2015.5938 1124.6562 L 2010.7188 1139.25 L 2001 1139.25 z "
       style="color:#000000;fill:#777777;fill-opacity:1;fill-rule:nonzero;stroke:none;marker:none;visibility:visible;display:inline;overflow:visible;enable-background:accumulate"
       id="path4844-8"
       d="m 2070.4375,1097.9688 a 0.4535309,0.4535309 0 0 0 -0.094,0.031 l -14.375,2.5625 a 0.4535309,0.4535309 0 0 0 -0.3126,0.6563 l 7.3126,13.5312 a 0.4535309,0.4535309 0 0 0 0.5,0.2188 l 9.5937,-1.6876 a 0.4535309,0.4535309 0 0 0 0.3437,-0.5312 l -2.5312,-14.4062 a 0.4535309,0.4535309 0 0 0 -0.4375,-0.375 z m -23.9687,4.25 a 0.4535309,0.4535309 0 0 0 -0.094,0.031 l -14.375,2.5312 a 0.4535309,0.4535309 0 0 0 -0.3125,0.6563 l 7.3125,13.5313 a 0.4535309,0.4535309 0 0 0 0.5,0.2187 l 14.4062,-2.5313 a 0.4535309,0.4535309 0 0 0 0.3126,-0.6562 l -7.3438,-13.5312 a 0.4535309,0.4535309 0 0 0 -0.4062,-0.25 z m -23.9688,4.2187 a 0.4535309,0.4535309 0 0 0 -0.094,0.031 l -14.375,2.5624 a 0.4535309,0.4535309 0 0 0 -0.3124,0.6563 l 7.3124,13.5 a 0.4535309,0.4535309 0 0 0 0.5,0.2187 l 14.4063,-2.5312 a 0.4535309,0.4535309 0 0 0 0.3125,-0.6562 l -7.3438,-13.5313 a 0.4535309,0.4535309 0 0 0 -0.4062,-0.25 z m -21.6562,3.1875 a 0.4535309,0.4535309 0 0 0 -0.3126,0.4375 l 0,14.5937 0,14.5938 0,22.375 0,4.875 c 0,2.9394 2.4032,5.3438 5.3438,5.3438 l 63.25,0 c 2.9406,0 5.3437,-2.4044 5.3438,-5.3438 l 0,-4.875 0,-22.375 0,-14.5938 A 0.4535309,0.4535309 0 0 0 2074,1124.1875 l -9.7188,0 a 0.4535309,0.4535309 0 0 0 -0.4374,0.3125 l -4.7813,14.2812 -8.75,0 4.6563,-13.9687 a 0.4535309,0.4535309 0 0 0 -0.4376,-0.625 l -14.5937,0 A 0.4535309,0.4535309 0 0 0 2039.5,1124.5 l -4.7812,14.2812 -8.7188,0 4.625,-13.9687 a 0.4535309,0.4535309 0 0 0 -0.4375,-0.625 l -14.5937,0 a 0.4535309,0.4535309 0 0 0 -0.4376,0.3125 l -4.7812,14.2812 -8.7188,0 4.6563,-13.9687 a 0.4535309,0.4535309 0 0 0 0,-0.3125 l -4.875,-14.5938 a 0.4535309,0.4535309 0 0 0 -0.5937,-0.2812 z"
       transform="matrix(1.217231,0,0,1.2182741,-2415.1083,-395.26477)" />
  </g>
</svg>
