<?xml version="1.0" encoding="UTF-8" standalone="no"?>
<!-- Created with Inkscape (http://www.inkscape.org/) -->

<svg
   xmlns:dc="http://purl.org/dc/elements/1.1/"
   xmlns:cc="http://creativecommons.org/ns#"
   xmlns:rdf="http://www.w3.org/1999/02/22-rdf-syntax-ns#"
   xmlns:svg="http://www.w3.org/2000/svg"
   xmlns="http://www.w3.org/2000/svg"
   xmlns:sodipodi="http://sodipodi.sourceforge.net/DTD/sodipodi-0.dtd"
   xmlns:inkscape="http://www.inkscape.org/namespaces/inkscape"
   width="130"
   height="130"
   id="svg4682"
   version="1.1"
   inkscape:version="0.48.4 r9939"
   sodipodi:docname="ic_menu_search_g.svg"
   inkscape:export-filename="/home/corbax/Dev/android/Icons/Test 1/ic_play_normal.png"
   inkscape:export-xdpi="90"
   inkscape:export-ydpi="90">
  <defs
     id="defs4684" />
  <sodipodi:namedview
     id="base"
     pagecolor="#ffffff"
     bordercolor="#666666"
     borderopacity="1.0"
     inkscape:pageopacity="0.0"
     inkscape:pageshadow="2"
     inkscape:zoom="3.959798"
     inkscape:cx="-30.797662"
     inkscape:cy="74.339893"
     inkscape:document-units="px"
     inkscape:current-layer="layer1"
     showgrid="false"
     inkscape:window-width="1680"
     inkscape:window-height="1026"
     inkscape:window-x="1920"
     inkscape:window-y="54"
     inkscape:window-maximized="1" />
  <metadata
     id="metadata4687">
    <rdf:RDF>
      <cc:Work
         rdf:about="">
        <dc:format>image/svg+xml</dc:format>
        <dc:type
           rdf:resource="http://purl.org/dc/dcmitype/StillImage" />
        <dc:title />
      </cc:Work>
    </rdf:RDF>
  </metadata>
  <g
     inkscape:label="Layer 1"
     inkscape:groupmode="layer"
     id="layer1"
     transform="translate(0,-922.36218)">
    <path
       style="fill:#fafafa;fill-opacity:1;fill-rule:nonzero;stroke:#323232;stroke-width:2;stroke-miterlimit:4;stroke-opacity:1;stroke-dasharray:none"
       d="m 54.993714,949.87154 c -15.1878,0 -27.5,12.3122 -27.5,27.5 0,15.18781 12.3122,27.49996 27.5,27.49996 5.8147,0 11.2141,-1.7952 15.6563,-4.87495 0.3727,0.18175 0.8457,0.12305 1.1562,-0.1875 l 0.6875,-0.6875 7.0938,7.06245 -0.7188,0.7187 c -0.3917,0.3917 -0.3917,1.0146 0,1.4063 l 16.249997,16.25 c 0.3918,0.3917 1.0458,0.3917 1.4375,0 l 5.656299,-5.6563 c 0.3917,-0.3916 0.3917,-1.0145 0,-1.4062 l -16.281296,-16.2812 c -0.3917,-0.3917 -1.0145,-0.3917 -1.4062,0 l -0.7188,0.7187 -7.0625,-7.06245 0.7188,-0.7188 c 0.3208,-0.3209 0.361,-0.7773 0.1562,-1.1562 3.0711,-4.43821 4.875,-9.81931 4.875,-15.62501 0,-15.1878 -12.3122,-27.5 -27.5,-27.5 z m 0,10 c 9.665,0 17.5,7.835 17.5,17.5 0,9.665 -7.835,17.50001 -17.5,17.50001 -9.665,0 -17.5,-7.83501 -17.5,-17.50001 0,-9.665 7.835,-17.5 17.5,-17.5 z"
       id="path4066"
       inkscape:connector-curvature="0" />
  </g>
</svg>
