<?xml version="1.0" encoding="UTF-8" standalone="no"?>
<!-- Created with Inkscape (http://www.inkscape.org/) -->

<svg
   xmlns:dc="http://purl.org/dc/elements/1.1/"
   xmlns:cc="http://creativecommons.org/ns#"
   xmlns:rdf="http://www.w3.org/1999/02/22-rdf-syntax-ns#"
   xmlns:svg="http://www.w3.org/2000/svg"
   xmlns="http://www.w3.org/2000/svg"
   xmlns:sodipodi="http://sodipodi.sourceforge.net/DTD/sodipodi-0.dtd"
   xmlns:inkscape="http://www.inkscape.org/namespaces/inkscape"
   width="130"
   height="130"
   id="svg4682"
   version="1.1"
   inkscape:version="0.48.4 r9939"
   sodipodi:docname="ic_menu_history_w.svg"
   inkscape:export-filename="/home/corbax/Dev/android/Icons/Test 1/ic_play_normal.png"
   inkscape:export-xdpi="90"
   inkscape:export-ydpi="90">
  <defs
     id="defs4684" />
  <sodipodi:namedview
     id="base"
     pagecolor="#ffffff"
     bordercolor="#666666"
     borderopacity="1.0"
     inkscape:pageopacity="0.0"
     inkscape:pageshadow="2"
     inkscape:zoom="3.959798"
     inkscape:cx="-23.979132"
     inkscape:cy="74.339893"
     inkscape:document-units="px"
     inkscape:current-layer="layer1"
     showgrid="false"
     inkscape:window-width="1680"
     inkscape:window-height="1026"
     inkscape:window-x="1920"
     inkscape:window-y="54"
     inkscape:window-maximized="1" />
  <metadata
     id="metadata4687">
    <rdf:RDF>
      <cc:Work
         rdf:about="">
        <dc:format>image/svg+xml</dc:format>
        <dc:type
           rdf:resource="http://purl.org/dc/dcmitype/StillImage" />
        <dc:title></dc:title>
      </cc:Work>
    </rdf:RDF>
  </metadata>
  <g
     inkscape:label="Layer 1"
     inkscape:groupmode="layer"
     id="layer1"
     transform="translate(0,-922.36218)">
    <path
       inkscape:connector-curvature="0"
       id="path3931"
       d="m 64.999998,942.36218 c -24.852713,0 -44.999988,20.14718 -44.999988,45 0,24.85282 20.147275,45.00002 44.999988,45.00002 24.852831,0 44.999992,-20.1472 44.999992,-45.00002 0,-24.85282 -20.147161,-45 -44.999991,-45 z m 0,12.85714 c 17.752191,0 32.142831,14.39084 32.142831,32.14286 0,17.75202 -14.39064,32.14282 -32.142831,32.14282 -17.751835,0 -32.142711,-14.3908 -32.142831,-32.14282 0,-17.75202 14.390996,-32.14286 32.142831,-32.14286 z m 0,6.42857 c -1.77504,0 -5.142719,2.08195 -5.142839,3.85714 l 0,21.85715 c 0,0.2219 0.066,0.4338 0.16068,0.6429 -0.0132,0.6237 0.1152,1.1611 0.48216,1.5267 l 11.732157,11.73222 c 1.256283,1.2543 5.092923,0.3313 6.348363,-0.9242 1.2552,-1.25522 2.18051,-5.09422 0.924,-6.34822 l -9.361682,-9.3615 0,-19.12505 c 0,-1.77519 -3.367559,-3.85714 -5.142838,-3.85714 z"
       style="fill:#fafafa;fill-opacity:1;fill-rule:nonzero;stroke:none" />
  </g>
</svg>
