<?xml version="1.0" encoding="UTF-8" standalone="no"?>
<!-- Created with Inkscape (http://www.inkscape.org/) -->

<svg
   xmlns:dc="http://purl.org/dc/elements/1.1/"
   xmlns:cc="http://creativecommons.org/ns#"
   xmlns:rdf="http://www.w3.org/1999/02/22-rdf-syntax-ns#"
   xmlns:svg="http://www.w3.org/2000/svg"
   xmlns="http://www.w3.org/2000/svg"
   xmlns:sodipodi="http://sodipodi.sourceforge.net/DTD/sodipodi-0.dtd"
   xmlns:inkscape="http://www.inkscape.org/namespaces/inkscape"
   width="130"
   height="130"
   id="svg4682"
   version="1.1"
   inkscape:version="0.48.4 r9939"
   sodipodi:docname="ic_menu_preferences_g.svg"
   inkscape:export-filename="/home/corbax/Dev/android/Icons/Test 1/ic_play_normal.png"
   inkscape:export-xdpi="90"
   inkscape:export-ydpi="90">
  <defs
     id="defs4684" />
  <sodipodi:namedview
     id="base"
     pagecolor="#ffffff"
     bordercolor="#666666"
     borderopacity="1.0"
     inkscape:pageopacity="0.0"
     inkscape:pageshadow="2"
     inkscape:zoom="3.959798"
     inkscape:cx="-30.797662"
     inkscape:cy="74.339893"
     inkscape:document-units="px"
     inkscape:current-layer="layer1"
     showgrid="false"
     inkscape:window-width="1920"
     inkscape:window-height="1056"
     inkscape:window-x="0"
     inkscape:window-y="24"
     inkscape:window-maximized="1" />
  <metadata
     id="metadata4687">
    <rdf:RDF>
      <cc:Work
         rdf:about="">
        <dc:format>image/svg+xml</dc:format>
        <dc:type
           rdf:resource="http://purl.org/dc/dcmitype/StillImage" />
        <dc:title />
      </cc:Work>
    </rdf:RDF>
  </metadata>
  <g
     inkscape:label="Layer 1"
     inkscape:groupmode="layer"
     id="layer1"
     transform="translate(0,-922.36218)">
    <path
       inkscape:connector-curvature="0"
       style="color:#000000;fill:#fafafa;fill-opacity:1;fill-rule:nonzero;stroke:#323232;stroke-width:2;stroke-miterlimit:4;stroke-opacity:1;stroke-dasharray:none;marker:none;visibility:visible;display:inline;overflow:visible;enable-background:accumulate"
       d="m 59.584098,949.87467 c -0.1341,0.0151 -0.2466,0.0515 -0.3801,0.0949 l -11.5604,3.75376 c -1.0681,0.34563 -1.6773,1.49143 -1.330299,2.55516 l 1.9004,5.83581 c -0.7456,0.49199 -1.4562,1.02336 -2.1537,1.57713 l -5.0043,-3.62758 c -0.9085,-0.65745 -2.1587,-0.46323 -2.8187,0.44162 l -7.158,9.81042 c -0.6601,0.90475 -0.4651,2.14999 0.4434,2.80743 l 5.0043,3.62768 c -0.314,0.83338 -0.583101,1.68867 -0.823501,2.55506 l -6.1762,0 c -1.1229,0 -2.027,0.90041 -2.027,2.01885 l 0,12.11314 c 0,1.11844 0.9041,2.01885 2.027,2.01885 l 6.1762,0 c 0.2404,0.86639 0.509501,1.72168 0.823501,2.55506 l -5.0043,3.59624 c -0.9085,0.6573 -1.1035,1.9025 -0.4434,2.8074 l 7.158,9.8104 c 0.66,0.9047 1.9102,1.099 2.8187,0.4415 l 5.0043,-3.596 c 0.6975,0.5538 1.4081,1.0852 2.1537,1.5772 l -1.9004,5.8358 c -0.347,1.0637 0.2622,2.1779 1.330299,2.5235 l 11.5604,3.7539 c 1.068,0.3456 2.186801,-0.2296 2.5338,-1.2933 l 1.9003,-5.8358 c 0.4555,0.02 0.9014,0.031 1.361901,0.031 0.460499,0 0.9064,-0.011 1.361999,-0.031 l 1.9003,5.8358 c 0.346901,1.0637 1.4657,1.6389 2.5338,1.2933 l 11.560304,-3.7539 c 1.0681,-0.3456 1.6773,-1.4598 1.330299,-2.5235 l -1.9004,-5.8358 c 0.7456,-0.492 1.4562,-1.0234 2.1537,-1.5772 l 5.0043,3.596 c 0.9085,0.6575 2.1587,0.4632 2.8188,-0.4415 l 7.158,-9.8104 c 0.66,-0.9049 0.465,-2.1501 -0.4434,-2.8074 l -5.0043,-3.59624 c 0.3139,-0.83338 0.583,-1.68867 0.8235,-2.55506 l 6.176099,0 c 1.1229,0 2.027,-0.90041 2.027,-2.01885 l 0,-12.11314 c 0,-1.11844 -0.9041,-2.01885 -2.027,-2.01885 l -6.176099,0 c -0.2405,-0.86639 -0.5096,-1.72168 -0.8235,-2.55506 l 5.0043,-3.62768 c 0.9084,-0.65744 1.1034,-1.90268 0.4434,-2.80743 l -7.158,-9.81042 c -0.6601,-0.90485 -1.9103,-1.09907 -2.8188,-0.44162 l -5.0043,3.62758 c -0.6975,-0.55377 -1.4081,-1.08514 -2.1537,-1.57714 l 1.9004,-5.8358 c 0.347,-1.06374 -0.2622,-2.20953 -1.330299,-2.55516 l -11.560304,-3.75376 c -1.0681,-0.34564 -2.186899,0.22964 -2.5338,1.29339 l -1.9003,5.86719 c -0.4556,-0.0202 -0.9015,-0.0313 -1.361999,-0.0313 -0.4605,0 -0.906401,0.0111 -1.361901,0.0313 l -1.9003,-5.86719 c -0.3036,-0.93081 -1.2155,-1.49437 -2.1537,-1.38798 z m 4.3708,17.31794 c 0.3454,-0.0171 0.6952,0 1.045101,0 11.194999,0 20.270303,9.03871 20.270303,20.18855 0,11.14983 -9.075304,20.18854 -20.270303,20.18854 -11.195,0 -20.2703,-9.03871 -20.2703,-20.18854 0,-10.80138 8.515,-19.6478 19.2252,-20.18855 z m 11.1802,6.30892 -10.4201,6.30892 c -2.2563,0.0798 -4.4297,1.16296 -5.8594,3.12297 -2.467699,3.38239 -1.7176,8.10984 1.678701,10.5674 3.3963,2.45775 8.1427,1.71077 10.6101,-1.67193 1.43,-1.96 1.7925,-4.36799 1.172,-6.52968 l 2.8187,-11.79768 z"
       id="path4078" />
  </g>
</svg>
