<?xml version="1.0" encoding="UTF-8" standalone="no"?>
<!-- Created with Inkscape (http://www.inkscape.org/) -->

<svg
   xmlns:dc="http://purl.org/dc/elements/1.1/"
   xmlns:cc="http://creativecommons.org/ns#"
   xmlns:rdf="http://www.w3.org/1999/02/22-rdf-syntax-ns#"
   xmlns:svg="http://www.w3.org/2000/svg"
   xmlns="http://www.w3.org/2000/svg"
   xmlns:sodipodi="http://sodipodi.sourceforge.net/DTD/sodipodi-0.dtd"
   xmlns:inkscape="http://www.inkscape.org/namespaces/inkscape"
   width="130"
   height="130"
   id="svg4682"
   version="1.1"
   inkscape:version="0.48.4 r9939"
   sodipodi:docname="ic_menu_refresh.svg"
   inkscape:export-filename="/home/corbax/Dev/android/Icons/Test 1/ic_play_normal.png"
   inkscape:export-xdpi="90"
   inkscape:export-ydpi="90">
  <defs
     id="defs4684" />
  <sodipodi:namedview
     id="base"
     pagecolor="#ffffff"
     bordercolor="#666666"
     borderopacity="1.0"
     inkscape:pageopacity="0.0"
     inkscape:pageshadow="2"
     inkscape:zoom="5.6"
     inkscape:cx="70.095731"
     inkscape:cy="61.032055"
     inkscape:document-units="px"
     inkscape:current-layer="layer1"
     showgrid="false"
     inkscape:window-width="1680"
     inkscape:window-height="1026"
     inkscape:window-x="1920"
     inkscape:window-y="54"
     inkscape:window-maximized="1" />
  <metadata
     id="metadata4687">
    <rdf:RDF>
      <cc:Work
         rdf:about="">
        <dc:format>image/svg+xml</dc:format>
        <dc:type
           rdf:resource="http://purl.org/dc/dcmitype/StillImage" />
        <dc:title></dc:title>
      </cc:Work>
    </rdf:RDF>
  </metadata>
  <g
     inkscape:label="Layer 1"
     inkscape:groupmode="layer"
     id="layer1"
     transform="translate(0,-922.36218)">
    <path
       transform="matrix(1.2854819,0,0,1.2850386,-1958.6692,235.74613)"
       sodipodi:type="inkscape:offset"
       inkscape:radius="0"
       inkscape:original="M 1575.6562 549.90625 C 1574.1104 549.84199 1572.5686 549.89582 1571.0625 550.03125 C 1574.1953 551.49366 1577.0275 553.26982 1579.4375 555.34375 C 1576.2487 556.54907 1573.4142 558.18688 1570.9688 560.09375 C 1573.4386 559.76822 1575.9787 559.82591 1578.5625 560.28125 C 1592.1598 562.67891 1601.2725 575.62143 1598.875 589.21875 C 1598.0474 593.91227 1595.9343 598.07419 1593 601.40625 L 1590.75 597.5 L 1580.3438 615.46875 L 1590.9688 615.46875 L 1591 615.59375 C 1591.074 615.55345 1591.1454 615.50995 1591.2188 615.46875 L 1601.125 615.46875 L 1598.1875 610.40625 C 1603.5127 605.41261 1607.3535 598.7111 1608.7188 590.96875 C 1612.0751 571.93245 1599.3488 553.79415 1580.3125 550.4375 C 1578.752 550.16233 1577.2021 549.97051 1575.6562 549.90625 z M 1547.3125 554.21875 L 1550.2812 559.40625 C 1544.9506 564.3939 1541.1469 571.06839 1539.7812 578.8125 C 1536.4247 597.84885 1549.1197 616.01823 1568.1562 619.375 C 1571.2643 619.92311 1574.3435 620.04745 1577.3438 619.78125 C 1574.2294 618.32261 1571.4296 616.50094 1569.0312 614.4375 C 1572.2197 613.23127 1575.0543 611.59416 1577.5 609.6875 C 1575.0299 610.01282 1572.4901 609.98677 1569.9062 609.53125 C 1556.3087 607.13369 1547.196 594.12862 1549.5938 580.53125 C 1550.4217 575.83505 1552.5281 571.70215 1555.4688 568.375 L 1557.6875 572.21875 L 1568.0938 554.25 L 1557.4688 554.21875 C 1557.4507 554.22895 1557.4253 554.2399 1557.4062 554.25 L 1547.3125 554.21875 z "
       style="fill:#fafafa;fill-opacity:1;fill-rule:nonzero;stroke:none"
       id="path5672"
       d="m 1575.6562,549.90625 c -1.5458,-0.0643 -3.0876,-0.0104 -4.5937,0.125 3.1328,1.46241 5.965,3.23857 8.375,5.3125 -3.1888,1.20532 -6.0233,2.84313 -8.4687,4.75 2.4698,-0.32553 5.0099,-0.26784 7.5937,0.1875 13.5973,2.39766 22.71,15.34018 20.3125,28.9375 -0.8276,4.69352 -2.9407,8.85544 -5.875,12.1875 l -2.25,-3.90625 -10.4062,17.96875 10.625,0 0.031,0.125 c 0.074,-0.0403 0.1454,-0.0838 0.2188,-0.125 l 9.9062,0 -2.9375,-5.0625 c 5.3252,-4.99364 9.166,-11.69515 10.5313,-19.4375 3.3563,-19.0363 -9.37,-37.1746 -28.4063,-40.53125 -1.5605,-0.27517 -3.1104,-0.46699 -4.6563,-0.53125 z m -28.3437,4.3125 2.9687,5.1875 c -5.3306,4.98765 -9.1343,11.66214 -10.5,19.40625 -3.3565,19.03635 9.3385,37.20573 28.375,40.5625 3.1081,0.54811 6.1873,0.67245 9.1876,0.40625 -3.1144,-1.45864 -5.9142,-3.28031 -8.3126,-5.34375 3.1885,-1.20623 6.0231,-2.84334 8.4688,-4.75 -2.4701,0.32532 -5.0099,0.29927 -7.5938,-0.15625 -13.5975,-2.39756 -22.7102,-15.40263 -20.3124,-29 0.8279,-4.6962 2.9343,-8.8291 5.875,-12.15625 l 2.2187,3.84375 10.4063,-17.96875 -10.625,-0.0312 c -0.018,0.0102 -0.043,0.0212 -0.063,0.0312 l -10.0937,-0.0312 z" />
  </g>
</svg>
