<?xml version="1.0" encoding="UTF-8" standalone="no"?>
<!-- Created with Inkscape (http://www.inkscape.org/) -->

<svg
   xmlns:dc="http://purl.org/dc/elements/1.1/"
   xmlns:cc="http://creativecommons.org/ns#"
   xmlns:rdf="http://www.w3.org/1999/02/22-rdf-syntax-ns#"
   xmlns:svg="http://www.w3.org/2000/svg"
   xmlns="http://www.w3.org/2000/svg"
   xmlns:sodipodi="http://sodipodi.sourceforge.net/DTD/sodipodi-0.dtd"
   xmlns:inkscape="http://www.inkscape.org/namespaces/inkscape"
   width="130"
   height="130"
   id="svg4682"
   version="1.1"
   inkscape:version="0.48.4 r9939"
   sodipodi:docname="ic_menu_search.svg"
   inkscape:export-filename="/home/corbax/Dev/android/Icons/Test 1/ic_play_normal.png"
   inkscape:export-xdpi="90"
   inkscape:export-ydpi="90">
  <defs
     id="defs4684" />
  <sodipodi:namedview
     id="base"
     pagecolor="#ffffff"
     bordercolor="#666666"
     borderopacity="1.0"
     inkscape:pageopacity="0.0"
     inkscape:pageshadow="2"
     inkscape:zoom="5.6"
     inkscape:cx="20.894782"
     inkscape:cy="75.317769"
     inkscape:document-units="px"
     inkscape:current-layer="layer1"
     showgrid="false"
     inkscape:window-width="1680"
     inkscape:window-height="1026"
     inkscape:window-x="1920"
     inkscape:window-y="54"
     inkscape:window-maximized="1" />
  <metadata
     id="metadata4687">
    <rdf:RDF>
      <cc:Work
         rdf:about="">
        <dc:format>image/svg+xml</dc:format>
        <dc:type
           rdf:resource="http://purl.org/dc/dcmitype/StillImage" />
        <dc:title />
      </cc:Work>
    </rdf:RDF>
  </metadata>
  <g
     inkscape:label="Layer 1"
     inkscape:groupmode="layer"
     id="layer1"
     transform="translate(0,-922.36218)">
    <path
       inkscape:connector-curvature="0"
       id="path4981"
       d="m 52.992455,942.37342 c -18.22536,0 -33,14.77464 -33,33 0,18.22536 14.77464,32.99998 33,32.99998 6.97764,0 13.45692,-2.1543 18.78756,-5.85 0.44724,0.2181 1.01484,0.1477 1.38744,-0.225 l 0.825,-0.825 8.512562,8.475 -0.86256,0.8624 c -0.47004,0.47 -0.47004,1.2175 0,1.6876 l 19.500003,19.5 c 0.47016,0.47 1.25496,0.47 1.725,0 l 6.78755,-6.7876 c 0.47004,-0.4699 0.47004,-1.2174 0,-1.6874 l -19.537554,-19.5375 c -0.47004,-0.47 -1.2174,-0.47 -1.68744,0 l -0.86256,0.8625 -8.475,-8.47498 0.86256,-0.86256 c 0.384961,-0.38508 0.433201,-0.93276 0.18744,-1.38744 3.68532,-5.32584 5.85,-11.78316 5.85,-18.75 0,-18.22536 -14.774643,-33 -33.000001,-33 z m 0,12 c 11.598,0 21,9.402 21,21 0,11.598 -9.402,21 -21,21 -11.598,0 -21,-9.402 -21,-21 0,-11.598 9.402,-21 21,-21 z"
       style="fill:#fafafa;fill-opacity:1;fill-rule:nonzero;stroke:none" />
  </g>
</svg>
