<?xml version="1.0" encoding="UTF-8" standalone="no"?>
<!-- Created with Inkscape (http://www.inkscape.org/) -->

<svg
   xmlns:dc="http://purl.org/dc/elements/1.1/"
   xmlns:cc="http://creativecommons.org/ns#"
   xmlns:rdf="http://www.w3.org/1999/02/22-rdf-syntax-ns#"
   xmlns:svg="http://www.w3.org/2000/svg"
   xmlns="http://www.w3.org/2000/svg"
   xmlns:sodipodi="http://sodipodi.sourceforge.net/DTD/sodipodi-0.dtd"
   xmlns:inkscape="http://www.inkscape.org/namespaces/inkscape"
   width="24"
   height="24"
   id="svg4682"
   version="1.1"
   inkscape:version="0.48.5 r10040"
   sodipodi:docname="ic_menu_preferences.svg"
   inkscape:export-filename="/home/corbax/Dev/android/Icons/Test 1/ic_play_normal.png"
   inkscape:export-xdpi="90"
   inkscape:export-ydpi="90">
  <defs
     id="defs4684" />
  <sodipodi:namedview
     id="base"
     pagecolor="#ffffff"
     bordercolor="#666666"
     borderopacity="1.0"
     inkscape:pageopacity="0.0"
     inkscape:pageshadow="2"
     inkscape:zoom="22.4"
     inkscape:cx="22.061705"
     inkscape:cy="15.548271"
     inkscape:document-units="px"
     inkscape:current-layer="layer1"
     showgrid="false"
     inkscape:window-width="1920"
     inkscape:window-height="1056"
     inkscape:window-x="1920"
     inkscape:window-y="24"
     inkscape:window-maximized="1" />
  <metadata
     id="metadata4687">
    <rdf:RDF>
      <cc:Work
         rdf:about="">
        <dc:format>image/svg+xml</dc:format>
        <dc:type
           rdf:resource="http://purl.org/dc/dcmitype/StillImage" />
        <dc:title></dc:title>
      </cc:Work>
    </rdf:RDF>
  </metadata>
  <g
     inkscape:label="Layer 1"
     inkscape:groupmode="layer"
     id="layer1"
     transform="translate(0,-1028.3622)">
    <path
       style="color:#000000;fill:#fafafa;fill-opacity:1;fill-rule:nonzero;stroke:none;stroke-width:1;marker:none;visibility:visible;display:inline;overflow:visible;enable-background:accumulate"
       d="M 8.71875,3.59375 C 8.5980695,3.6035797 8.4945725,3.6497 8.375,3.71875 l -0.875,0.5 -0.875,0.5 C 6.14671,4.99485 6.12617,5.5324 6.28125,6.0625 L 6.6875,7.46875 C 6.1340014,8.1147515 5.6963142,8.838285 5.40625,9.65625 L 4,10 c -0.53659,0.1307 -1,0.4477 -1,1 l 0,1 0,1 c 0,0.5523 0.46342,0.8693 1,1 l 1.40625,0.34375 c 0.2900642,0.817965 0.7277514,1.541498 1.28125,2.1875 L 6.28125,17.9375 c -0.1551,0.5301 -0.13454,1.06765 0.34375,1.34375 l 0.875,0.5 0.875,0.5 c 0.47829,0.2762 0.96225,0.05525 1.34375,-0.34375 L 10.75,18.875 C 11.15694,18.948618 11.571841,19 12,19 c 0.428158,0 0.843061,-0.05138 1.25,-0.125 l 1.03125,1.0625 c 0.3815,0.3994 0.86546,0.61995 1.34375,0.34375 l 0.875,-0.5 0.875,-0.5 c 0.47829,-0.2761 0.49883,-0.81365 0.34375,-1.34375 L 17.3125,16.53125 c 0.420976,-0.49133 0.758217,-1.029749 1.03125,-1.625 L 20,14.5 c 0.53659,-0.1307 1,-0.4477 1,-1 l 0,-0.5 0,-1 0,-1 c 0,-0.5523 -0.46341,-0.8693 -1,-1 L 18.59375,9.65625 C 18.303685,8.838285 17.865999,8.1147515 17.3125,7.46875 L 17.71875,6.0625 C 17.87385,5.5324 17.85329,4.99485 17.375,4.71875 l -0.875,-0.5 -0.875,-0.5 C 15.14671,3.44255 14.66274,3.6635 14.28125,4.0625 L 13.25,5.125 C 12.843061,5.0513824 12.428158,5 12,5 11.571841,5 11.15694,5.0513824 10.75,5.125 L 9.71875,4.0625 C 9.432625,3.763025 9.0807914,3.5642609 8.71875,3.59375 z M 12,8 c 2.20914,0 4,1.7909 4,4 0,2.2091 -1.79086,4 -4,4 C 9.79086,16 8,14.2091 8,12 8,9.7909 9.79086,8 12,8 z"
       transform="translate(0,1028.3622)"
       id="path7401"
       inkscape:connector-curvature="0"
       sodipodi:nodetypes="scccccccscscccccccccscccccccccsccscccccccccsccssssss" />
  </g>
</svg>
