<?xml version="1.0" encoding="UTF-8" standalone="no"?>
<!-- Created with Inkscape (http://www.inkscape.org/) -->

<svg
   xmlns:dc="http://purl.org/dc/elements/1.1/"
   xmlns:cc="http://creativecommons.org/ns#"
   xmlns:rdf="http://www.w3.org/1999/02/22-rdf-syntax-ns#"
   xmlns:svg="http://www.w3.org/2000/svg"
   xmlns="http://www.w3.org/2000/svg"
   xmlns:sodipodi="http://sodipodi.sourceforge.net/DTD/sodipodi-0.dtd"
   xmlns:inkscape="http://www.inkscape.org/namespaces/inkscape"
   width="90"
   height="90"
   id="svg4682"
   version="1.1"
   inkscape:version="0.48.5 r10040"
   sodipodi:docname="ic_menu_overflow.svg"
   inkscape:export-filename="/home/corbax/Dev/android/Icons/Test 1/ic_play_normal.png"
   inkscape:export-xdpi="90"
   inkscape:export-ydpi="90">
  <defs
     id="defs4684" />
  <sodipodi:namedview
     id="base"
     pagecolor="#ffffff"
     bordercolor="#666666"
     borderopacity="1.0"
     inkscape:pageopacity="0.0"
     inkscape:pageshadow="2"
     inkscape:zoom="7.9195959"
     inkscape:cx="-3.5674542"
     inkscape:cy="41.864017"
     inkscape:document-units="px"
     inkscape:current-layer="layer1"
     showgrid="false"
     inkscape:window-width="1920"
     inkscape:window-height="1056"
     inkscape:window-x="1920"
     inkscape:window-y="24"
     inkscape:window-maximized="1" />
  <metadata
     id="metadata4687">
    <rdf:RDF>
      <cc:Work
         rdf:about="">
        <dc:format>image/svg+xml</dc:format>
        <dc:type
           rdf:resource="http://purl.org/dc/dcmitype/StillImage" />
        <dc:title />
      </cc:Work>
    </rdf:RDF>
  </metadata>
  <g
     inkscape:label="Layer 1"
     inkscape:groupmode="layer"
     id="layer1"
     transform="translate(0,-962.36218)">
    <path
       inkscape:connector-curvature="0"
       style="color:#000000;fill:#fafafa;fill-opacity:1;fill-rule:nonzero;stroke:none;stroke-width:0.1;marker:none;visibility:visible;display:inline;overflow:visible;enable-background:accumulate"
       d="m 45.000001,976.36218 c -3.950951,0 -7.153848,3.20288 -7.153848,7.15384 0,3.95095 3.202897,7.15386 7.153848,7.15386 3.95095,0 7.153846,-3.20291 7.153846,-7.15386 0,-3.95096 -3.202896,-7.15384 -7.153846,-7.15384 z m 0,23.84612 c -3.950951,0 -7.153848,3.2029 -7.153848,7.1539 0,3.9509 3.202897,7.1538 7.153848,7.1538 3.95095,0 7.153846,-3.2029 7.153846,-7.1538 0,-3.951 -3.202896,-7.1539 -7.153846,-7.1539 z m 0,23.8462 c -3.950951,0 -7.153848,3.2029 -7.153848,7.1539 0,3.9509 3.202897,7.1538 7.153848,7.1538 3.95095,0 7.153846,-3.2029 7.153846,-7.1538 0,-3.951 -3.202896,-7.1539 -7.153846,-7.1539 z"
       id="path6083" />
  </g>
</svg>
