<?xml version="1.0" encoding="UTF-8" standalone="no"?>
<!-- Created with Inkscape (http://www.inkscape.org/) -->

<svg
   xmlns:dc="http://purl.org/dc/elements/1.1/"
   xmlns:cc="http://creativecommons.org/ns#"
   xmlns:rdf="http://www.w3.org/1999/02/22-rdf-syntax-ns#"
   xmlns:svg="http://www.w3.org/2000/svg"
   xmlns="http://www.w3.org/2000/svg"
   xmlns:sodipodi="http://sodipodi.sourceforge.net/DTD/sodipodi-0.dtd"
   xmlns:inkscape="http://www.inkscape.org/namespaces/inkscape"
   width="130"
   height="130"
   id="svg4682"
   version="1.1"
   inkscape:version="0.48.4 r9939"
   sodipodi:docname="ic_menu_revert_g.svg"
   inkscape:export-filename="/home/corbax/Dev/android/Icons/Test 1/ic_play_normal.png"
   inkscape:export-xdpi="90"
   inkscape:export-ydpi="90">
  <defs
     id="defs4684" />
  <sodipodi:namedview
     id="base"
     pagecolor="#ffffff"
     bordercolor="#666666"
     borderopacity="1.0"
     inkscape:pageopacity="0.0"
     inkscape:pageshadow="2"
     inkscape:zoom="3.959798"
     inkscape:cx="-0.74562401"
     inkscape:cy="74.339893"
     inkscape:document-units="px"
     inkscape:current-layer="layer1"
     showgrid="false"
     inkscape:window-width="1680"
     inkscape:window-height="1026"
     inkscape:window-x="1920"
     inkscape:window-y="54"
     inkscape:window-maximized="1" />
  <metadata
     id="metadata4687">
    <rdf:RDF>
      <cc:Work
         rdf:about="">
        <dc:format>image/svg+xml</dc:format>
        <dc:type
           rdf:resource="http://purl.org/dc/dcmitype/StillImage" />
        <dc:title />
      </cc:Work>
    </rdf:RDF>
  </metadata>
  <g
     inkscape:label="Layer 1"
     inkscape:groupmode="layer"
     id="layer1"
     transform="translate(0,-922.36218)">
    <path
       inkscape:connector-curvature="0"
       style="fill:#fafafa;fill-opacity:1;fill-rule:nonzero;stroke:#323232;stroke-width:2;stroke-miterlimit:4;stroke-opacity:1;stroke-dasharray:none"
       d="m 35.9531,947.17477 c -0.7436,0 -2.2252,0.7251 -2.9687,1.4688 -0.7436,0.7436 -0.75,1.5064 -0.75,2.25 l 0,33.5312 c -0.3647,-0.041 -0.7162,-0.094 -1.0938,-0.094 -4.7295,0 -8.5937,3.33742 -8.5937,7.43762 0,4.1002 3.8642,7.4062 8.5937,7.4062 4.7295,0 8.5625,-3.306 8.5625,-7.4062 0,-0.1283 -0.024,-0.2486 -0.031,-0.375 l 0,-40.50002 c 0,-0.7436 0.027,-1.5274 0.75,-2.25 0.7226,-0.7227 2.2252,-1.4688 2.9688,-1.4688 l -3.7188,0 -3.7187,0 z m 18.5938,3.7188 c -0.7436,0 -2.2252,0.7251 -2.9688,1.4687 -0.7436,0.7436 -0.75,1.5065 -0.75,2.25 l 0,33.53132 c -0.3698,-0.042 -0.7107,-0.094 -1.0937,-0.094 -4.731,0 -8.5938,3.3373 -8.5938,7.4375 0,4.1001 3.8628,7.40631 8.5938,7.40631 4.7309,0 8.5312,-3.30621 8.5312,-7.40631 l 0,-40.87502 c 0,-0.7436 0.027,-1.5274 0.75,-2.25 0.7226,-0.7226 2.2252,-1.4688 2.9688,-1.4687 l -3.7188,0 -3.7187,0 z m 18.5937,3.7187 c -0.7436,0 -2.2252,0.7251 -2.9687,1.4687 -0.7436,0.7437 -0.75,1.5065 -0.75,2.25 l 0,33.50002 c -0.3688,-0.042 -0.743,-0.062 -1.125,-0.062 -4.7182,0 -8.5313,3.306 -8.5313,7.4062 0,4.10011 3.8131,7.43751 8.5313,7.43751 4.7092,0 8.5169,-3.3168 8.5312,-7.40631 l 0.031,0 0,-40.87502 c 0,-0.7436 0.027,-1.5273 0.75,-2.25 0.7226,-0.7227 2.2252,-1.4687 2.9688,-1.4687 l -3.7188,0 -3.7187,0 z m 9.3125,17.5625 c 0,2.9999 0,7 0,10 8,-10e-5 15,6.99992 15,15.00002 0.013,7.96861 -7,14.99991 -15,15.00001 l -35,0 0,-5.4062 -18,10.4062 18,10.375 0,-5.375 35,0 c 13.8071,0 25.0006,-11.1922 25,-25.00001 0,-13.80712 -11.1937,-24.99942 -25,-25.00002 z"
       id="path4068" />
  </g>
</svg>
