<?xml version="1.0" encoding="UTF-8" standalone="no"?>
<!-- Created with Inkscape (http://www.inkscape.org/) -->

<svg
   xmlns:dc="http://purl.org/dc/elements/1.1/"
   xmlns:cc="http://creativecommons.org/ns#"
   xmlns:rdf="http://www.w3.org/1999/02/22-rdf-syntax-ns#"
   xmlns:svg="http://www.w3.org/2000/svg"
   xmlns="http://www.w3.org/2000/svg"
   xmlns:sodipodi="http://sodipodi.sourceforge.net/DTD/sodipodi-0.dtd"
   xmlns:inkscape="http://www.inkscape.org/namespaces/inkscape"
   width="130"
   height="130"
   id="svg4682"
   version="1.1"
   inkscape:version="0.48.4 r9939"
   sodipodi:docname="ic_menu_video.svg"
   inkscape:export-filename="/home/corbax/Dev/android/Icons/Test 1/ic_play_normal.png"
   inkscape:export-xdpi="90"
   inkscape:export-ydpi="90">
  <defs
     id="defs4684" />
  <sodipodi:namedview
     id="base"
     pagecolor="#ffffff"
     bordercolor="#666666"
     borderopacity="1.0"
     inkscape:pageopacity="0.0"
     inkscape:pageshadow="2"
     inkscape:zoom="3.959798"
     inkscape:cx="48.246774"
     inkscape:cy="74.339893"
     inkscape:document-units="px"
     inkscape:current-layer="layer1"
     showgrid="false"
     inkscape:window-width="1680"
     inkscape:window-height="1026"
     inkscape:window-x="1920"
     inkscape:window-y="54"
     inkscape:window-maximized="1" />
  <metadata
     id="metadata4687">
    <rdf:RDF>
      <cc:Work
         rdf:about="">
        <dc:format>image/svg+xml</dc:format>
        <dc:type
           rdf:resource="http://purl.org/dc/dcmitype/StillImage" />
        <dc:title></dc:title>
      </cc:Work>
    </rdf:RDF>
  </metadata>
  <g
     inkscape:label="Layer 1"
     inkscape:groupmode="layer"
     id="layer1"
     transform="translate(0,-922.36218)">
    <path
       sodipodi:type="inkscape:offset"
       inkscape:radius="-0.46403882"
       inkscape:original="M 1751.5625 387.375 A 1.5438679 1.5475543 0 0 0 1750 388.9375 L 1750.0938 460.96875 A 1.5438679 1.5475543 0 0 0 1751.6562 462.53125 L 1756.3438 462.53125 A 1.5438679 1.5475543 0 0 0 1757.9062 460.96875 L 1757.9062 458.03125 C 1757.9062 457.79877 1758.0181 457.65625 1758.25 457.65625 L 1763.0312 457.65625 C 1763.2631 457.65625 1763.4063 457.79877 1763.4062 458.03125 L 1763.4062 460.96875 A 1.5438679 1.5475543 0 0 0 1764.9688 462.53125 L 1808.9688 462.46875 A 1.5438679 1.5475543 0 0 0 1810.5312 460.90625 L 1810.5312 458.03125 C 1810.5312 457.79877 1810.6744 457.65625 1810.9062 457.65625 L 1815.6875 457.65625 C 1815.9195 457.65625 1816.0313 457.79877 1816.0312 458.03125 L 1816.0312 460.90625 A 1.5438679 1.5475543 0 0 0 1817.5938 462.46875 L 1823.3438 462.46875 A 1.5438679 1.5475543 0 0 0 1824.9062 460.90625 L 1824.9688 389 A 1.5438679 1.5475543 0 0 0 1823.4375 387.4375 L 1818.5625 387.4375 A 1.5438679 1.5475543 0 0 0 1817 389 L 1817 391.8125 C 1817 392.04499 1816.8569 392.1875 1816.625 392.1875 L 1810.9062 392.1875 C 1810.6777 392.1875 1810.493 392.02412 1810.5 391.9375 A 1.5438679 1.5475543 0 0 0 1810.5312 391.8125 L 1810.5312 388.96875 A 1.5438679 1.5475543 0 0 0 1808.9688 387.40625 L 1765.9062 387.375 A 1.5438679 1.5475543 0 0 0 1764.3438 388.9375 L 1764.3438 391.8125 C 1764.3438 392.04499 1764.2319 392.1875 1764 392.1875 L 1758.25 392.1875 C 1758.0181 392.1875 1757.9063 392.04499 1757.9062 391.8125 L 1757.9062 388.9375 A 1.5438679 1.5475543 0 0 0 1756.3438 387.375 L 1751.5625 387.375 z M 1772.625 395.3125 L 1802.2812 395.3125 C 1802.5131 395.3125 1802.625 395.42376 1802.625 395.65625 L 1802.625 417.71875 C 1802.625 417.95123 1802.5131 418.09375 1802.2812 418.09375 L 1772.625 418.09375 C 1772.3931 418.09375 1772.25 417.95123 1772.25 417.71875 L 1772.25 395.65625 C 1772.25 395.42376 1772.3931 395.3125 1772.625 395.3125 z M 1758.25 400.09375 L 1764 400.09375 C 1764.2319 400.09375 1764.3438 400.23626 1764.3438 400.46875 L 1764.3438 406.21875 C 1764.3438 406.45123 1764.2319 406.5625 1764 406.5625 L 1758.25 406.5625 C 1758.0181 406.5625 1757.9063 406.45123 1757.9062 406.21875 L 1757.9062 400.46875 C 1757.9062 400.23626 1758.0181 400.09375 1758.25 400.09375 z M 1810.9062 400.09375 L 1816.625 400.09375 C 1816.8569 400.09375 1817 400.23626 1817 400.46875 L 1817 406.21875 C 1817 406.45123 1816.8569 406.5625 1816.625 406.5625 L 1810.9062 406.5625 C 1810.6744 406.5625 1810.5313 406.45123 1810.5312 406.21875 L 1810.5312 400.46875 C 1810.5312 400.23626 1810.6744 400.09375 1810.9062 400.09375 z M 1758.25 414.5 L 1764 414.5 C 1764.2319 414.5 1764.3438 414.61127 1764.3438 414.84375 L 1764.3438 420.59375 C 1764.3438 420.82623 1764.2319 420.96875 1764 420.96875 L 1758.25 420.96875 C 1758.0181 420.96875 1757.9063 420.82623 1757.9062 420.59375 L 1757.9062 414.84375 C 1757.9062 414.61127 1758.0181 414.5 1758.25 414.5 z M 1810.9062 414.5 L 1816.625 414.5 C 1816.8569 414.5 1817 414.61127 1817 414.84375 L 1817 420.59375 C 1817 420.82623 1816.8569 420.96875 1816.625 420.96875 L 1810.9062 420.96875 C 1810.6744 420.96875 1810.5313 420.82623 1810.5312 420.59375 L 1810.5312 414.84375 C 1810.5312 414.61127 1810.6744 414.5 1810.9062 414.5 z M 1758.25 428.875 L 1764 428.875 C 1764.2319 428.875 1764.3438 429.01752 1764.3438 429.25 L 1764.3438 435 C 1764.3438 435.23249 1764.2319 435.34375 1764 435.34375 L 1758.25 435.34375 C 1758.0181 435.34375 1757.9063 435.23249 1757.9062 435 L 1757.9062 429.25 C 1757.9062 429.01752 1758.0181 428.875 1758.25 428.875 z M 1810.9062 428.875 L 1816.625 428.875 C 1816.8569 428.875 1817 429.01752 1817 429.25 L 1817 435 C 1817 435.23249 1816.8569 435.34375 1816.625 435.34375 L 1810.9062 435.34375 C 1810.6744 435.34375 1810.5313 435.23249 1810.5312 435 L 1810.5312 429.25 C 1810.5312 429.01752 1810.6744 428.875 1810.9062 428.875 z M 1772.625 431.75 L 1802.2812 431.75 C 1802.5131 431.75 1802.625 431.89252 1802.625 432.125 L 1802.625 454.1875 C 1802.625 454.41998 1802.5131 454.53125 1802.2812 454.53125 L 1772.625 454.53125 C 1772.3931 454.53125 1772.25 454.41998 1772.25 454.1875 L 1772.25 432.125 C 1772.25 431.89252 1772.3931 431.75 1772.625 431.75 z M 1758.25 443.28125 L 1764 443.28125 C 1764.2319 443.28125 1764.3438 443.39251 1764.3438 443.625 L 1764.3438 449.375 C 1764.3438 449.60748 1764.2319 449.75 1764 449.75 L 1758.25 449.75 C 1758.0181 449.75 1757.9063 449.60748 1757.9062 449.375 L 1757.9062 443.625 C 1757.9062 443.39251 1758.0181 443.28125 1758.25 443.28125 z M 1810.9062 443.28125 L 1816.625 443.28125 C 1816.8569 443.28125 1817 443.39251 1817 443.625 L 1817 449.375 C 1817 449.60748 1816.8569 449.75 1816.625 449.75 L 1810.9062 449.75 C 1810.6744 449.75 1810.5313 449.60748 1810.5312 449.375 L 1810.5312 443.625 C 1810.5312 443.39251 1810.6744 443.28125 1810.9062 443.28125 z "
       style="fill:#777777;fill-opacity:1;stroke:none"
       id="path5875"
       d="m 1751.3438,387.84375 c -0.033,0.006 -0.03,0.0234 -0.063,0.0312 -0.032,0.008 8e-4,-0.009 -0.031,0 -0.032,0.009 -0.031,0.0202 -0.062,0.0312 -0.032,0.011 -0.032,-0.0126 -0.062,0 -0.031,0.0126 -10e-4,0.0172 -0.031,0.0312 -0.03,0.0141 -0.033,0.0157 -0.063,0.0312 -0.029,0.0156 -0,0.0142 -0.031,0.0312 -0.029,0.017 -0.035,0.0128 -0.062,0.0312 -0.028,0.0184 -0,0.0115 -0.031,0.0312 -0.027,0.0198 -0.01,0.0101 -0.031,0.0312 -0.026,0.0211 -0.038,0.009 -0.062,0.0312 -0.025,0.0224 -0.01,0.008 -0.031,0.0312 -0.023,0.0236 -0.01,0.007 -0.031,0.0312 -0.022,0.0247 -0.01,0.0367 -0.031,0.0625 -0.021,0.0258 -0.012,0.004 -0.031,0.0312 -0.02,0.0268 -0.013,0.003 -0.031,0.0312 -0.018,0.0278 -0.014,0.0338 -0.031,0.0625 -0.017,0.0287 -0.016,0.002 -0.031,0.0312 -0.016,0.0295 -0.017,0.0323 -0.031,0.0625 -0.014,0.0302 -0.019,3.7e-4 -0.031,0.0312 -0.013,0.0309 0.011,0.031 0,0.0625 -0.011,0.0315 -0.022,0.0305 -0.031,0.0625 -0.01,0.032 0.01,-0.001 0,0.0312 -0.01,0.0324 -0.025,0.0297 -0.031,0.0625 -0.01,0.0328 0,0.0295 0,0.0625 -0,0.033 0,-0.002 0,0.0312 -0,0.0332 0,0.0292 0,0.0625 -0,0.0333 -4e-4,0.0292 0,0.0625 l 0.094,72.03125 c -3e-4,0.0333 -0,0.0292 0,0.0625 0,0.0333 -0,0.0293 0,0.0625 0,0.0332 -0,-0.002 0,0.0312 0,0.033 -0.01,0.0297 0,0.0625 0.01,0.0328 0.023,0.0301 0.031,0.0625 0.01,0.0324 -0.01,-7.2e-4 0,0.0312 0.01,0.032 0.02,0.031 0.031,0.0625 0.011,0.0315 -0.013,0.0316 0,0.0625 0.013,0.0309 0.017,0.001 0.031,0.0312 0.014,0.0302 0.016,0.033 0.031,0.0625 0.016,0.0295 0.014,0.003 0.031,0.0312 0.017,0.0287 0.013,0.0347 0.031,0.0625 0.018,0.0278 0.011,0.004 0.031,0.0312 0.02,0.0268 0.01,0.005 0.031,0.0312 0.021,0.0258 0.01,0.0378 0.031,0.0625 0.022,0.0247 0.01,0.008 0.031,0.0312 0.024,0.0236 0.01,0.009 0.031,0.0312 0.025,0.0224 0.037,0.0101 0.063,0.0312 0.026,0.0211 0,0.0115 0.031,0.0312 0.027,0.0198 0,0.0128 0.031,0.0312 0.028,0.0184 0.034,0.0142 0.063,0.0312 0.029,0.017 0,0.0157 0.031,0.0312 0.03,0.0156 0.032,0.0172 0.062,0.0312 0.03,0.0141 4e-4,0.0187 0.031,0.0312 0.031,0.0126 0.031,-0.011 0.062,0 0.032,0.011 0.031,0.0218 0.063,0.0312 0.032,0.009 -0,-0.008 0.031,0 0.032,0.008 0.03,0.025 0.062,0.0312 0.033,0.006 0.03,-0.005 0.062,0 0.033,0.005 -0,-0.003 0.031,0 0.033,0.003 0.029,-0.001 0.063,0 0.033,0.001 0.029,4e-4 0.062,0 l 4.6876,0 c 0.033,4e-4 0.029,0.001 0.062,0 0.033,-0.001 0.029,0.003 0.063,0 0.033,-0.003 -0,0.005 0.031,0 0.033,-0.005 0.03,0.006 0.062,0 0.033,-0.006 0.03,-0.0234 0.062,-0.0312 0.032,-0.008 -7e-4,0.009 0.031,0 0.032,-0.009 0.031,-0.0202 0.063,-0.0312 0.031,-0.011 0.032,0.0126 0.062,0 0.031,-0.0126 0,-0.0172 0.031,-0.0312 0.03,-0.0141 0.033,-0.0157 0.062,-0.0312 0.03,-0.0156 0,-0.0142 0.031,-0.0312 0.029,-0.017 0.035,-0.0128 0.063,-0.0312 0.028,-0.0184 0,-0.0115 0.031,-0.0312 0.027,-0.0198 0.01,-0.0101 0.031,-0.0312 0.026,-0.0211 0.038,-0.009 0.063,-0.0312 0.025,-0.0224 0.01,-0.008 0.031,-0.0312 0.024,-0.0236 0.01,-0.007 0.031,-0.0312 0.022,-0.0247 0.01,-0.0367 0.031,-0.0625 0.021,-0.0258 0.011,-0.004 0.031,-0.0312 0.02,-0.0268 0.013,-0.003 0.031,-0.0312 0.018,-0.0278 0.014,-0.0338 0.031,-0.0625 0.017,-0.0287 0.016,-0.002 0.031,-0.0312 0.016,-0.0295 0.017,-0.0323 0.031,-0.0625 0.014,-0.0302 0.019,-3.7e-4 0.031,-0.0312 0.013,-0.0309 -0.011,-0.031 0,-0.0625 0.011,-0.0315 0.022,-0.0305 0.031,-0.0625 0.01,-0.032 -0.01,0.001 0,-0.0312 0.01,-0.0324 0.025,-0.0297 0.031,-0.0625 0.01,-0.0328 -0,-0.0295 0,-0.0625 0,-0.033 -0,0.002 0,-0.0312 0,-0.0332 -0,-0.0292 0,-0.0625 0,-0.0333 3e-4,-0.0292 0,-0.0625 l 0,-2.9375 c 0,-0.19069 0.065,-0.41873 0.2187,-0.59375 0.1542,-0.17502 0.3828,-0.25 0.5938,-0.25 l 4.7812,0 c 0.2111,0 0.4309,0.0873 0.5938,0.25 0.1629,0.16273 0.2501,0.38219 0.25,0.59375 l 0,2.9375 c -3e-4,0.0333 -0,0.0292 0,0.0625 0,0.0333 -0,0.0293 0,0.0625 0,0.0332 -0,-0.002 0,0.0312 0,0.033 -0.01,0.0297 0,0.0625 0.01,0.0328 0.023,0.0301 0.031,0.0625 0.01,0.0324 -0.01,-7.3e-4 0,0.0312 0.01,0.032 0.02,0.031 0.031,0.0625 0.011,0.0315 -0.013,0.0316 0,0.0625 0.013,0.0309 0.017,0.001 0.031,0.0312 0.014,0.0302 0.016,0.033 0.031,0.0625 0.016,0.0295 0.014,0.003 0.031,0.0312 0.017,0.0287 0.013,0.0347 0.031,0.0625 0.018,0.0278 0.011,0.004 0.031,0.0312 0.02,0.0268 0.01,0.005 0.031,0.0312 0.021,0.0258 0.01,0.0378 0.031,0.0625 0.022,0.0247 0.01,0.008 0.031,0.0312 0.024,0.0236 0.01,0.009 0.031,0.0312 0.025,0.0224 0.037,0.0101 0.062,0.0312 0.026,0.0211 0,0.0115 0.031,0.0312 0.027,0.0198 0,0.0128 0.031,0.0312 0.028,0.0184 0.034,0.0142 0.062,0.0312 0.029,0.017 0,0.0157 0.031,0.0312 0.03,0.0156 0.032,0.0172 0.062,0.0312 0.03,0.0141 4e-4,0.0187 0.031,0.0312 0.031,0.0126 0.031,-0.011 0.063,0 0.031,0.011 0.03,0.0218 0.062,0.0312 0.032,0.009 -0,-0.008 0.031,0 0.032,0.008 0.03,0.025 0.062,0.0312 0.033,0.006 0.03,-0.005 0.062,0 0.033,0.005 -0,-0.003 0.031,0 0.033,0.003 0.029,-0.001 0.062,0 0.033,0.001 0.029,4.1e-4 0.063,0 l 44,-0.0625 c 0.033,4e-4 0.029,0.001 0.062,0 0.033,-0.001 0.029,0.003 0.063,0 0.033,-0.003 -0,0.005 0.031,0 0.033,-0.005 0.03,0.006 0.062,0 0.033,-0.006 0.03,-0.0234 0.062,-0.0312 0.032,-0.008 -7e-4,0.009 0.031,0 0.032,-0.009 0.031,-0.0202 0.063,-0.0312 0.031,-0.011 0.032,0.0126 0.062,0 0.031,-0.0126 0,-0.0172 0.031,-0.0312 0.03,-0.0141 0.033,-0.0157 0.062,-0.0312 0.03,-0.0156 0,-0.0142 0.031,-0.0312 0.029,-0.017 0.035,-0.0128 0.063,-0.0312 0.028,-0.0184 0,-0.0115 0.031,-0.0312 0.027,-0.0198 0.01,-0.0101 0.031,-0.0312 0.026,-0.0211 0.038,-0.009 0.063,-0.0312 0.025,-0.0224 0.01,-0.008 0.031,-0.0312 0.024,-0.0236 0.01,-0.007 0.031,-0.0312 0.022,-0.0247 0.01,-0.0367 0.031,-0.0625 0.021,-0.0258 0.011,-0.004 0.031,-0.0312 0.02,-0.0268 0.013,-0.003 0.031,-0.0312 0.018,-0.0278 0.014,-0.0338 0.031,-0.0625 0.017,-0.0287 0.016,-0.002 0.031,-0.0312 0.016,-0.0295 0.017,-0.0323 0.031,-0.0625 0.014,-0.0302 0.019,-3.7e-4 0.031,-0.0312 0.013,-0.0309 -0.011,-0.031 0,-0.0625 0.011,-0.0315 0.022,-0.0305 0.031,-0.0625 0.01,-0.032 -0.01,0.001 0,-0.0312 0.01,-0.0324 0.025,-0.0297 0.031,-0.0625 0.01,-0.0328 -0,-0.0295 0,-0.0625 0,-0.033 -0,0.002 0,-0.0312 0,-0.0332 -0,-0.0292 0,-0.0625 0,-0.0333 3e-4,-0.0292 0,-0.0625 l 0,-2.875 c 0,-0.21152 0.087,-0.43107 0.25,-0.59375 0.1629,-0.16268 0.3827,-0.25 0.5937,-0.25 l 4.7813,0 c 0.211,0 0.4396,0.0749 0.5937,0.25 0.1542,0.17511 0.2189,0.40308 0.2188,0.59375 l 0,2.875 c -3e-4,0.0333 -0,0.0292 0,0.0625 0,0.0333 -0,0.0293 0,0.0625 0,0.0332 -0,-0.002 0,0.0312 0,0.033 -0.01,0.0297 0,0.0625 0.01,0.0328 0.023,0.0301 0.031,0.0625 0.01,0.0324 -0.01,-7.3e-4 0,0.0312 0.01,0.032 0.02,0.031 0.031,0.0625 0.011,0.0315 -0.013,0.0316 0,0.0625 0.013,0.0309 0.017,0.001 0.031,0.0312 0.014,0.0302 0.016,0.033 0.031,0.0625 0.016,0.0295 0.014,0.003 0.031,0.0312 0.017,0.0287 0.013,0.0347 0.031,0.0625 0.018,0.0278 0.011,0.004 0.031,0.0312 0.02,0.0268 0.01,0.005 0.031,0.0312 0.021,0.0258 0.01,0.0378 0.031,0.0625 0.022,0.0247 0.01,0.008 0.031,0.0312 0.024,0.0236 0.01,0.009 0.031,0.0312 0.025,0.0224 0.037,0.0101 0.062,0.0312 0.026,0.0211 0,0.0115 0.031,0.0312 0.027,0.0198 0,0.0128 0.031,0.0312 0.028,0.0184 0.034,0.0142 0.062,0.0312 0.029,0.017 0,0.0157 0.031,0.0312 0.03,0.0156 0.032,0.0172 0.062,0.0312 0.03,0.0141 4e-4,0.0187 0.031,0.0312 0.031,0.0126 0.031,-0.011 0.063,0 0.031,0.011 0.03,0.0218 0.062,0.0312 0.032,0.009 -0,-0.008 0.031,0 0.032,0.008 0.03,0.025 0.062,0.0312 0.033,0.006 0.03,-0.005 0.062,0 0.033,0.005 -0,-0.003 0.031,0 0.033,0.003 0.029,-0.001 0.062,0 0.033,0.001 0.029,4.1e-4 0.063,0 l 5.75,0 c 0.033,4e-4 0.029,0.001 0.062,0 0.033,-0.001 0.029,0.003 0.063,0 0.033,-0.003 -0,0.005 0.031,0 0.033,-0.005 0.03,0.006 0.062,0 0.033,-0.006 0.03,-0.0234 0.062,-0.0312 0.032,-0.008 -7e-4,0.009 0.031,0 0.032,-0.009 0.031,-0.0202 0.063,-0.0312 0.031,-0.011 0.032,0.0126 0.062,0 0.031,-0.0126 0,-0.0172 0.031,-0.0312 0.03,-0.0141 0.033,-0.0157 0.062,-0.0312 0.03,-0.0156 0,-0.0142 0.031,-0.0312 0.029,-0.017 0.035,-0.0128 0.063,-0.0312 0.028,-0.0184 0,-0.0115 0.031,-0.0312 0.027,-0.0198 0.01,-0.0101 0.031,-0.0312 0.026,-0.0211 0.038,-0.009 0.063,-0.0312 0.025,-0.0224 0.01,-0.008 0.031,-0.0312 0.024,-0.0236 0.01,-0.007 0.031,-0.0312 0.022,-0.0247 0.01,-0.0367 0.031,-0.0625 0.021,-0.0258 0.011,-0.004 0.031,-0.0312 0.02,-0.0268 0.013,-0.003 0.031,-0.0312 0.018,-0.0278 0.014,-0.0338 0.031,-0.0625 0.017,-0.0287 0.016,-0.002 0.031,-0.0312 0.016,-0.0295 0.017,-0.0323 0.031,-0.0625 0.014,-0.0302 0.019,-3.7e-4 0.031,-0.0312 0.013,-0.0309 -0.011,-0.031 0,-0.0625 0.011,-0.0315 0.022,-0.0305 0.031,-0.0625 0.01,-0.032 -0.01,0.001 0,-0.0312 0.01,-0.0324 0.025,-0.0297 0.031,-0.0625 0.01,-0.0328 -0,-0.0295 0,-0.0625 0,-0.033 -0,0.002 0,-0.0312 0,-0.0332 -0,-0.0292 0,-0.0625 0,-0.0333 3e-4,-0.0292 0,-0.0625 L 1824.5,389 c 3e-4,-0.0329 0,-0.0296 0,-0.0625 -0,-0.0329 0,-0.0297 0,-0.0625 -0,-0.0328 0,0.001 0,-0.0312 -0,-0.0326 0.01,-0.0301 0,-0.0625 -0.01,-0.0324 -0.024,-0.0305 -0.031,-0.0625 -0.01,-0.032 0.01,3.5e-4 0,-0.0312 -0.01,-0.0316 -0.021,-0.0314 -0.031,-0.0625 -0.011,-0.0311 0.012,-7e-4 0,-0.0312 -0.012,-0.0306 -0.017,-0.0326 -0.031,-0.0625 -0.014,-0.0299 -0.016,-0.0333 -0.031,-0.0625 -0.015,-0.0292 -0.015,-0.003 -0.031,-0.0312 -0.017,-0.0284 -0.013,-0.004 -0.031,-0.0312 -0.018,-0.0276 0.019,-0.0359 0,-0.0625 -0.019,-0.0266 -0.042,-0.006 -0.062,-0.0312 -0.021,-0.0257 -0.01,-0.0379 -0.031,-0.0625 -0.022,-0.0246 -0.01,-0.008 -0.031,-0.0312 -0.023,-0.0235 -0.01,-0.009 -0.031,-0.0312 -0.024,-0.0224 -0.01,-0.0101 -0.031,-0.0312 -0.025,-0.0211 -0.036,-0.0114 -0.062,-0.0312 -0.026,-0.0199 -0,-0.0127 -0.031,-0.0312 -0.027,-0.0186 -0,-0.0141 -0.031,-0.0312 -0.028,-0.0172 -0.034,-0.0155 -0.062,-0.0312 -0.029,-0.0158 -0,-0.0169 -0.031,-0.0312 -0.03,-0.0143 -0.032,0.0129 -0.062,0 -0.03,-0.0129 -4e-4,-0.0199 -0.031,-0.0312 -0.031,-0.0114 -0.031,-0.0214 -0.062,-0.0312 -0.031,-0.01 -0.031,0.008 -0.062,0 -0.032,-0.008 10e-4,0.007 -0.031,0 -0.032,-0.007 -0.03,-0.0261 -0.062,-0.0312 -0.033,-0.005 -0.03,0.003 -0.063,0 -0.033,-0.003 0,0.002 -0.031,0 -0.033,-0.002 -0.03,2.7e-4 -0.062,0 l -4.875,0 c -0.033,-4e-4 -0.029,-0.001 -0.062,0 -0.033,0.001 -0.029,-0.003 -0.062,0 -0.033,0.003 0,-0.005 -0.031,0 -0.033,0.005 -0.03,-0.006 -0.062,0 -0.033,0.006 -0.03,0.0234 -0.063,0.0312 -0.032,0.008 8e-4,-0.009 -0.031,0 -0.032,0.009 -0.031,0.0202 -0.062,0.0312 -0.032,0.011 -0.032,-0.0126 -0.062,0 -0.031,0.0126 -10e-4,0.0172 -0.031,0.0312 -0.03,0.0141 -0.033,0.0157 -0.063,0.0312 -0.029,0.0156 -0,0.0142 -0.031,0.0312 -0.029,0.017 -0.035,0.0128 -0.062,0.0312 -0.028,0.0184 -0,0.0115 -0.031,0.0312 -0.027,0.0198 -0.01,0.0101 -0.031,0.0312 -0.026,0.0211 -0.038,0.009 -0.062,0.0312 -0.025,0.0224 -0.01,0.008 -0.031,0.0312 -0.023,0.0236 -0.01,0.007 -0.031,0.0312 -0.022,0.0247 -0.01,0.0367 -0.031,0.0625 -0.021,0.0258 -0.012,0.004 -0.031,0.0312 -0.02,0.0268 -0.013,0.003 -0.031,0.0312 -0.018,0.0278 -0.014,0.0338 -0.031,0.0625 -0.017,0.0287 -0.016,0.002 -0.031,0.0312 -0.016,0.0295 -0.017,0.0323 -0.031,0.0625 -0.014,0.0302 -0.019,3.7e-4 -0.031,0.0312 -0.013,0.0309 0.011,0.031 0,0.0625 -0.011,0.0315 -0.022,0.0305 -0.031,0.0625 -0.01,0.032 0.01,-0.001 0,0.0312 -0.01,0.0324 -0.025,0.0297 -0.031,0.0625 -0.01,0.0328 0,0.0295 0,0.0625 -0,0.033 0,-0.002 0,0.0312 -0,0.0332 0,0.0292 0,0.0625 -0,0.0333 -4e-4,0.0292 0,0.0625 l 0,2.8125 c 0,0.21145 -0.087,0.43102 -0.25,0.59375 -0.163,0.16273 -0.3828,0.25 -0.5938,0.25 l -5.7188,0 c -0.2248,0 -0.4162,-0.0852 -0.5624,-0.1875 -0.073,-0.0512 -0.1291,-0.10669 -0.1876,-0.1875 -0.058,-0.0808 -0.1408,-0.17836 -0.125,-0.375 a 0.46408522,0.46408522 0 0 1 0.031,-0.0937 c 0.01,-0.0268 -0.01,-0.0354 0,-0.0625 0.01,-0.0271 -0.01,-0.004 0,-0.0312 l 0,-2.75 c 3e-4,-0.0333 0,-0.0292 0,-0.0625 -0,-0.0333 0,-0.0293 0,-0.0625 -0,-0.0332 0,0.002 0,-0.0312 -0,-0.033 0.01,-0.0297 0,-0.0625 -0.01,-0.0328 -0.023,-0.0301 -0.031,-0.0625 -0.01,-0.0324 0.01,7.2e-4 0,-0.0312 -0.01,-0.032 -0.02,-0.031 -0.031,-0.0625 -0.011,-0.0315 0.013,-0.0316 0,-0.0625 -0.013,-0.0309 -0.017,-0.001 -0.031,-0.0312 -0.014,-0.0302 -0.016,-0.033 -0.031,-0.0625 -0.016,-0.0295 -0.014,-0.003 -0.031,-0.0312 -0.017,-0.0287 -0.013,-0.0347 -0.031,-0.0625 -0.018,-0.0278 -0.011,-0.004 -0.031,-0.0312 -0.02,-0.0268 -0.01,-0.005 -0.031,-0.0312 -0.021,-0.0258 -0.01,-0.0378 -0.031,-0.0625 -0.022,-0.0247 -0.01,-0.008 -0.031,-0.0312 -0.024,-0.0236 -0.01,-0.009 -0.031,-0.0312 -0.025,-0.0224 -0.037,-0.0101 -0.063,-0.0312 -0.026,-0.0211 -0,-0.0115 -0.031,-0.0312 -0.027,-0.0198 -0,-0.0128 -0.031,-0.0312 -0.028,-0.0184 -0.034,-0.0142 -0.063,-0.0312 -0.029,-0.017 -0,-0.0157 -0.031,-0.0312 -0.03,-0.0156 -0.032,-0.0172 -0.062,-0.0312 -0.03,-0.0141 -4e-4,-0.0187 -0.031,-0.0312 -0.031,-0.0126 -0.031,0.011 -0.062,0 -0.032,-0.011 -0.031,-0.0218 -0.063,-0.0312 -0.032,-0.009 0,0.008 -0.031,0 -0.032,-0.008 -0.03,-0.025 -0.062,-0.0312 -0.033,-0.006 -0.03,0.005 -0.062,0 -0.033,-0.005 0,0.003 -0.031,0 -0.033,-0.003 -0.029,0.001 -0.063,0 -0.033,-0.001 -0.029,-4e-4 -0.062,0 l -43.0626,-0.0312 c -0.033,-4e-4 -0.029,-0.001 -0.062,0 -0.033,0.001 -0.029,-0.003 -0.063,0 -0.033,0.003 0,-0.005 -0.031,0 -0.033,0.005 -0.03,-0.006 -0.062,0 -0.033,0.006 -0.03,0.0234 -0.062,0.0312 -0.032,0.008 7e-4,-0.009 -0.031,0 -0.032,0.009 -0.031,0.0202 -0.063,0.0312 -0.031,0.011 -0.032,-0.0126 -0.062,0 -0.031,0.0126 -0,0.0172 -0.031,0.0312 -0.03,0.0141 -0.033,0.0157 -0.062,0.0312 -0.03,0.0156 -0,0.0142 -0.031,0.0312 -0.029,0.017 -0.035,0.0128 -0.063,0.0312 -0.028,0.0184 -0,0.0115 -0.031,0.0312 -0.027,0.0198 -0.01,0.0101 -0.031,0.0312 -0.026,0.0211 -0.038,0.009 -0.063,0.0312 -0.025,0.0224 -0.01,0.008 -0.031,0.0312 -0.024,0.0236 -0.01,0.007 -0.031,0.0312 -0.022,0.0247 -0.01,0.0367 -0.031,0.0625 -0.021,0.0258 -0.011,0.004 -0.031,0.0312 -0.02,0.0268 -0.013,0.003 -0.031,0.0312 -0.018,0.0278 -0.014,0.0338 -0.031,0.0625 -0.017,0.0287 -0.016,0.002 -0.031,0.0312 -0.016,0.0295 -0.017,0.0323 -0.031,0.0625 -0.014,0.0302 -0.019,3.7e-4 -0.031,0.0312 -0.013,0.0309 0.011,0.031 0,0.0625 -0.011,0.0315 -0.022,0.0305 -0.031,0.0625 -0.01,0.032 0.01,-0.001 0,0.0312 -0.01,0.0324 -0.025,0.0297 -0.031,0.0625 -0.01,0.0328 0,0.0295 0,0.0625 -0,0.033 0,-0.002 0,0.0312 -0,0.0332 0,0.0292 0,0.0625 -0,0.0333 -3e-4,0.0292 0,0.0625 l 0,2.875 c 0,0.19069 -0.065,0.41873 -0.2187,0.59375 -0.1542,0.17502 -0.3828,0.25 -0.5938,0.25 l -5.75,0 c -0.211,0 -0.4397,-0.075 -0.5938,-0.25 -0.154,-0.17502 -0.2186,-0.40316 -0.2187,-0.59375 l 0,-2.875 c 3e-4,-0.0333 0,-0.0292 0,-0.0625 -0,-0.0333 0,-0.0293 0,-0.0625 -0,-0.0332 0,0.002 0,-0.0312 -0,-0.033 0.01,-0.0297 0,-0.0625 -0.01,-0.0328 -0.023,-0.0301 -0.031,-0.0625 -0.01,-0.0324 0.01,7.2e-4 0,-0.0312 -0.01,-0.032 -0.02,-0.031 -0.031,-0.0625 -0.011,-0.0315 0.013,-0.0316 0,-0.0625 -0.013,-0.0309 -0.017,-0.001 -0.031,-0.0312 -0.014,-0.0302 -0.016,-0.033 -0.031,-0.0625 -0.016,-0.0295 -0.014,-0.003 -0.031,-0.0312 -0.017,-0.0287 -0.013,-0.0347 -0.031,-0.0625 -0.018,-0.0278 -0.011,-0.004 -0.031,-0.0312 -0.02,-0.0268 -0.01,-0.005 -0.031,-0.0312 -0.021,-0.0258 -0.01,-0.0378 -0.031,-0.0625 -0.022,-0.0247 -0.01,-0.008 -0.031,-0.0312 -0.024,-0.0236 -0.01,-0.009 -0.031,-0.0312 -0.025,-0.0224 -0.037,-0.0101 -0.063,-0.0312 -0.026,-0.0211 -0,-0.0115 -0.031,-0.0312 -0.027,-0.0198 -0,-0.0128 -0.031,-0.0312 -0.028,-0.0184 -0.034,-0.0142 -0.063,-0.0312 -0.029,-0.017 -0,-0.0157 -0.031,-0.0312 -0.03,-0.0156 -0.032,-0.0172 -0.062,-0.0312 -0.03,-0.0141 -4e-4,-0.0187 -0.031,-0.0312 -0.031,-0.0126 -0.031,0.011 -0.062,0 -0.032,-0.011 -0.031,-0.0218 -0.063,-0.0312 -0.032,-0.009 0,0.008 -0.031,0 -0.032,-0.008 -0.03,-0.025 -0.062,-0.0312 -0.033,-0.006 -0.03,0.005 -0.062,0 -0.033,-0.005 0,0.003 -0.031,0 -0.033,-0.003 -0.029,0.001 -0.063,0 -0.033,-0.001 -0.029,-4e-4 -0.062,0 l -4.7813,0 c -0.033,-4e-4 -0.029,-0.001 -0.062,0 -0.033,0.001 -0.029,-0.003 -0.062,0 -0.033,0.003 0,-0.005 -0.031,0 -0.033,0.005 -0.03,-0.006 -0.062,0 z m 21.2812,7 29.6562,0 c 0.1902,0 0.4252,0.0504 0.5938,0.21875 0.1686,0.16834 0.2187,0.40306 0.2188,0.59375 l 0,22.0625 c 0,0.19069 -0.065,0.41873 -0.2188,0.59375 -0.1541,0.17502 -0.3827,0.25 -0.5938,0.25 l -29.6562,0 c -0.211,0 -0.4308,-0.0873 -0.5938,-0.25 -0.1629,-0.16272 -0.25,-0.3823 -0.25,-0.59375 l 0,-22.0625 c 0,-0.21145 0.075,-0.43985 0.25,-0.59375 0.1753,-0.1539 0.4036,-0.21875 0.5938,-0.21875 z m -14.375,4.78125 5.75,0 c 0.211,0 0.4396,0.075 0.5938,0.25 0.1541,0.17502 0.2187,0.40306 0.2187,0.59375 l 0,5.75 c 0,0.19069 -0.05,0.42541 -0.2187,0.59375 -0.1686,0.16834 -0.4036,0.21875 -0.5938,0.21875 l -5.75,0 c -0.1902,0 -0.4252,-0.0504 -0.5938,-0.21875 -0.1685,-0.16834 -0.2186,-0.40316 -0.2187,-0.59375 l 0,-5.75 c 0,-0.19069 0.065,-0.41873 0.2187,-0.59375 0.1542,-0.17502 0.3828,-0.25 0.5938,-0.25 z m 52.6562,0 5.7188,0 c 0.211,0 0.4308,0.0873 0.5938,0.25 0.1629,0.16273 0.25,0.3823 0.25,0.59375 l 0,5.75 c 0,0.21145 -0.075,0.43985 -0.25,0.59375 -0.1753,0.1539 -0.4036,0.21875 -0.5938,0.21875 l -5.7188,0 c -0.1901,0 -0.4185,-0.0649 -0.5937,-0.21875 -0.1752,-0.15386 -0.2499,-0.38233 -0.25,-0.59375 l 0,-5.75 c 0,-0.21152 0.087,-0.43106 0.25,-0.59375 0.1629,-0.16269 0.3828,-0.25 0.5937,-0.25 z m -52.6562,14.40625 5.75,0 c 0.1902,0 0.4252,0.0504 0.5938,0.21875 0.1685,0.16834 0.2187,0.40306 0.2187,0.59375 l 0,5.75 c 0,0.19069 -0.065,0.41873 -0.2187,0.59375 -0.1542,0.17502 -0.3828,0.25 -0.5938,0.25 l -5.75,0 c -0.211,0 -0.4397,-0.075 -0.5938,-0.25 -0.154,-0.17502 -0.2186,-0.40317 -0.2187,-0.59375 l 0,-5.75 c 0,-0.19069 0.05,-0.42541 0.2187,-0.59375 0.1686,-0.16834 0.4036,-0.21875 0.5938,-0.21875 z m 52.6562,0 5.7188,0 c 0.1902,0 0.4185,0.0648 0.5938,0.21875 0.1752,0.1539 0.25,0.3823 0.25,0.59375 l 0,5.75 c 0,0.21145 -0.087,0.43103 -0.25,0.59375 -0.163,0.16272 -0.3828,0.25 -0.5938,0.25 l -5.7188,0 c -0.211,0 -0.4308,-0.0873 -0.5937,-0.25 -0.1629,-0.16268 -0.2499,-0.38234 -0.25,-0.59375 l 0,-5.75 c 0,-0.21152 0.075,-0.4399 0.25,-0.59375 0.1752,-0.15385 0.4036,-0.21875 0.5937,-0.21875 z m -52.6562,14.375 5.75,0 c 0.211,0 0.4396,0.075 0.5938,0.25 0.1541,0.17502 0.2187,0.40306 0.2187,0.59375 l 0,5.75 c 0,0.19069 -0.05,0.42541 -0.2187,0.59375 -0.1686,0.16834 -0.4036,0.21875 -0.5938,0.21875 l -5.75,0 c -0.1902,0 -0.4252,-0.0504 -0.5938,-0.21875 -0.1685,-0.16834 -0.2186,-0.40315 -0.2187,-0.59375 l 0,-5.75 c 0,-0.19069 0.065,-0.41873 0.2187,-0.59375 0.1542,-0.17502 0.3828,-0.25 0.5938,-0.25 z m 52.6562,0 5.7188,0 c 0.211,0 0.4308,0.0873 0.5938,0.25 0.1629,0.16272 0.25,0.3823 0.25,0.59375 l 0,5.75 c 0,0.21145 -0.075,0.43985 -0.25,0.59375 -0.1753,0.1539 -0.4036,0.21875 -0.5938,0.21875 l -5.7188,0 c -0.1901,0 -0.4185,-0.0649 -0.5937,-0.21875 -0.1752,-0.15386 -0.2499,-0.38233 -0.25,-0.59375 l 0,-5.75 c 0,-0.21152 0.087,-0.43107 0.25,-0.59375 0.1629,-0.16268 0.3827,-0.25 0.5937,-0.25 z m -38.2812,2.875 29.6562,0 c 0.2111,0 0.4397,0.075 0.5938,0.25 0.1541,0.17502 0.2188,0.40306 0.2188,0.59375 l 0,22.0625 c 0,0.19069 -0.05,0.42541 -0.2188,0.59375 -0.1686,0.16834 -0.4036,0.21875 -0.5938,0.21875 l -29.6562,0 c -0.1902,0 -0.4185,-0.0648 -0.5938,-0.21875 -0.1752,-0.1539 -0.25,-0.3823 -0.25,-0.59375 l 0,-22.0625 c 0,-0.21145 0.087,-0.43103 0.25,-0.59375 0.163,-0.16272 0.3828,-0.25 0.5938,-0.25 z m -14.375,11.53125 5.75,0 c 0.1902,0 0.4252,0.0504 0.5938,0.21875 0.1685,0.16834 0.2187,0.40306 0.2187,0.59375 l 0,5.75 c 0,0.19069 -0.065,0.41873 -0.2187,0.59375 -0.1542,0.17502 -0.3828,0.25 -0.5938,0.25 l -5.75,0 c -0.211,0 -0.4397,-0.075 -0.5938,-0.25 -0.154,-0.17502 -0.2186,-0.40317 -0.2187,-0.59375 l 0,-5.75 c 0,-0.19069 0.05,-0.42541 0.2187,-0.59375 0.1686,-0.16834 0.4036,-0.21875 0.5938,-0.21875 z m 52.6562,0 5.7188,0 c 0.1902,0 0.4185,0.0648 0.5938,0.21875 0.1752,0.1539 0.25,0.3823 0.25,0.59375 l 0,5.75 c 0,0.21145 -0.087,0.43103 -0.25,0.59375 -0.163,0.16272 -0.3828,0.25 -0.5938,0.25 l -5.7188,0 c -0.211,0 -0.4308,-0.0873 -0.5937,-0.25 -0.1629,-0.16268 -0.2499,-0.38234 -0.25,-0.59375 l 0,-5.75 c 0,-0.21152 0.075,-0.4399 0.25,-0.59375 0.1752,-0.15385 0.4036,-0.21875 0.5937,-0.21875 z"
       transform="matrix(1.2156385,0,0,1.2125668,-2107.9348,472.07813)" />
  </g>
</svg>
