<?xml version="1.0" encoding="UTF-8" standalone="no"?>
<!-- Created with Inkscape (http://www.inkscape.org/) -->

<svg
   xmlns:dc="http://purl.org/dc/elements/1.1/"
   xmlns:cc="http://creativecommons.org/ns#"
   xmlns:rdf="http://www.w3.org/1999/02/22-rdf-syntax-ns#"
   xmlns:svg="http://www.w3.org/2000/svg"
   xmlns="http://www.w3.org/2000/svg"
   xmlns:sodipodi="http://sodipodi.sourceforge.net/DTD/sodipodi-0.dtd"
   xmlns:inkscape="http://www.inkscape.org/namespaces/inkscape"
   width="130"
   height="130"
   id="svg4682"
   version="1.1"
   inkscape:version="0.48.4 r9939"
   sodipodi:docname="ic_menu_equalizer.svg"
   inkscape:export-filename="/home/corbax/Dev/android/Icons/Test 1/ic_play_normal.png"
   inkscape:export-xdpi="90"
   inkscape:export-ydpi="90">
  <defs
     id="defs4684" />
  <sodipodi:namedview
     id="base"
     pagecolor="#ffffff"
     bordercolor="#666666"
     borderopacity="1.0"
     inkscape:pageopacity="0.0"
     inkscape:pageshadow="2"
     inkscape:zoom="3.959798"
     inkscape:cx="-56.556552"
     inkscape:cy="74.339893"
     inkscape:document-units="px"
     inkscape:current-layer="layer1"
     showgrid="false"
     inkscape:window-width="1680"
     inkscape:window-height="1026"
     inkscape:window-x="1920"
     inkscape:window-y="54"
     inkscape:window-maximized="1" />
  <metadata
     id="metadata4687">
    <rdf:RDF>
      <cc:Work
         rdf:about="">
        <dc:format>image/svg+xml</dc:format>
        <dc:type
           rdf:resource="http://purl.org/dc/dcmitype/StillImage" />
        <dc:title />
      </cc:Work>
    </rdf:RDF>
  </metadata>
  <g
     inkscape:label="Layer 1"
     inkscape:groupmode="layer"
     id="layer1"
     transform="translate(0,-922.36218)">
    <path
       inkscape:connector-curvature="0"
       id="path4499"
       d="m 28.399975,942.36218 c -1.329601,0 -2.400002,1.20335 -2.400002,2.7375 l 0,57.26252 -3.600002,0 c -1.329601,0 -2.400002,1.0704 -2.400002,2.4 l 0,7.2 c 0,1.3296 1.070401,2.4 2.400002,2.4 l 3.600002,0 0,15.225 c 0,1.5342 1.070401,2.775 2.400002,2.775 l 7.200004,0 c 1.329601,0 2.400002,-1.2408 2.400002,-2.775 l 0,-15.225 3.600002,0 c 1.329601,0 2.400002,-1.0704 2.400002,-2.4 l 0,-7.2 c 0,-1.3296 -1.070401,-2.4 -2.400002,-2.4 l -3.600002,0 0,-57.26252 c 0,-1.53415 -1.070401,-2.7375 -2.400002,-2.7375 l -7.200004,0 z m 33.000022,0 c -1.329601,0 -2.400002,1.20342 -2.400002,2.7375 l 0,15.26251 -3.600002,0 c -1.329601,0 -2.400002,1.0704 -2.400002,2.4 l 0,7.20001 c 0,1.3296 1.070401,2.4 2.400002,2.4 l 3.600002,0 0,57.225 c 0,1.5342 1.070401,2.775 2.400002,2.775 l 7.200004,0 c 1.329601,0 2.400002,-1.2408 2.400002,-2.775 l 0,-57.225 3.600002,0 c 1.329601,0 2.400002,-1.0704 2.400002,-2.4 l 0,-7.20001 c 0,-1.3296 -1.070401,-2.4 -2.400002,-2.4 l -3.600002,0 0,-15.26251 c 0,-1.53408 -1.070401,-2.7375 -2.400002,-2.7375 l -7.200004,0 z m 33.000022,0 c -1.3296,0 -2.400002,1.20342 -2.400002,2.7375 l 0,39.26253 -3.600002,0 c -1.329601,0 -2.400002,1.0704 -2.400002,2.4 l 0,7.2 c 0,1.32961 1.070401,2.40001 2.400002,2.40001 l 3.600002,0 0,33.22498 c 0,1.5342 1.070402,2.775 2.400002,2.775 l 7.200001,0 c 1.3296,0 2.40001,-1.2408 2.40001,-2.775 l 0,-33.22498 3.6,0 c 1.3296,0 2.4,-1.0704 2.4,-2.40001 l 0,-7.2 c 0,-1.3296 -1.0704,-2.4 -2.4,-2.4 l -3.6,0 0,-39.26253 c 0,-1.53408 -1.07041,-2.7375 -2.40001,-2.7375 l -7.200001,0 z"
       style="fill:#fafafa;fill-opacity:1;fill-rule:nonzero;stroke:none" />
  </g>
</svg>
