<?xml version="1.0" encoding="UTF-8" standalone="no"?>
<!-- Created with Inkscape (http://www.inkscape.org/) -->

<svg
   xmlns:dc="http://purl.org/dc/elements/1.1/"
   xmlns:cc="http://creativecommons.org/ns#"
   xmlns:rdf="http://www.w3.org/1999/02/22-rdf-syntax-ns#"
   xmlns:svg="http://www.w3.org/2000/svg"
   xmlns="http://www.w3.org/2000/svg"
   xmlns:sodipodi="http://sodipodi.sourceforge.net/DTD/sodipodi-0.dtd"
   xmlns:inkscape="http://www.inkscape.org/namespaces/inkscape"
   width="130"
   height="130"
   id="svg4682"
   version="1.1"
   inkscape:version="0.48.4 r9939"
   sodipodi:docname="ic_menu_audio_w.svg"
   inkscape:export-filename="/home/corbax/Dev/android/Icons/Test 1/ic_play_normal.png"
   inkscape:export-xdpi="90"
   inkscape:export-ydpi="90">
  <defs
     id="defs4684" />
  <sodipodi:namedview
     id="base"
     pagecolor="#ffffff"
     bordercolor="#666666"
     borderopacity="1.0"
     inkscape:pageopacity="0.0"
     inkscape:pageshadow="2"
     inkscape:zoom="3.959798"
     inkscape:cx="-23.979132"
     inkscape:cy="74.339893"
     inkscape:document-units="px"
     inkscape:current-layer="layer1"
     showgrid="false"
     inkscape:window-width="1680"
     inkscape:window-height="1026"
     inkscape:window-x="1920"
     inkscape:window-y="54"
     inkscape:window-maximized="1" />
  <metadata
     id="metadata4687">
    <rdf:RDF>
      <cc:Work
         rdf:about="">
        <dc:format>image/svg+xml</dc:format>
        <dc:type
           rdf:resource="http://purl.org/dc/dcmitype/StillImage" />
        <dc:title />
      </cc:Work>
    </rdf:RDF>
  </metadata>
  <g
     inkscape:label="Layer 1"
     inkscape:groupmode="layer"
     id="layer1"
     transform="translate(0,-922.36218)">
    <path
       transform="matrix(1.1849171,0,0,1.1849171,-1896.0245,647.8088)"
       d="m 1683.9062,248.59375 a 0.96879686,0.96879686 0 0 0 -0.094,0.0312 l -8.1563,1.8125 -32.375,7.21875 -0.2187,0.0312 0,0.0312 c -0.6888,0.05 -1.3243,0.25197 -2,0.59375 -0.7494,0.37904 -1.4994,0.87443 -2.0625,1.4375 -1.1342,1.1341 -1.1874,2.50045 -1.1875,3.40625 l 0,40.59375 c -1.6991,0.10665 -3.4491,0.4539 -5.1563,1.25 -6.0416,2.81722 -9.2937,9.16131 -6.9062,14.28125 2.3862,5.11723 9.3051,6.69086 15.3438,3.875 4.8855,-2.2782 7.9449,-6.80018 7.6874,-11.21875 -0,-0.0207 0,-0.0418 0,-0.0625 l 0,-39.90625 25.2188,-5.625 0,28.34375 c -1.7077,0.1137 -3.4519,0.48649 -5.1562,1.28125 -6.0402,2.81656 -9.2604,9.13494 -6.875,14.25 2.3862,5.1172 9.305,6.69085 15.3437,3.875 4.8856,-2.2782 7.9451,-6.80014 7.6875,-11.21875 -0,-0.0207 0,-0.0418 0,-0.0625 l 0,-39.65625 0,-4.53125 0,-4.53125 0,-4.53125 a 0.96879686,0.96879686 0 0 0 -1.0938,-0.96875 z"
       id="path3937"
       style="fill:#fafafa;fill-opacity:1;stroke:none"
       inkscape:original="M 1684.0312 249.5625 L 1675.875 251.375 L 1643.2812 258.625 C 1642.376 258.625 1640.5928 259.53226 1639.6875 260.4375 C 1638.7822 261.34274 1638.7813 262.25102 1638.7812 263.15625 L 1638.7812 304.625 C 1636.9261 304.619 1634.9555 304.99224 1633.0625 305.875 C 1627.4023 308.51437 1624.5154 314.35109 1626.625 318.875 C 1628.7345 323.39889 1635.0273 324.92062 1640.6875 322.28125 C 1645.2863 320.13677 1648.0698 315.87697 1647.8125 311.9375 L 1647.8125 271.1875 L 1674.9688 265.15625 L 1674.9688 295.5625 C 1673.1135 295.5575 1671.1431 295.961 1669.25 296.84375 C 1663.5898 299.48312 1660.7341 305.2886 1662.8438 309.8125 C 1664.9534 314.3364 1671.246 315.85812 1676.9062 313.21875 C 1681.505 311.07427 1684.2886 306.81448 1684.0312 302.875 L 1684.0312 263.15625 L 1684.0312 258.625 L 1684.0312 254.09375 L 1684.0312 249.5625 z "
       inkscape:radius="0.96869999"
       sodipodi:type="inkscape:offset" />
  </g>
</svg>
