<?xml version="1.0" encoding="UTF-8" standalone="no"?>
<!-- Created with Inkscape (http://www.inkscape.org/) -->

<svg
   xmlns:dc="http://purl.org/dc/elements/1.1/"
   xmlns:cc="http://creativecommons.org/ns#"
   xmlns:rdf="http://www.w3.org/1999/02/22-rdf-syntax-ns#"
   xmlns:svg="http://www.w3.org/2000/svg"
   xmlns="http://www.w3.org/2000/svg"
   xmlns:sodipodi="http://sodipodi.sourceforge.net/DTD/sodipodi-0.dtd"
   xmlns:inkscape="http://www.inkscape.org/namespaces/inkscape"
   width="24"
   height="24"
   id="svg4682"
   version="1.1"
   inkscape:version="0.48.5 r10040"
   sodipodi:docname="ic_menu_network_w.svg"
   inkscape:export-filename="/home/corbax/Dev/android/Icons/Test 1/ic_play_normal.png"
   inkscape:export-xdpi="90"
   inkscape:export-ydpi="90">
  <defs
     id="defs4684" />
  <sodipodi:namedview
     id="base"
     pagecolor="#ffffff"
     bordercolor="#666666"
     borderopacity="1.0"
     inkscape:pageopacity="0.0"
     inkscape:pageshadow="2"
     inkscape:zoom="11.2"
     inkscape:cx="-6.3565242"
     inkscape:cy="10.19611"
     inkscape:document-units="px"
     inkscape:current-layer="layer1"
     showgrid="false"
     inkscape:window-width="960"
     inkscape:window-height="1028"
     inkscape:window-x="2880"
     inkscape:window-y="24"
     inkscape:window-maximized="0" />
  <metadata
     id="metadata4687">
    <rdf:RDF>
      <cc:Work
         rdf:about="">
        <dc:format>image/svg+xml</dc:format>
        <dc:type
           rdf:resource="http://purl.org/dc/dcmitype/StillImage" />
        <dc:title></dc:title>
      </cc:Work>
    </rdf:RDF>
  </metadata>
  <g
     inkscape:label="Layer 1"
     inkscape:groupmode="layer"
     id="layer1"
     transform="translate(0,-1028.3622)">
    <path
       style="color:#000000;fill:#fafafa;fill-opacity:1;fill-rule:nonzero;stroke:none;stroke-width:1;marker:none;visibility:visible;display:inline;overflow:visible;enable-background:accumulate"
       d="m 5.0000002,1033.3622 c -1.108,0 -1.81785,0.9071 -2,2 l 0,1 0,9 c 0,1.108 0.892,2 2,2 l 6.9999998,0 c 0,-4.9706 4.02944,-9 9,-9 l 0,-1 c 0,-1.108 -0.892,-2 -2,-2 l -7,0 -2,-2 -4.9999998,0 z M 21,1039.8622 c -4.14214,0 -7.5,3.3579 -7.5,7.5 l 1.5,0 c 0,-3.3137 2.68629,-6 6,-6 l 0,-1.5 z m 0,3 c -2.48528,0 -4.5,2.0147 -4.5,4.5 l 1.5,0 c 0,-1.6568 1.34315,-3 3,-3 l 0,-1.5 z m 0,3 c -0.82843,0 -1.5,0.6716 -1.5,1.5 l 1.5,0 0,-1.5 z"
       id="path7114-0"
       inkscape:connector-curvature="0" />
  </g>
</svg>
