<?xml version="1.0" encoding="UTF-8" standalone="no"?>
<!-- Created with Inkscape (http://www.inkscape.org/) -->

<svg
   xmlns:dc="http://purl.org/dc/elements/1.1/"
   xmlns:cc="http://creativecommons.org/ns#"
   xmlns:rdf="http://www.w3.org/1999/02/22-rdf-syntax-ns#"
   xmlns:svg="http://www.w3.org/2000/svg"
   xmlns="http://www.w3.org/2000/svg"
   xmlns:sodipodi="http://sodipodi.sourceforge.net/DTD/sodipodi-0.dtd"
   xmlns:inkscape="http://www.inkscape.org/namespaces/inkscape"
   width="130"
   height="130"
   id="svg4682"
   version="1.1"
   inkscape:version="0.48.4 r9939"
   sodipodi:docname="ic_menu_info_g.svg"
   inkscape:export-filename="/home/corbax/Dev/android/Icons/Test 1/ic_play_normal.png"
   inkscape:export-xdpi="90"
   inkscape:export-ydpi="90">
  <defs
     id="defs4684" />
  <sodipodi:namedview
     id="base"
     pagecolor="#ffffff"
     bordercolor="#666666"
     borderopacity="1.0"
     inkscape:pageopacity="0.0"
     inkscape:pageshadow="2"
     inkscape:zoom="3.959798"
     inkscape:cx="-30.797662"
     inkscape:cy="74.339893"
     inkscape:document-units="px"
     inkscape:current-layer="layer1"
     showgrid="false"
     inkscape:window-width="1680"
     inkscape:window-height="1026"
     inkscape:window-x="1920"
     inkscape:window-y="54"
     inkscape:window-maximized="1" />
  <metadata
     id="metadata4687">
    <rdf:RDF>
      <cc:Work
         rdf:about="">
        <dc:format>image/svg+xml</dc:format>
        <dc:type
           rdf:resource="http://purl.org/dc/dcmitype/StillImage" />
        <dc:title />
      </cc:Work>
    </rdf:RDF>
  </metadata>
  <g
     inkscape:label="Layer 1"
     inkscape:groupmode="layer"
     id="layer1"
     transform="translate(0,-922.36218)">
    <path
       style="fill:#fafafa;fill-opacity:1;stroke:#323232;stroke-width:2;stroke-miterlimit:4;stroke-opacity:1;stroke-dasharray:none"
       d="m 64.999999,948.30578 c -1.0495,0 -2.099,0.25559 -2.9297,0.7691 -1.8576,1.148 -2.9297,5.85929 -2.9297,5.85929 l -1.7578,5.27351 c 5.0781,3.1938 10.1562,3.2271 15.2343,0 l -1.7578,-5.27351 c 0,0 -1.0721,-4.7113 -2.9297,-5.85929 -0.8307,-0.51351 -1.8802,-0.7691 -2.9296,-0.7691 z m -12.3047,25.96441 -5.8594,17.5781 c 12.0167,7.74919 24.1245,7.89969 36.3281,0 l -5.8594,-17.5781 c -8.272,6.1532 -16.4754,6.1727 -24.6093,0 z m -16.9922,24.6093 -8.2031,27.53911 75.000001,0 -8.203199,-27.53911 -8.789002,0 1.1718,3.51571 c 0,0 0.9733,3.1413 0,4.1015 -10.2896,10.1516 -33.2078,9.7037 -43.3593,-0.5859 -0.8231,-0.8342 0,-3.5156 0,-3.5156 l 1.1718,-3.51571 -8.789,0 z"
       id="path4074"
       inkscape:connector-curvature="0" />
  </g>
</svg>
