<?xml version="1.0" encoding="UTF-8" standalone="no"?>
<!-- Created with Inkscape (http://www.inkscape.org/) -->

<svg
   xmlns:dc="http://purl.org/dc/elements/1.1/"
   xmlns:cc="http://creativecommons.org/ns#"
   xmlns:rdf="http://www.w3.org/1999/02/22-rdf-syntax-ns#"
   xmlns:svg="http://www.w3.org/2000/svg"
   xmlns="http://www.w3.org/2000/svg"
   xmlns:sodipodi="http://sodipodi.sourceforge.net/DTD/sodipodi-0.dtd"
   xmlns:inkscape="http://www.inkscape.org/namespaces/inkscape"
   width="130"
   height="130"
   id="svg4682"
   version="1.1"
   inkscape:version="0.48.4 r9939"
   sodipodi:docname="ic_menu_overflow.svg"
   inkscape:export-filename="/home/corbax/Dev/android/Icons/Test 1/ic_play_normal.png"
   inkscape:export-xdpi="90"
   inkscape:export-ydpi="90">
  <defs
     id="defs4684" />
  <sodipodi:namedview
     id="base"
     pagecolor="#ffffff"
     bordercolor="#666666"
     borderopacity="1.0"
     inkscape:pageopacity="0.0"
     inkscape:pageshadow="2"
     inkscape:zoom="5.6"
     inkscape:cx="70.095731"
     inkscape:cy="61.032055"
     inkscape:document-units="px"
     inkscape:current-layer="layer1"
     showgrid="false"
     inkscape:window-width="1680"
     inkscape:window-height="1026"
     inkscape:window-x="1920"
     inkscape:window-y="54"
     inkscape:window-maximized="1" />
  <metadata
     id="metadata4687">
    <rdf:RDF>
      <cc:Work
         rdf:about="">
        <dc:format>image/svg+xml</dc:format>
        <dc:type
           rdf:resource="http://purl.org/dc/dcmitype/StillImage" />
        <dc:title></dc:title>
      </cc:Work>
    </rdf:RDF>
  </metadata>
  <g
     inkscape:label="Layer 1"
     inkscape:groupmode="layer"
     id="layer1"
     transform="translate(0,-922.36218)">
    <path
       inkscape:connector-curvature="0"
       id="path4975"
       d="m 54.200003,942.36218 c -0.6648,0 -1.2,0.5352 -1.2,1.2 l 0,21.59999 c 0,0.6648 0.5352,1.2 1.2,1.2 l 21.599994,0 c 0.6648,0 1.2,-0.5352 1.2,-1.2 l 0,-21.59999 c 0,-0.6648 -0.5352,-1.2 -1.2,-1.2 l -21.599994,0 z m 0,32.99999 c -0.6648,0 -1.2,0.5352 -1.2,1.2 l 0,21.6 c 0,0.66479 0.5352,1.19999 1.2,1.19999 l 21.599994,0 c 0.6648,0 1.2,-0.5352 1.2,-1.19999 l 0,-21.6 c 0,-0.6648 -0.5352,-1.2 -1.2,-1.2 l -21.599994,0 z m 0,33.00003 c -0.6648,0 -1.2,0.5352 -1.2,1.2 l 0,21.6 c 0,0.6648 0.5352,1.2 1.2,1.2 l 21.599994,0 c 0.6648,0 1.2,-0.5352 1.2,-1.2 l 0,-21.6 c 0,-0.6648 -0.5352,-1.2 -1.2,-1.2 l -21.599994,0 z"
       style="fill:#fafafa;fill-opacity:1;fill-rule:nonzero;stroke:none" />
  </g>
</svg>
