<?xml version="1.0" encoding="UTF-8" standalone="no"?>
<!-- Created with Inkscape (http://www.inkscape.org/) -->

<svg
   xmlns:dc="http://purl.org/dc/elements/1.1/"
   xmlns:cc="http://creativecommons.org/ns#"
   xmlns:rdf="http://www.w3.org/1999/02/22-rdf-syntax-ns#"
   xmlns:svg="http://www.w3.org/2000/svg"
   xmlns="http://www.w3.org/2000/svg"
   xmlns:sodipodi="http://sodipodi.sourceforge.net/DTD/sodipodi-0.dtd"
   xmlns:inkscape="http://www.inkscape.org/namespaces/inkscape"
   width="90"
   height="90"
   id="svg4682"
   version="1.1"
   inkscape:version="0.48.4 r9939"
   sodipodi:docname="ic_menu_overflow.svg"
   inkscape:export-filename="/home/corbax/Dev/android/Icons/Test 1/ic_play_normal.png"
   inkscape:export-xdpi="90"
   inkscape:export-ydpi="90">
  <defs
     id="defs4684" />
  <sodipodi:namedview
     id="base"
     pagecolor="#ffffff"
     bordercolor="#666666"
     borderopacity="1.0"
     inkscape:pageopacity="0.0"
     inkscape:pageshadow="2"
     inkscape:zoom="7.9195959"
     inkscape:cx="26.484584"
     inkscape:cy="41.864017"
     inkscape:document-units="px"
     inkscape:current-layer="layer1"
     showgrid="false"
     inkscape:window-width="1680"
     inkscape:window-height="1026"
     inkscape:window-x="1920"
     inkscape:window-y="54"
     inkscape:window-maximized="1" />
  <metadata
     id="metadata4687">
    <rdf:RDF>
      <cc:Work
         rdf:about="">
        <dc:format>image/svg+xml</dc:format>
        <dc:type
           rdf:resource="http://purl.org/dc/dcmitype/StillImage" />
        <dc:title></dc:title>
      </cc:Work>
    </rdf:RDF>
  </metadata>
  <g
     inkscape:label="Layer 1"
     inkscape:groupmode="layer"
     id="layer1"
     transform="translate(0,-962.36218)">
    <path
       style="opacity:0.9;fill:#fafafa;fill-opacity:1;fill-rule:nonzero;stroke:none"
       d="m 37.55994,976.36218 c -0.457966,0 -0.826627,0.36868 -0.826627,0.82665 l 0,14.88006 c 0,0.45796 0.368661,0.82663 0.826627,0.82663 l 14.88,0 c 0.457966,0 0.826746,-0.36867 0.826746,-0.82663 l 0,-14.88006 c 0,-0.45797 -0.36878,-0.82665 -0.826746,-0.82665 l -14.88,0 z m 0,22.73338 c -0.457966,0 -0.826627,0.36866 -0.826627,0.82662 l 0,14.88002 c 0,0.458 0.368661,0.8268 0.826627,0.8268 l 14.88,0 c 0.457966,0 0.826746,-0.3688 0.826746,-0.8268 l 0,-14.88002 c 0,-0.45796 -0.36878,-0.82662 -0.826746,-0.82662 l -14.88,0 z m 0,22.73324 c -0.457966,0 -0.826627,0.3687 -0.826627,0.8268 l 0,14.88 c 0,0.458 0.368661,0.8266 0.826627,0.8266 l 14.88,0 c 0.457966,0 0.826746,-0.3686 0.826746,-0.8266 l 0,-14.88 c 0,-0.4581 -0.36878,-0.8268 -0.826746,-0.8268 l -14.88,0 z"
       id="path5443"
       inkscape:connector-curvature="0" />
  </g>
</svg>
