<?xml version="1.0" encoding="UTF-8" standalone="no"?>
<!-- Created with Inkscape (http://www.inkscape.org/) -->

<svg
   xmlns:dc="http://purl.org/dc/elements/1.1/"
   xmlns:cc="http://creativecommons.org/ns#"
   xmlns:rdf="http://www.w3.org/1999/02/22-rdf-syntax-ns#"
   xmlns:svg="http://www.w3.org/2000/svg"
   xmlns="http://www.w3.org/2000/svg"
   xmlns:sodipodi="http://sodipodi.sourceforge.net/DTD/sodipodi-0.dtd"
   xmlns:inkscape="http://www.inkscape.org/namespaces/inkscape"
   width="48"
   height="48"
   id="svg4682"
   version="1.1"
   inkscape:version="0.48.5 r10040"
   sodipodi:docname="ic_menu_preferences_big.svg"
   inkscape:export-filename="/home/corbax/Dev/android/Icons/Test 1/ic_play_normal.png"
   inkscape:export-xdpi="90"
   inkscape:export-ydpi="90">
  <defs
     id="defs4684" />
  <sodipodi:namedview
     id="base"
     pagecolor="#ffffff"
     bordercolor="#666666"
     borderopacity="1.0"
     inkscape:pageopacity="0.0"
     inkscape:pageshadow="2"
     inkscape:zoom="11.2"
     inkscape:cx="-5.5920844"
     inkscape:cy="27.939419"
     inkscape:document-units="px"
     inkscape:current-layer="layer1"
     showgrid="false"
     inkscape:window-width="1920"
     inkscape:window-height="1056"
     inkscape:window-x="1920"
     inkscape:window-y="24"
     inkscape:window-maximized="1" />
  <metadata
     id="metadata4687">
    <rdf:RDF>
      <cc:Work
         rdf:about="">
        <dc:format>image/svg+xml</dc:format>
        <dc:type
           rdf:resource="http://purl.org/dc/dcmitype/StillImage" />
        <dc:title />
      </cc:Work>
    </rdf:RDF>
  </metadata>
  <g
     inkscape:label="Layer 1"
     inkscape:groupmode="layer"
     id="layer1"
     transform="translate(0,-1004.3622)">
    <path
       style="color:#000000;fill:#757575;fill-opacity:1;fill-rule:nonzero;stroke:none;stroke-width:1;marker:none;visibility:visible;display:inline;overflow:visible;enable-background:accumulate"
       d="m 17.4375,1011.5545 c -0.241361,0.02 -0.448355,0.112 -0.6875,0.25 l -1.75,1 -1.75,1 c -0.95658,0.5522 -0.99766,1.6273 -0.6875,2.6876 l 0.8125,2.8124 c -1.106997,1.292 -1.982372,2.739 -2.5625,4.375 L 8,1024.367 c -1.07318,0.2615 -2,0.8955 -2,2 l 0,2 0,2 c 0,1.1047 0.92684,1.7387 2,2 l 2.8125,0.6875 c 0.580128,1.636 1.455503,3.083 2.5625,4.375 l -0.8125,2.8126 c -0.3102,1.0601 -0.26908,2.1352 0.6875,2.6874 l 1.75,1 1.75,1 c 0.95658,0.5524 1.9245,0.1107 2.6875,-0.6874 L 21.5,1042.117 c 0.81388,0.1472 1.643681,0.25 2.5,0.25 0.856316,0 1.686123,-0.1027 2.5,-0.25 l 2.0625,2.1251 c 0.763,0.7988 1.73092,1.2398 2.6875,0.6874 l 1.75,-1 1.75,-1 c 0.95658,-0.5522 0.99766,-1.6273 0.6875,-2.6874 l -0.8125,-2.8126 c 1.106997,-1.292 1.982371,-2.739 2.5625,-4.375 L 40,1032.367 c 1.07318,-0.2613 2,-0.8953 2,-2 l 0,-2 0,-2 c 0,-1.1045 -0.92682,-1.7385 -2,-2 l -2.8125,-0.6875 c -0.580129,-1.636 -1.455503,-3.083 -2.5625,-4.375 l 0.8125,-2.8124 c 0.3102,-1.0603 0.26908,-2.1354 -0.6875,-2.6876 l -1.75,-1 -1.75,-1 c -0.95658,-0.5524 -1.92452,-0.1107 -2.6875,0.6876 L 26.5,1014.617 c -0.813877,-0.1472 -1.643684,-0.25 -2.5,-0.25 -0.856319,0 -1.68612,0.1027 -2.5,0.25 l -2.0625,-2.1249 c -0.572251,-0.5991 -1.275917,-0.9966 -2,-0.9376 z M 24,1020.367 c 4.41828,0 8,3.5819 8,8 0,4.4183 -3.58172,8 -8,8 -4.41828,0 -8,-3.5817 -8,-8 0,-4.4181 3.58172,-8 8,-8 z"
       id="path8013"
       inkscape:connector-curvature="0" />
  </g>
</svg>
