<?xml version="1.0" encoding="UTF-8" standalone="no"?>
<!-- Created with Inkscape (http://www.inkscape.org/) -->

<svg
   xmlns:dc="http://purl.org/dc/elements/1.1/"
   xmlns:cc="http://creativecommons.org/ns#"
   xmlns:rdf="http://www.w3.org/1999/02/22-rdf-syntax-ns#"
   xmlns:svg="http://www.w3.org/2000/svg"
   xmlns="http://www.w3.org/2000/svg"
   xmlns:sodipodi="http://sodipodi.sourceforge.net/DTD/sodipodi-0.dtd"
   xmlns:inkscape="http://www.inkscape.org/namespaces/inkscape"
   width="130"
   height="130"
   id="svg4682"
   version="1.1"
   inkscape:version="0.48.4 r9939"
   sodipodi:docname="ic_menu_goto_g.svg"
   inkscape:export-filename="/home/corbax/Dev/android/Icons/Test 1/ic_play_normal.png"
   inkscape:export-xdpi="90"
   inkscape:export-ydpi="90">
  <defs
     id="defs4684" />
  <sodipodi:namedview
     id="base"
     pagecolor="#ffffff"
     bordercolor="#666666"
     borderopacity="1.0"
     inkscape:pageopacity="0.0"
     inkscape:pageshadow="2"
     inkscape:zoom="3.959798"
     inkscape:cx="-30.797662"
     inkscape:cy="74.339893"
     inkscape:document-units="px"
     inkscape:current-layer="layer1"
     showgrid="false"
     inkscape:window-width="1680"
     inkscape:window-height="1026"
     inkscape:window-x="1920"
     inkscape:window-y="54"
     inkscape:window-maximized="1" />
  <metadata
     id="metadata4687">
    <rdf:RDF>
      <cc:Work
         rdf:about="">
        <dc:format>image/svg+xml</dc:format>
        <dc:type
           rdf:resource="http://purl.org/dc/dcmitype/StillImage" />
        <dc:title />
      </cc:Work>
    </rdf:RDF>
  </metadata>
  <g
     inkscape:label="Layer 1"
     inkscape:groupmode="layer"
     id="layer1"
     transform="translate(0,-922.36218)">
    <path
       style="fill:#fafafa;fill-opacity:1;fill-rule:nonzero;stroke:#323232;stroke-width:2;stroke-miterlimit:4;stroke-opacity:1;stroke-dasharray:none"
       d="m 65.000098,949.86216 c -18.6417,0 -33.7813,15.16494 -33.7813,33.83764 0,11.0876 5.3273,20.9386 13.5626,27.1077 a 1.2812385,1.2833775 0 0 0 0.7812,0.2504 l 0.031,0 a 1.2812385,1.2833775 0 0 0 1.1252,-0.6573 l 2.5,-4.351 a 1.2812385,1.2833775 0 0 0 -0.3437,-1.6278 c -6.1529,-4.8072 -10.0937,-12.2925 -10.0937,-20.722 0,-14.5196 11.7233,-26.26251 26.2187,-26.26251 14.4954,0 26.218704,11.74291 26.218704,26.26251 0,8.4295 -3.9407,15.9148 -10.093704,20.722 a 1.2812385,1.2833775 0 0 0 -0.3437,1.6278 l 2.500004,4.351 a 1.2812385,1.2833775 0 0 0 1.125,0.6573 l 0.031,0 a 1.2812385,1.2833775 0 0 0 0.7812,-0.2504 c 8.2354,-6.1691 13.5626,-16.0201 13.5626,-27.1077 0,-18.6727 -15.1396,-33.83764 -33.781304,-33.83764 z m -1.0937,12.52087 c -11.2389,0.57068 -20.1875,9.92677 -20.1876,21.31677 0,6.4217 2.8581,12.1553 7.3438,16.058 a 1.2812385,1.2833775 0 0 0 1.9375,-0.313 l 2.5625,-4.4136 a 1.2812385,1.2833775 0 0 0 -0.1875,-1.5651 c -2.5204,-2.4954 -4.0937,-5.9374 -4.0937,-9.7663 0,-7.6046 6.1268,-13.7417 13.7187,-13.7417 7.5919,0 13.7187,6.1371 13.7187,13.7417 0,3.8289 -1.5733,7.2709 -4.0937,9.7663 a 1.2812385,1.2833775 0 0 0 -0.1875,1.5651 l 2.5625,4.4136 a 1.2812385,1.2833775 0 0 0 1.9375,0.313 c 4.485904,-3.9028 7.343804,-9.6363 7.343804,-16.058 0,-11.7577 -9.543204,-21.31677 -21.281304,-21.31677 -0.3031,0 -0.6674,-0.0213 -1.0937,0 z m 1.0937,12.05137 c -5.1777,0 -9.375,4.2043 -9.375,9.3906 0,4.4936 3.1343,8.2483 7.3437,9.1715 l -16.8124,29.1737 a 1.7822775,1.7852529 0 0 0 1.5312,2.692 l 34.625,0 a 1.7822775,1.7852529 0 0 0 1.531204,-2.692 L 67.031398,992.9965 c 4.1948,-0.9342 7.3437,-4.6883 7.3437,-9.1715 0,-5.1863 -4.1973,-9.3906 -9.375,-9.3906 z"
       id="path4072"
       inkscape:connector-curvature="0" />
  </g>
</svg>
