<?xml version="1.0" encoding="UTF-8" standalone="no"?><!-- Created with Inkscape (http://www.inkscape.org/) -->

<svg xmlns:dc="http://purl.org/dc/elements/1.1/" xmlns:cc="http://creativecommons.org/ns#"
        xmlns:rdf="http://www.w3.org/1999/02/22-rdf-syntax-ns#"
        xmlns:svg="http://www.w3.org/2000/svg" xmlns="http://www.w3.org/2000/svg"
        xmlns:sodipodi="http://sodipodi.sourceforge.net/DTD/sodipodi-0.dtd"
        xmlns:inkscape="http://www.inkscape.org/namespaces/inkscape" width="24" height="36"
        id="svg4682" version="1.1" inkscape:version="0.92.3 (2405546, 2018-03-11)"
        sodipodi:docname="ic_movie_placeholder.svg"
        inkscape:export-filename="/home/corbax/Dev/android/Icons/Test 1/ic_play_normal.png"
        inkscape:export-xdpi="90" inkscape:export-ydpi="90">
    <defs id="defs4684" />
    <sodipodi:namedview id="base" pagecolor="#ffffff" bordercolor="#666666" borderopacity="1.0"
            inkscape:pageopacity="0.0" inkscape:pageshadow="2" inkscape:zoom="11.2"
            inkscape:cx="-18.78212" inkscape:cy="11.983682" inkscape:document-units="px"
            inkscape:current-layer="layer1" showgrid="true" inkscape:window-width="1920"
            inkscape:window-height="1053" inkscape:window-x="0" inkscape:window-y="27"
            inkscape:window-maximized="1">
        <inkscape:grid type="xygrid" id="grid2983" />
    </sodipodi:namedview>
    <metadata id="metadata4687">
        <rdf:RDF>
            <cc:Work rdf:about="">
                <dc:format>image/svg+xml</dc:format>
                <dc:type rdf:resource="http://purl.org/dc/dcmitype/StillImage" />
                <dc:title></dc:title>
            </cc:Work>
        </rdf:RDF>
    </metadata>
    <g inkscape:label="Layer 1" inkscape:groupmode="layer" id="layer1"
            transform="translate(0,-1016.3622)">
        <rect style="fill:#aaaaaa;fill-opacity:0.2;stroke:none;stroke-width:2;stroke-miterlimit:4;stroke-dasharray:none;stroke-opacity:1"
                id="rect814" width="24" height="36" x="0" y="1016.3622" ry="0" />
        <path inkscape:connector-curvature="0"
                style="color:#000000;display:inline;overflow:visible;visibility:visible;fill:#757575;fill-opacity:1;fill-rule:nonzero;stroke:none;stroke-width:1;marker:none;enable-background:accumulate"
                d="m 5,1027.3622 c -1.108,0 -1.81785,0.9071 -2,2 v 1 9 c 0,1.108 0.892,2 2,2 h 14 c 1.108,0 2,-0.892 2,-2 v -8 c 0,-1.108 -0.892,-2 -2,-2 h -7 l -2,-2 z m 6,5 h 0.375 l 0.875,1.75 h 1.5 l -0.875,-1.75 h 0.75 l 0.875,1.75 H 16 l -0.875,-1.75 h 0.75 l 0.875,1.75 h 1.5 l -0.875,-1.75 H 18 19 v 1 5 c 0,0.554 -0.446,1 -1,1 h -7 c -0.554,0 -1,-0.446 -1,-1 v -5 c 0,-0.554 0.446,-1 1,-1 z"
                id="path8187" />
    </g>
</svg>
