<?xml version="1.0" encoding="UTF-8" standalone="no"?>
<!-- Created with Inkscape (http://www.inkscape.org/) -->

<svg
   xmlns:dc="http://purl.org/dc/elements/1.1/"
   xmlns:cc="http://creativecommons.org/ns#"
   xmlns:rdf="http://www.w3.org/1999/02/22-rdf-syntax-ns#"
   xmlns:svg="http://www.w3.org/2000/svg"
   xmlns="http://www.w3.org/2000/svg"
   xmlns:sodipodi="http://sodipodi.sourceforge.net/DTD/sodipodi-0.dtd"
   xmlns:inkscape="http://www.inkscape.org/namespaces/inkscape"
   width="20"
   height="20"
   id="svg3428"
   version="1.1"
   inkscape:version="0.48.5 r10040"
   sodipodi:docname="ic_more_circle_pressed_o.svg">
  <defs
     id="defs3430" />
  <sodipodi:namedview
     id="base"
     pagecolor="#ffffff"
     bordercolor="#666666"
     borderopacity="1.0"
     inkscape:pageopacity="0.0"
     inkscape:pageshadow="2"
     inkscape:zoom="11.2"
     inkscape:cx="-24.217459"
     inkscape:cy="12.158472"
     inkscape:document-units="px"
     inkscape:current-layer="layer1"
     showgrid="true"
     inkscape:window-width="1920"
     inkscape:window-height="1056"
     inkscape:window-x="1920"
     inkscape:window-y="24"
     inkscape:window-maximized="1">
    <inkscape:grid
       type="xygrid"
       id="grid3436"
       empspacing="4"
       visible="true"
       enabled="true"
       snapvisiblegridlinesonly="true" />
  </sodipodi:namedview>
  <metadata
     id="metadata3433">
    <rdf:RDF>
      <cc:Work
         rdf:about="">
        <dc:format>image/svg+xml</dc:format>
        <dc:type
           rdf:resource="http://purl.org/dc/dcmitype/StillImage" />
        <dc:title />
      </cc:Work>
    </rdf:RDF>
  </metadata>
  <g
     inkscape:label="Layer 1"
     inkscape:groupmode="layer"
     id="layer1"
     transform="translate(0,-1032.3622)">
    <path
       d="m 100,56.362183 c 0,5.522847 -4.477153,10 -10,10 -5.522847,0 -10,-4.477153 -10,-10 0,-5.522848 4.477153,-10 10,-10 5.522847,0 10,4.477152 10,10 z"
       sodipodi:ry="10"
       sodipodi:rx="10"
       sodipodi:cy="56.362183"
       sodipodi:cx="90"
       id="path6413"
       style="color:#000000;fill:#fecb65;fill-opacity:1;fill-rule:nonzero;stroke:none;stroke-width:0.1;marker:none;visibility:visible;display:inline;overflow:visible;enable-background:accumulate"
       sodipodi:type="arc"
       transform="matrix(-0.8,0,0,-0.8,82,1087.452)" />
    <path
       style="color:#000000;fill:#ff7200;fill-opacity:1;fill-rule:nonzero;stroke:none;stroke-width:0.1;marker:none;visibility:visible;display:inline;overflow:visible;enable-background:accumulate"
       d="m 14.8,1042.3622 c 0,-0.6628 -0.53728,-1.2 -1.2,-1.2 -0.6628,0 -1.2,0.5374 -1.2,1.2 0,0.6627 0.53728,1.2001 1.2,1.2 0.66272,0 1.2,-0.5373 1.2,-1.2 z m -3.6,10e-5 c 0,-0.6629 -0.53728,-1.2001 -1.2,-1.2001 -0.66272,10e-5 -1.2,0.5372 -1.2,1.2 0,0.6627 0.53728,1.2 1.2,1.2001 0.66272,-10e-5 1.2,-0.5375 1.2,-1.2 z m -3.6,-10e-5 c 0,-0.6628 -0.53728,-1.2 -1.2,-1.1999 -0.66272,-10e-5 -1.2,0.5371 -1.2,1.2 0,0.6625 0.53728,1.1999 1.2,1.1999 0.6628,0 1.2,-0.5373 1.2,-1.2 z"
       id="path6415"
       inkscape:connector-curvature="0" />
  </g>
</svg>
