<?xml version="1.0" encoding="UTF-8" standalone="no"?>
<!-- Created with Inkscape (http://www.inkscape.org/) -->

<svg
   xmlns:dc="http://purl.org/dc/elements/1.1/"
   xmlns:cc="http://creativecommons.org/ns#"
   xmlns:rdf="http://www.w3.org/1999/02/22-rdf-syntax-ns#"
   xmlns:svg="http://www.w3.org/2000/svg"
   xmlns="http://www.w3.org/2000/svg"
   xmlns:sodipodi="http://sodipodi.sourceforge.net/DTD/sodipodi-0.dtd"
   xmlns:inkscape="http://www.inkscape.org/namespaces/inkscape"
   width="130"
   height="130"
   id="svg4682"
   version="1.1"
   inkscape:version="0.48.4 r9939"
   sodipodi:docname="ic_menu_refresh_g.svg"
   inkscape:export-filename="/home/corbax/Dev/android/Icons/Test 1/ic_play_normal.png"
   inkscape:export-xdpi="90"
   inkscape:export-ydpi="90">
  <defs
     id="defs4684" />
  <sodipodi:namedview
     id="base"
     pagecolor="#ffffff"
     bordercolor="#666666"
     borderopacity="1.0"
     inkscape:pageopacity="0.0"
     inkscape:pageshadow="2"
     inkscape:zoom="3.959798"
     inkscape:cx="-0.74562401"
     inkscape:cy="74.339893"
     inkscape:document-units="px"
     inkscape:current-layer="layer1"
     showgrid="false"
     inkscape:window-width="1680"
     inkscape:window-height="1026"
     inkscape:window-x="1920"
     inkscape:window-y="54"
     inkscape:window-maximized="1" />
  <metadata
     id="metadata4687">
    <rdf:RDF>
      <cc:Work
         rdf:about="">
        <dc:format>image/svg+xml</dc:format>
        <dc:type
           rdf:resource="http://purl.org/dc/dcmitype/StillImage" />
        <dc:title />
      </cc:Work>
    </rdf:RDF>
  </metadata>
  <g
     inkscape:label="Layer 1"
     inkscape:groupmode="layer"
     id="layer1"
     transform="translate(0,-922.36218)">
    <path
       id="path4070"
       d="m 66.406837,952.3708 c -1.5458,-0.0643 -3.0876,-0.0104 -4.5937,0.125 3.1328,1.46241 5.965,3.23857 8.375,5.3125 -3.1888,1.20532 -6.0233,2.84313 -8.4687,4.75 2.4698,-0.32553 5.0099,-0.26784 7.5937,0.1875 13.5973,2.39766 22.71,15.34018 20.3125,28.9375 -0.8276,4.69352 -2.9407,8.8554 -5.875,12.1875 l -2.25,-3.90625 -10.4062,17.96875 10.625,0 0.031,0.125 c 0.074,-0.04 0.1454,-0.084 0.2188,-0.125 l 9.9062,0 -2.9375,-5.0625 c 5.3252,-4.9936 9.166,-11.6951 10.5313,-19.4375 3.356303,-19.0363 -9.37,-37.1746 -28.4063,-40.53125 -1.5605,-0.27517 -3.1104,-0.46699 -4.6563,-0.53125 z m -28.3437,4.3125 2.9687,5.1875 c -5.3306,4.98765 -9.1343,11.66214 -10.5,19.40625 -3.3565,19.03635 9.3385,37.20575 28.375,40.56255 3.1081,0.5481 6.1873,0.6724 9.1876,0.4062 -3.1144,-1.4586 -5.9142,-3.2803 -8.3126,-5.3437 3.1885,-1.2063 6.0231,-2.8434 8.4688,-4.75 -2.4701,0.3253 -5.0099,0.2992 -7.5938,-0.1563 -13.5975,-2.3976 -22.7102,-15.40263 -20.3124,-29 0.8279,-4.6962 2.9343,-8.8291 5.875,-12.15625 l 2.2187,3.84375 10.4063,-17.96875 -10.625,-0.0312 c -0.018,0.0102 -0.043,0.0212 -0.063,0.0312 l -10.0937,-0.0312 z"
       style="fill:#fafafa;fill-opacity:1;fill-rule:nonzero;stroke:#323232;stroke-width:2;stroke-miterlimit:4;stroke-opacity:1;stroke-dasharray:none"
       inkscape:connector-curvature="0" />
  </g>
</svg>
