<?xml version="1.0" encoding="UTF-8" standalone="no"?>
<!-- Created with Inkscape (http://www.inkscape.org/) -->

<svg
   xmlns:dc="http://purl.org/dc/elements/1.1/"
   xmlns:cc="http://creativecommons.org/ns#"
   xmlns:rdf="http://www.w3.org/1999/02/22-rdf-syntax-ns#"
   xmlns:svg="http://www.w3.org/2000/svg"
   xmlns="http://www.w3.org/2000/svg"
   xmlns:sodipodi="http://sodipodi.sourceforge.net/DTD/sodipodi-0.dtd"
   xmlns:inkscape="http://www.inkscape.org/namespaces/inkscape"
   width="20"
   height="20"
   id="svg3428"
   version="1.1"
   inkscape:version="0.48.5 r10040"
   sodipodi:docname="ic_navmenu_circle_normal_o.svg">
  <defs
     id="defs3430" />
  <sodipodi:namedview
     id="base"
     pagecolor="#ffffff"
     bordercolor="#666666"
     borderopacity="1.0"
     inkscape:pageopacity="0.0"
     inkscape:pageshadow="2"
     inkscape:zoom="15.839192"
     inkscape:cx="4.8919602"
     inkscape:cy="9.043268"
     inkscape:document-units="px"
     inkscape:current-layer="layer1"
     showgrid="true"
     inkscape:window-width="960"
     inkscape:window-height="1028"
     inkscape:window-x="1920"
     inkscape:window-y="24"
     inkscape:window-maximized="0">
    <inkscape:grid
       type="xygrid"
       id="grid3436"
       empspacing="4"
       visible="true"
       enabled="true"
       snapvisiblegridlinesonly="true" />
  </sodipodi:namedview>
  <metadata
     id="metadata3433">
    <rdf:RDF>
      <cc:Work
         rdf:about="">
        <dc:format>image/svg+xml</dc:format>
        <dc:type
           rdf:resource="http://purl.org/dc/dcmitype/StillImage" />
        <dc:title></dc:title>
      </cc:Work>
    </rdf:RDF>
  </metadata>
  <g
     inkscape:label="Layer 1"
     inkscape:groupmode="layer"
     id="layer1"
     transform="translate(0,-1032.3622)">
    <g
       id="g7445"
       transform="matrix(0.8,0,0,0.8,-274.8,925.27246)">
      <path
         style="fill:#fecb65;fill-opacity:1;stroke:none"
         d="m 366,146.36218 c 0,5.52285 -4.47716,10 -10,10 -5.52284,0 -10,-4.47715 -10,-10 0,-5.52284 4.47716,-10 10,-10 5.52284,0 10,4.47716 10,10 z"
         id="path7427"
         inkscape:connector-curvature="0"
         sodipodi:nodetypes="sssss"
         inkscape:export-filename="/home/corbax/Dev/android/Design/Icons/DVD_Home_Icon.png"
         inkscape:export-xdpi="90"
         inkscape:export-ydpi="90" />
      <path
         inkscape:connector-curvature="0"
         style="color:#000000;fill:#ff7200;fill-opacity:1;fill-rule:nonzero;stroke:none;stroke-width:0.5;marker:none;visibility:visible;display:inline;overflow:visible;enable-background:accumulate"
         d="m 356,140.375 c -3.3137,0 -6,2.68629 -6,6 0,3.31371 2.6863,6 6,6 l 0,-1 c -2.76142,0 -5,-2.23858 -5,-5 0,-2.76142 2.23858,-5 5,-5 2.76142,0 5,2.23858 5,5 0,0.50075 -0.0815,0.98146 -0.21875,1.4375 l 0.78125,0.78125 C 361.83726,147.90688 362,147.15998 362,146.375 c 0,-3.31371 -2.6863,-6 -6,-6 z m -3.1875,2.8125 c -0.81434,0.81434 -1.3125,1.94486 -1.3125,3.1875 l 2.5,0 c 0,-0.55065 0.23371,-1.07583 0.59375,-1.4375 l -1.78125,-1.75 z M 356,144.875 c -0.82842,0 -1.5,0.67157 -1.5,1.5 0,0.82843 0.67158,1.5 1.5,1.5 0.82842,0 1.5,-0.67157 1.5,-1.5 0,-0.82843 -0.67158,-1.5 -1.5,-1.5 z"
         id="path7429" />
      <path
         style="fill:#ff7200;fill-opacity:1;stroke:none"
         d="m 359,147.36218 3,3 -6,0 z"
         id="path7432"
         inkscape:connector-curvature="0" />
      <path
         inkscape:connector-curvature="0"
         style="color:#000000;fill:#ff7200;fill-opacity:1;fill-rule:nonzero;stroke:none;stroke-width:0.5;marker:none;visibility:visible;display:inline;overflow:visible;enable-background:accumulate"
         d="m 357,150.375 0,2 1.5,0 0,-1.5 1,0 0,1.5 1.5,0 0,-2 -4,0 z"
         id="path7434" />
      <path
         inkscape:connector-curvature="0"
         style="color:#000000;fill:#ff7200;fill-opacity:1;fill-rule:nonzero;stroke:none;stroke-width:0.5;marker:none;visibility:visible;display:inline;overflow:visible;enable-background:accumulate"
         d="m 356,140.375 c -3.31371,0 -6,2.68629 -6,6 0,3.31371 2.68629,6 6,6 l 0,-1 c -2.76142,0 -5,-2.23858 -5,-5 0,-2.58884 1.97872,-4.74395 4.5,-5 0.16809,-0.0171 0.32741,0 0.5,0 2.76142,0 5,2.23858 5,5 0,0.52812 -0.0982,1.02213 -0.25,1.5 l 0.8125,0.8125 c 0.2941,-0.7082 0.4375,-1.49788 0.4375,-2.3125 0,-3.31371 -2.68629,-6 -6,-6 z"
         id="path7436" />
    </g>
  </g>
</svg>
