<?xml version="1.0" encoding="UTF-8" standalone="no"?>
<!-- Created with Inkscape (http://www.inkscape.org/) -->

<svg
   xmlns:dc="http://purl.org/dc/elements/1.1/"
   xmlns:cc="http://creativecommons.org/ns#"
   xmlns:rdf="http://www.w3.org/1999/02/22-rdf-syntax-ns#"
   xmlns:svg="http://www.w3.org/2000/svg"
   xmlns="http://www.w3.org/2000/svg"
   xmlns:sodipodi="http://sodipodi.sourceforge.net/DTD/sodipodi-0.dtd"
   xmlns:inkscape="http://www.inkscape.org/namespaces/inkscape"
   width="24"
   height="24"
   id="svg4682"
   version="1.1"
   inkscape:version="0.91 r13725"
   sodipodi:docname="ic_notif_video.svg"
   inkscape:export-filename="/home/corbax/Dev/android/Icons/Test 1/ic_play_normal.png"
   inkscape:export-xdpi="90"
   inkscape:export-ydpi="90">
  <defs
     id="defs4684" />
  <sodipodi:namedview
     id="base"
     pagecolor="#ffffff"
     bordercolor="#666666"
     borderopacity="1.0"
     inkscape:pageopacity="0.0"
     inkscape:pageshadow="2"
     inkscape:zoom="22.4"
     inkscape:cx="-0.89996041"
     inkscape:cy="4.6296531"
     inkscape:document-units="px"
     inkscape:current-layer="layer1"
     showgrid="true"
     inkscape:window-width="1920"
     inkscape:window-height="1056"
     inkscape:window-x="0"
     inkscape:window-y="24"
     inkscape:window-maximized="1"
     inkscape:snap-grids="true"
     inkscape:snap-bbox="true"
     inkscape:bbox-paths="true"
     inkscape:bbox-nodes="true"
     inkscape:snap-bbox-edge-midpoints="true"
     inkscape:snap-bbox-midpoints="true"
     inkscape:object-paths="true"
     inkscape:snap-intersection-paths="true"
     inkscape:object-nodes="true"
     inkscape:snap-smooth-nodes="true"
     inkscape:snap-midpoints="true"
     inkscape:snap-object-midpoints="true"
     inkscape:snap-center="true">
    <inkscape:grid
       type="xygrid"
       id="grid3002" />
  </sodipodi:namedview>
  <metadata
     id="metadata4687">
    <rdf:RDF>
      <cc:Work
         rdf:about="">
        <dc:format>image/svg+xml</dc:format>
        <dc:type
           rdf:resource="http://purl.org/dc/dcmitype/StillImage" />
        <dc:title></dc:title>
      </cc:Work>
    </rdf:RDF>
  </metadata>
  <g
     inkscape:label="Layer 1"
     inkscape:groupmode="layer"
     id="layer1"
     transform="translate(0,-1028.3622)">
    <path
       style="fill:#ffffff;fill-opacity:1"
       d="m 10.36719,1032.3641 c -0.19,0 -0.4025899,0.023 -0.5546899,0.1367 -0.3008,0.2252 -0.42166,0.5865 -0.68359,1.3672 -0.26193,0.7807 -0.27344,0.8203 -0.27344,0.8203 0.79082,0.3954 1.4255299,0.5264 2.1445299,0.3457 l 0,-2.4511 c -0.0273,-0.026 -0.0493,-0.059 -0.0801,-0.082 -0.15112,-0.1152 -0.36273,-0.1368 -0.55273,-0.1368 z m 2.63281,0 0,5.6875 0,3.4316 0,3.7247 0,3.1543 0,0 4.01562,0 1.48438,0 0,-2 2,0 0,2 1.5,0 0,-16 -1.5,0 0,2 -2,0 0,-2 -5.5,0 z m 5.5,3.5 2,0 0,2 -2,0 0,-2 z m -10.6015599,1.6953 -1.09375,3.2832 -0.002,0.01 c 0.005,-10e-4 0.009,0 0.0137,0 1.19627,1.0368 2.71594,1.4497 4.1835899,1.2774 l 0,-3.6973 c -1.0359599,0.1999 -2.0681699,-0.09 -3.1015599,-0.8652 z M 18.5,1039.3641 l 2,0 0,2 -2,0 0,-2 z m -13.3964799,3.1191 c -0.36363,0 -0.70233,0.2744 -0.8086,0.6368 l -0.63672,2.1679 c -0.20814,0.7112 -0.41394,1.416 -0.62304,2.1309 -0.0875,0.2988 -5.4e-4,0.52 0.14062,0.6719 0.0874,0.094 0.19556,0.1617 0.29492,0.207 0.0994,0.044 0.16777,0.066 0.2461,0.066 0.1826,0 3.37166,0 6.6503899,0 0.31207,0 0.32489,0 0.63281,0 l 0,-2.7344 c -0.10641,0.01 -0.20951,0.031 -0.31641,0.035 -1.7772699,0.068 -3.5878799,-0.4572 -4.6894499,-1.5351 -0.20629,-0.2019 -0.13681,-0.4101 0,-0.8204 0.0912,-0.2734 0.26367,-0.8242 0.26367,-0.8242 l -1.15429,0 z M 18.5,1042.8641 l 2,0 0,2 -2,0 0,-2 z"
       id="path6909"
       inkscape:connector-curvature="0" />
  </g>
</svg>
