<?xml version="1.0" encoding="UTF-8" standalone="no"?>
<!-- Created with Inkscape (http://www.inkscape.org/) -->

<svg
   xmlns:dc="http://purl.org/dc/elements/1.1/"
   xmlns:cc="http://creativecommons.org/ns#"
   xmlns:rdf="http://www.w3.org/1999/02/22-rdf-syntax-ns#"
   xmlns:svg="http://www.w3.org/2000/svg"
   xmlns="http://www.w3.org/2000/svg"
   xmlns:sodipodi="http://sodipodi.sourceforge.net/DTD/sodipodi-0.dtd"
   xmlns:inkscape="http://www.inkscape.org/namespaces/inkscape"
   width="48"
   height="48"
   id="svg4682"
   version="1.1" inkscape:version="0.92.3 (2405546, 2018-03-11)"
   sodipodi:docname="ic_navmenu_circle_player.svg"
   inkscape:export-filename="/home/corbax/Dev/android/Icons/Test 1/ic_play_normal.png"
   inkscape:export-xdpi="90"
   inkscape:export-ydpi="90">
  <defs
     id="defs4684" />
  <sodipodi:namedview
     id="base"
     pagecolor="#ffffff"
     bordercolor="#666666"
     borderopacity="1.0"
     inkscape:pageopacity="0.0"
     inkscape:pageshadow="2" inkscape:zoom="15.839192" inkscape:cx="27.285577"
      inkscape:cy="23.758446"
     inkscape:document-units="px"
     inkscape:current-layer="layer1"
     showgrid="false" inkscape:window-width="1600" inkscape:window-height="836"
     inkscape:window-x="0"
     inkscape:window-y="27"
     inkscape:window-maximized="1"
     fit-margin-top="0"
     fit-margin-left="0"
     fit-margin-right="0"
     fit-margin-bottom="0"
     inkscape:snap-bbox="true"
     inkscape:bbox-paths="true"
     inkscape:bbox-nodes="true"
     inkscape:snap-bbox-edge-midpoints="true"
     inkscape:snap-bbox-midpoints="true"
     inkscape:snap-nodes="true"
     inkscape:snap-intersection-paths="true"
     inkscape:snap-smooth-nodes="true"
     inkscape:snap-midpoints="true"
     inkscape:snap-center="true"
     inkscape:snap-object-midpoints="true">
    <inkscape:grid
       type="xygrid"
       id="grid3956"
       empspacing="4"
       visible="true"
       enabled="true"
       snapvisiblegridlinesonly="true"
       originx="-2"
       originy="-2.0000174" />
  </sodipodi:namedview>
  <metadata
     id="metadata4687">
    <rdf:RDF>
      <cc:Work
         rdf:about="">
        <dc:format>image/svg+xml</dc:format>
        <dc:type
           rdf:resource="http://purl.org/dc/dcmitype/StillImage" />
          <dc:title />
      </cc:Work>
    </rdf:RDF>
  </metadata>
  <g
     inkscape:label="Layer 1"
     inkscape:groupmode="layer"
     id="layer1"
     transform="translate(-2,-1002.3622)">
    <circle
        style="color:#000000;display:inline;overflow:visible;visibility:visible;opacity:1;vector-effect:none;fill:#141414;fill-opacity:0.75294118;fill-rule:nonzero;stroke:none;stroke-width:15.1181097;stroke-linecap:butt;stroke-linejoin:round;stroke-miterlimit:4;stroke-dasharray:none;stroke-dashoffset:0;stroke-opacity:1;marker:none;enable-background:accumulate"
       id="circle6014"
       cx="26"
       cy="1026.3622"
       r="24" />
    <path style="fill:#fafafa;fill-opacity:1;stroke:none;stroke-width:2"
        d="m 26.000001,1014.3624 c -6.6274,0 -12,5.3725 -12,12 0,6.6274 5.3726,12 12,12 v -2.25 c -5.3848,0 -9.75,-4.3652 -9.75,-9.75 0,-5.3849 4.3652,-9.75 9.75,-9.75 5.3849,0 9.75,4.3651 9.75,9.75 -3e-4,0.6324 -0.062,1.2633 -0.1845,1.8838 l 1.8311,1.8311 c 0.3952,-1.1988 0.5989,-2.4525 0.6034,-3.7149 0,-6.6275 -5.3725,-12 -12,-12 z m -5.83,6.1699 a 8.25,8.25 0 0 0 -2.42,5.8301 h 3.75 a 4.5,4.5 0 0 1 1.3214,-3.1787 z m 5.83,2.8301 a 3,3 0 0 0 -3,3 3,3 0 0 0 3,3 3,3 0 0 0 3,-3 3,3 0 0 0 -3,-3 z m 6,4.5 -6,6 h 2.25 v 4.5 h 2.625 v -3 h 0.375 1.5 0.375 v 3 h 2.625 v -4.5 h 2.25 z"
        id="path6179"
       inkscape:connector-curvature="0" />
  </g>
</svg>
