<?xml version="1.0" encoding="UTF-8" standalone="no"?>
<!-- Created with Inkscape (http://www.inkscape.org/) -->

<svg
   xmlns:dc="http://purl.org/dc/elements/1.1/"
   xmlns:cc="http://creativecommons.org/ns#"
   xmlns:rdf="http://www.w3.org/1999/02/22-rdf-syntax-ns#"
   xmlns:svg="http://www.w3.org/2000/svg"
   xmlns="http://www.w3.org/2000/svg"
   xmlns:sodipodi="http://sodipodi.sourceforge.net/DTD/sodipodi-0.dtd"
   xmlns:inkscape="http://www.inkscape.org/namespaces/inkscape"
   width="48"
   height="48"
   id="svg4682"
   version="1.1"
   inkscape:version="0.92.3 (unknown)"
   sodipodi:docname="ic_navmenu_circle_player.svg"
   inkscape:export-filename="/home/corbax/Dev/android/Icons/Test 1/ic_play_normal.png"
   inkscape:export-xdpi="90"
   inkscape:export-ydpi="90">
  <defs
     id="defs4684" />
  <sodipodi:namedview
     id="base"
     pagecolor="#ffffff"
     bordercolor="#666666"
     borderopacity="1.0"
     inkscape:pageopacity="0.0"
     inkscape:pageshadow="2"
     inkscape:zoom="5.6"
     inkscape:cx="-17.584125"
     inkscape:cy="23.184609"
     inkscape:document-units="px"
     inkscape:current-layer="layer1"
     showgrid="false"
     inkscape:window-width="1920"
     inkscape:window-height="1016"
     inkscape:window-x="0"
     inkscape:window-y="27"
     inkscape:window-maximized="1"
     fit-margin-top="0"
     fit-margin-left="0"
     fit-margin-right="0"
     fit-margin-bottom="0"
     inkscape:snap-bbox="true"
     inkscape:bbox-paths="true"
     inkscape:bbox-nodes="true"
     inkscape:snap-bbox-edge-midpoints="true"
     inkscape:snap-bbox-midpoints="true"
     inkscape:snap-nodes="true"
     inkscape:snap-intersection-paths="true"
     inkscape:snap-smooth-nodes="true"
     inkscape:snap-midpoints="true"
     inkscape:snap-center="true"
     inkscape:snap-object-midpoints="true">
    <inkscape:grid
       type="xygrid"
       id="grid3956"
       empspacing="4"
       visible="true"
       enabled="true"
       snapvisiblegridlinesonly="true"
       originx="-2"
       originy="-2.0000174" />
  </sodipodi:namedview>
  <metadata
     id="metadata4687">
    <rdf:RDF>
      <cc:Work
         rdf:about="">
        <dc:format>image/svg+xml</dc:format>
        <dc:type
           rdf:resource="http://purl.org/dc/dcmitype/StillImage" />
        <dc:title></dc:title>
      </cc:Work>
    </rdf:RDF>
  </metadata>
  <g
     inkscape:label="Layer 1"
     inkscape:groupmode="layer"
     id="layer1"
     transform="translate(-2,-1002.3622)">
    <circle
       style="color:#000000;display:inline;overflow:visible;visibility:visible;opacity:1;vector-effect:none;fill:#141414;fill-opacity:0.75294119;fill-rule:nonzero;stroke:none;stroke-width:15.1181097;stroke-linecap:butt;stroke-linejoin:round;stroke-miterlimit:4;stroke-dasharray:none;stroke-dashoffset:0;stroke-opacity:1;marker:none;enable-background:accumulate"
       id="circle6014"
       cx="26"
       cy="1026.3622"
       r="24" />
    <path
       style="fill:#fafafa;fill-opacity:1;stroke:none;stroke-width:2.22222233"
       d="m 26,1013.0289 c -7.3638,0 -13.3333,5.9695 -13.3333,13.3333 0,7.3638 5.9695,13.3333 13.3333,13.3333 v -2.5 c -5.9832,0 -10.8333,-4.8501 -10.8333,-10.8333 0,-5.9832 4.8501,-10.8333 10.8333,-10.8333 5.9832,0 10.8333,4.8501 10.8333,10.8333 -3e-4,0.7027 -0.068,1.4037 -0.205,2.0932 l 2.0345,2.0345 c 0.4392,-1.332 0.6655,-2.725 0.6705,-4.1277 0,-7.3638 -5.9695,-13.3333 -13.3333,-13.3333 z m -6.4778,6.8555 a 9.1666667,9.1666667 0 0 0 -2.6889,6.4778 H 21 a 5,5 0 0 1 1.4682,-3.5318 z M 26,1023.0289 a 3.3333333,3.3333333 0 0 0 -3.3333,3.3333 3.3333333,3.3333333 0 0 0 3.3333,3.3333 3.3333333,3.3333333 0 0 0 3.3333,-3.3333 A 3.3333333,3.3333333 0 0 0 26,1023.0289 Z m 6.6667,5 -6.6667,6.6666 h 2.5 v 5 h 2.9167 v -3.3333 h 0.4166 1.6667 0.4167 v 3.3333 h 2.9166 v -5 h 2.5 z"
       id="path6294"
       inkscape:connector-curvature="0" />
  </g>
</svg>
