<?xml version="1.0" encoding="UTF-8" standalone="no"?>
<!-- Created with Inkscape (http://www.inkscape.org/) -->

<svg
   xmlns:dc="http://purl.org/dc/elements/1.1/"
   xmlns:cc="http://creativecommons.org/ns#"
   xmlns:rdf="http://www.w3.org/1999/02/22-rdf-syntax-ns#"
   xmlns:svg="http://www.w3.org/2000/svg"
   xmlns="http://www.w3.org/2000/svg"
   xmlns:sodipodi="http://sodipodi.sourceforge.net/DTD/sodipodi-0.dtd"
   xmlns:inkscape="http://www.inkscape.org/namespaces/inkscape"
   width="24"
   height="24"
   id="svg4682"
   version="1.1"
   inkscape:version="0.91 r13725"
   sodipodi:docname="ic_notif_audio.svg"
   inkscape:export-filename="/home/corbax/Dev/android/Icons/Test 1/ic_play_normal.png"
   inkscape:export-xdpi="90"
   inkscape:export-ydpi="90">
  <defs
     id="defs4684" />
  <sodipodi:namedview
     id="base"
     pagecolor="#ffffff"
     bordercolor="#666666"
     borderopacity="1.0"
     inkscape:pageopacity="0.0"
     inkscape:pageshadow="2"
     inkscape:zoom="22.4"
     inkscape:cx="9.9705753"
     inkscape:cy="4.6296531"
     inkscape:document-units="px"
     inkscape:current-layer="layer1"
     showgrid="true"
     inkscape:window-width="1920"
     inkscape:window-height="1056"
     inkscape:window-x="0"
     inkscape:window-y="24"
     inkscape:window-maximized="1"
     inkscape:snap-grids="true"
     inkscape:snap-bbox="true"
     inkscape:bbox-paths="true"
     inkscape:bbox-nodes="true"
     inkscape:snap-bbox-edge-midpoints="true"
     inkscape:snap-bbox-midpoints="true"
     inkscape:object-paths="true"
     inkscape:snap-intersection-paths="true"
     inkscape:object-nodes="true"
     inkscape:snap-smooth-nodes="true"
     inkscape:snap-midpoints="true"
     inkscape:snap-object-midpoints="true"
     inkscape:snap-center="true">
    <inkscape:grid
       type="xygrid"
       id="grid3002" />
  </sodipodi:namedview>
  <metadata
     id="metadata4687">
    <rdf:RDF>
      <cc:Work
         rdf:about="">
        <dc:format>image/svg+xml</dc:format>
        <dc:type
           rdf:resource="http://purl.org/dc/dcmitype/StillImage" />
        <dc:title />
      </cc:Work>
    </rdf:RDF>
  </metadata>
  <g
     inkscape:label="Layer 1"
     inkscape:groupmode="layer"
     id="layer1"
     transform="translate(0,-1028.3622)">
    <path
       style="color:#000000;display:inline;overflow:visible;visibility:visible;fill:#ffffff;fill-opacity:1;fill-rule:nonzero;stroke:none;stroke-width:1;marker:none;enable-background:accumulate"
       d="m 10.36719,1032.3622 c -0.19,0 -0.40259,0.023 -0.55469,0.1367 -0.3008,0.2252 -0.42166,0.5865 -0.68359,1.3672 -0.2619299,0.7807 -0.2734399,0.8203 -0.2734399,0.8203 1.0940499,0.547 1.8875299,0.5982 3.0214799,0 0,0 -0.0125,-0.043 -0.27343,-0.8203 -0.26092,-0.7777 -0.38099,-1.1366 -0.6836,-1.3672 -0.15112,-0.1151 -0.36273,-0.1367 -0.55273,-0.1367 z m 5.63281,0 0,10.1758 a 3,3 0 0 0 -1,-0.1758 3,3 0 0 0 -3,3 3,3 0 0 0 3,3 3,3 0 0 0 3,-3 l 0,-10 3,0 0,-3 -3,0 -2,0 z m -8.1015599,5.1953 -1.09375,3.2832 -0.002,0.01 c 0.005,-10e-4 0.009,0 0.0137,0 1.25399,1.0868 2.8644299,1.5016 4.3964799,1.2598 a 5,5 0 0 1 2.60742,-1.5918 l -0.98437,-2.9531 -0.002,0 c -1.65912,1.2388 -3.29447,1.2291 -4.9355399,0 z m -2.79492,4.9238 c -0.36363,0 -0.70233,0.2744 -0.8086,0.6368 L 3.6582,1045.286 c -0.20814,0.7112 -0.41394,1.416 -0.62304,2.1309 -0.0875,0.2988 -5.4e-4,0.52 0.14062,0.6719 0.0874,0.094 0.19556,0.1617 0.29492,0.207 0.0994,0.044 0.16777,0.066 0.2461,0.066 0.1826,0 3.3716601,0 6.65039,0 0.314,0 0.32694,0 0.63672,0 a 5,5 0 0 1 -0.99414,-2.7031 c -1.5499499,-0.07 -3.0529699,-0.5893 -4.0156299,-1.5313 -0.20629,-0.2018 -0.13681,-0.41 0,-0.8203 0.0912,-0.2735 0.26367,-0.8242 0.26367,-0.8242 l -1.15429,0 z"
       id="circle6643"
       inkscape:connector-curvature="0" />
  </g>
</svg>
