<?xml version="1.0" encoding="UTF-8" standalone="no"?>
<!-- Created with Inkscape (http://www.inkscape.org/) -->

<svg
   xmlns:dc="http://purl.org/dc/elements/1.1/"
   xmlns:cc="http://creativecommons.org/ns#"
   xmlns:rdf="http://www.w3.org/1999/02/22-rdf-syntax-ns#"
   xmlns:svg="http://www.w3.org/2000/svg"
   xmlns="http://www.w3.org/2000/svg"
   xmlns:sodipodi="http://sodipodi.sourceforge.net/DTD/sodipodi-0.dtd"
   xmlns:inkscape="http://www.inkscape.org/namespaces/inkscape"
   width="130"
   height="130"
   id="svg4682"
   version="1.1"
   inkscape:version="0.48.4 r9939"
   sodipodi:docname="ic_previous_pressed_w.svg"
   inkscape:export-filename="/home/corbax/Dev/android/Icons/Test 1/ic_play_normal.png"
   inkscape:export-xdpi="90"
   inkscape:export-ydpi="90">
  <defs
     id="defs4684">
    <filter
       color-interpolation-filters="sRGB"
       inkscape:collect="always"
       id="filter6548"
       x="-0.16773821"
       width="1.3354764"
       y="-0.19419786"
       height="1.3883957">
      <feGaussianBlur
         inkscape:collect="always"
         stdDeviation="7.6794618"
         id="feGaussianBlur6550" />
    </filter>
    <filter
       color-interpolation-filters="sRGB"
       inkscape:collect="always"
       id="filter7114"
       x="-0.22197185"
       width="1.4439437"
       y="-0.26120958"
       height="1.5224192">
      <feGaussianBlur
         inkscape:collect="always"
         stdDeviation="9.2142413"
         id="feGaussianBlur7116" />
    </filter>
  </defs>
  <sodipodi:namedview
     id="base"
     pagecolor="#ffffff"
     bordercolor="#666666"
     borderopacity="1.0"
     inkscape:pageopacity="0.0"
     inkscape:pageshadow="2"
     inkscape:zoom="5.6"
     inkscape:cx="49.758676"
     inkscape:cy="74.187989"
     inkscape:document-units="px"
     inkscape:current-layer="layer1"
     showgrid="false"
     inkscape:window-width="1680"
     inkscape:window-height="1026"
     inkscape:window-x="1920"
     inkscape:window-y="24"
     inkscape:window-maximized="1" />
  <metadata
     id="metadata4687">
    <rdf:RDF>
      <cc:Work
         rdf:about="">
        <dc:format>image/svg+xml</dc:format>
        <dc:type
           rdf:resource="http://purl.org/dc/dcmitype/StillImage" />
        <dc:title />
      </cc:Work>
    </rdf:RDF>
  </metadata>
  <g
     inkscape:label="Layer 1"
     inkscape:groupmode="layer"
     id="layer1"
     transform="translate(0,-922.36218)">
    <g
       id="g3008"
       transform="matrix(-1,0,0,-1,40.714282,1961.1529)">
      <path
         sodipodi:type="inkscape:offset"
         inkscape:radius="4.8241916"
         inkscape:original="M 655.875 647.34375 A 0.98534772 0.98796407 0 0 0 655.6875 647.375 A 0.98534772 0.98796407 0 0 0 655 648.34375 L 655 721.40625 A 0.98534772 0.98796407 0 0 0 656.4375 722.25 L 680 708.625 L 680 721.40625 A 0.98534772 0.98796407 0 0 0 681.4375 722.25 L 725 697.0625 L 725 720.375 C 725 721.483 725.892 722.375 727 722.375 L 743 722.375 C 744.108 722.375 745 721.483 745 720.375 L 745 685 A 0.98534772 0.98796407 0 0 0 745 684.8125 L 745 649.375 C 745 648.267 744.108 647.375 743 647.375 L 727 647.375 C 725.892 647.375 725 648.267 725 649.375 L 725 672.75 L 681.4375 647.53125 A 0.98534772 0.98796407 0 0 0 680.6875 647.375 A 0.98534772 0.98796407 0 0 0 680 648.34375 L 680 661.1875 L 656.4375 647.53125 A 0.98534772 0.98796407 0 0 0 655.875 647.34375 z "
         style="fill:#ff8800;fill-opacity:1;fill-rule:nonzero;stroke:none;filter:url(#filter7114)"
         id="path7015"
         d="m 655.53125,642.53125 c 0.24746,-0.0169 -1.33321,0.25171 -1.09375,0.1875 a 4.824674,4.824674 0 0 0 -0.21875,0.0625 c 0.19739,-0.0627 -1.05957,0.43731 -0.875,0.34375 0.18457,-0.0936 -0.94818,0.62191 -0.78125,0.5 0.16693,-0.12191 -0.86374,0.77199 -0.71875,0.625 0.14499,-0.14699 -0.7131,0.85568 -0.59375,0.6875 0.11935,-0.16818 -0.55947,0.99747 -0.46875,0.8125 0.0907,-0.18497 -0.40357,1.07196 -0.34375,0.875 0.0598,-0.19696 -0.24621,1.11016 -0.21875,0.90625 0.0238,-0.17675 -0.0137,0.68071 -0.0312,0.8125 -0.003,0.0203 7.4e-4,0.15239 0,0.125 l 0,72.9375 a 4.824674,4.824674 0 0 0 0,0.15625 c -0.005,-0.16033 0.088,0.87717 0.0625,0.71875 -0.0255,-0.15842 0.20141,0.87279 0.15625,0.71875 -0.0452,-0.15404 0.31414,0.83475 0.25,0.6875 -0.0641,-0.14725 0.42591,0.7944 0.34375,0.65625 -0.0822,-0.13815 0.50517,0.72062 0.40625,0.59375 -0.0989,-0.12687 0.58292,0.67605 0.46875,0.5625 -0.11417,-0.11355 0.69014,0.56715 0.5625,0.46875 -0.12764,-0.0984 0.73286,0.4879 0.59375,0.40625 -0.13911,-0.0816 0.80464,0.40731 0.65625,0.34375 -0.14839,-0.0636 0.84279,0.29441 0.6875,0.25 -0.15529,-0.0444 0.87846,0.18078 0.71875,0.15625 -0.15971,-0.0245 0.91155,0.0667 0.75,0.0625 -0.16155,-0.004 0.87954,-0.0474 0.71875,-0.0312 -0.16079,0.0161 0.87618,-0.16123 0.71875,-0.125 -0.15743,0.0362 0.8703,-0.27448 0.71875,-0.21875 -0.15155,0.0557 0.79949,-0.35554 0.65625,-0.28125 a 4.824674,4.824674 0 0 0 0.1875,-0.0937 L 675.1875,717 l 0,4.40625 a 4.824674,4.824674 0 0 0 0,0.15625 c -0.005,-0.16033 0.088,0.87717 0.0625,0.71875 -0.0255,-0.15842 0.20141,0.87279 0.15625,0.71875 -0.0452,-0.15404 0.31414,0.83475 0.25,0.6875 -0.0641,-0.14725 0.42591,0.7944 0.34375,0.65625 -0.0822,-0.13815 0.50517,0.72062 0.40625,0.59375 -0.0989,-0.12687 0.58292,0.67605 0.46875,0.5625 -0.11417,-0.11355 0.69014,0.56715 0.5625,0.46875 -0.12764,-0.0984 0.73286,0.4879 0.59375,0.40625 -0.13911,-0.0816 0.80464,0.40731 0.65625,0.34375 -0.14839,-0.0636 0.84279,0.29441 0.6875,0.25 -0.15529,-0.0444 0.87846,0.18078 0.71875,0.15625 -0.15971,-0.0245 0.91155,0.0667 0.75,0.0625 -0.16155,-0.004 0.87954,-0.0474 0.71875,-0.0312 -0.16079,0.0161 0.87618,-0.16123 0.71875,-0.125 -0.15743,0.0362 0.8703,-0.27448 0.71875,-0.21875 -0.15155,0.0557 0.79949,-0.35554 0.65625,-0.28125 a 4.824674,4.824674 0 0 0 0.1875,-0.0937 l 36.34375,-21 0,14.9375 c 0,3.69716 3.11534,6.8125 6.8125,6.8125 l 16,0 c 3.69716,0 6.8125,-3.11534 6.8125,-6.8125 l 0,-34.90625 0,-0.46875 c -6.4e-4,-0.1076 -6.4e-4,-0.0799 0,-0.1875 l 0,-0.46875 0,-34.96875 c 0,-3.69716 -3.11534,-6.8125 -6.8125,-6.8125 l -16,0 c -3.69716,0 -6.8125,3.11534 -6.8125,6.8125 l 0,15 -36,-20.8125 -0.34375,-0.21875 0,0.0312 c -0.3528,-0.18873 -0.84432,-0.44231 -0.6875,-0.375 0.23523,0.10097 -1.34457,-0.396 -1.09375,-0.34375 0.25082,0.0522 -1.41253,-0.12635 -1.15625,-0.125 0.25628,0.001 -1.40761,0.17461 -1.15625,0.125 a 4.824674,4.824674 0 0 0 -0.53125,0.125 c 0.19739,-0.0627 -1.05957,0.43731 -0.875,0.34375 0.18457,-0.0936 -0.94818,0.62191 -0.78125,0.5 0.16693,-0.12191 -0.86374,0.77199 -0.71875,0.625 0.14499,-0.14699 -0.7131,0.85568 -0.59375,0.6875 0.11935,-0.16818 -0.55947,0.99747 -0.46875,0.8125 0.0907,-0.18497 -0.40357,1.07196 -0.34375,0.875 0.0598,-0.19696 -0.24621,1.11016 -0.21875,0.90625 0.0238,-0.17675 -0.0137,0.68071 -0.0312,0.8125 -0.003,0.0203 7.4e-4,0.15239 0,0.125 l 0,4.34375 -16.34375,-9.46875 c -0.19219,-0.11923 -0.41854,-0.22594 -0.34375,-0.1875 0.17417,0.0895 -0.99843,-0.40573 -0.8125,-0.34375 0.18593,0.062 -1.03706,-0.25166 -0.84375,-0.21875 0.19331,0.0329 -1.10235,-0.0655 -0.90625,-0.0625 a 4.824674,4.824674 0 0 0 -0.40625,0 z"
         transform="matrix(1.0037535,0,0,1.0040081,-726.91264,286.18847)" />
      <g
         id="g7023"
         transform="translate(-844.28572,288.92857)">
        <path
           sodipodi:type="inkscape:offset"
           inkscape:radius="0.70268315"
           inkscape:original="M 520 551.375 L 520 603.34375 L 565 577.375 L 520 551.375 z "
           style="fill:#fafafa;fill-opacity:1;fill-rule:nonzero;stroke:none"
           id="path5975-9"
           d="m 519.8125,550.6875 a 0.70275342,0.70275342 0 0 0 -0.5,0.6875 l 0,51.96875 a 0.70275342,0.70275342 0 0 0 1.03125,0.59375 l 45,-25.96875 a 0.70275342,0.70275342 0 0 0 0,-1.1875 l -45,-26 a 0.70275342,0.70275342 0 0 0 -0.53125,-0.0937 z"
           transform="matrix(1.4021244,0,0,1.4058474,46.859485,-126.79675)" />
        <path
           transform="matrix(1.4021244,0,0,1.4058474,71.85948,-126.79675)"
           d="m 519.8125,550.6875 a 0.70275342,0.70275342 0 0 0 -0.5,0.6875 l 0,51.96875 a 0.70275342,0.70275342 0 0 0 1.03125,0.59375 l 45,-25.96875 a 0.70275342,0.70275342 0 0 0 0,-1.1875 l -45,-26 a 0.70275342,0.70275342 0 0 0 -0.53125,-0.0937 z"
           id="path5977-3"
           style="fill:#fafafa;fill-opacity:1;fill-rule:nonzero;stroke:none"
           inkscape:original="M 520 551.375 L 520 603.34375 L 565 577.375 L 520 551.375 z "
           inkscape:radius="0.70268315"
           sodipodi:type="inkscape:offset" />
        <rect
           style="color:#000000;fill:#fafafa;fill-opacity:1;fill-rule:nonzero;stroke:none;stroke-width:10;marker:none;visibility:visible;display:inline;overflow:visible;enable-background:accumulate"
           id="rect5979-1"
           width="20"
           height="75"
           x="845"
           y="647.36218"
           ry="2"
           rx="2" />
      </g>
    </g>
  </g>
</svg>
