<?xml version="1.0" encoding="UTF-8" standalone="no"?>
<!-- Created with Inkscape (http://www.inkscape.org/) -->

<svg
   xmlns:dc="http://purl.org/dc/elements/1.1/"
   xmlns:cc="http://creativecommons.org/ns#"
   xmlns:rdf="http://www.w3.org/1999/02/22-rdf-syntax-ns#"
   xmlns:svg="http://www.w3.org/2000/svg"
   xmlns="http://www.w3.org/2000/svg"
   xmlns:sodipodi="http://sodipodi.sourceforge.net/DTD/sodipodi-0.dtd"
   xmlns:inkscape="http://www.inkscape.org/namespaces/inkscape"
   width="130"
   height="130"
   id="svg4682"
   version="1.1"
   inkscape:version="0.48.4 r9939"
   sodipodi:docname="ic_playlist_pressed.svg"
   inkscape:export-filename="/home/corbax/Dev/android/Icons/Test 1/ic_play_normal.png"
   inkscape:export-xdpi="90"
   inkscape:export-ydpi="90">
  <defs
     id="defs4684" />
  <sodipodi:namedview
     id="base"
     pagecolor="#ffffff"
     bordercolor="#666666"
     borderopacity="1.0"
     inkscape:pageopacity="0.0"
     inkscape:pageshadow="2"
     inkscape:zoom="5.6"
     inkscape:cx="76.620012"
     inkscape:cy="75.317769"
     inkscape:document-units="px"
     inkscape:current-layer="layer1"
     showgrid="false"
     inkscape:window-width="1680"
     inkscape:window-height="1026"
     inkscape:window-x="1920"
     inkscape:window-y="54"
     inkscape:window-maximized="1" />
  <metadata
     id="metadata4687">
    <rdf:RDF>
      <cc:Work
         rdf:about="">
        <dc:format>image/svg+xml</dc:format>
        <dc:type
           rdf:resource="http://purl.org/dc/dcmitype/StillImage" />
        <dc:title></dc:title>
      </cc:Work>
    </rdf:RDF>
  </metadata>
  <g
     inkscape:label="Layer 1"
     inkscape:groupmode="layer"
     id="layer1"
     transform="translate(0,-922.36218)">
    <path
       style="opacity:0.9;fill:#ff8800;fill-opacity:1;fill-rule:nonzero;stroke:none"
       d="m 41.3836,942.36256 c -1.12545,0 -3.37629,1.12543 -4.50172,2.25086 -1.12543,1.12543 -1.12544,2.25086 -1.12543,3.37629 l 0,50.74977 c -0.55197,-0.062 -1.11662,-0.1058 -1.68814,-0.1058 -7.15831,0 -12.97761,5.01352 -12.97761,11.21922 0,6.2058 5.8193,11.2543 12.97761,11.2543 7.15831,0 12.97761,-5.0485 12.97761,-11.2543 0,-0.1939 -0.024,-0.3711 -0.0351,-0.5627 l 0,-61.30077 c 0,-1.12543 0.0317,-2.28256 1.12543,-3.37629 1.09372,-1.09372 3.37629,-2.25086 4.50172,-2.25086 l -5.62715,0 -5.62715,0 z m 28.13574,5.62715 c -1.12545,0 -3.37629,1.12543 -4.50171,2.25086 -1.12543,1.12543 -1.12545,2.25086 -1.12543,3.37629 l 0,50.74984 c -0.55967,-0.064 -1.10835,-0.1058 -1.68815,-0.1058 -7.16049,0 -12.97761,5.0485 -12.97761,11.2543 0,6.2058 5.81712,11.2192 12.97761,11.2192 7.16049,0 12.94244,-5.0134 12.94244,-11.2192 l 0,-61.89862 c 0,-1.12543 0.0317,-2.28257 1.12543,-3.37629 1.09373,-1.09372 3.37629,-2.25086 4.50172,-2.25086 l -5.62715,0 -5.62715,0 z m 28.13574,5.62715 c -1.12545,0 -3.37628,1.12543 -4.50171,2.25086 -1.12543,1.12543 -1.12544,2.25086 -1.12543,3.37629 l 0,50.71469 c -0.55815,-0.064 -1.10992,-0.07 -1.68815,-0.07 -7.14107,0 -12.94244,5.0134 -12.94244,11.2191 0,6.2058 5.80137,11.2543 12.94244,11.2543 7.1276,0 12.88548,-5.0294 12.90727,-11.2191 l 0.0351,0 0,-61.89863 c 0,-1.12543 0.0317,-2.28256 1.12543,-3.37629 1.09372,-1.09372 3.37629,-2.25086 4.50171,-2.25086 l -5.62714,0 -5.62715,0 z"
       id="path4825"
       inkscape:connector-curvature="0" />
  </g>
</svg>
