<?xml version="1.0" encoding="UTF-8" standalone="no"?>
<!-- Created with Inkscape (http://www.inkscape.org/) -->

<svg
   xmlns:dc="http://purl.org/dc/elements/1.1/"
   xmlns:cc="http://creativecommons.org/ns#"
   xmlns:rdf="http://www.w3.org/1999/02/22-rdf-syntax-ns#"
   xmlns:svg="http://www.w3.org/2000/svg"
   xmlns="http://www.w3.org/2000/svg"
   xmlns:sodipodi="http://sodipodi.sourceforge.net/DTD/sodipodi-0.dtd"
   xmlns:inkscape="http://www.inkscape.org/namespaces/inkscape"
   width="24"
   height="24"
   id="svg4682"
   version="1.1"
   inkscape:version="0.91 r13725"
   sodipodi:docname="ic_popup_dim_normal.svg"
   inkscape:export-filename="/home/corbax/Dev/android/Icons/Test 1/ic_play_normal.png"
   inkscape:export-xdpi="90"
   inkscape:export-ydpi="90">
  <defs
     id="defs4684" />
  <sodipodi:namedview
     id="base"
     pagecolor="#ffffff"
     bordercolor="#666666"
     borderopacity="1.0"
     inkscape:pageopacity="0.0"
     inkscape:pageshadow="2"
     inkscape:zoom="15.839192"
     inkscape:cx="-6.6547011"
     inkscape:cy="20.749633"
     inkscape:document-units="px"
     inkscape:current-layer="layer1"
     showgrid="true"
     inkscape:window-width="1156"
     inkscape:window-height="1028"
     inkscape:window-x="303"
     inkscape:window-y="24"
     inkscape:window-maximized="0"
     inkscape:snap-bbox="true"
     inkscape:bbox-paths="true"
     inkscape:bbox-nodes="true"
     inkscape:snap-bbox-edge-midpoints="true"
     inkscape:snap-bbox-midpoints="true"
     inkscape:object-paths="true"
     inkscape:snap-intersection-paths="true"
     inkscape:object-nodes="true"
     inkscape:snap-smooth-nodes="true"
     inkscape:snap-midpoints="true"
     inkscape:snap-object-midpoints="true"
     inkscape:snap-center="true"
     inkscape:snap-text-baseline="true"
     inkscape:snap-page="true">
    <inkscape:grid
       type="xygrid"
       id="grid3002" />
  </sodipodi:namedview>
  <metadata
     id="metadata4687">
    <rdf:RDF>
      <cc:Work
         rdf:about="">
        <dc:format>image/svg+xml</dc:format>
        <dc:type
           rdf:resource="http://purl.org/dc/dcmitype/StillImage" />
        <dc:title />
      </cc:Work>
    </rdf:RDF>
  </metadata>
  <g
     inkscape:label="Layer 1"
     inkscape:groupmode="layer"
     id="layer1"
     transform="translate(0,-1028.3622)">
    <g
       id="g5269"
       style="font-size:16px;font-style:normal;font-variant:normal;font-weight:normal;font-stretch:normal;line-height:125%;letter-spacing:0px;word-spacing:0px;fill:#000000;fill-opacity:1;stroke:none;font-family:Roboto;-inkscape-font-specification:Roboto"
       transform="translate(-64,740.00002)" />
    <g
       id="g8420"
       transform="translate(-540,553.00002)"
       style="fill:#212121;fill-opacity:1">
      <rect
         y="486.36218"
         x="547"
         height="5"
         width="7"
         id="rect8370"
         style="color:#000000;display:inline;overflow:visible;visibility:visible;opacity:1;fill:#212121;fill-opacity:1;fill-rule:nonzero;stroke:none;stroke-width:0;stroke-linecap:round;stroke-linejoin:round;stroke-miterlimit:4;stroke-dasharray:none;stroke-dashoffset:0;stroke-opacity:1;marker:none;enable-background:accumulate" />
      <path
         inkscape:connector-curvature="0"
         id="path7904-2"
         d="m 545.5,480.36218 c -0.831,0 -1.5,0.669 -1.5,1.5 l 1.5,0 0,-1.5 z m 1.44336,0 0,1.5 1.4453,0 0,-1.5 -1.4453,0 z m 2.88867,0 0,1.5 1.44531,0 0,-1.5 -1.44531,0 z m 2.89063,0 0,1.5 1.44531,0 0,-1.5 -1.44531,0 z m 2.88867,0 0,1.5 1.44531,0 0,-1.5 -1.44531,0 z m 2.88867,0 0,1.5 1.5,0 c 0,-0.831 -0.669,-1.5 -1.5,-1.5 z m -14.5,3.07031 0,1.57227 1.5,0 0,-1.57227 -1.5,0 z m 14.5,0 0,1.57227 1.5,0 0,-1.57227 -1.5,0 z m -14.5,3.14258 0,1.57422 1.5,0 0,-1.57422 -1.5,0 z m 14.5,0 0,1.57422 1.5,0 0,-1.57422 -1.5,0 z m -14.5,3.14453 0,1.57227 1.5,0 0,-1.57227 -1.5,0 z m 14.5,0 0,1.57227 1.5,0 0,-1.57227 -1.5,0 z m -14.5,3.14258 c 0,0.831 0.669,1.5 1.5,1.5 l 0,-1.5 -1.5,0 z m 2.94336,0 0,1.5 1.44531,0 0,-1.5 -1.44531,0 z m 2.88867,0 0,1.5 1.44531,0 0,-1.5 -1.44531,0 z m 2.89063,0 0,1.5 1.44531,0 0,-1.5 -1.44531,0 z m 2.88867,0 0,1.5 1.44531,0 0,-1.5 -1.44531,0 z m 2.88867,0 0,1.5 c 0.831,0 1.5,-0.669 1.5,-1.5 l -1.5,0 z"
         style="color:#000000;display:inline;overflow:visible;visibility:visible;opacity:1;fill:#212121;fill-opacity:1;fill-rule:nonzero;stroke:none;stroke-width:0;stroke-linecap:round;stroke-linejoin:round;stroke-miterlimit:4;stroke-dasharray:none;stroke-dashoffset:0;stroke-opacity:1;marker:none;enable-background:accumulate" />
    </g>
  </g>
</svg>
