<?xml version="1.0" encoding="UTF-8" standalone="no"?>
<!-- Created with Inkscape (http://www.inkscape.org/) -->

<svg
   xmlns:dc="http://purl.org/dc/elements/1.1/"
   xmlns:cc="http://creativecommons.org/ns#"
   xmlns:rdf="http://www.w3.org/1999/02/22-rdf-syntax-ns#"
   xmlns:svg="http://www.w3.org/2000/svg"
   xmlns="http://www.w3.org/2000/svg"
   xmlns:sodipodi="http://sodipodi.sourceforge.net/DTD/sodipodi-0.dtd"
   xmlns:inkscape="http://www.inkscape.org/namespaces/inkscape"
   width="130"
   height="130"
   id="svg4682"
   version="1.1"
   inkscape:version="0.48.4 r9939"
   sodipodi:docname="ic_playlist_normal.svg"
   inkscape:export-filename="/home/corbax/Dev/android/Icons/Test 1/ic_play_normal.png"
   inkscape:export-xdpi="90"
   inkscape:export-ydpi="90">
  <defs
     id="defs4684" />
  <sodipodi:namedview
     id="base"
     pagecolor="#ffffff"
     bordercolor="#666666"
     borderopacity="1.0"
     inkscape:pageopacity="0.0"
     inkscape:pageshadow="2"
     inkscape:zoom="5.6"
     inkscape:cx="55.370012"
     inkscape:cy="75.317769"
     inkscape:document-units="px"
     inkscape:current-layer="layer1"
     showgrid="false"
     inkscape:window-width="1680"
     inkscape:window-height="1026"
     inkscape:window-x="1920"
     inkscape:window-y="54"
     inkscape:window-maximized="1" />
  <metadata
     id="metadata4687">
    <rdf:RDF>
      <cc:Work
         rdf:about="">
        <dc:format>image/svg+xml</dc:format>
        <dc:type
           rdf:resource="http://purl.org/dc/dcmitype/StillImage" />
        <dc:title></dc:title>
      </cc:Work>
    </rdf:RDF>
  </metadata>
  <g
     inkscape:label="Layer 1"
     inkscape:groupmode="layer"
     id="layer1"
     transform="translate(0,-922.36218)">
    <path
       style="opacity:0.9;fill:#fafafa;fill-opacity:1;fill-rule:nonzero;stroke:none"
       d="m 41.383599,942.36256 c -1.125451,0 -3.376287,1.12543 -4.501715,2.25086 -1.125429,1.12543 -1.12544,2.25086 -1.125429,3.37629 l 0,50.74987 c -0.551978,-0.062 -1.116628,-0.1058 -1.688143,-0.1058 -7.158301,0 -12.977601,5.01332 -12.977601,11.21902 0,6.2059 5.8193,11.2543 12.977601,11.2543 7.158301,0 12.9776,-5.0484 12.9776,-11.2543 0,-0.1939 -0.02397,-0.3711 -0.03511,-0.5627 l 0,-61.30068 c 0,-1.12542 0.03174,-2.28256 1.125429,-3.37628 1.093725,-1.09372 3.376286,-2.25086 4.501715,-2.25086 l -5.627144,0 -5.627144,0 z m 28.13572,5.62715 c -1.125452,0 -3.376287,1.12542 -4.501716,2.25085 -1.125428,1.12543 -1.12544,2.25086 -1.125428,3.37629 l 0,50.74985 c -0.559665,-0.064 -1.108345,-0.1058 -1.688144,-0.1058 -7.160484,0 -12.9776,5.0486 -12.9776,11.2543 0,6.2057 5.817116,11.2191 12.9776,11.2191 7.160485,0 12.942432,-5.0134 12.942432,-11.2191 l 0,-61.89863 c 0,-1.12543 0.03174,-2.28256 1.125428,-3.37629 1.093726,-1.09371 3.376287,-2.25086 4.501715,-2.25086 l -5.627143,0 -5.627144,0 z m 28.135719,5.62714 c -1.125451,0 -3.376286,1.12543 -4.501715,2.25086 -1.125429,1.12543 -1.12544,2.25085 -1.125429,3.37628 l 0,50.71461 c -0.558145,-0.064 -1.10992,-0.07 -1.688143,-0.07 -7.141071,0 -12.942431,5.0135 -12.942431,11.2192 0,6.2057 5.80136,11.2543 12.942431,11.2543 7.127588,0 12.885599,-5.0295 12.907319,-11.2192 l 0.0351,0 0,-61.89854 c 0,-1.12543 0.0315,-2.28257 1.12543,-3.37629 1.09369,-1.09371 3.37625,-2.25086 4.50168,-2.25086 l -5.62711,0 -5.627145,0 z"
       id="path4295"
       inkscape:connector-curvature="0" />
  </g>
</svg>
