<?xml version="1.0" encoding="UTF-8" standalone="no"?>
<!-- Created with Inkscape (http://www.inkscape.org/) -->

<svg
   xmlns:dc="http://purl.org/dc/elements/1.1/"
   xmlns:cc="http://creativecommons.org/ns#"
   xmlns:rdf="http://www.w3.org/1999/02/22-rdf-syntax-ns#"
   xmlns:svg="http://www.w3.org/2000/svg"
   xmlns="http://www.w3.org/2000/svg"
   xmlns:sodipodi="http://sodipodi.sourceforge.net/DTD/sodipodi-0.dtd"
   xmlns:inkscape="http://www.inkscape.org/namespaces/inkscape"
   width="24"
   height="24"
   id="svg4682"
   version="1.1"
   inkscape:version="0.92.3 (unknown)"
   sodipodi:docname="ic_renderer_on_player.svg"
   inkscape:export-filename="/home/corbax/Dev/android/Icons/Test 1/ic_play_normal.png"
   inkscape:export-xdpi="90"
   inkscape:export-ydpi="90">
  <defs
     id="defs4684" />
  <sodipodi:namedview
     id="base"
     pagecolor="#ffffff"
     bordercolor="#666666"
     borderopacity="1.0"
     inkscape:pageopacity="0.0"
     inkscape:pageshadow="2"
     inkscape:zoom="15.839192"
     inkscape:cx="5.9576266"
     inkscape:cy="21.701065"
     inkscape:document-units="px"
     inkscape:current-layer="layer1"
     showgrid="true"
     inkscape:window-width="1920"
     inkscape:window-height="1043"
     inkscape:window-x="1920"
     inkscape:window-y="0"
     inkscape:window-maximized="1">
    <inkscape:grid
       type="xygrid"
       id="grid3956"
       empspacing="4"
       visible="true"
       enabled="true"
       snapvisiblegridlinesonly="true" />
  </sodipodi:namedview>
  <metadata
     id="metadata4687">
    <rdf:RDF>
      <cc:Work
         rdf:about="">
        <dc:format>image/svg+xml</dc:format>
        <dc:type
           rdf:resource="http://purl.org/dc/dcmitype/StillImage" />
        <dc:title></dc:title>
      </cc:Work>
    </rdf:RDF>
  </metadata>
  <g
     inkscape:label="Layer 1"
     inkscape:groupmode="layer"
     id="layer1"
     transform="translate(0,-1028.3622)">
    <path
       style="color:#000000;display:inline;overflow:visible;visibility:visible;opacity:1;vector-effect:none;fill:#212121;fill-opacity:1;fill-rule:evenodd;stroke:none;stroke-width:2;stroke-linecap:butt;stroke-linejoin:round;stroke-miterlimit:4;stroke-dasharray:none;stroke-dashoffset:4.19999981;stroke-opacity:1;marker:none;enable-background:accumulate"
       d="m 5.5,1033.3622 c -0.831,0 -1.5,0.669 -1.5,1.5 v 3.5 h 1.5 v -3.5 h 13 v 11 H 13 v 1.5 h 5.5 c 0.831,0 1.5,-0.669 1.5,-1.5 v -11 c 0,-0.831 -0.669,-1.5 -1.5,-1.5 z m 1.5,3 v 2.5273 c 2.5562,0.9062 4.5675,2.9168 5.4746,5.4727 H 17 v -8 z m -3,3.5 v 1.5 c 3.3137,0 6,2.6863 6,6 h 1.5 c 0,-4.1422 -3.3579,-7.5 -7.5,-7.5 z m 0,3 v 1.5 c 1.6569,0 3,1.3431 3,3 h 1.5 c 0,-2.4853 -2.0147,-4.5 -4.5,-4.5 z m 0,3 v 1.5 h 1.5 c 0,-0.8284 -0.6716,-1.5 -1.5,-1.5 z"
       id="path8458-9"
       inkscape:connector-curvature="0"
       sodipodi:nodetypes="sscccccccssssscccccccccccccccccccc" />
  </g>
</svg>
