<?xml version="1.0" encoding="UTF-8" standalone="no"?>
<!-- Created with Inkscape (http://www.inkscape.org/) -->

<svg
   xmlns:dc="http://purl.org/dc/elements/1.1/"
   xmlns:cc="http://creativecommons.org/ns#"
   xmlns:rdf="http://www.w3.org/1999/02/22-rdf-syntax-ns#"
   xmlns:svg="http://www.w3.org/2000/svg"
   xmlns="http://www.w3.org/2000/svg"
   xmlns:sodipodi="http://sodipodi.sourceforge.net/DTD/sodipodi-0.dtd"
   xmlns:inkscape="http://www.inkscape.org/namespaces/inkscape"
   width="130"
   height="130"
   id="svg4682"
   version="1.1"
   inkscape:version="0.48.4 r9939"
   sodipodi:docname="ic_repeat_one.svg"
   inkscape:export-filename="/home/corbax/Dev/android/Icons/Test 1/ic_play_normal.png"
   inkscape:export-xdpi="90"
   inkscape:export-ydpi="90">
  <defs
     id="defs4684">
    <inkscape:path-effect
       effect="spiro"
       id="path-effect4396"
       is_visible="true" />
    <inkscape:path-effect
       is_visible="true"
       id="path-effect4421"
       effect="spiro" />
    <inkscape:path-effect
       is_visible="true"
       id="path-effect4668"
       effect="spiro" />
    <inkscape:path-effect
       effect="spiro"
       id="path-effect4665"
       is_visible="true" />
    <inkscape:path-effect
       effect="spiro"
       id="path-effect4662"
       is_visible="true" />
  </defs>
  <sodipodi:namedview
     id="base"
     pagecolor="#ffffff"
     bordercolor="#666666"
     borderopacity="1.0"
     inkscape:pageopacity="0.0"
     inkscape:pageshadow="2"
     inkscape:zoom="2.8"
     inkscape:cx="-61.998965"
     inkscape:cy="101.10553"
     inkscape:document-units="px"
     inkscape:current-layer="layer1"
     showgrid="false"
     inkscape:window-width="1680"
     inkscape:window-height="1026"
     inkscape:window-x="1920"
     inkscape:window-y="24"
     inkscape:window-maximized="1" />
  <metadata
     id="metadata4687">
    <rdf:RDF>
      <cc:Work
         rdf:about="">
        <dc:format>image/svg+xml</dc:format>
        <dc:type
           rdf:resource="http://purl.org/dc/dcmitype/StillImage" />
        <dc:title />
      </cc:Work>
    </rdf:RDF>
  </metadata>
  <g
     inkscape:label="Layer 1"
     inkscape:groupmode="layer"
     id="layer1"
     transform="translate(0,-922.36218)">
    <g
       id="g3012"
       transform="translate(110.48224,-8.148995)">
      <path
         inkscape:connector-curvature="0"
         id="path6137"
         d="m -31.513496,993.02047 c -10.5674,0.53566 -18.96875,9.29943 -18.96875,20.00003 0,11.0457 8.95431,19.9999 20,19.9999 11.04569,0 20,-8.9542 20,-19.9999 0,-11.0457 -8.95431,-20.00003 -20,-20.00003 -0.34518,0 -0.69037,-0.0173 -1.03125,0 z m -0.6875,5.25 3.96875,0 0,26.12503 6.53125,0 0,3.3437 -16.96875,0 0,-3.3437 6.5,0 0,-22.5 -7.09375,1.4375 0,-3.62503 7.0625,-1.4375 z"
         style="opacity:0.9;fill:#ff8800;fill-opacity:1;stroke:none" />
      <path
         id="path6139"
         d="m -54.232246,953.02047 a 0.39413909,0.39518563 0 0 0 -0.25,0.375 l 0,4.625 -11,0 c -0.34625,1.1e-4 -0.68943,-0.0172 -1.03125,0 -10.59657,0.53368 -18.96875,9.26625 -18.96875,20 l 0,35.00003 c 0,11.08 8.92,20.0035 20,19.9999 l 5,0 8.9375,0 9.8125,0 c -6.98613,-3.9453 -11.71875,-11.4263 -11.71875,-19.9999 l -2.6875,0 c -5.17067,0 -9.34375,-4.1731 -9.34375,-9.3438 l 0,-16.34373 c 0,-5.17067 4.17308,-9.30939 9.34375,-9.3125 l 1.65625,0 0,4.59375 a 0.39413909,0.39518563 0 0 0 0.59375,0.34375 l 25.21875,-14.59375 a 0.39413909,0.39518563 0 0 0 0,-0.6875 l -25.21875,-14.59375 a 0.39413909,0.39518563 0 0 0 -0.3125,-0.0625 0.39413909,0.39518563 0 0 0 -0.0312,0 z"
         style="opacity:0.9;fill:#ff8800;fill-opacity:1;fill-rule:nonzero;stroke:none"
         inkscape:connector-curvature="0" />
    </g>
  </g>
</svg>
