<?xml version="1.0" encoding="UTF-8" standalone="no"?>
<!-- Created with Inkscape (http://www.inkscape.org/) -->

<svg
   xmlns:dc="http://purl.org/dc/elements/1.1/"
   xmlns:cc="http://creativecommons.org/ns#"
   xmlns:rdf="http://www.w3.org/1999/02/22-rdf-syntax-ns#"
   xmlns:svg="http://www.w3.org/2000/svg"
   xmlns="http://www.w3.org/2000/svg"
   xmlns:sodipodi="http://sodipodi.sourceforge.net/DTD/sodipodi-0.dtd"
   xmlns:inkscape="http://www.inkscape.org/namespaces/inkscape"
   width="24"
   height="24"
   id="svg4682"
   version="1.1"
   inkscape:version="0.92.3 (unknown)"
   sodipodi:docname="ic_rotate_player.svg"
   inkscape:export-filename="/home/corbax/Dev/android/Icons/Test 1/ic_play_normal.png"
   inkscape:export-xdpi="90"
   inkscape:export-ydpi="90">
  <defs
     id="defs4684" />
  <sodipodi:namedview
     id="base"
     pagecolor="#ffffff"
     bordercolor="#666666"
     borderopacity="1.0"
     inkscape:pageopacity="0.0"
     inkscape:pageshadow="2"
     inkscape:zoom="15.839192"
     inkscape:cx="-4.1465356"
     inkscape:cy="14.846921"
     inkscape:document-units="px"
     inkscape:current-layer="layer1"
     showgrid="true"
     inkscape:window-width="1920"
     inkscape:window-height="1043"
     inkscape:window-x="1920"
     inkscape:window-y="0"
     inkscape:window-maximized="1">
    <inkscape:grid
       type="xygrid"
       id="grid3956"
       empspacing="4"
       visible="true"
       enabled="true"
       snapvisiblegridlinesonly="true" />
  </sodipodi:namedview>
  <metadata
     id="metadata4687">
    <rdf:RDF>
      <cc:Work
         rdf:about="">
        <dc:format>image/svg+xml</dc:format>
        <dc:type
           rdf:resource="http://purl.org/dc/dcmitype/StillImage" />
        <dc:title></dc:title>
      </cc:Work>
    </rdf:RDF>
  </metadata>
  <g
     inkscape:label="Layer 1"
     inkscape:groupmode="layer"
     id="layer1"
     transform="translate(0,-1028.3622)">
    <path
       style="color:#000000;display:inline;overflow:visible;visibility:visible;opacity:1;vector-effect:none;fill:#212121;fill-opacity:1;fill-rule:nonzero;stroke:none;stroke-width:2;stroke-linecap:round;stroke-linejoin:round;stroke-miterlimit:4;stroke-dasharray:none;stroke-dashoffset:0;stroke-opacity:1;marker:none;paint-order:markers fill stroke;enable-background:accumulate"
       d="m 13,1031.3622 c -0.4088,0 -0.670347,0.024 -0.935547,0.064 l 3.935547,3.936 1.064453,-1.0645 c 1.5374,1.2319 2.433147,3.0945 2.435547,5.0645 H 21 c 0,-4.4183 -3.5817,-8 -8,-8 z m -2.978516,1.6211 c -0.4052,-0.01 -0.795531,0.1528 -1.082031,0.4394 l -3.878906,3.879 c -0.5856,0.5857 -0.5856,1.5353 0,2.121 l 7.878906,7.879 c 0.5857,0.5856 1.535394,0.5856 2.121094,0 l 3.878906,-3.879 c 0.5856,-0.5857 0.5856,-1.5353 0,-2.121 l -7.878906,-7.879 c -0.276,-0.2761 -0.648763,-0.4337 -1.039063,-0.4394 z M 10,1034.8622 l 7.5,7.5 -3.5,3.5 -7.5,-7.5 z m -7,6.5 c 0,4.4183 3.5817,8 8,8 0.4088,0 0.670347,-0.024 0.935547,-0.064 L 8,1045.3622 6.935547,1046.4267 C 5.398147,1045.1948 4.5024,1043.3322 4.5,1041.3622 Z"
       id="path7882"
       inkscape:connector-curvature="0" />
  </g>
</svg>
