<?xml version="1.0" encoding="UTF-8" standalone="no"?>
<!-- Created with Inkscape (http://www.inkscape.org/) -->

<svg
   xmlns:dc="http://purl.org/dc/elements/1.1/"
   xmlns:cc="http://creativecommons.org/ns#"
   xmlns:rdf="http://www.w3.org/1999/02/22-rdf-syntax-ns#"
   xmlns:svg="http://www.w3.org/2000/svg"
   xmlns="http://www.w3.org/2000/svg"
   xmlns:sodipodi="http://sodipodi.sourceforge.net/DTD/sodipodi-0.dtd"
   xmlns:inkscape="http://www.inkscape.org/namespaces/inkscape"
   width="130"
   height="130"
   id="svg4682"
   version="1.1"
   inkscape:version="0.48.4 r9939"
   sodipodi:docname="ic_repeat_glow.svg"
   inkscape:export-filename="/home/corbax/Dev/android/Icons/Test 1/ic_play_normal.png"
   inkscape:export-xdpi="90"
   inkscape:export-ydpi="90">
  <defs
     id="defs4684">
    <inkscape:path-effect
       effect="spiro"
       id="path-effect4396"
       is_visible="true" />
    <inkscape:path-effect
       is_visible="true"
       id="path-effect4421"
       effect="spiro" />
    <inkscape:path-effect
       is_visible="true"
       id="path-effect4668"
       effect="spiro" />
    <inkscape:path-effect
       effect="spiro"
       id="path-effect4665"
       is_visible="true" />
    <inkscape:path-effect
       effect="spiro"
       id="path-effect4662"
       is_visible="true" />
  </defs>
  <sodipodi:namedview
     id="base"
     pagecolor="#ffffff"
     bordercolor="#666666"
     borderopacity="1.0"
     inkscape:pageopacity="0.0"
     inkscape:pageshadow="2"
     inkscape:zoom="3.959798"
     inkscape:cx="36.481242"
     inkscape:cy="73.695053"
     inkscape:document-units="px"
     inkscape:current-layer="layer1"
     showgrid="false"
     inkscape:window-width="1680"
     inkscape:window-height="1026"
     inkscape:window-x="1920"
     inkscape:window-y="54"
     inkscape:window-maximized="1" />
  <metadata
     id="metadata4687">
    <rdf:RDF>
      <cc:Work
         rdf:about="">
        <dc:format>image/svg+xml</dc:format>
        <dc:type
           rdf:resource="http://purl.org/dc/dcmitype/StillImage" />
        <dc:title></dc:title>
      </cc:Work>
    </rdf:RDF>
  </metadata>
  <g
     inkscape:label="Layer 1"
     inkscape:groupmode="layer"
     id="layer1"
     transform="translate(0,-922.36218)">
    <g
       transform="translate(-1422.8319,300.06359)"
       id="g4791"
       style="opacity:0.9">
      <path
         sodipodi:nodetypes="ccccczzzzccczzzzzzc"
         inkscape:connector-curvature="0"
         inkscape:original-d="m 1487.8438,649.85661 0,-5 15,20 -15,20 0,-5 c 0,0 -8,0 -10,0 -2,0 -2,0 -4,1 -2,1 -1,2.33333 -1,4 0,1.66667 0,3.33333 0,5 0,1.66667 4.8214,3.82149 6,5 1.1785,1.17851 23,2 24,0 -8.8468,17.18292 -12.6821,12.70624 0,30 0,0 -29.1667,0 -35,0 -5.8334,0 -13.8215,-3.82149 -15,-5 -1.1786,-1.17851 -5,-3.33333 -5,-15 0,-11.66667 0,-23.33333 0,-35 0,-11.66666 3.8214,-13.82149 5,-15 1.1785,-1.17851 8.3333,-5 15,-5 6.6666,0 20,0 20,0 z"
         inkscape:path-effect="#path-effect4662"
         id="path4628"
         d="m 1487.8438,649.85661 0,-5 15,20 -15,20 0,-5 -10,0 c -0.706,0 -1.4165,-0.005 -2.112,0.11613 -0.6955,0.12116 -1.3888,0.38467 -1.888,0.88387 -0.4992,0.4992 -0.7627,1.19253 -0.8839,1.88802 -0.1211,0.6955 -0.1161,1.40601 -0.1161,2.11198 l 0,5 c 0,0.77049 0.02,1.55364 0.2578,2.28649 0.2378,0.73284 0.6926,1.39701 1.306,1.8632 0.6135,0.46619 1.3652,0.72847 2.1286,0.83249 0.7634,0.10402 1.5383,0.06 2.3076,0.0178 7.992,-0.438 16.008,-0.438 24,0 l 0,30 -35,0 c -2.7169,0 -5.4694,-0.088 -8.0719,-0.86791 -2.6026,-0.77993 -5.007,-2.21095 -6.9281,-4.13209 -1.9211,-1.92114 -3.3522,-4.32551 -4.1321,-6.92806 -0.7799,-2.60255 -0.8679,-5.35504 -0.8679,-8.07194 l 0,-35 c 0,-2.7169 0.088,-5.46939 0.8679,-8.07194 0.7799,-2.60255 2.211,-5.00692 4.1321,-6.92806 1.9211,-1.92114 4.3255,-3.35216 6.9281,-4.13209 2.6025,-0.77992 5.355,-0.86791 8.0719,-0.86791 l 20,0"
         style="fill:#ff8800;fill-opacity:1;stroke:#fafafa;stroke-width:2;stroke-linecap:butt;stroke-linejoin:round;stroke-miterlimit:4;stroke-opacity:1;stroke-dasharray:none" />
      <path
         transform="matrix(1.0462275,0,0,1.0462275,1309.6594,-166.9958)"
         d="m 205,832.36218 c 0,11.0457 -8.95431,20 -20,20 -11.04569,0 -20,-8.9543 -20,-20 0,-11.04569 8.95431,-20 20,-20 11.04569,0 20,8.95431 20,20 z"
         sodipodi:ry="20"
         sodipodi:rx="20"
         sodipodi:cy="832.36218"
         sodipodi:cx="185"
         id="path4630"
         style="fill:#ff8800;fill-opacity:1;stroke:#fafafa;stroke-width:1.91163015;stroke-linejoin:miter;stroke-miterlimit:4;stroke-opacity:1;stroke-dasharray:none"
         sodipodi:type="arc" />
      <text
         sodipodi:linespacing="125%"
         id="text4632"
         y="718.57538"
         x="1490"
         style="font-size:40.41395187px;font-style:normal;font-weight:normal;line-height:125%;letter-spacing:0px;word-spacing:0px;fill:#fafafa;fill-opacity:1;stroke:none;font-family:Sans"
         xml:space="preserve"><tspan
           style="font-style:normal;font-variant:normal;font-weight:normal;font-stretch:normal;fill:#fafafa;fill-opacity:1;stroke:none;font-family:OpenSymbol;-inkscape-font-specification:OpenSymbol"
           y="718.57538"
           x="1490"
           id="tspan4634"
           sodipodi:role="line">1</tspan></text>
    </g>
  </g>
</svg>
