<?xml version="1.0" encoding="UTF-8" standalone="no"?>
<!-- Created with Inkscape (http://www.inkscape.org/) -->

<svg
   xmlns:dc="http://purl.org/dc/elements/1.1/"
   xmlns:cc="http://creativecommons.org/ns#"
   xmlns:rdf="http://www.w3.org/1999/02/22-rdf-syntax-ns#"
   xmlns:svg="http://www.w3.org/2000/svg"
   xmlns="http://www.w3.org/2000/svg"
   xmlns:sodipodi="http://sodipodi.sourceforge.net/DTD/sodipodi-0.dtd"
   xmlns:inkscape="http://www.inkscape.org/namespaces/inkscape"
   width="130"
   height="130"
   id="svg4682"
   version="1.1"
   inkscape:version="0.48.4 r9939"
   sodipodi:docname="ic_shuffle_pressed.svg"
   inkscape:export-filename="/home/corbax/Dev/android/Icons/Test 1/ic_play_normal.png"
   inkscape:export-xdpi="90"
   inkscape:export-ydpi="90">
  <defs
     id="defs4684">
    <inkscape:path-effect
       effect="spiro"
       id="path-effect4396"
       is_visible="true" />
    <inkscape:path-effect
       is_visible="true"
       id="path-effect4421"
       effect="spiro" />
    <inkscape:path-effect
       is_visible="true"
       id="path-effect4668"
       effect="spiro" />
    <inkscape:path-effect
       effect="spiro"
       id="path-effect4665"
       is_visible="true" />
    <inkscape:path-effect
       effect="spiro"
       id="path-effect4662"
       is_visible="true" />
    <inkscape:path-effect
       effect="spiro"
       id="path-effect4674"
       is_visible="true" />
    <inkscape:path-effect
       is_visible="true"
       id="path-effect4671"
       effect="spiro" />
  </defs>
  <sodipodi:namedview
     id="base"
     pagecolor="#ffffff"
     bordercolor="#666666"
     borderopacity="1.0"
     inkscape:pageopacity="0.0"
     inkscape:pageshadow="2"
     inkscape:zoom="3.959798"
     inkscape:cx="-23.622834"
     inkscape:cy="70.288326"
     inkscape:document-units="px"
     inkscape:current-layer="layer1"
     showgrid="false"
     inkscape:window-width="1680"
     inkscape:window-height="1026"
     inkscape:window-x="1920"
     inkscape:window-y="24"
     inkscape:window-maximized="1" />
  <metadata
     id="metadata4687">
    <rdf:RDF>
      <cc:Work
         rdf:about="">
        <dc:format>image/svg+xml</dc:format>
        <dc:type
           rdf:resource="http://purl.org/dc/dcmitype/StillImage" />
        <dc:title />
      </cc:Work>
    </rdf:RDF>
  </metadata>
  <g
     inkscape:label="Layer 1"
     inkscape:groupmode="layer"
     id="layer1"
     transform="translate(0,-922.36218)">
    <g
       id="g3003"
       transform="translate(153.38835,-32.170041)">
      <path
         style="fill:#ff8800;fill-opacity:1;stroke:none"
         d="m -136.88835,1057.0322 c -1,0 -2,-1 -2,-2 l 0,-16 c 0,-1 1,-2 2,-2 3,0.013 9,-0.987 11,-2.987 14.78929,-14.7912 28.663112,-33.6631 44.000002,-49.00001 2,-2 4,-3 8,-3 5.99999,-0.0154 9,-0.0128 15,-0.0128 l 0,19.99981 -7,0.013 c -3,0 -3.91189,0.903 -6,3 -16,16.0128 -29.000002,34.013 -44.000002,49.0002 -2,1.9999 -4,2.9999 -8,2.9999 z"
         id="path6109"
         inkscape:connector-curvature="0"
         sodipodi:nodetypes="sssccccccccccs" />
      <path
         sodipodi:type="inkscape:offset"
         inkscape:radius="0.70268315"
         inkscape:original="M 520 551.375 L 520 603.34375 L 565 577.375 L 520 551.375 z "
         style="fill:#ff8800;fill-opacity:1;fill-rule:nonzero;stroke:none"
         id="path6111"
         d="m 519.8125,550.6875 a 0.70275342,0.70275342 0 0 0 -0.5,0.6875 l 0,51.96875 a 0.70275342,0.70275342 0 0 0 1.03125,0.59375 l 45,-25.96875 a 0.70275342,0.70275342 0 0 0 0,-1.1875 l -45,-26 a 0.70275342,0.70275342 0 0 0 -0.53125,-0.0937 z"
         transform="matrix(0.56084977,0,0,0.56233897,-355.14456,667.36864)" />
      <path
         id="path6113"
         d="m -136.88835,982.04504 c -1,9.9e-4 -2,1 -2,2 l 0,15.99996 c 0,1 1,2 2,2 3,-0.013 9,1 11,3 3.82659,3.8271 7.59853,7.9147 11.34375,12.1563 4.49955,-5.1725 9.00794,-10.5243 13.59375,-15.8438 -4.88558,-5.65938 -9.78243,-11.1618 -14.9375,-16.31246 -2,-2 -4,-3 -8,-3 l -13,0 z m 53.625002,39.81246 c -4.60782,5.2734 -9.11375,10.5846 -13.625,15.8438 4.90189,5.6487 9.8589,11.2026 15,16.3437 2,2 4,3 8,3 5.99999,0.015 9,0 15,0 l 0,-20 -7,0 c -3,0 -3.91189,-0.9029 -6,-3 -3.95781,-3.9609 -7.70864,-8.0589 -11.375,-12.1875 z"
         style="fill:#ff8800;fill-opacity:1;stroke:none"
         inkscape:connector-curvature="0" />
      <path
         transform="matrix(0.56084977,0,0,0.56233897,-355.14456,722.36864)"
         d="m 519.8125,550.6875 a 0.70275342,0.70275342 0 0 0 -0.5,0.6875 l 0,51.96875 a 0.70275342,0.70275342 0 0 0 1.03125,0.59375 l 45,-25.96875 a 0.70275342,0.70275342 0 0 0 0,-1.1875 l -45,-26 a 0.70275342,0.70275342 0 0 0 -0.53125,-0.0937 z"
         id="path6115"
         style="fill:#ff8800;fill-opacity:1;fill-rule:nonzero;stroke:none"
         inkscape:original="M 520 551.375 L 520 603.34375 L 565 577.375 L 520 551.375 z "
         inkscape:radius="0.70268315"
         sodipodi:type="inkscape:offset" />
    </g>
  </g>
</svg>
