<?xml version="1.0" encoding="UTF-8" standalone="no"?>
<!-- Created with Inkscape (http://www.inkscape.org/) -->

<svg
   xmlns:dc="http://purl.org/dc/elements/1.1/"
   xmlns:cc="http://creativecommons.org/ns#"
   xmlns:rdf="http://www.w3.org/1999/02/22-rdf-syntax-ns#"
   xmlns:svg="http://www.w3.org/2000/svg"
   xmlns="http://www.w3.org/2000/svg"
   xmlns:sodipodi="http://sodipodi.sourceforge.net/DTD/sodipodi-0.dtd"
   xmlns:inkscape="http://www.inkscape.org/namespaces/inkscape"
   width="130"
   height="130"
   id="svg4682"
   version="1.1"
   inkscape:version="0.48.4 r9939"
   sodipodi:docname="ic_shuffle_glow.svg"
   inkscape:export-filename="/home/corbax/Dev/android/Icons/Test 1/ic_play_normal.png"
   inkscape:export-xdpi="90"
   inkscape:export-ydpi="90">
  <defs
     id="defs4684">
    <inkscape:path-effect
       effect="spiro"
       id="path-effect4396"
       is_visible="true" />
    <inkscape:path-effect
       is_visible="true"
       id="path-effect4421"
       effect="spiro" />
    <inkscape:path-effect
       is_visible="true"
       id="path-effect4668"
       effect="spiro" />
    <inkscape:path-effect
       effect="spiro"
       id="path-effect4665"
       is_visible="true" />
    <inkscape:path-effect
       effect="spiro"
       id="path-effect4662"
       is_visible="true" />
    <inkscape:path-effect
       effect="spiro"
       id="path-effect4674"
       is_visible="true" />
    <inkscape:path-effect
       is_visible="true"
       id="path-effect4671"
       effect="spiro" />
    <inkscape:path-effect
       is_visible="true"
       id="path-effect4311"
       effect="spiro" />
    <inkscape:path-effect
       effect="spiro"
       id="path-effect4313"
       is_visible="true" />
  </defs>
  <sodipodi:namedview
     id="base"
     pagecolor="#ffffff"
     bordercolor="#666666"
     borderopacity="1.0"
     inkscape:pageopacity="0.0"
     inkscape:pageshadow="2"
     inkscape:zoom="3.959798"
     inkscape:cx="36.481242"
     inkscape:cy="73.695053"
     inkscape:document-units="px"
     inkscape:current-layer="layer1"
     showgrid="false"
     inkscape:window-width="1680"
     inkscape:window-height="1026"
     inkscape:window-x="1920"
     inkscape:window-y="54"
     inkscape:window-maximized="1" />
  <metadata
     id="metadata4687">
    <rdf:RDF>
      <cc:Work
         rdf:about="">
        <dc:format>image/svg+xml</dc:format>
        <dc:type
           rdf:resource="http://purl.org/dc/dcmitype/StillImage" />
        <dc:title></dc:title>
      </cc:Work>
    </rdf:RDF>
  </metadata>
  <g
     inkscape:label="Layer 1"
     inkscape:groupmode="layer"
     id="layer1"
     transform="translate(0,-922.36218)">
    <g
       transform="translate(-1152.4281,502.50557)"
       id="g4574"
       style="opacity:0.9">
      <path
         sodipodi:nodetypes="ccccccccccccccccccccc"
         inkscape:connector-curvature="0"
         inkscape:original-d="m 1202.4226,450.31852 c -3.3334,0 -6.6667,-3 -10.0001,-3 l -14.9889,0.048 0,30 5,0 c 1.6667,0 8.3223,2.95201 9.9889,2.95201 3.3334,5 6.6667,7 10.0001,12 l 10,15 c 3.3333,5 6.6666,7 10,12 3.3333,0 6.6666,3 10,3 l 9,0 1,0 0,5 c -2.5575,12.68004 11.561,-16.56118 15,-20 -7.1714,-4.05825 -10,-10 -15,-20 l 0,5 -1,0 c -3,0 -6,-3 -9,-3 -3.3334,-5 -6.6667,-7 -10,-12 l -10,-15 c -3.3334,-5 -6.6667,-7 -10,-12.00001 z"
         inkscape:path-effect="#path-effect4311"
         id="path4576"
         d="m 1202.4226,450.31852 c -1.3254,-1.19842 -2.9517,-2.05201 -4.6793,-2.50842 -1.7275,-0.45642 -3.534,-0.4973 -5.3208,-0.49158 l -14.9889,0.048 0,30 5,0 c 1.7803,0 3.5791,0.0452 5.3018,0.49426 1.7228,0.44905 3.3486,1.2839 4.6871,2.45775 3.9423,3.42891 7.1019,7.65266 10.0001,12 l 10,15 c 2.8982,4.34732 6.0578,8.57106 10,12 1.3304,1.19127 2.9566,2.04042 4.683,2.49717 1.7264,0.45676 3.5312,0.50283 5.317,0.50283 l 9,0 1,0 0,5 15,-20 -15,-20 0,5 -1,0 c -1.632,0 -3.2853,-0.0471 -4.8512,-0.507 -1.5659,-0.45991 -3.0195,-1.31476 -4.1488,-2.493 -3.9422,-3.42894 -7.1018,-7.65268 -10,-12 l -10,-15 c -2.8982,-4.34732 -6.0578,-8.57106 -10,-12.00001"
         style="fill:#323232;fill-opacity:1;stroke:#fafafa;stroke-width:2;stroke-linecap:butt;stroke-linejoin:round;stroke-miterlimit:4;stroke-opacity:1;stroke-dasharray:none" />
      <path
         style="fill:#323232;fill-opacity:1;stroke:#fafafa;stroke-width:2;stroke-linecap:butt;stroke-linejoin:round;stroke-miterlimit:4;stroke-opacity:1;stroke-dasharray:none"
         d="m 1202.4033,519.3947 c -1.3274,1.19548 -2.9537,2.04724 -4.6808,2.50379 -1.727,0.45655 -3.5328,0.49958 -5.3192,0.49621 l -14.9697,-0.0282 0,-30 5,0 c 1.7789,0 3.5765,-0.0456 5.2969,-0.49787 1.7204,-0.45229 3.3423,-1.29315 4.6728,-2.47394 3.9422,-3.42894 7.1018,-7.65268 10,-12 l 10,-15 c 2.8982,-4.34732 6.0578,-8.57106 10,-12 1.3304,-1.19127 2.9566,-2.04042 4.683,-2.49717 1.7264,-0.45676 3.5312,-0.50283 5.317,-0.50283 l 9,0 1,0 0,-5 15,20 -15,20 0,-5 -1,0 c -1.632,0 -3.2853,0.0471 -4.8512,0.507 -1.5659,0.45991 -3.0195,1.31476 -4.1488,2.493 -3.9422,3.42894 -7.1018,7.65268 -10,12 l -10,15 c -2.8982,4.34732 -6.0578,8.57106 -10,12.00001"
         id="path4578"
         inkscape:path-effect="#path-effect4313"
         inkscape:original-d="m 1202.4033,519.3947 c -3.3333,0 -6.6667,3 -10,3 l -14.9697,-0.0282 0,-30 5,0 c 1.6667,0 8.303,-2.97181 9.9697,-2.97181 3.3333,-5 6.6667,-7 10,-12 l 10,-15 c 3.3333,-5 6.6667,-7 10,-12 3.3333,0 6.6667,-3 10,-3 l 9,0 1,0 0,-5 c -2.5574,-12.68004 11.5612,16.56118 15,20 -7.1713,4.05825 -10,10 -15,20 l 0,-5 -1,0 c -3,0 -6,3 -9,3 -3.3333,5 -6.6667,7 -10,12 l -10,15 c -3.3333,5 -6.6667,7 -10,12 z"
         inkscape:connector-curvature="0"
         sodipodi:nodetypes="cccccccccccccccccccccc" />
    </g>
  </g>
</svg>
