<?xml version="1.0" encoding="UTF-8" standalone="no"?>
<!-- Created with Inkscape (http://www.inkscape.org/) -->

<svg
   xmlns:dc="http://purl.org/dc/elements/1.1/"
   xmlns:cc="http://creativecommons.org/ns#"
   xmlns:rdf="http://www.w3.org/1999/02/22-rdf-syntax-ns#"
   xmlns:svg="http://www.w3.org/2000/svg"
   xmlns="http://www.w3.org/2000/svg"
   xmlns:sodipodi="http://sodipodi.sourceforge.net/DTD/sodipodi-0.dtd"
   xmlns:inkscape="http://www.inkscape.org/namespaces/inkscape"
   width="130"
   height="130"
   id="svg4682"
   version="1.1"
   inkscape:version="0.48.4 r9939"
   sodipodi:docname="ic_shuffle_normal_w.svg"
   inkscape:export-filename="/home/corbax/Dev/android/Icons/Test 1/ic_play_normal.png"
   inkscape:export-xdpi="90"
   inkscape:export-ydpi="90">
  <defs
     id="defs4684">
    <inkscape:path-effect
       effect="spiro"
       id="path-effect4396"
       is_visible="true" />
    <inkscape:path-effect
       is_visible="true"
       id="path-effect4421"
       effect="spiro" />
    <inkscape:path-effect
       effect="spiro"
       id="path-effect4396-9"
       is_visible="true" />
    <inkscape:path-effect
       is_visible="true"
       id="path-effect4421-1"
       effect="spiro" />
    <inkscape:path-effect
       is_visible="true"
       id="path-effect4451"
       effect="spiro" />
    <inkscape:path-effect
       is_visible="true"
       id="path-effect4311"
       effect="spiro" />
    <inkscape:path-effect
       effect="spiro"
       id="path-effect4313"
       is_visible="true" />
  </defs>
  <sodipodi:namedview
     id="base"
     pagecolor="#ffffff"
     bordercolor="#666666"
     borderopacity="1.0"
     inkscape:pageopacity="0.0"
     inkscape:pageshadow="2"
     inkscape:zoom="5.6"
     inkscape:cx="-5.558365"
     inkscape:cy="75.317769"
     inkscape:document-units="px"
     inkscape:current-layer="layer1"
     showgrid="false"
     inkscape:window-width="1680"
     inkscape:window-height="1026"
     inkscape:window-x="1920"
     inkscape:window-y="24"
     inkscape:window-maximized="1" />
  <metadata
     id="metadata4687">
    <rdf:RDF>
      <cc:Work
         rdf:about="">
        <dc:format>image/svg+xml</dc:format>
        <dc:type
           rdf:resource="http://purl.org/dc/dcmitype/StillImage" />
        <dc:title />
      </cc:Work>
    </rdf:RDF>
  </metadata>
  <g
     inkscape:label="Layer 1"
     inkscape:groupmode="layer"
     id="layer1"
     transform="translate(0,-922.36218)">
    <g
       id="g3007"
       transform="translate(137.14286,1.0714292)">
      <path
         style="fill:#fafafa;fill-opacity:1;stroke:none"
         d="m -120.64286,1023.7908 c -1,-10e-4 -2,-1 -2,-2 l 0,-16 c 0,-1 1,-2 2,-2 3,0.013 9,-0.9871 11,-2.9871 14.789292,-14.79119 28.663112,-33.66309 44.000002,-48.99998 2,-2 4,-3 8,-3 5.99999,-0.0154 9,-0.0128 15,-0.0128 l 0,19.99983 -7,0.0128 c -3,0 -3.91189,0.90298 -6,3 -16,16.01279 -29,34.01295 -44,49.00015 -2.000002,2 -4.000002,3 -8.000002,3 z"
         id="path5803-6"
         inkscape:connector-curvature="0"
         sodipodi:nodetypes="sssccccccccccs" />
      <path
         sodipodi:type="inkscape:offset"
         inkscape:radius="0.70268315"
         inkscape:original="M 520 551.375 L 520 603.34375 L 565 577.375 L 520 551.375 z "
         style="fill:#fafafa;fill-opacity:1;fill-rule:nonzero;stroke:none"
         id="path5805-8"
         d="m 519.8125,550.6875 a 0.70275342,0.70275342 0 0 0 -0.5,0.6875 l 0,51.96875 a 0.70275342,0.70275342 0 0 0 1.03125,0.59375 l 45,-25.96875 a 0.70275342,0.70275342 0 0 0 0,-1.1875 l -45,-26 a 0.70275342,0.70275342 0 0 0 -0.53125,-0.0937 z"
         transform="matrix(0.56084977,0,0,0.56233897,-338.89907,634.12717)" />
      <path
         id="path6019"
         d="m -120.64286,948.80357 c -1,9.9e-4 -2,1 -2,2 l 0,16 c 0,1 1,2 2,2 3,-0.0128 9,1 11,3 3.82659,3.82709 7.59853,7.9147 11.343752,12.15625 4.49955,-5.17252 9.00794,-10.52433 13.59375,-15.84375 -4.88558,-5.65942 -9.78243,-11.16184 -14.9375,-16.3125 -2.000002,-2 -4.000002,-3 -8.000002,-3 l -13,0 z m 53.625002,39.8125 c -4.60782,5.27337 -9.11375,10.58456 -13.625,15.84373 4.90189,5.6487 9.8589,11.2027 15,16.3438 2,2 4,3 8,3 5.99999,0.015 9,0 15,0 l 0,-20 -7,0 c -3,0 -3.91189,-0.903 -6,-3 -3.95781,-3.96101 -7.70864,-8.05902 -11.375,-12.18753 z"
         style="fill:#fafafa;fill-opacity:1;stroke:none"
         inkscape:connector-curvature="0" />
      <path
         transform="matrix(0.56084977,0,0,0.56233897,-338.89907,689.12717)"
         d="m 519.8125,550.6875 a 0.70275342,0.70275342 0 0 0 -0.5,0.6875 l 0,51.96875 a 0.70275342,0.70275342 0 0 0 1.03125,0.59375 l 45,-25.96875 a 0.70275342,0.70275342 0 0 0 0,-1.1875 l -45,-26 a 0.70275342,0.70275342 0 0 0 -0.53125,-0.0937 z"
         id="path6021"
         style="fill:#fafafa;fill-opacity:1;fill-rule:nonzero;stroke:none"
         inkscape:original="M 520 551.375 L 520 603.34375 L 565 577.375 L 520 551.375 z "
         inkscape:radius="0.70268315"
         sodipodi:type="inkscape:offset" />
    </g>
  </g>
</svg>
