<?xml version="1.0" encoding="UTF-8" standalone="no"?>
<!-- Created with Inkscape (http://www.inkscape.org/) -->

<svg
   xmlns:dc="http://purl.org/dc/elements/1.1/"
   xmlns:cc="http://creativecommons.org/ns#"
   xmlns:rdf="http://www.w3.org/1999/02/22-rdf-syntax-ns#"
   xmlns:svg="http://www.w3.org/2000/svg"
   xmlns="http://www.w3.org/2000/svg"
   xmlns:sodipodi="http://sodipodi.sourceforge.net/DTD/sodipodi-0.dtd"
   xmlns:inkscape="http://www.inkscape.org/namespaces/inkscape"
   width="48"
   height="48"
   id="svg4682"
   version="1.1"
   inkscape:version="0.91 r13725"
   sodipodi:docname="ic_video_collection_big.svg"
   inkscape:export-filename="/home/corbax/Dev/android/Icons/Test 1/ic_play_normal.png"
   inkscape:export-xdpi="90"
   inkscape:export-ydpi="90">
  <defs
     id="defs4684" />
  <sodipodi:namedview
     id="base"
     pagecolor="#ffffff"
     bordercolor="#666666"
     borderopacity="1.0"
     inkscape:pageopacity="0.0"
     inkscape:pageshadow="2"
     inkscape:zoom="11.2"
     inkscape:cx="16.4077"
     inkscape:cy="15.83007"
     inkscape:document-units="px"
     inkscape:current-layer="layer1"
     showgrid="true"
     inkscape:window-width="1920"
     inkscape:window-height="1056"
     inkscape:window-x="0"
     inkscape:window-y="24"
     inkscape:window-maximized="1">
    <inkscape:grid
       type="xygrid"
       id="grid3201" />
  </sodipodi:namedview>
  <metadata
     id="metadata4687">
    <rdf:RDF>
      <cc:Work
         rdf:about="">
        <dc:format>image/svg+xml</dc:format>
        <dc:type
           rdf:resource="http://purl.org/dc/dcmitype/StillImage" />
        <dc:title></dc:title>
      </cc:Work>
    </rdf:RDF>
  </metadata>
  <g
     inkscape:label="Layer 1"
     inkscape:groupmode="layer"
     id="layer1"
     transform="translate(0,-1004.3622)">
    <g
       id="g3211"
       transform="matrix(1.6000064,0,0,1.6000064,48.457176,-613.00773)">
      <path
         inkscape:connector-curvature="0"
         style="color:#000000;display:inline;overflow:visible;visibility:visible;opacity:1;fill:#757575;fill-opacity:1;fill-rule:nonzero;stroke:none;stroke-width:0.5;stroke-linecap:round;stroke-linejoin:round;stroke-miterlimit:4;stroke-dasharray:none;stroke-dashoffset:0;stroke-opacity:1;marker:none;enable-background:accumulate"
         d="m -19.507934,1017.8483 c -0.98489,0 -1.77778,0.7929 -1.77778,1.7778 l 0,8.8889 c 0,0.9849 0.79289,1.7777 1.77778,1.7777 l 12.4444397,0 c 0.98489,0 1.77778,-0.7928 1.77778,-1.7777 l 0,-8.8889 0,-1.7778 -1.77778,0 -1.11111,0 1.55556,3.1111 -2.66667,0 -1.5555597,-3.1111 -1.33333,0 1.55556,3.1111 -2.66667,0 -1.55556,-3.1111 -1.33333,0 1.55556,3.1111 -2.66667,0 -1.55556,-3.1111 -0.66666,0 z"
         id="path7483-9" />
      <path
         sodipodi:nodetypes="cssscccc"
         style="fill:#777777;fill-opacity:1;stroke:none"
         d="m -25.285634,1020.8483 0,11.0113 c 0,1.106 0.89192,1.9963 1.99983,1.9963 l 10.999,0 c 1.1079,0 1.99983,-0.8903 1.99983,-1.9963 l -12.99883,0 0,-11.0113 z"
         id="path6725"
         inkscape:connector-curvature="0" />
    </g>
  </g>
</svg>
