<?xml version="1.0" encoding="UTF-8" standalone="no"?>
<!-- Created with Inkscape (http://www.inkscape.org/) -->

<svg
   xmlns:dc="http://purl.org/dc/elements/1.1/"
   xmlns:cc="http://creativecommons.org/ns#"
   xmlns:rdf="http://www.w3.org/1999/02/22-rdf-syntax-ns#"
   xmlns:svg="http://www.w3.org/2000/svg"
   xmlns="http://www.w3.org/2000/svg"
   xmlns:sodipodi="http://sodipodi.sourceforge.net/DTD/sodipodi-0.dtd"
   xmlns:inkscape="http://www.inkscape.org/namespaces/inkscape"
   width="260"
   height="260"
   id="svg4682"
   version="1.1"
   inkscape:version="0.48.5 r10040"
   sodipodi:docname="ic_video_collection_big.svg"
   inkscape:export-filename="/home/corbax/Dev/android/Icons/Test 1/ic_play_normal.png"
   inkscape:export-xdpi="90"
   inkscape:export-ydpi="90">
  <defs
     id="defs4684" />
  <sodipodi:namedview
     id="base"
     pagecolor="#ffffff"
     bordercolor="#666666"
     borderopacity="1.0"
     inkscape:pageopacity="0.0"
     inkscape:pageshadow="2"
     inkscape:zoom="1.4"
     inkscape:cx="29.461614"
     inkscape:cy="134.29141"
     inkscape:document-units="px"
     inkscape:current-layer="layer1"
     showgrid="false"
     inkscape:window-width="1920"
     inkscape:window-height="1056"
     inkscape:window-x="1920"
     inkscape:window-y="24"
     inkscape:window-maximized="1" />
  <metadata
     id="metadata4687">
    <rdf:RDF>
      <cc:Work
         rdf:about="">
        <dc:format>image/svg+xml</dc:format>
        <dc:type
           rdf:resource="http://purl.org/dc/dcmitype/StillImage" />
        <dc:title></dc:title>
      </cc:Work>
    </rdf:RDF>
  </metadata>
  <g
     inkscape:label="Layer 1"
     inkscape:groupmode="layer"
     id="layer1"
     transform="translate(0,-792.36218)">
    <path
       style="fill:#777777;fill-opacity:1;stroke:none"
       d="m 221.30325,830.13982 -30.20577,5.11501 a 0.95397059,0.87920436 0 0 0 -0.34664,0 0.95397059,0.87920436 0 0 0 0,0.31886 0.95397059,0.87920436 0 0 0 -0.34664,0 0.95397059,0.87920436 0 0 0 0,0.31887 0.95397059,0.87920436 0 0 0 0,0.31886 0.95397059,0.87920436 0 0 0 0,0.31886 l 15.27648,25.8947 a 0.95397059,0.87920436 0 0 0 0,0.31886 0.95397059,0.87920436 0 0 0 0.34664,0 0.95397059,0.87920436 0 0 0 0,0.31886 0.95397059,0.87920436 0 0 0 0.34664,0 0.95397059,0.87920436 0 0 0 0.34664,0 l 20.48437,-3.19695 a 0.95397059,0.87920436 0 0 0 0.34664,-0.31886 0.95397059,0.87920436 0 0 0 0,-0.31886 0.95397059,0.87920436 0 0 0 0.34664,0 0.95397059,0.87920436 0 0 0 0,-0.31887 l -5.55509,-27.81286 a 0.95397059,0.87920436 0 0 0 0,-0.31887 0.95397059,0.87920436 0 0 0 0,-0.31886 0.95397059,0.87920436 0 0 0 0,-0.31886 0.95397059,0.87920436 0 0 0 -0.34663,0 0.95397059,0.87920436 0 0 0 -0.34664,0 0.95397059,0.87920436 0 0 0 -0.34664,0 z m -50.34296,8.31185 -30.20578,4.79526 a 0.95397059,0.87920436 0 0 0 -0.34663,0 0.95397059,0.87920436 0 0 0 -0.34664,0.31887 0.95397059,0.87920436 0 0 0 0,0.31886 0.95397059,0.87920436 0 0 0 -0.34664,0.31886 0.95397059,0.87920436 0 0 0 0,0.31886 0.95397059,0.87920436 0 0 0 0.34664,0 l 15.27648,26.21434 a 0.95397059,0.87920436 0 0 0 0,0.31886 0.95397059,0.87920436 0 0 0 0.34664,0 0.95397059,0.87920436 0 0 0 0,0.31886 0.95397059,0.87920436 0 0 0 0.34664,0 0.95397059,0.87920436 0 0 0 0.34664,0 0.95397059,0.87920436 0 0 0 0.34663,0 l 30.20578,-5.11501 a 0.95397059,0.87920436 0 0 0 0.34664,0 0.95397059,0.87920436 0 0 0 0,-0.31886 0.95397059,0.87920436 0 0 0 0,-0.31886 0.95397059,0.87920436 0 0 0 0.34663,0 0.95397059,0.87920436 0 0 0 0,-0.31886 0.95397059,0.87920436 0 0 0 -0.34663,-0.31887 L 172.0002,838.76954 a 0.95397059,0.87920436 0 0 0 -0.34663,0 0.95397059,0.87920436 0 0 0 0,-0.31887 0.95397059,0.87920436 0 0 0 -0.34664,0 0.95397059,0.87920436 0 0 0 -0.34664,0 z m -50.69015,8.31186 -30.205778,4.79537 a 0.95397059,0.87920436 0 0 0 -0.34664,0 0.95397059,0.87920436 0 0 0 0,0.31886 0.95397059,0.87920436 0 0 0 0,0.31886 0.95397059,0.87920436 0 0 0 0,0.31886 0.95397059,0.87920436 0 0 0 0,0.31887 l 15.276488,26.21444 a 0.95397059,0.87920436 0 0 0 0.34663,0.31886 0.95397059,0.87920436 0 0 0 0.34664,0 0.95397059,0.87920436 0 0 0 0.34664,0 l 30.20578,-4.79526 a 0.95397059,0.87920436 0 0 0 0.34663,0 0.95397059,0.87920436 0 0 0 0.34664,-0.31886 0.95397059,0.87920436 0 0 0 0.34664,-0.31886 0.95397059,0.87920436 0 0 0 0,-0.31886 0.95397059,0.87920436 0 0 0 0,-0.31886 L 121.30894,847.0825 a 0.95397059,0.87920436 0 0 0 0,-0.31886 0.95397059,0.87920436 0 0 0 -0.34664,0 0.95397059,0.87920436 0 0 0 -0.34664,0 0.95397059,0.87920436 0 0 0 -0.34663,0 z m -45.135068,5.7544 a 0.95397059,0.87920436 0 0 0 0,0.31886 0.95397059,0.87920436 0 0 0 -0.34664,0 0.95397059,0.87920436 0 0 0 0,0.31886 0.95397059,0.87920436 0 0 0 -0.34664,0 0.95397059,0.87920436 0 0 0 0,0.31886 l 0,28.45215 0,28.13251 0,39.64142 0,3.83623 0,3.83623 c 0,8.81553 7.78634,15.98443 17.35964,15.98443 l 120.823108,0 c 9.5733,0 17.35964,-7.1689 17.35964,-15.98443 l 0,-7.67246 0,-39.64142 0,-28.13251 a 0.95397059,0.87920436 0 0 0 0,-0.31886 0.95397059,0.87920436 0 0 0 0,-0.31886 0.95397059,0.87920436 0 0 0 -0.34663,0 0.95397059,0.87920436 0 0 0 0,-0.31887 0.95397059,0.87920436 0 0 0 -0.34664,0 0.95397059,0.87920436 0 0 0 -0.34664,0 l -20.13718,0 a 0.95397059,0.87920436 0 0 0 -0.34664,0 0.95397059,0.87920436 0 0 0 -0.34664,0 0.95397059,0.87920436 0 0 0 -0.34664,0.31887 l -10.06859,28.13262 -18.40122,0 9.7214,-27.17348 a 0.95397059,0.87920436 0 0 0 0,-0.31886 0.95397059,0.87920436 0 0 0 0,-0.31887 0.95397059,0.87920436 0 0 0 0,-0.31886 0.95397059,0.87920436 0 0 0 -0.34663,0 0.95397059,0.87920436 0 0 0 0,-0.31886 0.95397059,0.87920436 0 0 0 -0.34664,0 l -30.90016,0 a 0.95397059,0.87920436 0 0 0 -0.34664,0 0.95397059,0.87920436 0 0 0 -0.34664,0.31886 l -10.41578,28.13251 -18.40122,0 9.72139,-27.17337 a 0.95397059,0.87920436 0 0 0 0.34664,-0.31886 0.95397059,0.87920436 0 0 0 0,-0.31886 0.95397059,0.87920436 0 0 0 -0.34664,-0.31886 0.95397059,0.87920436 0 0 0 -0.34663,0 0.95397059,0.87920436 0 0 0 0,-0.31886 0.95397059,0.87920436 0 0 0 -0.34664,0 l -30.90016,0 a 0.95397059,0.87920436 0 0 0 -0.34664,0 0.95397059,0.87920436 0 0 0 0,0.31886 0.95397059,0.87920436 0 0 0 -0.34664,0 l -10.068588,28.13251 -18.40122,0 9.7214,-27.17348 a 0.95397059,0.87920436 0 0 0 0,-0.31886 0.95397059,0.87920436 0 0 0 0,-0.31887 0.95397059,0.87920436 0 0 0 0,-0.31886 l -10.06859,-27.81742 a 0.95397059,0.87920436 0 0 0 0,-0.31886 0.95397059,0.87920436 0 0 0 -0.34664,-0.31887 0.95397059,0.87920436 0 0 0 -0.34664,-0.31886 0.95397059,0.87920436 0 0 0 -0.34663,0 0.95397059,0.87920436 0 0 0 -0.34664,0 z m -45.13507,28.7719 0,112.84985 c 0,11.33492 9.91027,20.45962 22.22034,20.45962 l 122.211878,0 c 12.31007,0 22.22034,-9.1247 22.22034,-20.45962 l -144.432218,0 0,-112.84985 -22.22034,0 z"
       id="path6938"
       inkscape:connector-curvature="0" />
  </g>
</svg>
