<?xml version="1.0" encoding="UTF-8" standalone="no"?>
<!-- Created with Inkscape (http://www.inkscape.org/) -->

<svg
   xmlns:dc="http://purl.org/dc/elements/1.1/"
   xmlns:cc="http://creativecommons.org/ns#"
   xmlns:rdf="http://www.w3.org/1999/02/22-rdf-syntax-ns#"
   xmlns:svg="http://www.w3.org/2000/svg"
   xmlns="http://www.w3.org/2000/svg"
   xmlns:xlink="http://www.w3.org/1999/xlink"
   xmlns:sodipodi="http://sodipodi.sourceforge.net/DTD/sodipodi-0.dtd"
   xmlns:inkscape="http://www.inkscape.org/namespaces/inkscape"
   sodipodi:docname="icon_g.svg"
   inkscape:version="0.48.5 r10040"
   version="1.1"
   id="svg3075"
   height="300"
   width="300">
  <sodipodi:namedview
     id="base"
     pagecolor="#ffffff"
     bordercolor="#666666"
     borderopacity="1.0"
     inkscape:pageopacity="0.0"
     inkscape:pageshadow="2"
     inkscape:zoom="0.9899495"
     inkscape:cx="-107.85868"
     inkscape:cy="268.40715"
     inkscape:document-units="px"
     inkscape:current-layer="layer1"
     showgrid="true"
     inkscape:window-width="1920"
     inkscape:window-height="1056"
     inkscape:window-x="0"
     inkscape:window-y="24"
     inkscape:window-maximized="1" />
  <defs
     id="defs3077">
    <linearGradient
       id="linearGradient3906"
       inkscape:collect="always">
      <stop
         id="stop3908"
         offset="0"
         style="stop-color:#ffffff;stop-opacity:1;" />
      <stop
         id="stop3910"
         offset="1"
         style="stop-color:#ffffff;stop-opacity:0;" />
    </linearGradient>
    <linearGradient
       id="linearGradient5801">
      <stop
         style="stop-color:#3f3f3f;stop-opacity:0.49803922;"
         offset="0"
         id="stop5807" />
      <stop
         id="stop5805"
         offset="1"
         style="stop-color:#000000;stop-opacity:0;" />
    </linearGradient>
    <linearGradient
       inkscape:collect="always"
       id="linearGradient4755">
      <stop
         style="stop-color:#000000;stop-opacity:1;"
         offset="0"
         id="stop4757" />
      <stop
         style="stop-color:#000000;stop-opacity:0;"
         offset="1"
         id="stop4759" />
    </linearGradient>
    <linearGradient
       y2="1202.3622"
       x2="350"
       y1="972.36218"
       x1="130"
       gradientTransform="matrix(0.70645135,0,0,0.70645135,-127.87625,199.80852)"
       gradientUnits="userSpaceOnUse"
       id="linearGradient3168"
       xlink:href="#linearGradient4755"
       inkscape:collect="always" />
    <linearGradient
       y2="865.83679"
       x2="248"
       y1="905.83679"
       x1="288"
       gradientTransform="matrix(0.70645135,0,0,0.70645135,-127.87625,405.05058)"
       gradientUnits="userSpaceOnUse"
       id="linearGradient3170"
       xlink:href="#linearGradient5801"
       inkscape:collect="always" />
    <linearGradient
       y2="868.36218"
       x2="520"
       y1="840.36218"
       x1="548"
       gradientTransform="matrix(0.70645135,0,0,0.70645135,-339.81165,411.74394)"
       gradientUnits="userSpaceOnUse"
       id="linearGradient3172"
       xlink:href="#linearGradient3906"
       inkscape:collect="always" />
    <linearGradient
       y2="865.83679"
       x2="248"
       y1="905.83679"
       x1="288"
       gradientTransform="matrix(0.73291793,0,0,0.73291793,-68.425047,408.9889)"
       gradientUnits="userSpaceOnUse"
       id="linearGradient3243"
       xlink:href="#linearGradient4755-4"
       inkscape:collect="always" />
    <linearGradient
       id="linearGradient4755-4">
      <stop
         style="stop-color:#7f7f7f;stop-opacity:1;"
         offset="0"
         id="stop4757-9" />
      <stop
         style="stop-color:#000000;stop-opacity:0;"
         offset="1"
         id="stop4759-3" />
    </linearGradient>
    <linearGradient
       y2="1200.3622"
       x2="324"
       y1="1064.3622"
       x1="220"
       gradientTransform="matrix(0.73291793,0,0,0.73291793,-68.425047,196.05764)"
       gradientUnits="userSpaceOnUse"
       id="linearGradient3902"
       xlink:href="#linearGradient4755-4"
       inkscape:collect="always" />
    <linearGradient
       id="linearGradient4041">
      <stop
         style="stop-color:#7f7f7f;stop-opacity:1;"
         offset="0"
         id="stop4043" />
      <stop
         style="stop-color:#000000;stop-opacity:0;"
         offset="1"
         id="stop4045" />
    </linearGradient>
    <linearGradient
       y2="1200.3622"
       x2="324"
       y1="1064.3622"
       x1="220"
       gradientTransform="matrix(0.73291793,0,0,0.73291793,-68.425047,196.05764)"
       gradientUnits="userSpaceOnUse"
       id="linearGradient4102"
       xlink:href="#linearGradient4755-4"
       inkscape:collect="always" />
    <linearGradient
       y2="865.83679"
       x2="248"
       y1="905.83679"
       x1="288"
       gradientTransform="matrix(0.73291793,0,0,0.73291793,-68.425047,408.9889)"
       gradientUnits="userSpaceOnUse"
       id="linearGradient4104"
       xlink:href="#linearGradient4755-4"
       inkscape:collect="always" />
    <linearGradient
       y2="865.83679"
       x2="248"
       y1="905.83679"
       x1="288"
       gradientTransform="matrix(0.6925994,0,0,0.6925994,-124.58052,417.00327)"
       gradientUnits="userSpaceOnUse"
       id="linearGradient4109"
       xlink:href="#linearGradient4755-4"
       inkscape:collect="always" />
    <linearGradient
       y2="1200.3622"
       x2="324"
       y1="1064.3622"
       x1="220"
       gradientTransform="matrix(0.6925994,0,0,0.6925994,-124.58052,215.78557)"
       gradientUnits="userSpaceOnUse"
       id="linearGradient4112"
       xlink:href="#linearGradient4755-4"
       inkscape:collect="always" />
    <linearGradient
       y2="1200.3622"
       x2="324"
       y1="1064.3622"
       x1="220"
       gradientTransform="matrix(0.6925994,0,0,0.6925994,-124.58052,215.78557)"
       gradientUnits="userSpaceOnUse"
       id="linearGradient4112-559"
       xlink:href="#linearGradient4755-4-50"
       inkscape:collect="always" />
    <linearGradient
       id="linearGradient4755-4-50">
      <stop
         style="stop-color:#7f7f7f;stop-opacity:1;"
         offset="0"
         id="stop3062" />
      <stop
         style="stop-color:#000000;stop-opacity:0;"
         offset="1"
         id="stop3064" />
    </linearGradient>
    <linearGradient
       y2="865.83679"
       x2="248"
       y1="905.83679"
       x1="288"
       gradientTransform="matrix(0.6925994,0,0,0.6925994,-124.58052,417.00327)"
       gradientUnits="userSpaceOnUse"
       id="linearGradient4109-197"
       xlink:href="#linearGradient4755-4-190"
       inkscape:collect="always" />
    <linearGradient
       id="linearGradient4755-4-190">
      <stop
         style="stop-color:#7f7f7f;stop-opacity:1;"
         offset="0"
         id="stop3068" />
      <stop
         style="stop-color:#000000;stop-opacity:0;"
         offset="1"
         id="stop3070" />
    </linearGradient>
    <linearGradient
       inkscape:collect="always"
       xlink:href="#linearGradient5801-4"
       id="linearGradient4748"
       gradientUnits="userSpaceOnUse"
       gradientTransform="matrix(0.30474373,0,0,0.30474373,-127.78588,751.65807)"
       x1="288"
       y1="905.83679"
       x2="248"
       y2="865.83679" />
    <linearGradient
       id="linearGradient5801-4">
      <stop
         id="stop5807-0"
         offset="0"
         style="stop-color:#7f4400;stop-opacity:0.49803922;" />
      <stop
         style="stop-color:#000000;stop-opacity:0;"
         offset="1"
         id="stop5805-1" />
    </linearGradient>
    <linearGradient
       inkscape:collect="always"
       xlink:href="#linearGradient4755-2"
       id="linearGradient4746"
       gradientUnits="userSpaceOnUse"
       gradientTransform="matrix(0.30474373,0,0,0.30474373,-127.78588,663.29035)"
       x1="235"
       y1="1087.3622"
       x2="350"
       y2="1202.3622" />
    <linearGradient
       id="linearGradient4755-2">
      <stop
         id="stop4757-3"
         offset="0"
         style="stop-color:#ff8800;stop-opacity:1;" />
      <stop
         id="stop4759-8"
         offset="1"
         style="stop-color:#000000;stop-opacity:0;" />
    </linearGradient>
    <linearGradient
       inkscape:collect="always"
       xlink:href="#linearGradient4755-2"
       id="linearGradient3070"
       gradientUnits="userSpaceOnUse"
       gradientTransform="matrix(0.30474373,0,0,0.30474373,-127.78588,663.29035)"
       x1="235"
       y1="1087.3622"
       x2="350"
       y2="1202.3622" />
    <linearGradient
       inkscape:collect="always"
       xlink:href="#linearGradient5801-4"
       id="linearGradient3072"
       gradientUnits="userSpaceOnUse"
       gradientTransform="matrix(0.30474373,0,0,0.30474373,-127.78588,751.65807)"
       x1="288"
       y1="905.83679"
       x2="248"
       y2="865.83679" />
    <linearGradient
       inkscape:collect="always"
       xlink:href="#linearGradient4755-4-50"
       id="linearGradient3222"
       gradientUnits="userSpaceOnUse"
       gradientTransform="matrix(0.6925994,0,0,0.6925994,-124.58052,215.78557)"
       x1="220"
       y1="1064.3622"
       x2="324"
       y2="1200.3622" />
    <linearGradient
       inkscape:collect="always"
       xlink:href="#linearGradient4755-4-190"
       id="linearGradient3224"
       gradientUnits="userSpaceOnUse"
       gradientTransform="matrix(0.6925994,0,0,0.6925994,-124.58052,417.00327)"
       x1="288"
       y1="905.83679"
       x2="248"
       y2="865.83679" />
    <linearGradient
       inkscape:collect="always"
       xlink:href="#linearGradient4755-2"
       id="linearGradient3226"
       gradientUnits="userSpaceOnUse"
       gradientTransform="matrix(0.30474373,0,0,0.30474373,-127.78588,663.29035)"
       x1="235"
       y1="1087.3622"
       x2="350"
       y2="1202.3622" />
    <linearGradient
       inkscape:collect="always"
       xlink:href="#linearGradient5801-4"
       id="linearGradient3228"
       gradientUnits="userSpaceOnUse"
       gradientTransform="matrix(0.30474373,0,0,0.30474373,-127.78588,751.65807)"
       x1="288"
       y1="905.83679"
       x2="248"
       y2="865.83679" />
    <linearGradient
       inkscape:collect="always"
       xlink:href="#linearGradient4755-4-190"
       id="linearGradient3242"
       gradientUnits="userSpaceOnUse"
       gradientTransform="matrix(2.2727273,0,0,2.2727273,-406.8182,-1041.5838)"
       x1="288"
       y1="905.83679"
       x2="248"
       y2="865.83679" />
    <linearGradient
       inkscape:collect="always"
       xlink:href="#linearGradient4755-4-50"
       id="linearGradient3245"
       gradientUnits="userSpaceOnUse"
       gradientTransform="matrix(2.2727273,0,0,2.2727273,-406.8182,-1701.8688)"
       x1="220"
       y1="1064.3622"
       x2="324"
       y2="1200.3622" />
    <linearGradient
       inkscape:collect="always"
       xlink:href="#linearGradient4755-2-409"
       id="linearGradient3226-37"
       gradientUnits="userSpaceOnUse"
       gradientTransform="matrix(0.30474373,0,0,0.30474373,-127.78588,663.29035)"
       x1="235"
       y1="1087.3622"
       x2="350"
       y2="1202.3622" />
    <linearGradient
       id="linearGradient4755-2-409">
      <stop
         id="stop3796"
         offset="0"
         style="stop-color:#9c9c9c;stop-opacity:1;" />
      <stop
         id="stop3798"
         offset="1"
         style="stop-color:#000000;stop-opacity:0;" />
    </linearGradient>
    <linearGradient
       inkscape:collect="always"
       xlink:href="#linearGradient5801-4-423"
       id="linearGradient3228-762"
       gradientUnits="userSpaceOnUse"
       gradientTransform="matrix(0.30474373,0,0,0.30474373,-127.78588,751.65807)"
       x1="288"
       y1="905.83679"
       x2="248"
       y2="865.83679" />
    <linearGradient
       id="linearGradient5801-4-423">
      <stop
         id="stop3802"
         offset="0"
         style="stop-color:#4e4e4e;stop-opacity:0.49803922;" />
      <stop
         style="stop-color:#000000;stop-opacity:0;"
         offset="1"
         id="stop3804" />
    </linearGradient>
    <linearGradient
       inkscape:collect="always"
       xlink:href="#linearGradient4755-2-564"
       id="linearGradient3226-910"
       gradientUnits="userSpaceOnUse"
       gradientTransform="matrix(0.30474373,0,0,0.30474373,-127.78588,663.29035)"
       x1="235"
       y1="1087.3622"
       x2="350"
       y2="1202.3622" />
    <linearGradient
       id="linearGradient4755-2-564">
      <stop
         id="stop4172"
         offset="0"
         style="stop-color:#7f7f7f;stop-opacity:1;" />
      <stop
         id="stop4174"
         offset="1"
         style="stop-color:#000000;stop-opacity:0;" />
    </linearGradient>
    <linearGradient
       inkscape:collect="always"
       xlink:href="#linearGradient5801-4-482"
       id="linearGradient3228-631"
       gradientUnits="userSpaceOnUse"
       gradientTransform="matrix(0.30474373,0,0,0.30474373,-127.78588,751.65807)"
       x1="288"
       y1="905.83679"
       x2="248"
       y2="865.83679" />
    <linearGradient
       id="linearGradient5801-4-482">
      <stop
         id="stop4178"
         offset="0"
         style="stop-color:#3f3f3f;stop-opacity:0.49803922;" />
      <stop
         style="stop-color:#000000;stop-opacity:0;"
         offset="1"
         id="stop4180" />
    </linearGradient>
    <linearGradient
       inkscape:collect="always"
       xlink:href="#linearGradient4755-2-409"
       id="linearGradient4303"
       gradientUnits="userSpaceOnUse"
       gradientTransform="matrix(0.30474373,0,0,0.30474373,-127.78588,663.29035)"
       x1="235"
       y1="1087.3622"
       x2="350"
       y2="1202.3622" />
    <linearGradient
       inkscape:collect="always"
       xlink:href="#linearGradient5801-4-423"
       id="linearGradient4305"
       gradientUnits="userSpaceOnUse"
       gradientTransform="matrix(0.30474373,0,0,0.30474373,-127.78588,751.65807)"
       x1="288"
       y1="905.83679"
       x2="248"
       y2="865.83679" />
    <filter
       inkscape:label="Desaturate"
       x="0"
       y="0"
       width="1"
       height="1"
       inkscape:menu="Color"
       inkscape:menu-tooltip="Render in shades of gray by reducing saturation to zero"
       color-interpolation-filters="sRGB"
       id="filter4154">
      <feColorMatrix
         type="saturate"
         values="0"
         id="feColorMatrix4156"
         result="fbSourceGraphic" />
      <feColorMatrix
         result="fbSourceGraphicAlpha"
         in="fbSourceGraphic"
         values="0 0 0 -1 0 0 0 0 -1 0 0 0 0 -1 0 0 0 0 1 0"
         id="feColorMatrix3057" />
      <feColorMatrix
         id="feColorMatrix3059"
         type="saturate"
         values="0"
         in="fbSourceGraphic" />
    </filter>
  </defs>
  <metadata
     id="metadata3080">
    <rdf:RDF>
      <cc:Work
         rdf:about="">
        <dc:format>image/svg+xml</dc:format>
        <dc:type
           rdf:resource="http://purl.org/dc/dcmitype/StillImage" />
        <dc:title />
      </cc:Work>
    </rdf:RDF>
  </metadata>
  <g
     transform="translate(0,-752.36218)"
     id="layer1"
     inkscape:groupmode="layer"
     inkscape:label="Layer 1">
    <g
       style="display:inline;filter:url(#filter4154)"
       transform="matrix(0.53249384,0,0,0.53249384,315.74257,680.30911)"
       id="g3943">
      <path
         inkscape:connector-curvature="0"
         style="fill:#ff8800"
         d="m -479.59983,484.5684 c -5.83666,0 -21.47003,8.70052 -25.21875,21.25 -0.0131,0.0436 0.0131,0.0814 0,0.125 -14.31487,48.91205 -27.68596,94.59019 -40.1875,137.3125 -2.56743,8.77025 0.13164,15.37587 4.65625,20.03125 5.81487,5.98052 14.62212,8.71875 18.9375,8.71875 l 422.124998,0 c 3.37822,0 11.57676,-2.71644 17.15625,-8.71875 l -238.562498,0 -110.37499,-110.375 c -6.09294,-4.14434 -11.7914,-8.67136 -17.00001,-13.59375 -0.85891,-0.80207 -1.70307,-1.60922 -2.53125,-2.4375 -0.25615,-0.25615 -0.49204,-0.51071 -0.71875,-0.78125 -0.0149,-0.0178 -0.0165,-0.0446 -0.0312,-0.0625 -0.2056,-0.24814 -0.41162,-0.49096 -0.59375,-0.75 -0.008,-0.012 -0.0229,-0.0192 -0.0312,-0.0312 -0.13485,-0.19326 -0.25266,-0.39496 -0.375,-0.59375 -0.0683,-0.11122 -0.12303,-0.23091 -0.1875,-0.34375 -0.0417,-0.0728 -0.0849,-0.14528 -0.125,-0.21875 -0.13383,-0.24531 -0.28947,-0.49792 -0.40625,-0.75 -0.10803,-0.23309 -0.18708,-0.48047 -0.28125,-0.71875 -0.0494,-0.1255 -0.11063,-0.24818 -0.15625,-0.375 -0.0336,-0.0928 -0.0622,-0.18773 -0.0937,-0.28125 -0.0722,-0.21466 -0.12539,-0.43837 -0.1875,-0.65625 -0.0568,-0.19804 -0.10735,-0.39336 -0.15625,-0.59375 -0.0782,-0.32061 -0.15987,-0.64313 -0.21875,-0.96875 -0.0395,-0.2214 -0.0627,-0.43301 -0.0937,-0.65625 -0.0493,-0.3549 -0.0958,-0.7042 -0.125,-1.0625 -0.0177,-0.2171 -0.0206,-0.43836 -0.0312,-0.65625 -0.0637,-1.21092 -0.0219,-2.42485 0.0937,-3.625 0.0645,-0.66982 0.14403,-1.31674 0.25,-1.96875 0.069,-0.42437 0.13623,-0.83695 0.21875,-1.25 0.0277,-0.13869 0.0648,-0.26902 0.0937,-0.40625 0.23015,-1.08543 0.49618,-2.1301 0.78125,-3.09375 0.0349,-0.11879 0.0585,-0.22728 0.0937,-0.34375 0.11173,-0.3671 0.23026,-0.68898 0.34375,-1.03125 0.24973,-0.75314 0.48461,-1.45374 0.71875,-2.0625 0.0396,-0.10282 0.0553,-0.15185 0.0937,-0.25 0.18419,-0.4738 0.34799,-0.79977 0.5,-1.15625 0.0716,-0.16718 0.15743,-0.4244 0.21875,-0.5625 0.0415,-0.0986 0.0266,-0.0728 0.0625,-0.15625 0.22135,-0.49379 0.34375,-0.75 0.34375,-0.75 l 8.71876,-26.15625 -0.53125,0 -37.18751,0 z"
         id="path3945" />
      <path
         id="path3947"
         sodipodi:nodetypes="ccccccccssscccc"
         inkscape:connector-curvature="0"
         d="m -359.05149,236.10847 -30.51282,91.53845 c 52.3077,39.23077 104.04,39.48795 156.9231,0 l -30.51283,-91.53845 c -34.87615,17.4359 -61.02565,17.4359 -95.89745,0 z m -65.3846,196.15384 -17.4359,52.30769 -8.71795,26.15385 c 0,0 -8.71795,17.4359 0,26.15385 34.73667,34.73666 92.78076,51.0741 149.42999,48.90333 49.98,-1.91795 98.89205,-18.25538 129.54,-48.90333 8.71795,-8.71795 0,-26.15385 0,-26.15385 L -180.3379,484.57 -197.77378,432.26231 c -65.38461,56.66667 -161.2777,56.66667 -226.6623,0 z"
         style="fill:#fafafa" />
      <path
         id="path3949"
         sodipodi:nodetypes="sccccccsccccc"
         inkscape:connector-curvature="0"
         d="m -311.10277,162.0059 c -6.71281,0 -12.12665,1.06359 -17.4359,4.35898 -8.71794,4.35897 -21.79487,43.58974 -21.79487,43.58974 l -8.71795,26.15385 c 34.8718,17.4359 61.02564,17.4359 95.89745,0 l -8.71795,-26.15385 c 0,0 -13.07691,-39.23077 -21.79487,-43.58974 -5.31359,-3.29539 -10.7318,-4.35898 -17.43591,-4.35898 z m -78.46153,165.64102 -34.87178,104.61539 c 65.38461,56.66667 161.28204,56.66667 226.66667,0 l -34.8718,-104.61539 c -52.88744,39.48795 -104.61539,39.23077 -156.92308,0 z"
         style="fill:#ff8800" />
      <path
         id="path3951"
         inkscape:connector-curvature="0"
         d="m -311.10277,179.4418 c -2.48461,-0.12205 -5.44872,1.45154 -9.94282,4.90385 -7.19231,5.52718 -22.20461,55.03205 -22.20461,55.03205 l -1.08975,3.26923 -6.12872,18.1159 -25.0641,75.1923 -0.27026,0.95462 -28.33333,84.86487 -6.94819,20.84025 -7.35795,22.20462 -7.21846,21.38513 c 0,0 -7.15744,14.36718 0,21.52461 1.97897,4.63795 11.09794,26.67693 55.03205,10.4877 9.7423,-2.73308 10.48769,-18.66077 10.48769,-18.66077 l 4.35897,-22.20462 1.49949,-8.17308 7.08333,-36.37128 14.98616,-77.78154 2.17949,-11.03256 14.98615,-77.78154 3.26051,-17.02615 0.95462,-5.17846 c 0,0 10.74923,-52.49077 6.26384,-59.11641 -1.29025,-2.08795 -1.19,-2.42795 -2.31462,-3.40436 -1.38616,-1.21179 -2.73308,-1.97026 -4.21949,-2.04436 z"
         style="opacity:0.6;fill:#ffffff;fill-opacity:0.3137" />
      <path
         inkscape:connector-curvature="0"
         style="fill:#f46e00"
         d="m -180.34744,484.5684 8.71875,26.15625 c 0,0 8.71794,17.4383 0,26.15625 -30.64795,30.64795 -79.5469,46.9883 -129.53125,48.90625 -53.95538,2.07051 -109.1123,-12.73676 -144.25,-44.15625 0.71875,1.07823 1.4736,2.13809 2.25,3.1875 l 29,29 26.40625,26.40625 9.1875,9.1875 c 18.01052,17.8844 35.96851,35.87234 53.875,53.875 2.89203,2.90757 5.7992,5.81137 8.6875,8.71875 l 216.718748,0 c 3.3782,0 11.57675,-2.71644 17.15625,-8.71875 4.49846,-4.84282 7.28974,-11.85065 4.5,-21.375 -6.66487,-22.78436 -13.24064,-45.29773 -19.875,-67.96875 l -20.312498,-69.0625 c -3.38692,-11.55128 -18.98924,-20.3125 -25.75,-20.3125 l -36.78125,0 z"
         id="path3953" />
      <path
         id="path3955"
         inkscape:connector-curvature="0"
         d="m -540.35866,663.28795 c 5.81487,5.98052 14.62,8.71795 18.93538,8.71795 h 422.136148 c 3.37822,0 11.58617,-2.71564 17.16565,-8.71795 H -540.35866 l 0,0 z"
         style="fill:#f46e00" />
    </g>
  </g>
</svg>
