<?xml version="1.0" encoding="UTF-8" standalone="no"?>
<!-- Created with Inkscape (http://www.inkscape.org/) -->

<svg
   xmlns:dc="http://purl.org/dc/elements/1.1/"
   xmlns:cc="http://creativecommons.org/ns#"
   xmlns:rdf="http://www.w3.org/1999/02/22-rdf-syntax-ns#"
   xmlns:svg="http://www.w3.org/2000/svg"
   xmlns="http://www.w3.org/2000/svg"
   xmlns:xlink="http://www.w3.org/1999/xlink"
   xmlns:sodipodi="http://sodipodi.sourceforge.net/DTD/sodipodi-0.dtd"
   xmlns:inkscape="http://www.inkscape.org/namespaces/inkscape"
   width="300"
   height="300"
   id="svg3075"
   version="1.1"
   inkscape:version="0.48.4 r9939"
   sodipodi:docname="icon.svg">
  <defs
     id="defs3077">
    <linearGradient
       inkscape:collect="always"
       id="linearGradient3906">
      <stop
         style="stop-color:#ffffff;stop-opacity:1;"
         offset="0"
         id="stop3908" />
      <stop
         style="stop-color:#ffffff;stop-opacity:0;"
         offset="1"
         id="stop3910" />
    </linearGradient>
    <linearGradient
       id="linearGradient5801">
      <stop
         id="stop5807"
         offset="0"
         style="stop-color:#7f4400;stop-opacity:0.49803922;" />
      <stop
         style="stop-color:#000000;stop-opacity:0;"
         offset="1"
         id="stop5805" />
    </linearGradient>
    <linearGradient
       id="linearGradient4755"
       inkscape:collect="always">
      <stop
         id="stop4757"
         offset="0"
         style="stop-color:#000000;stop-opacity:1;" />
      <stop
         id="stop4759"
         offset="1"
         style="stop-color:#000000;stop-opacity:0;" />
    </linearGradient>
    <linearGradient
       inkscape:collect="always"
       xlink:href="#linearGradient4755"
       id="linearGradient3168"
       gradientUnits="userSpaceOnUse"
       gradientTransform="matrix(0.70645135,0,0,0.70645135,-127.87625,199.80852)"
       x1="130"
       y1="972.36218"
       x2="350"
       y2="1202.3622" />
    <linearGradient
       inkscape:collect="always"
       xlink:href="#linearGradient5801"
       id="linearGradient3170"
       gradientUnits="userSpaceOnUse"
       gradientTransform="matrix(0.70645135,0,0,0.70645135,-127.87625,405.05058)"
       x1="288"
       y1="905.83679"
       x2="248"
       y2="865.83679" />
    <linearGradient
       inkscape:collect="always"
       xlink:href="#linearGradient3906"
       id="linearGradient3172"
       gradientUnits="userSpaceOnUse"
       gradientTransform="matrix(0.70645135,0,0,0.70645135,-339.81165,411.74394)"
       x1="548"
       y1="840.36218"
       x2="520"
       y2="868.36218" />
    <linearGradient
       inkscape:collect="always"
       xlink:href="#linearGradient4755-4"
       id="linearGradient3243"
       gradientUnits="userSpaceOnUse"
       gradientTransform="matrix(0.73291793,0,0,0.73291793,-68.425047,408.9889)"
       x1="288"
       y1="905.83679"
       x2="248"
       y2="865.83679" />
    <linearGradient
       id="linearGradient4755-4">
      <stop
         id="stop4757-9"
         offset="0"
         style="stop-color:#ff8800;stop-opacity:1;" />
      <stop
         id="stop4759-3"
         offset="1"
         style="stop-color:#000000;stop-opacity:0;" />
    </linearGradient>
    <linearGradient
       inkscape:collect="always"
       xlink:href="#linearGradient4755-4"
       id="linearGradient3902"
       gradientUnits="userSpaceOnUse"
       gradientTransform="matrix(0.73291793,0,0,0.73291793,-68.425047,196.05764)"
       x1="220"
       y1="1064.3622"
       x2="324"
       y2="1200.3622" />
    <linearGradient
       id="linearGradient4041">
      <stop
         id="stop4043"
         offset="0"
         style="stop-color:#ff8800;stop-opacity:1;" />
      <stop
         id="stop4045"
         offset="1"
         style="stop-color:#000000;stop-opacity:0;" />
    </linearGradient>
    <linearGradient
       inkscape:collect="always"
       xlink:href="#linearGradient4755-4"
       id="linearGradient4102"
       gradientUnits="userSpaceOnUse"
       gradientTransform="matrix(0.73291793,0,0,0.73291793,-68.425047,196.05764)"
       x1="220"
       y1="1064.3622"
       x2="324"
       y2="1200.3622" />
    <linearGradient
       inkscape:collect="always"
       xlink:href="#linearGradient4755-4"
       id="linearGradient4104"
       gradientUnits="userSpaceOnUse"
       gradientTransform="matrix(0.73291793,0,0,0.73291793,-68.425047,408.9889)"
       x1="288"
       y1="905.83679"
       x2="248"
       y2="865.83679" />
    <linearGradient
       inkscape:collect="always"
       xlink:href="#linearGradient4755-4"
       id="linearGradient4109"
       gradientUnits="userSpaceOnUse"
       gradientTransform="matrix(0.6925994,0,0,0.6925994,-124.58052,417.00327)"
       x1="288"
       y1="905.83679"
       x2="248"
       y2="865.83679" />
    <linearGradient
       inkscape:collect="always"
       xlink:href="#linearGradient4755-4"
       id="linearGradient4112"
       gradientUnits="userSpaceOnUse"
       gradientTransform="matrix(0.6925994,0,0,0.6925994,-124.58052,215.78557)"
       x1="220"
       y1="1064.3622"
       x2="324"
       y2="1200.3622" />
    <linearGradient
       inkscape:collect="always"
       xlink:href="#linearGradient5801-7"
       id="linearGradient4748"
       gradientUnits="userSpaceOnUse"
       gradientTransform="matrix(0.30474373,0,0,0.30474373,-109.31562,751.9659)"
       x1="288"
       y1="905.83679"
       x2="248"
       y2="865.83679" />
    <linearGradient
       id="linearGradient5801-7">
      <stop
         id="stop5807-8"
         offset="0"
         style="stop-color:#7f4400;stop-opacity:0.49803922;" />
      <stop
         style="stop-color:#000000;stop-opacity:0;"
         offset="1"
         id="stop5805-8" />
    </linearGradient>
    <linearGradient
       inkscape:collect="always"
       xlink:href="#linearGradient4755-1"
       id="linearGradient4746"
       gradientUnits="userSpaceOnUse"
       gradientTransform="matrix(0.30474373,0,0,0.30474373,-109.31562,663.59818)"
       x1="235"
       y1="1087.3622"
       x2="350"
       y2="1202.3622" />
    <linearGradient
       id="linearGradient4755-1">
      <stop
         id="stop4757-7"
         offset="0"
         style="stop-color:#ff8800;stop-opacity:1;" />
      <stop
         id="stop4759-4"
         offset="1"
         style="stop-color:#000000;stop-opacity:0;" />
    </linearGradient>
    <linearGradient
       inkscape:collect="always"
       xlink:href="#linearGradient4755-1"
       id="linearGradient3072"
       gradientUnits="userSpaceOnUse"
       gradientTransform="matrix(0.30474373,0,0,0.30474373,-109.31562,663.59818)"
       x1="235"
       y1="1087.3622"
       x2="350"
       y2="1202.3622" />
    <linearGradient
       inkscape:collect="always"
       xlink:href="#linearGradient5801-7"
       id="linearGradient3074"
       gradientUnits="userSpaceOnUse"
       gradientTransform="matrix(0.30474373,0,0,0.30474373,-109.31562,751.9659)"
       x1="288"
       y1="905.83679"
       x2="248"
       y2="865.83679" />
  </defs>
  <sodipodi:namedview
     id="base"
     pagecolor="#ffffff"
     bordercolor="#666666"
     borderopacity="1.0"
     inkscape:pageopacity="0.0"
     inkscape:pageshadow="2"
     inkscape:zoom="1.979899"
     inkscape:cx="64.639089"
     inkscape:cy="160.84215"
     inkscape:document-units="px"
     inkscape:current-layer="g3158"
     showgrid="true"
     inkscape:window-width="1920"
     inkscape:window-height="1056"
     inkscape:window-x="0"
     inkscape:window-y="24"
     inkscape:window-maximized="1" />
  <metadata
     id="metadata3080">
    <rdf:RDF>
      <cc:Work
         rdf:about="">
        <dc:format>image/svg+xml</dc:format>
        <dc:type
           rdf:resource="http://purl.org/dc/dcmitype/StillImage" />
        <dc:title />
      </cc:Work>
    </rdf:RDF>
  </metadata>
  <g
     inkscape:label="Layer 1"
     inkscape:groupmode="layer"
     id="layer1"
     transform="translate(0,-752.36218)">
    <g
       id="g3158"
       transform="matrix(3.2814457,0,0,3.2814457,1.9860072,-2409.9574)">
      <g
         id="g3062"
         transform="matrix(2.3211766,0,0,2.3211766,125.46844,-1341.4616)">
        <path
           inkscape:connector-curvature="0"
           style="fill:#ff6800;fill-opacity:1;stroke:none"
           d="m -50.638694,1030.0105 c 0.406598,0.4181 1.022117,0.6095 1.32373,0.6095 l 29.512526,0 c 0.236277,0 0.810002,-0.1897 1.199928,-0.6095 l -32.036184,0 z"
           id="path4726" />
        <path
           inkscape:connector-curvature="0"
           style="fill:#ff8800;fill-opacity:1;stroke:none"
           d="m -46.391328,1017.516 c -0.408119,0 -1.499571,0.6083 -1.7618,1.4857 -9.14e-4,0 9.14e-4,0.01 0,0.01 -1.000794,3.4193 -1.935235,6.6128 -2.809356,9.5994 -0.179403,0.6129 0.0076,1.0747 0.32379,1.3999 l 32.036184,0 c 0.314456,-0.3386 0.509184,-0.8292 0.314267,-1.4951 -0.466163,-1.5927 -0.926488,-3.1671 -1.390393,-4.7521 l -1.418963,-4.8283 c -0.236762,-0.8079 -1.327235,-1.419 -1.799893,-1.419 l -2.571275,0 0.609487,1.8285 c 0,0 0.609488,1.219 0,1.8284 -2.142729,2.1428 -5.562112,3.285 -9.056602,3.4189 -3.960422,0.1518 -8.018569,-0.9904 -10.446996,-3.4189 -0.609487,-0.6094 0,-1.8284 0,-1.8284 l 0.609488,-1.8285 -2.637938,0 z"
           id="path4728" />
        <path
           sodipodi:nodetypes="ccccccccssscccc"
           inkscape:connector-curvature="0"
           id="path4730"
           d="m -37.96326,1000.1456 -2.133206,6.3997 c 3.656925,2.7427 7.273541,2.7606 10.970774,0 l -2.133206,-6.3997 c -2.43795,1.219 -4.266412,1.219 -6.704362,0 z m -4.571156,13.7135 -1.218974,3.6569 -0.609488,1.8285 c 0,0 -0.609487,1.219 0,1.8285 2.428427,2.4284 6.486574,3.5706 10.446996,3.4188 3.49449,-0.1339 6.913873,-1.2761 9.056602,-3.4188 0.609488,-0.6095 0,-1.8285 0,-1.8285 l -0.609487,-1.8285 -1.218975,-3.6569 c -4.571156,3.9617 -11.275518,3.9617 -15.846674,0 z"
           style="fill:#fafafa;fill-opacity:1;stroke:none" />
        <path
           sodipodi:nodetypes="sccccccsccccc"
           inkscape:connector-curvature="0"
           id="path4732"
           d="m -34.611079,994.96499 c -0.469083,0 -0.847684,0.0744 -1.218975,0.30475 -0.609487,0.30474 -1.523719,3.04743 -1.523719,3.04743 l -0.609487,1.82843 c 2.43795,1.219 4.266412,1.219 6.704362,0 l -0.609487,-1.82843 c 0,0 -0.914232,-2.74269 -1.523719,-3.04743 -0.371288,-0.23039 -0.749938,-0.30475 -1.218975,-0.30475 z m -5.485387,11.58031 -2.43795,7.3138 c 4.571156,3.9617 11.275518,3.9617 15.846674,0 l -2.43795,-7.3138 c -3.697233,2.7606 -7.313849,2.7427 -10.970774,0 z"
           style="fill:#ff8800;fill-opacity:1;stroke:none" />
        <path
           style="fill:#ffffff;fill-opacity:1;stroke:none"
           d="m -36.93475,1000.6028 -0.428546,1.2665 -1.752276,5.2569 -0.01905,0.067 c 1.018448,0.6321 2.030992,1.0604 3.047438,1.2665 l 0.152371,-0.7713 1.047557,-5.4378 0.228558,-1.1904 c -0.739345,-0.01 -1.483788,-0.158 -2.276055,-0.4571 z m -4.666388,13.9801 -0.514255,1.5522 -0.504732,1.4952 c 0,0 -0.500282,1.0044 0,1.5047 0.138464,0.3244 0.77607,1.865 3.847389,0.7333 0.68127,-0.1909 0.73329,-1.3047 0.73329,-1.3047 l 0.304744,-1.5523 0.104755,-0.5714 c -1.398785,-0.3628 -2.741986,-0.9816 -3.971191,-1.857 z"
           id="path4734"
           inkscape:connector-curvature="0" />
        <path
           sodipodi:nodetypes="sscccccsscccccccccccccccccccccccccccc"
           inkscape:connector-curvature="0"
           id="path4736"
           d="m -34.611079,996.18397 c -0.173509,-0.009 -0.380902,0.10135 -0.695197,0.34283 -0.502873,0.38633 -1.552288,3.8474 -1.552288,3.8474 l -0.07619,0.2286 c 0.792267,0.2991 1.53671,0.4508 2.276055,0.4571 l 0.06666,-0.3619 c 0,0 0.751547,-3.66989 0.43807,-4.1331 -0.09023,-0.14588 -0.08329,-0.16965 -0.161896,-0.2381 -0.09722,-0.0847 -0.191113,-0.13765 -0.29522,-0.14283 z m -4.52354,11.00883 -1.980834,5.933 -0.485685,1.4571 c 1.229205,0.8754 2.572406,1.4942 3.971191,1.857 l 0.495209,-2.5427 1.047557,-5.4378 c -1.016446,-0.2061 -2.02899,-0.6344 -3.047438,-1.2666 z m -3.552168,10.5994 c -0.05863,0.153 -0.137714,0.3977 -0.152372,0.6476 0.01466,-0.2492 0.09375,-0.4952 0.152372,-0.6476 z m -0.142849,0.8952 c 0.01173,0.082 0.03246,0.1627 0.06666,0.2381 -0.0342,-0.075 -0.05494,-0.156 -0.06666,-0.2381 z m 0.06666,0.2381 c 0.0342,0.075 0.08031,0.147 0.142849,0.2095 -0.06254,-0.062 -0.108651,-0.1343 -0.142849,-0.2095 z m 0.142849,0.2095 c 0.03462,0.081 0.101321,0.2371 0.228557,0.4095 -0.126919,-0.1728 -0.193942,-0.3284 -0.228557,-0.4095 z m 0.228557,0.4095 c 0.03295,0.045 0.07257,0.088 0.114279,0.1333 -0.03987,-0.044 -0.08255,-0.09 -0.114279,-0.1333 z m 4.323552,-0.7809 c -0.02444,0.161 -0.06653,0.394 -0.171418,0.6094 0.103729,-0.2128 0.146246,-0.4481 0.171418,-0.6094 z m -0.380929,0.9142 c -0.0582,0.058 -0.124378,0.1056 -0.199988,0.1429 0.07564,-0.037 0.141702,-0.084 0.199988,-0.1429 z"
           style="fill:#ffa550;fill-opacity:1;stroke:none" />
        <path
           style="fill:url(#linearGradient3072);fill-opacity:1;stroke:none"
           d="m -43.791483,1017.516 c -0.279362,0.8382 -0.558702,1.676 -0.838046,2.5142 0.007,0.036 0.02054,0.069 0.02855,0.1047 0.06633,-0.4272 0.238081,-0.7904 0.238081,-0.7904 l 0.609488,-1.8285 -0.03809,0 z m 18.322716,0 0.609487,1.8285 c 0,0 0.609488,1.219 0,1.8285 -2.142729,2.1427 -5.562112,3.2849 -9.056602,3.4188 -3.772204,0.1446 -7.628269,-0.889 -10.085113,-3.0855 1.024454,1.5364 2.930587,2.6315 4.047377,4.114 1.67265,1.6561 3.34005,3.3292 4.999702,4.9997 l 15.151478,0 c 0.236277,0 0.810002,-0.1897 1.199928,-0.6095 0.314456,-0.3385 0.509184,-0.8292 0.314267,-1.4951 -0.466163,-1.5927 -0.926488,-3.1671 -1.390393,-4.7521 l -1.418963,-4.8283 c -0.236762,-0.8079 -1.327235,-1.419 -1.799893,-1.419 l -2.571275,0 z"
           id="path4738"
           inkscape:connector-curvature="0" />
        <path
           style="opacity:0.59259261;fill:url(#linearGradient3074);fill-opacity:1;stroke:none"
           d="m -34.611079,994.96499 c -0.469083,0 -0.847684,0.0744 -1.218975,0.30475 -0.134307,0.0671 -0.287209,0.25622 -0.438069,0.50471 -0.287773,0.57368 -0.545845,1.15166 -0.790429,1.74277 -0.04993,0.13067 -0.104198,0.25559 -0.142849,0.36188 -0.09523,0.2619 -0.152372,0.43807 -0.152372,0.43807 l -0.609487,1.82843 -2.133206,6.3997 -2.43795,7.3138 -1.218974,3.6569 -0.03809,0 c -0.278423,0.8354 -0.559671,1.6693 -0.838046,2.5046 0.332555,2.5739 3.500406,3.2087 5.533003,3.9903 5.27626,1.4105 11.579098,0.3908 15.256233,-3.9236 0.687246,-0.6834 1.37064,-1.3727 2.05702,-2.057 -0.39428,-0.3116 -0.849007,-0.5143 -1.114219,-0.5143 l -2.571275,0 -1.218975,-3.6569 -2.43795,-7.3138 -2.133206,-6.3997 -0.609487,-1.82843 c 0,0 -0.914232,-2.74269 -1.523719,-3.04743 -0.371288,-0.23039 -0.749938,-0.30475 -1.218975,-0.30475 z"
           id="path4740"
           inkscape:connector-curvature="0" />
      </g>
    </g>
  </g>
</svg>
