<?xml version="1.0" encoding="UTF-8" standalone="no"?>
<!-- Created with Inkscape (http://www.inkscape.org/) -->

<svg
   xmlns:dc="http://purl.org/dc/elements/1.1/"
   xmlns:cc="http://creativecommons.org/ns#"
   xmlns:rdf="http://www.w3.org/1999/02/22-rdf-syntax-ns#"
   xmlns:svg="http://www.w3.org/2000/svg"
   xmlns="http://www.w3.org/2000/svg"
   xmlns:sodipodi="http://sodipodi.sourceforge.net/DTD/sodipodi-0.dtd"
   xmlns:inkscape="http://www.inkscape.org/namespaces/inkscape"
   width="700"
   height="134"
   id="svg4823"
   version="1.1"
   inkscape:version="0.48.4 r9939"
   sodipodi:docname="img_tips_audioplayer.svg">
  <defs
     id="defs4825" />
  <sodipodi:namedview
     id="base"
     pagecolor="#dcdcdc"
     bordercolor="#666666"
     borderopacity="1.0"
     inkscape:pageopacity="0.94117647"
     inkscape:pageshadow="2"
     inkscape:zoom="1.4"
     inkscape:cx="203.75111"
     inkscape:cy="89.535903"
     inkscape:document-units="px"
     inkscape:current-layer="layer1"
     showgrid="false"
     inkscape:window-width="1920"
     inkscape:window-height="1056"
     inkscape:window-x="0"
     inkscape:window-y="24"
     inkscape:window-maximized="1"
     showguides="true"
     inkscape:guide-bbox="true" />
  <metadata
     id="metadata4828">
    <rdf:RDF>
      <cc:Work
         rdf:about="">
        <dc:format>image/svg+xml</dc:format>
        <dc:type
           rdf:resource="http://purl.org/dc/dcmitype/StillImage" />
        <dc:title></dc:title>
      </cc:Work>
    </rdf:RDF>
  </metadata>
  <g
     inkscape:label="Layer 1"
     inkscape:groupmode="layer"
     id="layer1"
     transform="translate(0,-918.36218)">
    <path
       sodipodi:nodetypes="ccccc"
       inkscape:connector-curvature="0"
       id="path6280"
       d="m 9.3468,928.58668 681.3064,0 0,113.55102 -681.3064,0 z"
       style="color:#000000;fill:#fafafa;fill-opacity:1;fill-rule:nonzero;stroke:none;stroke-width:2;marker:none;visibility:visible;display:inline;overflow:visible;enable-background:accumulate" />
    <g
       id="g5047">
      <path
         style="fill:#323232;fill-opacity:1;stroke:none"
         d="m 596.7962,949.88338 c -0.4329,0.085 -0.7746,0.5051 -0.7688,0.9462 l 0,69.07292 c 0,0.4946 0.4515,0.9434 0.9462,0.9461 l 26.4953,0 c 0.4947,0 0.9435,-0.4515 0.9463,-0.9461 l 0,-69.07292 c 0,-0.4946 -0.4516,-0.9435 -0.9463,-0.9462 l -26.4953,0 c -0.059,-0.01 -0.1184,-0.01 -0.1774,0 z m 42.5817,0 c -0.4329,0.085 -0.7746,0.5051 -0.7689,0.9462 l 0,69.07292 c 0,0.4946 0.4516,0.9434 0.9463,0.9461 l 26.4952,0 c 0.4947,0 0.9436,-0.4515 0.9463,-0.9461 l 0,-69.07292 c 0,-0.4946 -0.4516,-0.9435 -0.9463,-0.9462 l -26.4952,0 c -0.059,-0.01 -0.1185,-0.01 -0.1774,0 z"
         id="path6282"
         inkscape:connector-curvature="0"
         sodipodi:nodetypes="cccccccccccccccccccc" />
      <text
         xml:space="preserve"
         style="font-size:37.85035324px;font-style:normal;font-weight:normal;line-height:125%;letter-spacing:0px;word-spacing:0px;fill:#ff8800;fill-opacity:1;stroke:none;font-family:Sans"
         x="489.1228"
         y="998.8172"
         id="text6284"
         sodipodi:linespacing="125%"><tspan
           sodipodi:role="line"
           id="tspan6286"
           x="489.1228"
           y="998.8172"
           style="fill:#ff8800;fill-opacity:1;font-family:Roboto;-inkscape-font-specification:Roboto">0:21</tspan></text>
      <text
         xml:space="preserve"
         style="font-size:37.85035324px;font-style:normal;font-variant:normal;font-weight:normal;font-stretch:normal;line-height:125%;letter-spacing:0px;word-spacing:0px;fill:#222222;fill-opacity:1;stroke:none;font-family:Roboto;-inkscape-font-specification:Roboto"
         x="127.62915"
         y="975.89972"
         id="text6288"
         sodipodi:linespacing="125%"><tspan
           sodipodi:role="line"
           id="tspan6290"
           x="127.62915"
           y="975.89972"
           style="font-size:33.1190567px;font-style:normal;font-weight:normal;fill:#222222;fill-opacity:1;-inkscape-font-specification:Roboto">A Wonderful Song</tspan></text>
      <text
         xml:space="preserve"
         style="font-size:37.85035324px;font-style:normal;font-variant:normal;font-weight:normal;font-stretch:normal;line-height:125%;letter-spacing:0px;word-spacing:0px;fill:#777777;fill-opacity:1;stroke:none;font-family:Roboto;-inkscape-font-specification:Roboto"
         x="128.87671"
         y="1023.2126"
         id="text6292"
         sodipodi:linespacing="125%"><tspan
           sodipodi:role="line"
           id="tspan6294"
           x="128.87671"
           y="1023.2126"
           style="font-size:28.38776398px;fill:#777777;fill-opacity:1">Great Artist</tspan></text>
      <path
         style="color:#000000;fill:#004eff;fill-opacity:1;fill-rule:nonzero;stroke:none;stroke-width:2;marker:none;visibility:visible;display:inline;overflow:visible;enable-background:accumulate"
         d="m 23.5407,940.41508 0,89.89462 89.8946,0 0,-89.89462 -89.8946,0 z m 68.6038,9.4626 c 3.9195,0 7.0969,3.1775 7.0969,7.097 0,3.9195 -3.1774,7.0969 -7.0969,7.0969 -3.9196,0 -7.097,-3.1774 -7.097,-7.0969 0,-3.9195 3.1774,-7.097 7.097,-7.097 z m -50.0039,9.1669 c 0.1566,-0.012 0.315,0 0.4731,0 1.682,0.049 3.31,1.0079 4.1695,2.4543 l 9.8766,30.9605 9.4626,14.19382 15.9089,-27.67802 c 1.9151,-1.4339 4.875,-1.2206 6.5647,0.4731 l 5.9141,13.0111 c 0.9319,0.9278 4.7285,8.14762 4.7313,9.46252 l 5.027,14.1939 c 0,2.6329 -2.3941,5.027 -5.027,5.027 l -61.5068,0 c -2.7778,0 -5.2458,-2.7036 -4.9974,-5.4706 l 4.7313,-52.04422 c 0.2061,-2.364 2.3233,-4.399 4.6721,-4.5834 z"
         id="path6296"
         inkscape:connector-curvature="0" />
    </g>
    <g
       transform="translate(-6070.9331,3955.6997)"
       id="g5080">
      <g
         transform="matrix(0.527776,0,0,0.527776,7189.4419,-2344.2972)"
         id="g5040">
        <path
           inkscape:connector-curvature="0"
           style="color:#000000;fill:#ff8800;fill-opacity:1;fill-rule:nonzero;stroke:none;stroke-width:2;marker:none;visibility:visible;display:inline;overflow:visible;enable-background:accumulate"
           d="m -1420,-1207.625 c -14.24,0 -30,5 -40,15 -17.605,17.6049 -19.9443,73.0896 -20.0937,97.8125 14.2293,16.1813 34.8901,26.5717 58.0312,27.1563 0.687,0.017 1.3712,0.031 2.0625,0.031 0.6913,0 1.3755,-0.014 2.0625,-0.031 23.1411,-0.5846 43.8019,-10.975 58.0313,-27.1563 -0.1495,-24.7229 -2.4888,-80.2076 -20.0938,-97.8125 -10,-10 -25.76,-15 -40,-15 z"
           id="path5042" />
        <path
           style="color:#000000;fill:#fafafa;fill-opacity:1;fill-rule:nonzero;stroke:none;stroke-width:2;marker:none;visibility:visible;display:inline;overflow:visible;enable-background:accumulate"
           d="m -1452,-1183.6378 c 8.6367,-7.308 20.608,-12 32,-12 11.392,0 23.3633,4.692 32,12 13,11 8,31 8,31 0,0 -4,15 -40,15 -36,0 -40,-15 -40,-15 0,0 -5,-20 8,-31 z"
           id="path5044"
           inkscape:connector-curvature="0"
           sodipodi:nodetypes="sascscs" />
        <path
           inkscape:connector-curvature="0"
           style="font-size:medium;font-style:normal;font-variant:normal;font-weight:normal;font-stretch:normal;text-indent:0;text-align:start;text-decoration:none;line-height:normal;letter-spacing:normal;word-spacing:normal;text-transform:none;direction:ltr;block-progression:tb;writing-mode:lr-tb;text-anchor:start;baseline-shift:baseline;color:#000000;fill:#ff8800;fill-opacity:1;stroke:none;stroke-width:10;marker:none;visibility:visible;display:inline;overflow:visible;enable-background:accumulate;font-family:Sans;-inkscape-font-specification:Sans"
           d="m -1420,-1237.625 c -49.6464,0 -90,40.3536 -90,90 0,5.4402 0.5057,10.7605 1.4375,15.9375 l 9.8125,-1.75 c -0.8177,-4.6025 -1.25,-9.3418 -1.25,-14.1875 0,-44.242 35.758,-80 80,-80 44.242,0 80,35.758 80,80 0,4.7801 -0.4224,9.4562 -1.2188,14 l 5.2188,0 0,1.3438 4.5938,0.5624 c 0.9275,-5.1657 1.4062,-10.4786 1.4062,-15.9062 0,-49.6464 -40.3536,-90 -90,-90 z"
           id="path5046" />
        <path
           inkscape:connector-curvature="0"
           id="path5048"
           d="m -1331.4127,-1131.7565 c -0.4867,2.7182 -3.0861,4.5272 -5.8029,4.0393 -2.7181,-0.4867 -4.5272,-3.0848 -4.0393,-5.8029 0.4867,-2.7182 3.0848,-4.5273 5.8029,-4.0392 2.7182,0.4866 4.5273,3.0861 4.0393,5.8028 z"
           style="color:#000000;fill:#ff8800;fill-opacity:1;stroke:none;stroke-width:5;marker:none;visibility:visible;display:inline;overflow:visible;enable-background:accumulate"
           inkscape:transform-center-x="-83.666215"
           inkscape:transform-center-y="14.999522" />
        <path
           inkscape:transform-center-y="14.99372"
           inkscape:transform-center-x="83.667375"
           style="color:#000000;fill:#ff8800;fill-opacity:1;stroke:none;stroke-width:5;marker:none;visibility:visible;display:inline;overflow:visible;enable-background:accumulate"
           d="m -1508.5874,-1131.7625 c -0.4865,-2.7165 1.3211,-5.3165 4.0385,-5.8016 2.7186,-0.4864 5.316,1.3202 5.8016,4.0385 0.4862,2.7186 -1.3201,5.3162 -4.0386,5.8016 -2.7164,0.4863 -5.317,-1.3212 -5.8015,-4.0385 z"
           id="path5050"
           inkscape:connector-curvature="0" />
      </g>
      <text
         xml:space="preserve"
         style="font-size:40px;font-style:normal;font-variant:normal;font-weight:normal;font-stretch:normal;line-height:125%;letter-spacing:0px;word-spacing:0px;fill:#fafafa;fill-opacity:1;stroke:none;font-family:Roboto;-inkscape-font-specification:Roboto"
         x="6428.6328"
         y="-2911.5447"
         id="text5052"
         sodipodi:linespacing="125%"><tspan
           sodipodi:role="line"
           id="tspan5054"
           x="6428.6328"
           y="-2911.5447"
           style="font-weight:bold;fill:#fafafa;fill-opacity:1;-inkscape-font-specification:Roboto Bold">2</tspan></text>
    </g>
    <g
       id="g5020"
       transform="translate(2,-4)">
      <g
         id="g6298"
         transform="matrix(0.52941239,0,0,0.52941239,752.90905,1903.0322)">
        <path
           id="path6300"
           d="m -1220,-1747.625 c -14.24,0 -30,5 -40,15 -17.605,17.6049 -19.9443,73.0896 -20.0937,97.8125 14.2293,16.1813 34.8901,26.5717 58.0312,27.1563 0.687,0.017 1.3712,0.031 2.0625,0.031 0.6913,0 1.3755,-0.014 2.0625,-0.031 23.1411,-0.5846 43.8019,-10.975 58.0313,-27.1563 -0.1495,-24.7229 -2.4888,-80.2076 -20.0938,-97.8125 -10,-10 -25.76,-15 -40,-15 z"
           style="color:#000000;fill:#ff8800;fill-opacity:1;fill-rule:nonzero;stroke:none;stroke-width:2;marker:none;visibility:visible;display:inline;overflow:visible;enable-background:accumulate"
           inkscape:connector-curvature="0" />
        <path
           sodipodi:nodetypes="sascscs"
           inkscape:connector-curvature="0"
           id="path6302"
           d="m -1252,-1723.6378 c 8.6367,-7.308 20.608,-12 32,-12 11.392,0 23.3633,4.692 32,12 13,11 8,31 8,31 0,0 -4,15 -40,15 -36,0 -40,-15 -40,-15 0,0 -5,-20 8,-31 z"
           style="color:#000000;fill:#fafafa;fill-opacity:1;fill-rule:nonzero;stroke:none;stroke-width:2;marker:none;visibility:visible;display:inline;overflow:visible;enable-background:accumulate" />
        <path
           d="m -1220,-1417.625 c -49.6464,0 -90,40.3536 -90,90 0,5.4402 0.5057,10.7605 1.4375,15.9375 l 9.8125,-1.75 c -0.8177,-4.6025 -1.25,-9.3418 -1.25,-14.1875 0,-44.242 35.758,-80 80,-80 44.242,0 80,35.758 80,80 0,4.7801 -0.4223,9.4562 -1.2188,14 l 5.2188,0 0,1.3438 4.5938,0.5624 c 0.9275,-5.1657 1.4062,-10.4786 1.4062,-15.9062 0,-49.6464 -40.3536,-90 -90,-90 z"
           id="path6304"
           style="font-size:medium;font-style:normal;font-variant:normal;font-weight:normal;font-stretch:normal;text-indent:0;text-align:start;text-decoration:none;line-height:normal;letter-spacing:normal;word-spacing:normal;text-transform:none;direction:ltr;block-progression:tb;writing-mode:lr-tb;text-anchor:start;baseline-shift:baseline;color:#000000;fill:#ff8800;fill-opacity:1;stroke:none;stroke-width:10;marker:none;visibility:visible;display:inline;overflow:visible;enable-background:accumulate;font-family:Sans;-inkscape-font-specification:Sans"
           inkscape:original="M -1220 -1417.625 C -1269.6464 -1417.625 -1310 -1377.2714 -1310 -1327.625 C -1310 -1322.1848 -1309.4943 -1316.8645 -1308.5625 -1311.6875 L -1298.75 -1313.4375 C -1299.5677 -1318.04 -1300 -1322.7793 -1300 -1327.625 C -1300 -1371.867 -1264.242 -1407.625 -1220 -1407.625 C -1175.758 -1407.625 -1140 -1371.867 -1140 -1327.625 C -1140 -1322.8449 -1140.4223 -1318.1688 -1141.2188 -1313.625 L -1136 -1313.625 L -1136 -1312.2812 L -1131.4062 -1311.7188 C -1130.4787 -1316.8845 -1130 -1322.1974 -1130 -1327.625 C -1130 -1377.2714 -1170.3536 -1417.625 -1220 -1417.625 z "
           inkscape:radius="0"
           sodipodi:type="inkscape:offset"
           transform="translate(0,-360)" />
        <path
           inkscape:transform-center-x="-147.53744"
           sodipodi:nodetypes="csccssscscccccc"
           inkscape:connector-curvature="0"
           id="path6306"
           d="m -1060.3438,-1725.125 c -1.1902,0.1653 -2.1562,1.298 -2.1562,2.5 l 0,15 c -17.4827,0 -35.0601,0 -52.5,0 -2.7614,0 -5,2.2386 -5,5 l 0,30 c 0,2.7614 2.2386,5 5,5 l 52.5,0 0,15 c 0,1.0169 0.6709,1.9916 1.625,2.3438 0.9541,0.3514 2.1231,0.057 2.7812,-0.7188 l 32.5938,-34.625 c 0.7665,-0.8962 0.7665,-3.1038 0,-4 l -32.5938,-34.625 c -0.5381,-0.6444 -1.4176,-0.9863 -2.25,-0.875 z"
           style="font-size:medium;font-style:normal;font-variant:normal;font-weight:normal;font-stretch:normal;text-indent:0;text-align:start;text-decoration:none;line-height:normal;letter-spacing:normal;word-spacing:normal;text-transform:none;direction:ltr;block-progression:tb;writing-mode:lr-tb;text-anchor:start;baseline-shift:baseline;color:#000000;fill:#ff8800;fill-opacity:1;fill-rule:nonzero;stroke:none;stroke-width:5;marker:none;visibility:visible;display:inline;overflow:visible;enable-background:accumulate;font-family:Sans;-inkscape-font-specification:Sans" />
        <path
           inkscape:transform-center-y="14.999522"
           inkscape:transform-center-x="-83.666215"
           style="color:#000000;fill:#ff8800;fill-opacity:1;stroke:none;stroke-width:5;marker:none;visibility:visible;display:inline;overflow:visible;enable-background:accumulate"
           d="m -1131.4127,-1671.7565 c -0.4867,2.7182 -3.0861,4.5272 -5.8029,4.0393 -2.7181,-0.4867 -4.5272,-3.0848 -4.0393,-5.8029 0.4867,-2.7182 3.0848,-4.5273 5.8029,-4.0392 2.7182,0.4866 4.5273,3.0861 4.0393,5.8028 z"
           id="path6308"
           inkscape:connector-curvature="0" />
        <path
           inkscape:connector-curvature="0"
           id="path6310"
           d="m -1308.5874,-1671.7625 c -0.4865,-2.7165 1.3211,-5.3165 4.0385,-5.8016 2.7186,-0.4864 5.316,1.3202 5.8016,4.0385 0.4862,2.7186 -1.3201,5.3162 -4.0386,5.8016 -2.7164,0.4863 -5.317,-1.3212 -5.8015,-4.0385 z"
           style="color:#000000;fill:#ff8800;fill-opacity:1;stroke:none;stroke-width:5;marker:none;visibility:visible;display:inline;overflow:visible;enable-background:accumulate"
           inkscape:transform-center-x="83.667375"
           inkscape:transform-center-y="14.99372" />
        <path
           d="m -1219,-1327.6378 c 0,0.5523 -0.4477,1 -1,1 -0.5523,0 -1,-0.4477 -1,-1 0,-0.5523 0.4477,-1 1,-1 0.5523,0 1,0.4477 1,1 z"
           sodipodi:ry="1"
           sodipodi:rx="1"
           sodipodi:cy="-1327.6378"
           sodipodi:cx="-1220"
           id="path6312"
           style="color:#000000;fill:#ff8800;fill-opacity:1;fill-rule:nonzero;stroke:none;stroke-width:5;marker:none;visibility:visible;display:inline;overflow:visible;enable-background:accumulate"
           sodipodi:type="arc"
           transform="translate(0,-360)" />
        <path
           inkscape:connector-curvature="0"
           style="color:#000000;fill:#ff8800;fill-opacity:1;fill-rule:nonzero;stroke:none;stroke-width:2;marker:none;visibility:visible;display:inline;overflow:visible;enable-background:accumulate"
           d="m -1220,-1747.625 c -14.24,0 -30,5 -40,15 -17.605,17.6049 -19.9443,73.0896 -20.0937,97.8125 14.2293,16.1813 34.8901,26.5717 58.0312,27.1563 0.687,0.017 1.3712,0.031 2.0625,0.031 0.6913,0 1.3755,-0.014 2.0625,-0.031 23.1411,-0.5846 43.8019,-10.975 58.0313,-27.1563 -0.1495,-24.7229 -2.4888,-80.2076 -20.0938,-97.8125 -10,-10 -25.76,-15 -40,-15 z"
           id="path6314" />
        <path
           style="color:#000000;fill:#fafafa;fill-opacity:1;fill-rule:nonzero;stroke:none;stroke-width:2;marker:none;visibility:visible;display:inline;overflow:visible;enable-background:accumulate"
           d="m -1252,-1723.6378 c 8.6367,-7.308 20.608,-12 32,-12 11.392,0 23.3633,4.692 32,12 13,11 8,31 8,31 0,0 -4,15 -40,15 -36,0 -40,-15 -40,-15 0,0 -5,-20 8,-31 z"
           id="path6316"
           inkscape:connector-curvature="0"
           sodipodi:nodetypes="sascscs" />
        <path
           sodipodi:type="inkscape:offset"
           inkscape:radius="0"
           inkscape:original="M -1220 -1417.625 C -1269.6464 -1417.625 -1310 -1377.2714 -1310 -1327.625 C -1310 -1322.1848 -1309.4943 -1316.8645 -1308.5625 -1311.6875 L -1298.75 -1313.4375 C -1299.5677 -1318.04 -1300 -1322.7793 -1300 -1327.625 C -1300 -1371.867 -1264.242 -1407.625 -1220 -1407.625 C -1175.758 -1407.625 -1140 -1371.867 -1140 -1327.625 C -1140 -1322.8449 -1140.4223 -1318.1688 -1141.2188 -1313.625 L -1136 -1313.625 L -1136 -1312.2812 L -1131.4062 -1311.7188 C -1130.4787 -1316.8845 -1130 -1322.1974 -1130 -1327.625 C -1130 -1377.2714 -1170.3536 -1417.625 -1220 -1417.625 z "
           style="font-size:medium;font-style:normal;font-variant:normal;font-weight:normal;font-stretch:normal;text-indent:0;text-align:start;text-decoration:none;line-height:normal;letter-spacing:normal;word-spacing:normal;text-transform:none;direction:ltr;block-progression:tb;writing-mode:lr-tb;text-anchor:start;baseline-shift:baseline;color:#000000;fill:#ff8800;fill-opacity:1;stroke:none;stroke-width:10;marker:none;visibility:visible;display:inline;overflow:visible;enable-background:accumulate;font-family:Sans;-inkscape-font-specification:Sans"
           id="path6318"
           d="m -1220,-1417.625 c -49.6464,0 -90,40.3536 -90,90 0,5.4402 0.5057,10.7605 1.4375,15.9375 l 9.8125,-1.75 c -0.8177,-4.6025 -1.25,-9.3418 -1.25,-14.1875 0,-44.242 35.758,-80 80,-80 44.242,0 80,35.758 80,80 0,4.7801 -0.4223,9.4562 -1.2188,14 l 5.2188,0 0,1.3438 4.5938,0.5624 c 0.9275,-5.1657 1.4062,-10.4786 1.4062,-15.9062 0,-49.6464 -40.3536,-90 -90,-90 z"
           transform="translate(0,-360)" />
        <path
           style="font-size:medium;font-style:normal;font-variant:normal;font-weight:normal;font-stretch:normal;text-indent:0;text-align:start;text-decoration:none;line-height:normal;letter-spacing:normal;word-spacing:normal;text-transform:none;direction:ltr;block-progression:tb;writing-mode:lr-tb;text-anchor:start;baseline-shift:baseline;color:#000000;fill:#ff8800;fill-opacity:1;fill-rule:nonzero;stroke:none;stroke-width:5;marker:none;visibility:visible;display:inline;overflow:visible;enable-background:accumulate;font-family:Sans;-inkscape-font-specification:Sans"
           d="m -1379.6562,-1650.155 c 1.1902,-0.1653 2.1562,-1.298 2.1562,-2.5 l 0,-15 c 17.4827,0 35.0601,0 52.5,0 2.7614,0 5,-2.2386 5,-5 l 0,-30 c 0,-2.7614 -2.2386,-5 -5,-5 l -52.5,0 0,-15 c 0,-1.0169 -0.6709,-1.9916 -1.625,-2.3438 -0.9541,-0.3514 -2.1231,-0.057 -2.7812,0.7188 l -32.5938,34.625 c -0.7665,0.8962 -0.7665,3.1038 0,4 l 32.5938,34.625 c 0.5381,0.6444 1.4176,0.9863 2.25,0.875 z"
           id="path6320"
           inkscape:connector-curvature="0"
           sodipodi:nodetypes="csccssscscccccc"
           inkscape:transform-center-x="147.53744"
           inkscape:transform-center-y="9.0915452e-05" />
        <path
           inkscape:connector-curvature="0"
           id="path6322"
           d="m -1131.4127,-1671.7565 c -0.4867,2.7182 -3.0861,4.5272 -5.8029,4.0393 -2.7181,-0.4867 -4.5272,-3.0848 -4.0393,-5.8029 0.4867,-2.7182 3.0848,-4.5273 5.8029,-4.0392 2.7182,0.4866 4.5273,3.0861 4.0393,5.8028 z"
           style="color:#000000;fill:#ff8800;fill-opacity:1;stroke:none;stroke-width:5;marker:none;visibility:visible;display:inline;overflow:visible;enable-background:accumulate"
           inkscape:transform-center-x="-83.666215"
           inkscape:transform-center-y="14.999522" />
        <path
           inkscape:transform-center-y="14.99372"
           inkscape:transform-center-x="83.667375"
           style="color:#000000;fill:#ff8800;fill-opacity:1;stroke:none;stroke-width:5;marker:none;visibility:visible;display:inline;overflow:visible;enable-background:accumulate"
           d="m -1308.5874,-1671.7625 c -0.4865,-2.7165 1.3211,-5.3165 4.0385,-5.8016 2.7186,-0.4864 5.316,1.3202 5.8016,4.0385 0.4862,2.7186 -1.3201,5.3162 -4.0386,5.8016 -2.7164,0.4863 -5.317,-1.3212 -5.8015,-4.0385 z"
           id="path6324"
           inkscape:connector-curvature="0" />
      </g>
      <text
         sodipodi:linespacing="125%"
         id="text6326"
         y="1048.1547"
         x="94.37262"
         style="font-size:40px;font-style:normal;font-variant:normal;font-weight:normal;font-stretch:normal;line-height:125%;letter-spacing:0px;word-spacing:0px;fill:#fafafa;fill-opacity:1;stroke:none;font-family:Roboto;-inkscape-font-specification:Roboto"
         xml:space="preserve"><tspan
           style="font-weight:bold;fill:#fafafa;fill-opacity:1;-inkscape-font-specification:Roboto Bold"
           y="1048.1547"
           x="94.37262"
           id="tspan6328"
           sodipodi:role="line">1</tspan></text>
    </g>
    <g
       id="g5012"
       transform="translate(0.83275522,-4)">
      <g
         id="g6350"
         transform="matrix(0.52777778,0,0,0.52777778,1274.5682,1610.1265)">
        <path
           id="path6352"
           d="m -1220,-1207.625 c -14.24,0 -30,5 -40,15 -17.605,17.6049 -19.9443,73.0896 -20.0937,97.8125 14.2293,16.1813 34.8901,26.5717 58.0312,27.1563 0.687,0.017 1.3712,0.031 2.0625,0.031 0.6913,0 1.3755,-0.014 2.0625,-0.031 23.1411,-0.5846 43.8019,-10.975 58.0313,-27.1563 -0.1495,-24.7229 -2.4888,-80.2076 -20.0938,-97.8125 -10,-10 -25.76,-15 -40,-15 z"
           style="color:#000000;fill:#ff8800;fill-opacity:1;fill-rule:nonzero;stroke:none;stroke-width:2;marker:none;visibility:visible;display:inline;overflow:visible;enable-background:accumulate"
           inkscape:connector-curvature="0" />
        <path
           sodipodi:nodetypes="sascscs"
           inkscape:connector-curvature="0"
           id="path6354"
           d="m -1252,-1183.6378 c 8.6367,-7.308 20.608,-12 32,-12 11.392,0 23.3633,4.692 32,12 13,11 8,31 8,31 0,0 -4,15 -40,15 -36,0 -40,-15 -40,-15 0,0 -5,-20 8,-31 z"
           style="color:#000000;fill:#fafafa;fill-opacity:1;fill-rule:nonzero;stroke:none;stroke-width:2;marker:none;visibility:visible;display:inline;overflow:visible;enable-background:accumulate" />
        <path
           inkscape:connector-curvature="0"
           id="path6356"
           d="m -1220,-1237.625 c -49.6464,0 -90,40.3536 -90,90 0,49.6464 40.3536,90 90,90 49.6464,0 90,-40.3536 90,-90 0,-49.6464 -40.3536,-90 -90,-90 z m 0,10 c 44.242,0 80,35.758 80,80 0,44.242 -35.758,80 -80,80 -44.242,0 -80,-35.758 -80,-80 0,-44.242 35.758,-80 80,-80 z"
           style="font-size:medium;font-style:normal;font-variant:normal;font-weight:normal;font-stretch:normal;text-indent:0;text-align:start;text-decoration:none;line-height:normal;letter-spacing:normal;word-spacing:normal;text-transform:none;direction:ltr;block-progression:tb;writing-mode:lr-tb;text-anchor:start;baseline-shift:baseline;color:#000000;fill:#ff8800;fill-opacity:1;stroke:none;stroke-width:10;marker:none;visibility:visible;display:inline;overflow:visible;enable-background:accumulate;font-family:Sans;-inkscape-font-specification:Sans" />
      </g>
      <text
         sodipodi:linespacing="125%"
         id="text6358"
         y="1048.1547"
         x="619.52692"
         style="font-size:40px;font-style:normal;font-variant:normal;font-weight:normal;font-stretch:normal;line-height:125%;letter-spacing:0px;word-spacing:0px;fill:#fafafa;fill-opacity:1;stroke:none;font-family:Roboto;-inkscape-font-specification:Roboto"
         xml:space="preserve"><tspan
           style="font-weight:bold;fill:#fafafa;fill-opacity:1;-inkscape-font-specification:Roboto Bold"
           y="1048.1547"
           x="619.52692"
           id="tspan6360"
           sodipodi:role="line">3</tspan></text>
    </g>
  </g>
</svg>
