<?xml version="1.0" encoding="UTF-8" standalone="no"?>
<!-- Created with Inkscape (http://www.inkscape.org/) -->

<svg
   xmlns:dc="http://purl.org/dc/elements/1.1/"
   xmlns:cc="http://creativecommons.org/ns#"
   xmlns:rdf="http://www.w3.org/1999/02/22-rdf-syntax-ns#"
   xmlns:svg="http://www.w3.org/2000/svg"
   xmlns="http://www.w3.org/2000/svg"
   xmlns:sodipodi="http://sodipodi.sourceforge.net/DTD/sodipodi-0.dtd"
   xmlns:inkscape="http://www.inkscape.org/namespaces/inkscape"
   width="210mm"
   height="297mm"
   id="svg3221"
   version="1.1"
   inkscape:version="0.48.4 r9939"
   sodipodi:docname="source.svg">
  <defs
     id="defs3223">
    <filter
       color-interpolation-filters="sRGB"
       inkscape:collect="always"
       id="filter3934"
       x="-0.23999999"
       width="1.48"
       y="-0.23999999"
       height="1.48">
      <feGaussianBlur
         inkscape:collect="always"
         stdDeviation="10"
         id="feGaussianBlur3936" />
    </filter>
    <filter
       color-interpolation-filters="sRGB"
       inkscape:collect="always"
       id="filter4686"
       x="-0.38784611"
       width="1.7756922"
       y="-0.33588457"
       height="1.6717691">
      <feGaussianBlur
         inkscape:collect="always"
         stdDeviation="7.2721143"
         id="feGaussianBlur4688" />
    </filter>
    <filter
       color-interpolation-filters="sRGB"
       inkscape:collect="always"
       id="filter4686-2"
       x="-0.38784611"
       width="1.7756922"
       y="-0.33588457"
       height="1.6717691">
      <feGaussianBlur
         inkscape:collect="always"
         stdDeviation="7.2721143"
         id="feGaussianBlur4688-6" />
    </filter>
    <filter
       color-interpolation-filters="sRGB"
       inkscape:collect="always"
       id="filter4696-1"
       x="-0.36000001"
       width="1.72"
       y="-0.36000001"
       height="1.72">
      <feGaussianBlur
         inkscape:collect="always"
         stdDeviation="11.24837"
         id="feGaussianBlur4698-2" />
    </filter>
    <inkscape:path-effect
       is_visible="true"
       id="path-effect4311"
       effect="spiro" />
    <inkscape:path-effect
       effect="spiro"
       id="path-effect4313"
       is_visible="true" />
    <inkscape:path-effect
       effect="spiro"
       id="path-effect4674"
       is_visible="true" />
    <inkscape:path-effect
       is_visible="true"
       id="path-effect4671"
       effect="spiro" />
    <inkscape:path-effect
       effect="spiro"
       id="path-effect4396"
       is_visible="true" />
    <inkscape:path-effect
       is_visible="true"
       id="path-effect4421"
       effect="spiro" />
    <inkscape:path-effect
       is_visible="true"
       id="path-effect4668"
       effect="spiro" />
    <inkscape:path-effect
       effect="spiro"
       id="path-effect4665"
       is_visible="true" />
    <inkscape:path-effect
       effect="spiro"
       id="path-effect4662"
       is_visible="true" />
    <filter
       color-interpolation-filters="sRGB"
       inkscape:collect="always"
       id="filter4834"
       x="-0.64641017"
       width="2.2928202"
       y="-0.5598076"
       height="2.1196153">
      <feGaussianBlur
         inkscape:collect="always"
         stdDeviation="12.120191"
         id="feGaussianBlur4836" />
    </filter>
    <inkscape:path-effect
       is_visible="true"
       id="path-effect4261"
       effect="spiro" />
    <inkscape:path-effect
       is_visible="true"
       id="path-effect4932"
       effect="spiro" />
    <inkscape:path-effect
       is_visible="true"
       id="path-effect3337"
       effect="spiro" />
    <filter
       color-interpolation-filters="sRGB"
       inkscape:collect="always"
       id="filter7490"
       x="-0.35999858"
       width="1.7199972"
       y="-0.36000142"
       height="1.7200028">
      <feGaussianBlur
         inkscape:collect="always"
         stdDeviation="11.250182"
         id="feGaussianBlur7492" />
    </filter>
    <filter
       color-interpolation-filters="sRGB"
       inkscape:collect="always"
       id="filter4686-5"
       x="-0.38784611"
       width="1.7756922"
       y="-0.33588457"
       height="1.6717691">
      <feGaussianBlur
         inkscape:collect="always"
         stdDeviation="7.2721143"
         id="feGaussianBlur4688-0" />
    </filter>
    <filter
       color-interpolation-filters="sRGB"
       inkscape:collect="always"
       id="filter4696-6"
       x="-0.36000001"
       width="1.72"
       y="-0.36000001"
       height="1.72">
      <feGaussianBlur
         inkscape:collect="always"
         stdDeviation="11.24837"
         id="feGaussianBlur4698-1" />
    </filter>
    <filter
       color-interpolation-filters="sRGB"
       inkscape:collect="always"
       id="filter4710"
       x="-0.338999"
       width="1.6779979"
       y="-0.38377488"
       height="1.7675498">
      <feGaussianBlur
         inkscape:collect="always"
         stdDeviation="11.992965"
         id="feGaussianBlur4712" />
    </filter>
    <inkscape:path-effect
       is_visible="true"
       id="path-effect4451"
       effect="spiro" />
    <inkscape:path-effect
       effect="spiro"
       id="path-effect4396-4"
       is_visible="true" />
    <inkscape:path-effect
       is_visible="true"
       id="path-effect4421-4"
       effect="spiro" />
    <inkscape:path-effect
       is_visible="true"
       id="path-effect4311-6"
       effect="spiro" />
    <inkscape:path-effect
       effect="spiro"
       id="path-effect4313-6"
       is_visible="true" />
  </defs>
  <sodipodi:namedview
     id="base"
     pagecolor="#c8c8c8"
     bordercolor="#666666"
     borderopacity="1.0"
     inkscape:pageopacity="1"
     inkscape:pageshadow="2"
     inkscape:zoom="0.7"
     inkscape:cx="396.04506"
     inkscape:cy="601.29256"
     inkscape:document-units="px"
     inkscape:current-layer="layer1"
     showgrid="true"
     inkscape:window-width="1680"
     inkscape:window-height="1026"
     inkscape:window-x="1920"
     inkscape:window-y="54"
     inkscape:window-maximized="1">
    <inkscape:grid
       type="xygrid"
       id="grid3229"
       empspacing="5"
       visible="true"
       enabled="true"
       snapvisiblegridlinesonly="true" />
  </sodipodi:namedview>
  <metadata
     id="metadata3226">
    <rdf:RDF>
      <cc:Work
         rdf:about="">
        <dc:format>image/svg+xml</dc:format>
        <dc:type
           rdf:resource="http://purl.org/dc/dcmitype/StillImage" />
        <dc:title />
      </cc:Work>
    </rdf:RDF>
  </metadata>
  <g
     inkscape:label="Calque 1"
     inkscape:groupmode="layer"
     id="layer1">
    <g
       transform="matrix(0.79009399,0,0,0.79009399,-506.26386,-92.081696)"
       id="g7507">
      <g
         style="fill:#ff8800;fill-opacity:1;stroke:none;filter:url(#filter7490)"
         transform="translate(1.4709462e-7,-100)"
         id="g7478">
        <path
           inkscape:connector-curvature="0"
           id="rect7480"
           d="m 904.99988,547.36194 29.99761,0 0,75.00092 -29.99761,0 z"
           style="opacity:0.9;fill:#ff8800;fill-opacity:1;stroke:none" />
        <path
           inkscape:connector-curvature="0"
           id="rect7482"
           d="m 950.00378,547.36194 29.99761,0 0,75.00092 -29.99761,0 z"
           style="opacity:0.9;fill:#ff8800;fill-opacity:1;stroke:none" />
      </g>
      <g
         id="g7497">
        <rect
           y="447.36194"
           x="904.99988"
           height="75.000923"
           width="29.997608"
           id="rect4644-7"
           style="opacity:0.9;fill:#1e1e1e;fill-opacity:1;stroke:#fafafa;stroke-width:2;stroke-linejoin:round;stroke-miterlimit:4;stroke-opacity:1;stroke-dasharray:none" />
        <rect
           style="opacity:0.9;fill:#1e1e1e;fill-opacity:1;stroke:#fafafa;stroke-width:2;stroke-linejoin:round;stroke-miterlimit:4;stroke-opacity:1;stroke-dasharray:none"
           id="rect4646-3"
           width="29.997608"
           height="75.000923"
           x="950.00378"
           y="447.36194" />
      </g>
    </g>
    <g
       transform="matrix(0.79009399,0,0,0.79009399,-431.4342,-89.901368)"
       id="g7474">
      <rect
         transform="matrix(0,1,-1,0,-80,0)"
         y="-1144.9312"
         x="647.36206"
         height="74.989136"
         width="74.989136"
         id="rect3333-1"
         style="fill:#ff8800;fill-opacity:1;stroke:none;filter:url(#filter4696-6)" />
      <rect
         style="opacity:0.8;fill:#f0f0f0;fill-opacity:1;stroke:#1e1e1e;stroke-width:2;stroke-linejoin:round;stroke-miterlimit:4;stroke-opacity:1;stroke-dasharray:none"
         id="rect3335-6"
         width="74.989136"
         height="74.989136"
         x="647.36206"
         y="-1064.9312"
         transform="matrix(0,1,-1,0,0,0)" />
    </g>
    <g
       transform="matrix(0.79009399,0,0,0.79009399,-372.04639,-89.901352)"
       id="g7439">
      <path
         sodipodi:type="star"
         style="fill:#ff8800;fill-opacity:1;fill-rule:nonzero;stroke:none;filter:url(#filter4686-5)"
         id="path3357-8"
         sodipodi:sides="3"
         sodipodi:cx="535"
         sodipodi:cy="577.36218"
         sodipodi:r1="30"
         sodipodi:r2="15"
         sodipodi:arg1="0"
         sodipodi:arg2="1.0471976"
         inkscape:flatsided="true"
         inkscape:rounded="0"
         inkscape:randomized="0"
         d="m 565,577.36218 -45,25.98076 0,-51.96152 z"
         transform="matrix(1.442436,0,0,1.442436,85.22094,-147.95139)"
         inkscape:transform-center-x="-10.818263"
         inkscape:transform-center-y="1.8712659e-05" />
      <path
         inkscape:transform-center-y="1.8712659e-05"
         inkscape:transform-center-x="-10.818263"
         transform="matrix(1.442436,0,0,1.442436,85.22094,-147.95139)"
         d="m 565,577.36218 -45,25.98076 0,-51.96152 z"
         inkscape:randomized="0"
         inkscape:rounded="0"
         inkscape:flatsided="true"
         sodipodi:arg2="1.0471976"
         sodipodi:arg1="0"
         sodipodi:r2="15"
         sodipodi:r1="30"
         sodipodi:cy="577.36218"
         sodipodi:cx="535"
         sodipodi:sides="3"
         id="path3359-4"
         style="opacity:0.8;fill:#f0f0f0;fill-opacity:1;fill-rule:nonzero;stroke:#1e1e1e;stroke-width:1.38654327;stroke-linejoin:round;stroke-miterlimit:4;stroke-opacity:1;stroke-dasharray:none"
         sodipodi:type="star" />
    </g>
    <g
       transform="matrix(0.79009399,0,0,0.79009399,-506.26386,-89.905927)"
       id="g7522">
      <g
         transform="translate(1.4709474e-7,100)"
         id="g7501"
         style="fill:#ff8800;fill-opacity:1;stroke:none;filter:url(#filter7490)">
        <path
           style="opacity:0.9;fill:#ff8800;fill-opacity:1;stroke:none"
           d="m 904.99988,547.36194 29.99761,0 0,75.00092 -29.99761,0 z"
           id="path7503"
           inkscape:connector-curvature="0" />
        <path
           style="opacity:0.9;fill:#ff8800;fill-opacity:1;stroke:none"
           d="m 950.00378,547.36194 29.99761,0 0,75.00092 -29.99761,0 z"
           id="path7505"
           inkscape:connector-curvature="0" />
      </g>
      <g
         id="g7518">
        <rect
           style="opacity:0.8;fill:#f0f0f0;fill-opacity:1;stroke:#1e1e1e;stroke-width:2;stroke-linejoin:round;stroke-miterlimit:4;stroke-opacity:1;stroke-dasharray:none"
           id="rect3365-1"
           width="29.997608"
           height="75.000923"
           x="904.99988"
           y="647.36194" />
        <rect
           y="647.36194"
           x="950.00378"
           height="75.000923"
           width="29.997608"
           id="rect3367-1"
           style="opacity:0.8;fill:#f0f0f0;fill-opacity:1;stroke:#1e1e1e;stroke-width:2;stroke-linejoin:round;stroke-miterlimit:4;stroke-opacity:1;stroke-dasharray:none" />
      </g>
    </g>
    <g
       transform="matrix(0.79009399,0,0,0.79009399,-724.11329,-89.901352)"
       id="g7470">
      <path
         inkscape:transform-center-y="1.8712659e-05"
         inkscape:transform-center-x="-12.398759"
         transform="matrix(1.6531705,0,0,1.442436,226.0544,-147.95139)"
         d="m 565,577.36218 -45,25.98076 0,-51.96152 z"
         inkscape:randomized="0"
         inkscape:rounded="0"
         inkscape:flatsided="true"
         sodipodi:arg2="1.0471976"
         sodipodi:arg1="0"
         sodipodi:r2="15"
         sodipodi:r1="30"
         sodipodi:cy="577.36218"
         sodipodi:cx="535"
         sodipodi:sides="3"
         id="path3371-6"
         style="fill:#ff8800;fill-opacity:1;fill-rule:nonzero;stroke:none;filter:url(#filter4686-5)"
         sodipodi:type="star" />
      <path
         inkscape:connector-curvature="0"
         id="path3373-7"
         d="m 1080.4463,647.37223 0,74.96875 20,-11.5625 0,11.5625 64.9062,-37.5 -64.9062,-37.46875 0,11.53125 -20,-11.53125 z"
         style="opacity:0.8;fill:#f0f0f0;fill-opacity:1;fill-rule:nonzero;stroke:#1e1e1e;stroke-width:1.99999988;stroke-linejoin:round;stroke-miterlimit:4;stroke-opacity:1;stroke-dasharray:none" />
    </g>
    <g
       transform="matrix(0.79009399,0,0,0.79009399,-506.1955,-236.53503)"
       id="g4602"
       style="opacity:0.9">
      <rect
         style="fill:#323232;fill-opacity:1;stroke:#fafafa;stroke-width:2;stroke-linejoin:round;stroke-miterlimit:4;stroke-opacity:1;stroke-dasharray:none"
         id="rect4604"
         width="29.997608"
         height="75.000923"
         x="904.99988"
         y="527.36194" />
      <rect
         y="527.36194"
         x="950.00378"
         height="75.000923"
         width="29.997608"
         id="rect4606"
         style="fill:#323232;fill-opacity:1;stroke:#fafafa;stroke-width:2;stroke-linejoin:round;stroke-miterlimit:4;stroke-opacity:1;stroke-dasharray:none" />
    </g>
    <g
       id="g3874"
       transform="matrix(0.79009399,0,0,0.79009399,82.738453,-310.0664)">
      <path
         d="m 295,507.36218 c 0,27.61424 -22.38576,50 -50,50 -27.61424,0 -50,-22.38576 -50,-50 0,-27.61423 22.38576,-50 50,-50 27.61424,0 50,22.38577 50,50 z"
         sodipodi:ry="50"
         sodipodi:rx="50"
         sodipodi:cy="507.36218"
         sodipodi:cx="245"
         id="path3870"
         style="opacity:0.76954735;fill:#5e5e5e;fill-opacity:1;stroke:none"
         sodipodi:type="arc" />
      <path
         inkscape:transform-center-x="-6.25"
         d="m 270,507.36218 -37.5,21.65064 0,-43.30127 z"
         inkscape:randomized="0"
         inkscape:rounded="0"
         inkscape:flatsided="true"
         sodipodi:arg2="1.0471976"
         sodipodi:arg1="0"
         sodipodi:r2="12.5"
         sodipodi:r1="25"
         sodipodi:cy="507.36218"
         sodipodi:cx="245"
         sodipodi:sides="3"
         id="path3872"
         style="fill:#ffffff;fill-opacity:1;stroke:none"
         sodipodi:type="star" />
    </g>
    <g
       id="g3940"
       transform="matrix(0.79009399,0,0,0.79009399,1.3305498,-314.2323)">
      <g
         id="g3966">
        <g
           transform="translate(235.17767,5.2726629)"
           id="g3884"
           style="fill:#ff8800;fill-opacity:1;filter:url(#filter3934)">
          <path
             d="m 295,507.36218 c 0,27.61424 -22.38576,50 -50,50 -27.61424,0 -50,-22.38576 -50,-50 0,-27.61423 22.38576,-50 50,-50 27.61424,0 50,22.38577 50,50 z"
             sodipodi:ry="50"
             sodipodi:rx="50"
             sodipodi:cy="507.36218"
             sodipodi:cx="245"
             id="path3886"
             style="opacity:0.76954735;fill:#ff8800;fill-opacity:1;stroke:none"
             sodipodi:type="arc" />
          <path
             inkscape:transform-center-x="-6.25"
             d="m 270,507.36218 -37.5,21.65064 0,-43.30127 z"
             inkscape:randomized="0"
             inkscape:rounded="0"
             inkscape:flatsided="true"
             sodipodi:arg2="1.0471976"
             sodipodi:arg1="0"
             sodipodi:r2="12.5"
             sodipodi:r1="25"
             sodipodi:cy="507.36218"
             sodipodi:cx="245"
             sodipodi:sides="3"
             id="path3888"
             style="fill:#ff8800;fill-opacity:1;stroke:none"
             sodipodi:type="star" />
        </g>
        <path
           d="m 295,507.36218 c 0,27.61424 -22.38576,50 -50,50 -27.61424,0 -50,-22.38576 -50,-50 0,-27.61423 22.38576,-50 50,-50 27.61424,0 50,22.38577 50,50 z"
           sodipodi:ry="50"
           sodipodi:rx="50"
           sodipodi:cy="507.36218"
           sodipodi:cx="245"
           id="path3880"
           style="opacity:0.9;fill:#2d2d2d;fill-opacity:1;stroke:none"
           sodipodi:type="arc"
           transform="translate(235.17767,5.2726629)" />
        <path
           inkscape:transform-center-x="-6.25"
           d="m 270,507.36218 -37.5,21.65064 0,-43.30127 z"
           inkscape:randomized="0"
           inkscape:rounded="0"
           inkscape:flatsided="true"
           sodipodi:arg2="1.0471976"
           sodipodi:arg1="0"
           sodipodi:r2="12.5"
           sodipodi:r1="25"
           sodipodi:cy="507.36218"
           sodipodi:cx="245"
           sodipodi:sides="3"
           id="path3882"
           style="fill:#ffffff;fill-opacity:1;stroke:none"
           sodipodi:type="star"
           transform="translate(235.17767,5.2726629)" />
      </g>
    </g>
    <g
       id="g4095"
       transform="matrix(0.79009399,0,0,0.79009399,-12.212459,-313.66795)">
      <path
         transform="translate(-11.96519,4.5583772)"
         sodipodi:type="arc"
         style="opacity:0.76954735;fill:#ff8800;fill-opacity:1;stroke:none;filter:url(#filter3934)"
         id="path4007"
         sodipodi:cx="245"
         sodipodi:cy="507.36218"
         sodipodi:rx="50"
         sodipodi:ry="50"
         d="m 295,507.36218 c 0,27.61424 -22.38576,50 -50,50 -27.61424,0 -50,-22.38576 -50,-50 0,-27.61423 22.38576,-50 50,-50 27.61424,0 50,22.38577 50,50 z" />
      <path
         transform="translate(-11.96519,4.5583772)"
         sodipodi:type="star"
         style="fill:#ff8800;fill-opacity:1;stroke:none;filter:url(#filter3934)"
         id="path4009"
         sodipodi:sides="3"
         sodipodi:cx="245"
         sodipodi:cy="507.36218"
         sodipodi:r1="25"
         sodipodi:r2="12.5"
         sodipodi:arg1="0"
         sodipodi:arg2="1.0471976"
         inkscape:flatsided="true"
         inkscape:rounded="0"
         inkscape:randomized="0"
         d="m 270,507.36218 -37.5,21.65064 0,-43.30127 z"
         inkscape:transform-center-x="-6.25" />
      <path
         d="m 295,507.36218 c 0,27.61424 -22.38576,50 -50,50 -27.61424,0 -50,-22.38576 -50,-50 0,-27.61423 22.38576,-50 50,-50 27.61424,0 50,22.38577 50,50 z"
         sodipodi:ry="50"
         sodipodi:rx="50"
         sodipodi:cy="507.36218"
         sodipodi:cx="245"
         id="path4011"
         style="opacity:0.9;fill:#2d2d2d;fill-opacity:1;stroke:none"
         sodipodi:type="arc"
         transform="translate(-11.96519,4.5583772)" />
      <rect
         y="491.74197"
         x="210.53481"
         height="40"
         width="20"
         id="rect4042"
         style="opacity:0.9;fill:#ffffff;fill-opacity:1;stroke:none" />
      <rect
         y="492.09912"
         x="235.53481"
         height="40"
         width="20"
         id="rect4042-8"
         style="opacity:0.9;fill:#ffffff;fill-opacity:1;stroke:none" />
    </g>
    <g
       id="g4243"
       transform="matrix(0.79009399,0,0,0.79009399,-20.792082,-313.69215)">
      <path
         transform="translate(-133.24816,4.5890152)"
         sodipodi:type="arc"
         style="opacity:0.76954735;fill:#5e5e5e;fill-opacity:1;stroke:none"
         id="path3997"
         sodipodi:cx="245"
         sodipodi:cy="507.36218"
         sodipodi:rx="50"
         sodipodi:ry="50"
         d="m 295,507.36218 c 0,27.61424 -22.38576,50 -50,50 -27.61424,0 -50,-22.38576 -50,-50 0,-27.61423 22.38576,-50 50,-50 27.61424,0 50,22.38577 50,50 z" />
      <g
         id="g4077"
         transform="translate(-120.39101,1.1961472)">
        <rect
           y="490.57648"
           x="209.64285"
           height="40"
           width="20"
           id="rect4079"
           style="opacity:0.9;fill:#ffffff;fill-opacity:1;stroke:none" />
        <rect
           y="490.93362"
           x="234.64285"
           height="40"
           width="20"
           id="rect4081"
           style="opacity:0.9;fill:#ffffff;fill-opacity:1;stroke:none" />
      </g>
    </g>
    <text
       xml:space="preserve"
       style="font-size:31.60375977px;font-style:normal;font-weight:normal;line-height:125%;letter-spacing:0px;word-spacing:0px;fill:#000000;fill-opacity:1;stroke:none;font-family:Sans"
       x="20"
       y="42.362183"
       id="text3358"
       sodipodi:linespacing="125%"><tspan
         sodipodi:role="line"
         x="20"
         y="42.362183"
         id="tspan3362">Video</tspan></text>
    <text
       xml:space="preserve"
       style="font-size:31.60375977px;font-style:normal;font-weight:normal;line-height:125%;letter-spacing:0px;word-spacing:0px;fill:#000000;fill-opacity:1;stroke:none;font-family:Sans"
       x="20"
       y="168.77722"
       id="text3366"
       sodipodi:linespacing="125%"><tspan
         sodipodi:role="line"
         id="tspan3368"
         x="20"
         y="168.77722">Audio</tspan></text>
    <path
       inkscape:connector-curvature="0"
       id="path4600"
       d="m 129.82306,180.14322 0,59.23228 15.80188,-9.13546 0,9.13546 51.282,-29.62845 -51.282,-29.60383 0,9.11073 z"
       style="opacity:0.9;fill:#323232;fill-opacity:1;fill-rule:nonzero;stroke:#fafafa;stroke-width:1.58018792;stroke-linejoin:round;stroke-miterlimit:4;stroke-opacity:1;stroke-dasharray:none"
       sodipodi:nodetypes="cccccccc" />
    <g
       transform="matrix(0.79009399,0,0,0.79009399,-788.02628,-250.09592)"
       id="g4807">
      <path
         sodipodi:type="star"
         style="fill:#ff8800;fill-opacity:1;fill-rule:nonzero;stroke:none;filter:url(#filter4686)"
         id="path4801"
         sodipodi:sides="3"
         sodipodi:cx="535"
         sodipodi:cy="577.36218"
         sodipodi:r1="30"
         sodipodi:r2="15"
         sodipodi:arg1="0"
         sodipodi:arg2="1.0471976"
         inkscape:flatsided="true"
         inkscape:rounded="0"
         inkscape:randomized="0"
         d="m 565,577.36218 -45,25.98076 0,-51.96152 z"
         transform="matrix(1.6531705,0,0,1.442436,306.0544,-147.95139)"
         inkscape:transform-center-x="-12.398759"
         inkscape:transform-center-y="1.8712659e-05" />
      <path
         style="opacity:0.9;fill:#1e1e1e;fill-opacity:1;fill-rule:nonzero;stroke:#fafafa;stroke-width:1.99999988;stroke-linejoin:round;stroke-miterlimit:4;stroke-opacity:1;stroke-dasharray:none"
         d="m 1161.6963,649.20257 0,74.96875 20,-11.5625 0,11.5625 64.9062,-37.5 -64.9062,-37.46875 0,11.53125 -20,-11.53125 z"
         id="path4640"
         inkscape:connector-curvature="0" />
    </g>
    <path
       inkscape:transform-center-x="-8.5474333"
       transform="matrix(1.13966,0,0,1.13966,-304.77841,-448.23724)"
       d="m 565,577.36218 -45,25.98076 0,-51.96152 z"
       inkscape:randomized="0"
       inkscape:rounded="0"
       inkscape:flatsided="true"
       sodipodi:arg2="1.0471976"
       sodipodi:arg1="0"
       sodipodi:r2="15"
       sodipodi:r1="30"
       sodipodi:cy="577.36218"
       sodipodi:cx="535"
       sodipodi:sides="3"
       id="path4596"
       style="opacity:0.9;fill:#323232;fill-opacity:1;fill-rule:nonzero;stroke:#fafafa;stroke-width:1.38654327;stroke-linejoin:round;stroke-miterlimit:4;stroke-opacity:1;stroke-dasharray:none"
       sodipodi:type="star" />
    <g
       transform="matrix(0.79009399,0,0,0.79009399,-372.04639,-250.09592)"
       id="g4803">
      <path
         inkscape:transform-center-y="1.8712659e-05"
         inkscape:transform-center-x="-10.818263"
         transform="matrix(1.442436,0,0,1.442436,85.22094,-147.95139)"
         d="m 565,577.36218 -45,25.98076 0,-51.96152 z"
         inkscape:randomized="0"
         inkscape:rounded="0"
         inkscape:flatsided="true"
         sodipodi:arg2="1.0471976"
         sodipodi:arg1="0"
         sodipodi:r2="15"
         sodipodi:r1="30"
         sodipodi:cy="577.36218"
         sodipodi:cx="535"
         sodipodi:sides="3"
         id="path4676"
         style="fill:#ff8800;fill-opacity:1;fill-rule:nonzero;stroke:none;filter:url(#filter4686-2)"
         sodipodi:type="star" />
      <path
         sodipodi:type="star"
         style="opacity:0.9;fill:#1e1e1e;fill-opacity:1;fill-rule:nonzero;stroke:#fafafa;stroke-width:1.38654327;stroke-linejoin:round;stroke-miterlimit:4;stroke-opacity:1;stroke-dasharray:none"
         id="path4636"
         sodipodi:sides="3"
         sodipodi:cx="535"
         sodipodi:cy="577.36218"
         sodipodi:r1="30"
         sodipodi:r2="15"
         sodipodi:arg1="0"
         sodipodi:arg2="1.0471976"
         inkscape:flatsided="true"
         inkscape:rounded="0"
         inkscape:randomized="0"
         d="m 565,577.36218 -45,25.98076 0,-51.96152 z"
         transform="matrix(1.442436,0,0,1.442436,85.22094,-147.95139)"
         inkscape:transform-center-x="-10.818263"
         inkscape:transform-center-y="1.8712659e-05" />
    </g>
    <rect
       style="opacity:0.9;fill:#323232;fill-opacity:1;stroke:#fafafa;stroke-width:1.58018804;stroke-linejoin:round;stroke-miterlimit:4;stroke-opacity:1;stroke-dasharray:none"
       id="rect4598"
       width="59.248466"
       height="59.248466"
       x="180.13513"
       y="-410.31049"
       transform="matrix(0,1,-1,0,0,0)" />
    <g
       transform="matrix(0.79009399,0,0,0.79009399,-494.44218,-250.09594)"
       id="g4708">
      <rect
         style="fill:#ff8800;fill-opacity:1;stroke:none;filter:url(#filter4696-1)"
         id="rect4694"
         width="74.989136"
         height="74.989136"
         x="647.36206"
         y="-1144.9312"
         transform="matrix(0,1,-1,0,0,0)" />
      <rect
         transform="matrix(0,1,-1,0,0,0)"
         y="-1144.9312"
         x="647.36206"
         height="74.989136"
         width="74.989136"
         id="rect4638"
         style="opacity:0.9;fill:#1e1e1e;fill-opacity:1;stroke:#fafafa;stroke-width:2;stroke-linejoin:round;stroke-miterlimit:4;stroke-opacity:1;stroke-dasharray:none" />
    </g>
    <g
       transform="matrix(0.79009399,0,0,0.79009399,-503.40002,-173.32293)"
       id="g4574"
       style="opacity:0.9">
      <path
         sodipodi:nodetypes="ccccccccccccccccccccc"
         inkscape:connector-curvature="0"
         inkscape:original-d="m 1202.4226,450.31852 c -3.3334,0 -6.6667,-3 -10.0001,-3 l -14.9889,0.048 0,30 5,0 c 1.6667,0 8.3223,2.95201 9.9889,2.95201 3.3334,5 6.6667,7 10.0001,12 l 10,15 c 3.3333,5 6.6666,7 10,12 3.3333,0 6.6666,3 10,3 l 9,0 1,0 0,5 c -2.5575,12.68004 11.561,-16.56118 15,-20 -7.1714,-4.05825 -10,-10 -15,-20 l 0,5 -1,0 c -3,0 -6,-3 -9,-3 -3.3334,-5 -6.6667,-7 -10,-12 l -10,-15 c -3.3334,-5 -6.6667,-7 -10,-12.00001 z"
         inkscape:path-effect="#path-effect4311"
         id="path4576"
         d="m 1202.4226,450.31852 c -1.3254,-1.19842 -2.9517,-2.05201 -4.6793,-2.50842 -1.7275,-0.45642 -3.534,-0.4973 -5.3208,-0.49158 l -14.9889,0.048 0,30 5,0 c 1.7803,0 3.5791,0.0452 5.3018,0.49426 1.7228,0.44905 3.3486,1.2839 4.6871,2.45775 3.9423,3.42891 7.1019,7.65266 10.0001,12 l 10,15 c 2.8982,4.34732 6.0578,8.57106 10,12 1.3304,1.19127 2.9566,2.04042 4.683,2.49717 1.7264,0.45676 3.5312,0.50283 5.317,0.50283 l 9,0 1,0 0,5 15,-20 -15,-20 0,5 -1,0 c -1.632,0 -3.2853,-0.0471 -4.8512,-0.507 -1.5659,-0.45991 -3.0195,-1.31476 -4.1488,-2.493 -3.9422,-3.42894 -7.1018,-7.65268 -10,-12 l -10,-15 c -2.8982,-4.34732 -6.0578,-8.57106 -10,-12.00001"
         style="fill:#323232;fill-opacity:1;stroke:#fafafa;stroke-width:2;stroke-linecap:butt;stroke-linejoin:round;stroke-miterlimit:4;stroke-opacity:1;stroke-dasharray:none" />
      <path
         style="fill:#323232;fill-opacity:1;stroke:#fafafa;stroke-width:2;stroke-linecap:butt;stroke-linejoin:round;stroke-miterlimit:4;stroke-opacity:1;stroke-dasharray:none"
         d="m 1202.4033,519.3947 c -1.3274,1.19548 -2.9537,2.04724 -4.6808,2.50379 -1.727,0.45655 -3.5328,0.49958 -5.3192,0.49621 l -14.9697,-0.0282 0,-30 5,0 c 1.7789,0 3.5765,-0.0456 5.2969,-0.49787 1.7204,-0.45229 3.3423,-1.29315 4.6728,-2.47394 3.9422,-3.42894 7.1018,-7.65268 10,-12 l 10,-15 c 2.8982,-4.34732 6.0578,-8.57106 10,-12 1.3304,-1.19127 2.9566,-2.04042 4.683,-2.49717 1.7264,-0.45676 3.5312,-0.50283 5.317,-0.50283 l 9,0 1,0 0,-5 15,20 -15,20 0,-5 -1,0 c -1.632,0 -3.2853,0.0471 -4.8512,0.507 -1.5659,0.45991 -3.0195,1.31476 -4.1488,2.493 -3.9422,3.42894 -7.1018,7.65268 -10,12 l -10,15 c -2.8982,4.34732 -6.0578,8.57106 -10,12.00001"
         id="path4578"
         inkscape:path-effect="#path-effect4313"
         inkscape:original-d="m 1202.4033,519.3947 c -3.3333,0 -6.6667,3 -10,3 l -14.9697,-0.0282 0,-30 5,0 c 1.6667,0 8.303,-2.97181 9.9697,-2.97181 3.3333,-5 6.6667,-7 10,-12 l 10,-15 c 3.3333,-5 6.6667,-7 10,-12 3.3333,0 6.6667,-3 10,-3 l 9,0 1,0 0,-5 c -2.5574,-12.68004 11.5612,16.56118 15,20 -7.1713,4.05825 -10,10 -15,20 l 0,-5 -1,0 c -3,0 -6,3 -9,3 -3.3333,5 -6.6667,7 -10,12 l -10,15 c -3.3333,5 -6.6667,7 -10,12 z"
         inkscape:connector-curvature="0"
         sodipodi:nodetypes="cccccccccccccccccccccc" />
    </g>
    <g
       transform="matrix(0.79009399,0,0,0.79009399,-566.60754,-250.09592)"
       id="g4783"
       style="opacity:0.9">
      <path
         sodipodi:nodetypes="ccccccccccccccccccccc"
         inkscape:connector-curvature="0"
         inkscape:original-d="m 1282.4226,650.31852 c -3.3334,0 -6.6667,-3 -10.0001,-3 l -14.9889,0.048 0,30 5,0 c 1.6667,0 8.3223,2.95201 9.9889,2.95201 3.3334,5 6.6667,7 10.0001,12 l 10,15 c 3.3333,5 6.6666,7 10,12 3.3333,0 6.6666,3 10,3 l 9,0 1,0 0,5 c -2.5575,12.68004 11.561,-16.56118 15,-20 -7.1714,-4.05825 -10,-10 -15,-20 l 0,5 -1,0 c -3,0 -6,-3 -9,-3 -3.3334,-5 -6.6667,-7 -10,-12 l -10,-15 c -3.3334,-5 -6.6667,-7 -10,-12.00001 z"
         inkscape:path-effect="#path-effect4674"
         id="path4616"
         d="m 1282.4226,650.31852 c -1.3254,-1.19842 -2.9517,-2.05201 -4.6793,-2.50842 -1.7275,-0.45642 -3.534,-0.4973 -5.3208,-0.49158 l -14.9889,0.048 0,30 5,0 c 1.7803,0 3.5791,0.0452 5.3018,0.49426 1.7228,0.44905 3.3486,1.2839 4.6871,2.45775 3.9423,3.42891 7.1019,7.65266 10.0001,12 l 10,15 c 2.8982,4.34732 6.0578,8.57106 10,12 1.3304,1.19127 2.9566,2.04042 4.683,2.49717 1.7264,0.45676 3.5312,0.50283 5.317,0.50283 l 9,0 1,0 0,5 15,-20 -15,-20 0,5 -1,0 c -1.632,0 -3.2853,-0.0471 -4.8512,-0.507 -1.5659,-0.45991 -3.0195,-1.31476 -4.1488,-2.493 -3.9422,-3.42894 -7.1018,-7.65268 -10,-12 l -10,-15 c -2.8982,-4.34732 -6.0578,-8.57106 -10,-12.00001"
         style="fill:#ff8800;fill-opacity:1;stroke:#fafafa;stroke-width:2;stroke-linecap:butt;stroke-linejoin:round;stroke-miterlimit:4;stroke-opacity:1;stroke-dasharray:none" />
      <path
         style="fill:#ff8800;fill-opacity:1;stroke:#fafafa;stroke-width:2;stroke-linecap:butt;stroke-linejoin:round;stroke-miterlimit:4;stroke-opacity:1;stroke-dasharray:none"
         d="m 1282.4033,719.3947 c -1.3274,1.19548 -2.9537,2.04724 -4.6808,2.50379 -1.727,0.45655 -3.5328,0.49958 -5.3192,0.49621 l -14.9697,-0.0282 0,-30 5,0 c 1.7789,0 3.5765,-0.0456 5.2969,-0.49787 1.7204,-0.45229 3.3423,-1.29315 4.6728,-2.47394 3.9422,-3.42894 7.1018,-7.65268 10,-12 l 10,-15 c 2.8982,-4.34732 6.0578,-8.57106 10,-12 1.3304,-1.19127 2.9566,-2.04042 4.683,-2.49717 1.7264,-0.45676 3.5312,-0.50283 5.317,-0.50283 l 9,0 1,0 0,-5 15,20 -15,20 0,-5 -1,0 c -1.632,0 -3.2853,0.0471 -4.8512,0.507 -1.5659,0.45991 -3.0195,1.31476 -4.1488,2.493 -3.9422,3.42894 -7.1018,7.65268 -10,12 l -10,15 c -2.8982,4.34732 -6.0578,8.57106 -10,12.00001"
         id="path4618"
         inkscape:path-effect="#path-effect4671"
         inkscape:original-d="m 1282.4033,719.3947 c -3.3333,0 -6.6667,3 -10,3 l -14.9697,-0.0282 0,-30 5,0 c 1.6667,0 8.303,-2.97181 9.9697,-2.97181 3.3333,-5 6.6667,-7 10,-12 l 10,-15 c 3.3333,-5 6.6667,-7 10,-12 3.3333,0 6.6667,-3 10,-3 l 9,0 1,0 0,-5 c -2.5574,-12.68004 11.5612,16.56118 15,20 -7.1713,4.05825 -10,10 -15,20 l 0,-5 -1,0 c -3,0 -6,3 -9,3 -3.3333,5 -6.6667,7 -10,12 l -10,15 c -3.3333,5 -6.6667,7 -10,12 z"
         inkscape:connector-curvature="0"
         sodipodi:nodetypes="cccccccccccccccccccccc" />
    </g>
    <g
       transform="matrix(0.79009399,0,0,0.79009399,-507.98237,-173.32293)"
       id="g4580"
       style="opacity:0.9">
      <path
         style="fill:#323232;fill-opacity:1;stroke:#fafafa;stroke-width:2;stroke-linecap:butt;stroke-linejoin:round;stroke-miterlimit:4;stroke-opacity:1;stroke-dasharray:none"
         d="m 1313.3524,447.35661 0,-5 15,20 -15,20 0,-5 -10,0 c -0.706,0 -1.4165,-0.005 -2.112,0.11613 -0.6955,0.12116 -1.3888,0.38467 -1.888,0.88387 -0.4992,0.4992 -0.7627,1.19253 -0.8839,1.88802 -0.1211,0.6955 -0.1161,1.40601 -0.1161,2.11198 l 0,5 c 0,0.76897 0.02,1.55076 0.2594,2.28158 0.2393,0.73081 0.6962,1.39179 1.3104,1.85444 0.6142,0.46265 1.365,0.72134 2.1268,0.82614 0.7618,0.10481 1.5349,0.066 2.3034,0.0378 1.6659,-0.0609 3.3341,-0.0609 5,0 l -11,15 11,15 -16,0 c -2.7169,0 -5.4694,-0.088 -8.0719,-0.86791 -2.6026,-0.77993 -5.007,-2.21095 -6.9281,-4.13209 -1.9211,-1.92114 -3.3522,-4.32551 -4.1321,-6.92806 -0.7799,-2.60255 -0.8679,-5.35504 -0.8679,-8.07194 l 0,-35 c 0,-2.7169 0.088,-5.46939 0.8679,-8.07194 0.7799,-2.60255 2.211,-5.00692 4.1321,-6.92806 1.9211,-1.92114 4.3255,-3.35216 6.9281,-4.13209 2.6025,-0.77992 5.355,-0.86791 8.0719,-0.86791 l 20,0"
         id="path4582"
         inkscape:path-effect="#path-effect4396"
         inkscape:original-d="m 1313.3524,447.35661 0,-5 15,20 -15,20 0,-5 c 0,0 -8,0 -10,0 -2,0 -2,0 -4,1 -2,1 -1,2.33333 -1,4 0,1.66667 0,3.33333 0,5 0,1.66667 4.8215,3.82149 6,5 1.1785,1.17851 4,2 5,0 2,0 -11,15 -11,15 l 11,15 c 0,0 -10.1667,0 -16,0 -5.8334,0 -13.8215,-3.82149 -15,-5 -1.1785,-1.17851 -5,-3.33333 -5,-15 0,-11.66667 0,-23.33333 0,-35 0,-11.66666 3.8215,-13.82149 5,-15 1.1785,-1.17851 8.3333,-5 15,-5 6.6666,0 20,0 20,0 z"
         inkscape:connector-curvature="0"
         sodipodi:nodetypes="ccccczzzzcccczzzzzzc" />
      <path
         sodipodi:nodetypes="ccccczzzzcccczzzzzzc"
         inkscape:connector-curvature="0"
         inkscape:original-d="m 1313.3524,522.35661 0,5 -15,-20 15,-20 0,5 c 0,0 8,0 10,0 2,0 2,0 4,-1 2,-1 1,-2.33333 1,-4 0,-1.66667 0,-3.33333 0,-5 0,-1.66667 -4.8215,-3.82149 -6,-5 -1.1785,-1.17851 -4,-2 -5,0 -2,0 11,-15 11,-15 l -11,-15 c 0,0 10.1666,0 16,0 5.8333,0 13.8215,3.82149 15,5 1.1785,1.17851 5,3.33333 5,15 0,11.66667 0,23.33333 0,35 0,11.66666 -3.8215,13.82149 -5,15 -1.1785,1.17851 -8.3334,5 -15,5 -6.6667,0 -20,0 -20,0 z"
         inkscape:path-effect="#path-effect4421"
         id="path4584"
         d="m 1313.3524,522.35661 0,5 -15,-20 15,-20 0,5 10,0 c 0.706,0 1.4165,0.005 2.112,-0.11613 0.6955,-0.12116 1.3888,-0.38467 1.888,-0.88387 0.4992,-0.4992 0.7627,-1.19253 0.8839,-1.88802 0.1211,-0.6955 0.1161,-1.40601 0.1161,-2.11198 l 0,-5 c 0,-0.76897 -0.02,-1.55076 -0.2594,-2.28158 -0.2393,-0.73081 -0.6962,-1.39179 -1.3104,-1.85444 -0.6142,-0.46265 -1.365,-0.72134 -2.1268,-0.82614 -0.7618,-0.10481 -1.5349,-0.066 -2.3034,-0.0378 -1.6659,0.0609 -3.3341,0.0609 -5,0 l 11,-15 -11,-15 16,0 c 2.7169,0 5.4694,0.088 8.0719,0.86791 2.6026,0.77993 5.007,2.21095 6.9281,4.13209 1.9211,1.92114 3.3522,4.32551 4.1321,6.92806 0.7799,2.60255 0.8679,5.35504 0.8679,8.07194 l 0,35 c 0,2.7169 -0.088,5.46939 -0.8679,8.07194 -0.7799,2.60255 -2.211,5.00692 -4.1321,6.92806 -1.9211,1.92114 -4.3255,3.35216 -6.9281,4.13209 -2.6025,0.77992 -5.355,0.86791 -8.0719,0.86791 l -20,0"
         style="fill:#323232;fill-opacity:1;stroke:#fafafa;stroke-width:2;stroke-linecap:butt;stroke-linejoin:round;stroke-miterlimit:4;stroke-opacity:1;stroke-dasharray:none" />
    </g>
    <g
       transform="matrix(0.79009399,0,0,0.79009399,-571.18989,-250.09592)"
       id="g4787"
       style="opacity:0.9">
      <path
         style="fill:#ff8800;fill-opacity:1;stroke:#fafafa;stroke-width:2;stroke-linecap:butt;stroke-linejoin:round;stroke-miterlimit:4;stroke-opacity:1;stroke-dasharray:none"
         d="m 1393.3524,647.35661 0,-5 15,20 -15,20 0,-5 -10,0 c -0.706,0 -1.4165,-0.005 -2.112,0.11613 -0.6955,0.12116 -1.3888,0.38467 -1.888,0.88387 -0.4992,0.4992 -0.7627,1.19253 -0.8839,1.88802 -0.1211,0.6955 -0.1161,1.40601 -0.1161,2.11198 l 0,5 c 0,0.76897 0.02,1.55076 0.2594,2.28158 0.2393,0.73081 0.6962,1.39179 1.3104,1.85444 0.6142,0.46265 1.365,0.72134 2.1268,0.82614 0.7618,0.10481 1.5349,0.066 2.3034,0.0378 1.6659,-0.061 3.3341,-0.061 5,0 l -11,15 11,15 -16,0 c -2.7169,0 -5.4694,-0.088 -8.0719,-0.86791 -2.6026,-0.77993 -5.007,-2.21095 -6.9281,-4.13209 -1.9211,-1.92114 -3.3522,-4.32551 -4.1321,-6.92806 -0.7799,-2.60255 -0.8679,-5.35504 -0.8679,-8.07194 l 0,-35 c 0,-2.7169 0.088,-5.46939 0.8679,-8.07194 0.7799,-2.60255 2.211,-5.00692 4.1321,-6.92806 1.9211,-1.92114 4.3255,-3.35216 6.9281,-4.13209 2.6025,-0.77992 5.355,-0.86791 8.0719,-0.86791 l 20,0"
         id="path4622"
         inkscape:path-effect="#path-effect4668"
         inkscape:original-d="m 1393.3524,647.35661 0,-5 15,20 -15,20 0,-5 c 0,0 -8,0 -10,0 -2,0 -2,0 -4,1 -2,1 -1,2.33333 -1,4 0,1.66667 0,3.33333 0,5 0,1.66667 4.8215,3.82149 6,5 1.1785,1.17851 4,2 5,0 2,0 -11,15 -11,15 l 11,15 c 0,0 -10.1667,0 -16,0 -5.8334,0 -13.8215,-3.82149 -15,-5 -1.1785,-1.17851 -5,-3.33333 -5,-15 0,-11.66667 0,-23.33333 0,-35 0,-11.66666 3.8215,-13.82149 5,-15 1.1785,-1.17851 8.3333,-5 15,-5 6.6666,0 20,0 20,0 z"
         inkscape:connector-curvature="0"
         sodipodi:nodetypes="ccccczzzzcccczzzzzzc" />
      <path
         sodipodi:nodetypes="ccccczzzzcccczzzzzzc"
         inkscape:connector-curvature="0"
         inkscape:original-d="m 1393.3524,722.35661 0,5 -15,-20 15,-20 0,5 c 0,0 8,0 10,0 2,0 2,0 4,-1 2,-1 1,-2.33333 1,-4 0,-1.66667 0,-3.33333 0,-5 0,-1.66667 -4.8215,-3.82149 -6,-5 -1.1785,-1.17851 -4,-2 -5,0 -2,0 11,-15 11,-15 l -11,-15 c 0,0 10.1666,0 16,0 5.8333,0 13.8215,3.82149 15,5 1.1785,1.17851 5,3.33333 5,15 0,11.66667 0,23.33333 0,35 0,11.66666 -3.8215,13.82149 -5,15 -1.1785,1.17851 -8.3334,5 -15,5 -6.6667,0 -20,0 -20,0 z"
         inkscape:path-effect="#path-effect4665"
         id="path4624"
         d="m 1393.3524,722.35661 0,5 -15,-20 15,-20 0,5 10,0 c 0.706,0 1.4165,0.005 2.112,-0.11613 0.6955,-0.12116 1.3888,-0.38467 1.888,-0.88387 0.4992,-0.4992 0.7627,-1.19253 0.8839,-1.88802 0.1211,-0.6955 0.1161,-1.40601 0.1161,-2.11198 l 0,-5 c 0,-0.76897 -0.02,-1.55076 -0.2594,-2.28158 -0.2393,-0.73081 -0.6962,-1.39179 -1.3104,-1.85444 -0.6142,-0.46265 -1.365,-0.72134 -2.1268,-0.82614 -0.7618,-0.10481 -1.5349,-0.066 -2.3034,-0.0378 -1.6659,0.0609 -3.3341,0.0609 -5,0 l 11,-15 -11,-15 16,0 c 2.7169,0 5.4694,0.088 8.0719,0.86791 2.6026,0.77993 5.007,2.21095 6.9281,4.13209 1.9211,1.92114 3.3522,4.32551 4.1321,6.92806 0.7799,2.60255 0.8679,5.35504 0.8679,8.07194 l 0,35 c 0,2.7169 -0.088,5.46939 -0.8679,8.07194 -0.7799,2.60255 -2.211,5.00692 -4.1321,6.92806 -1.9211,1.92114 -4.3255,3.35216 -6.9281,4.13209 -2.6025,0.77992 -5.355,0.86791 -8.0719,0.86791 l -20,0"
         style="fill:#ff8800;fill-opacity:1;stroke:#fafafa;stroke-width:2;stroke-linecap:butt;stroke-linejoin:round;stroke-miterlimit:4;stroke-opacity:1;stroke-dasharray:none" />
    </g>
    <g
       transform="matrix(0.79009399,0,0,0.79009399,-568.2502,-250.09592)"
       id="g4791"
       style="opacity:0.9">
      <path
         sodipodi:nodetypes="ccccczzzzccczzzzzzc"
         inkscape:connector-curvature="0"
         inkscape:original-d="m 1487.8438,649.85661 0,-5 15,20 -15,20 0,-5 c 0,0 -8,0 -10,0 -2,0 -2,0 -4,1 -2,1 -1,2.33333 -1,4 0,1.66667 0,3.33333 0,5 0,1.66667 4.8214,3.82149 6,5 1.1785,1.17851 23,2 24,0 -8.8468,17.18292 -12.6821,12.70624 0,30 0,0 -29.1667,0 -35,0 -5.8334,0 -13.8215,-3.82149 -15,-5 -1.1786,-1.17851 -5,-3.33333 -5,-15 0,-11.66667 0,-23.33333 0,-35 0,-11.66666 3.8214,-13.82149 5,-15 1.1785,-1.17851 8.3333,-5 15,-5 6.6666,0 20,0 20,0 z"
         inkscape:path-effect="#path-effect4662"
         id="path4628"
         d="m 1487.8438,649.85661 0,-5 15,20 -15,20 0,-5 -10,0 c -0.706,0 -1.4165,-0.005 -2.112,0.11613 -0.6955,0.12116 -1.3888,0.38467 -1.888,0.88387 -0.4992,0.4992 -0.7627,1.19253 -0.8839,1.88802 -0.1211,0.6955 -0.1161,1.40601 -0.1161,2.11198 l 0,5 c 0,0.77049 0.02,1.55364 0.2578,2.28649 0.2378,0.73284 0.6926,1.39701 1.306,1.8632 0.6135,0.46619 1.3652,0.72847 2.1286,0.83249 0.7634,0.10402 1.5383,0.06 2.3076,0.0178 7.992,-0.438 16.008,-0.438 24,0 l 0,30 -35,0 c -2.7169,0 -5.4694,-0.088 -8.0719,-0.86791 -2.6026,-0.77993 -5.007,-2.21095 -6.9281,-4.13209 -1.9211,-1.92114 -3.3522,-4.32551 -4.1321,-6.92806 -0.7799,-2.60255 -0.8679,-5.35504 -0.8679,-8.07194 l 0,-35 c 0,-2.7169 0.088,-5.46939 0.8679,-8.07194 0.7799,-2.60255 2.211,-5.00692 4.1321,-6.92806 1.9211,-1.92114 4.3255,-3.35216 6.9281,-4.13209 2.6025,-0.77992 5.355,-0.86791 8.0719,-0.86791 l 20,0"
         style="fill:#ff8800;fill-opacity:1;stroke:#fafafa;stroke-width:2;stroke-linecap:butt;stroke-linejoin:round;stroke-miterlimit:4;stroke-opacity:1;stroke-dasharray:none" />
      <path
         transform="matrix(1.0462275,0,0,1.0462275,1309.6594,-166.9958)"
         d="m 205,832.36218 c 0,11.0457 -8.95431,20 -20,20 -11.04569,0 -20,-8.9543 -20,-20 0,-11.04569 8.95431,-20 20,-20 11.04569,0 20,8.95431 20,20 z"
         sodipodi:ry="20"
         sodipodi:rx="20"
         sodipodi:cy="832.36218"
         sodipodi:cx="185"
         id="path4630"
         style="fill:#ff8800;fill-opacity:1;stroke:#fafafa;stroke-width:1.91163015;stroke-linejoin:miter;stroke-miterlimit:4;stroke-opacity:1;stroke-dasharray:none"
         sodipodi:type="arc" />
      <text
         sodipodi:linespacing="125%"
         id="text4632"
         y="718.57538"
         x="1490"
         style="font-size:40.41395187px;font-style:normal;font-weight:normal;line-height:125%;letter-spacing:0px;word-spacing:0px;fill:#fafafa;fill-opacity:1;stroke:none;font-family:Sans"
         xml:space="preserve"><tspan
           style="font-style:normal;font-variant:normal;font-weight:normal;font-stretch:normal;fill:#fafafa;fill-opacity:1;stroke:none;font-family:OpenSymbol;-inkscape-font-specification:OpenSymbol"
           y="718.57538"
           x="1490"
           id="tspan4634"
           sodipodi:role="line">1</tspan></text>
    </g>
    <path
       style="opacity:0.9;fill:#323232;fill-opacity:1;fill-rule:nonzero;stroke:#fafafa;stroke-width:0.79009402;stroke-opacity:1"
       d="m 657.15751,178.16774 c -0.79011,0 -2.37028,0.79009 -3.16038,1.58019 -0.79009,0.79009 -0.79009,1.58019 -0.79009,2.37028 l 0,35.6283 c -0.38751,-0.0436 -0.78392,-0.074 -1.18514,-0.074 -5.0254,0 -9.11077,3.51959 -9.11077,7.87625 0,4.35673 4.08537,7.90094 9.11077,7.90094 5.0254,0 9.11077,-3.54421 9.11077,-7.90094 0,-0.13613 -0.0168,-0.26057 -0.0246,-0.39505 l 0,-43.03543 c 0,-0.79009 0.0223,-1.60245 0.79009,-2.37028 0.76784,-0.76783 2.37028,-1.58019 3.16038,-1.58019 l -3.95047,0 -3.95047,0 z m 19.75235,3.95047 c -0.79011,0 -2.37028,0.79009 -3.16038,1.58019 -0.79009,0.79009 -0.79009,1.58019 -0.79009,2.37028 l 0,35.62834 c -0.39291,-0.045 -0.7781,-0.0743 -1.18514,-0.0743 -5.02694,0 -9.11077,3.5442 -9.11077,7.90094 0,4.35666 4.08383,7.87621 9.11077,7.87621 5.02693,0 9.08608,-3.51955 9.08608,-7.87621 l 0,-43.45521 c 0,-0.79009 0.0223,-1.60244 0.79009,-2.37028 0.76784,-0.76783 2.37028,-1.58019 3.16038,-1.58019 l -3.95047,0 -3.95047,0 z m 19.75235,3.95047 c -0.79011,0 -2.37028,0.79009 -3.16038,1.58019 -0.79009,0.79009 -0.79009,1.58019 -0.79009,2.37028 l 0,35.60361 c -0.39184,-0.045 -0.77921,-0.049 -1.18514,-0.049 -5.01332,0 -9.08609,3.51964 -9.08609,7.87629 0,4.35666 4.07277,7.90094 9.08609,7.90094 5.00383,0 9.04618,-3.53093 9.06143,-7.87629 l 0.0246,0 0,-43.45517 c 0,-0.79009 0.0221,-1.60244 0.79009,-2.37028 0.76782,-0.76783 2.37026,-1.58019 3.16035,-1.58019 l -3.95044,0 -3.95047,0 z"
       id="path4913"
       inkscape:connector-curvature="0"
       sodipodi:nodetypes="csscsssscsccccccsscsssssccccccsscsssccsccccc" />
    <path
       inkscape:connector-curvature="0"
       style="opacity:0.9;fill:#ff8800;fill-opacity:1;fill-rule:nonzero;stroke:#fafafa;stroke-width:0.79009402;stroke-opacity:1"
       d="m 657.15751,259.41358 c -0.79011,0 -2.37028,0.7901 -3.16037,1.58019 -0.7901,0.7901 -0.79011,1.58019 -0.7901,2.37028 l 0,35.6283 c -0.38751,-0.0436 -0.78391,-0.074 -1.18514,-0.074 -5.0254,0 -9.11077,3.5196 -9.11077,7.87626 0,4.35666 4.08537,7.90094 9.11077,7.90094 5.0254,0 9.11077,-3.54428 9.11077,-7.90094 0,-0.13613 -0.0168,-0.26057 -0.0247,-0.39505 l 0,-43.03544 c 0,-0.79009 0.0223,-1.60244 0.7901,-2.37028 0.76783,-0.76783 2.37028,-1.58019 3.16037,-1.58019 l -3.95047,0 -3.95047,0 z m 19.75235,3.95047 c -0.79011,0 -2.37028,0.7901 -3.16037,1.58019 -0.7901,0.7901 -0.79011,1.58019 -0.7901,2.37028 l 0,35.62827 c -0.3929,-0.045 -0.7781,-0.0743 -1.18514,-0.0743 -5.02693,0 -9.11077,3.54429 -9.11077,7.90102 0,4.35666 4.08384,7.87621 9.11077,7.87621 5.02693,0 9.08608,-3.51955 9.08608,-7.87621 l 0,-43.45521 c 0,-0.7901 0.0223,-1.60245 0.7901,-2.37029 0.76783,-0.76783 2.37028,-1.58018 3.16037,-1.58018 l -3.95047,0 -3.95047,0 z m 19.75235,3.95047 c -0.79011,0 -2.37028,0.7901 -3.16037,1.58019 -0.7901,0.7901 -0.79011,1.58019 -0.7901,2.37028 l 0,35.60362 c -0.39184,-0.045 -0.77921,-0.049 -1.18514,-0.049 -5.0133,0 -9.08608,3.51955 -9.08608,7.87628 0,4.35666 4.07278,7.90087 9.08608,7.90087 5.00384,0 9.04609,-3.53086 9.06139,-7.87621 l 0.0246,0 0,-43.45518 c 0,-0.7901 0.0223,-1.60245 0.7901,-2.37028 0.76783,-0.76783 2.37028,-1.58019 3.16037,-1.58019 l -3.95047,0 -3.95047,0 z"
       id="path4825" />
    <text
       xml:space="preserve"
       style="font-size:31.60375977px;font-style:normal;font-weight:normal;line-height:125%;letter-spacing:0px;word-spacing:0px;fill:#000000;fill-opacity:1;stroke:none;font-family:Sans"
       x="16.618042"
       y="922.48547"
       id="text4563"
       sodipodi:linespacing="125%"><tspan
         sodipodi:role="line"
         id="tspan4565"
         x="16.618042"
         y="922.48547">Tools</tspan></text>
    <rect
       style="opacity:0.9;fill:#ffffff;fill-opacity:1;stroke:none"
       id="rect4499"
       width="59.248466"
       height="59.248466"
       x="946.53821"
       y="-190.33881"
       transform="matrix(0,1,-1,0,0,0)" />
    <path
       sodipodi:type="star"
       style="fill:#ff8800;fill-opacity:1;stroke:none;filter:url(#filter4834)"
       id="path3877"
       sodipodi:sides="3"
       sodipodi:cx="535"
       sodipodi:cy="577.36218"
       sodipodi:r1="30"
       sodipodi:r2="15"
       sodipodi:arg1="0"
       sodipodi:arg2="1.0471976"
       inkscape:flatsided="true"
       inkscape:rounded="0"
       inkscape:randomized="0"
       d="m 565,577.36218 -45,25.98076 0,-51.96152 z"
       inkscape:transform-center-x="-5.9256996"
       transform="matrix(0.77114224,0,0,0.77114224,-337.47693,528.03887)" />
    <text
       xml:space="preserve"
       style="font-size:15.80187988px;font-style:normal;font-weight:normal;line-height:125%;letter-spacing:0px;word-spacing:0px;fill:#000000;fill-opacity:1;stroke:none;font-family:Sans"
       x="130.86081"
       y="942.36218"
       id="text4636"
       sodipodi:linespacing="125%"><tspan
         sodipodi:role="line"
         id="tspan4638"
         x="130.86081"
         y="942.36218">Ref</tspan></text>
    <text
       xml:space="preserve"
       style="font-size:15.80187988px;font-style:normal;font-weight:normal;line-height:125%;letter-spacing:0px;word-spacing:0px;fill:#000000;fill-opacity:1;stroke:none;font-family:Sans"
       x="40"
       y="942.36218"
       id="text4640"
       sodipodi:linespacing="125%"><tspan
         sodipodi:role="line"
         id="tspan4642"
         x="40"
         y="942.36218">Shadow</tspan></text>
    <path
       sodipodi:nodetypes="ccccccccccccccccccccc"
       inkscape:connector-curvature="0"
       inkscape:original-d="m 228.89391,998.64596 c -2.63365,0 -5.2673,2.37024 -7.90094,2.37024 l -11.82747,-0.022 0,-23.70277 3.95047,0 c 1.31682,0 6.56017,-2.348 7.877,-2.348 2.63364,-3.9505 5.26729,-5.53069 7.90094,-9.48116 l 7.90094,-11.85143 c 2.63364,-3.95047 5.26729,-5.53066 7.90094,-9.48113 2.63364,0 5.26729,-2.37028 7.90094,-2.37028 l 7.11084,0 0.7901,0 0,-3.95047 c -2.0206,-10.01842 9.13442,13.08489 11.85141,15.80188 -5.66604,3.2064 -7.90094,7.90094 -11.85141,15.8019 l 0,-3.95047 -0.7901,0 c -2.37028,0 -4.74056,2.37028 -7.11084,2.37028 -2.63365,3.95047 -5.2673,5.53069 -7.90094,9.48116 l -7.90094,11.85141 c -2.63365,3.95047 -5.2673,5.53066 -7.90094,9.48113 z"
       inkscape:path-effect="#path-effect4261"
       id="path4257"
       d="m 228.89391,998.64596 c -1.04882,0.94448 -2.33374,1.61744 -3.69828,1.97814 -1.36454,0.3607 -2.79125,0.3947 -4.20266,0.3921 l -11.82747,-0.022 0,-23.70277 3.95047,0 c 1.40548,0 2.82577,-0.036 4.18506,-0.39337 1.3593,-0.35734 2.64074,-1.0217 3.69194,-1.95463 3.11473,-2.7092 5.61108,-6.04636 7.90094,-9.48116 l 7.90094,-11.85143 c 2.28986,-3.43479 4.7862,-6.77195 7.90094,-9.48113 1.05112,-0.94122 2.336,-1.61212 3.70001,-1.973 1.36401,-0.36088 2.78999,-0.39728 4.20093,-0.39728 l 7.11084,0 0.7901,0 0,-3.95047 11.85141,15.80188 -11.85141,15.8019 0,-3.95047 -0.7901,0 c -1.28947,0 -2.59566,0.0372 -3.83287,0.40057 -1.23721,0.36338 -2.38572,1.03879 -3.27797,1.96971 -3.11473,2.7092 -5.61107,6.04636 -7.90094,9.48116 l -7.90094,11.85141 c -2.28986,3.43479 -4.7862,6.77194 -7.90094,9.48113 l 0,-2.9e-4"
       style="fill:#323232;fill-opacity:1;stroke:#ffffff;stroke-width:0.39504701;stroke-linecap:butt;stroke-linejoin:round;stroke-miterlimit:4;stroke-opacity:1;stroke-dasharray:none" />
    <g
       id="g4935"
       transform="matrix(0.79009399,0,0,0.79009399,-311.81304,349.06539)">
      <path
         style="fill:#ff8800;fill-opacity:1;stroke:none"
         d="m 771.91696,814.70993 -0.002,-54.9994 c -2e-5,-0.5413 0.0244,-1.08991 0.19006,-1.60524 0.16566,-0.51533 0.45739,-0.984 0.80994,-1.39476 0.99698,-1.1616 2.47253,-1.89938 4,-2 -1.66666,0 -3.33332,0 -4.99998,0 -1.66667,0 -3.33333,0 -5,0 -0.39171,0 -0.78507,0.004 -1.17193,0.0658 -0.38686,0.0614 -0.76544,0.17925 -1.11415,0.35768 -0.69741,0.35686 -1.24395,0.94976 -1.71394,1.57653 -0.32381,0.43183 -0.62149,0.89125 -0.79555,1.40217 -0.17407,0.51091 -0.20444,1.05808 -0.20444,1.59783 l 10e-6,55 10.00198,-6e-4"
         id="path4928"
         inkscape:path-effect="#path-effect4932"
         inkscape:original-d="m 771.91696,814.70993 -0.002,-54.9994 c 0,-1 0.0282,-2.02817 1,-3 0.97183,-0.97182 3,-2 4,-2 0,0 -3.33332,0 -4.99998,0 -1.66666,0 -5,0 -5,0 -1.00002,0 -3.00002,1 -4.00002,2 -1,1 -1,2 -0.99999,3 l 10e-6,55 z"
         inkscape:connector-curvature="0"
         sodipodi:nodetypes="cczczccccc" />
      <path
         sodipodi:type="arc"
         style="fill:#ff8800;fill-opacity:1;fill-rule:nonzero;stroke:none"
         id="path4930"
         sodipodi:cx="895"
         sodipodi:cy="824.86218"
         sodipodi:rx="9.4949436"
         sodipodi:ry="7.6272612"
         d="m 904.49494,824.86218 c 0,4.21242 -4.25103,7.62726 -9.49494,7.62726 -5.24391,0 -9.49494,-3.41484 -9.49494,-7.62726 0,-4.21242 4.25103,-7.62726 9.49494,-7.62726 5.24391,0 9.49494,3.41484 9.49494,7.62726 z"
         transform="matrix(1.212932,0,0,1.3090144,-325.15946,-265.04959)" />
    </g>
    <path
       sodipodi:nodetypes="ccccczzzzcccczzzzzzc"
       inkscape:connector-curvature="0"
       inkscape:original-d="m 346.53008,943.22809 0,-3.95047 11.85141,15.80188 -11.85141,15.80188 0,-3.95047 c 0,0 -6.32075,0 -7.90094,0 -1.58019,0 -1.58019,0 -3.16038,0.7901 -1.58019,0.79009 -0.79009,1.84355 -0.79009,3.16037 0,1.31682 0,2.63367 0,3.95044 0,1.31685 3.80944,3.01934 4.74056,3.95047 0.93113,0.93113 3.16038,1.58019 3.95047,0 1.58019,0 -8.69103,11.85141 -8.69103,11.85141 l 8.69103,11.8514 c 0,0 -8.03265,0 -12.6415,0 -4.60894,0 -10.92029,-3.01933 -11.85141,-3.95046 -0.93113,-0.93113 -3.95047,-2.63362 -3.95047,-11.85141 0,-9.21771 0,-18.43549 0,-27.65326 0,-9.21776 3.01934,-10.92027 3.95047,-11.85141 0.93112,-0.93113 6.58409,-3.95047 11.85141,-3.95047 5.26724,0 15.80188,0 15.80188,0 z"
       inkscape:path-effect="#path-effect3337"
       id="path3321"
       d="m 346.53008,943.22809 0,-3.95047 11.85141,15.80188 -11.85141,15.80188 0,-3.95047 -7.90094,0 c -0.55778,0 -1.11915,-0.004 -1.66866,0.0918 -0.54951,0.0957 -1.09731,0.30393 -1.49172,0.69834 -0.39441,0.39441 -0.60261,0.94221 -0.69834,1.49171 -0.0957,0.54951 -0.0917,1.11088 -0.0917,1.66866 l 0,3.95044 c 0,0.60756 0.016,1.22525 0.20498,1.80266 0.18902,0.57741 0.55,1.09964 1.03529,1.46518 0.4853,0.36554 1.07849,0.56993 1.68038,0.65273 0.60189,0.0828 1.21276,0.0521 1.81991,0.0299 1.31624,-0.0482 2.63423,-0.0482 3.95047,0 l -8.69103,11.85141 8.69103,11.8514 -12.6415,0 c -2.14661,0 -4.32133,-0.069 -6.37759,-0.6857 -2.05626,-0.6162 -3.95594,-1.7469 -5.47382,-3.26476 -1.51788,-1.51788 -2.64853,-3.41756 -3.26474,-5.47382 -0.61621,-2.05626 -0.68573,-4.23098 -0.68573,-6.37759 l 0,-27.65326 c 0,-2.14661 0.0695,-4.32133 0.68573,-6.37759 0.61621,-2.05626 1.74686,-3.95594 3.26474,-5.47382 1.51788,-1.51788 3.41756,-2.64853 5.47382,-3.26474 2.05626,-0.61621 4.23098,-0.68573 6.37759,-0.68573 l 15.80188,0"
       style="fill:#323232;fill-opacity:1;stroke:#fafafa;stroke-width:1.58018804;stroke-linecap:butt;stroke-linejoin:round;stroke-miterlimit:4;stroke-opacity:1;stroke-dasharray:none" />
    <path
       sodipodi:type="star"
       style="opacity:0.9;fill:#fafafa;fill-opacity:1;fill-rule:nonzero;stroke:#1e1e1e;stroke-width:1.38654327;stroke-linejoin:round;stroke-miterlimit:4;stroke-opacity:1;stroke-dasharray:none"
       id="path3337"
       sodipodi:sides="3"
       sodipodi:cx="535"
       sodipodi:cy="577.36218"
       sodipodi:r1="30"
       sodipodi:r2="15"
       sodipodi:arg1="0"
       sodipodi:arg2="1.0471976"
       inkscape:flatsided="true"
       inkscape:rounded="0"
       inkscape:randomized="0"
       d="m 565,577.36218 -45,25.98076 0,-51.96152 z"
       transform="matrix(1.13966,0,0,1.13966,-304.71384,-289.3298)"
       inkscape:transform-center-x="-8.5474368" />
    <rect
       transform="matrix(0,1,-1,0,0,0)"
       y="-409.96155"
       x="339.04257"
       height="59.248466"
       width="59.248466"
       id="rect3339"
       style="opacity:0.9;fill:#fafafa;fill-opacity:1;stroke:#1e1e1e;stroke-width:1.58018804;stroke-linejoin:round;stroke-miterlimit:4;stroke-opacity:1;stroke-dasharray:none" />
    <path
       style="opacity:0.9;fill:#fafafa;fill-opacity:1;fill-rule:nonzero;stroke:#1e1e1e;stroke-width:1.58018792;stroke-linejoin:round;stroke-miterlimit:4;stroke-opacity:1;stroke-dasharray:none"
       d="m 129.54081,339.05063 0,59.23235 15.80188,-9.13546 0,9.13546 51.28199,-29.62852 -51.28199,-29.60383 0,9.11077 -15.80188,-9.11077 z"
       id="path3341"
       inkscape:connector-curvature="0" />
    <g
       transform="matrix(0.79009399,0,0,0.79009399,-506.26386,-93.429462)"
       id="g4187">
      <rect
         y="547.36194"
         x="904.99988"
         height="75.000923"
         width="29.997608"
         id="rect3345"
         style="opacity:0.9;fill:#fafafa;fill-opacity:1;stroke:#1e1e1e;stroke-width:2;stroke-linejoin:round;stroke-miterlimit:4;stroke-opacity:1;stroke-dasharray:none" />
      <rect
         style="opacity:0.9;fill:#fafafa;fill-opacity:1;stroke:#1e1e1e;stroke-width:2;stroke-linejoin:round;stroke-miterlimit:4;stroke-opacity:1;stroke-dasharray:none"
         id="rect3347"
         width="29.997608"
         height="75.000923"
         x="950.00378"
         y="547.36194" />
    </g>
    <path
       style="opacity:0.9;fill:#323232;fill-opacity:1;stroke:#fafafa;stroke-width:1.58018804;stroke-linejoin:round;stroke-miterlimit:4;stroke-opacity:1;stroke-dasharray:none"
       d="m 40.427733,180.13084 0,59.23235 15.80188,-9.13546 0,9.13546 27.57918,-15.92533 0,15.95003 23.702827,0 0,-29.65322 0,-29.60383 -23.702827,0 0,15.92533 -27.57918,-15.92533 0,9.11077 -15.80188,-9.11077 z"
       id="rect4558-9"
       inkscape:connector-curvature="0" />
    <g
       id="g4718"
       transform="matrix(0.79009399,0,0,0.79009399,-889.85549,-250.09592)">
      <path
         inkscape:connector-curvature="0"
         id="path4714"
         d="m 1177.4336,647.3566 0,74.96875 20,-11.5625 0,11.5625 34.9062,-20.15625 0,20.1875 30,0 0,-37.53125 0,-37.46875 -30,0 0,20.15625 -34.9062,-20.15625 0,11.53125 -20,-11.53125 z"
         style="fill:#ff8800;fill-opacity:1;stroke:none;filter:url(#filter4710)" />
      <path
         style="opacity:0.9;fill:#1e1e1e;fill-opacity:1;stroke:#fafafa;stroke-width:2;stroke-linejoin:round;stroke-miterlimit:4;stroke-opacity:1;stroke-dasharray:none"
         d="m 1177.4336,647.3566 0,74.96875 20,-11.5625 0,11.5625 34.9062,-20.15625 0,20.1875 30,0 0,-37.53125 0,-37.46875 -30,0 0,20.15625 -34.9062,-20.15625 0,11.53125 -20,-11.53125 z"
         id="path4716"
         inkscape:connector-curvature="0" />
    </g>
    <path
       inkscape:connector-curvature="0"
       id="path4722"
       d="m 40.427723,339.03828 0,59.23236 15.80188,-9.13547 0,9.13547 27.57918,-15.92534 0,15.95003 23.702817,0 0,-29.65322 0,-29.60383 -23.702817,0 0,15.92533 -27.57918,-15.92533 0,9.11077 -15.80188,-9.11077 z"
       style="opacity:0.9;fill:#fafafa;fill-opacity:1;stroke:#1e1e1e;stroke-width:1.58018804;stroke-linejoin:round;stroke-miterlimit:4;stroke-opacity:1;stroke-dasharray:none" />
    <g
       id="g4724"
       transform="matrix(0.79009399,0,0,0.79009399,-889.85549,-89.901344)">
      <path
         style="fill:#ff8800;fill-opacity:1;stroke:none;filter:url(#filter4710)"
         d="m 1177.4336,647.3566 0,74.96875 20,-11.5625 0,11.5625 34.9062,-20.15625 0,20.1875 30,0 0,-37.53125 0,-37.46875 -30,0 0,20.15625 -34.9062,-20.15625 0,11.53125 -20,-11.53125 z"
         id="path4726"
         inkscape:connector-curvature="0" />
      <path
         inkscape:connector-curvature="0"
         id="path4728"
         d="m 1177.4336,647.3566 0,74.96875 20,-11.5625 0,11.5625 34.9062,-20.15625 0,20.1875 30,0 0,-37.53125 0,-37.46875 -30,0 0,20.15625 -34.9062,-20.15625 0,11.53125 -20,-11.53125 z"
         style="opacity:0.8;fill:#fafafa;fill-opacity:1;stroke:#1e1e1e;stroke-width:2;stroke-linejoin:round;stroke-miterlimit:4;stroke-opacity:1;stroke-dasharray:none" />
    </g>
    <path
       inkscape:connector-curvature="0"
       id="path3393"
       d="m 54.070859,542.58829 c -0.540067,0 -1.043966,0.11875 -1.520936,0.29874 l 0,-0.0271 c -8.146792,3.05411 -14.627394,9.50622 -17.735122,17.6265 -0.02431,0.0643 -0.05709,0.12556 -0.0814,0.19011 l 0.02717,0 c -0.175648,0.47183 -0.29876,0.98796 -0.29876,1.52093 0,2.39997 1.94558,4.34551 4.345514,4.34551 0.828222,0 1.599982,-0.24684 2.254239,-0.65182 -1.441824,3.53937 -2.254239,7.40376 -2.254239,11.4613 0,16.79976 13.618837,30.41859 30.418597,30.41859 16.799748,0 30.418608,-13.61883 30.418608,-30.41859 0,-4.04512 -0.793639,-7.90358 -2.227081,-11.43414 0.650397,0.38822 1.390135,0.62466 2.199922,0.62466 2.399929,0 4.345509,-1.94557 4.345509,-4.34551 0,-0.54006 -0.11877,-1.04397 -0.29876,-1.52093 l 0.0272,0 c -3.05411,-8.14679 -9.50621,-14.62739 -17.626493,-17.73513 -0.06435,-0.0243 -0.125542,-0.0571 -0.190112,-0.0814 l 0,0.0271 c -0.471845,-0.17564 -0.98791,-0.29875 -1.520936,-0.29875 -2.399935,0 -4.345514,1.94557 -4.345514,4.34552 0,0.82021 0.254023,1.57693 0.651826,2.22707 -3.530568,-1.43345 -7.389013,-2.22707 -11.434128,-2.22707 -4.045115,0 -7.903572,0.79362 -11.434129,2.22707 0.395637,-0.65483 0.624668,-1.40892 0.624668,-2.22707 0,-2.39996 -1.94558,-4.34552 -4.345514,-4.34552 z m 15.154975,13.03654 c 11.999957,0 21.727569,9.72776 21.727569,21.72757 0,11.99979 -9.727612,21.72757 -21.727569,21.72757 -11.999705,0 -21.727569,-9.72778 -21.727569,-21.72757 0,-11.99981 9.727864,-21.72757 21.727569,-21.72757 z m 0,4.34551 c -1.199967,0 -3.476416,1.40734 -3.476416,2.60731 l 0,14.77475 c 0,0.14999 0.04411,0.29321 0.10868,0.43455 -0.0055,0.41413 0.08173,0.78844 0.325908,1.03205 l 7.930565,7.90337 c 0.849112,0.8479 3.442602,0.22397 4.291185,-0.62463 0.848506,-0.84849 1.474043,-3.44357 0.624668,-4.29119 l -6.328153,-6.301 0,-12.9279 c 0,-1.19997 -2.276349,-2.60731 -3.476404,-2.60731 z"
       style="opacity:0.9;fill:#323232;fill-opacity:1;fill-rule:nonzero;stroke:none" />
    <path
       inkscape:connector-curvature="0"
       id="path3395"
       d="m 231.1298,540.44284 c -4.26869,-0.0122 -8.55085,0.86227 -12.52047,2.63446 -0.0626,0.0283 -0.12732,0.0531 -0.19015,0.0814 -0.45064,0.20832 -0.90536,0.49794 -1.27647,0.86911 -1.697,1.697 -1.697,4.46818 0,6.16519 0.64245,0.64247 1.45228,1.0176 2.2814,1.16786 -11.04829,4.55872 -18.82154,15.44312 -18.82154,28.13721 0,16.79974 13.61883,30.41859 30.41859,30.41859 16.79976,0 30.4186,-13.61885 30.4186,-30.41859 0,-12.69409 -7.77326,-23.57849 -18.82147,-28.13721 0.83364,-0.155 1.6387,-0.52521 2.2814,-1.16786 1.69701,-1.697 1.69701,-4.46819 0,-6.16519 -0.37606,-0.37608 -0.81982,-0.66044 -1.27654,-0.86911 -3.96015,-1.80053 -8.22466,-2.7038 -12.49335,-2.71594 z m -0.10868,17.32773 c 11.99996,0 21.72757,9.72776 21.72757,21.72757 0,11.99978 -9.72761,21.72757 -21.72757,21.72757 -11.99971,0 -21.72757,-9.72779 -21.72757,-21.72757 0,-11.99981 9.72786,-21.72757 21.72757,-21.72757 z m -0.97775,3.01469 c -9.89429,0.50155 -17.73508,8.69391 -17.73508,18.71288 0,9.34325 6.83219,17.08668 15.7796,18.49559 l -1.1407,-5.05166 c -5.77144,-1.74512 -9.96747,-7.10299 -9.96747,-13.44393 0,-7.75661 6.28483,-14.04144 14.0414,-14.04144 2.0483,0 3.97597,0.46114 5.73069,1.24933 l 3.09617,-3.72084 c -2.62816,-1.40576 -5.63804,-2.19993 -8.82686,-2.19993 -0.32323,0 -0.6586,-0.0162 -0.97775,0 z m 10.10333,5.21463 c -0.34773,0.0194 -0.65696,0.11378 -0.86911,0.32591 l -10.45635,10.45639 c -0.84859,0.8485 -0.22396,3.44263 0.62462,4.2912 0.84851,0.8485 3.44269,1.47318 4.2912,0.62466 l 10.45644,-10.45639 c 0.8485,-0.8485 -0.0748,-3.14387 -0.92342,-3.99244 -0.63645,-0.63637 -2.0802,-1.30752 -3.12338,-1.24933 z m -9.12558,2.19991 c -6.24182,0 -11.29834,5.05656 -11.29834,11.29834 0,5.54675 3.99126,10.14957 9.26143,11.10821 l -1.27654,-4.42699 c -2.44158,-1.2921 -4.20968,-3.89458 -4.20968,-6.68122 0,-3.94569 3.5774,-7.52318 7.52313,-7.52318 0.18277,0 0.36233,0.0122 0.54319,0.0272 l 3.1505,-3.15049 c -1.15895,-0.40126 -2.39821,-0.65184 -3.69369,-0.65184 z"
       style="opacity:0.9;fill:#323232;fill-opacity:1;fill-rule:nonzero;stroke:none" />
    <path
       inkscape:connector-curvature="0"
       id="path3397"
       d="m 150.11676,544.76109 c -16.79976,0 -30.4186,13.61886 -30.4186,30.41859 0,16.79975 13.61884,30.4186 30.4186,30.4186 16.79976,0 30.4186,-13.61885 30.4186,-30.4186 0,-16.79973 -13.61884,-30.41859 -30.4186,-30.41859 z m 0,8.69103 c 11.99997,0 21.72757,9.72775 21.72757,21.72756 0,11.99979 -9.7276,21.72757 -21.72757,21.72757 -11.9997,0 -21.72757,-9.72778 -21.72757,-21.72757 0,-11.99981 9.72787,-21.72756 21.72757,-21.72756 z m 6.73555,5.10597 -2.33572,5.59485 c 1.59411,0.66448 3.10044,1.64431 4.31831,2.82459 l 4.20977,-4.31836 c -1.77819,-1.76062 -3.88724,-3.15223 -6.19236,-4.10108 z m 9.26133,8.12068 -5.24174,2.93322 c 0.33096,0.60092 0.59691,1.22099 0.78759,1.87401 0.31983,0.89232 0.49895,1.8356 0.54319,2.79742 l 6.00228,-0.27159 c -0.0669,-1.47136 -0.31826,-2.94687 -0.76046,-4.39984 -0.35616,-1.03021 -0.8081,-2.00677 -1.33086,-2.93322 z m -16.9203,4.1554 c -0.34782,0.0194 -0.65696,0.11378 -0.86911,0.32591 l -10.45642,10.45639 c -0.84851,0.84855 -0.2238,3.44256 0.6247,4.29124 0.8485,0.84851 3.44261,1.47313 4.29119,0.62463 l 10.45635,-10.4564 c 0.84851,-0.8485 -0.0747,-3.14391 -0.92341,-3.99243 -0.63636,-0.63639 -2.08011,-1.30753 -3.1233,-1.24934 z m 12.65631,6.81703 c -0.4023,1.65974 -1.13462,3.28584 -2.11844,4.69858 l 4.97014,3.47641 c 1.44054,-2.03596 2.47894,-4.35613 3.04186,-6.78986 l -5.89356,-1.38513 z m -4.39983,7.22436 c -1.07474,0.89718 -2.30616,1.57403 -3.61226,1.95549 -0.25186,0.0904 -0.50138,0.17668 -0.76046,0.24448 l 1.41229,5.86644 c 0.41326,-0.0939 0.83921,-0.20111 1.24933,-0.32591 2.06048,-0.71249 3.91801,-1.7901 5.54053,-3.1233 l -3.82943,-4.6172 z m -12.57488,1.14079 -2.66162,5.43189 c 2.23976,1.09298 4.68889,1.75159 7.1973,1.90108 l 0.38023,-6.0022 c -1.67137,-0.11263 -3.36248,-0.57083 -4.91591,-1.33077 z"
       style="opacity:0.9;fill:#323232;fill-opacity:1;stroke:none" />
    <path
       inkscape:connector-curvature="0"
       id="path4654"
       d="m 54.070859,624.52201 c -0.540067,0 -1.043966,0.11876 -1.520936,0.29875 l 0,-0.0272 c -8.146792,3.05409 -14.627394,9.5062 -17.735122,17.62649 -0.02431,0.0643 -0.05709,0.12555 -0.0814,0.19012 l 0.02717,0 c -0.175648,0.47182 -0.29876,0.98795 -0.29876,1.52093 0,2.39995 1.94558,4.34551 4.345514,4.34551 0.828222,0 1.599982,-0.24685 2.254239,-0.65183 -1.441824,3.53937 -2.254239,7.40376 -2.254239,11.4613 0,16.79975 13.618837,30.4186 30.418597,30.4186 16.799759,0 30.418608,-13.61885 30.418608,-30.4186 0,-4.04512 -0.793639,-7.90357 -2.227081,-11.43414 0.650397,0.38822 1.390135,0.62467 2.199922,0.62467 2.399929,0 4.345509,-1.94558 4.345509,-4.34551 0,-0.54006 -0.11877,-1.04397 -0.29876,-1.52093 l 0.0272,0 c -3.05411,-8.1468 -9.506199,-14.6274 -17.626482,-17.73513 -0.06435,-0.0243 -0.125542,-0.0571 -0.190123,-0.0814 l 0,0.0272 c -0.471834,-0.17565 -0.98791,-0.29875 -1.520925,-0.29875 -2.399946,0 -4.345514,1.94557 -4.345514,4.34551 0,0.82022 0.254023,1.57693 0.651826,2.22707 -3.530568,-1.43345 -7.389024,-2.22707 -11.434139,-2.22707 -4.045115,0 -7.903572,0.79362 -11.434129,2.22707 0.395637,-0.65484 0.624668,-1.40892 0.624668,-2.22707 0,-2.39996 -1.94558,-4.34551 -4.345514,-4.34551 z m 15.154975,13.03654 c 11.999968,0 21.72758,9.72776 21.72758,21.72757 0,11.99978 -9.727612,21.72757 -21.72758,21.72757 -11.999705,0 -21.727569,-9.72779 -21.727569,-21.72757 0,-11.99981 9.727864,-21.72757 21.727569,-21.72757 z m 0,4.34552 c -1.199967,0 -3.476416,1.40733 -3.476416,2.6073 l 0,14.77475 c 0,0.15 0.04411,0.29323 0.10868,0.43455 -0.0055,0.41412 0.08173,0.78844 0.325908,1.03206 l 7.930565,7.90336 c 0.849112,0.84789 3.442602,0.22396 4.291196,-0.62462 0.848506,-0.8485 1.474043,-3.44357 0.624668,-4.2912 l -6.328153,-6.30099 0,-12.92791 c 0,-1.19997 -2.27636,-2.6073 -3.476415,-2.6073 z"
       style="fill:#fafafa;fill-opacity:1;fill-rule:nonzero;stroke:none" />
    <path
       inkscape:connector-curvature="0"
       id="path4656"
       d="m 231.1298,622.37652 c -4.26869,-0.0122 -8.55085,0.86229 -12.52046,2.63447 -0.0626,0.0283 -0.12732,0.0531 -0.19016,0.0814 -0.45063,0.20832 -0.90535,0.49795 -1.27646,0.8691 -1.697,1.69702 -1.697,4.46819 0,6.1652 0.64245,0.64247 1.45228,1.01759 2.2814,1.16786 -11.04829,4.55873 -18.82155,15.44312 -18.82155,28.1372 0,16.79977 13.61884,30.41859 30.4186,30.41859 16.79976,0 30.4186,-13.61882 30.4186,-30.41859 0,-12.69408 -7.77326,-23.57847 -18.82147,-28.1372 0.83364,-0.155 1.6387,-0.52522 2.28138,-1.16786 1.69703,-1.697 1.69703,-4.46818 0,-6.1652 -0.37604,-0.37606 -0.8198,-0.66044 -1.27653,-0.8691 -3.96015,-1.80053 -8.22466,-2.7038 -12.49335,-2.71595 z m -0.10868,17.32774 c 11.99996,0 21.72757,9.72775 21.72757,21.72757 0,11.99979 -9.72762,21.72756 -21.72757,21.72756 -11.99971,0 -21.72757,-9.72777 -21.72757,-21.72756 0,-11.99982 9.72786,-21.72757 21.72757,-21.72757 z m -0.97774,3.0147 c -9.89429,0.50154 -17.73508,8.69391 -17.73508,18.71287 0,9.34326 6.83218,17.08667 15.77959,18.49559 l -1.1407,-5.05166 c -5.77144,-1.74512 -9.96748,-7.10299 -9.96748,-13.44393 0,-7.75662 6.28484,-14.04144 14.04141,-14.04144 2.0483,0 3.97597,0.46115 5.73069,1.24934 l 3.09618,-3.72085 c -2.62816,-1.40576 -5.63804,-2.19992 -8.82687,-2.19992 -0.32322,0 -0.65861,-0.0162 -0.97774,0 z m 10.10333,5.21462 c -0.34773,0.0194 -0.65697,0.11377 -0.86911,0.32591 l -10.45635,10.45639 c -0.8486,0.84849 -0.22396,3.44263 0.62462,4.2912 0.84851,0.84851 3.44269,1.47318 4.2912,0.62467 l 10.45644,-10.4564 c 0.8485,-0.84848 -0.0748,-3.14387 -0.92342,-3.99243 -0.63645,-0.63639 -2.0802,-1.30753 -3.12338,-1.24934 z m -9.12558,2.19991 c -6.24182,0 -11.29834,5.05657 -11.29834,11.29834 0,5.54675 3.99126,10.14957 9.26142,11.10822 l -1.27653,-4.42699 c -2.44158,-1.29211 -4.20968,-3.89457 -4.20968,-6.68123 0,-3.94568 3.5774,-7.52317 7.52313,-7.52317 0.18277,0 0.36232,0.0122 0.54319,0.0272 l 3.15049,-3.1505 c -1.15894,-0.40125 -2.3982,-0.65183 -3.69368,-0.65183 z"
       style="fill:#fafafa;fill-opacity:1;fill-rule:nonzero;stroke:none" />
    <path
       inkscape:connector-curvature="0"
       id="path4658"
       d="m 150.11676,626.69479 c -16.79976,0 -30.4186,13.61885 -30.4186,30.41859 0,16.79976 13.61884,30.4186 30.4186,30.4186 16.79976,0 30.4186,-13.61884 30.4186,-30.4186 0,-16.79974 -13.61884,-30.41859 -30.4186,-30.41859 z m 0,8.69102 c 11.99997,0 21.72757,9.72776 21.72757,21.72757 0,11.99978 -9.7276,21.72757 -21.72757,21.72757 -11.9997,0 -21.72757,-9.72779 -21.72757,-21.72757 0,-11.99981 9.72787,-21.72757 21.72757,-21.72757 z m 6.73555,5.10598 -2.33572,5.59485 c 1.59411,0.66447 3.10044,1.64432 4.31831,2.82458 l 4.20977,-4.31835 c -1.77819,-1.76062 -3.88724,-3.15222 -6.19236,-4.10108 z m 9.26133,8.12068 -5.24174,2.93322 c 0.33096,0.60092 0.59691,1.22099 0.78759,1.874 0.31983,0.89231 0.49895,1.83562 0.54319,2.79742 l 6.00228,-0.27159 c -0.0669,-1.47134 -0.31826,-2.94687 -0.76046,-4.39983 -0.35616,-1.03021 -0.8081,-2.00678 -1.33086,-2.93322 z m -16.9203,4.1554 c -0.34782,0.0194 -0.65696,0.11379 -0.86911,0.32591 l -10.45642,10.45639 c -0.84851,0.84856 -0.2238,3.44256 0.6247,4.29124 0.8485,0.84852 3.44261,1.47314 4.29119,0.62462 l 10.45635,-10.45639 c 0.84851,-0.84851 -0.0747,-3.14392 -0.92341,-3.99244 -0.63636,-0.63638 -2.08011,-1.30752 -3.1233,-1.24933 z m 12.65631,6.81702 c -0.4023,1.65975 -1.13462,3.28583 -2.11844,4.69858 l 4.97014,3.47642 c 1.44054,-2.03596 2.47894,-4.35612 3.04186,-6.78987 l -5.89356,-1.38513 z m -4.39983,7.22438 c -1.07474,0.89717 -2.30616,1.57403 -3.61226,1.95548 -0.25186,0.0905 -0.50138,0.17669 -0.76046,0.24447 l 1.41229,5.86644 c 0.41326,-0.0939 0.83921,-0.20111 1.24933,-0.3259 2.06048,-0.71248 3.91801,-1.7901 5.54053,-3.1233 l -3.82943,-4.61719 z m -12.57488,1.14078 -2.66162,5.43189 c 2.23976,1.09298 4.68889,1.75159 7.1973,1.90109 l 0.38023,-6.00222 c -1.67137,-0.11262 -3.36248,-0.57081 -4.91591,-1.33076 z"
       style="fill:#fafafa;fill-opacity:1;stroke:none" />
    <text
       xml:space="preserve"
       style="font-size:31.60375977px;font-style:normal;font-weight:normal;line-height:125%;letter-spacing:0px;word-spacing:0px;fill:#000000;fill-opacity:1;stroke:none;font-family:Sans"
       x="20"
       y="540.1214"
       id="text3366-0"
       sodipodi:linespacing="125%"><tspan
         sodipodi:role="line"
         id="tspan3368-6"
         x="20"
         y="540.1214">Other</tspan></text>
    <path
       inkscape:connector-curvature="0"
       id="path4981"
       d="m 384.13348,624.53017 c -13.19976,0 -23.90033,10.70058 -23.90033,23.90034 0,13.19975 10.70057,23.90032 23.90033,23.90032 5.05357,0 9.7462,-1.56021 13.60694,-4.23688 0.3239,0.158 0.735,0.10703 1.00485,-0.16296 l 0.59751,-0.5975 6.16524,6.13804 -0.62471,0.62462 c -0.34043,0.34043 -0.34043,0.88179 0,1.22222 l 14.12292,14.12292 c 0.34051,0.34043 0.90891,0.34043 1.24933,0 l 4.91591,-4.91591 c 0.34043,-0.34034 0.34043,-0.8817 0,-1.22213 l -14.15012,-14.15004 c -0.34043,-0.34042 -0.88171,-0.34042 -1.22214,0 l -0.62471,0.62463 -6.13804,-6.13804 0.62471,-0.62471 c 0.27881,-0.2789 0.31376,-0.67556 0.13576,-1.00485 2.6691,-3.85726 4.23687,-8.53398 4.23687,-13.57973 0,-13.19976 -10.70056,-23.90034 -23.90032,-23.90034 z m 0,8.69103 c 8.39988,0 15.2093,6.80943 15.2093,15.20931 0,8.39988 -6.80942,15.20929 -15.2093,15.20929 -8.39988,0 -15.2093,-6.80941 -15.2093,-15.20929 0,-8.39988 6.80942,-15.20931 15.2093,-15.20931 z"
       style="fill:#fafafa;fill-opacity:1;fill-rule:nonzero;stroke:none" />
    <path
       id="path5206"
       d="m 448.48961,623.29757 c -0.64627,0 -1.93393,0.63019 -2.58012,1.27654 -0.64626,0.64627 -0.65182,1.30922 -0.65182,1.95548 l 0,29.14206 c -0.31696,-0.0356 -0.62245,-0.0817 -0.95062,-0.0817 -4.11043,0 -7.46881,2.90054 -7.46881,6.46404 0,3.56349 3.35838,6.43675 7.46881,6.43675 4.11042,0 7.44169,-2.87326 7.44169,-6.43675 0,-0.1115 -0.0209,-0.21606 -0.0269,-0.32592 l 0,-35.19866 c 0,-0.64626 0.0234,-1.32746 0.65184,-1.95548 0.62801,-0.6281 1.93392,-1.27654 2.58019,-1.27654 l -3.23203,0 -3.23193,0 z m 16.15991,3.23202 c -0.64626,0 -1.93392,0.63019 -2.58019,1.27645 -0.64626,0.64627 -0.65183,1.3093 -0.65183,1.95549 l 0,29.14213 c -0.32139,-0.0365 -0.61767,-0.0817 -0.95053,-0.0817 -4.11173,0 -7.4689,2.90046 -7.4689,6.46395 0,3.5634 3.35717,6.43683 7.4689,6.43683 4.11163,0 7.41449,-2.87343 7.41449,-6.43683 l 0,-35.52457 c 0,-0.64627 0.0234,-1.32747 0.65183,-1.95548 0.62801,-0.62802 1.93393,-1.27654 2.58019,-1.27646 l -3.23202,0 -3.23194,0 z m 16.15985,3.23194 c -0.64628,0 -1.93394,0.63018 -2.58012,1.27645 -0.64626,0.64635 -0.65183,1.30929 -0.65183,1.95548 l 0,29.11494 c -0.32051,-0.0365 -0.64574,-0.0539 -0.97773,-0.0539 -4.1006,0 -7.41458,2.87325 -7.41458,6.43675 0,3.56341 3.31398,6.46395 7.41458,6.46395 4.09278,0 7.40206,-2.88263 7.41449,-6.43683 l 0.0269,0 0,-35.52458 c 0,-0.64626 0.0234,-1.32738 0.65183,-1.95548 0.62801,-0.6281 1.93393,-1.27645 2.58019,-1.27645 l -3.23202,0 -3.23193,0 z m 8.09351,15.26361 c 0,2.60722 0,6.08372 0,8.69103 6.95282,-9e-5 13.03655,6.08363 13.03655,13.03654 0.0113,6.92553 -6.08373,13.03645 -13.03655,13.03654 l -30.41859,0 0,-4.69855 -15.64386,9.04406 15.64386,9.01695 0,-4.67143 30.41859,0 c 11.99979,0 21.72809,-9.72717 21.72757,-21.72757 0,-11.99979 -9.72848,-21.72704 -21.72757,-21.72757 z"
       style="fill:#fafafa;fill-opacity:1;fill-rule:nonzero;stroke:none"
       inkscape:connector-curvature="0" />
    <path
       inkscape:connector-curvature="0"
       style="fill:#fafafa;fill-opacity:1;fill-rule:nonzero;stroke:none"
       d="m 474.95705,544.76855 c -1.34346,-0.0559 -2.68344,-0.009 -3.99239,0.10868 2.72272,1.27098 5.1842,2.81464 7.27873,4.6171 -2.7714,1.04755 -5.23487,2.47098 -7.36016,4.12825 2.1465,-0.28292 4.35411,-0.23279 6.59969,0.16295 11.81746,2.08382 19.73733,13.3322 17.65366,25.14967 -0.71928,4.07915 -2.55577,7.69628 -5.10599,10.59219 l -1.95548,-3.39494 -9.04405,15.6167 9.23422,0 0.0269,0.10868 c 0.0643,-0.035 0.12637,-0.0728 0.19016,-0.10868 l 8.6095,0 -2.55298,-4.39985 c 4.62814,-4.33998 7.96619,-10.16427 9.15278,-16.89318 2.91697,-16.54449 -8.14349,-32.30855 -24.688,-35.22581 -1.35623,-0.23915 -2.70325,-0.40587 -4.0468,-0.46172 z m -24.63358,3.74801 2.5801,4.50846 c -4.63284,4.33478 -7.93865,10.1356 -9.12558,16.86603 -2.91714,16.54455 8.11611,32.33561 24.6608,35.25298 2.70125,0.47637 5.3774,0.58443 7.98496,0.35308 -2.70673,-1.26772 -5.14005,-2.85094 -7.2245,-4.64428 2.77113,-1.04833 5.23468,-2.47114 7.36026,-4.12824 -2.14677,0.28275 -4.35412,0.26011 -6.5998,-0.13579 -11.81762,-2.08373 -19.73749,-13.38647 -17.65356,-25.20398 0.71953,-4.08148 2.55021,-7.67339 5.10598,-10.56503 l 1.92828,3.34061 9.04415,-15.61669 -9.23422,-0.0271 c -0.0156,0.009 -0.0374,0.0185 -0.0548,0.0271 l -8.77246,-0.0271 z"
       id="path5672" />
    <path
       inkscape:connector-curvature="0"
       id="path10939"
       d="m 392.83007,542.58833 c -16.20156,0 -29.35943,13.17992 -29.35943,29.4084 0,9.63625 4.62997,18.19781 11.78729,23.55936 a 1.1135279,1.115387 0 0 0 0.67894,0.21763 l 0.0269,0 a 1.1135279,1.115387 0 0 0 0.97791,-0.57129 l 2.17276,-3.78147 a 1.1135279,1.115387 0 0 0 -0.29871,-1.41466 c -5.3475,-4.178 -8.77246,-10.68347 -8.77246,-18.00957 0,-12.61906 10.18875,-22.82483 22.78675,-22.82483 12.59798,0 22.78673,10.20577 22.78673,22.82483 0,7.32611 -3.42487,13.83157 -8.77246,18.00957 a 1.1135279,1.115387 0 0 0 -0.2987,1.41466 l 2.17275,3.78147 a 1.1135279,1.115387 0 0 0 0.97774,0.57129 l 0.0269,0 a 1.1135279,1.115387 0 0 0 0.67894,-0.21763 c 7.15741,-5.36155 11.7873,-13.92311 11.7873,-23.55936 0,-16.22848 -13.15787,-29.4084 -29.35942,-29.4084 z m -0.95055,10.88193 c -9.76776,0.49598 -17.54501,8.62735 -17.54509,18.52647 0,5.58115 2.48398,10.56416 6.38251,13.95606 a 1.1135279,1.115387 0 0 0 1.68389,-0.27205 l 2.22707,-3.83588 a 1.1135279,1.115387 0 0 0 -0.16295,-1.36024 c -2.19049,-2.16877 -3.55785,-5.16021 -3.55785,-8.48789 0,-6.6092 5.32482,-11.94292 11.92297,-11.94292 6.59813,0 11.92295,5.33372 11.92295,11.94292 0,3.32768 -1.36736,6.31912 -3.55785,8.48789 a 1.1135279,1.115387 0 0 0 -0.16295,1.36024 l 2.22707,3.83588 a 1.1135279,1.115387 0 0 0 1.68389,0.27205 c 3.8987,-3.39191 6.38251,-8.37494 6.38251,-13.95606 0,-10.21862 -8.29401,-18.52647 -18.49562,-18.52647 -0.26343,0 -0.58005,-0.0185 -0.95055,0 z m 0.95055,10.47384 c -4.49996,0 -8.14785,3.654 -8.14785,8.16144 0,3.90541 2.72404,7.16859 6.38243,7.97102 l -14.6117,25.35487 a 1.5489822,1.5515682 0 0 0 1.33077,2.33961 l 30.09268,0 a 1.5489822,1.5515682 0 0 0 1.33077,-2.33961 l -14.61171,-25.35487 c 3.64572,-0.81193 6.38244,-4.07463 6.38244,-7.97102 0,-4.50744 -3.64788,-8.16144 -8.14783,-8.16144 z"
       style="fill:#fafafa;fill-opacity:1;fill-rule:nonzero;stroke:none" />
    <path
       sodipodi:nodetypes="cccccccccccsccccc"
       inkscape:connector-curvature="0"
       id="path11055"
       d="m 283.12057,555.94003 c -1.99103,0.026 -3.78443,1.7675 -3.78634,3.67697 l 0,5.38685 c 0,0.96196 0.41648,1.91718 1.12635,2.59686 l 26.83989,25.7387 c 0.70877,0.68071 1.70484,1.07801 2.70796,1.08011 l 3.83422,0 c 1.00311,-0.002 1.9992,-0.3994 2.70795,-1.08011 l 26.83998,-25.7387 c 0.7098,-0.67968 1.12419,-1.6349 1.12635,-2.59686 l 0,-5.38685 c -0.009,-1.44047 -0.98251,-2.83421 -2.37047,-3.38515 -1.38796,-0.55091 -3.10556,-0.22636 -4.17178,0.7883 l -25.71363,24.6586 -0.67103,0 -25.71361,-24.6586 c -0.72006,-0.69162 -1.73683,-1.09014 -2.75584,-1.08012 z"
       style="opacity:0.9;fill:#323232;fill-opacity:1;stroke:none" />
    <path
       sodipodi:nodetypes="cccccccccccsccccc"
       inkscape:connector-curvature="0"
       id="path11059"
       d="m 283.12057,637.87374 c -1.99103,0.026 -3.78443,1.7675 -3.78634,3.67696 l 0,5.38685 c 0,0.96196 0.41648,1.91718 1.12635,2.59685 l 26.83989,25.73872 c 0.70877,0.68071 1.70484,1.07801 2.70796,1.0801 l 3.83422,0 c 1.00311,-0.002 1.9992,-0.39939 2.70795,-1.0801 l 26.83998,-25.73872 c 0.7098,-0.67967 1.12419,-1.63489 1.12635,-2.59685 l 0,-5.38685 c -0.009,-1.44048 -0.98251,-2.83421 -2.37047,-3.38514 -1.38796,-0.55092 -3.10556,-0.22636 -4.17178,0.78829 l -25.71363,24.6586 -0.67103,0 -25.71361,-24.6586 c -0.72006,-0.69163 -1.73683,-1.09015 -2.75584,-1.08011 z"
       style="opacity:0.9;fill:#fafafa;fill-opacity:1;stroke:none" />
    <path
       style="fill:#777777;fill-opacity:1;fill-rule:nonzero;stroke:none"
       d="m 311.92558,704.32167 c -16.79989,0 -30.419,13.61905 -30.419,30.419 0,16.79998 13.61911,30.419 30.419,30.419 16.79998,0 30.41901,-13.61902 30.41901,-30.419 0,-16.79995 -13.61903,-30.419 -30.41901,-30.419 z m 0,8.69115 c 12.00009,0 21.72781,9.72789 21.72781,21.72785 0,11.99995 -9.72772,21.72785 -21.72781,21.72785 -11.99985,0 -21.72776,-9.7279 -21.72785,-21.72785 0,-11.99996 9.728,-21.72785 21.72785,-21.72785 z m 0,4.34557 c -1.19989,0 -3.47636,1.40735 -3.47645,2.60733 l 0,14.77495 c 0,0.15 0.0446,0.29321 0.10861,0.43455 -0.009,0.42162 0.0779,0.78493 0.32594,1.03208 l 7.93068,7.93067 c 0.84922,0.84791 3.4427,0.22392 4.29136,-0.62468 0.84849,-0.84851 1.47398,-3.44361 0.6246,-4.29125 l -6.32829,-6.32824 0,-12.92808 c 0,-1.19998 -2.2764,-2.60733 -3.47645,-2.60733 z"
       id="path5877"
       inkscape:connector-curvature="0" />
    <path
       inkscape:connector-curvature="0"
       id="path5879"
       d="m 200.25907,704.32518 a 2.2485113,2.1984785 0 0 0 -0.11441,0.028 c -2.58677,0.27278 -4.49719,2.32301 -4.49127,4.86676 l 0,45.11541 a 2.2485113,2.1984785 0 0 0 4.43411,0.53144 l 8.32439,-32.5569 c 0.11657,-0.46059 0.77566,-1.01584 1.25875,-1.06286 0.009,2.8e-4 0.0197,-4.6e-4 0.0282,0 a 2.2485113,2.1984785 0 0 0 0.11441,0.028 l 43.93939,0 a 2.2485113,2.1984785 0 0 0 2.26,-2.20962 l 0,-0.89504 a 2.2485113,2.1984785 0 0 0 0,-0.028 c -0.018,-2.72284 -2.2131,-4.85742 -5.0062,-4.86675 l -25.37393,0 -7.69506,-7.5239 a 2.2485113,2.1984785 0 0 0 -0.0291,0 c -0.94686,-0.91988 -2.18392,-1.42781 -3.5186,-1.42647 l -13.61657,0 c -0.0376,-0.002 -0.0779,9.1e-4 -0.11451,0 -0.13009,-0.004 -0.2705,-0.006 -0.4005,0 z m 12.95871,19.99846 a 2.5764221,2.5190927 0 0 0 -2.23132,1.90195 l -9.15412,35.80145 a 2.5764221,2.5190927 0 0 0 2.48887,3.13263 l 50.34729,0 a 2.5764221,2.5190927 0 0 0 2.4888,-1.90196 l 9.1541,-35.80144 a 2.5764221,2.5190927 0 0 0 -2.4888,-3.13263 l -50.34737,0 a 2.5764221,2.5190927 0 0 0 -0.25745,0 z"
       style="fill:#777777;fill-opacity:1;stroke:none" />
    <path
       sodipodi:type="inkscape:offset"
       inkscape:radius="0.45348555"
       inkscape:original="M 2070.4375 1098.4375 L 2056.0625 1101 L 2063.375 1114.5312 L 2072.9688 1112.8438 L 2070.4375 1098.4375 z M 2046.4688 1102.6875 L 2032.0938 1105.2188 L 2039.4062 1118.75 L 2053.8125 1116.2188 L 2046.4688 1102.6875 z M 2022.5 1106.9062 L 2008.125 1109.4688 L 2015.4375 1122.9688 L 2029.8438 1120.4375 L 2022.5 1106.9062 z M 2001 1110.0625 L 2001 1124.6562 L 2001 1139.25 L 2005.875 1124.6562 L 2001 1110.0625 z M 2001 1139.25 L 2001 1161.625 L 2001 1166.5 C 2001 1169.195 2003.1788 1171.375 2005.875 1171.375 L 2069.125 1171.375 C 2071.8211 1171.375 2074 1169.195 2074 1166.5 L 2074 1161.625 L 2074 1139.25 L 2074 1124.6562 L 2064.2812 1124.6562 L 2059.4062 1139.25 L 2049.6562 1139.25 L 2054.5312 1124.6562 L 2039.9375 1124.6562 L 2035.0625 1139.25 L 2025.3438 1139.25 L 2030.1875 1124.6562 L 2015.5938 1124.6562 L 2010.7188 1139.25 L 2001 1139.25 z "
       style="fill:#777777;fill-opacity:1;stroke:none"
       id="path4844-8"
       d="m 2070.4375,1097.9688 a 0.4535309,0.4535309 0 0 0 -0.094,0.031 l -14.375,2.5625 a 0.4535309,0.4535309 0 0 0 -0.3126,0.6563 l 7.3126,13.5312 a 0.4535309,0.4535309 0 0 0 0.5,0.2188 l 9.5937,-1.6876 a 0.4535309,0.4535309 0 0 0 0.3437,-0.5312 l -2.5312,-14.4062 a 0.4535309,0.4535309 0 0 0 -0.4375,-0.375 z m -23.9687,4.25 a 0.4535309,0.4535309 0 0 0 -0.094,0.031 l -14.375,2.5312 a 0.4535309,0.4535309 0 0 0 -0.3125,0.6563 l 7.3125,13.5313 a 0.4535309,0.4535309 0 0 0 0.5,0.2187 l 14.4062,-2.5313 a 0.4535309,0.4535309 0 0 0 0.3126,-0.6562 l -7.3438,-13.5312 a 0.4535309,0.4535309 0 0 0 -0.4062,-0.25 z m -23.9688,4.2187 a 0.4535309,0.4535309 0 0 0 -0.094,0.031 l -14.375,2.5624 a 0.4535309,0.4535309 0 0 0 -0.3124,0.6563 l 7.3124,13.5 a 0.4535309,0.4535309 0 0 0 0.5,0.2187 l 14.4063,-2.5312 a 0.4535309,0.4535309 0 0 0 0.3125,-0.6562 l -7.3438,-13.5313 a 0.4535309,0.4535309 0 0 0 -0.4062,-0.25 z m -21.6562,3.1875 a 0.4535309,0.4535309 0 0 0 -0.3126,0.4375 l 0,14.5937 0,14.5938 0,22.375 0,4.875 c 0,2.9394 2.4032,5.3438 5.3438,5.3438 l 63.25,0 c 2.9406,0 5.3437,-2.4044 5.3438,-5.3438 l 0,-4.875 0,-22.375 0,-14.5938 A 0.4535309,0.4535309 0 0 0 2074,1124.1875 l -9.7188,0 a 0.4535309,0.4535309 0 0 0 -0.4374,0.3125 l -4.7813,14.2812 -8.75,0 4.6563,-13.9687 a 0.4535309,0.4535309 0 0 0 -0.4376,-0.625 l -14.5937,0 A 0.4535309,0.4535309 0 0 0 2039.5,1124.5 l -4.7812,14.2812 -8.7188,0 4.625,-13.9687 a 0.4535309,0.4535309 0 0 0 -0.4375,-0.625 l -14.5937,0 a 0.4535309,0.4535309 0 0 0 -0.4376,0.3125 l -4.7812,14.2812 -8.7188,0 4.6563,-13.9687 a 0.4535309,0.4535309 0 0 0 0,-0.3125 l -4.875,-14.5938 a 0.4535309,0.4535309 0 0 0 -0.5937,-0.2812 z"
       transform="matrix(0.8228211,0,0,0.82352623,-1526.3813,-199.88444)" />
    <path
       sodipodi:type="inkscape:offset"
       inkscape:radius="0.96869999"
       inkscape:original="M 1684.0312 249.5625 L 1675.875 251.375 L 1643.2812 258.625 C 1642.376 258.625 1640.5928 259.53226 1639.6875 260.4375 C 1638.7822 261.34274 1638.7813 262.25102 1638.7812 263.15625 L 1638.7812 304.625 C 1636.9261 304.619 1634.9555 304.99224 1633.0625 305.875 C 1627.4023 308.51437 1624.5154 314.35109 1626.625 318.875 C 1628.7345 323.39889 1635.0273 324.92062 1640.6875 322.28125 C 1645.2863 320.13677 1648.0698 315.87697 1647.8125 311.9375 L 1647.8125 271.1875 L 1674.9688 265.15625 L 1674.9688 295.5625 C 1673.1135 295.5575 1671.1431 295.961 1669.25 296.84375 C 1663.5898 299.48312 1660.7341 305.2886 1662.8438 309.8125 C 1664.9534 314.3364 1671.246 315.85812 1676.9062 313.21875 C 1681.505 311.07427 1684.2886 306.81448 1684.0312 302.875 L 1684.0312 263.15625 L 1684.0312 258.625 L 1684.0312 254.09375 L 1684.0312 249.5625 z "
       style="fill:#777777;fill-opacity:1;stroke:none"
       id="path5067"
       d="m 1683.9062,248.59375 a 0.96879686,0.96879686 0 0 0 -0.094,0.0312 l -8.1563,1.8125 -32.375,7.21875 -0.2187,0.0312 0,0.0312 c -0.6888,0.05 -1.3243,0.25197 -2,0.59375 -0.7494,0.37904 -1.4994,0.87443 -2.0625,1.4375 -1.1342,1.1341 -1.1874,2.50045 -1.1875,3.40625 l 0,40.59375 c -1.6991,0.10665 -3.4491,0.4539 -5.1563,1.25 -6.0416,2.81722 -9.2937,9.16131 -6.9062,14.28125 2.3862,5.11723 9.3051,6.69086 15.3438,3.875 4.8855,-2.2782 7.9449,-6.80018 7.6874,-11.21875 -0,-0.0207 0,-0.0418 0,-0.0625 l 0,-39.90625 25.2188,-5.625 0,28.34375 c -1.7077,0.1137 -3.4519,0.48649 -5.1562,1.28125 -6.0402,2.81656 -9.2604,9.13494 -6.875,14.25 2.3862,5.1172 9.305,6.69085 15.3437,3.875 4.8856,-2.2782 7.9451,-6.80014 7.6875,-11.21875 -0,-0.0207 0,-0.0418 0,-0.0625 l 0,-39.65625 0,-4.53125 0,-4.53125 0,-4.53125 a 0.96879686,0.96879686 0 0 0 -1.0938,-0.96875 z"
       transform="matrix(0.80097765,0,0,0.80097765,-1256.3967,505.21012)" />
    <path
       inkscape:connector-curvature="0"
       style="fill:#fafafa;fill-opacity:1;fill-rule:nonzero;stroke:none"
       d="m 533.91727,626.84663 c -1.03705,0 -1.87193,0.83488 -1.87193,1.87194 l 0,35.56683 -2.80791,0 c -1.03706,0 -1.87194,0.83488 -1.87194,1.87194 l 0,5.61581 c 0,1.03706 0.83488,1.87194 1.87194,1.87194 l 2.80791,0 0,12.1676 c 0,1.03706 0.83488,1.87194 1.87193,1.87194 l 5.61582,0 c 1.03705,0 1.87194,-0.83488 1.87194,-1.87194 l 0,-12.1676 2.80791,0 c 1.03705,0 1.87193,-0.83488 1.87193,-1.87194 l 0,-5.61581 c 0,-1.03706 -0.83488,-1.87194 -1.87193,-1.87194 l -2.80791,0 0,-35.56683 c 0,-1.03706 -0.83489,-1.87194 -1.87194,-1.87194 l -5.61582,0 z m 25.73916,0 c -1.03706,0 -1.87194,0.83488 -1.87194,1.87194 l 0,12.1676 -2.80791,0 c -1.03705,0 -1.87194,0.83488 -1.87194,1.87194 l 0,5.61581 c 0,1.03706 0.83489,1.87194 1.87194,1.87194 l 2.80791,0 0,35.56683 c 0,1.03706 0.83488,1.87194 1.87194,1.87194 l 5.61581,0 c 1.03706,0 1.87194,-0.83488 1.87194,-1.87194 l 0,-35.56683 2.80791,0 c 1.03705,0 1.87194,-0.83488 1.87194,-1.87194 l 0,-5.61581 c 0,-1.03706 -0.83489,-1.87194 -1.87194,-1.87194 l -2.80791,0 0,-12.1676 c 0,-1.03706 -0.83488,-1.87194 -1.87194,-1.87194 l -5.61581,0 z m 25.73915,0 c -1.03705,0 -1.87194,0.83488 -1.87194,1.87194 l 0,26.20714 -2.8079,0 c -1.03706,0 -1.87194,0.83488 -1.87194,1.87194 l 0,5.61581 c 0,1.03705 0.83488,1.87194 1.87194,1.87194 l 2.8079,0 0,21.52729 c 0,1.03706 0.83489,1.87194 1.87194,1.87194 l 5.61582,0 c 1.03705,0 1.87194,-0.83488 1.87194,-1.87194 l 0,-21.52729 2.8079,0 c 1.03706,0 1.87194,-0.83489 1.87194,-1.87194 l 0,-5.61581 c 0,-1.03706 -0.83488,-1.87194 -1.87194,-1.87194 l -2.8079,0 0,-26.20714 c 0,-1.03706 -0.83489,-1.87194 -1.87194,-1.87194 l -5.61582,0 z"
       id="rect5587" />
    <path
       style="opacity:0.9;fill:#fafafa;fill-opacity:1;fill-rule:nonzero;stroke:none"
       d="m 613.71785,632.98607 c -0.3841,0 -0.6933,0.30923 -0.6933,0.69333 l 0,12.48 c 0,0.38411 0.3092,0.69334 0.6933,0.69334 l 12.48,0 c 0.3841,0 0.6934,-0.30923 0.6934,-0.69334 l 0,-12.48 c 0,-0.3841 -0.3093,-0.69333 -0.6934,-0.69333 l -12.48,0 z m 0,19.06667 c -0.3841,0 -0.6933,0.30922 -0.6933,0.69333 l 0,12.48 c 0,0.38411 0.3092,0.69333 0.6933,0.69333 l 12.48,0 c 0.3841,0 0.6934,-0.30922 0.6934,-0.69333 l 0,-12.48 c 0,-0.38411 -0.3093,-0.69333 -0.6934,-0.69333 l -12.48,0 z m 0,19.06666 c -0.3841,0 -0.6933,0.30923 -0.6933,0.69334 l 0,12.48 c 0,0.3841 0.3092,0.69333 0.6933,0.69333 l 12.48,0 c 0.3841,0 0.6934,-0.30923 0.6934,-0.69333 l 0,-12.48 c 0,-0.38411 -0.3093,-0.69334 -0.6934,-0.69334 l -12.48,0 z"
       id="path5443"
       inkscape:connector-curvature="0" />
    <g
       transform="matrix(0.79009395,0,0,0.79009395,-503.39997,-14.415469)"
       id="g5133"
       style="opacity:0.9;fill:#fafafa;fill-opacity:1;stroke:#1e1e1e;stroke-opacity:1">
      <path
         sodipodi:nodetypes="ccccccccccccccccccccc"
         inkscape:connector-curvature="0"
         inkscape:original-d="m 1202.4226,450.31852 c -3.3334,0 -6.6667,-3 -10.0001,-3 l -14.9889,0.048 0,30 5,0 c 1.6667,0 8.3223,2.95201 9.9889,2.95201 3.3334,5 6.6667,7 10.0001,12 l 10,15 c 3.3333,5 6.6666,7 10,12 3.3333,0 6.6666,3 10,3 l 9,0 1,0 0,5 c -2.5575,12.68004 11.561,-16.56118 15,-20 -7.1714,-4.05825 -10,-10 -15,-20 l 0,5 -1,0 c -3,0 -6,-3 -9,-3 -3.3334,-5 -6.6667,-7 -10,-12 l -10,-15 c -3.3334,-5 -6.6667,-7 -10,-12.00001 z"
         inkscape:path-effect="#path-effect4311-6"
         id="path5135"
         d="m 1202.4226,450.31852 c -1.3254,-1.19842 -2.9517,-2.05201 -4.6793,-2.50842 -1.7275,-0.45642 -3.534,-0.4973 -5.3208,-0.49158 l -14.9889,0.048 0,30 5,0 c 1.7803,0 3.5791,0.0452 5.3018,0.49426 1.7228,0.44905 3.3486,1.2839 4.6871,2.45775 3.9423,3.42891 7.1019,7.65266 10.0001,12 l 10,15 c 2.8982,4.34732 6.0578,8.57106 10,12 1.3304,1.19127 2.9566,2.04042 4.683,2.49717 1.7264,0.45676 3.5312,0.50283 5.317,0.50283 l 9,0 1,0 0,5 15,-20 -15,-20 0,5 -1,0 c -1.632,0 -3.2853,-0.0471 -4.8512,-0.507 -1.5659,-0.45991 -3.0195,-1.31476 -4.1488,-2.493 -3.9422,-3.42894 -7.1018,-7.65268 -10,-12 l -10,-15 c -2.8982,-4.34732 -6.0578,-8.57106 -10,-12.00001"
         style="fill:#fafafa;fill-opacity:1;stroke:#323232;stroke-width:2;stroke-linecap:butt;stroke-linejoin:round;stroke-miterlimit:4;stroke-opacity:1;stroke-dasharray:none" />
      <path
         style="fill:#fafafa;fill-opacity:1;stroke:#323232;stroke-width:2;stroke-linecap:butt;stroke-linejoin:round;stroke-miterlimit:4;stroke-opacity:1;stroke-dasharray:none"
         d="m 1202.4033,519.3947 c -1.3274,1.19548 -2.9537,2.04724 -4.6808,2.50379 -1.727,0.45655 -3.5328,0.49958 -5.3192,0.49621 l -14.9697,-0.0282 0,-30 5,0 c 1.7789,0 3.5765,-0.0456 5.2969,-0.49787 1.7204,-0.45229 3.3423,-1.29315 4.6728,-2.47394 3.9422,-3.42894 7.1018,-7.65268 10,-12 l 10,-15 c 2.8982,-4.34732 6.0578,-8.57106 10,-12 1.3304,-1.19127 2.9566,-2.04042 4.683,-2.49717 1.7264,-0.45676 3.5312,-0.50283 5.317,-0.50283 l 9,0 1,0 0,-5 15,20 -15,20 0,-5 -1,0 c -1.632,0 -3.2853,0.0471 -4.8512,0.507 -1.5659,0.45991 -3.0195,1.31476 -4.1488,2.493 -3.9422,3.42894 -7.1018,7.65268 -10,12 l -10,15 c -2.8982,4.34732 -6.0578,8.57106 -10,12.00001"
         id="path5137"
         inkscape:path-effect="#path-effect4313-6"
         inkscape:original-d="m 1202.4033,519.3947 c -3.3333,0 -6.6667,3 -10,3 l -14.9697,-0.0282 0,-30 5,0 c 1.6667,0 8.303,-2.97181 9.9697,-2.97181 3.3333,-5 6.6667,-7 10,-12 l 10,-15 c 3.3333,-5 6.6667,-7 10,-12 3.3333,0 6.6667,-3 10,-3 l 9,0 1,0 0,-5 c -2.5574,-12.68004 11.5612,16.56118 15,20 -7.1713,4.05825 -10,10 -15,20 l 0,-5 -1,0 c -3,0 -6,3 -9,3 -3.3333,5 -6.6667,7 -10,12 l -10,15 c -3.3333,5 -6.6667,7 -10,12 z"
         inkscape:connector-curvature="0"
         sodipodi:nodetypes="cccccccccccccccccccccc" />
    </g>
    <g
       transform="matrix(0.79009195,0,0,0.79009195,-507.97969,-14.414499)"
       id="g5139"
       style="opacity:0.9;fill:#fafafa;fill-opacity:1;stroke:#1e1e1e;stroke-opacity:1">
      <path
         style="fill:#fafafa;fill-opacity:1;stroke:#323232;stroke-width:2;stroke-linecap:butt;stroke-linejoin:round;stroke-miterlimit:4;stroke-opacity:1;stroke-dasharray:none"
         d="m 1313.3524,447.35661 0,-5 15,20 -15,20 0,-5 -10,0 c -0.706,0 -1.4165,-0.005 -2.112,0.11613 -0.6955,0.12116 -1.3888,0.38467 -1.888,0.88387 -0.4992,0.4992 -0.7627,1.19253 -0.8839,1.88802 -0.1211,0.6955 -0.1161,1.40601 -0.1161,2.11198 l 0,5 c 0,0.76897 0.02,1.55076 0.2594,2.28158 0.2393,0.73081 0.6962,1.39179 1.3104,1.85444 0.6142,0.46265 1.365,0.72134 2.1268,0.82614 0.7618,0.10481 1.5349,0.066 2.3034,0.0378 1.6659,-0.0609 3.3341,-0.0609 5,0 l -11,15 11,15 -16,0 c -2.7169,0 -5.4694,-0.088 -8.0719,-0.86791 -2.6026,-0.77993 -5.007,-2.21095 -6.9281,-4.13209 -1.9211,-1.92114 -3.3522,-4.32551 -4.1321,-6.92806 -0.7799,-2.60255 -0.8679,-5.35504 -0.8679,-8.07194 l 0,-35 c 0,-2.7169 0.088,-5.46939 0.8679,-8.07194 0.7799,-2.60255 2.211,-5.00692 4.1321,-6.92806 1.9211,-1.92114 4.3255,-3.35216 6.9281,-4.13209 2.6025,-0.77992 5.355,-0.86791 8.0719,-0.86791 l 20,0"
         id="path5141"
         inkscape:path-effect="#path-effect4396-4"
         inkscape:original-d="m 1313.3524,447.35661 0,-5 15,20 -15,20 0,-5 c 0,0 -8,0 -10,0 -2,0 -2,0 -4,1 -2,1 -1,2.33333 -1,4 0,1.66667 0,3.33333 0,5 0,1.66667 4.8215,3.82149 6,5 1.1785,1.17851 4,2 5,0 2,0 -11,15 -11,15 l 11,15 c 0,0 -10.1667,0 -16,0 -5.8334,0 -13.8215,-3.82149 -15,-5 -1.1785,-1.17851 -5,-3.33333 -5,-15 0,-11.66667 0,-23.33333 0,-35 0,-11.66666 3.8215,-13.82149 5,-15 1.1785,-1.17851 8.3333,-5 15,-5 6.6666,0 20,0 20,0 z"
         inkscape:connector-curvature="0"
         sodipodi:nodetypes="ccccczzzzcccczzzzzzc" />
      <path
         sodipodi:nodetypes="ccccczzzzcccczzzzzzc"
         inkscape:connector-curvature="0"
         inkscape:original-d="m 1313.3524,522.35661 0,5 -15,-20 15,-20 0,5 c 0,0 8,0 10,0 2,0 2,0 4,-1 2,-1 1,-2.33333 1,-4 0,-1.66667 0,-3.33333 0,-5 0,-1.66667 -4.8215,-3.82149 -6,-5 -1.1785,-1.17851 -4,-2 -5,0 -2,0 11,-15 11,-15 l -11,-15 c 0,0 10.1666,0 16,0 5.8333,0 13.8215,3.82149 15,5 1.1785,1.17851 5,3.33333 5,15 0,11.66667 0,23.33333 0,35 0,11.66666 -3.8215,13.82149 -5,15 -1.1785,1.17851 -8.3334,5 -15,5 -6.6667,0 -20,0 -20,0 z"
         inkscape:path-effect="#path-effect4421-4"
         id="path5143"
         d="m 1313.3524,522.35661 0,5 -15,-20 15,-20 0,5 10,0 c 0.706,0 1.4165,0.005 2.112,-0.11613 0.6955,-0.12116 1.3888,-0.38467 1.888,-0.88387 0.4992,-0.4992 0.7627,-1.19253 0.8839,-1.88802 0.1211,-0.6955 0.1161,-1.40601 0.1161,-2.11198 l 0,-5 c 0,-0.76897 -0.02,-1.55076 -0.2594,-2.28158 -0.2393,-0.73081 -0.6962,-1.39179 -1.3104,-1.85444 -0.6142,-0.46265 -1.365,-0.72134 -2.1268,-0.82614 -0.7618,-0.10481 -1.5349,-0.066 -2.3034,-0.0378 -1.6659,0.0609 -3.3341,0.0609 -5,0 l 11,-15 -11,-15 16,0 c 2.7169,0 5.4694,0.088 8.0719,0.86791 2.6026,0.77993 5.007,2.21095 6.9281,4.13209 1.9211,1.92114 3.3522,4.32551 4.1321,6.92806 0.7799,2.60255 0.8679,5.35504 0.8679,8.07194 l 0,35 c 0,2.7169 -0.088,5.46939 -0.8679,8.07194 -0.7799,2.60255 -2.211,5.00692 -4.1321,6.92806 -1.9211,1.92114 -4.3255,3.35216 -6.9281,4.13209 -2.6025,0.77992 -5.355,0.86791 -8.0719,0.86791 l -20,0"
         style="fill:#fafafa;fill-opacity:1;stroke:#323232;stroke-width:2;stroke-linecap:butt;stroke-linejoin:round;stroke-miterlimit:4;stroke-opacity:1;stroke-dasharray:none" />
    </g>
    <g
       transform="matrix(0.79009756,0,0,0.79009756,-505.0477,-14.417219)"
       id="g5145"
       style="opacity:0.9;fill:#fafafa;fill-opacity:1;stroke:#323232;stroke-opacity:1">
      <path
         sodipodi:nodetypes="ccccczzzzccczzzzzzc"
         inkscape:connector-curvature="0"
         inkscape:original-d="m 1407.8438,449.85661 0,-5 15,20 -15,20 0,-5 c 0,0 -8,0 -10,0 -2,0 -2,0 -4,1 -2,1 -1,2.33333 -1,4 0,1.66667 0,3.33333 0,5 0,1.66667 4.8214,3.82149 6,5 1.1785,1.17851 23,2 24,0 -8.8468,17.18292 -12.6821,12.70624 0,30 0,0 -29.1667,0 -35,0 -5.8334,0 -13.8215,-3.82149 -15,-5 -1.1786,-1.17851 -5,-3.33333 -5,-15 0,-11.66667 0,-23.33333 0,-35 0,-11.66666 3.8214,-13.82149 5,-15 1.1785,-1.17851 8.3333,-5 15,-5 6.6666,0 20,0 20,0 z"
         inkscape:path-effect="#path-effect4451"
         id="path5147"
         d="m 1407.8438,449.85661 0,-5 15,20 -15,20 0,-5 -10,0 c -0.706,0 -1.4165,-0.005 -2.112,0.11613 -0.6955,0.12116 -1.3888,0.38467 -1.888,0.88387 -0.4992,0.4992 -0.7627,1.19253 -0.8839,1.88802 -0.1211,0.6955 -0.1161,1.40601 -0.1161,2.11198 l 0,5 c 0,0.77049 0.02,1.55364 0.2578,2.28649 0.2378,0.73284 0.6926,1.39701 1.306,1.8632 0.6135,0.46619 1.3652,0.72847 2.1286,0.83249 0.7634,0.10402 1.5383,0.06 2.3076,0.0178 7.992,-0.438 16.008,-0.438 24,0 l 0,30 -35,0 c -2.7169,0 -5.4694,-0.088 -8.0719,-0.86791 -2.6026,-0.77993 -5.007,-2.21095 -6.9281,-4.13209 -1.9211,-1.92114 -3.3522,-4.32551 -4.1321,-6.92806 -0.7799,-2.60255 -0.8679,-5.35504 -0.8679,-8.07194 l 0,-35 c 0,-2.7169 0.088,-5.46939 0.8679,-8.07194 0.7799,-2.60255 2.211,-5.00692 4.1321,-6.92806 1.9211,-1.92114 4.3255,-3.35216 6.9281,-4.13209 2.6025,-0.77992 5.355,-0.86791 8.0719,-0.86791 l 20,0"
         style="fill:#fafafa;fill-opacity:1;stroke:#323232;stroke-width:2;stroke-linecap:butt;stroke-linejoin:round;stroke-miterlimit:4;stroke-opacity:1;stroke-dasharray:none" />
      <path
         transform="matrix(1.0462275,0,0,1.0462275,1229.6594,-366.9958)"
         d="m 205,832.36218 c 0,11.0457 -8.95431,20 -20,20 -11.04569,0 -20,-8.9543 -20,-20 0,-11.04569 8.95431,-20 20,-20 11.04569,0 20,8.95431 20,20 z"
         sodipodi:ry="20"
         sodipodi:rx="20"
         sodipodi:cy="832.36218"
         sodipodi:cx="185"
         id="path5149"
         style="fill:#fafafa;fill-opacity:1;stroke:#323232;stroke-width:1.91163015;stroke-linejoin:miter;stroke-miterlimit:4;stroke-opacity:1;stroke-dasharray:none"
         sodipodi:type="arc" />
      <text
         sodipodi:linespacing="125%"
         id="text5151"
         y="518.57538"
         x="1410"
         style="font-size:40.41395187px;font-style:normal;font-weight:normal;line-height:125%;letter-spacing:0px;word-spacing:0px;fill:#fafafa;fill-opacity:1;stroke:none;font-family:Sans"
         xml:space="preserve"><tspan
           style="font-style:normal;font-variant:normal;font-weight:normal;font-stretch:normal;fill:#323232;fill-opacity:1;stroke:none;font-family:OpenSymbol;-inkscape-font-specification:OpenSymbol"
           y="518.57538"
           x="1410"
           id="tspan5153"
           sodipodi:role="line">1</tspan></text>
    </g>
  </g>
</svg>
