<?xml version="1.0" encoding="UTF-8" standalone="no"?>
<!-- Created with Inkscape (http://www.inkscape.org/) -->

<svg
   xmlns:dc="http://purl.org/dc/elements/1.1/"
   xmlns:cc="http://creativecommons.org/ns#"
   xmlns:rdf="http://www.w3.org/1999/02/22-rdf-syntax-ns#"
   xmlns:svg="http://www.w3.org/2000/svg"
   xmlns="http://www.w3.org/2000/svg"
   xmlns:sodipodi="http://sodipodi.sourceforge.net/DTD/sodipodi-0.dtd"
   xmlns:inkscape="http://www.inkscape.org/namespaces/inkscape"
   width="210mm"
   height="297mm"
   id="svg3221"
   version="1.1"
   inkscape:version="0.48.4 r9939"
   sodipodi:docname="source.svg">
  <defs
     id="defs3223">
    <filter
       color-interpolation-filters="sRGB"
       inkscape:collect="always"
       id="filter3934"
       x="-0.23999999"
       width="1.48"
       y="-0.23999999"
       height="1.48">
      <feGaussianBlur
         inkscape:collect="always"
         stdDeviation="10"
         id="feGaussianBlur3936" />
    </filter>
    <filter
       color-interpolation-filters="sRGB"
       inkscape:collect="always"
       id="filter4686"
       x="-0.38784611"
       width="1.7756922"
       y="-0.33588457"
       height="1.6717691">
      <feGaussianBlur
         inkscape:collect="always"
         stdDeviation="7.2721143"
         id="feGaussianBlur4688" />
    </filter>
    <filter
       color-interpolation-filters="sRGB"
       inkscape:collect="always"
       id="filter4686-2"
       x="-0.38784611"
       width="1.7756922"
       y="-0.33588457"
       height="1.6717691">
      <feGaussianBlur
         inkscape:collect="always"
         stdDeviation="7.2721143"
         id="feGaussianBlur4688-6" />
    </filter>
    <filter
       color-interpolation-filters="sRGB"
       inkscape:collect="always"
       id="filter4696-1"
       x="-0.36000001"
       width="1.72"
       y="-0.36000001"
       height="1.72">
      <feGaussianBlur
         inkscape:collect="always"
         stdDeviation="11.24837"
         id="feGaussianBlur4698-2" />
    </filter>
    <inkscape:path-effect
       is_visible="true"
       id="path-effect4311"
       effect="spiro" />
    <inkscape:path-effect
       effect="spiro"
       id="path-effect4313"
       is_visible="true" />
    <inkscape:path-effect
       effect="spiro"
       id="path-effect4674"
       is_visible="true" />
    <inkscape:path-effect
       is_visible="true"
       id="path-effect4671"
       effect="spiro" />
    <inkscape:path-effect
       effect="spiro"
       id="path-effect4396"
       is_visible="true" />
    <inkscape:path-effect
       is_visible="true"
       id="path-effect4421"
       effect="spiro" />
    <inkscape:path-effect
       is_visible="true"
       id="path-effect4668"
       effect="spiro" />
    <inkscape:path-effect
       effect="spiro"
       id="path-effect4665"
       is_visible="true" />
    <inkscape:path-effect
       effect="spiro"
       id="path-effect4662"
       is_visible="true" />
    <filter
       color-interpolation-filters="sRGB"
       inkscape:collect="always"
       id="filter4834"
       x="-0.64641017"
       width="2.2928202"
       y="-0.5598076"
       height="2.1196153">
      <feGaussianBlur
         inkscape:collect="always"
         stdDeviation="12.120191"
         id="feGaussianBlur4836" />
    </filter>
    <inkscape:path-effect
       is_visible="true"
       id="path-effect4261"
       effect="spiro" />
    <inkscape:path-effect
       is_visible="true"
       id="path-effect4932"
       effect="spiro" />
    <inkscape:path-effect
       is_visible="true"
       id="path-effect3337"
       effect="spiro" />
    <filter
       color-interpolation-filters="sRGB"
       inkscape:collect="always"
       id="filter7490"
       x="-0.35999858"
       width="1.7199972"
       y="-0.36000142"
       height="1.7200028">
      <feGaussianBlur
         inkscape:collect="always"
         stdDeviation="11.250182"
         id="feGaussianBlur7492" />
    </filter>
    <filter
       color-interpolation-filters="sRGB"
       inkscape:collect="always"
       id="filter4686-5"
       x="-0.38784611"
       width="1.7756922"
       y="-0.33588457"
       height="1.6717691">
      <feGaussianBlur
         inkscape:collect="always"
         stdDeviation="7.2721143"
         id="feGaussianBlur4688-0" />
    </filter>
    <filter
       color-interpolation-filters="sRGB"
       inkscape:collect="always"
       id="filter4696-6"
       x="-0.36000001"
       width="1.72"
       y="-0.36000001"
       height="1.72">
      <feGaussianBlur
         inkscape:collect="always"
         stdDeviation="11.24837"
         id="feGaussianBlur4698-1" />
    </filter>
    <filter
       color-interpolation-filters="sRGB"
       inkscape:collect="always"
       id="filter4710"
       x="-0.338999"
       width="1.6779979"
       y="-0.38377488"
       height="1.7675498">
      <feGaussianBlur
         inkscape:collect="always"
         stdDeviation="11.992965"
         id="feGaussianBlur4712" />
    </filter>
  </defs>
  <sodipodi:namedview
     id="base"
     pagecolor="#c8c8c8"
     bordercolor="#666666"
     borderopacity="1.0"
     inkscape:pageopacity="1"
     inkscape:pageshadow="2"
     inkscape:zoom="0.7"
     inkscape:cx="-167.62655"
     inkscape:cy="507.59248"
     inkscape:document-units="px"
     inkscape:current-layer="layer1"
     showgrid="true"
     inkscape:window-width="1680"
     inkscape:window-height="1026"
     inkscape:window-x="1920"
     inkscape:window-y="54"
     inkscape:window-maximized="1">
    <inkscape:grid
       type="xygrid"
       id="grid3229"
       empspacing="5"
       visible="true"
       enabled="true"
       snapvisiblegridlinesonly="true" />
  </sodipodi:namedview>
  <metadata
     id="metadata3226">
    <rdf:RDF>
      <cc:Work
         rdf:about="">
        <dc:format>image/svg+xml</dc:format>
        <dc:type
           rdf:resource="http://purl.org/dc/dcmitype/StillImage" />
        <dc:title />
      </cc:Work>
    </rdf:RDF>
  </metadata>
  <g
     inkscape:label="Calque 1"
     inkscape:groupmode="layer"
     id="layer1">
    <g
       transform="translate(-646.07753,-127.7997)"
       id="g7507">
      <g
         style="fill:#ff8800;fill-opacity:1;stroke:none;filter:url(#filter7490)"
         transform="translate(1.4709462e-7,-100)"
         id="g7478">
        <path
           inkscape:connector-curvature="0"
           id="rect7480"
           d="m 904.99988,547.36194 29.99761,0 0,75.00092 -29.99761,0 z"
           style="opacity:0.9;fill:#ff8800;fill-opacity:1;stroke:none" />
        <path
           inkscape:connector-curvature="0"
           id="rect7482"
           d="m 950.00378,547.36194 29.99761,0 0,75.00092 -29.99761,0 z"
           style="opacity:0.9;fill:#ff8800;fill-opacity:1;stroke:none" />
      </g>
      <g
         id="g7497">
        <rect
           y="447.36194"
           x="904.99988"
           height="75.000923"
           width="29.997608"
           id="rect4644-7"
           style="opacity:0.9;fill:#1e1e1e;fill-opacity:1;stroke:#fafafa;stroke-width:2;stroke-linejoin:round;stroke-miterlimit:4;stroke-opacity:1;stroke-dasharray:none" />
        <rect
           style="opacity:0.9;fill:#1e1e1e;fill-opacity:1;stroke:#fafafa;stroke-width:2;stroke-linejoin:round;stroke-miterlimit:4;stroke-opacity:1;stroke-dasharray:none"
           id="rect4646-3"
           width="29.997608"
           height="75.000923"
           x="950.00378"
           y="447.36194" />
      </g>
    </g>
    <g
       transform="translate(-551.36771,-125.04012)"
       id="g7474">
      <rect
         transform="matrix(0,1,-1,0,-80,0)"
         y="-1144.9312"
         x="647.36206"
         height="74.989136"
         width="74.989136"
         id="rect3333-1"
         style="fill:#ff8800;fill-opacity:1;stroke:none;filter:url(#filter4696-6)" />
      <rect
         style="opacity:0.8;fill:#f0f0f0;fill-opacity:1;stroke:#1e1e1e;stroke-width:2;stroke-linejoin:round;stroke-miterlimit:4;stroke-opacity:1;stroke-dasharray:none"
         id="rect3335-6"
         width="74.989136"
         height="74.989136"
         x="647.36206"
         y="-1064.9312"
         transform="matrix(0,1,-1,0,0,0)" />
    </g>
    <g
       transform="translate(-476.20222,-125.0401)"
       id="g7439">
      <path
         sodipodi:type="star"
         style="fill:#ff8800;fill-opacity:1;fill-rule:nonzero;stroke:none;filter:url(#filter4686-5)"
         id="path3357-8"
         sodipodi:sides="3"
         sodipodi:cx="535"
         sodipodi:cy="577.36218"
         sodipodi:r1="30"
         sodipodi:r2="15"
         sodipodi:arg1="0"
         sodipodi:arg2="1.0471976"
         inkscape:flatsided="true"
         inkscape:rounded="0"
         inkscape:randomized="0"
         d="m 565,577.36218 -45,25.98076 0,-51.96152 z"
         transform="matrix(1.442436,0,0,1.442436,85.22094,-147.95139)"
         inkscape:transform-center-x="-10.818263"
         inkscape:transform-center-y="1.8712659e-05" />
      <path
         inkscape:transform-center-y="1.8712659e-05"
         inkscape:transform-center-x="-10.818263"
         transform="matrix(1.442436,0,0,1.442436,85.22094,-147.95139)"
         d="m 565,577.36218 -45,25.98076 0,-51.96152 z"
         inkscape:randomized="0"
         inkscape:rounded="0"
         inkscape:flatsided="true"
         sodipodi:arg2="1.0471976"
         sodipodi:arg1="0"
         sodipodi:r2="15"
         sodipodi:r1="30"
         sodipodi:cy="577.36218"
         sodipodi:cx="535"
         sodipodi:sides="3"
         id="path3359-4"
         style="opacity:0.8;fill:#f0f0f0;fill-opacity:1;fill-rule:nonzero;stroke:#1e1e1e;stroke-width:1.38654327;stroke-linejoin:round;stroke-miterlimit:4;stroke-opacity:1;stroke-dasharray:none"
         sodipodi:type="star" />
    </g>
    <g
       transform="translate(-646.07753,-125.04589)"
       id="g7522">
      <g
         transform="translate(1.4709474e-7,100)"
         id="g7501"
         style="fill:#ff8800;fill-opacity:1;stroke:none;filter:url(#filter7490)">
        <path
           style="opacity:0.9;fill:#ff8800;fill-opacity:1;stroke:none"
           d="m 904.99988,547.36194 29.99761,0 0,75.00092 -29.99761,0 z"
           id="path7503"
           inkscape:connector-curvature="0" />
        <path
           style="opacity:0.9;fill:#ff8800;fill-opacity:1;stroke:none"
           d="m 950.00378,547.36194 29.99761,0 0,75.00092 -29.99761,0 z"
           id="path7505"
           inkscape:connector-curvature="0" />
      </g>
      <g
         id="g7518">
        <rect
           style="opacity:0.8;fill:#f0f0f0;fill-opacity:1;stroke:#1e1e1e;stroke-width:2;stroke-linejoin:round;stroke-miterlimit:4;stroke-opacity:1;stroke-dasharray:none"
           id="rect3365-1"
           width="29.997608"
           height="75.000923"
           x="904.99988"
           y="647.36194" />
        <rect
           y="647.36194"
           x="950.00378"
           height="75.000923"
           width="29.997608"
           id="rect3367-1"
           style="opacity:0.8;fill:#f0f0f0;fill-opacity:1;stroke:#1e1e1e;stroke-width:2;stroke-linejoin:round;stroke-miterlimit:4;stroke-opacity:1;stroke-dasharray:none" />
      </g>
    </g>
    <g
       transform="translate(-921.8035,-125.0401)"
       id="g7470">
      <path
         inkscape:transform-center-y="1.8712659e-05"
         inkscape:transform-center-x="-12.398759"
         transform="matrix(1.6531705,0,0,1.442436,226.0544,-147.95139)"
         d="m 565,577.36218 -45,25.98076 0,-51.96152 z"
         inkscape:randomized="0"
         inkscape:rounded="0"
         inkscape:flatsided="true"
         sodipodi:arg2="1.0471976"
         sodipodi:arg1="0"
         sodipodi:r2="15"
         sodipodi:r1="30"
         sodipodi:cy="577.36218"
         sodipodi:cx="535"
         sodipodi:sides="3"
         id="path3371-6"
         style="fill:#ff8800;fill-opacity:1;fill-rule:nonzero;stroke:none;filter:url(#filter4686-5)"
         sodipodi:type="star" />
      <path
         inkscape:connector-curvature="0"
         id="path3373-7"
         d="m 1080.4463,647.37223 0,74.96875 20,-11.5625 0,11.5625 64.9062,-37.5 -64.9062,-37.46875 0,11.53125 -20,-11.53125 z"
         style="opacity:0.8;fill:#f0f0f0;fill-opacity:1;fill-rule:nonzero;stroke:#1e1e1e;stroke-width:1.99999988;stroke-linejoin:round;stroke-miterlimit:4;stroke-opacity:1;stroke-dasharray:none" />
    </g>
    <g
       transform="translate(-645.99101,-310.63026)"
       id="g4602"
       style="opacity:0.9">
      <rect
         style="fill:#323232;fill-opacity:1;stroke:#fafafa;stroke-width:2;stroke-linejoin:round;stroke-miterlimit:4;stroke-opacity:1;stroke-dasharray:none"
         id="rect4604"
         width="29.997608"
         height="75.000923"
         x="904.99988"
         y="527.36194" />
      <rect
         y="527.36194"
         x="950.00378"
         height="75.000923"
         width="29.997608"
         id="rect4606"
         style="fill:#323232;fill-opacity:1;stroke:#fafafa;stroke-width:2;stroke-linejoin:round;stroke-miterlimit:4;stroke-opacity:1;stroke-dasharray:none" />
    </g>
    <g
       id="g3874"
       transform="translate(99.406316,-403.69688)">
      <path
         d="m 295,507.36218 c 0,27.61424 -22.38576,50 -50,50 -27.61424,0 -50,-22.38576 -50,-50 0,-27.61423 22.38576,-50 50,-50 27.61424,0 50,22.38577 50,50 z"
         sodipodi:ry="50"
         sodipodi:rx="50"
         sodipodi:cy="507.36218"
         sodipodi:cx="245"
         id="path3870"
         style="opacity:0.76954735;fill:#5e5e5e;fill-opacity:1;stroke:none"
         sodipodi:type="arc" />
      <path
         inkscape:transform-center-x="-6.25"
         d="m 270,507.36218 -37.5,21.65064 0,-43.30127 z"
         inkscape:randomized="0"
         inkscape:rounded="0"
         inkscape:flatsided="true"
         sodipodi:arg2="1.0471976"
         sodipodi:arg1="0"
         sodipodi:r2="12.5"
         sodipodi:r1="25"
         sodipodi:cy="507.36218"
         sodipodi:cx="245"
         sodipodi:sides="3"
         id="path3872"
         style="fill:#ffffff;fill-opacity:1;stroke:none"
         sodipodi:type="star" />
    </g>
    <g
       id="g3940"
       transform="translate(-3.6294064,-408.96954)">
      <g
         id="g3966">
        <g
           transform="translate(235.17767,5.2726629)"
           id="g3884"
           style="fill:#ff8800;fill-opacity:1;filter:url(#filter3934)">
          <path
             d="m 295,507.36218 c 0,27.61424 -22.38576,50 -50,50 -27.61424,0 -50,-22.38576 -50,-50 0,-27.61423 22.38576,-50 50,-50 27.61424,0 50,22.38577 50,50 z"
             sodipodi:ry="50"
             sodipodi:rx="50"
             sodipodi:cy="507.36218"
             sodipodi:cx="245"
             id="path3886"
             style="opacity:0.76954735;fill:#ff8800;fill-opacity:1;stroke:none"
             sodipodi:type="arc" />
          <path
             inkscape:transform-center-x="-6.25"
             d="m 270,507.36218 -37.5,21.65064 0,-43.30127 z"
             inkscape:randomized="0"
             inkscape:rounded="0"
             inkscape:flatsided="true"
             sodipodi:arg2="1.0471976"
             sodipodi:arg1="0"
             sodipodi:r2="12.5"
             sodipodi:r1="25"
             sodipodi:cy="507.36218"
             sodipodi:cx="245"
             sodipodi:sides="3"
             id="path3888"
             style="fill:#ff8800;fill-opacity:1;stroke:none"
             sodipodi:type="star" />
        </g>
        <path
           d="m 295,507.36218 c 0,27.61424 -22.38576,50 -50,50 -27.61424,0 -50,-22.38576 -50,-50 0,-27.61423 22.38576,-50 50,-50 27.61424,0 50,22.38577 50,50 z"
           sodipodi:ry="50"
           sodipodi:rx="50"
           sodipodi:cy="507.36218"
           sodipodi:cx="245"
           id="path3880"
           style="opacity:0.9;fill:#2d2d2d;fill-opacity:1;stroke:none"
           sodipodi:type="arc"
           transform="translate(235.17767,5.2726629)" />
        <path
           inkscape:transform-center-x="-6.25"
           d="m 270,507.36218 -37.5,21.65064 0,-43.30127 z"
           inkscape:randomized="0"
           inkscape:rounded="0"
           inkscape:flatsided="true"
           sodipodi:arg2="1.0471976"
           sodipodi:arg1="0"
           sodipodi:r2="12.5"
           sodipodi:r1="25"
           sodipodi:cy="507.36218"
           sodipodi:cx="245"
           sodipodi:sides="3"
           id="path3882"
           style="fill:#ffffff;fill-opacity:1;stroke:none"
           sodipodi:type="star"
           transform="translate(235.17767,5.2726629)" />
      </g>
    </g>
    <g
       id="g4095"
       transform="translate(-20.770416,-408.25525)">
      <path
         transform="translate(-11.96519,4.5583772)"
         sodipodi:type="arc"
         style="opacity:0.76954735;fill:#ff8800;fill-opacity:1;stroke:none;filter:url(#filter3934)"
         id="path4007"
         sodipodi:cx="245"
         sodipodi:cy="507.36218"
         sodipodi:rx="50"
         sodipodi:ry="50"
         d="m 295,507.36218 c 0,27.61424 -22.38576,50 -50,50 -27.61424,0 -50,-22.38576 -50,-50 0,-27.61423 22.38576,-50 50,-50 27.61424,0 50,22.38577 50,50 z" />
      <path
         transform="translate(-11.96519,4.5583772)"
         sodipodi:type="star"
         style="fill:#ff8800;fill-opacity:1;stroke:none;filter:url(#filter3934)"
         id="path4009"
         sodipodi:sides="3"
         sodipodi:cx="245"
         sodipodi:cy="507.36218"
         sodipodi:r1="25"
         sodipodi:r2="12.5"
         sodipodi:arg1="0"
         sodipodi:arg2="1.0471976"
         inkscape:flatsided="true"
         inkscape:rounded="0"
         inkscape:randomized="0"
         d="m 270,507.36218 -37.5,21.65064 0,-43.30127 z"
         inkscape:transform-center-x="-6.25" />
      <path
         d="m 295,507.36218 c 0,27.61424 -22.38576,50 -50,50 -27.61424,0 -50,-22.38576 -50,-50 0,-27.61423 22.38576,-50 50,-50 27.61424,0 50,22.38577 50,50 z"
         sodipodi:ry="50"
         sodipodi:rx="50"
         sodipodi:cy="507.36218"
         sodipodi:cx="245"
         id="path4011"
         style="opacity:0.9;fill:#2d2d2d;fill-opacity:1;stroke:none"
         sodipodi:type="arc"
         transform="translate(-11.96519,4.5583772)" />
      <rect
         y="491.74197"
         x="210.53481"
         height="40"
         width="20"
         id="rect4042"
         style="opacity:0.9;fill:#ffffff;fill-opacity:1;stroke:none" />
      <rect
         y="492.09912"
         x="235.53481"
         height="40"
         width="20"
         id="rect4042-8"
         style="opacity:0.9;fill:#ffffff;fill-opacity:1;stroke:none" />
    </g>
    <g
       id="g4243"
       transform="translate(-31.629406,-408.28589)">
      <path
         transform="translate(-133.24816,4.5890152)"
         sodipodi:type="arc"
         style="opacity:0.76954735;fill:#5e5e5e;fill-opacity:1;stroke:none"
         id="path3997"
         sodipodi:cx="245"
         sodipodi:cy="507.36218"
         sodipodi:rx="50"
         sodipodi:ry="50"
         d="m 295,507.36218 c 0,27.61424 -22.38576,50 -50,50 -27.61424,0 -50,-22.38576 -50,-50 0,-27.61423 22.38576,-50 50,-50 27.61424,0 50,22.38577 50,50 z" />
      <g
         id="g4077"
         transform="translate(-120.39101,1.1961472)">
        <rect
           y="490.57648"
           x="209.64285"
           height="40"
           width="20"
           id="rect4079"
           style="opacity:0.9;fill:#ffffff;fill-opacity:1;stroke:none" />
        <rect
           y="490.93362"
           x="234.64285"
           height="40"
           width="20"
           id="rect4081"
           style="opacity:0.9;fill:#ffffff;fill-opacity:1;stroke:none" />
      </g>
    </g>
    <text
       xml:space="preserve"
       style="font-size:40px;font-style:normal;font-weight:normal;line-height:125%;letter-spacing:0px;word-spacing:0px;fill:#000000;fill-opacity:1;stroke:none;font-family:Sans"
       x="20"
       y="42.362183"
       id="text3358"
       sodipodi:linespacing="125%"><tspan
         sodipodi:role="line"
         x="20"
         y="42.362183"
         id="tspan3362">Video</tspan></text>
    <text
       xml:space="preserve"
       style="font-size:40px;font-style:normal;font-weight:normal;line-height:125%;letter-spacing:0px;word-spacing:0px;fill:#000000;fill-opacity:1;stroke:none;font-family:Sans"
       x="20"
       y="202.36218"
       id="text3366"
       sodipodi:linespacing="125%"><tspan
         sodipodi:role="line"
         id="tspan3368"
         x="20"
         y="202.36218">Audio</tspan></text>
    <path
       inkscape:connector-curvature="0"
       id="path4600"
       d="m 159,216.74781 0,74.96866 20,-11.5625 0,11.5625 64.9062,-37.49991 L 179,216.74781 l 0,11.5312 z"
       style="opacity:0.9;fill:#323232;fill-opacity:1;fill-rule:nonzero;stroke:#fafafa;stroke-width:1.99999988;stroke-linejoin:round;stroke-miterlimit:4;stroke-opacity:1;stroke-dasharray:none"
       sodipodi:nodetypes="cccccccc" />
    <g
       transform="translate(-1002.6964,-327.79391)"
       id="g4807">
      <path
         sodipodi:type="star"
         style="fill:#ff8800;fill-opacity:1;fill-rule:nonzero;stroke:none;filter:url(#filter4686)"
         id="path4801"
         sodipodi:sides="3"
         sodipodi:cx="535"
         sodipodi:cy="577.36218"
         sodipodi:r1="30"
         sodipodi:r2="15"
         sodipodi:arg1="0"
         sodipodi:arg2="1.0471976"
         inkscape:flatsided="true"
         inkscape:rounded="0"
         inkscape:randomized="0"
         d="m 565,577.36218 -45,25.98076 0,-51.96152 z"
         transform="matrix(1.6531705,0,0,1.442436,306.0544,-147.95139)"
         inkscape:transform-center-x="-12.398759"
         inkscape:transform-center-y="1.8712659e-05" />
      <path
         style="opacity:0.9;fill:#1e1e1e;fill-opacity:1;fill-rule:nonzero;stroke:#fafafa;stroke-width:1.99999988;stroke-linejoin:round;stroke-miterlimit:4;stroke-opacity:1;stroke-dasharray:none"
         d="m 1161.6963,649.20257 0,74.96875 20,-11.5625 0,11.5625 64.9062,-37.5 -64.9062,-37.46875 0,11.53125 -20,-11.53125 z"
         id="path4640"
         inkscape:connector-curvature="0" />
    </g>
    <path
       inkscape:transform-center-x="-10.818263"
       transform="matrix(1.442436,0,0,1.442436,-391.063,-578.57586)"
       d="m 565,577.36218 -45,25.98076 0,-51.96152 z"
       inkscape:randomized="0"
       inkscape:rounded="0"
       inkscape:flatsided="true"
       sodipodi:arg2="1.0471976"
       sodipodi:arg1="0"
       sodipodi:r2="15"
       sodipodi:r1="30"
       sodipodi:cy="577.36218"
       sodipodi:cx="535"
       sodipodi:sides="3"
       id="path4596"
       style="opacity:0.9;fill:#323232;fill-opacity:1;fill-rule:nonzero;stroke:#fafafa;stroke-width:1.38654327;stroke-linejoin:round;stroke-miterlimit:4;stroke-opacity:1;stroke-dasharray:none"
       sodipodi:type="star"
       inkscape:transform-center-y="1.8712659e-05" />
    <g
       transform="translate(-476.20222,-327.79391)"
       id="g4803">
      <path
         inkscape:transform-center-y="1.8712659e-05"
         inkscape:transform-center-x="-10.818263"
         transform="matrix(1.442436,0,0,1.442436,85.22094,-147.95139)"
         d="m 565,577.36218 -45,25.98076 0,-51.96152 z"
         inkscape:randomized="0"
         inkscape:rounded="0"
         inkscape:flatsided="true"
         sodipodi:arg2="1.0471976"
         sodipodi:arg1="0"
         sodipodi:r2="15"
         sodipodi:r1="30"
         sodipodi:cy="577.36218"
         sodipodi:cx="535"
         sodipodi:sides="3"
         id="path4676"
         style="fill:#ff8800;fill-opacity:1;fill-rule:nonzero;stroke:none;filter:url(#filter4686-2)"
         sodipodi:type="star" />
      <path
         sodipodi:type="star"
         style="opacity:0.9;fill:#1e1e1e;fill-opacity:1;fill-rule:nonzero;stroke:#fafafa;stroke-width:1.38654327;stroke-linejoin:round;stroke-miterlimit:4;stroke-opacity:1;stroke-dasharray:none"
         id="path4636"
         sodipodi:sides="3"
         sodipodi:cx="535"
         sodipodi:cy="577.36218"
         sodipodi:r1="30"
         sodipodi:r2="15"
         sodipodi:arg1="0"
         sodipodi:arg2="1.0471976"
         inkscape:flatsided="true"
         inkscape:rounded="0"
         inkscape:randomized="0"
         d="m 565,577.36218 -45,25.98076 0,-51.96152 z"
         transform="matrix(1.442436,0,0,1.442436,85.22094,-147.95139)"
         inkscape:transform-center-x="-10.818263"
         inkscape:transform-center-y="1.8712659e-05" />
    </g>
    <rect
       style="opacity:0.9;fill:#323232;fill-opacity:1;stroke:#fafafa;stroke-width:2;stroke-linejoin:round;stroke-miterlimit:4;stroke-opacity:1;stroke-dasharray:none"
       id="rect4598"
       width="74.989136"
       height="74.989136"
       x="216.73758"
       y="-514.00513"
       transform="matrix(0,1,-1,0,0,0)" />
    <g
       transform="translate(-631.11517,-327.79393)"
       id="g4708">
      <rect
         style="fill:#ff8800;fill-opacity:1;stroke:none;filter:url(#filter4696-1)"
         id="rect4694"
         width="74.989136"
         height="74.989136"
         x="647.36206"
         y="-1144.9312"
         transform="matrix(0,1,-1,0,0,0)" />
      <rect
         transform="matrix(0,1,-1,0,0,0)"
         y="-1144.9312"
         x="647.36206"
         height="74.989136"
         width="74.989136"
         id="rect4638"
         style="opacity:0.9;fill:#1e1e1e;fill-opacity:1;stroke:#fafafa;stroke-width:2;stroke-linejoin:round;stroke-miterlimit:4;stroke-opacity:1;stroke-dasharray:none" />
    </g>
    <g
       transform="translate(-642.45285,-230.62447)"
       id="g4574"
       style="opacity:0.9">
      <path
         sodipodi:nodetypes="ccccccccccccccccccccc"
         inkscape:connector-curvature="0"
         inkscape:original-d="m 1202.4226,450.31852 c -3.3334,0 -6.6667,-3 -10.0001,-3 l -14.9889,0.048 0,30 5,0 c 1.6667,0 8.3223,2.95201 9.9889,2.95201 3.3334,5 6.6667,7 10.0001,12 l 10,15 c 3.3333,5 6.6666,7 10,12 3.3333,0 6.6666,3 10,3 l 9,0 1,0 0,5 c -2.5575,12.68004 11.561,-16.56118 15,-20 -7.1714,-4.05825 -10,-10 -15,-20 l 0,5 -1,0 c -3,0 -6,-3 -9,-3 -3.3334,-5 -6.6667,-7 -10,-12 l -10,-15 c -3.3334,-5 -6.6667,-7 -10,-12.00001 z"
         inkscape:path-effect="#path-effect4311"
         id="path4576"
         d="m 1202.4226,450.31852 c -1.3254,-1.19842 -2.9517,-2.05201 -4.6793,-2.50842 -1.7275,-0.45642 -3.534,-0.4973 -5.3208,-0.49158 l -14.9889,0.048 0,30 5,0 c 1.7803,0 3.5791,0.0452 5.3018,0.49426 1.7228,0.44905 3.3486,1.2839 4.6871,2.45775 3.9423,3.42891 7.1019,7.65266 10.0001,12 l 10,15 c 2.8982,4.34732 6.0578,8.57106 10,12 1.3304,1.19127 2.9566,2.04042 4.683,2.49717 1.7264,0.45676 3.5312,0.50283 5.317,0.50283 l 9,0 1,0 0,5 15,-20 -15,-20 0,5 -1,0 c -1.632,0 -3.2853,-0.0471 -4.8512,-0.507 -1.5659,-0.45991 -3.0195,-1.31476 -4.1488,-2.493 -3.9422,-3.42894 -7.1018,-7.65268 -10,-12 l -10,-15 c -2.8982,-4.34732 -6.0578,-8.57106 -10,-12.00001"
         style="fill:#323232;fill-opacity:1;stroke:#fafafa;stroke-width:2;stroke-linecap:butt;stroke-linejoin:round;stroke-miterlimit:4;stroke-opacity:1;stroke-dasharray:none" />
      <path
         style="fill:#323232;fill-opacity:1;stroke:#fafafa;stroke-width:2;stroke-linecap:butt;stroke-linejoin:round;stroke-miterlimit:4;stroke-opacity:1;stroke-dasharray:none"
         d="m 1202.4033,519.3947 c -1.3274,1.19548 -2.9537,2.04724 -4.6808,2.50379 -1.727,0.45655 -3.5328,0.49958 -5.3192,0.49621 l -14.9697,-0.0282 0,-30 5,0 c 1.7789,0 3.5765,-0.0456 5.2969,-0.49787 1.7204,-0.45229 3.3423,-1.29315 4.6728,-2.47394 3.9422,-3.42894 7.1018,-7.65268 10,-12 l 10,-15 c 2.8982,-4.34732 6.0578,-8.57106 10,-12 1.3304,-1.19127 2.9566,-2.04042 4.683,-2.49717 1.7264,-0.45676 3.5312,-0.50283 5.317,-0.50283 l 9,0 1,0 0,-5 15,20 -15,20 0,-5 -1,0 c -1.632,0 -3.2853,0.0471 -4.8512,0.507 -1.5659,0.45991 -3.0195,1.31476 -4.1488,2.493 -3.9422,3.42894 -7.1018,7.65268 -10,12 l -10,15 c -2.8982,4.34732 -6.0578,8.57106 -10,12.00001"
         id="path4578"
         inkscape:path-effect="#path-effect4313"
         inkscape:original-d="m 1202.4033,519.3947 c -3.3333,0 -6.6667,3 -10,3 l -14.9697,-0.0282 0,-30 5,0 c 1.6667,0 8.303,-2.97181 9.9697,-2.97181 3.3333,-5 6.6667,-7 10,-12 l 10,-15 c 3.3333,-5 6.6667,-7 10,-12 3.3333,0 6.6667,-3 10,-3 l 9,0 1,0 0,-5 c -2.5574,-12.68004 11.5612,16.56118 15,20 -7.1713,4.05825 -10,10 -15,20 l 0,-5 -1,0 c -3,0 -6,3 -9,3 -3.3333,5 -6.6667,7 -10,12 l -10,15 c -3.3333,5 -6.6667,7 -10,12 z"
         inkscape:connector-curvature="0"
         sodipodi:nodetypes="cccccccccccccccccccccc" />
    </g>
    <g
       transform="translate(-722.45285,-327.79391)"
       id="g4783"
       style="opacity:0.9">
      <path
         sodipodi:nodetypes="ccccccccccccccccccccc"
         inkscape:connector-curvature="0"
         inkscape:original-d="m 1282.4226,650.31852 c -3.3334,0 -6.6667,-3 -10.0001,-3 l -14.9889,0.048 0,30 5,0 c 1.6667,0 8.3223,2.95201 9.9889,2.95201 3.3334,5 6.6667,7 10.0001,12 l 10,15 c 3.3333,5 6.6666,7 10,12 3.3333,0 6.6666,3 10,3 l 9,0 1,0 0,5 c -2.5575,12.68004 11.561,-16.56118 15,-20 -7.1714,-4.05825 -10,-10 -15,-20 l 0,5 -1,0 c -3,0 -6,-3 -9,-3 -3.3334,-5 -6.6667,-7 -10,-12 l -10,-15 c -3.3334,-5 -6.6667,-7 -10,-12.00001 z"
         inkscape:path-effect="#path-effect4674"
         id="path4616"
         d="m 1282.4226,650.31852 c -1.3254,-1.19842 -2.9517,-2.05201 -4.6793,-2.50842 -1.7275,-0.45642 -3.534,-0.4973 -5.3208,-0.49158 l -14.9889,0.048 0,30 5,0 c 1.7803,0 3.5791,0.0452 5.3018,0.49426 1.7228,0.44905 3.3486,1.2839 4.6871,2.45775 3.9423,3.42891 7.1019,7.65266 10.0001,12 l 10,15 c 2.8982,4.34732 6.0578,8.57106 10,12 1.3304,1.19127 2.9566,2.04042 4.683,2.49717 1.7264,0.45676 3.5312,0.50283 5.317,0.50283 l 9,0 1,0 0,5 15,-20 -15,-20 0,5 -1,0 c -1.632,0 -3.2853,-0.0471 -4.8512,-0.507 -1.5659,-0.45991 -3.0195,-1.31476 -4.1488,-2.493 -3.9422,-3.42894 -7.1018,-7.65268 -10,-12 l -10,-15 c -2.8982,-4.34732 -6.0578,-8.57106 -10,-12.00001"
         style="fill:#ff8800;fill-opacity:1;stroke:#fafafa;stroke-width:2;stroke-linecap:butt;stroke-linejoin:round;stroke-miterlimit:4;stroke-opacity:1;stroke-dasharray:none" />
      <path
         style="fill:#ff8800;fill-opacity:1;stroke:#fafafa;stroke-width:2;stroke-linecap:butt;stroke-linejoin:round;stroke-miterlimit:4;stroke-opacity:1;stroke-dasharray:none"
         d="m 1282.4033,719.3947 c -1.3274,1.19548 -2.9537,2.04724 -4.6808,2.50379 -1.727,0.45655 -3.5328,0.49958 -5.3192,0.49621 l -14.9697,-0.0282 0,-30 5,0 c 1.7789,0 3.5765,-0.0456 5.2969,-0.49787 1.7204,-0.45229 3.3423,-1.29315 4.6728,-2.47394 3.9422,-3.42894 7.1018,-7.65268 10,-12 l 10,-15 c 2.8982,-4.34732 6.0578,-8.57106 10,-12 1.3304,-1.19127 2.9566,-2.04042 4.683,-2.49717 1.7264,-0.45676 3.5312,-0.50283 5.317,-0.50283 l 9,0 1,0 0,-5 15,20 -15,20 0,-5 -1,0 c -1.632,0 -3.2853,0.0471 -4.8512,0.507 -1.5659,0.45991 -3.0195,1.31476 -4.1488,2.493 -3.9422,3.42894 -7.1018,7.65268 -10,12 l -10,15 c -2.8982,4.34732 -6.0578,8.57106 -10,12.00001"
         id="path4618"
         inkscape:path-effect="#path-effect4671"
         inkscape:original-d="m 1282.4033,719.3947 c -3.3333,0 -6.6667,3 -10,3 l -14.9697,-0.0282 0,-30 5,0 c 1.6667,0 8.303,-2.97181 9.9697,-2.97181 3.3333,-5 6.6667,-7 10,-12 l 10,-15 c 3.3333,-5 6.6667,-7 10,-12 3.3333,0 6.6667,-3 10,-3 l 9,0 1,0 0,-5 c -2.5574,-12.68004 11.5612,16.56118 15,20 -7.1713,4.05825 -10,10 -15,20 l 0,-5 -1,0 c -3,0 -6,3 -9,3 -3.3333,5 -6.6667,7 -10,12 l -10,15 c -3.3333,5 -6.6667,7 -10,12 z"
         inkscape:connector-curvature="0"
         sodipodi:nodetypes="cccccccccccccccccccccc" />
    </g>
    <g
       transform="translate(-648.25261,-230.62447)"
       id="g4580"
       style="opacity:0.9">
      <path
         style="fill:#323232;fill-opacity:1;stroke:#fafafa;stroke-width:2;stroke-linecap:butt;stroke-linejoin:round;stroke-miterlimit:4;stroke-opacity:1;stroke-dasharray:none"
         d="m 1313.3524,447.35661 0,-5 15,20 -15,20 0,-5 -10,0 c -0.706,0 -1.4165,-0.005 -2.112,0.11613 -0.6955,0.12116 -1.3888,0.38467 -1.888,0.88387 -0.4992,0.4992 -0.7627,1.19253 -0.8839,1.88802 -0.1211,0.6955 -0.1161,1.40601 -0.1161,2.11198 l 0,5 c 0,0.76897 0.02,1.55076 0.2594,2.28158 0.2393,0.73081 0.6962,1.39179 1.3104,1.85444 0.6142,0.46265 1.365,0.72134 2.1268,0.82614 0.7618,0.10481 1.5349,0.066 2.3034,0.0378 1.6659,-0.0609 3.3341,-0.0609 5,0 l -11,15 11,15 -16,0 c -2.7169,0 -5.4694,-0.088 -8.0719,-0.86791 -2.6026,-0.77993 -5.007,-2.21095 -6.9281,-4.13209 -1.9211,-1.92114 -3.3522,-4.32551 -4.1321,-6.92806 -0.7799,-2.60255 -0.8679,-5.35504 -0.8679,-8.07194 l 0,-35 c 0,-2.7169 0.088,-5.46939 0.8679,-8.07194 0.7799,-2.60255 2.211,-5.00692 4.1321,-6.92806 1.9211,-1.92114 4.3255,-3.35216 6.9281,-4.13209 2.6025,-0.77992 5.355,-0.86791 8.0719,-0.86791 l 20,0"
         id="path4582"
         inkscape:path-effect="#path-effect4396"
         inkscape:original-d="m 1313.3524,447.35661 0,-5 15,20 -15,20 0,-5 c 0,0 -8,0 -10,0 -2,0 -2,0 -4,1 -2,1 -1,2.33333 -1,4 0,1.66667 0,3.33333 0,5 0,1.66667 4.8215,3.82149 6,5 1.1785,1.17851 4,2 5,0 2,0 -11,15 -11,15 l 11,15 c 0,0 -10.1667,0 -16,0 -5.8334,0 -13.8215,-3.82149 -15,-5 -1.1785,-1.17851 -5,-3.33333 -5,-15 0,-11.66667 0,-23.33333 0,-35 0,-11.66666 3.8215,-13.82149 5,-15 1.1785,-1.17851 8.3333,-5 15,-5 6.6666,0 20,0 20,0 z"
         inkscape:connector-curvature="0"
         sodipodi:nodetypes="ccccczzzzcccczzzzzzc" />
      <path
         sodipodi:nodetypes="ccccczzzzcccczzzzzzc"
         inkscape:connector-curvature="0"
         inkscape:original-d="m 1313.3524,522.35661 0,5 -15,-20 15,-20 0,5 c 0,0 8,0 10,0 2,0 2,0 4,-1 2,-1 1,-2.33333 1,-4 0,-1.66667 0,-3.33333 0,-5 0,-1.66667 -4.8215,-3.82149 -6,-5 -1.1785,-1.17851 -4,-2 -5,0 -2,0 11,-15 11,-15 l -11,-15 c 0,0 10.1666,0 16,0 5.8333,0 13.8215,3.82149 15,5 1.1785,1.17851 5,3.33333 5,15 0,11.66667 0,23.33333 0,35 0,11.66666 -3.8215,13.82149 -5,15 -1.1785,1.17851 -8.3334,5 -15,5 -6.6667,0 -20,0 -20,0 z"
         inkscape:path-effect="#path-effect4421"
         id="path4584"
         d="m 1313.3524,522.35661 0,5 -15,-20 15,-20 0,5 10,0 c 0.706,0 1.4165,0.005 2.112,-0.11613 0.6955,-0.12116 1.3888,-0.38467 1.888,-0.88387 0.4992,-0.4992 0.7627,-1.19253 0.8839,-1.88802 0.1211,-0.6955 0.1161,-1.40601 0.1161,-2.11198 l 0,-5 c 0,-0.76897 -0.02,-1.55076 -0.2594,-2.28158 -0.2393,-0.73081 -0.6962,-1.39179 -1.3104,-1.85444 -0.6142,-0.46265 -1.365,-0.72134 -2.1268,-0.82614 -0.7618,-0.10481 -1.5349,-0.066 -2.3034,-0.0378 -1.6659,0.0609 -3.3341,0.0609 -5,0 l 11,-15 -11,-15 16,0 c 2.7169,0 5.4694,0.088 8.0719,0.86791 2.6026,0.77993 5.007,2.21095 6.9281,4.13209 1.9211,1.92114 3.3522,4.32551 4.1321,6.92806 0.7799,2.60255 0.8679,5.35504 0.8679,8.07194 l 0,35 c 0,2.7169 -0.088,5.46939 -0.8679,8.07194 -0.7799,2.60255 -2.211,5.00692 -4.1321,6.92806 -1.9211,1.92114 -4.3255,3.35216 -6.9281,4.13209 -2.6025,0.77992 -5.355,0.86791 -8.0719,0.86791 l -20,0"
         style="fill:#323232;fill-opacity:1;stroke:#fafafa;stroke-width:2;stroke-linecap:butt;stroke-linejoin:round;stroke-miterlimit:4;stroke-opacity:1;stroke-dasharray:none" />
    </g>
    <g
       transform="translate(-728.25261,-327.79391)"
       id="g4787"
       style="opacity:0.9">
      <path
         style="fill:#ff8800;fill-opacity:1;stroke:#fafafa;stroke-width:2;stroke-linecap:butt;stroke-linejoin:round;stroke-miterlimit:4;stroke-opacity:1;stroke-dasharray:none"
         d="m 1393.3524,647.35661 0,-5 15,20 -15,20 0,-5 -10,0 c -0.706,0 -1.4165,-0.005 -2.112,0.11613 -0.6955,0.12116 -1.3888,0.38467 -1.888,0.88387 -0.4992,0.4992 -0.7627,1.19253 -0.8839,1.88802 -0.1211,0.6955 -0.1161,1.40601 -0.1161,2.11198 l 0,5 c 0,0.76897 0.02,1.55076 0.2594,2.28158 0.2393,0.73081 0.6962,1.39179 1.3104,1.85444 0.6142,0.46265 1.365,0.72134 2.1268,0.82614 0.7618,0.10481 1.5349,0.066 2.3034,0.0378 1.6659,-0.061 3.3341,-0.061 5,0 l -11,15 11,15 -16,0 c -2.7169,0 -5.4694,-0.088 -8.0719,-0.86791 -2.6026,-0.77993 -5.007,-2.21095 -6.9281,-4.13209 -1.9211,-1.92114 -3.3522,-4.32551 -4.1321,-6.92806 -0.7799,-2.60255 -0.8679,-5.35504 -0.8679,-8.07194 l 0,-35 c 0,-2.7169 0.088,-5.46939 0.8679,-8.07194 0.7799,-2.60255 2.211,-5.00692 4.1321,-6.92806 1.9211,-1.92114 4.3255,-3.35216 6.9281,-4.13209 2.6025,-0.77992 5.355,-0.86791 8.0719,-0.86791 l 20,0"
         id="path4622"
         inkscape:path-effect="#path-effect4668"
         inkscape:original-d="m 1393.3524,647.35661 0,-5 15,20 -15,20 0,-5 c 0,0 -8,0 -10,0 -2,0 -2,0 -4,1 -2,1 -1,2.33333 -1,4 0,1.66667 0,3.33333 0,5 0,1.66667 4.8215,3.82149 6,5 1.1785,1.17851 4,2 5,0 2,0 -11,15 -11,15 l 11,15 c 0,0 -10.1667,0 -16,0 -5.8334,0 -13.8215,-3.82149 -15,-5 -1.1785,-1.17851 -5,-3.33333 -5,-15 0,-11.66667 0,-23.33333 0,-35 0,-11.66666 3.8215,-13.82149 5,-15 1.1785,-1.17851 8.3333,-5 15,-5 6.6666,0 20,0 20,0 z"
         inkscape:connector-curvature="0"
         sodipodi:nodetypes="ccccczzzzcccczzzzzzc" />
      <path
         sodipodi:nodetypes="ccccczzzzcccczzzzzzc"
         inkscape:connector-curvature="0"
         inkscape:original-d="m 1393.3524,722.35661 0,5 -15,-20 15,-20 0,5 c 0,0 8,0 10,0 2,0 2,0 4,-1 2,-1 1,-2.33333 1,-4 0,-1.66667 0,-3.33333 0,-5 0,-1.66667 -4.8215,-3.82149 -6,-5 -1.1785,-1.17851 -4,-2 -5,0 -2,0 11,-15 11,-15 l -11,-15 c 0,0 10.1666,0 16,0 5.8333,0 13.8215,3.82149 15,5 1.1785,1.17851 5,3.33333 5,15 0,11.66667 0,23.33333 0,35 0,11.66666 -3.8215,13.82149 -5,15 -1.1785,1.17851 -8.3334,5 -15,5 -6.6667,0 -20,0 -20,0 z"
         inkscape:path-effect="#path-effect4665"
         id="path4624"
         d="m 1393.3524,722.35661 0,5 -15,-20 15,-20 0,5 10,0 c 0.706,0 1.4165,0.005 2.112,-0.11613 0.6955,-0.12116 1.3888,-0.38467 1.888,-0.88387 0.4992,-0.4992 0.7627,-1.19253 0.8839,-1.88802 0.1211,-0.6955 0.1161,-1.40601 0.1161,-2.11198 l 0,-5 c 0,-0.76897 -0.02,-1.55076 -0.2594,-2.28158 -0.2393,-0.73081 -0.6962,-1.39179 -1.3104,-1.85444 -0.6142,-0.46265 -1.365,-0.72134 -2.1268,-0.82614 -0.7618,-0.10481 -1.5349,-0.066 -2.3034,-0.0378 -1.6659,0.0609 -3.3341,0.0609 -5,0 l 11,-15 -11,-15 16,0 c 2.7169,0 5.4694,0.088 8.0719,0.86791 2.6026,0.77993 5.007,2.21095 6.9281,4.13209 1.9211,1.92114 3.3522,4.32551 4.1321,6.92806 0.7799,2.60255 0.8679,5.35504 0.8679,8.07194 l 0,35 c 0,2.7169 -0.088,5.46939 -0.8679,8.07194 -0.7799,2.60255 -2.211,5.00692 -4.1321,6.92806 -1.9211,1.92114 -4.3255,3.35216 -6.9281,4.13209 -2.6025,0.77992 -5.355,0.86791 -8.0719,0.86791 l -20,0"
         style="fill:#ff8800;fill-opacity:1;stroke:#fafafa;stroke-width:2;stroke-linecap:butt;stroke-linejoin:round;stroke-miterlimit:4;stroke-opacity:1;stroke-dasharray:none" />
    </g>
    <g
       transform="translate(-822.74401,-229.49974)"
       id="g4791"
       style="opacity:0.9">
      <path
         sodipodi:nodetypes="ccccczzzzccczzzzzzc"
         inkscape:connector-curvature="0"
         inkscape:original-d="m 1487.8438,649.85661 0,-5 15,20 -15,20 0,-5 c 0,0 -8,0 -10,0 -2,0 -2,0 -4,1 -2,1 -1,2.33333 -1,4 0,1.66667 0,3.33333 0,5 0,1.66667 4.8214,3.82149 6,5 1.1785,1.17851 23,2 24,0 -8.8468,17.18292 -12.6821,12.70624 0,30 0,0 -29.1667,0 -35,0 -5.8334,0 -13.8215,-3.82149 -15,-5 -1.1786,-1.17851 -5,-3.33333 -5,-15 0,-11.66667 0,-23.33333 0,-35 0,-11.66666 3.8214,-13.82149 5,-15 1.1785,-1.17851 8.3333,-5 15,-5 6.6666,0 20,0 20,0 z"
         inkscape:path-effect="#path-effect4662"
         id="path4628"
         d="m 1487.8438,649.85661 0,-5 15,20 -15,20 0,-5 -10,0 c -0.706,0 -1.4165,-0.005 -2.112,0.11613 -0.6955,0.12116 -1.3888,0.38467 -1.888,0.88387 -0.4992,0.4992 -0.7627,1.19253 -0.8839,1.88802 -0.1211,0.6955 -0.1161,1.40601 -0.1161,2.11198 l 0,5 c 0,0.77049 0.02,1.55364 0.2578,2.28649 0.2378,0.73284 0.6926,1.39701 1.306,1.8632 0.6135,0.46619 1.3652,0.72847 2.1286,0.83249 0.7634,0.10402 1.5383,0.06 2.3076,0.0178 7.992,-0.438 16.008,-0.438 24,0 l 0,30 -35,0 c -2.7169,0 -5.4694,-0.088 -8.0719,-0.86791 -2.6026,-0.77993 -5.007,-2.21095 -6.9281,-4.13209 -1.9211,-1.92114 -3.3522,-4.32551 -4.1321,-6.92806 -0.7799,-2.60255 -0.8679,-5.35504 -0.8679,-8.07194 l 0,-35 c 0,-2.7169 0.088,-5.46939 0.8679,-8.07194 0.7799,-2.60255 2.211,-5.00692 4.1321,-6.92806 1.9211,-1.92114 4.3255,-3.35216 6.9281,-4.13209 2.6025,-0.77992 5.355,-0.86791 8.0719,-0.86791 l 20,0"
         style="fill:#ff8800;fill-opacity:1;stroke:#fafafa;stroke-width:2;stroke-linecap:butt;stroke-linejoin:round;stroke-miterlimit:4;stroke-opacity:1;stroke-dasharray:none" />
      <path
         transform="matrix(1.0462275,0,0,1.0462275,1309.6594,-166.9958)"
         d="m 205,832.36218 c 0,11.0457 -8.95431,20 -20,20 -11.04569,0 -20,-8.9543 -20,-20 0,-11.04569 8.95431,-20 20,-20 11.04569,0 20,8.95431 20,20 z"
         sodipodi:ry="20"
         sodipodi:rx="20"
         sodipodi:cy="832.36218"
         sodipodi:cx="185"
         id="path4630"
         style="fill:#ff8800;fill-opacity:1;stroke:#fafafa;stroke-width:1.91163015;stroke-linejoin:miter;stroke-miterlimit:4;stroke-opacity:1;stroke-dasharray:none"
         sodipodi:type="arc" />
      <text
         sodipodi:linespacing="125%"
         id="text4632"
         y="718.57538"
         x="1490"
         style="font-size:40.41395187px;font-style:normal;font-weight:normal;line-height:125%;letter-spacing:0px;word-spacing:0px;fill:#fafafa;fill-opacity:1;stroke:none;font-family:Sans"
         xml:space="preserve"><tspan
           style="font-style:normal;font-variant:normal;font-weight:normal;font-stretch:normal;fill:#fafafa;fill-opacity:1;stroke:none;font-family:OpenSymbol;-inkscape-font-specification:OpenSymbol"
           y="718.57538"
           x="1490"
           id="tspan4634"
           sodipodi:role="line">1</tspan></text>
    </g>
    <path
       style="opacity:0.9;fill:#323232;fill-opacity:1;fill-rule:nonzero;stroke:#fafafa;stroke-opacity:1"
       d="m 551.01853,415.37222 c -1.00002,0 -3,1 -4,2 -1,1 -1,2 -1,3 l 0,45.09375 c -0.49046,-0.0552 -0.99218,-0.0937 -1.5,-0.0937 -6.36051,0 -11.53125,4.45465 -11.53125,9.96875 0,5.5142 5.17074,10 11.53125,10 6.36051,0 11.53125,-4.4858 11.53125,-10 0,-0.1723 -0.0213,-0.3298 -0.0312,-0.5 l 0,-54.46875 c 0,-1 0.0282,-2.02817 1,-3 0.97183,-0.97182 3,-2 4,-2 l -5,0 -5,0 z m 25,5 c -1.00002,0 -3,1 -4,2 -1,1 -1,2 -1,3 l 0,45.0938 c -0.49729,-0.057 -0.98482,-0.094 -1.5,-0.094 -6.36245,0 -11.53125,4.4858 -11.53125,10 0,5.5141 5.1688,9.9687 11.53125,9.9687 6.36245,0 11.5,-4.4546 11.5,-9.9687 l 0,-55.00005 c 0,-1 0.0282,-2.02817 1,-3 0.97183,-0.97182 3,-2 4,-2 l -5,0 -5,0 z m 25,5 c -1.00002,0 -3,1 -4,2 -1,1 -1,2 -1,3 l 0,45.0625 c -0.49594,-0.057 -0.98622,-0.062 -1.5,-0.062 -6.3452,0 -11.5,4.4547 -11.5,9.9688 0,5.5141 5.1548,10 11.5,10 6.33322,0 11.4495,-4.469 11.4688,-9.9688 l 0.0312,0 0,-55 c 0,-1 0.028,-2.02817 1,-3 0.9718,-0.97182 2.99997,-2 3.99997,-2 l -4.99997,0 -5,0 z"
       id="path4913"
       inkscape:connector-curvature="0"
       sodipodi:nodetypes="csscsssscsccccccsscsssssccccccsscsssccsccccc" />
    <path
       inkscape:connector-curvature="0"
       style="opacity:0.9;fill:#ff8800;fill-opacity:1;fill-rule:nonzero;stroke:#fafafa;stroke-opacity:1"
       d="m 550.2718,519.83191 c -1.00002,0 -3,1 -4,2 -1,1 -1.00001,2 -1,3 l 0,45.09375 c -0.49046,-0.0552 -0.99218,-0.0937 -1.5,-0.0937 -6.36051,0 -11.53125,4.45466 -11.53125,9.96876 0,5.5141 5.17074,10 11.53125,10 6.36051,0 11.53125,-4.4859 11.53125,-10 0,-0.1723 -0.0213,-0.3298 -0.0312,-0.5 l 0,-54.46876 c 0,-1 0.0282,-2.02817 1,-3 0.97183,-0.97182 3,-2 4,-2 l -5,0 -5,0 z m 25,5 c -1.00002,0 -3,1 -4,2 -1,1 -1.00001,2 -1,3 l 0,45.09371 c -0.49729,-0.057 -0.98482,-0.094 -1.5,-0.094 -6.36245,0 -11.53125,4.4859 -11.53125,10.0001 0,5.5141 5.1688,9.9687 11.53125,9.9687 6.36245,0 11.5,-4.4546 11.5,-9.9687 l 0,-55.00006 c 0,-1 0.0282,-2.02817 1,-3 0.97183,-0.97182 3,-2 4,-2 l -5,0 -5,0 z m 25,5 c -1.00002,0 -3,1 -4,2 -1,1 -1.00001,2 -1,3 l 0,45.06251 c -0.49594,-0.057 -0.98622,-0.062 -1.5,-0.062 -6.3452,0 -11.5,4.4546 -11.5,9.9688 0,5.5141 5.1548,9.9999 11.5,9.9999 6.33322,0 11.44939,-4.4689 11.46875,-9.9687 l 0.0312,0 0,-55.00001 c 0,-1 0.0282,-2.02817 1,-3 0.97183,-0.97182 3,-2 4,-2 l -5,0 -5,0 z"
       id="path4825" />
    <text
       xml:space="preserve"
       style="font-size:40px;font-style:normal;font-weight:normal;line-height:125%;letter-spacing:0px;word-spacing:0px;fill:#000000;fill-opacity:1;stroke:none;font-family:Sans"
       x="40.406101"
       y="937.20477"
       id="text4563"
       sodipodi:linespacing="125%"><tspan
         sodipodi:role="line"
         id="tspan4565"
         x="40.406101"
         y="937.20477">Tools</tspan></text>
    <rect
       style="opacity:0.9;fill:#ffffff;fill-opacity:1;stroke:none"
       id="rect4499"
       width="74.989136"
       height="74.989136"
       x="967.64764"
       y="-260.27966"
       transform="matrix(0,1,-1,0,0,0)" />
    <path
       sodipodi:type="star"
       style="fill:#ff8800;fill-opacity:1;stroke:none;filter:url(#filter4834)"
       id="path3877"
       sodipodi:sides="3"
       sodipodi:cx="535"
       sodipodi:cy="577.36218"
       sodipodi:r1="30"
       sodipodi:r2="15"
       sodipodi:arg1="0"
       sodipodi:arg2="1.0471976"
       inkscape:flatsided="true"
       inkscape:rounded="0"
       inkscape:randomized="0"
       d="m 565,577.36218 -45,25.98076 0,-51.96152 z"
       inkscape:transform-center-x="-7.5"
       transform="matrix(0.9760133,0,0,0.9760133,-407.76205,437.96468)" />
    <text
       xml:space="preserve"
       style="font-size:20px;font-style:normal;font-weight:normal;line-height:125%;letter-spacing:0px;word-spacing:0px;fill:#000000;fill-opacity:1;stroke:none;font-family:Sans"
       x="185"
       y="962.36218"
       id="text4636"
       sodipodi:linespacing="125%"><tspan
         sodipodi:role="line"
         id="tspan4638"
         x="185"
         y="962.36218">Ref</tspan></text>
    <text
       xml:space="preserve"
       style="font-size:20px;font-style:normal;font-weight:normal;line-height:125%;letter-spacing:0px;word-spacing:0px;fill:#000000;fill-opacity:1;stroke:none;font-family:Sans"
       x="70"
       y="962.36218"
       id="text4640"
       sodipodi:linespacing="125%"><tspan
         sodipodi:role="line"
         id="tspan4642"
         x="70"
         y="962.36218">Shadow</tspan></text>
    <path
       sodipodi:nodetypes="ccccccccccccccccccccc"
       inkscape:connector-curvature="0"
       inkscape:original-d="m 309.07777,1033.599 c -3.33333,0 -6.66667,3 -10,3 l -14.9697,-0.028 0,-30 5,0 c 1.66667,0 8.30303,-2.9718 9.9697,-2.9718 3.33333,-5.00004 6.66667,-7.00004 10,-12.00004 l 10,-15.00003 c 3.33333,-5 6.66667,-7 10,-12 3.33333,0 6.66667,-3 10,-3 l 9,0 1,0 0,-5 c -2.55742,-12.68004 11.56118,16.56118 15,20 -7.17134,4.05825 -10,10 -15,20.00003 l 0,-5 -1,0 c -3,0 -6,3 -9,3 -3.33333,5 -6.66667,7.00004 -10,12.00004 l -10,15 c -3.33333,5 -6.66667,7 -10,12 z"
       inkscape:path-effect="#path-effect4261"
       id="path4257"
       d="m 309.07777,1033.599 c -1.32744,1.1954 -2.95372,2.0472 -4.68079,2.5037 -1.72706,0.4566 -3.53282,0.4996 -5.31921,0.4963 l -14.9697,-0.028 0,-30 5,0 c 1.77888,0 3.57649,-0.046 5.29692,-0.4979 1.72042,-0.4523 3.34231,-1.2931 4.67278,-2.4739 3.94223,-3.429 7.10178,-7.65271 10,-12.00004 l 10,-15.00003 c 2.89821,-4.34732 6.05776,-8.57106 10,-12 1.33038,-1.19127 2.95661,-2.04042 4.683,-2.49717 1.72639,-0.45676 3.53121,-0.50283 5.317,-0.50283 l 9,0 1,0 0,-5 15,20 -15,20.00003 0,-5 -1,0 c -1.63205,0 -3.28526,0.0471 -4.85116,0.507 -1.56591,0.45991 -3.01954,1.31476 -4.14884,2.493 -3.94223,3.42896 -7.10178,7.65274 -10,12.00004 l -10,15 c -2.89821,4.3473 -6.05777,8.5711 -10,12 l 0,-2e-4"
       style="fill:#323232;fill-opacity:1;stroke:#ffffff;stroke-width:0.5;stroke-linecap:butt;stroke-linejoin:round;stroke-miterlimit:4;stroke-opacity:1;stroke-dasharray:none" />
    <g
       id="g4935"
       transform="translate(-375.27998,211.44292)">
      <path
         style="fill:#ff8800;fill-opacity:1;stroke:none"
         d="m 771.91696,814.70993 -0.002,-54.9994 c -2e-5,-0.5413 0.0244,-1.08991 0.19006,-1.60524 0.16566,-0.51533 0.45739,-0.984 0.80994,-1.39476 0.99698,-1.1616 2.47253,-1.89938 4,-2 -1.66666,0 -3.33332,0 -4.99998,0 -1.66667,0 -3.33333,0 -5,0 -0.39171,0 -0.78507,0.004 -1.17193,0.0658 -0.38686,0.0614 -0.76544,0.17925 -1.11415,0.35768 -0.69741,0.35686 -1.24395,0.94976 -1.71394,1.57653 -0.32381,0.43183 -0.62149,0.89125 -0.79555,1.40217 -0.17407,0.51091 -0.20444,1.05808 -0.20444,1.59783 l 10e-6,55 10.00198,-6e-4"
         id="path4928"
         inkscape:path-effect="#path-effect4932"
         inkscape:original-d="m 771.91696,814.70993 -0.002,-54.9994 c 0,-1 0.0282,-2.02817 1,-3 0.97183,-0.97182 3,-2 4,-2 0,0 -3.33332,0 -4.99998,0 -1.66666,0 -5,0 -5,0 -1.00002,0 -3.00002,1 -4.00002,2 -1,1 -1,2 -0.99999,3 l 10e-6,55 z"
         inkscape:connector-curvature="0"
         sodipodi:nodetypes="cczczccccc" />
      <path
         sodipodi:type="arc"
         style="fill:#ff8800;fill-opacity:1;fill-rule:nonzero;stroke:none"
         id="path4930"
         sodipodi:cx="895"
         sodipodi:cy="824.86218"
         sodipodi:rx="9.4949436"
         sodipodi:ry="7.6272612"
         d="m 904.49494,824.86218 c 0,4.21242 -4.25103,7.62726 -9.49494,7.62726 -5.24391,0 -9.49494,-3.41484 -9.49494,-7.62726 0,-4.21242 4.25103,-7.62726 9.49494,-7.62726 5.24391,0 9.49494,3.41484 9.49494,7.62726 z"
         transform="matrix(1.212932,0,0,1.3090144,-325.15946,-265.04959)" />
    </g>
    <path
       sodipodi:nodetypes="ccccczzzzcccczzzzzzc"
       inkscape:connector-curvature="0"
       inkscape:original-d="m 457.9666,963.45814 0,-5 15,20 -15,20 0,-5 c 0,0 -8,0 -10,0 -2,0 -2,0 -4,1 -2,1 -1,2.33333 -1,4 0,1.66666 0,3.33336 0,4.99996 0,1.6667 4.8215,3.8215 6,5 1.1785,1.1785 4,2 5,0 2,0 -11,15 -11,15 l 11,15 c 0,0 -10.1667,0 -16,0 -5.8334,0 -13.8215,-3.8215 -15,-5 -1.1785,-1.1785 -5,-3.3333 -5,-15 0,-11.6666 0,-23.33329 0,-34.99996 0,-11.66666 3.8215,-13.82149 5,-15 1.1785,-1.17851 8.3333,-5 15,-5 6.6666,0 20,0 20,0 z"
       inkscape:path-effect="#path-effect3337"
       id="path3321"
       d="m 457.9666,963.45814 0,-5 15,20 -15,20 0,-5 -10,0 c -0.70597,0 -1.41648,-0.005 -2.11198,0.11613 -0.69549,0.12116 -1.38882,0.38467 -1.88802,0.88387 -0.4992,0.4992 -0.76271,1.19253 -0.88387,1.88802 -0.12116,0.6955 -0.11613,1.40601 -0.11613,2.11198 l 0,4.99996 c 0,0.769 0.0202,1.5508 0.25944,2.2816 0.23924,0.7308 0.69612,1.3918 1.31034,1.8544 0.61423,0.4627 1.36501,0.7214 2.12681,0.8262 0.76179,0.1048 1.53495,0.066 2.30341,0.038 1.66592,-0.061 3.33408,-0.061 5,0 l -11,15 11,15 -16,0 c -2.7169,0 -5.46939,-0.088 -8.07194,-0.8679 -2.60255,-0.7799 -5.00692,-2.211 -6.92806,-4.1321 -1.92114,-1.9211 -3.35216,-4.3255 -4.13209,-6.9281 -0.77992,-2.6025 -0.86791,-5.355 -0.86791,-8.0719 l 0,-34.99996 c 0,-2.7169 0.088,-5.46939 0.86791,-8.07194 0.77993,-2.60255 2.21095,-5.00692 4.13209,-6.92806 1.92114,-1.92114 4.32551,-3.35216 6.92806,-4.13209 2.60255,-0.77992 5.35504,-0.86791 8.07194,-0.86791 l 20,0"
       style="fill:#323232;fill-opacity:1;stroke:#fafafa;stroke-width:2;stroke-linecap:butt;stroke-linejoin:round;stroke-miterlimit:4;stroke-opacity:1;stroke-dasharray:none" />
    <path
       sodipodi:type="star"
       style="opacity:0.9;fill:#fafafa;fill-opacity:1;fill-rule:nonzero;stroke:#1e1e1e;stroke-width:1.38654327;stroke-linejoin:round;stroke-miterlimit:4;stroke-opacity:1;stroke-dasharray:none"
       id="path3337"
       sodipodi:sides="3"
       sodipodi:cx="535"
       sodipodi:cy="577.36218"
       sodipodi:r1="30"
       sodipodi:r2="15"
       sodipodi:arg1="0"
       sodipodi:arg2="1.0471976"
       inkscape:flatsided="true"
       inkscape:rounded="0"
       inkscape:randomized="0"
       d="m 565,577.36218 -45,25.98076 0,-51.96152 z"
       transform="matrix(1.442436,0,0,1.442436,-390.98128,-377.45113)"
       inkscape:transform-center-x="-10.818263"
       inkscape:transform-center-y="1.8712659e-05" />
    <rect
       transform="matrix(0,1,-1,0,0,0)"
       y="-513.56348"
       x="417.8623"
       height="74.989136"
       width="74.989136"
       id="rect3339"
       style="opacity:0.9;fill:#fafafa;fill-opacity:1;stroke:#1e1e1e;stroke-width:2;stroke-linejoin:round;stroke-miterlimit:4;stroke-opacity:1;stroke-dasharray:none" />
    <path
       style="opacity:0.9;fill:#fafafa;fill-opacity:1;fill-rule:nonzero;stroke:#1e1e1e;stroke-width:1.99999988;stroke-linejoin:round;stroke-miterlimit:4;stroke-opacity:1;stroke-dasharray:none"
       d="m 158.64276,417.8725 0,74.96875 20,-11.5625 0,11.5625 64.90619,-37.5 -64.90619,-37.46875 0,11.53125 -20,-11.53125 z"
       id="path3341"
       inkscape:connector-curvature="0" />
    <g
       transform="translate(-646.07753,-129.50553)"
       id="g4187">
      <rect
         y="547.36194"
         x="904.99988"
         height="75.000923"
         width="29.997608"
         id="rect3345"
         style="opacity:0.9;fill:#fafafa;fill-opacity:1;stroke:#1e1e1e;stroke-width:2;stroke-linejoin:round;stroke-miterlimit:4;stroke-opacity:1;stroke-dasharray:none" />
      <rect
         style="opacity:0.9;fill:#fafafa;fill-opacity:1;stroke:#1e1e1e;stroke-width:2;stroke-linejoin:round;stroke-miterlimit:4;stroke-opacity:1;stroke-dasharray:none"
         id="rect3347"
         width="29.997608"
         height="75.000923"
         x="950.00378"
         y="547.36194" />
    </g>
    <path
       style="opacity:0.9;fill:#323232;fill-opacity:1;stroke:#fafafa;stroke-width:2;stroke-linejoin:round;stroke-miterlimit:4;stroke-opacity:1;stroke-dasharray:none"
       d="m 45.854812,216.73214 0,74.96875 20,-11.5625 0,11.5625 34.906198,-20.15625 0,20.1875 30.00001,0 0,-37.53125 0,-37.46875 -30.00001,0 0,20.15625 -34.906198,-20.15625 0,11.53125 -20,-11.53125 z"
       id="rect4558-9"
       inkscape:connector-curvature="0" />
    <g
       id="g4718"
       transform="translate(-1131.5788,-327.7939)">
      <path
         inkscape:connector-curvature="0"
         id="path4714"
         d="m 1177.4336,647.3566 0,74.96875 20,-11.5625 0,11.5625 34.9062,-20.15625 0,20.1875 30,0 0,-37.53125 0,-37.46875 -30,0 0,20.15625 -34.9062,-20.15625 0,11.53125 -20,-11.53125 z"
         style="fill:#ff8800;fill-opacity:1;stroke:none;filter:url(#filter4710)" />
      <path
         style="opacity:0.9;fill:#1e1e1e;fill-opacity:1;stroke:#fafafa;stroke-width:2;stroke-linejoin:round;stroke-miterlimit:4;stroke-opacity:1;stroke-dasharray:none"
         d="m 1177.4336,647.3566 0,74.96875 20,-11.5625 0,11.5625 34.9062,-20.15625 0,20.1875 30,0 0,-37.53125 0,-37.46875 -30,0 0,20.15625 -34.9062,-20.15625 0,11.53125 -20,-11.53125 z"
         id="path4716"
         inkscape:connector-curvature="0" />
    </g>
    <path
       inkscape:connector-curvature="0"
       id="path4722"
       d="m 45.8548,417.85687 0,74.96875 20,-11.5625 0,11.5625 34.9062,-20.15625 0,20.1875 30,0 0,-37.53125 0,-37.46875 -30,0 0,20.15625 -34.9062,-20.15625 0,11.53125 -20,-11.53125 z"
       style="opacity:0.9;fill:#fafafa;fill-opacity:1;stroke:#1e1e1e;stroke-width:2;stroke-linejoin:round;stroke-miterlimit:4;stroke-opacity:1;stroke-dasharray:none" />
    <g
       id="g4724"
       transform="translate(-1131.5788,-125.04009)">
      <path
         style="fill:#ff8800;fill-opacity:1;stroke:none;filter:url(#filter4710)"
         d="m 1177.4336,647.3566 0,74.96875 20,-11.5625 0,11.5625 34.9062,-20.15625 0,20.1875 30,0 0,-37.53125 0,-37.46875 -30,0 0,20.15625 -34.9062,-20.15625 0,11.53125 -20,-11.53125 z"
         id="path4726"
         inkscape:connector-curvature="0" />
      <path
         inkscape:connector-curvature="0"
         id="path4728"
         d="m 1177.4336,647.3566 0,74.96875 20,-11.5625 0,11.5625 34.9062,-20.15625 0,20.1875 30,0 0,-37.53125 0,-37.46875 -30,0 0,20.15625 -34.9062,-20.15625 0,11.53125 -20,-11.53125 z"
         style="opacity:0.8;fill:#fafafa;fill-opacity:1;stroke:#1e1e1e;stroke-width:2;stroke-linejoin:round;stroke-miterlimit:4;stroke-opacity:1;stroke-dasharray:none" />
    </g>
    <path
       inkscape:connector-curvature="0"
       id="path3393"
       d="m 68.327513,692.80835 c -0.6214,0 -1.2012,0.13664 -1.75,0.34375 l 0,-0.0312 c -9.3738,3.51408 -16.83045,10.93796 -20.40625,20.28125 -0.028,0.074 -0.0657,0.14447 -0.0937,0.21875 l 0.0312,0 c -0.2021,0.54289 -0.34375,1.13675 -0.34375,1.75 0,2.76142 2.2386,5 5,5 0.95296,0 1.84096,-0.28402 2.59375,-0.75 -1.65897,4.07244 -2.59375,8.51885 -2.59375,13.1875 0,19.33 15.67,35 35,35 19.329997,0 35.000007,-15.67 35.000007,-35 0,-4.65435 -0.91316,-9.09394 -2.5625,-13.15625 0.74836,0.44669 1.5995,0.71875 2.53125,0.71875 2.7614,0 5,-2.2386 5,-5 0,-0.6214 -0.13665,-1.2012 -0.34375,-1.75 l 0.0312,0 c -3.5141,-9.3738 -10.93796,-16.83045 -20.28126,-20.40625 -0.074,-0.028 -0.14445,-0.0657 -0.21875,-0.0937 l 0,0.0312 c -0.5429,-0.2021 -1.1367,-0.34375 -1.75,-0.34375 -2.7614,0 -5.000001,2.2386 -5.000001,5 0,0.94375 0.29228,1.81444 0.75,2.5625 -4.06231,-1.64934 -8.50189,-2.5625 -13.156246,-2.5625 -4.65436,0 -9.09394,0.91316 -13.15625,2.5625 0.45523,-0.75346 0.71875,-1.62112 0.71875,-2.5625 0,-2.76142 -2.2386,-5 -5,-5 z m 17.4375,15 c 13.807296,0 24.999997,11.19288 24.999997,25 0,13.8071 -11.192701,25 -24.999997,25 -13.807,0 -25,-11.1929 -25,-25 0,-13.80712 11.193,-25 25,-25 z m 0,5 c -1.3807,0 -4,1.6193 -4,3 l 0,17 c 0,0.17259 0.0507,0.33738 0.125,0.5 -0.006,0.4765 0.0941,0.90719 0.375,1.1875 l 9.124996,9.0937 c 0.977,0.9756 3.9611,0.2577 4.9375,-0.7187 0.9763,-0.97629 1.69605,-3.96221 0.71875,-4.9375 l -7.28125,-7.25 0,-14.875 c 0,-1.3807 -2.619196,-3 -3.999996,-3 z"
       style="opacity:0.9;fill:#323232;fill-opacity:1;fill-rule:nonzero;stroke:none" />
    <path
       inkscape:connector-curvature="0"
       id="path3395"
       d="m 264.22697,690.33973 c -4.9116,-0.014 -9.8387,0.99215 -14.4062,3.03125 -0.072,0.0325 -0.1465,0.0611 -0.2188,0.0937 -0.5185,0.23969 -1.0417,0.57293 -1.4687,1 -1.9526,1.9526 -1.9526,5.14114 0,7.09375 0.7392,0.73923 1.671,1.17085 2.625,1.34375 -12.7123,5.24532 -21.6563,17.76903 -21.6563,32.375 0,19.33 15.67,35 35,35 19.33,0 35,-15.67 35,-35 0,-14.60597 -8.944,-27.12968 -21.6562,-32.375 0.9592,-0.17835 1.8855,-0.60431 2.625,-1.34375 1.9526,-1.9526 1.9526,-5.14115 0,-7.09375 -0.4327,-0.43271 -0.9433,-0.75991 -1.4688,-1 -4.5566,-2.07172 -9.4634,-3.11103 -14.375,-3.125 z m -0.125,19.9375 c 13.8073,0 25,11.19288 25,25 0,13.8071 -11.1927,25 -25,25 -13.807,0 -25,-11.1929 -25,-25 0,-13.80712 11.193,-25 25,-25 z m -1.125,3.46875 c -11.3845,0.57708 -20.4062,10.00331 -20.4062,21.53125 0,10.75046 7.8612,19.66014 18.1562,21.28125 l -1.3125,-5.8125 c -6.6407,-2.00795 -11.4687,-8.17279 -11.4687,-15.46875 0,-8.92485 7.2314,-16.15625 16.1562,-16.15625 2.3568,0 4.5748,0.5306 6.5938,1.4375 l 3.5625,-4.28125 c -3.024,-1.61748 -6.4872,-2.53125 -10.1563,-2.53125 -0.3719,0 -0.7578,-0.0186 -1.125,0 z m 11.625,6 c -0.4001,0.0223 -0.7559,0.13092 -1,0.375 l -12.0312,12.03125 c -0.9764,0.97629 -0.2577,3.96113 0.7187,4.9375 0.9763,0.9763 3.9612,1.69506 4.9375,0.71875 l 12.0313,-12.03125 c 0.9763,-0.97629 -0.086,-3.61737 -1.0625,-4.59375 -0.7323,-0.73222 -2.3935,-1.50445 -3.5938,-1.4375 z m -10.5,2.53125 c -7.1819,0 -13,5.81814 -13,13 0,6.38216 4.5924,11.67822 10.6563,12.78125 l -1.4688,-5.09375 c -2.8093,-1.48671 -4.8437,-4.48115 -4.8437,-7.6875 0,-4.53996 4.1162,-8.65625 8.6562,-8.65625 0.2103,0 0.4169,0.014 0.625,0.0312 l 3.625,-3.625 c -1.3335,-0.46168 -2.7594,-0.75 -4.25,-0.75 z"
       style="opacity:0.9;fill:#323232;fill-opacity:1;fill-rule:nonzero;stroke:none" />
    <path
       inkscape:connector-curvature="0"
       id="path3397"
       d="m 174.92566,695.30838 c -19.33,0 -35,15.67003 -35,35 0,19.33 15.67,35 35,35 19.33,0 35,-15.67 35,-35 0,-19.32997 -15.67,-35 -35,-35 z m 0,10 c 13.8073,0 25,11.19288 25,25 0,13.8071 -11.1927,25 -25,25 -13.807,0 -25,-11.1929 -25,-25 0,-13.80712 11.193,-25 25,-25 z m 7.75,5.875 -2.6875,6.4375 c 1.8342,0.76455 3.5674,1.89197 4.9687,3.25 l 4.8438,-4.96875 c -2.046,-2.02579 -4.4727,-3.62699 -7.125,-4.71875 z m 10.6562,9.34375 -6.0312,3.375 c 0.3808,0.69143 0.6868,1.40488 0.9062,2.15625 0.368,1.02671 0.5741,2.11207 0.625,3.21875 l 6.9063,-0.3125 c -0.077,-1.69296 -0.3662,-3.3907 -0.875,-5.0625 -0.4098,-1.18537 -0.9298,-2.30902 -1.5313,-3.375 z m -19.4687,4.78125 c -0.4002,0.0223 -0.7559,0.13093 -1,0.375 l -12.0313,12.03125 c -0.9763,0.97635 -0.2575,3.96105 0.7188,4.93755 0.9763,0.9763 3.9611,1.695 4.9375,0.7187 l 12.0312,-12.03125 c 0.9763,-0.9763 -0.086,-3.61742 -1.0625,-4.59375 -0.7322,-0.73223 -2.3934,-1.50445 -3.5937,-1.4375 z m 14.5625,7.84375 c -0.4629,1.90973 -1.3055,3.78073 -2.4375,5.40625 l 5.7187,4 c 1.6575,-2.3426 2.8523,-5.01221 3.5,-7.8125 l -6.7812,-1.59375 z m -5.0625,8.31245 c -1.2366,1.0323 -2.6535,1.8111 -4.1563,2.25 -0.2898,0.1041 -0.5769,0.2033 -0.875,0.2813 l 1.625,6.75 c 0.4755,-0.1081 0.9656,-0.2314 1.4375,-0.375 2.3708,-0.8198 4.5081,-2.0597 6.375,-3.5937 l -4.4062,-5.3126 z m -14.4688,1.3126 -3.0625,6.25 c 2.5771,1.2576 5.3951,2.0154 8.2813,2.1874 l 0.4375,-6.9062 c -1.9231,-0.1296 -3.8689,-0.6568 -5.6563,-1.5312 z"
       style="opacity:0.9;fill:#323232;fill-opacity:1;stroke:none" />
    <path
       inkscape:connector-curvature="0"
       id="path4654"
       d="m 68.327513,780.68965 c -0.6214,0 -1.2012,0.13665 -1.75,0.34375 l 0,-0.0312 c -9.3738,3.51408 -16.83045,10.93795 -20.40625,20.28125 -0.028,0.074 -0.0657,0.14446 -0.0937,0.21875 l 0.0312,0 c -0.2021,0.54289 -0.34375,1.13675 -0.34375,1.75 0,2.76142 2.2386,5 5,5 0.95296,0 1.84096,-0.28403 2.59375,-0.75 -1.65897,4.07244 -2.59375,8.51885 -2.59375,13.1875 0,19.33 15.67,35 35,35 19.330007,0 35.000007,-15.67 35.000007,-35 0,-4.65436 -0.91316,-9.09394 -2.5625,-13.15625 0.74836,0.44669 1.5995,0.71875 2.53125,0.71875 2.7614,0 5,-2.23861 5,-5 0,-0.6214 -0.13665,-1.2012 -0.34375,-1.75 l 0.0312,0 c -3.5141,-9.3738 -10.93795,-16.83046 -20.28125,-20.40625 -0.074,-0.028 -0.14445,-0.0657 -0.21875,-0.0937 l 0,0.0312 c -0.5429,-0.2021 -1.1367,-0.34375 -1.75,-0.34375 -2.7614,0 -5.000002,2.2386 -5.000002,5 0,0.94375 0.29228,1.81444 0.75,2.5625 -4.06231,-1.64935 -8.501895,-2.5625 -13.156255,-2.5625 -4.65436,0 -9.09394,0.91315 -13.15625,2.5625 0.45523,-0.75347 0.71875,-1.62113 0.71875,-2.5625 0,-2.76143 -2.2386,-5 -5,-5 z m 17.4375,15 c 13.807305,0 25.000007,11.19287 25.000007,25 0,13.8071 -11.192702,25 -25.000007,25 -13.807,0 -25,-11.1929 -25,-25 0,-13.80713 11.193,-25 25,-25 z m 0,5 c -1.3807,0 -4,1.61929 -4,3 l 0,17 c 0,0.17259 0.0507,0.33739 0.125,0.5 -0.006,0.4765 0.0941,0.90719 0.375,1.1875 l 9.125,9.0937 c 0.977005,0.9756 3.961105,0.2577 4.937505,-0.7187 0.9763,-0.97628 1.69605,-3.96221 0.71875,-4.9375 l -7.281255,-7.25 0,-14.875 c 0,-1.38071 -2.6192,-3 -4,-3 z"
       style="fill:#fafafa;fill-opacity:1;fill-rule:nonzero;stroke:none" />
    <path
       inkscape:connector-curvature="0"
       id="path4656"
       d="m 264.22697,778.22103 c -4.9116,-0.014 -9.8387,0.99216 -14.4062,3.03125 -0.072,0.0325 -0.1465,0.0611 -0.2188,0.0937 -0.5185,0.23969 -1.0417,0.57294 -1.4687,1 -1.9526,1.9526 -1.9526,5.14114 0,7.09375 0.7392,0.73923 1.671,1.17085 2.625,1.34375 -12.7123,5.24532 -21.6563,17.76904 -21.6563,32.375 0,19.33001 15.67,35 35,35 19.33,0 35,-15.66999 35,-35 0,-14.60596 -8.944,-27.12968 -21.6562,-32.375 0.9592,-0.17835 1.8855,-0.60432 2.625,-1.34375 1.9526,-1.95259 1.9526,-5.14115 0,-7.09375 -0.4327,-0.43271 -0.9433,-0.75991 -1.4688,-1 -4.5566,-2.07172 -9.4634,-3.11103 -14.375,-3.125 z m -0.125,19.9375 c 13.8073,0 25,11.19287 25,25 0,13.8071 -11.1927,25 -25,25 -13.807,0 -25,-11.1929 -25,-25 0,-13.80713 11.193,-25 25,-25 z m -1.125,3.46875 c -11.3845,0.57708 -20.4062,10.00332 -20.4062,21.53125 0,10.75046 7.8612,19.66013 18.1562,21.28125 l -1.3125,-5.8125 c -6.6407,-2.00796 -11.4687,-8.17279 -11.4687,-15.46875 0,-8.92485 7.2314,-16.15625 16.1562,-16.15625 2.3568,0 4.5748,0.53061 6.5938,1.4375 l 3.5625,-4.28125 c -3.024,-1.61748 -6.4872,-2.53125 -10.1563,-2.53125 -0.3719,0 -0.7578,-0.0186 -1.125,0 z m 11.625,6 c -0.4001,0.0223 -0.7559,0.13091 -1,0.375 l -12.0312,12.03125 c -0.9764,0.97628 -0.2577,3.96113 0.7187,4.9375 0.9763,0.9763 3.9612,1.69506 4.9375,0.71875 l 12.0313,-12.03125 c 0.9763,-0.97628 -0.086,-3.61738 -1.0625,-4.59375 -0.7323,-0.73222 -2.3935,-1.50445 -3.5938,-1.4375 z m -10.5,2.53125 c -7.1819,0 -13,5.81814 -13,13 0,6.38216 4.5924,11.67822 10.6563,12.78125 l -1.4688,-5.09375 c -2.8093,-1.48671 -4.8437,-4.48114 -4.8437,-7.6875 0,-4.53995 4.1162,-8.65625 8.6562,-8.65625 0.2103,0 0.4169,0.014 0.625,0.0312 l 3.625,-3.625 c -1.3335,-0.46168 -2.7594,-0.75 -4.25,-0.75 z"
       style="fill:#fafafa;fill-opacity:1;fill-rule:nonzero;stroke:none" />
    <path
       inkscape:connector-curvature="0"
       id="path4658"
       d="m 174.92566,783.18967 c -19.33,0 -35,15.67003 -35,35 0,19.33001 15.67,35 35,35 19.33,0 35,-15.66999 35,-35 0,-19.32997 -15.67,-35 -35,-35 z m 0,10 c 13.8073,0 25,11.19287 25,25 0,13.8071 -11.1927,25 -25,25 -13.807,0 -25,-11.1929 -25,-25 0,-13.80713 11.193,-25 25,-25 z m 7.75,5.875 -2.6875,6.4375 c 1.8342,0.76455 3.5674,1.89198 4.9687,3.25 l 4.8438,-4.96875 c -2.046,-2.02579 -4.4727,-3.62698 -7.125,-4.71875 z m 10.6562,9.34375 -6.0312,3.375 c 0.3808,0.69143 0.6868,1.40489 0.9062,2.15625 0.368,1.02671 0.5741,2.11208 0.625,3.21875 l 6.9063,-0.3125 c -0.077,-1.69295 -0.3662,-3.39071 -0.875,-5.0625 -0.4098,-1.18537 -0.9298,-2.30902 -1.5313,-3.375 z m -19.4687,4.78125 c -0.4002,0.0223 -0.7559,0.13094 -1,0.375 l -12.0313,12.03125 c -0.9763,0.97636 -0.2575,3.96105 0.7188,4.93755 0.9763,0.97631 3.9611,1.69501 4.9375,0.7187 l 12.0312,-12.03125 c 0.9763,-0.9763 -0.086,-3.61743 -1.0625,-4.59375 -0.7322,-0.73222 -2.3934,-1.50445 -3.5937,-1.4375 z m 14.5625,7.84375 c -0.4629,1.90973 -1.3055,3.78072 -2.4375,5.40625 l 5.7187,4 c 1.6575,-2.34259 2.8523,-5.0122 3.5,-7.8125 l -6.7812,-1.59375 z m -5.0625,8.31246 c -1.2366,1.03229 -2.6535,1.8111 -4.1563,2.25 -0.2898,0.1041 -0.5769,0.2033 -0.875,0.28129 l 1.625,6.75 c 0.4755,-0.1081 0.9656,-0.2314 1.4375,-0.375 2.3708,-0.81979 4.5081,-2.0597 6.375,-3.5937 l -4.4062,-5.31259 z m -14.4688,1.31259 -3.0625,6.25 c 2.5771,1.2576 5.3951,2.0154 8.2813,2.18741 l 0.4375,-6.90621 c -1.9231,-0.12959 -3.8689,-0.65679 -5.6563,-1.5312 z"
       style="fill:#fafafa;fill-opacity:1;stroke:none" />
    <text
       xml:space="preserve"
       style="font-size:40px;font-style:normal;font-weight:normal;line-height:125%;letter-spacing:0px;word-spacing:0px;fill:#000000;fill-opacity:1;stroke:none;font-family:Sans"
       x="20"
       y="672.36218"
       id="text3366-0"
       sodipodi:linespacing="125%"><tspan
         sodipodi:role="line"
         id="tspan3368-6"
         x="20"
         y="672.36218">Other</tspan></text>
    <path
       inkscape:connector-curvature="0"
       id="path4981"
       d="m 414.09568,780.69905 c -15.1878,0 -27.5,12.3122 -27.5,27.5 0,15.1878 12.3122,27.5 27.5,27.5 5.8147,0 11.2141,-1.7952 15.6563,-4.875 0.3727,0.1818 0.8457,0.1231 1.1562,-0.1875 l 0.6875,-0.6875 7.0938,7.0625 -0.7188,0.7187 c -0.3917,0.3917 -0.3917,1.0146 0,1.4063 l 16.25,16.25 c 0.3918,0.3917 1.0458,0.3917 1.4375,0 l 5.6563,-5.6563 c 0.3917,-0.3916 0.3917,-1.0145 0,-1.4062 l -16.2813,-16.2812 c -0.3917,-0.3917 -1.0145,-0.3917 -1.4062,0 l -0.7188,0.7187 -7.0625,-7.0625 0.7188,-0.7188 c 0.3208,-0.3209 0.361,-0.7773 0.1562,-1.1562 3.0711,-4.4382 4.875,-9.8193 4.875,-15.625 0,-15.1878 -12.3122,-27.5 -27.5,-27.5 z m 0,10 c 9.665,0 17.5,7.835 17.5,17.5 0,9.665 -7.835,17.5 -17.5,17.5 -9.665,0 -17.5,-7.835 -17.5,-17.5 0,-9.665 7.835,-17.5 17.5,-17.5 z"
       style="fill:#fafafa;fill-opacity:1;fill-rule:nonzero;stroke:none" />
    <path
       id="path5206"
       d="m 475.05507,778.00228 c -0.7436,0 -2.2252,0.7251 -2.9687,1.4688 -0.7436,0.7436 -0.75,1.5064 -0.75,2.25 l 0,33.5312 c -0.3647,-0.041 -0.7162,-0.094 -1.0938,-0.094 -4.7295,0 -8.5937,3.3374 -8.5937,7.4376 0,4.1002 3.8642,7.4062 8.5937,7.4062 4.7295,0 8.5625,-3.306 8.5625,-7.4062 0,-0.1283 -0.024,-0.2486 -0.031,-0.375 l 0,-40.5 c 0,-0.7436 0.027,-1.5274 0.75,-2.25 0.7226,-0.7227 2.2252,-1.4688 2.9688,-1.4688 l -3.7188,0 -3.7187,0 z m 18.5938,3.7188 c -0.7436,0 -2.2252,0.7251 -2.9688,1.4687 -0.7436,0.7436 -0.75,1.5065 -0.75,2.25 l 0,33.5313 c -0.3698,-0.042 -0.7107,-0.094 -1.0937,-0.094 -4.731,0 -8.5938,3.3373 -8.5938,7.4375 0,4.1001 3.8628,7.4063 8.5938,7.4063 4.7309,0 8.5312,-3.3062 8.5312,-7.4063 l 0,-40.875 c 0,-0.7436 0.027,-1.5274 0.75,-2.25 0.7226,-0.7226 2.2252,-1.4688 2.9688,-1.4687 l -3.7188,0 -3.7187,0 z m 18.5937,3.7187 c -0.7436,0 -2.2252,0.7251 -2.9687,1.4687 -0.7436,0.7437 -0.75,1.5065 -0.75,2.25 l 0,33.5 c -0.3688,-0.042 -0.743,-0.062 -1.125,-0.062 -4.7182,0 -8.5313,3.306 -8.5313,7.4062 0,4.1001 3.8131,7.4375 8.5313,7.4375 4.7092,0 8.5169,-3.3168 8.5312,-7.4063 l 0.031,0 0,-40.875 c 0,-0.7436 0.027,-1.5273 0.75,-2.25 0.7226,-0.7227 2.2252,-1.4687 2.9688,-1.4687 l -3.7188,0 -3.7187,0 z m 9.3125,17.5625 c 0,2.9999 0,7 0,10 8,-1e-4 15,6.9999 15,15 0.013,7.9686 -7,14.9999 -15,15 l -35,0 0,-5.4062 -18,10.4062 18,10.375 0,-5.375 35,0 c 13.8071,0 25.0006,-11.1922 25,-25 0,-13.8071 -11.1937,-24.9994 -25,-25 z"
       style="fill:#fafafa;fill-opacity:1;fill-rule:nonzero;stroke:none"
       inkscape:connector-curvature="0" />
    <path
       inkscape:connector-curvature="0"
       style="fill:#fafafa;fill-opacity:1;fill-rule:nonzero;stroke:none"
       d="m 505.50881,695.317 c -1.5458,-0.0643 -3.0876,-0.0104 -4.5937,0.125 3.1328,1.46241 5.965,3.23857 8.375,5.3125 -3.1888,1.20532 -6.0233,2.84313 -8.4687,4.75 2.4698,-0.32553 5.0099,-0.26784 7.5937,0.1875 13.5973,2.39766 22.71,15.34018 20.3125,28.9375 -0.8276,4.69352 -2.9407,8.85544 -5.875,12.1875 l -2.25,-3.90625 -10.4062,17.96875 10.625,0 0.031,0.125 c 0.074,-0.0403 0.1454,-0.0838 0.2188,-0.125 l 9.9062,0 -2.9375,-5.0625 c 5.3252,-4.99364 9.166,-11.69515 10.5313,-19.4375 3.3563,-19.0363 -9.37,-37.1746 -28.4063,-40.53125 -1.5605,-0.27517 -3.1104,-0.46699 -4.6563,-0.53125 z m -28.3437,4.3125 2.9687,5.1875 c -5.3306,4.98765 -9.1343,11.66214 -10.5,19.40625 -3.3565,19.03635 9.3385,37.20573 28.375,40.5625 3.1081,0.54811 6.1873,0.67245 9.1876,0.40625 -3.1144,-1.45864 -5.9142,-3.28031 -8.3126,-5.34375 3.1885,-1.20623 6.0231,-2.84334 8.4688,-4.75 -2.4701,0.32532 -5.0099,0.29927 -7.5938,-0.15625 -13.5975,-2.39756 -22.7102,-15.40263 -20.3124,-29 0.8279,-4.6962 2.9343,-8.8291 5.875,-12.15625 l 2.2187,3.84375 10.4063,-17.96875 -10.625,-0.0312 c -0.018,0.0102 -0.043,0.0212 -0.063,0.0312 l -10.0937,-0.0312 z"
       id="path5672" />
    <path
       inkscape:connector-curvature="0"
       id="path10939"
       d="m 424.10207,692.80838 c -18.6417,0 -33.7813,15.16496 -33.7813,33.83765 0,11.08759 5.3273,20.93862 13.5626,27.10768 a 1.2812385,1.2833775 0 0 0 0.7812,0.25041 l 0.031,0 a 1.2812385,1.2833775 0 0 0 1.1252,-0.65734 l 2.5,-4.351 a 1.2812385,1.2833775 0 0 0 -0.3437,-1.62772 c -6.1529,-4.80726 -10.0937,-12.29253 -10.0937,-20.72203 0,-14.51963 11.7233,-26.26252 26.2187,-26.26252 14.4954,0 26.2187,11.74289 26.2187,26.26252 0,8.42951 -3.9407,15.91477 -10.0937,20.72203 a 1.2812385,1.2833775 0 0 0 -0.3437,1.62772 l 2.5,4.351 a 1.2812385,1.2833775 0 0 0 1.125,0.65734 l 0.031,0 a 1.2812385,1.2833775 0 0 0 0.7812,-0.25041 c 8.2354,-6.16906 13.5626,-16.02009 13.5626,-27.10768 0,-18.67269 -15.1396,-33.83765 -33.7813,-33.83765 z m -1.0937,12.52087 c -11.2389,0.57068 -20.1875,9.92674 -20.1876,21.31678 0,6.42173 2.8581,12.15525 7.3438,16.05801 a 1.2812385,1.2833775 0 0 0 1.9375,-0.31302 l 2.5625,-4.41361 a 1.2812385,1.2833775 0 0 0 -0.1875,-1.56511 c -2.5204,-2.49541 -4.0937,-5.93741 -4.0937,-9.76627 0,-7.60462 6.1268,-13.74166 13.7187,-13.74166 7.5919,0 13.7187,6.13704 13.7187,13.74166 0,3.82886 -1.5733,7.27086 -4.0937,9.76627 a 1.2812385,1.2833775 0 0 0 -0.1875,1.56511 l 2.5625,4.41361 a 1.2812385,1.2833775 0 0 0 1.9375,0.31302 c 4.4859,-3.90277 7.3438,-9.6363 7.3438,-16.05801 0,-11.75766 -9.5432,-21.31678 -21.2813,-21.31678 -0.3031,0 -0.6674,-0.0213 -1.0937,0 z m 1.0937,12.05133 c -5.1777,0 -9.375,4.20434 -9.375,9.39065 0,4.49361 3.1343,8.24826 7.3437,9.17154 l -16.8124,29.17362 a 1.7822775,1.7852529 0 0 0 1.5312,2.69199 l 34.625,0 a 1.7822775,1.7852529 0 0 0 1.5312,-2.69199 l -16.8124,-29.17362 c 4.1948,-0.93421 7.3437,-4.68831 7.3437,-9.17154 0,-5.18631 -4.1973,-9.39065 -9.375,-9.39065 z"
       style="fill:#fafafa;fill-opacity:1;fill-rule:nonzero;stroke:none" />
    <path
       sodipodi:nodetypes="cccccccccccsccccc"
       inkscape:connector-curvature="0"
       id="path11055"
       d="m 310.95857,708.17101 c -2.2909,0.0299 -4.3544,2.0337 -4.3566,4.23076 l 0,6.19817 c 0,1.10685 0.4792,2.20593 1.296,2.98797 l 30.8823,29.61527 c 0.8155,0.78323 1.9616,1.24037 3.1158,1.24278 l 4.4117,0 c 1.1542,-0.003 2.3003,-0.45955 3.1158,-1.24278 l 30.8824,-29.61527 c 0.8167,-0.78204 1.2935,-1.88112 1.296,-2.98797 l 0,-6.19817 c -0.01,-1.65743 -1.1305,-3.26108 -2.7275,-3.89499 -1.597,-0.63389 -3.5733,-0.26045 -4.8001,0.90702 l -29.5864,28.37248 -0.7721,0 -29.5864,-28.37248 c -0.8285,-0.79579 -1.9984,-1.25433 -3.1709,-1.24279 z"
       style="opacity:0.9;fill:#323232;fill-opacity:1;stroke:none" />
    <path
       sodipodi:nodetypes="cccccccccccsccccc"
       inkscape:connector-curvature="0"
       id="path11059"
       d="m 310.95857,796.05231 c -2.2909,0.0299 -4.3544,2.0337 -4.3566,4.23076 l 0,6.19817 c 0,1.10685 0.4792,2.20593 1.296,2.98797 l 30.8823,29.61527 c 0.8155,0.78323 1.9616,1.24037 3.1158,1.24278 l 4.4117,0 c 1.1542,-0.003 2.3003,-0.45955 3.1158,-1.24278 l 30.8824,-29.61527 c 0.8167,-0.78204 1.2935,-1.88112 1.296,-2.98797 l 0,-6.19817 c -0.01,-1.65743 -1.1305,-3.26108 -2.7275,-3.89499 -1.597,-0.63389 -3.5733,-0.26045 -4.8001,0.90702 l -29.5864,28.37248 -0.7721,0 -29.5864,-28.37248 c -0.8285,-0.79579 -1.9984,-1.25433 -3.1709,-1.24279 z"
       style="opacity:0.9;fill:#fafafa;fill-opacity:1;stroke:none" />
  </g>
</svg>
