<?xml version="1.0" encoding="UTF-8" standalone="no"?>
<svg
   height="48px"
   viewBox="0 -960 960 960"
   width="48px"
   fill="undefined"
   version="1.1"
   id="svg4"
   sodipodi:docname="swipe_up.svg"
   inkscape:version="1.1.2 (0a00cf5339, 2022-02-04)"
   xmlns:inkscape="http://www.inkscape.org/namespaces/inkscape"
   xmlns:sodipodi="http://sodipodi.sourceforge.net/DTD/sodipodi-0.dtd"
   xmlns="http://www.w3.org/2000/svg"
   xmlns:svg="http://www.w3.org/2000/svg">
  <defs
     id="defs8" />
  <sodipodi:namedview
     id="namedview6"
     pagecolor="#ffffff"
     bordercolor="#666666"
     borderopacity="1.0"
     inkscape:pageshadow="2"
     inkscape:pageopacity="0.0"
     inkscape:pagecheckerboard="0"
     showgrid="false"
     inkscape:zoom="18.1875"
     inkscape:cx="24"
     inkscape:cy="24"
     inkscape:window-width="2560"
     inkscape:window-height="1376"
     inkscape:window-x="0"
     inkscape:window-y="27"
     inkscape:window-maximized="1"
     inkscape:current-layer="svg4" />
  <path
     d="M189-824q-7 29-11 58.5t-4 58.5q0 61 18 116t51 102q9 11 8.5 26T241-438q-9 8-23 7t-22-13q-40-58-63-125t-23-138q0-25 2.5-50.5T120-807l-33 31q-10 10-23 10t-22-10q-10-9-9.5-22T43-821l87-88q12-12 32-12t33 12l88 88q9 10 8.5 23t-8.5 22q-10 10-22.5 10.5T238-776l-49-48Zm435 719q-23 7-45.5 6.5T534-109L260-243q-5 0-7-5.5t-2-11.5l-1 1q8-30 31.5-49.5T337-328l86-5-115-319q-5-17 .5-31t22.5-19q15-4 30 2t20 21l134 366q6 17-5 31.5T482-265l-84 5 169 81q6 4 14.5 3.5T599-179l213-77q36-12 51.5-46t3.5-72l-69-186q-3-16 2.5-30.5T821-609q16-4 30.5 2t18.5 21l68 186q24 66-5.5 128T838-185l-214 80ZM512-624q15-3 29.5 2.5T561-601l50 137q3 15-2 29.5T588-416q-16 5-30.5-1T540-439l-52-137q-4-15 1.5-29.5T512-624Zm148-12q15-4 30 2t18 21l37 99q4 16-2 31.5T721-464q-18 4-31.5-1.5T673-488l-36-98q-5-15 .5-30.5T660-636Zm8 287Z"
     id="path2"
     style="fill:#ffffff" />
</svg>
