<?xml version="1.0" encoding="UTF-8" standalone="no"?>
<svg
   xmlns:dc="http://purl.org/dc/elements/1.1/"
   xmlns:cc="http://creativecommons.org/ns#"
   xmlns:rdf="http://www.w3.org/1999/02/22-rdf-syntax-ns#"
   xmlns:svg="http://www.w3.org/2000/svg"
   xmlns="http://www.w3.org/2000/svg"
   xmlns:sodipodi="http://sodipodi.sourceforge.net/DTD/sodipodi-0.dtd"
   xmlns:inkscape="http://www.inkscape.org/namespaces/inkscape"
   width="48"
   height="48"
   id="svg4682"
   version="1.1"
   inkscape:version="1.0.2 (e86c870879, 2021-01-15)"
   sodipodi:docname="ic_abrepeat_reset_circle.svg"
   inkscape:export-filename="/home/corbax/Dev/android/Icons/Test 1/ic_play_normal.png"
   inkscape:export-xdpi="90"
   inkscape:export-ydpi="90">
  <defs
     id="defs4684" />
  <sodipodi:namedview
     id="base"
     pagecolor="#ffffff"
     bordercolor="#666666"
     borderopacity="1.0"
     inkscape:pageopacity="0.0"
     inkscape:pageshadow="2"
     inkscape:zoom="16.000001"
     inkscape:cx="27.096983"
     inkscape:cy="29.735965"
     inkscape:document-units="px"
     inkscape:current-layer="layer1"
     showgrid="true"
     inkscape:window-width="1920"
     inkscape:window-height="1043"
     inkscape:window-x="0"
     inkscape:window-y="0"
     inkscape:window-maximized="1"
     fit-margin-top="0"
     fit-margin-left="0"
     fit-margin-right="0"
     fit-margin-bottom="0"
     inkscape:snap-bbox="true"
     inkscape:bbox-paths="true"
     inkscape:bbox-nodes="true"
     inkscape:snap-bbox-edge-midpoints="true"
     inkscape:snap-bbox-midpoints="true"
     inkscape:snap-nodes="true"
     inkscape:snap-intersection-paths="true"
     inkscape:snap-smooth-nodes="true"
     inkscape:snap-midpoints="true"
     inkscape:snap-center="true"
     inkscape:snap-object-midpoints="true"
     inkscape:document-rotation="0">
    <inkscape:grid
       type="xygrid"
       id="grid3956"
       empspacing="4"
       visible="true"
       enabled="true"
       snapvisiblegridlinesonly="true"
       originx="-2"
       originy="-2.0000174" />
  </sodipodi:namedview>
  <metadata
     id="metadata4687">
    <rdf:RDF>
      <cc:Work
         rdf:about="">
        <dc:format>image/svg+xml</dc:format>
        <dc:type
           rdf:resource="http://purl.org/dc/dcmitype/StillImage" />
        <dc:title />
      </cc:Work>
    </rdf:RDF>
  </metadata>
  <g
     inkscape:label="Layer 1"
     inkscape:groupmode="layer"
     id="layer1"
     transform="translate(-2,-1002.3622)">
    <circle
       style="color:#000000;display:inline;overflow:visible;visibility:visible;opacity:1;vector-effect:none;fill:#141414;fill-opacity:0.75294119;fill-rule:nonzero;stroke:none;stroke-width:15.1181097;stroke-linecap:butt;stroke-linejoin:round;stroke-miterlimit:4;stroke-dasharray:none;stroke-dashoffset:0;stroke-opacity:1;marker:none;enable-background:accumulate"
       id="circle6215"
       cx="26"
       cy="1026.3622"
       r="24" />
    <path
       id="path2986"
       style="fill:#fafafa;fill-rule:evenodd;stroke:none;stroke-width:1px;stroke-linecap:butt;stroke-linejoin:miter;stroke-opacity:1;fill-opacity:1"
       d="m 34.97465,1011.6122 c -0.5423,0.014 -0.9747,0.4575 -0.9746,1 v 2.75 h -15 l 3,3 h 12 v 2.75 c -2e-4,0.9059 1.1078,1.3453 1.7285,0.6855 l 4,-4.25 c 0.3626,-0.3851 0.3626,-0.986 0,-1.3711 l -4,-4.25 c -0.1951,-0.2073 -0.4693,-0.3217 -0.7539,-0.3144 z m -22.9746,0.75 -2,2 5,5 v 4 c 0,0.8284 0.6716,1.5 1.5,1.5 0.8284,0 1.5,-0.6716 1.5,-1.5 v -1 l 1.4844,1.4843 v 7.5157 h 1.666 v -3.336 h 2.5 v 3.336 h 1.6641 v -1.6856 l 4.6855,4.6856 h -12 v -2.75 c 3e-4,-0.9058 -1.1079,-1.3454 -1.7285,-0.6856 l -4,4.25 c -0.3626,0.3851 -0.3626,0.986 0,1.3711 l 4,4.25 c 0.1951,0.2073 0.4693,0.3218 0.7539,0.3145 0.5423,-0.014 0.9748,-0.4575 0.9746,-1 v -2.75 h 15 l 5,5 2,-2 z m 20.8301,16.83 v -1.166 c 0,-0.92 -0.746,-1.664 -1.666,-1.664 0.92,0 1.666,-0.748 1.666,-1.668 v -1.666 c 0,-0.92 -0.7492,-1.7429 -1.666,-1.666 h -4.1641 v 2 l 1.666,1.666 v -2 h 2.4981 v 2.498 h -2 z m -11.6797,-3.6796 0.8476,0.8476 h -0.8476 z m 14.3496,2.3496 c -0.8284,0 -1.5,0.6715 -1.5,1.5 v 1 l 3,3 v -4 c 0,-0.8285 -0.6716,-1.5 -1.5,-1.5 z"
       sodipodi:nodetypes="sccccccccccscccssscccccccccccccccsscccccccscsscccccccccccccssccss" />
  </g>
</svg>
