<?xml version="1.0" encoding="UTF-8" standalone="no"?>
<!-- Created with Inkscape (http://www.inkscape.org/) -->

<svg
   xmlns:dc="http://purl.org/dc/elements/1.1/"
   xmlns:cc="http://creativecommons.org/ns#"
   xmlns:rdf="http://www.w3.org/1999/02/22-rdf-syntax-ns#"
   xmlns:svg="http://www.w3.org/2000/svg"
   xmlns="http://www.w3.org/2000/svg"
   xmlns:sodipodi="http://sodipodi.sourceforge.net/DTD/sodipodi-0.dtd"
   xmlns:inkscape="http://www.inkscape.org/namespaces/inkscape"
   width="24"
   height="24"
   id="svg4682"
   version="1.1"
   inkscape:version="0.92.3 (unknown)"
   sodipodi:docname="ic_abrepeat_seta_normal.svg"
   inkscape:export-filename="/home/corbax/Dev/android/Icons/Test 1/ic_play_normal.png"
   inkscape:export-xdpi="90"
   inkscape:export-ydpi="90">
  <defs
     id="defs4684">
    <inkscape:path-effect
       is_visible="true"
       id="path-effect6553-2"
       effect="spiro" />
  </defs>
  <sodipodi:namedview
     id="base"
     pagecolor="#ffffff"
     bordercolor="#666666"
     borderopacity="1.0"
     inkscape:pageopacity="0.0"
     inkscape:pageshadow="2"
     inkscape:zoom="15.839192"
     inkscape:cx="12.565118"
     inkscape:cy="14.841204"
     inkscape:document-units="px"
     inkscape:current-layer="layer1"
     showgrid="true"
     inkscape:window-width="960"
     inkscape:window-height="1050"
     inkscape:window-x="2880"
     inkscape:window-y="5"
     inkscape:window-maximized="0"
     inkscape:snap-bbox="true"
     inkscape:bbox-paths="true"
     inkscape:bbox-nodes="true"
     inkscape:snap-bbox-edge-midpoints="true"
     inkscape:snap-bbox-midpoints="true"
     inkscape:object-paths="true"
     inkscape:snap-intersection-paths="true"
     inkscape:object-nodes="true"
     inkscape:snap-smooth-nodes="true"
     inkscape:snap-midpoints="true"
     inkscape:snap-object-midpoints="true"
     inkscape:snap-center="true"
     inkscape:snap-text-baseline="true">
    <inkscape:grid
       type="xygrid"
       id="grid3002" />
  </sodipodi:namedview>
  <metadata
     id="metadata4687">
    <rdf:RDF>
      <cc:Work
         rdf:about="">
        <dc:format>image/svg+xml</dc:format>
        <dc:type
           rdf:resource="http://purl.org/dc/dcmitype/StillImage" />
        <dc:title></dc:title>
      </cc:Work>
    </rdf:RDF>
  </metadata>
  <g
     inkscape:label="Layer 1"
     inkscape:groupmode="layer"
     id="layer1"
     transform="translate(0,-1028.3622)">
    <g
       id="g5269"
       style="font-size:16px;font-style:normal;font-variant:normal;font-weight:normal;font-stretch:normal;line-height:125%;letter-spacing:0px;word-spacing:0px;fill:#000000;fill-opacity:1;stroke:none;font-family:Roboto;-inkscape-font-specification:Roboto"
       transform="translate(-64,740.00002)" />
    <path
       style="fill:#212121;fill-opacity:1;stroke:none"
       d="m 17,1030.3622 v 3 H 7 5 v 6 h 2 v -4 h 10 v 3 l 4,-4 z m 0,11 v 4 H 7 v -3 l -4,4 4,4 v -3 h 10 2 v -6 z"
       id="path5348"
       inkscape:connector-curvature="0" />
    <path
       style="fill:#ff8800;fill-opacity:1;fill-rule:evenodd;stroke:none;stroke-width:1px;stroke-linecap:butt;stroke-linejoin:miter;stroke-opacity:1"
       d="m 9,1037.3631 c -0.55228,0 -1,0.4477 -1,1 v 5 h 1 v -2 h 1.5 v 2 h 1 v -5 c 0,-0.5523 -0.44772,-1 -1,-1 z m 0,1 h 1.5 v 2 H 9 Z"
       id="path5350"
       inkscape:connector-curvature="0"
       sodipodi:nodetypes="ssccccccsssccccc" />
    <path
       inkscape:connector-curvature="0"
       style="color:#000000;display:inline;overflow:visible;visibility:visible;opacity:1;vector-effect:none;fill:#212121;fill-opacity:1;fill-rule:nonzero;stroke:none;stroke-width:4;stroke-linecap:butt;stroke-linejoin:round;stroke-miterlimit:4;stroke-dasharray:none;stroke-dashoffset:47.29829788;stroke-opacity:1;marker:none;enable-background:accumulate"
       d="m 13,1038.3631 v 5 h 2 c 0.13807,0 0.26903,-0.027 0.38867,-0.078 0.35892,-0.152 0.61133,-0.5078 0.61133,-0.922 v -0.5 c 0,-0.5523 -0.44772,-1 -1,-1 0.55228,0 1,-0.4477 1,-1 v -0.5 c 0,-0.1381 -0.0275,-0.2691 -0.0781,-0.3887 -0.15184,-0.3589 -0.50769,-0.6113 -0.9219,-0.6113 z m 1,1 h 1 v 1 h -1 z m 0,2 h 1 v 1 h -1 z"
       id="path5352" />
  </g>
</svg>
