<?xml version="1.0" encoding="UTF-8" standalone="no"?>
<svg
   xmlns:dc="http://purl.org/dc/elements/1.1/"
   xmlns:cc="http://creativecommons.org/ns#"
   xmlns:rdf="http://www.w3.org/1999/02/22-rdf-syntax-ns#"
   xmlns:svg="http://www.w3.org/2000/svg"
   xmlns="http://www.w3.org/2000/svg"
   xmlns:sodipodi="http://sodipodi.sourceforge.net/DTD/sodipodi-0.dtd"
   xmlns:inkscape="http://www.inkscape.org/namespaces/inkscape"
   width="24.0px"
   height="24.0px"
   viewBox="0 0 24.0 24.0"
   version="1.1"
   id="SVGRoot"
   sodipodi:docname="ic_abrepeat_reset.svg"
   inkscape:version="1.0.2 (e86c870879, 2021-01-15)">
  <defs
     id="defs832" />
  <sodipodi:namedview
     id="base"
     pagecolor="#ffffff"
     bordercolor="#666666"
     borderopacity="1.0"
     inkscape:pageopacity="0.0"
     inkscape:pageshadow="2"
     inkscape:zoom="15.839192"
     inkscape:cx="21.679064"
     inkscape:cy="15.381754"
     inkscape:document-units="px"
     inkscape:current-layer="layer1"
     inkscape:document-rotation="0"
     showgrid="true"
     inkscape:window-width="1920"
     inkscape:window-height="1043"
     inkscape:window-x="0"
     inkscape:window-y="0"
     inkscape:window-maximized="1">
    <inkscape:grid
       type="xygrid"
       id="grid1402" />
  </sodipodi:namedview>
  <metadata
     id="metadata835">
    <rdf:RDF>
      <cc:Work
         rdf:about="">
        <dc:format>image/svg+xml</dc:format>
        <dc:type
           rdf:resource="http://purl.org/dc/dcmitype/StillImage" />
        <dc:title></dc:title>
      </cc:Work>
    </rdf:RDF>
  </metadata>
  <g
     inkscape:label="Layer 1"
     inkscape:groupmode="layer"
     id="layer1">
    <path
       id="path4215"
       style="fill:#000000;stroke-width:1"
       d="M 17.4443,2.7089271 C 17.2105,2.7372271 17,2.9286571 17,3.2099071 v 1.79004 H 7.5 l 2,2 H 17 v 1.79004 c 0,0.45 0.5396,0.66961 0.8496,0.34961 l 2.7901,-2.79004 c 0.1999,-0.2 0.1999,-0.50996 0,-0.70996 l -2.7901,-2.79004 c -0.1162,-0.11625 -0.265,-0.15762 -0.4053,-0.14063 z M 14.5,16.999937 H 7 v -1.79004 c 0,-0.28125 -0.2105,-0.47228 -0.4443,-0.49804 -0.1403,-0.0155 -0.289,0.0284 -0.4053,0.14843 l -2.79,2.79004 c -0.2,0.2 -0.2,0.50996 0,0.70996 l 2.79,2.79004 c 0.31,0.31 0.8496,0.0897 0.8496,-0.36035 v -1.79004 h 9.5 l 3.25,3.25 1.25,-1.25 -18,-17.9999899 -1.25,1.25 3.25,3.25 v 2.5 c 0,0.5499999 0.45,0.9999999 1,0.9999999 0.55,0 1,-0.45 1,-0.9999999 v -0.5 l 1,0.9999999 v 4.49999 h 1 v -2 h 1.5 v 2 h 1 v -1 z m 1.5,-3.5 v -0.5 c 0,-0.55225 -0.4477,-0.99999 -1,-0.99999 0.5523,0 1,-0.4477 1,-1 V 9.9999471 c 0,-0.55226 -0.4496,-1.04615 -1,-1 h -2.5 v 1 l 1,0.9999999 V 9.9999471 H 15 v 1.4999999 h -1 z m -7,-1.99999 0.5,0.5 H 9 Z m 9,1.49999 c -0.55,0 -1,0.45 -1,1 v 0.5 l 2,2 v -2.5 c 0,-0.55 -0.45,-1 -1,-1 z"
       sodipodi:nodetypes="ssccccscssssccsscsssscccccccssscccccccccccscsscccccccccccccssccss" />
  </g>
</svg>
