<?xml version="1.0" encoding="UTF-8" standalone="no"?>
<!-- Created with Inkscape (http://www.inkscape.org/) -->

<svg
   width="48.0px"
   height="48.0px"
   viewBox="0 0 48.0 48.0"
   version="1.1"
   id="SVGRoot"
   sodipodi:docname="ic_album.svg"
   inkscape:version="1.1.2 (0a00cf5339, 2022-02-04)"
   xmlns:inkscape="http://www.inkscape.org/namespaces/inkscape"
   xmlns:sodipodi="http://sodipodi.sourceforge.net/DTD/sodipodi-0.dtd"
   xmlns="http://www.w3.org/2000/svg"
   xmlns:svg="http://www.w3.org/2000/svg">
  <sodipodi:namedview
     id="namedview10455"
     pagecolor="#ffffff"
     bordercolor="#111111"
     borderopacity="1"
     inkscape:pageshadow="0"
     inkscape:pageopacity="0"
     inkscape:pagecheckerboard="1"
     inkscape:document-units="px"
     showgrid="true"
     inkscape:zoom="10.248373"
     inkscape:cx="22.052282"
     inkscape:cy="26.052917"
     inkscape:window-width="1920"
     inkscape:window-height="1043"
     inkscape:window-x="0"
     inkscape:window-y="0"
     inkscape:window-maximized="1"
     inkscape:current-layer="layer1">
    <inkscape:grid
       type="xygrid"
       id="grid10518" />
  </sodipodi:namedview>
  <defs
     id="defs10450" />
  <g
     inkscape:label="Layer 1"
     inkscape:groupmode="layer"
     id="layer1">
    <path
       id="circle4327"
       style="color:#000000;fill:#000000;stroke-linecap:round;-inkscape-stroke:none;paint-order:markers fill stroke"
       d="M 24 6 C 14.082574 6 6 14.082574 6 24 C 6 33.917426 14.082574 42 24 42 C 33.917426 42 42 33.917426 42 24 C 42 14.082574 33.917426 6 24 6 z M 24 10 C 31.755668 10 38 16.244332 38 24 C 38 31.755668 31.755668 38 24 38 C 16.244332 38 10 31.755668 10 24 C 10 16.244332 16.244332 10 24 10 z M 24 18 C 20.709982 18 18 20.709982 18 24 C 18 27.290018 20.709982 30 24 30 C 27.290018 30 30 27.290018 30 24 C 30 20.709982 27.290018 18 24 18 z M 24 22 C 25.12826 22 26 22.87174 26 24 C 26 25.12826 25.12826 26 24 26 C 22.87174 26 22 25.12826 22 24 C 22 22.87174 22.87174 22 24 22 z " />
  </g>
</svg>
