<?xml version="1.0" encoding="UTF-8" standalone="no"?>
<!-- Created with Inkscape (http://www.inkscape.org/) -->

<svg
   width="96.0px"
   height="96.0px"
   viewBox="0 0 96.0 96.0"
   version="1.1"
   id="SVGRoot"
   sodipodi:docname="ic_album_big.svg"
   inkscape:version="1.1.2 (0a00cf5339, 2022-02-04)"
   xmlns:inkscape="http://www.inkscape.org/namespaces/inkscape"
   xmlns:sodipodi="http://sodipodi.sourceforge.net/DTD/sodipodi-0.dtd"
   xmlns="http://www.w3.org/2000/svg"
   xmlns:svg="http://www.w3.org/2000/svg">
  <sodipodi:namedview
     id="namedview10963"
     pagecolor="#ffffff"
     bordercolor="#111111"
     borderopacity="1"
     inkscape:pageshadow="0"
     inkscape:pageopacity="0"
     inkscape:pagecheckerboard="1"
     inkscape:document-units="px"
     showgrid="true"
     inkscape:zoom="5.1241863"
     inkscape:cx="65.181081"
     inkscape:cy="38.249975"
     inkscape:window-width="1920"
     inkscape:window-height="1043"
     inkscape:window-x="0"
     inkscape:window-y="0"
     inkscape:window-maximized="1"
     inkscape:current-layer="layer1">
    <inkscape:grid
       type="xygrid"
       id="grid11026" />
  </sodipodi:namedview>
  <defs
     id="defs10958" />
  <g
     inkscape:label="Layer 1"
     inkscape:groupmode="layer"
     id="layer1">
    <path
       id="circle18517"
       style="color:#000000;fill:#000000;stroke-linecap:round;-inkscape-stroke:none;paint-order:markers fill stroke"
       d="M 48 8 C 25.94413 8 8 25.94413 8 48 C 8 70.05587 25.94413 88 48 88 C 70.05587 88 88 70.05587 88 48 C 88 25.94413 70.05587 8 48 8 z M 48 14 C 66.813232 14 82 29.186768 82 48 C 82 66.813232 66.813232 82 48 82 C 29.186768 82 14 66.813232 14 48 C 14 29.186768 29.186768 14 48 14 z M 48 36 C 41.408088 36 36 41.408088 36 48 C 36 54.591912 41.408088 60 48 60 C 54.591912 60 60 54.591912 60 48 C 60 41.408088 54.591912 36 48 36 z M 48 42 C 51.349275 42 54 44.650725 54 48 C 54 51.349275 51.349275 54 48 54 C 44.650725 54 42 51.349275 42 48 C 42 44.650725 44.650725 42 48 42 z " />
  </g>
</svg>
