<?xml version="1.0" encoding="UTF-8" standalone="no"?>
<svg
   xmlns:dc="http://purl.org/dc/elements/1.1/"
   xmlns:cc="http://creativecommons.org/ns#"
   xmlns:rdf="http://www.w3.org/1999/02/22-rdf-syntax-ns#"
   xmlns:svg="http://www.w3.org/2000/svg"
   xmlns="http://www.w3.org/2000/svg"
   xmlns:sodipodi="http://sodipodi.sourceforge.net/DTD/sodipodi-0.dtd"
   xmlns:inkscape="http://www.inkscape.org/namespaces/inkscape"
   width="48.0px"
   height="48.0px"
   viewBox="0 0 48.0 48.0"
   version="1.1"
   id="SVGRoot"
   sodipodi:docname="ic_audiotips.svg"
   inkscape:version="1.0.2 (e86c870879, 2021-01-15)">
  <defs
     id="defs3622" />
  <sodipodi:namedview
     id="base"
     pagecolor="#ffffff"
     bordercolor="#666666"
     borderopacity="1.0"
     inkscape:pageopacity="0.0"
     inkscape:pageshadow="2"
     inkscape:zoom="11.2"
     inkscape:cx="25.340877"
     inkscape:cy="24.945639"
     inkscape:document-units="px"
     inkscape:current-layer="layer1"
     inkscape:document-rotation="0"
     showgrid="true"
     inkscape:window-width="1920"
     inkscape:window-height="1043"
     inkscape:window-x="0"
     inkscape:window-y="0"
     inkscape:window-maximized="1">
    <inkscape:grid
       type="xygrid"
       id="grid4192" />
  </sodipodi:namedview>
  <metadata
     id="metadata3625">
    <rdf:RDF>
      <cc:Work
         rdf:about="">
        <dc:format>image/svg+xml</dc:format>
        <dc:type
           rdf:resource="http://purl.org/dc/dcmitype/StillImage" />
        <dc:title />
      </cc:Work>
    </rdf:RDF>
  </metadata>
  <g
     inkscape:label="Layer 1"
     inkscape:groupmode="layer"
     id="layer1">
    <path
       id="path3110"
       style="color:#000000;overflow:visible;fill:#000000;fill-opacity:1;stroke:none;stroke-width:3.93043;stroke-linecap:butt;stroke-linejoin:round;stroke-miterlimit:4;stroke-dasharray:none"
       d="M 21.939453 6 A 4 4 0 0 0 18 10 L 18 14 L 18 27.072266 A 8 8 0 0 0 14 26 A 8 8 0 0 0 6 34 A 8 8 0 0 0 14 42 A 8 8 0 0 0 22 34 L 22 14 L 26.060547 14 A 4 4 0 0 0 30 10 L 30 6 L 21.939453 6 z M 38 20 L 36.666016 24.666016 L 32 26 L 36.666016 27.333984 L 38 32 L 39.333984 27.333984 L 44 26 L 39.333984 24.666016 L 38 20 z M 32 28 L 30 34 L 24 36 L 30 38 L 32 44 L 34 38 L 40 36 L 34 34 L 32 28 z M 13.939453 30 A 4 4 0 0 1 14 30 A 4 4 0 0 1 18 34 A 4 4 0 0 1 14 38 A 4 4 0 0 1 10 34 A 4 4 0 0 1 13.939453 30 z " />
  </g>
</svg>
