<?xml version="1.0" encoding="UTF-8" standalone="no"?>
<!-- Created with Inkscape (http://www.inkscape.org/) -->

<svg
   width="24"
   height="24"
   id="svg4682"
   version="1.1"
   inkscape:version="1.1.2 (0a00cf5339, 2022-02-04)"
   sodipodi:docname="ic_am_information.svg"
   inkscape:export-filename="/home/corbax/Dev/android/Icons/Test 1/ic_play_normal.png"
   inkscape:export-xdpi="90"
   inkscape:export-ydpi="90"
   xmlns:inkscape="http://www.inkscape.org/namespaces/inkscape"
   xmlns:sodipodi="http://sodipodi.sourceforge.net/DTD/sodipodi-0.dtd"
   xmlns="http://www.w3.org/2000/svg"
   xmlns:svg="http://www.w3.org/2000/svg"
   xmlns:rdf="http://www.w3.org/1999/02/22-rdf-syntax-ns#"
   xmlns:cc="http://creativecommons.org/ns#"
   xmlns:dc="http://purl.org/dc/elements/1.1/">
  <defs
     id="defs1061" />
  <sodipodi:namedview
     inkscape:zoom="22.4"
     inkscape:cx="17.098214"
     inkscape:cy="12.098214"
     inkscape:window-width="1920"
     inkscape:window-height="1043"
     inkscape:window-x="0"
     inkscape:window-y="0"
     inkscape:window-maximized="1"
     inkscape:current-layer="layer1"
     id="namedview1064"
     pagecolor="#ffffff"
     bordercolor="#111111"
     borderopacity="1"
     inkscape:pageshadow="0"
     inkscape:pageopacity="0"
     inkscape:pagecheckerboard="1">
    <inkscape:grid
       type="xygrid"
       id="grid3002"
       originx="0"
       originy="0" />
  </sodipodi:namedview>
  <metadata
     id="metadata1066">
    <rdf:RDF>
      <cc:Work
         rdf:about="">
        <dc:format>image/svg+xml</dc:format>
        <dc:type
           rdf:resource="http://purl.org/dc/dcmitype/StillImage" />
      </cc:Work>
    </rdf:RDF>
  </metadata>
  <g
     inkscape:label="Layer 1"
     inkscape:groupmode="layer"
     id="layer1"
     transform="translate(0,-1028.3622)">
    <path
       id="path852"
       style="fill:#000000;fill-opacity:1;stroke:none;stroke-width:1;stroke-linecap:round;stroke-linejoin:round;stroke-miterlimit:4;stroke-dasharray:none;stroke-dashoffset:0;stroke-opacity:1;paint-order:markers fill stroke"
       d="M 12 2 C 6.477155 2 2 6.4772 2 12 C 2 17.5229 6.477155 22 12 22 C 17.522845 22 22 17.5229 22 12 C 22 6.4772 17.522845 2 12 2 z M 12 4 C 16.41828 4 20 7.5818 20 12 C 20 16.4183 16.41828 20 12 20 C 7.58172 20 4 16.4183 4 12 C 4 7.5818 7.58172 4 12 4 z M 12 6.75 A 1.25 1.25 0 0 0 10.75 8 A 1.25 1.25 0 0 0 12 9.25 A 1.25 1.25 0 0 0 13.25 8 A 1.25 1.25 0 0 0 12 6.75 z M 12 11 C 11.446 11 11 11.446 11 12 L 11 16 C 11 16.554 11.446 17 12 17 C 12.554 17 13 16.554 13 16 L 13 12 C 13 11.446 12.554 11 12 11 z "
       transform="translate(0,1028.3622)" />
  </g>
</svg>
