<?xml version="1.0" encoding="UTF-8" standalone="no"?>
<svg
   xmlns:dc="http://purl.org/dc/elements/1.1/"
   xmlns:cc="http://creativecommons.org/ns#"
   xmlns:rdf="http://www.w3.org/1999/02/22-rdf-syntax-ns#"
   xmlns:svg="http://www.w3.org/2000/svg"
   xmlns="http://www.w3.org/2000/svg"
   xmlns:sodipodi="http://sodipodi.sourceforge.net/DTD/sodipodi-0.dtd"
   xmlns:inkscape="http://www.inkscape.org/namespaces/inkscape"
   width="48.0px"
   height="48.0px"
   viewBox="0 0 48.0 48.0"
   version="1.1"
   id="SVGRoot"
   sodipodi:docname="ic_audio_controls.svg"
   inkscape:version="1.0.2 (e86c870879, 2021-01-15)">
  <defs
     id="defs4262" />
  <sodipodi:namedview
     id="base"
     pagecolor="#ffffff"
     bordercolor="#666666"
     borderopacity="1.0"
     inkscape:pageopacity="0.0"
     inkscape:pageshadow="2"
     inkscape:zoom="7.9195959"
     inkscape:cx="51.366155"
     inkscape:cy="33.209569"
     inkscape:document-units="px"
     inkscape:current-layer="layer1"
     inkscape:document-rotation="0"
     showgrid="true"
     inkscape:window-width="1920"
     inkscape:window-height="1043"
     inkscape:window-x="0"
     inkscape:window-y="0"
     inkscape:window-maximized="1">
    <inkscape:grid
       type="xygrid"
       id="grid4832" />
  </sodipodi:namedview>
  <metadata
     id="metadata4265">
    <rdf:RDF>
      <cc:Work
         rdf:about="">
        <dc:format>image/svg+xml</dc:format>
        <dc:type
           rdf:resource="http://purl.org/dc/dcmitype/StillImage" />
        <dc:title></dc:title>
      </cc:Work>
    </rdf:RDF>
  </metadata>
  <g
     inkscape:label="Layer 1"
     inkscape:groupmode="layer"
     id="layer1">
    <path
       id="path3798"
       style="color:#000000;font-style:normal;font-variant:normal;font-weight:normal;font-stretch:normal;font-size:medium;line-height:normal;font-family:sans-serif;font-variant-ligatures:normal;font-variant-position:normal;font-variant-caps:normal;font-variant-numeric:normal;font-variant-alternates:normal;font-variant-east-asian:normal;font-feature-settings:normal;font-variation-settings:normal;text-indent:0;text-align:start;text-decoration:none;text-decoration-line:none;text-decoration-style:solid;text-decoration-color:#000000;letter-spacing:normal;word-spacing:normal;text-transform:none;writing-mode:lr-tb;direction:ltr;text-orientation:mixed;dominant-baseline:auto;baseline-shift:baseline;text-anchor:start;white-space:normal;shape-padding:0;shape-margin:0;inline-size:0;clip-rule:nonzero;display:inline;overflow:visible;visibility:visible;isolation:auto;mix-blend-mode:normal;color-interpolation:sRGB;color-interpolation-filters:linearRGB;solid-color:#000000;solid-opacity:1;vector-effect:none;fill:#000000;fill-opacity:1;fill-rule:nonzero;stroke:none;stroke-linecap:butt;stroke-linejoin:round;stroke-miterlimit:4;stroke-dasharray:none;stroke-dashoffset:0;stroke-opacity:1;color-rendering:auto;image-rendering:auto;shape-rendering:auto;text-rendering:auto;enable-background:accumulate;stop-color:#000000"
       d="M 21.939453 6 A 4 4 0 0 0 18 10 L 18 14 L 18 27.072266 A 8 8 0 0 0 14 26 A 8 8 0 0 0 6 34 A 8 8 0 0 0 14 42 A 8 8 0 0 0 22 34 L 22 14 L 26.060547 14 A 4 4 0 0 0 30 10 L 30 6 L 21.939453 6 z M 32 26 L 31.691406 28.46875 C 31.218506 28.668586 30.780153 28.931542 30.376953 29.240234 L 28.072266 28.267578 L 26.072266 31.732422 L 28.054688 33.234375 C 28.021687 33.485805 28 33.74029 28 34 C 28 34.2597 28.021687 34.514205 28.054688 34.765625 L 26.072266 36.267578 L 28.072266 39.732422 L 30.376953 38.759766 C 30.780153 39.068456 31.218506 39.33141 31.691406 39.53125 L 32 42 L 36 42 L 36.308594 39.53125 C 36.781494 39.33141 37.219847 39.068456 37.623047 38.759766 L 39.927734 39.732422 L 41.927734 36.267578 L 39.945312 34.765625 C 39.978313 34.514205 40 34.2597 40 34 C 40 33.74029 39.978313 33.485805 39.945312 33.234375 L 41.927734 31.732422 L 39.927734 28.267578 L 37.623047 29.240234 C 37.219847 28.931542 36.781494 28.668586 36.308594 28.46875 L 36 26 L 32 26 z M 13.939453 30 A 4 4 0 0 1 14 30 A 4 4 0 0 1 18 34 A 4 4 0 0 1 14 38 A 4 4 0 0 1 10 34 A 4 4 0 0 1 13.939453 30 z M 34 32 C 35.1283 32 36 32.87174 36 34 C 36 35.12825 35.1283 36 34 36 C 32.8717 36 32 35.12825 32 34 C 32 32.87174 32.8717 32 34 32 z " />
  </g>
</svg>
