<?xml version="1.0" encoding="UTF-8" standalone="no"?>
<!-- Created with Inkscape (http://www.inkscape.org/) -->

<svg
   width="48"
   height="48"
   id="svg4682"
   version="1.1"
   inkscape:version="1.1.2 (0a00cf5339, 2022-02-04)"
   sodipodi:docname="ic_am_renderer.svg"
   inkscape:export-filename="/home/corbax/Dev/android/Icons/Test 1/ic_play_normal.png"
   inkscape:export-xdpi="90"
   inkscape:export-ydpi="90"
   xmlns:inkscape="http://www.inkscape.org/namespaces/inkscape"
   xmlns:sodipodi="http://sodipodi.sourceforge.net/DTD/sodipodi-0.dtd"
   xmlns="http://www.w3.org/2000/svg"
   xmlns:svg="http://www.w3.org/2000/svg"
   xmlns:rdf="http://www.w3.org/1999/02/22-rdf-syntax-ns#"
   xmlns:cc="http://creativecommons.org/ns#"
   xmlns:dc="http://purl.org/dc/elements/1.1/">
  <defs
     id="defs4684" />
  <sodipodi:namedview
     id="base"
     pagecolor="#ffffff"
     bordercolor="#666666"
     borderopacity="1.0"
     inkscape:pageopacity="0.0"
     inkscape:pageshadow="2"
     inkscape:zoom="11.2"
     inkscape:cx="2.6785714"
     inkscape:cy="23.348214"
     inkscape:document-units="px"
     inkscape:current-layer="layer1"
     showgrid="true"
     inkscape:window-width="1920"
     inkscape:window-height="1009"
     inkscape:window-x="0"
     inkscape:window-y="0"
     inkscape:window-maximized="1"
     inkscape:snap-global="true"
     inkscape:snap-bbox="true"
     inkscape:bbox-paths="true"
     inkscape:snap-bbox-edge-midpoints="true"
     inkscape:snap-bbox-midpoints="true"
     inkscape:snap-intersection-paths="true"
     inkscape:object-paths="true"
     inkscape:object-nodes="true"
     inkscape:snap-smooth-nodes="true"
     inkscape:snap-midpoints="true"
     inkscape:snap-object-midpoints="true"
     inkscape:snap-center="true"
     inkscape:snap-to-guides="true"
     inkscape:pagecheckerboard="0">
    <inkscape:grid
       type="xygrid"
       id="grid3002" />
  </sodipodi:namedview>
  <metadata
     id="metadata4687">
    <rdf:RDF>
      <cc:Work
         rdf:about="">
        <dc:format>image/svg+xml</dc:format>
        <dc:type
           rdf:resource="http://purl.org/dc/dcmitype/StillImage" />
      </cc:Work>
    </rdf:RDF>
  </metadata>
  <g
     inkscape:label="Layer 1"
     inkscape:groupmode="layer"
     id="layer1"
     transform="translate(0,-1028.3622)">
    <path
       d="m 38,1040.3622 c 1.1,0 2,0.9 2,2 v 20 c 0,1.1 -0.9,2 -2,2 h -8 c -1.1,0 -2,0.9 -2,2 0,1.1 0.9,2 2,2 h 10 c 2.2,0 4,-1.8 4,-4 v -24 c 0,-2.2 -1.8,-4 -4,-4 H 8 c -2.2,0 -4,1.8 -4,4 v 2 c 0,1.1 0.9,2 2,2 1.1,0 2,-0.9 2,-2 v -2 z m -31.72,14.18 c -1.2,-0.2 -2.28,0.78 -2.28,2 0,0.98 0.72,1.8 1.7,1.96 4.16,0.72 7.44,4 8.16,8.16 0.16,0.98 0.98,1.7 1.96,1.7 1.22,0 2.18,-1.08 2,-2.28 -0.96,-5.92 -5.64,-10.58 -11.54,-11.54 z m -2.28,7.82 v 6 h 6 c 0,-3.32 -2.68,-6 -6,-6 z m 2.2,-15.9 c -1.18,-0.1 -2.2,0.82 -2.2,2 0,1.02 0.76,1.88 1.76,1.98 8.54,0.82 15.34,7.62 16.16,16.16 0.1,1 0.96,1.74 1.98,1.74 1.2,0 2.12,-1.04 2,-2.22 -1.06,-10.38 -9.32,-18.62 -19.7,-19.66 z"
       id="path5443"
       style="fill:#000000;stroke-width:2"
       sodipodi:nodetypes="sssssssssssssssscscsccscccccccsccscc" />
  </g>
</svg>
