<?xml version="1.0" encoding="UTF-8" standalone="no"?>
<!-- Created with Inkscape (http://www.inkscape.org/) -->

<svg
   width="48.0px"
   height="48.0px"
   viewBox="0 0 48.0 48.0"
   version="1.1"
   id="SVGRoot"
   sodipodi:docname="ic_am_addtoplaylist.svg"
   inkscape:version="1.1.2 (0a00cf5339, 2022-02-04)"
   xmlns:inkscape="http://www.inkscape.org/namespaces/inkscape"
   xmlns:sodipodi="http://sodipodi.sourceforge.net/DTD/sodipodi-0.dtd"
   xmlns="http://www.w3.org/2000/svg"
   xmlns:svg="http://www.w3.org/2000/svg">
  <sodipodi:namedview
     id="namedview7872"
     pagecolor="#ffffff"
     bordercolor="#111111"
     borderopacity="1"
     inkscape:pageshadow="0"
     inkscape:pageopacity="0"
     inkscape:pagecheckerboard="1"
     inkscape:document-units="px"
     showgrid="true"
     inkscape:zoom="5.3094837"
     inkscape:cx="-3.1076468"
     inkscape:cy="30.134757"
     inkscape:window-width="1920"
     inkscape:window-height="1043"
     inkscape:window-x="0"
     inkscape:window-y="0"
     inkscape:window-maximized="1"
     inkscape:current-layer="layer1">
    <inkscape:grid
       type="xygrid"
       id="grid7935" />
  </sodipodi:namedview>
  <defs
     id="defs7867" />
  <g
     inkscape:label="Layer 1"
     inkscape:groupmode="layer"
     id="layer1">
    <path
       d="m 25.99999,19.99998 h -20 c -1.1,0 -2,0.9 -2,2 0,1.1 0.9,2 2,2 h 20 c 1.1,0 2,-0.9 2,-2 0,-1.1 -0.9,-2 -2,-2 z m 0,-8 h -20 c -1.1,0 -2,0.9 -2,2 0,1.1 0.9,2 2,2 h 20 c 1.1,0 2,-0.9 2,-2 0,-1.1 -0.9,-2 -2,-2 z m 10,16 v -6 c 0,-1.1 -0.9,-2 -2,-2 -1.1,0 -2,0.9 -2,2 v 6 h -6 c -1.1,0 -2,0.9 -2,2 0,1.1 0.9,2 2,2 h 6 v 6 c 0,1.1 0.9,2 2,2 1.1,0 2,-0.9 2,-2 v -6 h 6 c 1.1,0 2,-0.9 2,-2 0,-1.1 -0.9,-2 -2,-2 z m -30,4 h 12 c 1.1,0 2,-0.9 2,-2 0,-1.1 -0.9,-2 -2,-2 h -12 c -1.1,0 -2,0.9 -2,2 0,1.1 0.9,2 2,2 z"
       id="path2-46"
       style="fill:#000000;stroke-width:1;fill-opacity:1;stroke:none" />
  </g>
</svg>
