<?xml version="1.0" encoding="UTF-8"?>
<svg width="24px" height="24px" viewBox="0 0 24 24" version="1.1" xmlns="http://www.w3.org/2000/svg" xmlns:xlink="http://www.w3.org/1999/xlink">
    <title>ic_abrepeat</title>
    <g id="vlc-android-audio-player-+-bookmarks" stroke="none" stroke-width="1" fill="none" fill-rule="evenodd">
        <g id="AB-repeat" transform="translate(-247.000000, -49.000000)">
            <g id="mini-player" transform="translate(0.000000, 25.000000)">
                <g id="buttons" transform="translate(207.000000, 24.000000)">
                    <g id="ic_abrepeat" transform="translate(40.000000, 0.000000)">
                        <rect id="Rectangle" x="0" y="0" width="24" height="24"></rect>
                        <path d="M17.996,12.508 C17.582,12.508 17.246,12.844 17.246,13.258 L17.246,15.504 C17.246,16.195 16.686,16.754 15.996,16.754 L7.203,16.754 L7.203,15.524 C7.203,15.062 6.672,14.82 6.346,15.147 L4,17.504 L6.353,19.858 C6.449,19.954 6.579,20.008 6.709,20.008 C7.003,20.008 7.206,19.756 7.197,19.447 L7.197,18.258 L15.996,18.258 C17.515,18.257 18.746,17.027 18.746,15.508 L18.746,13.258 C18.746,12.844 18.41,12.508 17.996,12.508 L17.996,12.508 Z M13.5,13.504 L15,13.504 L15,12.004 L13.5,12.004 L13.5,13.504 Z M13.5,11.004 L15,11.004 L15,9.504 L13.5,9.504 L13.5,11.004 Z M9,11.504 L10.5,11.504 L10.5,9.504 L9,9.504 L9,11.504 Z M12.5,8.504 L12.5,14.504 L15,14.504 C15.553,14.504 16,14.056 16,13.504 L16,12.504 C16,11.952 15.553,11.504 15,11.504 C15.553,11.504 16,11.056 16,10.504 L16,9.504 C16,8.952 15.553,8.504 15,8.504 L12.5,8.504 Z M9,8.504 C8.448,8.504 8,8.952 8,9.504 L8,14.504 L9,14.504 L9,12.504 L10.5,12.504 L10.5,14.504 L11.5,14.504 L11.5,9.504 C11.5,8.952 11.052,8.504 10.5,8.504 L9,8.504 Z M17.291,3 C16.997,3 16.794,3.252 16.803,3.561 L16.803,4.75 L8.004,4.75 C6.485,4.751 5.254,5.981 5.254,7.5 L5.254,9.75 C5.254,10.164 5.59,10.5 6.004,10.5 C6.418,10.5 6.754,10.164 6.754,9.75 L6.754,7.504 C6.754,6.814 7.313,6.254 8.004,6.254 L16.797,6.254 L16.797,7.485 C16.797,7.946 17.327,8.189 17.654,7.862 L20,5.504 L17.646,3.151 C17.552,3.053 17.421,3 17.291,3 L17.291,3 Z" fill="#000000"></path>
                    </g>
                </g>
            </g>
        </g>
    </g>
</svg>