<?xml version="1.0" encoding="UTF-8" standalone="no"?>
<svg
   xmlns:dc="http://purl.org/dc/elements/1.1/"
   xmlns:cc="http://creativecommons.org/ns#"
   xmlns:rdf="http://www.w3.org/1999/02/22-rdf-syntax-ns#"
   xmlns:svg="http://www.w3.org/2000/svg"
   xmlns="http://www.w3.org/2000/svg"
   xmlns:sodipodi="http://sodipodi.sourceforge.net/DTD/sodipodi-0.dtd"
   xmlns:inkscape="http://www.inkscape.org/namespaces/inkscape"
   width="48"
   height="48"
   viewBox="0 0 48 48"
   version="1.1"
   id="SVGRoot"
   inkscape:version="1.0.1 (c497b03c, 2020-09-10)"
   sodipodi:docname="ic_auto_rewind_10.svg">
  <defs
     id="defs2412" />
  <sodipodi:namedview
     id="base"
     pagecolor="#ffffff"
     bordercolor="#666666"
     borderopacity="1.0"
     inkscape:pageopacity="0.0"
     inkscape:pageshadow="2"
     inkscape:zoom="4.4276917"
     inkscape:cx="16.450328"
     inkscape:cy="46.492507"
     inkscape:document-units="px"
     inkscape:current-layer="layer1"
     showgrid="true"
     inkscape:window-width="1190"
     inkscape:window-height="855"
     inkscape:window-x="61"
     inkscape:window-y="23"
     inkscape:window-maximized="0"
     inkscape:grid-bbox="true"
     inkscape:snap-grids="true"
     inkscape:snap-page="true"
     inkscape:document-rotation="0">
    <inkscape:grid
       type="xygrid"
       id="grid2968"
       originx="0"
       originy="0" />
  </sodipodi:namedview>
  <metadata
     id="metadata2415">
    <rdf:RDF>
      <cc:Work
         rdf:about="">
        <dc:format>image/svg+xml</dc:format>
        <dc:type
           rdf:resource="http://purl.org/dc/dcmitype/StillImage" />
        <dc:title></dc:title>
      </cc:Work>
    </rdf:RDF>
  </metadata>
  <g
     inkscape:label="Layer 1"
     inkscape:groupmode="layer"
     id="layer1">
    <path
       style="opacity:1;fill:#000000;fill-opacity:1;stroke:none;stroke-width:3.2;stroke-linecap:round;stroke-linejoin:round;stroke-miterlimit:4;stroke-dasharray:none;stroke-dashoffset:0;stroke-opacity:1;paint-order:markers fill stroke"
       d="m 22.821875,4.8204408 c -0.324528,-0.00672 -0.638031,0.118544 -0.868751,0.3468757 l -6.8,6.7624995 c -0.471343,0.468038 -0.472708,1.230189 -0.0032,1.7 l 6.803126,6.796875 c 0.756586,0.753229 2.046534,0.217557 2.04695,-0.85 v -5.196875 a 12.8,12.8 0 0 1 12.8,12.8 12.8,12.8 0 0 1 -12.8,12.8 12.8,12.8 0 0 1 -12.8,-12.8 H 8 a 16,16 0 0 0 16,16 16,16 0 0 0 16,-16 16,16 0 0 0 -16,-16 V 6.0204408 c 4.8e-5,-0.654176 -0.524045,-1.188 -1.178125,-1.2 z m -1.225,18.3593752 -0.04374,0.01875 L 17.6,24.779816 v 2.4 l 1.6,-0.640626 v 7.040626 h 2.4 v -8 -2.4 z m 6.003125,0 c -1.9944,0 -3.6,1.6056 -3.6,3.6 v 3.2 c 0,1.9944 1.6056,3.6 3.6,3.6 1.9944,0 3.6,-1.6056 3.6,-3.6 v -3.2 c 0,-1.9944 -1.6056,-3.6 -3.6,-3.6 z m 0,2.4 c 0.6648,0 1.2,0.5352 1.2,1.2 v 3.2 c 0,0.6648 -0.5352,1.2 -1.2,1.2 -0.6648,0 -1.2,-0.5352 -1.2,-1.2 v -3.2 c 0,-0.6648 0.5352,-1.2 1.2,-1.2 z"
       id="path2737" />
  </g>
</svg>
