<?xml version="1.0" encoding="UTF-8" standalone="no"?>
<!-- Created with Inkscape (http://www.inkscape.org/) -->

<svg
   xmlns:dc="http://purl.org/dc/elements/1.1/"
   xmlns:cc="http://creativecommons.org/ns#"
   xmlns:rdf="http://www.w3.org/1999/02/22-rdf-syntax-ns#"
   xmlns:svg="http://www.w3.org/2000/svg"
   xmlns="http://www.w3.org/2000/svg"
   xmlns:sodipodi="http://sodipodi.sourceforge.net/DTD/sodipodi-0.dtd"
   xmlns:inkscape="http://www.inkscape.org/namespaces/inkscape"
   width="48px"
   height="48px"
   viewBox="0 0 48 48"
   version="1.1"
   id="SVGRoot"
   inkscape:version="0.92.5 (2060ec1f9f, 2020-04-08)"
   sodipodi:docname="ic_auto_shuffle.svg">
  <defs
     id="defs7678" />
  <sodipodi:namedview
     id="base"
     pagecolor="#ffffff"
     bordercolor="#666666"
     borderopacity="1.0"
     inkscape:pageopacity="0.0"
     inkscape:pageshadow="2"
     inkscape:zoom="8.0000004"
     inkscape:cx="-39.817344"
     inkscape:cy="25.943804"
     inkscape:document-units="px"
     inkscape:current-layer="layer1"
     showgrid="true"
     inkscape:window-width="1920"
     inkscape:window-height="1016"
     inkscape:window-x="0"
     inkscape:window-y="1107"
     inkscape:window-maximized="1"
     inkscape:grid-bbox="true"
     inkscape:snap-bbox="true"
     inkscape:bbox-paths="true"
     inkscape:snap-bbox-edge-midpoints="true"
     inkscape:bbox-nodes="true"
     inkscape:snap-bbox-midpoints="true"
     inkscape:object-paths="true"
     inkscape:snap-intersection-paths="true"
     inkscape:snap-smooth-nodes="true"
     inkscape:snap-midpoints="true"
     inkscape:snap-object-midpoints="true"
     inkscape:snap-center="true">
    <inkscape:grid
       type="xygrid"
       id="grid8234" />
  </sodipodi:namedview>
  <metadata
     id="metadata7681">
    <rdf:RDF>
      <cc:Work
         rdf:about="">
        <dc:format>image/svg+xml</dc:format>
        <dc:type
           rdf:resource="http://purl.org/dc/dcmitype/StillImage" />
        <dc:title />
      </cc:Work>
    </rdf:RDF>
  </metadata>
  <g
     inkscape:label="Layer 1"
     inkscape:groupmode="layer"
     id="layer1">
    <path
       inkscape:connector-curvature="0"
       id="path6350"
       d="M 8,4 C 5.78397,4 4,5.784 4,8 v 32 c 0,2.216 1.78397,4 4,4 h 32 c 2.21603,0 4,-1.784 4,-4 V 8 C 44,5.784 42.21603,4 40,4 Z m 6,8 h -0.004 c 0.622,8e-4 1.20814,0.291 1.58594,0.7852 l 5.57422,5.5742 -2.82813,2.8281 -5.74609,-5.7461 0.0195,-0.019 c -0.3838,-0.3752 -0.60056,-0.889 -0.60156,-1.4258 0,-1.1046 0.8954,-2 2,-2 z m 15,0 h 7 v 7 c 0.002,0.8902 -1.06044,1.3329 -1.70703,0.707 L 32.70898,18.123 15.41406,35.4141 C 15.05226,35.7761 14.5524,36 14,36 c -1.1046,0 -2,-0.8954 -2,-2 0,-0.5522 0.22394,-1.0523 0.58594,-1.4141 L 29.88086,15.2949 28.29297,13.707 C 27.66699,13.077 28.1098,12.0003 29,12 Z m 0.64062,14.8398 3.05274,3.0528 1.59961,-1.5996 C 34.92301,27.6671 35.99966,28.1098 36,29 v 7 h -7 c -0.89021,0 -1.33294,-1.0604 -0.70703,-1.707 L 29.86523,32.7207 26.8125,29.668 Z"
       style="color:#000000;display:inline;overflow:visible;visibility:visible;opacity:1;vector-effect:none;fill:#ffffff;fill-opacity:1;fill-rule:nonzero;stroke:none;stroke-width:2;stroke-linecap:round;stroke-linejoin:round;stroke-miterlimit:4;stroke-dasharray:none;stroke-dashoffset:0;stroke-opacity:1;marker:none;paint-order:normal;enable-background:accumulate"
       inkscape:export-filename="temp.png"
       inkscape:export-xdpi="300"
       inkscape:export-ydpi="300" />
  </g>
</svg>
