<?xml version="1.0" encoding="UTF-8" standalone="no"?>
<!-- Created with Inkscape (http://www.inkscape.org/) -->

<svg
   width="24"
   height="24"
   id="svg4682"
   version="1.1"
   inkscape:version="1.1.2 (0a00cf5339, 2022-02-04)"
   sodipodi:docname="ic_am_ringtone.svg"
   inkscape:export-filename="/home/corbax/Dev/android/Icons/Test 1/ic_play_normal.png"
   inkscape:export-xdpi="90"
   inkscape:export-ydpi="90"
   xmlns:inkscape="http://www.inkscape.org/namespaces/inkscape"
   xmlns:sodipodi="http://sodipodi.sourceforge.net/DTD/sodipodi-0.dtd"
   xmlns="http://www.w3.org/2000/svg"
   xmlns:svg="http://www.w3.org/2000/svg"
   xmlns:rdf="http://www.w3.org/1999/02/22-rdf-syntax-ns#"
   xmlns:cc="http://creativecommons.org/ns#"
   xmlns:dc="http://purl.org/dc/elements/1.1/">
  <defs
     id="defs4684" />
  <sodipodi:namedview
     id="base"
     pagecolor="#ffffff"
     bordercolor="#666666"
     borderopacity="1.0"
     inkscape:pageopacity="0.0"
     inkscape:pageshadow="2"
     inkscape:zoom="15.839192"
     inkscape:cx="13.731761"
     inkscape:cy="9.0913728"
     inkscape:document-units="px"
     inkscape:current-layer="layer1"
     showgrid="true"
     inkscape:window-width="1920"
     inkscape:window-height="1043"
     inkscape:window-x="0"
     inkscape:window-y="0"
     inkscape:window-maximized="1"
     inkscape:snap-bbox="true"
     inkscape:bbox-paths="true"
     inkscape:bbox-nodes="true"
     inkscape:snap-bbox-edge-midpoints="true"
     inkscape:snap-bbox-midpoints="true"
     inkscape:object-paths="true"
     inkscape:snap-intersection-paths="true"
     inkscape:object-nodes="true"
     inkscape:snap-smooth-nodes="true"
     inkscape:snap-midpoints="true"
     inkscape:snap-object-midpoints="true"
     inkscape:snap-center="true"
     inkscape:pagecheckerboard="1">
    <inkscape:grid
       type="xygrid"
       id="grid3002" />
  </sodipodi:namedview>
  <metadata
     id="metadata4687">
    <rdf:RDF>
      <cc:Work
         rdf:about="">
        <dc:format>image/svg+xml</dc:format>
        <dc:type
           rdf:resource="http://purl.org/dc/dcmitype/StillImage" />
      </cc:Work>
    </rdf:RDF>
  </metadata>
  <g
     inkscape:label="Layer 1"
     inkscape:groupmode="layer"
     id="layer1"
     transform="translate(0,-1028.3622)">
    <path
       id="path14546"
       style="fill:#000000;fill-opacity:1;stroke:none;stroke-width:3.3731;stroke-linecap:round;stroke-linejoin:round;stroke-miterlimit:4;stroke-dasharray:none;stroke-dashoffset:0;stroke-opacity:1;paint-order:markers fill stroke"
       d="M 5.0078125 3 C 3.8755325 3 2.9337662 3.9419188 3.0039062 5.0742188 C 3.5349763 13.631419 10.378576 20.464994 18.925781 20.996094 C 20.058056 21.066094 21 20.124488 21 18.992188 L 21 17.257812 C 21.01 16.245813 20.248363 15.395691 19.236328 15.275391 L 16.691406 14.984375 C 16.080176 14.914375 15.479693 15.123787 15.048828 15.554688 L 13.205078 17.398438 C 10.369373 15.955537 8.0444675 13.640622 6.6015625 10.794922 L 8.4550781 8.9414062 C 8.8859431 8.5105062 9.0955356 7.9100281 9.0253906 7.2988281 L 8.734375 4.7734375 C 8.614135 3.7613375 7.7622894 3 6.7402344 3 L 5.0078125 3 z M 19 3 A 1 1 0 0 0 18 4 L 18 8.5664062 A 2 2 0 0 0 17.5 8.5 A 2 2 0 0 0 15.5 10.5 A 2 2 0 0 0 17.5 12.5 A 2 2 0 0 0 19.5 10.5 L 19.5 4.5 L 20 4.5 A 1 1 0 0 0 21 3.5 L 21 3 L 19.5 3 L 19 3 z "
       transform="translate(0,1028.3622)" />
  </g>
</svg>
