<?xml version="1.0" encoding="UTF-8"?>
<svg width="24px" height="24px" viewBox="0 0 24 24" version="1.1" xmlns="http://www.w3.org/2000/svg" xmlns:xlink="http://www.w3.org/1999/xlink">
    <title>ic_abrepeat_reset</title>
    <g id="vlc-android-audio-player-+-bookmarks" stroke="none" stroke-width="1" fill="none" fill-rule="evenodd">
        <g id="AB-repeat" transform="translate(-247.000000, -49.000000)">
            <g id="mini-player" transform="translate(0.000000, 25.000000)">
                <g id="buttons" transform="translate(207.000000, 24.000000)">
                    <g id="ic_abrepeat_reset" transform="translate(40.000000, 0.000000)">
                        <rect id="Rectangle" x="0" y="0" width="24" height="24"></rect>
                        <path d="M17.9963,12.5085 C17.5823,12.5085 17.2463,12.8435 17.2463,13.2585 L17.2463,14.7505 L18.7503,16.2545 L18.7503,14.5045 L18.7503,13.2585 C18.7503,12.8435 18.4143,12.5085 18.0003,12.5085 L17.9963,12.5085 Z M8.9993,10.5045 L9.9993,11.5045 L8.9993,11.5045 L8.9993,10.5045 Z M12.4993,8.5045 L12.4993,10.0045 L13.5003,11.0045 L13.5003,9.5045 L15.0003,9.5045 L15.0003,11.0045 L13.5003,11.0045 L14.5003,12.0045 L15.0003,12.0045 L15.0003,12.5035 L16.0003,13.5035 L16.0003,12.5035 C16.0003,11.9515 15.5523,11.5045 15.0003,11.5045 C15.5523,11.5045 16.0003,11.0565 16.0003,10.5045 L16.0003,9.5045 C16.0003,8.9515 15.5523,8.5045 15.0003,8.5045 L12.4993,8.5045 Z M3.9993,3.5045 L2.9993,4.5045 L5.2493,6.7545 L5.2493,7.5045 L5.2493,9.7505 C5.2493,10.1645 5.5853,10.5005 5.9993,10.5005 C6.4143,10.5005 6.7493,10.1635 6.7493,9.7505 L6.7493,8.2585 L7.9993,9.5045 L7.9993,14.5035 L8.9993,14.5035 L8.9993,12.5035 L10.4993,12.5035 L10.4993,14.5035 L11.4993,14.5035 L11.4993,13.0035 L12.4993,14.0035 L12.4993,14.5035 L13.0003,14.5035 L15.2503,16.7535 L7.2033,16.7535 L7.2033,15.5235 C7.2033,15.1775 6.9043,14.9535 6.6173,15.0015 C6.5213,15.0175 6.4273,15.0655 6.3453,15.1465 L3.9993,17.5035 L6.3533,19.8575 C6.4483,19.9545 6.5793,20.0085 6.7093,20.0075 C7.0033,20.0075 7.2063,19.7565 7.1973,19.4475 L7.1973,18.2575 L16.7503,18.2575 L19.0003,20.5075 L20.0003,19.5075 L3.9993,3.5045 Z M16.7973,6.2505 L16.7973,7.4805 C16.7973,7.9425 17.3273,8.1845 17.6543,7.8575 L20.0003,5.5045 L17.6463,3.1505 C17.5513,3.0535 17.4213,2.9995 17.2913,3.00048635 C16.9963,3.00048635 16.7943,3.2515 16.8033,3.5605 L16.8033,4.7505 L7.2493,4.7505 L8.7493,6.2505 L16.7973,6.2505 Z" fill="#000000"></path>
                    </g>
                </g>
            </g>
        </g>
    </g>
</svg>