<?xml version="1.0" encoding="UTF-8" standalone="no"?><!-- Created with Inkscape (http://www.inkscape.org/) -->

<svg xmlns:dc="http://purl.org/dc/elements/1.1/" xmlns:cc="http://creativecommons.org/ns#"
        xmlns:rdf="http://www.w3.org/1999/02/22-rdf-syntax-ns#"
        xmlns:svg="http://www.w3.org/2000/svg" xmlns="http://www.w3.org/2000/svg"
        xmlns:sodipodi="http://sodipodi.sourceforge.net/DTD/sodipodi-0.dtd"
        xmlns:inkscape="http://www.inkscape.org/namespaces/inkscape" width="24" height="24"
        id="svg4682" version="1.1" inkscape:version="0.92.3 (unknown)"
        sodipodi:docname="ic_audiodelay_normal_o.svg"
        inkscape:export-filename="/home/corbax/Dev/android/Icons/Test 1/ic_play_normal.png"
        inkscape:export-xdpi="90" inkscape:export-ydpi="90">
    <defs id="defs4684" />
    <sodipodi:namedview id="base" pagecolor="#ffffff" bordercolor="#666666" borderopacity="1.0"
            inkscape:pageopacity="0.0" inkscape:pageshadow="2" inkscape:zoom="15.839192"
            inkscape:cx="13.043273" inkscape:cy="20.749633" inkscape:document-units="px"
            inkscape:current-layer="layer1" showgrid="true" inkscape:window-width="960"
            inkscape:window-height="1028" inkscape:window-x="1920" inkscape:window-y="22"
            inkscape:window-maximized="0" inkscape:snap-bbox="true" inkscape:bbox-paths="true"
            inkscape:bbox-nodes="true" inkscape:snap-bbox-edge-midpoints="true"
            inkscape:snap-bbox-midpoints="true" inkscape:object-paths="true"
            inkscape:snap-intersection-paths="true" inkscape:object-nodes="true"
            inkscape:snap-smooth-nodes="true" inkscape:snap-midpoints="true"
            inkscape:snap-object-midpoints="true" inkscape:snap-center="true"
            inkscape:snap-text-baseline="true" inkscape:snap-page="true">
        <inkscape:grid type="xygrid" id="grid3002" />
    </sodipodi:namedview>
    <metadata id="metadata4687">
        <rdf:RDF>
            <cc:Work rdf:about="">
                <dc:format>image/svg+xml</dc:format>
                <dc:type rdf:resource="http://purl.org/dc/dcmitype/StillImage" />
                <dc:title />
            </cc:Work>
        </rdf:RDF>
    </metadata>
    <g inkscape:label="Layer 1" inkscape:groupmode="layer" id="layer1"
            transform="translate(0,-1028.3622)">
        <g id="g5269"
                style="font-size:16px;font-style:normal;font-variant:normal;font-weight:normal;font-stretch:normal;line-height:125%;letter-spacing:0px;word-spacing:0px;fill:#000000;fill-opacity:1;stroke:none;font-family:Roboto;-inkscape-font-specification:Roboto"
                transform="translate(-64,740.00002)" />
        <path inkscape:connector-curvature="0"
                style="color:#000000;display:inline;overflow:visible;visibility:visible;opacity:1;fill:#ff8800;fill-opacity:1;fill-rule:nonzero;stroke:none;stroke-width:1;stroke-linecap:round;stroke-linejoin:round;stroke-miterlimit:3.70000005;stroke-dasharray:none;stroke-dashoffset:0;stroke-opacity:1;marker:none;enable-background:accumulate"
                d="m 8,1033.3622 c -1.108,0 -2,0.892 -2,2 v 2 H 4 v -2 l -3,3 3,3 v -2 h 2 v 3 c 0,1.108 0.892,2 2,2 h 3 l -0.48438,3.3789 c -0.1212,0.4908 0.4793,0.8309 0.8379,0.4746 L 15,1044.3622 h 1 c 1.108,0 2,-0.892 2,-2 v -3 h 2 v 2 l 3,-3 -3,-3 v 2 h -2 v -2 c 0,-1.108 -0.892,-2 -2,-2 z m 0,2 h 1.65039 v 1.5 H 8 Z m 3,0 h 5 v 1.5 h -5 z m -3,2.5 h 4.5 v 1.5 H 8 Z m 6,0 h 2 v 1.5 h -2 z m -6,2.5 h 3.5 v 1.5 H 8 Z m 5,0 h 3 v 1.5 h -3 z"
                id="path5685" />
    </g>
</svg>
