<?xml version="1.0" encoding="UTF-8" standalone="no"?>
<svg
   xmlns:dc="http://purl.org/dc/elements/1.1/"
   xmlns:cc="http://creativecommons.org/ns#"
   xmlns:rdf="http://www.w3.org/1999/02/22-rdf-syntax-ns#"
   xmlns:svg="http://www.w3.org/2000/svg"
   xmlns="http://www.w3.org/2000/svg"
   xmlns:sodipodi="http://sodipodi.sourceforge.net/DTD/sodipodi-0.dtd"
   xmlns:inkscape="http://www.inkscape.org/namespaces/inkscape"
   width="48px"
   height="48px"
   viewBox="0 0 48 48"
   version="1.1"
   id="SVGRoot"
   inkscape:version="1.0.2 (e86c870879, 2021-01-15)"
   sodipodi:docname="ic_auto_speed_0.80.svg">
  <defs
     id="defs7678" />
  <sodipodi:namedview
     id="base"
     pagecolor="#ffffff"
     bordercolor="#666666"
     borderopacity="1.0"
     inkscape:pageopacity="0.0"
     inkscape:pageshadow="2"
     inkscape:zoom="8.0000001"
     inkscape:cx="43.616929"
     inkscape:cy="35.268327"
     inkscape:document-units="px"
     inkscape:current-layer="layer1"
     showgrid="true"
     inkscape:window-width="1920"
     inkscape:window-height="1043"
     inkscape:window-x="0"
     inkscape:window-y="0"
     inkscape:window-maximized="1"
     inkscape:grid-bbox="true"
     inkscape:snap-bbox="true"
     inkscape:bbox-paths="true"
     inkscape:snap-bbox-edge-midpoints="true"
     inkscape:bbox-nodes="true"
     inkscape:snap-bbox-midpoints="true"
     inkscape:object-paths="true"
     inkscape:snap-intersection-paths="true"
     inkscape:snap-smooth-nodes="true"
     inkscape:snap-midpoints="true"
     inkscape:snap-object-midpoints="true"
     inkscape:snap-center="true"
     inkscape:document-rotation="0">
    <inkscape:grid
       type="xygrid"
       id="grid8234" />
  </sodipodi:namedview>
  <metadata
     id="metadata7681">
    <rdf:RDF>
      <cc:Work
         rdf:about="">
        <dc:format>image/svg+xml</dc:format>
        <dc:type
           rdf:resource="http://purl.org/dc/dcmitype/StillImage" />
        <dc:title></dc:title>
      </cc:Work>
    </rdf:RDF>
  </metadata>
  <g
     inkscape:label="Layer 1"
     inkscape:groupmode="layer"
     id="layer1">
    <path
       id="path3357"
       style="color:#000000;font-style:normal;font-variant:normal;font-weight:normal;font-stretch:normal;font-size:medium;line-height:normal;font-family:sans-serif;font-variant-ligatures:normal;font-variant-position:normal;font-variant-caps:normal;font-variant-numeric:normal;font-variant-alternates:normal;font-variant-east-asian:normal;font-feature-settings:normal;font-variation-settings:normal;text-indent:0;text-align:start;text-decoration:none;text-decoration-line:none;text-decoration-style:solid;text-decoration-color:#000000;letter-spacing:normal;word-spacing:normal;text-transform:none;writing-mode:lr-tb;direction:ltr;text-orientation:mixed;dominant-baseline:auto;baseline-shift:baseline;text-anchor:start;white-space:normal;shape-padding:0;shape-margin:0;inline-size:0;clip-rule:nonzero;display:inline;overflow:visible;visibility:visible;isolation:auto;mix-blend-mode:normal;color-interpolation:sRGB;color-interpolation-filters:linearRGB;solid-color:#000000;solid-opacity:1;vector-effect:none;fill:#000000;fill-opacity:1;fill-rule:nonzero;stroke:none;stroke-width:2;stroke-linecap:butt;stroke-linejoin:round;stroke-miterlimit:4;stroke-dasharray:none;stroke-dashoffset:0;stroke-opacity:1;color-rendering:auto;image-rendering:auto;shape-rendering:auto;text-rendering:auto;enable-background:accumulate;stop-color:#000000"
       d="M 23.900391 4 C 12.916891 4.0543 3.9999 13.01648 4 24 C 4.0002 25.52323 4.1920375 27.012869 4.5234375 28.449219 C 4.7713809 29.525882 5.8452993 30.197539 6.921875 29.949219 C 7.9985085 29.701275 8.6701577 28.627337 8.421875 27.550781 C 8.150475 26.374691 8.0002 25.18691 8 24 C 7.9999 15.17253 15.089316 8.04579 23.916016 8 C 23.942016 7.99992 23.968047 7.99992 23.998047 8 C 26.575347 8 28.988991 8.6181419 31.150391 9.7011719 C 32.137882 10.197196 33.340543 9.7983549 33.835938 8.8105469 C 34.331727 7.8225427 33.931909 6.6197095 32.943359 6.125 C 30.260159 4.78047 27.224566 4.00097 24.009766 4 C 23.974766 3.99989 23.942806 3.99989 23.908203 4 L 23.900391 4 z M 38 10 L 21.802734 20.660156 C 20.719234 21.377416 20 22.60276 20 24 C 20 26.20914 21.7909 28 24 28 C 25.3972 28 26.622544 27.280836 27.339844 26.197266 L 38 10 z M 40.039062 13.957031 C 39.743761 13.963731 39.453602 14.035781 39.189453 14.167969 C 38.20087 14.662642 37.801101 15.865485 38.296875 16.853516 C 39.379875 19.014776 40 21.42765 40 24 C 39.9998 25.18581 39.848272 26.371988 39.576172 27.548828 C 39.326551 28.625411 39.997453 29.700388 41.074219 29.949219 C 42.150821 30.198844 43.225801 29.527963 43.474609 28.451172 C 43.806509 27.015542 43.9998 25.52465 44 24 C 44 20.78289 43.218447 17.745357 41.873047 15.060547 C 41.526555 14.369041 40.812317 13.939315 40.039062 13.957031 z M 21.960938 32.460938 C 20.820313 32.460938 19.914063 32.747396 19.242188 33.320312 C 18.570313 33.893229 18.234375 34.674479 18.234375 35.664062 C 18.234375 36.216146 18.372396 36.703125 18.648438 37.125 C 18.92448 37.546875 19.304688 37.885416 19.789062 38.140625 C 19.216146 38.411458 18.773438 38.78125 18.460938 39.25 C 18.148438 39.71875 17.992188 40.257813 17.992188 40.867188 C 17.992188 41.877604 18.348958 42.679687 19.0625 43.273438 C 19.776041 43.861979 20.75 44.15625 21.984375 44.15625 C 23.213542 44.15625 24.177083 43.861979 24.875 43.273438 C 25.578125 42.684896 25.929688 41.882813 25.929688 40.867188 C 25.929688 40.23698 25.770833 39.692708 25.453125 39.234375 C 25.135416 38.770833 24.705729 38.40625 24.164062 38.140625 C 24.643229 37.885416 25.018229 37.546875 25.289062 37.125 C 25.565105 36.703125 25.703125 36.216146 25.703125 35.664062 C 25.703125 34.674479 25.367188 33.893229 24.695312 33.320312 C 24.023438 32.747396 23.11198 32.460938 21.960938 32.460938 z M 7.859375 32.46875 C 6.5989583 32.46875 5.6223958 32.885417 4.9296875 33.71875 C 4.2421875 34.552083 3.8984375 35.736979 3.8984375 37.273438 L 3.8984375 39.351562 C 3.8984375 40.877604 4.2447917 42.059896 4.9375 42.898438 C 5.6302083 43.736979 6.609375 44.15625 7.875 44.15625 C 9.1302083 44.15625 10.101562 43.739583 10.789062 42.90625 C 11.481771 42.072917 11.828125 40.888021 11.828125 39.351562 L 11.828125 37.28125 C 11.828125 35.75 11.48177 34.565104 10.789062 33.726562 C 10.096354 32.888021 9.1197917 32.46875 7.859375 32.46875 z M 31.226562 32.46875 C 29.966146 32.46875 28.989583 32.885417 28.296875 33.71875 C 27.609375 34.552083 27.265625 35.736979 27.265625 37.273438 L 27.265625 39.351562 C 27.265625 40.877604 27.61198 42.059896 28.304688 42.898438 C 28.997396 43.736979 29.976563 44.15625 31.242188 44.15625 C 32.497396 44.15625 33.46875 43.739583 34.15625 42.90625 C 34.848958 42.072917 35.195312 40.888021 35.195312 39.351562 L 35.195312 37.28125 C 35.195312 35.75 34.848958 34.565104 34.15625 33.726562 C 33.463541 32.888021 32.486979 32.46875 31.226562 32.46875 z M 21.960938 34.492188 C 22.325521 34.492188 22.598958 34.609375 22.78125 34.84375 C 22.96875 35.078125 23.0625 35.398438 23.0625 35.804688 C 23.0625 36.210938 22.971355 36.539062 22.789062 36.789062 C 22.611979 37.039062 22.34375 37.164062 21.984375 37.164062 C 21.619792 37.164062 21.34375 37.039062 21.15625 36.789062 C 20.96875 36.539062 20.875 36.210938 20.875 35.804688 C 20.875 35.39323 20.966146 35.072917 21.148438 34.84375 C 21.335938 34.609375 21.606771 34.492188 21.960938 34.492188 z M 7.859375 34.5 C 8.3229167 34.5 8.6614583 34.703125 8.875 35.109375 C 9.0885417 35.510416 9.1953125 36.119791 9.1953125 36.9375 L 9.1953125 39.75 C 9.1901042 40.567708 9.0807292 41.169271 8.8671875 41.554688 C 8.6536458 41.934896 8.3229167 42.125 7.875 42.125 C 7.4114583 42.125 7.0729167 41.929688 6.859375 41.539062 C 6.6458333 41.143229 6.5390625 40.520833 6.5390625 39.671875 L 6.5390625 36.765625 C 6.5546875 36.005208 6.6640625 35.4375 6.8671875 35.0625 C 7.0755208 34.6875 7.40625 34.5 7.859375 34.5 z M 31.226562 34.5 C 31.690105 34.5 32.028646 34.703125 32.242188 35.109375 C 32.455729 35.510416 32.5625 36.119791 32.5625 36.9375 L 32.5625 39.75 C 32.557291 40.567708 32.447916 41.169271 32.234375 41.554688 C 32.020833 41.934896 31.690104 42.125 31.242188 42.125 C 30.778646 42.125 30.440105 41.929688 30.226562 41.539062 C 30.013021 41.143229 29.90625 40.520833 29.90625 39.671875 L 29.90625 36.765625 C 29.921875 36.005208 30.03125 35.4375 30.234375 35.0625 C 30.442708 34.6875 30.773438 34.5 31.226562 34.5 z M 36.078125 35.546875 L 38.296875 39.664062 L 35.953125 44 L 38.71875 44 L 40.023438 41.5 L 41.351562 44 L 44.101562 44 L 41.765625 39.664062 L 43.992188 35.546875 L 41.257812 35.546875 L 40.03125 37.875 L 38.84375 35.546875 L 36.078125 35.546875 z M 21.96875 39.195312 C 22.364583 39.195312 22.682292 39.322916 22.921875 39.578125 C 23.166666 39.828125 23.289062 40.1875 23.289062 40.65625 C 23.289063 41.114583 23.169271 41.473958 22.929688 41.734375 C 22.690104 41.994792 22.375 42.125 21.984375 42.125 C 21.583333 42.125 21.257812 41.994792 21.007812 41.734375 C 20.763021 41.46875 20.640625 41.109375 20.640625 40.65625 C 20.640625 40.1875 20.763021 39.828125 21.007812 39.578125 C 21.252604 39.322916 21.572917 39.195312 21.96875 39.195312 z M 14.867188 41.445312 C 14.445312 41.445312 14.096354 41.570312 13.820312 41.820312 C 13.549479 42.070312 13.414063 42.385416 13.414062 42.765625 C 13.414063 43.145833 13.549479 43.460937 13.820312 43.710938 C 14.096354 43.960938 14.445312 44.085937 14.867188 44.085938 C 15.283854 44.085937 15.630209 43.963541 15.90625 43.71875 C 16.182291 43.46875 16.320312 43.151042 16.320312 42.765625 C 16.320312 42.380208 16.182291 42.065104 15.90625 41.820312 C 15.630209 41.570312 15.283854 41.445312 14.867188 41.445312 z " />
  </g>
</svg>
