<?xml version="1.0" encoding="UTF-8" standalone="no"?>
<!-- Created with Inkscape (http://www.inkscape.org/) -->

<svg
        xmlns:dc="http://purl.org/dc/elements/1.1/"
        xmlns:cc="http://creativecommons.org/ns#"
        xmlns:rdf="http://www.w3.org/1999/02/22-rdf-syntax-ns#"
        xmlns:svg="http://www.w3.org/2000/svg"
        xmlns="http://www.w3.org/2000/svg"
        xmlns:sodipodi="http://sodipodi.sourceforge.net/DTD/sodipodi-0.dtd"
        xmlns:inkscape="http://www.inkscape.org/namespaces/inkscape"
        width="24"
        height="24"
        id="svg4682"
        version="1.1"
        inkscape:version="0.92.4 (33fec40, 2019-01-16)"
        sodipodi:docname="ic_album.svg"
        inkscape:export-filename="/home/corbax/Dev/android/Icons/Test 1/ic_play_normal.png"
        inkscape:export-xdpi="90"
        inkscape:export-ydpi="90">
    <defs
            id="defs4684"/>
    <sodipodi:namedview
            id="base"
            pagecolor="#ffffff"
            bordercolor="#666666"
            borderopacity="1.0"
            inkscape:pageopacity="0.0"
            inkscape:pageshadow="2"
            inkscape:zoom="22.4"
            inkscape:cx="-3.719546"
            inkscape:cy="8.4054139"
            inkscape:document-units="px"
            inkscape:current-layer="layer1"
            showgrid="true"
            inkscape:window-width="1920"
            inkscape:window-height="1080"
            inkscape:window-x="1920"
            inkscape:window-y="0"
            inkscape:window-maximized="1">
        <inkscape:grid
                type="xygrid"
                id="grid3002"/>
    </sodipodi:namedview>
    <metadata
            id="metadata4687">
        <rdf:RDF>
            <cc:Work
                    rdf:about="">
                <dc:format>image/svg+xml</dc:format>
                <dc:type
                        rdf:resource="http://purl.org/dc/dcmitype/StillImage"/>
                <dc:title></dc:title>
            </cc:Work>
        </rdf:RDF>
    </metadata>
    <g
            inkscape:label="Layer 1"
            inkscape:groupmode="layer"
            id="layer1"
            transform="translate(0,-1028.3622)">
        <path
                inkscape:connector-curvature="0"
                style="color:#000000;display:inline;overflow:visible;visibility:visible;opacity:1;fill:#bdbdbd;fill-opacity:1;fill-rule:nonzero;stroke:none;stroke-width:0.125;stroke-linecap:round;stroke-linejoin:round;stroke-miterlimit:4;stroke-dasharray:none;stroke-dashoffset:0;stroke-opacity:1;marker:none;enable-background:accumulate"
                d="m 12,1030.3622 a 10,10 0 0 0 -10,10 10,10 0 0 0 10,10 10,10 0 0 0 10,-10 10,10 0 0 0 -10,-10 z m 0,5 a 5,5 0 0 0 -0.422362,0.023 A 5,5 0 0 1 12,1035.3622 Z m 0.422363,0.023 a 5,5 0 0 1 0.263675,0.031 5,5 0 0 0 -0.263675,-0.031 z m -1.108401,0.031 a 5,5 0 0 0 -0.231937,0.034 5,5 0 0 1 0.231937,-0.034 z m 1.604013,0.034 a 5,5 0 0 1 0.278313,0.064 5,5 0 0 0 -0.278313,-0.064 z m -2.114262,0.064 a 5,5 0 0 0 -0.192875,0.049 5,5 0 0 1 0.192875,-0.049 z m 2.58545,0.049 a 5,5 0 0 1 0.26855,0.087 5,5 0 0 0 -0.26855,-0.087 z m -3.046875,0.087 a 5,5 0 0 0 -0.224613,0.082 5,5 0 0 1 0.224613,-0.082 z m 3.540037,0.082 a 5,5 0 0 1 0.217287,0.098 5,5 0 0 0 -0.217287,-0.098 z m -3.981938,0.098 a 5,5 0 0 0 -0.231924,0.1125 5,5 0 0 1 0.231924,-0.1125 z m 4.43115,0.1125 a 5,5 0 0 1 0.205088,0.1175 5,5 0 0 0 -0.205088,-0.1175 z M 12,1035.9872 a 4.375,4.375 0 0 1 4.375,4.375 4.375,4.375 0 0 1 -4.375,4.375 4.375,4.375 0 0 1 -4.375,-4.375 4.375,4.375 0 0 1 4.375,-4.375 z m -2.536625,0.074 a 5,5 0 0 0 -0.234375,0.144 5,5 0 0 1 0.234375,-0.144 z m 5.307625,0.144 a 5,5 0 0 1 0.16845,0.1225 5,5 0 0 0 -0.16845,-0.1225 z m -5.71045,0.1225 a 5,5 0 0 0 -0.231937,0.1758 5,5 0 0 1 0.231937,-0.1758 z m 6.110838,0.1758 a 5,5 0 0 1 0.161137,0.1416 5,5 0 0 0 -0.161137,-0.1416 z m -6.503913,0.1416 a 5,5 0 0 0 -0.200187,0.1856 5,5 0 0 1 0.200187,-0.1856 z m 6.865238,0.1856 a 5,5 0 0 1 0.18555,0.2001 5,5 0 0 0 -0.18555,-0.2001 z m -7.250975,0.2001 a 5,5 0 0 0 -0.1416,0.1612 5,5 0 0 1 0.1416,-0.1612 z m 7.578125,0.1612 a 5,5 0 0 1 0.175787,0.2319 5,5 0 0 0 -0.175787,-0.2319 z m -7.895513,0.2319 a 5,5 0 0 0 -0.122,0.1685 5,5 0 0 1 0.122,-0.1685 z m 8.193363,0.1685 a 5,5 0 0 1 0.14405,0.2344 5,5 0 0 0 -0.14405,-0.2344 z m -8.4594755,0.2344 a 5,5 0 0 0 -0.117125,0.205 5,5 0 0 1 0.117125,-0.205 z m 8.7207125,0.205 a 5,5 0 0 1 0.11225,0.232 5,5 0 0 0 -0.11225,-0.232 z m -8.9502,0.232 a 5,5 0 0 0 -0.097625,0.2172 5,5 0 0 1 0.097625,-0.2172 z m 9.16015,0.2172 a 5,5 0 0 1 0.083,0.2247 5,5 0 0 0 -0.083,-0.2247 z m -9.3408125,0.2247 a 5,5 0 0 0 -0.087875,0.2684 5,5 0 0 1 0.087875,-0.2684 z m 9.5117125,0.2684 a 5,5 0 0 1 0.04887,0.1928 5,5 0 0 0 -0.04887,-0.1928 z M 12,1039.1122 a 1.25,1.25 0 0 0 -1.25,1.25 1.25,1.25 0 0 0 1.25,1.25 1.25,1.25 0 0 0 1.25,-1.25 1.25,1.25 0 0 0 -1.25,-1.25 z m -4.8486375,0.054 a 5,5 0 0 0 -0.0635,0.2784 5,5 0 0 1 0.0635,-0.2784 z m 9.7607495,0.2784 a 5,5 0 0 1 0.03413,0.2319 5,5 0 0 0 -0.03413,-0.2319 z m -9.8583995,0.2319 a 5,5 0 0 0 -0.03175,0.2636 5,5 0 0 1 0.03175,-0.2636 z m 9.9243125,0.2636 a 5,5 0 0 1 0.022,0.4224 5,5 0 0 0 -0.022,-0.4224 z M 7,1040.3622 a 5,5 0 0 0 0.022,0.4224 A 5,5 0 0 1 7,1040.3622 Z m 9.978025,0.4224 a 5,5 0 0 1 -0.03175,0.2636 5,5 0 0 0 0.03175,-0.2636 z m -9.9243125,0.2636 a 5,5 0 0 0 0.034125,0.232 5,5 0 0 1 -0.034125,-0.232 z m 9.8583995,0.232 a 5,5 0 0 1 -0.0635,0.2783 5,5 0 0 0 0.0635,-0.2783 z m -9.7607495,0.2783 a 5,5 0 0 0 0.048875,0.1928 5,5 0 0 1 -0.048875,-0.1928 z m 9.6484375,0.1928 a 5,5 0 0 1 -0.08788,0.2687 5,5 0 0 0 0.08788,-0.2687 z m -9.5117125,0.2687 a 5,5 0 0 0 0.083,0.2246 5,5 0 0 1 -0.083,-0.2246 z m 9.3408125,0.2246 a 5,5 0 0 1 -0.09763,0.2172 5,5 0 0 0 0.09763,-0.2172 z m -9.16015,0.2172 a 5,5 0 0 0 0.11225,0.2319 5,5 0 0 1 -0.11225,-0.2319 z m 8.9502,0.2319 a 5,5 0 0 1 -0.117125,0.2051 5,5 0 0 0 0.117125,-0.2051 z m -8.7207125,0.2051 a 5,5 0 0 0 0.14405,0.2344 5,5 0 0 1 -0.14405,-0.2344 z m 8.4594755,0.2344 a 5,5 0 0 1 -0.122,0.1685 5,5 0 0 0 0.122,-0.1685 z m -8.193363,0.1685 a 5,5 0 0 0 0.175788,0.2319 5,5 0 0 1 -0.175788,-0.2319 z m 7.895513,0.2319 a 5,5 0 0 1 -0.1416,0.1611 5,5 0 0 0 0.1416,-0.1611 z m -7.578125,0.1611 a 5,5 0 0 0 0.18555,0.2003 5,5 0 0 1 -0.18555,-0.2003 z m 7.250975,0.2003 a 5,5 0 0 1 -0.200188,0.1855 5,5 0 0 0 0.200188,-0.1855 z m -6.865238,0.1855 a 5,5 0 0 0 0.161138,0.1416 5,5 0 0 1 -0.161138,-0.1416 z m 6.503913,0.1416 a 5,5 0 0 1 -0.231938,0.1757 5,5 0 0 0 0.231938,-0.1757 z m -6.110838,0.1757 a 5,5 0 0 0 0.16845,0.1225 5,5 0 0 1 -0.16845,-0.1225 z m 5.71045,0.1225 a 5,5 0 0 1 -0.234375,0.144 5,5 0 0 0 0.234375,-0.144 z m -5.307625,0.144 a 5,5 0 0 0 0.205088,0.1175 5,5 0 0 1 -0.205088,-0.1175 z m 4.868162,0.1175 a 5,5 0 0 1 -0.231925,0.1125 5,5 0 0 0 0.231925,-0.1125 z m -4.431149,0.1125 a 5,5 0 0 0 0.217287,0.098 5,5 0 0 1 -0.217287,-0.098 z m 3.981937,0.098 a 5,5 0 0 1 -0.224612,0.082 5,5 0 0 0 0.224612,-0.082 z m -3.540037,0.082 a 5,5 0 0 0 0.26855,0.088 5,5 0 0 1 -0.26855,-0.088 z m 3.046875,0.088 a 5,5 0 0 1 -0.192875,0.049 5,5 0 0 0 0.192875,-0.049 z m -2.58545,0.049 a 5,5 0 0 0 0.278312,0.064 5,5 0 0 1 -0.278312,-0.064 z m 2.114262,0.064 a 5,5 0 0 1 -0.231937,0.034 5,5 0 0 0 0.231937,-0.034 z m -1.604012,0.034 a 5,5 0 0 0 0.263675,0.031 5,5 0 0 1 -0.263675,-0.031 z m 1.1084,0.031 A 5,5 0 0 1 12,1045.3618 a 5,5 0 0 0 0.422363,-0.023 z"
                id="path7266"/>
    </g>
</svg>
