<?xml version="1.0" encoding="UTF-8" standalone="no"?>
<svg
   xmlns:dc="http://purl.org/dc/elements/1.1/"
   xmlns:cc="http://creativecommons.org/ns#"
   xmlns:rdf="http://www.w3.org/1999/02/22-rdf-syntax-ns#"
   xmlns:svg="http://www.w3.org/2000/svg"
   xmlns="http://www.w3.org/2000/svg"
   xmlns:sodipodi="http://sodipodi.sourceforge.net/DTD/sodipodi-0.dtd"
   xmlns:inkscape="http://www.inkscape.org/namespaces/inkscape"
   width="48"
   height="48"
   viewBox="0 0 48 48"
   version="1.1"
   id="SVGRoot"
   inkscape:version="1.0.1 (c497b03c, 2020-09-10)"
   sodipodi:docname="ic_auto_forward.svg">
  <defs
     id="defs2412" />
  <sodipodi:namedview
     id="base"
     pagecolor="#ffffff"
     bordercolor="#666666"
     borderopacity="1.0"
     inkscape:pageopacity="0.0"
     inkscape:pageshadow="2"
     inkscape:zoom="6.1421982"
     inkscape:cx="16.319661"
     inkscape:cy="49.072829"
     inkscape:document-units="px"
     inkscape:current-layer="layer1"
     showgrid="true"
     inkscape:window-width="1214"
     inkscape:window-height="855"
     inkscape:window-x="116"
     inkscape:window-y="23"
     inkscape:window-maximized="0"
     inkscape:grid-bbox="true"
     inkscape:snap-grids="true"
     inkscape:snap-page="true"
     inkscape:document-rotation="0">
    <inkscape:grid
       type="xygrid"
       id="grid2968"
       originx="0"
       originy="0" />
  </sodipodi:namedview>
  <metadata
     id="metadata2415">
    <rdf:RDF>
      <cc:Work
         rdf:about="">
        <dc:format>image/svg+xml</dc:format>
        <dc:type
           rdf:resource="http://purl.org/dc/dcmitype/StillImage" />
        <dc:title></dc:title>
      </cc:Work>
    </rdf:RDF>
  </metadata>
  <g
     inkscape:label="Layer 1"
     inkscape:groupmode="layer"
     id="layer1">
    <path
       id="path2737"
       style="opacity:1;fill:#000000;fill-opacity:1;stroke:none;stroke-width:3.2;stroke-linecap:round;stroke-linejoin:round;stroke-miterlimit:4;stroke-dasharray:none;stroke-dashoffset:0;stroke-opacity:1;paint-order:markers fill stroke"
       d="M 25.177734,4.8203125 C 24.523654,4.8323185 23.999951,5.3653552 24,6.0195312 v 5.1601568 c -8.836555,0 -16,7.163443 -16,16 0,8.836555 7.163445,16 16,16 8.836555,0 16,-7.163447 16,-16 h -3.199219 c 0,7.069243 -5.731536,12.800781 -12.800781,12.800781 -7.069245,0 -12.800781,-5.731538 -12.800781,-12.800781 0,-7.069245 5.731536,-12.800782 12.800781,-12.800782 v 5.197266 c 4.16e-4,1.067557 1.290286,1.602839 2.046875,0.849609 l 6.802734,-6.796875 c 0.46951,-0.469812 0.469608,-1.231181 -0.002,-1.699218 L 26.046875,5.1679688 C 25.81623,4.9396297 25.502262,4.813672 25.177734,4.8203125 Z" />
  </g>
</svg>
