<?xml version="1.0" encoding="UTF-8" standalone="no"?>
<svg
   xmlns:dc="http://purl.org/dc/elements/1.1/"
   xmlns:cc="http://creativecommons.org/ns#"
   xmlns:rdf="http://www.w3.org/1999/02/22-rdf-syntax-ns#"
   xmlns:svg="http://www.w3.org/2000/svg"
   xmlns="http://www.w3.org/2000/svg"
   xmlns:sodipodi="http://sodipodi.sourceforge.net/DTD/sodipodi-0.dtd"
   xmlns:inkscape="http://www.inkscape.org/namespaces/inkscape"
   width="48px"
   height="48px"
   viewBox="0 0 48 48"
   version="1.1"
   id="SVGRoot"
   inkscape:version="1.0.2 (e86c870879, 2021-01-15)"
   sodipodi:docname="ic_auto_speed_1.00.svg">
  <defs
     id="defs7678" />
  <sodipodi:namedview
     id="base"
     pagecolor="#ffffff"
     bordercolor="#666666"
     borderopacity="1.0"
     inkscape:pageopacity="0.0"
     inkscape:pageshadow="2"
     inkscape:zoom="16"
     inkscape:cx="20.399339"
     inkscape:cy="42.266165"
     inkscape:document-units="px"
     inkscape:current-layer="layer1"
     showgrid="true"
     inkscape:window-width="1920"
     inkscape:window-height="1043"
     inkscape:window-x="0"
     inkscape:window-y="0"
     inkscape:window-maximized="1"
     inkscape:grid-bbox="true"
     inkscape:snap-bbox="true"
     inkscape:bbox-paths="true"
     inkscape:snap-bbox-edge-midpoints="true"
     inkscape:bbox-nodes="true"
     inkscape:snap-bbox-midpoints="true"
     inkscape:object-paths="true"
     inkscape:snap-intersection-paths="true"
     inkscape:snap-smooth-nodes="true"
     inkscape:snap-midpoints="true"
     inkscape:snap-object-midpoints="true"
     inkscape:snap-center="true"
     inkscape:document-rotation="0">
    <inkscape:grid
       type="xygrid"
       id="grid8234" />
  </sodipodi:namedview>
  <metadata
     id="metadata7681">
    <rdf:RDF>
      <cc:Work
         rdf:about="">
        <dc:format>image/svg+xml</dc:format>
        <dc:type
           rdf:resource="http://purl.org/dc/dcmitype/StillImage" />
        <dc:title />
      </cc:Work>
    </rdf:RDF>
  </metadata>
  <g
     inkscape:label="Layer 1"
     inkscape:groupmode="layer"
     id="layer1">
    <path
       id="path3357"
       style="color:#000000;font-style:normal;font-variant:normal;font-weight:normal;font-stretch:normal;font-size:medium;line-height:normal;font-family:sans-serif;font-variant-ligatures:normal;font-variant-position:normal;font-variant-caps:normal;font-variant-numeric:normal;font-variant-alternates:normal;font-variant-east-asian:normal;font-feature-settings:normal;font-variation-settings:normal;text-indent:0;text-align:start;text-decoration:none;text-decoration-line:none;text-decoration-style:solid;text-decoration-color:#000000;letter-spacing:normal;word-spacing:normal;text-transform:none;writing-mode:lr-tb;direction:ltr;text-orientation:mixed;dominant-baseline:auto;baseline-shift:baseline;text-anchor:start;white-space:normal;shape-padding:0;shape-margin:0;inline-size:0;clip-rule:nonzero;display:inline;overflow:visible;visibility:visible;isolation:auto;mix-blend-mode:normal;color-interpolation:sRGB;color-interpolation-filters:linearRGB;solid-color:#000000;solid-opacity:1;vector-effect:none;fill:#000000;fill-opacity:1;fill-rule:nonzero;stroke:none;stroke-width:2;stroke-linecap:butt;stroke-linejoin:round;stroke-miterlimit:4;stroke-dasharray:none;stroke-dashoffset:0;stroke-opacity:1;color-rendering:auto;image-rendering:auto;shape-rendering:auto;text-rendering:auto;enable-background:accumulate;stop-color:#000000"
       d="M 23.900391 4 C 12.916891 4.0543 3.9999 13.01648 4 24 C 4.0002 25.52323 4.1920375 27.012869 4.5234375 28.449219 C 4.7713809 29.525882 5.8452993 30.197539 6.921875 29.949219 C 7.9985085 29.701275 8.6701577 28.627337 8.421875 27.550781 C 8.150475 26.374691 8.0002 25.18691 8 24 C 7.9999 15.17253 15.089316 8.04579 23.916016 8 C 23.942016 7.99992 23.968047 7.99992 23.998047 8 C 26.575347 8 28.988991 8.6181419 31.150391 9.7011719 C 32.137882 10.197196 33.340545 9.7983549 33.835938 8.8105469 C 34.331727 7.8225427 33.931909 6.6197095 32.943359 6.125 C 30.260159 4.78047 27.224566 4.00097 24.009766 4 C 23.974766 3.99989 23.942806 3.99989 23.908203 4 L 23.900391 4 z M 38 10 L 21.802734 20.660156 C 20.719234 21.377416 20 22.60276 20 24 C 20 26.20914 21.7909 28 24 28 C 25.3972 28 26.622544 27.280836 27.339844 26.197266 L 38 10 z M 40.039062 13.957031 C 39.743761 13.963731 39.453602 14.035781 39.189453 14.167969 C 38.20087 14.662642 37.801101 15.865485 38.296875 16.853516 C 39.379875 19.014776 40 21.42765 40 24 C 39.9998 25.18581 39.848272 26.371988 39.576172 27.548828 C 39.326551 28.625411 39.997453 29.700388 41.074219 29.949219 C 42.150821 30.198844 43.225801 29.527963 43.474609 28.451172 C 43.806509 27.015542 43.9998 25.52465 44 24 C 44 20.78289 43.218447 17.745357 41.873047 15.060547 C 41.526555 14.369041 40.812317 13.939315 40.039062 13.957031 z M 21.644531 32.460938 C 20.384117 32.460937 19.40755 32.877571 18.714844 33.710938 C 18.027346 34.544305 17.683594 35.729106 17.683594 37.265625 L 17.683594 39.34375 C 17.683594 40.869853 18.02995 42.05205 18.722656 42.890625 C 19.415362 43.729201 20.394534 44.148438 21.660156 44.148438 C 22.915361 44.148438 23.886721 43.731805 24.574219 42.898438 C 25.266925 42.065071 25.613281 40.88027 25.613281 39.34375 L 25.613281 37.273438 C 25.613281 35.742125 25.266925 34.557325 24.574219 33.71875 C 23.881513 32.880175 22.904945 32.460938 21.644531 32.460938 z M 30.910156 32.460938 C 29.649743 32.460937 28.673175 32.877571 27.980469 33.710938 C 27.292971 34.544305 26.949219 35.729106 26.949219 37.265625 L 26.949219 39.34375 C 26.949219 40.869853 27.295576 42.05205 27.988281 42.890625 C 28.680988 43.729201 29.66016 44.148438 30.925781 44.148438 C 32.180987 44.148438 33.152346 43.731805 33.839844 42.898438 C 34.53255 42.065071 34.878906 40.88027 34.878906 39.34375 L 34.878906 37.273438 C 34.878906 35.742125 34.53255 34.557325 33.839844 33.71875 C 33.147138 32.880175 32.17057 32.460938 30.910156 32.460938 z M 9.2070312 32.617188 L 4.2148438 34.34375 L 4.2148438 36.34375 L 6.8085938 35.585938 L 6.8085938 43.992188 L 9.4492188 43.992188 L 9.4492188 32.617188 L 9.2070312 32.617188 z M 21.644531 34.492188 C 22.108071 34.492188 22.446615 34.695296 22.660156 35.101562 C 22.873697 35.50262 22.980469 36.111947 22.980469 36.929688 L 22.980469 39.742188 C 22.975261 40.559929 22.865885 41.161443 22.652344 41.546875 C 22.438803 41.927098 22.108072 42.117188 21.660156 42.117188 C 21.196616 42.117188 20.858073 41.92189 20.644531 41.53125 C 20.43099 41.135401 20.324219 40.513055 20.324219 39.664062 L 20.324219 36.757812 C 20.339844 35.997365 20.449219 35.429703 20.652344 35.054688 C 20.860676 34.679673 21.191407 34.492188 21.644531 34.492188 z M 30.910156 34.492188 C 31.373697 34.492188 31.712241 34.695296 31.925781 35.101562 C 32.139323 35.50262 32.246094 36.111947 32.246094 36.929688 L 32.246094 39.742188 C 32.240885 40.559929 32.131509 41.161443 31.917969 41.546875 C 31.704427 41.927098 31.373697 42.117188 30.925781 42.117188 C 30.462241 42.117188 30.123698 41.92189 29.910156 41.53125 C 29.696616 41.135401 29.589844 40.513055 29.589844 39.664062 L 29.589844 36.757812 C 29.605469 35.997365 29.714845 35.429703 29.917969 35.054688 C 30.126301 34.679673 30.457032 34.492188 30.910156 34.492188 z M 35.761719 35.539062 L 37.980469 39.65625 L 35.636719 43.992188 L 38.402344 43.992188 L 39.707031 41.492188 L 41.035156 43.992188 L 43.785156 43.992188 L 41.449219 39.65625 L 43.675781 35.539062 L 40.941406 35.539062 L 39.714844 37.867188 L 38.527344 35.539062 L 35.761719 35.539062 z M 14.550781 41.4375 C 14.128907 41.4375 13.779947 41.56249 13.503906 41.8125 C 13.233074 42.06251 13.097656 42.377589 13.097656 42.757812 C 13.097656 43.138036 13.233074 43.453115 13.503906 43.703125 C 13.779947 43.953135 14.128907 44.078125 14.550781 44.078125 C 14.967446 44.078125 15.313802 43.95574 15.589844 43.710938 C 15.865884 43.460928 16.003906 43.143244 16.003906 42.757812 C 16.003906 42.372381 15.865884 42.057302 15.589844 41.8125 C 15.313802 41.56249 14.967446 41.4375 14.550781 41.4375 z " />
  </g>
</svg>
