<?xml version="1.0" encoding="UTF-8" standalone="no"?>
<svg
   xmlns:dc="http://purl.org/dc/elements/1.1/"
   xmlns:cc="http://creativecommons.org/ns#"
   xmlns:rdf="http://www.w3.org/1999/02/22-rdf-syntax-ns#"
   xmlns:svg="http://www.w3.org/2000/svg"
   xmlns="http://www.w3.org/2000/svg"
   xmlns:sodipodi="http://sodipodi.sourceforge.net/DTD/sodipodi-0.dtd"
   xmlns:inkscape="http://www.inkscape.org/namespaces/inkscape"
   width="48px"
   height="48px"
   viewBox="0 0 48 48"
   version="1.1"
   id="SVGRoot"
   inkscape:version="1.0.2 (e86c870879, 2021-01-15)"
   sodipodi:docname="ic_auto_speed_2.00.svg">
  <defs
     id="defs7678" />
  <sodipodi:namedview
     id="base"
     pagecolor="#ffffff"
     bordercolor="#666666"
     borderopacity="1.0"
     inkscape:pageopacity="0.0"
     inkscape:pageshadow="2"
     inkscape:zoom="5.6568543"
     inkscape:cx="33.713701"
     inkscape:cy="51.011181"
     inkscape:document-units="px"
     inkscape:current-layer="layer1"
     showgrid="true"
     inkscape:window-width="1920"
     inkscape:window-height="1043"
     inkscape:window-x="0"
     inkscape:window-y="0"
     inkscape:window-maximized="1"
     inkscape:grid-bbox="true"
     inkscape:snap-bbox="true"
     inkscape:bbox-paths="true"
     inkscape:snap-bbox-edge-midpoints="true"
     inkscape:bbox-nodes="true"
     inkscape:snap-bbox-midpoints="true"
     inkscape:object-paths="true"
     inkscape:snap-intersection-paths="true"
     inkscape:snap-smooth-nodes="true"
     inkscape:snap-midpoints="true"
     inkscape:snap-object-midpoints="true"
     inkscape:snap-center="true"
     inkscape:document-rotation="0">
    <inkscape:grid
       type="xygrid"
       id="grid8234" />
  </sodipodi:namedview>
  <metadata
     id="metadata7681">
    <rdf:RDF>
      <cc:Work
         rdf:about="">
        <dc:format>image/svg+xml</dc:format>
        <dc:type
           rdf:resource="http://purl.org/dc/dcmitype/StillImage" />
        <dc:title />
      </cc:Work>
    </rdf:RDF>
  </metadata>
  <g
     inkscape:label="Layer 1"
     inkscape:groupmode="layer"
     id="layer1">
    <path
       id="path3357"
       style="color:#000000;font-style:normal;font-variant:normal;font-weight:normal;font-stretch:normal;font-size:medium;line-height:normal;font-family:sans-serif;font-variant-ligatures:normal;font-variant-position:normal;font-variant-caps:normal;font-variant-numeric:normal;font-variant-alternates:normal;font-variant-east-asian:normal;font-feature-settings:normal;font-variation-settings:normal;text-indent:0;text-align:start;text-decoration:none;text-decoration-line:none;text-decoration-style:solid;text-decoration-color:#000000;letter-spacing:normal;word-spacing:normal;text-transform:none;writing-mode:lr-tb;direction:ltr;text-orientation:mixed;dominant-baseline:auto;baseline-shift:baseline;text-anchor:start;white-space:normal;shape-padding:0;shape-margin:0;inline-size:0;clip-rule:nonzero;display:inline;overflow:visible;visibility:visible;isolation:auto;mix-blend-mode:normal;color-interpolation:sRGB;color-interpolation-filters:linearRGB;solid-color:#000000;solid-opacity:1;vector-effect:none;fill:#000000;fill-opacity:1;fill-rule:nonzero;stroke:none;stroke-width:2;stroke-linecap:butt;stroke-linejoin:round;stroke-miterlimit:4;stroke-dasharray:none;stroke-dashoffset:0;stroke-opacity:1;color-rendering:auto;image-rendering:auto;shape-rendering:auto;text-rendering:auto;enable-background:accumulate;stop-color:#000000"
       d="M 23.900391 4 C 12.916891 4.0543 3.9999 13.01648 4 24 C 4.0002 25.52323 4.1920375 27.012869 4.5234375 28.449219 C 4.7713809 29.525882 5.8452993 30.197539 6.921875 29.949219 C 7.9985085 29.701275 8.6701577 28.627337 8.421875 27.550781 C 8.150475 26.374691 8.0002 25.18691 8 24 C 7.9999 15.17253 15.089316 8.04579 23.916016 8 C 23.942016 7.99992 23.968047 7.99992 23.998047 8 C 26.575347 8 28.988991 8.6181419 31.150391 9.7011719 C 32.137882 10.197196 33.340545 9.7983549 33.835938 8.8105469 C 34.331727 7.8225427 33.931909 6.6197095 32.943359 6.125 C 30.260159 4.78047 27.224566 4.00097 24.009766 4 C 23.974766 3.99989 23.942806 3.99989 23.908203 4 L 23.900391 4 z M 38 10 L 21.802734 20.660156 C 20.719234 21.377416 20 22.60276 20 24 C 20 26.20914 21.7909 28 24 28 C 25.3972 28 26.622544 27.280836 27.339844 26.197266 L 38 10 z M 40.039062 13.957031 C 39.743761 13.963731 39.453602 14.035781 39.189453 14.167969 C 38.20087 14.662642 37.801101 15.865485 38.296875 16.853516 C 39.379875 19.014776 40 21.42765 40 24 C 39.9998 25.18581 39.848272 26.371988 39.576172 27.548828 C 39.326551 28.625411 39.997453 29.700388 41.074219 29.949219 C 42.150821 30.198844 43.225801 29.527963 43.474609 28.451172 C 43.806509 27.015542 43.9998 25.52465 44 24 C 44 20.78289 43.218447 17.745357 41.873047 15.060547 C 41.526555 14.369041 40.812317 13.939315 40.039062 13.957031 z M 7.8515625 32.460938 C 7.0859375 32.460938 6.3932292 32.627604 5.7734375 32.960938 C 5.1536458 33.294271 4.6692708 33.757812 4.3203125 34.351562 C 3.9713542 34.940105 3.796875 35.583333 3.796875 36.28125 L 6.4375 36.28125 C 6.4375 35.770833 6.5625 35.346355 6.8125 35.007812 C 7.0625 34.664062 7.3880208 34.492188 7.7890625 34.492188 C 8.1953125 34.492188 8.5052083 34.619791 8.71875 34.875 C 8.9322917 35.130208 9.0390625 35.502604 9.0390625 35.992188 C 9.0390625 36.596354 8.5885417 37.411458 7.6875 38.4375 L 4.03125 42.28125 L 4.03125 44 L 11.96875 44 L 11.96875 41.96875 L 7.4921875 41.96875 L 8.9609375 40.273438 C 9.7421878 39.492188 10.307292 38.869791 10.65625 38.40625 C 11.010417 37.9375 11.270833 37.492188 11.4375 37.070312 C 11.604167 36.643229 11.6875 36.205729 11.6875 35.757812 C 11.6875 34.695312 11.354167 33.880208 10.6875 33.3125 C 10.026042 32.744791 9.0807292 32.460938 7.8515625 32.460938 z M 22.0625 32.46875 C 20.802083 32.46875 19.825521 32.885417 19.132812 33.71875 C 18.445312 34.552083 18.101562 35.736979 18.101562 37.273438 L 18.101562 39.351562 C 18.101562 40.877604 18.447916 42.059896 19.140625 42.898438 C 19.833333 43.736979 20.8125 44.15625 22.078125 44.15625 C 23.333333 44.15625 24.304688 43.739583 24.992188 42.90625 C 25.684896 42.072917 26.03125 40.888021 26.03125 39.351562 L 26.03125 37.28125 C 26.03125 35.75 25.684896 34.565104 24.992188 33.726562 C 24.299479 32.888021 23.322917 32.46875 22.0625 32.46875 z M 31.328125 32.46875 C 30.067708 32.46875 29.091146 32.885417 28.398438 33.71875 C 27.710938 34.552083 27.367188 35.736979 27.367188 37.273438 L 27.367188 39.351562 C 27.367187 40.877604 27.713541 42.059896 28.40625 42.898438 C 29.098958 43.736979 30.078125 44.15625 31.34375 44.15625 C 32.598958 44.15625 33.570312 43.739583 34.257812 42.90625 C 34.950521 42.072917 35.296875 40.888021 35.296875 39.351562 L 35.296875 37.28125 C 35.296875 35.75 34.950521 34.565104 34.257812 33.726562 C 33.565104 32.888021 32.588542 32.46875 31.328125 32.46875 z M 22.0625 34.5 C 22.526041 34.5 22.864583 34.703125 23.078125 35.109375 C 23.291666 35.510416 23.398438 36.119791 23.398438 36.9375 L 23.398438 39.75 C 23.393229 40.567708 23.283855 41.169271 23.070312 41.554688 C 22.856771 41.934896 22.526042 42.125 22.078125 42.125 C 21.614583 42.125 21.276041 41.929688 21.0625 41.539062 C 20.848958 41.143229 20.742188 40.520833 20.742188 39.671875 L 20.742188 36.765625 C 20.757813 36.005208 20.867188 35.4375 21.070312 35.0625 C 21.278646 34.6875 21.609375 34.5 22.0625 34.5 z M 31.328125 34.5 C 31.791666 34.5 32.130208 34.703125 32.34375 35.109375 C 32.557291 35.510416 32.664062 36.119791 32.664062 36.9375 L 32.664062 39.75 C 32.658854 40.567708 32.549479 41.169271 32.335938 41.554688 C 32.122396 41.934896 31.791667 42.125 31.34375 42.125 C 30.880208 42.125 30.541666 41.929688 30.328125 41.539062 C 30.114583 41.143229 30.007812 40.520833 30.007812 39.671875 L 30.007812 36.765625 C 30.023438 36.005208 30.132813 35.4375 30.335938 35.0625 C 30.544271 34.6875 30.875 34.5 31.328125 34.5 z M 36.179688 35.546875 L 38.398438 39.664062 L 36.054688 44 L 38.820312 44 L 40.125 41.5 L 41.453125 44 L 44.203125 44 L 41.867188 39.664062 L 44.09375 35.546875 L 41.359375 35.546875 L 40.132812 37.875 L 38.945312 35.546875 L 36.179688 35.546875 z M 14.96875 41.445312 C 14.546875 41.445312 14.197917 41.570312 13.921875 41.820312 C 13.651042 42.070313 13.515625 42.385416 13.515625 42.765625 C 13.515625 43.145833 13.651042 43.460938 13.921875 43.710938 C 14.197917 43.960938 14.546875 44.085938 14.96875 44.085938 C 15.385417 44.085938 15.731771 43.963541 16.007812 43.71875 C 16.283855 43.46875 16.421875 43.151042 16.421875 42.765625 C 16.421875 42.380208 16.283855 42.065104 16.007812 41.820312 C 15.731771 41.570312 15.385417 41.445312 14.96875 41.445312 z " />
  </g>
</svg>
