<?xml version="1.0" encoding="UTF-8" standalone="no"?>
<svg xmlns:dc="http://purl.org/dc/elements/1.1/" xmlns:cc="http://creativecommons.org/ns#"
        xmlns:rdf="http://www.w3.org/1999/02/22-rdf-syntax-ns#"
        xmlns:svg="http://www.w3.org/2000/svg" xmlns="http://www.w3.org/2000/svg"
        xmlns:sodipodi="http://sodipodi.sourceforge.net/DTD/sodipodi-0.dtd"
        xmlns:inkscape="http://www.inkscape.org/namespaces/inkscape" width="96" height="96"
        viewBox="0 0 96 96" version="1.1" id="svg6" sodipodi:docname="ic_browser_tvshow_big.svg"
        inkscape:version="0.92.3 (2405546, 2018-03-11)">
    <metadata id="metadata12">
        <rdf:RDF>
            <cc:Work rdf:about="">
                <dc:format>image/svg+xml</dc:format>
                <dc:type rdf:resource="http://purl.org/dc/dcmitype/StillImage" />
                <dc:title />
            </cc:Work>
        </rdf:RDF>
    </metadata>
    <defs id="defs10" />
    <sodipodi:namedview pagecolor="#ffffff" bordercolor="#666666" borderopacity="1"
            objecttolerance="10" gridtolerance="10" guidetolerance="10" inkscape:pageopacity="0"
            inkscape:pageshadow="2" inkscape:window-width="1920" inkscape:window-height="1053"
            id="namedview8" showgrid="false" inkscape:zoom="3.4766083" inkscape:cx="-14.327699"
            inkscape:cy="-17.028204" inkscape:window-x="0" inkscape:window-y="27"
            inkscape:window-maximized="1" inkscape:current-layer="svg6" />
    <path d="M 0,72 H 24 V 96 H 0 Z" id="path2" inkscape:connector-curvature="0"
            style="fill:none" />
    <path d="m 84.818182,23.454546 h -31.05 L 67.227273,9.995455 64.363636,7.090909 48,23.454546 31.636364,7.090909 l -2.904546,2.904546 13.5,13.459091 h -31.05 C 6.6818182,23.454546 3,27.095455 3,31.636364 v 49.090909 c 0,4.5 3.6818182,8.181818 8.181818,8.181818 h 73.636364 c 4.5,0 8.181818,-3.681818 8.181818,-8.181818 V 31.636364 c 0,-4.540909 -3.681818,-8.181818 -8.181818,-8.181818 z m 0,57.272727 H 11.181818 V 31.636364 H 84.818182 Z M 35.727273,39.818182 V 72.545455 L 64.363636,56.181818 Z"
            id="path4" inkscape:connector-curvature="0"
            style="stroke-width:4.090909;fill:#757575;fill-opacity:1" />
</svg>
