<?xml version="1.0" encoding="UTF-8" standalone="no"?>
<!-- Created with Inkscape (http://www.inkscape.org/) -->

<svg
   xmlns:dc="http://purl.org/dc/elements/1.1/"
   xmlns:cc="http://creativecommons.org/ns#"
   xmlns:rdf="http://www.w3.org/1999/02/22-rdf-syntax-ns#"
   xmlns:svg="http://www.w3.org/2000/svg"
   xmlns="http://www.w3.org/2000/svg"
   xmlns:sodipodi="http://sodipodi.sourceforge.net/DTD/sodipodi-0.dtd"
   xmlns:inkscape="http://www.inkscape.org/namespaces/inkscape"
   width="24"
   height="24"
   id="svg4682"
   version="1.1"
   inkscape:version="0.92.3 (2405546, 2018-03-11)"
   sodipodi:docname="ic_browser_podcasts_normal.svg"
   inkscape:export-filename="/home/corbax/Dev/android/Icons/Test 1/ic_play_normal.png"
   inkscape:export-xdpi="90"
   inkscape:export-ydpi="90">
  <defs
     id="defs4684" />
  <sodipodi:namedview
     id="base"
     pagecolor="#ffffff"
     bordercolor="#666666"
     borderopacity="1.0"
     inkscape:pageopacity="0.0"
     inkscape:pageshadow="2"
     inkscape:zoom="15.839192"
     inkscape:cx="2.1769435"
     inkscape:cy="7.2968785"
     inkscape:document-units="px"
     inkscape:current-layer="layer1"
     showgrid="true"
     inkscape:window-width="2560"
     inkscape:window-height="1413"
     inkscape:window-x="0"
     inkscape:window-y="27"
     inkscape:window-maximized="1">
    <inkscape:grid
       type="xygrid"
       id="grid2983" />
  </sodipodi:namedview>
  <metadata
     id="metadata4687">
    <rdf:RDF>
      <cc:Work
         rdf:about="">
        <dc:format>image/svg+xml</dc:format>
        <dc:type
           rdf:resource="http://purl.org/dc/dcmitype/StillImage" />
        <dc:title></dc:title>
      </cc:Work>
    </rdf:RDF>
  </metadata>
  <g
     inkscape:label="Layer 1"
     inkscape:groupmode="layer"
     id="layer1"
     transform="translate(0,-1028.3622)">
    <path
       style="color:#000000;display:inline;overflow:visible;visibility:visible;fill:#757575;fill-opacity:1;fill-rule:nonzero;stroke:none;stroke-width:1.11111116;marker:none;enable-background:accumulate"
       d="m 4.2222222,1032.5844 c -1.2311111,0 -2.0198333,1.0079 -2.2222222,2.2223 v 1.1111 10 c 0,1.2311 0.9911111,2.2222 2.2222222,2.2222 H 19.777778 C 21.008889,1048.14 22,1047.1489 22,1045.9178 v -8.8889 c 0,-1.2311 -0.991111,-2.2222 -2.222222,-2.2222 H 12 l -2.2222222,-2.2223 z m 12.9513888,3.3334 0.371093,1.0482 -3.320312,1.174 h 4.442275 c 0.615555,0 1.111111,0.4956 1.111111,1.1111 v 5.5556 c 0,0.6155 -0.495556,1.1111 -1.111111,1.1111 h -7.777778 c -0.615556,0 -1.1111112,-0.4956 -1.1111112,-1.1111 v -5.5556 c 0,-0.6155 0.4955552,-1.1111 1.1111112,-1.1111 z m -6.284722,3.3333 v 2.2222 h 5.555555 v -1.1111 h 1.111112 v 1.1111 h 1.111111 v -2.2222 z M 12,1042.5844 a 1.1111111,1.1111111 0 0 0 -1.111111,1.1112 A 1.1111111,1.1111111 0 0 0 12,1044.8067 1.1111111,1.1111111 0 0 0 13.111111,1043.6956 1.1111111,1.1111111 0 0 0 12,1042.5844 Z"
       id="path8198"
       inkscape:connector-curvature="0" />
  </g>
</svg>
