<?xml version="1.0" encoding="UTF-8" standalone="no"?><!-- Created with Inkscape (http://www.inkscape.org/) -->

<svg xmlns:dc="http://purl.org/dc/elements/1.1/" xmlns:cc="http://creativecommons.org/ns#"
        xmlns:rdf="http://www.w3.org/1999/02/22-rdf-syntax-ns#"
        xmlns:svg="http://www.w3.org/2000/svg" xmlns="http://www.w3.org/2000/svg"
        xmlns:sodipodi="http://sodipodi.sourceforge.net/DTD/sodipodi-0.dtd"
        xmlns:inkscape="http://www.inkscape.org/namespaces/inkscape" width="20" height="20"
        id="svg4682" version="1.1" inkscape:version="0.92.3 (2405546, 2018-03-11)"
        sodipodi:docname="ic_ctx_link_normal.svg"
        inkscape:export-filename="/home/corbax/Dev/android/Icons/Test 1/ic_play_normal.png"
        inkscape:export-xdpi="90" inkscape:export-ydpi="90">
    <defs id="defs4684" />
    <sodipodi:namedview id="base" pagecolor="#ffffff" bordercolor="#666666" borderopacity="1.0"
            inkscape:pageopacity="0.0" inkscape:pageshadow="2" inkscape:zoom="44.8"
            inkscape:cx="7.0083751" inkscape:cy="6.94558" inkscape:document-units="px"
            inkscape:current-layer="layer1" showgrid="true" inkscape:window-width="1600"
            inkscape:window-height="836" inkscape:window-x="0" inkscape:window-y="27"
            inkscape:window-maximized="1" inkscape:snap-bbox="true" inkscape:bbox-nodes="true"
            inkscape:bbox-paths="true" inkscape:snap-bbox-edge-midpoints="true"
            inkscape:snap-bbox-midpoints="true" inkscape:object-paths="true"
            inkscape:snap-intersection-paths="true" inkscape:object-nodes="true"
            inkscape:snap-smooth-nodes="true" inkscape:snap-midpoints="true"
            inkscape:snap-object-midpoints="true" inkscape:snap-center="true">
        <inkscape:grid type="xygrid" id="grid3002" />
    </sodipodi:namedview>
    <metadata id="metadata4687">
        <rdf:RDF>
            <cc:Work rdf:about="">
                <dc:format>image/svg+xml</dc:format>
                <dc:type rdf:resource="http://purl.org/dc/dcmitype/StillImage" />
                <dc:title />
            </cc:Work>
        </rdf:RDF>
    </metadata>
    <g inkscape:label="Layer 1" inkscape:groupmode="layer" id="layer1"
            transform="translate(0,-1032.3622)">
        <path style="opacity:1;fill:#000000;fill-opacity:1;stroke:none;stroke-width:0.32731667;stroke-linejoin:miter;stroke-miterlimit:4;stroke-dasharray:none;stroke-opacity:1"
                d="m 5.75,1038.6122 a 3.7499783,3.7499783 0 0 0 -3.75,3.75 3.7499783,3.7499783 0 0 0 3.75,3.75 H 9 v -1.5 H 5.75 a 2.249987,2.249987 0 0 1 -2.25,-2.25 2.249987,2.249987 0 0 1 2.25,-2.25 H 9 v -1.5 z m 5.25,0 v 1.5 h 3.25 a 2.249987,2.249987 0 0 1 2.25,2.25 2.249987,2.249987 0 0 1 -2.25,2.25 H 11 v 1.5 h 3.25 a 3.7499783,3.7499783 0 0 0 3.75,-3.75 3.7499783,3.7499783 0 0 0 -3.75,-3.75 z m -4,3 v 1.5 h 6 v -1.5 z"
                id="rect6696" inkscape:connector-curvature="0" />
    </g>
</svg>
