<?xml version="1.0" encoding="UTF-8" standalone="no"?><!-- Created with Inkscape (http://www.inkscape.org/) -->

<svg xmlns:dc="http://purl.org/dc/elements/1.1/" xmlns:cc="http://creativecommons.org/ns#"
        xmlns:rdf="http://www.w3.org/1999/02/22-rdf-syntax-ns#"
        xmlns:svg="http://www.w3.org/2000/svg" xmlns="http://www.w3.org/2000/svg"
        xmlns:sodipodi="http://sodipodi.sourceforge.net/DTD/sodipodi-0.dtd"
        xmlns:inkscape="http://www.inkscape.org/namespaces/inkscape" width="20" height="20"
        id="svg4682" version="1.1" inkscape:version="0.92.3 (2405546, 2018-03-11)"
        sodipodi:docname="ic_ctx_addtoscan_normal.svg"
        inkscape:export-filename="/home/corbax/Dev/android/Icons/Test 1/ic_play_normal.png"
        inkscape:export-xdpi="90" inkscape:export-ydpi="90">
    <defs id="defs4684" />
    <sodipodi:namedview id="base" pagecolor="#ffffff" bordercolor="#666666" borderopacity="1.0"
            inkscape:pageopacity="0.0" inkscape:pageshadow="2" inkscape:zoom="15.839192"
            inkscape:cx="-2.4028438" inkscape:cy="14.590307" inkscape:document-units="px"
            inkscape:current-layer="layer1" showgrid="true" inkscape:window-width="1600"
            inkscape:window-height="836" inkscape:window-x="0" inkscape:window-y="27"
            inkscape:window-maximized="1" inkscape:snap-bbox="true" inkscape:bbox-nodes="true"
            inkscape:bbox-paths="true" inkscape:snap-bbox-edge-midpoints="true"
            inkscape:snap-bbox-midpoints="true" inkscape:object-paths="true"
            inkscape:snap-intersection-paths="true" inkscape:object-nodes="true"
            inkscape:snap-smooth-nodes="true" inkscape:snap-midpoints="true"
            inkscape:snap-object-midpoints="true" inkscape:snap-center="true">
        <inkscape:grid type="xygrid" id="grid3002" />
    </sodipodi:namedview>
    <metadata id="metadata4687">
        <rdf:RDF>
            <cc:Work rdf:about="">
                <dc:format>image/svg+xml</dc:format>
                <dc:type rdf:resource="http://purl.org/dc/dcmitype/StillImage" />
                <dc:title />
            </cc:Work>
        </rdf:RDF>
    </metadata>
    <g inkscape:label="Layer 1" inkscape:groupmode="layer" id="layer1"
            transform="translate(0,-1032.3622)">
        <path style="fill:#212121;fill-opacity:1;stroke-width:0.14809471"
                d="m 10,1035.3622 c -0.15476,0 -0.327292,0.018 -0.451172,0.1113 -0.24502,0.1834 -0.34328,0.4774 -0.55664,1.1133 -0.21335,0.636 -0.222657,0.668 -0.222657,0.668 0.89112,0.4454 1.537298,0.4871 2.460938,0 0,0 -0.01,-0.035 -0.222657,-0.668 -0.212519,-0.6334 -0.31015,-0.9254 -0.55664,-1.1133 -0.1231,-0.093 -0.296412,-0.1113 -0.451172,-0.1113 z m -2.009766,4.2324 -0.892578,2.6738 -0.002,0.01 h 0.01172 c 1.67086,1.4481 4.122119,1.4481 5.792969,0 h 0.002 l -0.890625,-2.6718 h -0.002 c -1.35139,1.0091 -2.682842,1.0002 -4.019532,0 z m -2.277343,4.0059 c -0.29619,0 -0.571653,0.2243 -0.658203,0.5195 l -0.517579,1.7637 c -0.16954,0.5793 -0.337492,1.1561 -0.507812,1.7383 -0.0712,0.2434 2.64e-4,0.4212 0.115234,0.5449 0.0712,0.077 0.157352,0.133 0.238281,0.1699 0.081,0.036 0.137372,0.055 0.201172,0.055 H 10 v -2.2168 c -1.36215,0 -2.716837,-0.4128 -3.560547,-1.2383 -0.16802,-0.1645 -0.11142,-0.3337 0,-0.668 0.07385,-0.2213 0.211189,-0.6625 0.212891,-0.6679 z M 13.5,1044.8954 v 2 h -2 v 1.5 h 2 v 2 H 15 v -2 h 2 v -1.5 h -2 v -2 z"
                id="path7838" inkscape:connector-curvature="0" />
    </g>
</svg>
