<?xml version="1.0" encoding="UTF-8" standalone="no"?>
<!-- Created with Inkscape (http://www.inkscape.org/) -->

<svg
   xmlns:dc="http://purl.org/dc/elements/1.1/"
   xmlns:cc="http://creativecommons.org/ns#"
   xmlns:rdf="http://www.w3.org/1999/02/22-rdf-syntax-ns#"
   xmlns:svg="http://www.w3.org/2000/svg"
   xmlns="http://www.w3.org/2000/svg"
   xmlns:sodipodi="http://sodipodi.sourceforge.net/DTD/sodipodi-0.dtd"
   xmlns:inkscape="http://www.inkscape.org/namespaces/inkscape"
   width="40"
   height="40"
   viewBox="0 0 40 40"
   version="1.1"
   id="SVGRoot"
   inkscape:version="0.92.4 (5da689c313, 2019-01-14)"
   sodipodi:docname="ic_ctx_addtoscan_normal.svg">
  <defs
     id="defs7678" />
  <sodipodi:namedview
     id="base"
     pagecolor="#ffffff"
     bordercolor="#666666"
     borderopacity="1.0"
     inkscape:pageopacity="0.0"
     inkscape:pageshadow="2"
     inkscape:zoom="16.000001"
     inkscape:cx="14.11632"
     inkscape:cy="10.66734"
     inkscape:document-units="px"
     inkscape:current-layer="layer1"
     showgrid="true"
     inkscape:window-width="1920"
     inkscape:window-height="1016"
     inkscape:window-x="0"
     inkscape:window-y="1107"
     inkscape:window-maximized="1"
     inkscape:grid-bbox="true"
     inkscape:snap-page="true"
     inkscape:snap-text-baseline="true"
     inkscape:snap-center="true"
     inkscape:snap-object-midpoints="true"
     inkscape:snap-midpoints="true"
     inkscape:snap-smooth-nodes="true"
     inkscape:snap-intersection-paths="true"
     inkscape:object-paths="true"
     inkscape:snap-bbox="true"
     inkscape:bbox-paths="true"
     inkscape:bbox-nodes="true"
     inkscape:snap-bbox-edge-midpoints="true"
     inkscape:snap-bbox-midpoints="true">
    <inkscape:grid
       type="xygrid"
       id="grid8234" />
  </sodipodi:namedview>
  <metadata
     id="metadata7681">
    <rdf:RDF>
      <cc:Work
         rdf:about="">
        <dc:format>image/svg+xml</dc:format>
        <dc:type
           rdf:resource="http://purl.org/dc/dcmitype/StillImage" />
        <dc:title></dc:title>
      </cc:Work>
    </rdf:RDF>
  </metadata>
  <g
     inkscape:label="Layer 1"
     inkscape:groupmode="layer"
     id="layer1"
     transform="translate(0,-8)">
    <path
       style="fill:#000000;fill-opacity:1;stroke-width:0.05578091"
       d="m 20,14.117188 c -0.55782,0 -0.923182,0.248683 -1.226562,0.558593 -0.419481,0.42849 -0.78125,1.673828 -0.78125,1.673828 L 17.544922,17.6875 c 1.78503,0.89247 3.060016,0.97591 4.910156,0 l -0.447266,-1.337891 c 0,0 -0.36177,-1.245338 -0.78125,-1.673828 C 20.923192,14.365871 20.55781,14.117187 20,14.117188 Z m -4.015625,8.255859 -1.785156,5.355469 c 1.78499,1.78501 3.728951,2.230468 5.800781,2.230468 2.07183,0 4.015771,-0.445458 5.800781,-2.230468 L 24.015625,22.373047 C 22.676895,23.377107 21.42977,23.878906 20,23.878906 c -1.42977,0 -2.676865,-0.501799 -4.015625,-1.505859 z m -4.574219,8.033203 c -0.5933,0 -1.156593,0.518784 -1.339844,1.115234 l -1.951171,6.69336 C 7.858281,39.109264 7.950634,40 9.177734,40 H 20 v -4.462891 c -2.51666,-7.2e-4 -5.343335,-0.694385 -7.140625,-2.453125 -0.33659,-0.32936 -0.22323,-0.670413 0,-1.339843 0.14879,-0.44623 0.445313,-1.337891 0.445313,-1.337891 z M 28,33 a 1.5,1.5 0 0 0 -1.5,1.5 V 37 H 24 A 1.5,1.5 0 0 0 22.5,38.5 1.5,1.5 0 0 0 24,40 h 2.5 v 2.5 A 1.5,1.5 0 0 0 28,44 1.5,1.5 0 0 0 29.5,42.5 V 40 H 32 A 1.5,1.5 0 0 0 33.5,38.5 1.5,1.5 0 0 0 32,37 H 29.5 V 34.5 A 1.5,1.5 0 0 0 28,33 Z"
       id="path7928"
       inkscape:connector-curvature="0" />
  </g>
</svg>
