<?xml version="1.0" encoding="UTF-8" standalone="no"?>
<svg
   xmlns:dc="http://purl.org/dc/elements/1.1/"
   xmlns:cc="http://creativecommons.org/ns#"
   xmlns:rdf="http://www.w3.org/1999/02/22-rdf-syntax-ns#"
   xmlns:svg="http://www.w3.org/2000/svg"
   xmlns="http://www.w3.org/2000/svg"
   xmlns:sodipodi="http://sodipodi.sourceforge.net/DTD/sodipodi-0.dtd"
   xmlns:inkscape="http://www.inkscape.org/namespaces/inkscape"
   width="12"
   height="12"
   viewBox="0 0 12 12"
   version="1.1"
   id="svg7"
   sodipodi:docname="ic_emoji_network_media.svg"
   inkscape:version="1.0.1 (0767f8302a, 2020-10-17)">
  <metadata
     id="metadata13">
    <rdf:RDF>
      <cc:Work
         rdf:about="">
        <dc:format>image/svg+xml</dc:format>
        <dc:type
           rdf:resource="http://purl.org/dc/dcmitype/StillImage" />
        <dc:title>ic-server/On@1x</dc:title>
      </cc:Work>
    </rdf:RDF>
  </metadata>
  <defs
     id="defs11" />
  <sodipodi:namedview
     pagecolor="#ffffff"
     bordercolor="#666666"
     borderopacity="1"
     objecttolerance="10"
     gridtolerance="10"
     guidetolerance="10"
     inkscape:pageopacity="0"
     inkscape:pageshadow="2"
     inkscape:window-width="2560"
     inkscape:window-height="1376"
     id="namedview9"
     showgrid="false"
     inkscape:zoom="10.5"
     inkscape:cx="31.653769"
     inkscape:cy="24.122229"
     inkscape:window-x="0"
     inkscape:window-y="27"
     inkscape:window-maximized="1"
     inkscape:current-layer="svg7" />
  <title
     id="title2">ic-server/On@1x</title>
  <g
     id="ic-server/On"
     stroke="none"
     stroke-width="1"
     fill="none"
     fill-rule="evenodd"
     transform="scale(0.5)">
    <rect
       id="Rectangle"
       x="0"
       y="0"
       width="24"
       height="24" />
    <path
       d="M 20.001,23.0005 H 22 v -2 H 20.001 Z M 4.009,14.9995 h 15.992 v -10 h -9.002613 l -2.0231586,-2 H 4.001 l 0.008,2 z M 22,15.0005 c 0,1.099 -0.899,2 -1.999,2 h -6.996 v 4 h -1.999 v -4 H 4.001 C 2.9,17.0005 2,16.0995 2,14.9995 l 0.01,-12 c 0,-1.099 0.89,-2 1.99,-2 h 6 l 2,2 h 8.001 c 1.1,0 1.999,0.901 1.999,2 z m -15.992,8 h 11.994 v -2 H 6.008 Z m -3.998,0 h 1.999 v -2 H 2.01 Z"
       id="Fill-1"
       fill="#ffffff" />
  </g>
</svg>
