<?xml version="1.0" encoding="UTF-8" standalone="no"?>
<svg
   xmlns:dc="http://purl.org/dc/elements/1.1/"
   xmlns:cc="http://creativecommons.org/ns#"
   xmlns:rdf="http://www.w3.org/1999/02/22-rdf-syntax-ns#"
   xmlns:svg="http://www.w3.org/2000/svg"
   xmlns="http://www.w3.org/2000/svg"
   xmlns:sodipodi="http://sodipodi.sourceforge.net/DTD/sodipodi-0.dtd"
   xmlns:inkscape="http://www.inkscape.org/namespaces/inkscape"
   width="12"
   height="12"
   viewBox="0 0 12 12"
   version="1.1"
   id="svg7"
   sodipodi:docname="ic_emoji_network_media_off.svg"
   inkscape:version="1.0.1 (0767f8302a, 2020-10-17)">
  <metadata
     id="metadata13">
    <rdf:RDF>
      <cc:Work
         rdf:about="">
        <dc:format>image/svg+xml</dc:format>
        <dc:type
           rdf:resource="http://purl.org/dc/dcmitype/StillImage" />
        <dc:title>ic-server/Off@1x</dc:title>
      </cc:Work>
    </rdf:RDF>
  </metadata>
  <defs
     id="defs11" />
  <sodipodi:namedview
     pagecolor="#ffffff"
     bordercolor="#666666"
     borderopacity="1"
     objecttolerance="10"
     gridtolerance="10"
     guidetolerance="10"
     inkscape:pageopacity="0"
     inkscape:pageshadow="2"
     inkscape:window-width="2560"
     inkscape:window-height="1376"
     id="namedview9"
     showgrid="false"
     inkscape:zoom="42"
     inkscape:cx="12"
     inkscape:cy="12"
     inkscape:window-x="0"
     inkscape:window-y="27"
     inkscape:window-maximized="1"
     inkscape:current-layer="svg7" />
  <title
     id="title2">ic-server/Off@1x</title>
  <g
     id="ic-server/Off"
     stroke="none"
     stroke-width="1"
     fill="none"
     fill-rule="evenodd"
     transform="scale(0.5)">
    <rect
       id="Rectangle"
       x="0"
       y="0"
       width="24"
       height="24" />
    <path
       d="m 22.536,21.0005 v 2 h -1.999 v -2 z m -17.991,0 v 2 H 2.546 v -2 z M 2.0707,2.503 2.5647,2.817 5.9797,5 l 14.557,9.302 1.919,1.225 0.603,0.385 0.005,-0.008 0.002,0.002 -1.076,1.686 -1.01,-0.646 c -0.09533,0.022 -0.192444,0.03867 -0.291926,0.04733 L 20.5367,17 h -6.996 v 4 h 4.997 v 2 H 6.5437 v -2 h 4.998 V 17 H 4.5367 C 3.4867,17 2.6180202,16.179959 2.5412188,15.147825 L 2.5357,14.999 2.5437,5.167 0.9997,4.18 Z m 2.474,3.942 V 15 h 13.389 z M 10.5359,1 l 2,2 h 8.001 c 1.05,0 1.916857,0.8200413 1.993493,1.8513054 L 22.5359,5 v 8.205 l -1.999,-1.277 V 5 H 12.0327 L 9.9760411,3.0025569 H 6.5674673 L 3.7179,1.182 C 3.9179,1.09 4.1339,1.02872 4.362316,1.007888 L 4.5359,1 Z"
       id="Combined-Shape"
       fill="#ffffff" />
  </g>
</svg>
