<?xml version="1.0" encoding="UTF-8" standalone="no"?>
<svg
   xmlns:dc="http://purl.org/dc/elements/1.1/"
   xmlns:cc="http://creativecommons.org/ns#"
   xmlns:rdf="http://www.w3.org/1999/02/22-rdf-syntax-ns#"
   xmlns:svg="http://www.w3.org/2000/svg"
   xmlns="http://www.w3.org/2000/svg"
   xmlns:sodipodi="http://sodipodi.sourceforge.net/DTD/sodipodi-0.dtd"
   xmlns:inkscape="http://www.inkscape.org/namespaces/inkscape"
   width="12"
   height="12"
   viewBox="0 0 12 12"
   version="1.1"
   id="svg7"
   sodipodi:docname="ic_emoji_network_media.svg"
   inkscape:version="1.0.2 (e86c870879, 2021-01-15)">
  <metadata
     id="metadata13">
    <rdf:RDF>
      <cc:Work
         rdf:about="">
        <dc:format>image/svg+xml</dc:format>
        <dc:type
           rdf:resource="http://purl.org/dc/dcmitype/StillImage" />
        <dc:title>ic-server/On@1x</dc:title>
      </cc:Work>
    </rdf:RDF>
  </metadata>
  <defs
     id="defs11" />
  <sodipodi:namedview
     pagecolor="#ffffff"
     bordercolor="#666666"
     borderopacity="1"
     objecttolerance="10"
     gridtolerance="10"
     guidetolerance="10"
     inkscape:pageopacity="0"
     inkscape:pageshadow="2"
     inkscape:window-width="1600"
     inkscape:window-height="829"
     id="namedview9"
     showgrid="true"
     inkscape:zoom="14.849242"
     inkscape:cx="-3.6193564"
     inkscape:cy="11.319993"
     inkscape:window-x="0"
     inkscape:window-y="1114"
     inkscape:window-maximized="1"
     inkscape:current-layer="svg7"
     inkscape:document-rotation="0">
    <inkscape:grid
       type="xygrid"
       id="grid835" />
  </sodipodi:namedview>
  <title
     id="title2">ic-server/On@1x</title>
  <path
     id="path3758"
     style="color:#000000;overflow:visible;fill:#ffffff;stroke:none;stroke-width:1;stroke-linecap:round;stroke-linejoin:miter;stroke-miterlimit:1.5;stroke-dasharray:none;stop-color:#000000"
     d="M 2,1 C 1.45465,1 1,1.4547 1,2 v 5.5 c 0,0.5454 0.45465,1 1,1 H 5.5 V 10 h -2 C 3.223,10 3,10.2156 3,10.4844 v 0.031 c 0,0.2688 0.223,0.4844 0.5,0.4844 h 5 c 0.277,0 0.5,-0.2156 0.5,-0.4844 v -0.031 C 9,10.2156 8.777,10 8.5,10 h -2 V 8.5 H 10 c 0.54535,0 1,-0.4546 1,-1 v -4 c 0,-0.5453 -0.45465,-1 -1,-1 H 6.20703 l -1.5,-1.5 z m 0,1 h 2.29297 l 1.5,1.5 H 10 v 4 H 2 Z M 1.48828,10 A 0.5,0.5 0 0 0 1,10.5 0.5,0.5 0 0 0 1.5,11 0.5,0.5 0 0 0 2,10.5 0.5,0.5 0 0 0 1.5,10 0.5,0.5 0 0 0 1.4883,10 Z m 9,0 A 0.5,0.5 0 0 0 10,10.5 0.5,0.5 0 0 0 10.5,11 0.5,0.5 0 0 0 11,10.5 0.5,0.5 0 0 0 10.5,10 0.5,0.5 0 0 0 10.4883,10 Z" />
</svg>
