<?xml version="1.0" encoding="UTF-8" standalone="no"?>
<svg
   xmlns:dc="http://purl.org/dc/elements/1.1/"
   xmlns:cc="http://creativecommons.org/ns#"
   xmlns:rdf="http://www.w3.org/1999/02/22-rdf-syntax-ns#"
   xmlns:svg="http://www.w3.org/2000/svg"
   xmlns="http://www.w3.org/2000/svg"
   xmlns:sodipodi="http://sodipodi.sourceforge.net/DTD/sodipodi-0.dtd"
   xmlns:inkscape="http://www.inkscape.org/namespaces/inkscape"
   width="48.0px"
   height="48.0px"
   viewBox="0 0 48.0 48.0"
   version="1.1"
   id="SVGRoot"
   sodipodi:docname="ic_equalizer.svg"
   inkscape:version="1.0.2 (e86c870879, 2021-01-15)">
  <defs
     id="defs3529" />
  <sodipodi:namedview
     id="base"
     pagecolor="#ffffff"
     bordercolor="#666666"
     borderopacity="1.0"
     inkscape:pageopacity="0.0"
     inkscape:pageshadow="2"
     inkscape:zoom="11.313709"
     inkscape:cx="43.297958"
     inkscape:cy="26.619653"
     inkscape:document-units="px"
     inkscape:current-layer="layer1"
     inkscape:document-rotation="0"
     showgrid="true"
     inkscape:window-width="1920"
     inkscape:window-height="1043"
     inkscape:window-x="0"
     inkscape:window-y="0"
     inkscape:window-maximized="1"
     inkscape:snap-page="true"
     inkscape:snap-text-baseline="true"
     inkscape:snap-center="true"
     inkscape:snap-object-midpoints="true"
     inkscape:snap-midpoints="true"
     inkscape:snap-smooth-nodes="true"
     inkscape:snap-intersection-paths="true"
     inkscape:object-paths="true"
     inkscape:snap-bbox="true"
     inkscape:bbox-paths="true"
     inkscape:bbox-nodes="true"
     inkscape:snap-bbox-edge-midpoints="true"
     inkscape:snap-bbox-midpoints="true">
    <inkscape:grid
       type="xygrid"
       id="grid4099" />
  </sodipodi:namedview>
  <metadata
     id="metadata3532">
    <rdf:RDF>
      <cc:Work
         rdf:about="">
        <dc:format>image/svg+xml</dc:format>
        <dc:type
           rdf:resource="http://purl.org/dc/dcmitype/StillImage" />
        <dc:title></dc:title>
      </cc:Work>
    </rdf:RDF>
  </metadata>
  <g
     inkscape:label="Layer 1"
     inkscape:groupmode="layer"
     id="layer1">
    <path
       d="m 36,6 c 1.1,0 2,0.9 2,2 V 18 H 34 V 8 C 34,6.9 34.9,6 36,6 Z M 12,6 c 1.1,0 2,0.9 2,2 V 26 H 10 V 8 c 0,-1.1 0.9,-2 2,-2 z m 28,20 h -2 v 14 c 0,1.1 -0.9,2 -2,2 -1.1,0 -2,-0.9 -2,-2 V 26 h -2 c -1.1,0 -2,-0.9 -2,-2 0,-1.1 0.9,-2 2,-2 h 8 c 1.1,0 2,0.9 2,2 0,1.1 -0.9,2 -2,2 z M 20,14 h 2 V 8 c 0,-1.1 0.9,-2 2,-2 1.1,0 2,0.9 2,2 v 6 h 2 c 1.1,0 2,0.9 2,2 0,1.1 -0.9,2 -2,2 h -8 c -1.1,0 -2,-0.9 -2,-2 0,-1.1 0.9,-2 2,-2 z m 4,28 c -1.1,0 -2,-0.9 -2,-2 V 22 h 4 v 18 c 0,1.1 -0.9,2 -2,2 z M 18,32 c 0,1.1 -0.9,2 -2,2 h -2 v 6 c 0,1.1 -0.9,2 -2,2 -1.1,0 -2,-0.9 -2,-2 V 34 H 8 C 6.9,34 6,33.1 6,32 6,30.9 6.9,30 8,30 h 8 c 1.1,0 2,0.9 2,2 z"
       id="path3276"
       style="fill:#000000;stroke-width:2" />
  </g>
</svg>
