<?xml version="1.0" encoding="UTF-8" standalone="no"?>
<!-- Created with Inkscape (http://www.inkscape.org/) -->

<svg
   width="96"
   height="96"
   viewBox="0 0 25.399999 25.400001"
   version="1.1"
   id="svg6620"
   inkscape:version="1.1.2 (0a00cf5339, 2022-02-04)"
   sodipodi:docname="ic_empty.svg"
   xmlns:inkscape="http://www.inkscape.org/namespaces/inkscape"
   xmlns:sodipodi="http://sodipodi.sourceforge.net/DTD/sodipodi-0.dtd"
   xmlns="http://www.w3.org/2000/svg"
   xmlns:svg="http://www.w3.org/2000/svg"
   xmlns:rdf="http://www.w3.org/1999/02/22-rdf-syntax-ns#"
   xmlns:cc="http://creativecommons.org/ns#"
   xmlns:dc="http://purl.org/dc/elements/1.1/">
  <defs
     id="defs6614" />
  <sodipodi:namedview
     id="base"
     pagecolor="#ffffff"
     bordercolor="#666666"
     borderopacity="1.0"
     inkscape:pageopacity="0.0"
     inkscape:pageshadow="2"
     inkscape:zoom="11.2"
     inkscape:cx="33.571429"
     inkscape:cy="25.089286"
     inkscape:document-units="mm"
     inkscape:current-layer="layer1"
     showgrid="true"
     units="px"
     inkscape:window-width="1920"
     inkscape:window-height="1043"
     inkscape:window-x="0"
     inkscape:window-y="0"
     inkscape:window-maximized="1"
     inkscape:pagecheckerboard="1">
    <inkscape:grid
       type="xygrid"
       id="grid7165" />
  </sodipodi:namedview>
  <metadata
     id="metadata6617">
    <rdf:RDF>
      <cc:Work
         rdf:about="">
        <dc:format>image/svg+xml</dc:format>
        <dc:type
           rdf:resource="http://purl.org/dc/dcmitype/StillImage" />
      </cc:Work>
    </rdf:RDF>
  </metadata>
  <g
     inkscape:label="Layer 1"
     inkscape:groupmode="layer"
     id="layer1"
     transform="translate(0,-271.59998)">
    <path
       style="color:#000000;fill:#000000;stroke-linejoin:round;-inkscape-stroke:none"
       d="m 12.699219,274.19336 c -1.337967,-7e-5 -2.464599,0.88168 -2.9589846,2.05078 a 0.79382936,0.79382936 0 0 0 -0.021484,0.0586 l -1.0546875,3.16602 a 0.79382936,0.79382936 0 0 0 0,0.002 l -1.4550781,4.36524 -0.546875,1.64062 H 5.6992187 c -0.8833261,0 -1.5989574,0.60128 -1.8378906,1.41602 l -0.8457031,2.88281 a 0.79382936,0.79382936 0 0 0 -0.00195,0.002 c -0.2769584,0.94626 -0.5499581,1.88503 -0.828125,2.83594 -0.1858839,0.63452 0.031137,1.29219 0.3671875,1.6543 0.2081533,0.22381 0.4370294,0.36433 0.6445312,0.45898 a 0.79382936,0.79382936 0 0 0 0.00977,0.004 c 0.077241,0.0339 0.153926,0.0617 0.2226562,0.084 a 0.79382936,0.79382936 0 0 0 0.1113281,0.0293 c 0.6725291,0.11478 1.4840354,-0.0229 2.3164063,-0.53711 0.5306096,-0.32869 0.839404,-0.36694 1.1269531,-0.33594 0.2875491,0.031 0.5989409,0.17155 1.0019531,0.3711 0.4030122,0.19954 0.8981678,0.4587 1.5371094,0.52734 0.6389415,0.0686 1.3777935,-0.0935 2.1367185,-0.5625 0.530621,-0.3287 0.839469,-0.36694 1.126953,-0.33594 0.287485,0.031 0.599002,0.17155 1.001954,0.3711 0.402951,0.19954 0.898194,0.4587 1.537109,0.52734 0.638915,0.0686 1.37585,-0.0935 2.134765,-0.5625 a 0.79382936,0.79382936 0 0 0 0.002,0 c 0.876868,-0.54318 1.158504,-0.40743 1.736328,-0.15234 0.577824,0.25508 1.390103,0.83854 2.542968,0.71289 a 0.79382936,0.79382936 0 0 0 0.08008,-0.0137 c 0.123201,-0.0265 0.251577,-0.0693 0.373046,-0.12305 a 0.79382936,0.79382936 0 0 0 0.0078,-0.004 c 0.207518,-0.0947 0.43443,-0.23517 0.642578,-0.45898 a 0.79382936,0.79382936 0 0 0 0.002,0 c 0.335825,-0.36147 0.553386,-1.01872 0.367188,-1.6543 -0.278169,-0.95091 -0.553126,-1.88968 -0.830078,-2.83594 a 0.79382936,0.79382936 0 0 0 0,-0.002 l -0.847657,-2.88281 c -0.238929,-0.81474 -0.95261,-1.41602 -1.835937,-1.41602 h -0.962891 l -0.546875,-1.64062 -1.455078,-4.36719 -1.046875,-3.14063 a 0.79382936,0.79382936 0 0 0 -0.01758,-0.0508 c -0.485844,-1.18651 -1.622111,-2.08398 -2.972656,-2.08398 z m 0,1.58594 c 0.611022,0 1.241612,0.46957 1.5,1.09765 l 1.03125,3.09571 1.455078,4.36523 0.728515,2.18164 a 0.79382936,0.79382936 0 0 0 0.751954,0.54297 h 1.535156 c 0.08421,0 0.268669,0.12788 0.3125,0.27734 a 0.79382936,0.79382936 0 0 0 0.002,0 l 0.845703,2.88477 c 0.276684,0.94534 0.552038,1.88352 0.830078,2.83398 0.04669,0.15939 0.03187,0.0862 -0.0078,0.12891 -0.0243,0.0261 -0.08231,0.0678 -0.138672,0.0937 -0.51055,0.0458 -0.936893,-0.23987 -1.703125,-0.57813 -0.777545,-0.34325 -1.963853,-0.52102 -3.214844,0.25391 v -0.002 c -0.53259,0.32911 -0.842201,0.36695 -1.130859,0.33594 -0.288658,-0.031 -0.601211,-0.17168 -1.003906,-0.3711 -0.402696,-0.19942 -0.896913,-0.45852 -1.535157,-0.52734 -0.638243,-0.0688 -1.375616,0.0954 -2.132812,0.56445 l 0.002,-0.002 c -0.532581,0.32911 -0.8440895,0.36695 -1.1328126,0.33594 -0.2887232,-0.031 -0.5991965,-0.17168 -1.0019531,-0.3711 -0.4027567,-0.19942 -0.8988398,-0.45852 -1.5371094,-0.52734 -0.6382696,-0.0688 -1.3756078,0.0954 -2.1328125,0.56445 l 0.00195,-0.002 c -0.5694937,0.35182 -0.8734421,0.36426 -1.1855469,0.31445 -0.049636,-0.0258 -0.099654,-0.059 -0.1210937,-0.082 a 0.79382936,0.79382936 0 0 0 -0.00195,0 c -0.039383,-0.0423 -0.052652,0.0308 -0.00586,-0.12891 0.2780378,-0.95046 0.5514368,-1.88865 0.828125,-2.83398 v -0.002 l 0.8476562,-2.88282 c 0.043832,-0.14946 0.2302467,-0.27734 0.3144531,-0.27734 H 7.234375 a 0.79382936,0.79382936 0 0 0 0.7519531,-0.54297 l 0.7285157,-2.18164 1.4550782,-4.36523 1.037109,-3.11329 c 0.263903,-0.61841 0.888002,-1.0801 1.492188,-1.08007 z"
       id="path19758" />
    <circle
       style="color:#000000;overflow:visible;fill:#000000;stroke:none;stroke-width:1.5875;stroke-linecap:round;stroke-linejoin:round;stroke-miterlimit:4;stroke-dasharray:none;paint-order:markers fill stroke;stop-color:#000000"
       id="path22284"
       cx="14.816668"
       cy="286.9458"
       r="1.3229016" />
    <circle
       style="color:#000000;overflow:visible;fill:#000000;stroke:none;stroke-width:1.5875;stroke-linecap:round;stroke-linejoin:round;stroke-miterlimit:4;stroke-dasharray:none;paint-order:markers fill stroke;stop-color:#000000"
       id="path22330"
       cx="10.847934"
       cy="286.9458"
       r="1.8520683" />
  </g>
</svg>
