<?xml version="1.0" encoding="UTF-8" standalone="no"?>
<!-- Created with Inkscape (http://www.inkscape.org/) -->

<svg
   width="48.0px"
   height="48.0px"
   viewBox="0 0 48.0 48.0"
   version="1.1"
   id="SVGRoot"
   sodipodi:docname="ic_folder_usb.svg"
   inkscape:version="1.4 (1:1.4+202410161351+e7c3feb100)"
   xmlns:inkscape="http://www.inkscape.org/namespaces/inkscape"
   xmlns:sodipodi="http://sodipodi.sourceforge.net/DTD/sodipodi-0.dtd"
   xmlns="http://www.w3.org/2000/svg"
   xmlns:svg="http://www.w3.org/2000/svg">
  <sodipodi:namedview
     id="namedview17188"
     pagecolor="#ffffff"
     bordercolor="#111111"
     borderopacity="1"
     inkscape:pageshadow="0"
     inkscape:pageopacity="0"
     inkscape:pagecheckerboard="1"
     inkscape:document-units="px"
     showgrid="true"
     inkscape:zoom="14.493388"
     inkscape:cx="17.904716"
     inkscape:cy="26.184354"
     inkscape:window-width="1920"
     inkscape:window-height="1043"
     inkscape:window-x="0"
     inkscape:window-y="0"
     inkscape:window-maximized="1"
     inkscape:current-layer="layer1"
     inkscape:snap-bbox="true"
     inkscape:bbox-paths="true"
     inkscape:bbox-nodes="true"
     inkscape:snap-bbox-edge-midpoints="true"
     inkscape:snap-bbox-midpoints="true"
     inkscape:object-paths="true"
     inkscape:snap-intersection-paths="true"
     inkscape:snap-smooth-nodes="true"
     inkscape:snap-midpoints="true"
     inkscape:snap-object-midpoints="true"
     inkscape:snap-center="true"
     inkscape:showpageshadow="2"
     inkscape:deskcolor="#d1d1d1">
    <inkscape:grid
       type="xygrid"
       id="grid17251"
       originx="0"
       originy="0"
       spacingy="1"
       spacingx="1"
       units="px" />
  </sodipodi:namedview>
  <defs
     id="defs17183" />
  <g
     inkscape:label="Layer 1"
     inkscape:groupmode="layer"
     id="layer1">
    <path
       id="path3"
       style="fill:#000000;stroke-width:1"
       d="M 8 8 C 5.8 8 4.0195312 9.7999999 4.0195312 12 L 4 36 C 4 38.2 5.8 40 8 40 L 40 40 C 42.2 40 44 38.2 44 36 L 44 16 C 44 13.8 42.2 12 40 12 L 24 12 L 20 8 L 8 8 z M 8 12 L 18.339844 12 L 22.339844 16 L 40 16 L 40 36 L 8 36 L 8 12 z M 30 17.75 L 27.75 20.75 L 29.25 20.75 L 29.25 26.75 L 27 26.75 L 27 25.197266 C 27.525 24.919766 27.900391 24.3875 27.900391 23.75 C 27.900391 22.8425 27.1575 22.099609 26.25 22.099609 C 25.3425 22.099609 24.599609 22.8425 24.599609 23.75 C 24.599609 24.3875 24.975 24.919766 25.5 25.197266 L 25.5 26.75 C 25.5 27.5825 26.1675 28.25 27 28.25 L 29.25 28.25 L 29.25 30.537109 C 28.7175 30.814609 28.349609 31.3625 28.349609 32 C 28.349609 32.915 29.0925 33.650391 30 33.650391 C 30.9075 33.650391 31.650391 32.915 31.650391 32 C 31.650391 31.3625 31.2825 30.814609 30.75 30.537109 L 30.75 28.25 L 33 28.25 C 33.8325 28.25 34.5 27.5825 34.5 26.75 L 34.5 25.25 L 35.25 25.25 L 35.25 22.25 L 32.25 22.25 L 32.25 25.25 L 33 25.25 L 33 26.75 L 30.75 26.75 L 30.75 20.75 L 32.25 20.75 L 30 17.75 z " />
  </g>
</svg>
