<?xml version="1.0" encoding="UTF-8" standalone="no"?>
<!-- Created with Inkscape (http://www.inkscape.org/) -->

<svg
   xmlns:dc="http://purl.org/dc/elements/1.1/"
   xmlns:cc="http://creativecommons.org/ns#"
   xmlns:rdf="http://www.w3.org/1999/02/22-rdf-syntax-ns#"
   xmlns:svg="http://www.w3.org/2000/svg"
   xmlns="http://www.w3.org/2000/svg"
   xmlns:sodipodi="http://sodipodi.sourceforge.net/DTD/sodipodi-0.dtd"
   xmlns:inkscape="http://www.inkscape.org/namespaces/inkscape"
   width="56"
   height="56"
   viewBox="0 0 56 56"
   version="1.1"
   id="SVGRoot"
   inkscape:version="0.92.4 (5da689c313, 2019-01-14)"
   sodipodi:docname="ic_fabtv_preferences.svg">
  <defs
     id="defs7678" />
  <sodipodi:namedview
     id="base"
     pagecolor="#ffffff"
     bordercolor="#666666"
     borderopacity="1.0"
     inkscape:pageopacity="0.0"
     inkscape:pageshadow="2"
     inkscape:zoom="8.0000004"
     inkscape:cx="-20.463244"
     inkscape:cy="22.565383"
     inkscape:document-units="px"
     inkscape:current-layer="layer1"
     showgrid="true"
     inkscape:window-width="1920"
     inkscape:window-height="1016"
     inkscape:window-x="0"
     inkscape:window-y="1107"
     inkscape:window-maximized="1"
     inkscape:grid-bbox="true"
     inkscape:snap-bbox="true"
     inkscape:bbox-paths="true"
     inkscape:snap-bbox-edge-midpoints="true"
     inkscape:bbox-nodes="true"
     inkscape:snap-bbox-midpoints="true"
     inkscape:object-paths="true"
     inkscape:snap-intersection-paths="true"
     inkscape:snap-smooth-nodes="true"
     inkscape:snap-midpoints="true"
     inkscape:snap-object-midpoints="true"
     inkscape:snap-center="true">
    <inkscape:grid
       type="xygrid"
       id="grid8234" />
  </sodipodi:namedview>
  <metadata
     id="metadata7681">
    <rdf:RDF>
      <cc:Work
         rdf:about="">
        <dc:format>image/svg+xml</dc:format>
        <dc:type
           rdf:resource="http://purl.org/dc/dcmitype/StillImage" />
        <dc:title />
      </cc:Work>
    </rdf:RDF>
  </metadata>
  <g
     inkscape:label="Layer 1"
     inkscape:groupmode="layer"
     id="layer1"
     transform="translate(0,8)">
    <circle
       style="color:#000000;display:inline;overflow:visible;visibility:visible;opacity:1;vector-effect:none;fill:#ff8800;fill-opacity:1;fill-rule:nonzero;stroke:none;stroke-width:17.63779449;stroke-linecap:butt;stroke-linejoin:round;stroke-miterlimit:4;stroke-dasharray:none;stroke-dashoffset:0;stroke-opacity:1;marker:none;enable-background:accumulate"
       id="circle17977"
       cx="28"
       cy="20"
       r="28" />
    <path
       style="color:#000000;display:inline;overflow:visible;visibility:visible;opacity:1;fill:#fafafa;fill-opacity:1;fill-rule:nonzero;stroke:none;stroke-width:0.62504524;stroke-linecap:round;stroke-linejoin:round;stroke-miterlimit:4;stroke-dasharray:none;stroke-dashoffset:0;stroke-opacity:1;marker:none;enable-background:accumulate"
       d="m 24.4189,10.62741 v 0.002 c -0.15,0.0128 -0.2989,0.0591 -0.4443,0.14812 l -1.9483,1.12631 c -0.1497,0.0816 -0.2654,0.18737 -0.3515,0.31088 -0.2584,0.37049 -0.2529,0.89841 -0.1075,1.3965 l 0.5128,1.79038 c -0.4202,0.54179 -0.7626,1.13728 -1.0206,1.77249 l -1.8099,0.45409 c -0.5035,0.12301 -0.9637,0.3793 -1.1556,0.78777 v 0.002 C 18.031,18.55399 18,18.7092 18,18.87694 v 2.24936 c 0,0.16624 0.03,0.32432 0.094,0.46063 0.1916,0.40901 0.6534,0.66631 1.1573,0.78939 l 1.8049,0.45248 c 0.2594,0.63234 0.6036,1.22534 1.0239,1.76434 l -0.5128,1.7969 c -0.1452,0.49795 -0.1526,1.02605 0.1058,1.3965 0.086,0.12344 0.2018,0.23108 0.3516,0.3125 l 1.9499,1.12306 c 0.1454,0.0889 0.2943,0.1353 0.4443,0.14811 0.4501,0.0386 0.9029,-0.23063 1.2614,-0.60547 l 1.2972,-1.33953 c 0.3388,0.0494 0.6798,0.0722 1.0222,0.0748 0.3407,-0.003 0.6818,-0.0257 1.0189,-0.0748 l 1.2956,1.33953 c 0.3586,0.37486 0.813,0.64566 1.2631,0.60709 0.1499,-0.0129 0.3004,-0.0608 0.4459,-0.14973 l 1.9466,-1.12469 c 0.1497,-0.0815 0.2672,-0.18738 0.3533,-0.31087 0.2584,-0.37043 0.2494,-0.9002 0.104,-1.39813 l -0.5078,-1.78387 c 0.4206,-0.5421 0.7641,-1.14006 1.0223,-1.77574 l 1.8098,-0.45248 C 37.2553,22.25323 37.7155,21.99595 37.907,21.58693 37.971,21.45057 38,21.29935 38,21.1263 v -2.24936 c 0,-0.16818 -0.03,-0.3243 -0.094,-0.46062 -0.1916,-0.409 -0.6517,-0.66631 -1.1556,-0.7894 l -1.8082,-0.45084 c -0.2593,-0.63277 -0.6035,-1.22821 -1.0239,-1.76761 l 0.5144,-1.79851 c 0.1453,-0.4981 0.1509,-1.02599 -0.1075,-1.3965 -0.086,-0.12348 -0.2017,-0.23108 -0.3515,-0.3125 L 32.0254,10.7779 c -0.1455,-0.0889 -0.296,-0.1353 -0.4459,-0.14812 -0.4502,-0.0385 -0.9044,0.2321 -1.2631,0.60711 l -1.2972,1.34278 c -0.338,-0.0493 -0.6773,-0.077 -1.0189,-0.0798 -0.3407,0.003 -0.6834,0.0307 -1.0205,0.0798 l -1.3005,-1.3444 C 25.3206,10.86025 24.868,10.58966 24.4179,10.62816 Z m 3.5824,5.20513 a 4.1667083,4.1667083 0 0 1 4.1666,4.16671 4.1667083,4.1667083 0 0 1 -4.1666,4.16671 4.1667083,4.1667083 0 0 1 -4.1668,-4.16671 4.1667083,4.1667083 0 0 1 4.1668,-4.16671 z m 0,2.50002 a 1.6666833,1.6666833 0 0 0 -1.6667,1.66669 1.6666833,1.6666833 0 0 0 1.6667,1.66668 1.6666833,1.6666833 0 0 0 1.6667,-1.66668 1.6666833,1.6666833 0 0 0 -1.6667,-1.66669 z"
       id="circle9559-8-5"
       inkscape:connector-curvature="0" />
  </g>
</svg>
