<?xml version="1.0" encoding="UTF-8" standalone="no"?>
<!-- Created with Inkscape (http://www.inkscape.org/) -->

<svg
   width="48.0px"
   height="48.0px"
   viewBox="0 0 48.0 48.0"
   version="1.1"
   id="SVGRoot"
   sodipodi:docname="ic_browser_downoad_2.svg"
   inkscape:version="1.2.2 (b0a8486541, 2022-12-01)"
   xmlns:inkscape="http://www.inkscape.org/namespaces/inkscape"
   xmlns:sodipodi="http://sodipodi.sourceforge.net/DTD/sodipodi-0.dtd"
   xmlns="http://www.w3.org/2000/svg"
   xmlns:svg="http://www.w3.org/2000/svg">
  <sodipodi:namedview
     id="namedview17188"
     pagecolor="#ffffff"
     bordercolor="#111111"
     borderopacity="1"
     inkscape:pageshadow="0"
     inkscape:pageopacity="0"
     inkscape:pagecheckerboard="1"
     inkscape:document-units="px"
     showgrid="true"
     inkscape:zoom="10.248373"
     inkscape:cx="18.198011"
     inkscape:cy="22.491375"
     inkscape:window-width="1600"
     inkscape:window-height="829"
     inkscape:window-x="0"
     inkscape:window-y="0"
     inkscape:window-maximized="1"
     inkscape:current-layer="layer1"
     inkscape:snap-bbox="true"
     inkscape:bbox-paths="true"
     inkscape:bbox-nodes="true"
     inkscape:snap-bbox-edge-midpoints="true"
     inkscape:snap-bbox-midpoints="true"
     inkscape:object-paths="true"
     inkscape:snap-intersection-paths="true"
     inkscape:snap-smooth-nodes="true"
     inkscape:snap-midpoints="true"
     inkscape:snap-object-midpoints="true"
     inkscape:snap-center="true"
     inkscape:showpageshadow="2"
     inkscape:deskcolor="#d1d1d1">
    <inkscape:grid
       type="xygrid"
       id="grid17251" />
  </sodipodi:namedview>
  <defs
     id="defs17183" />
  <g
     inkscape:label="Layer 1"
     inkscape:groupmode="layer"
     id="layer1">
    <path
       id="path12215"
       style="stroke-width:1;fill:#000000"
       d="M 8 8 C 5.8000022 8 4.0195313 9.8000018 4.0195312 12 L 4 36 C 4 38.199998 5.8000022 40 8 40 L 40 40 C 42.199998 40 44 38.199998 44 36 L 44 16 C 44 13.800002 42.199998 12 40 12 L 24 12 L 20 8 L 8 8 z M 8 12 L 18.339844 12 L 22.339844 16 L 40 16 L 40 36 L 8 36 L 8 12 z M 28.5 19.25 C 28.087501 19.25 27.75 19.5875 27.75 20 L 27.75 23.75 L 26.556641 23.75 C 25.889143 23.75 25.552893 24.560704 26.025391 25.033203 L 29.466797 28.474609 C 29.759296 28.767109 30.232892 28.767109 30.525391 28.474609 L 33.966797 25.033203 C 34.439294 24.560704 34.110856 23.75 33.443359 23.75 L 32.25 23.75 L 32.25 20 C 32.25 19.5875 31.912499 19.25 31.5 19.25 L 28.5 19.25 z M 25.5 30.5 C 25.087501 30.5 24.75 30.8375 24.75 31.25 C 24.75 31.6625 25.087501 32 25.5 32 L 34.5 32 C 34.912498 32 35.25 31.6625 35.25 31.25 C 35.25 30.8375 34.912498 30.5 34.5 30.5 L 25.5 30.5 z " />
  </g>
</svg>
