<?xml version="1.0" encoding="UTF-8" standalone="no"?>
<!-- Created with Inkscape (http://www.inkscape.org/) -->

<svg
   xmlns:dc="http://purl.org/dc/elements/1.1/"
   xmlns:cc="http://creativecommons.org/ns#"
   xmlns:rdf="http://www.w3.org/1999/02/22-rdf-syntax-ns#"
   xmlns:svg="http://www.w3.org/2000/svg"
   xmlns="http://www.w3.org/2000/svg"
   xmlns:sodipodi="http://sodipodi.sourceforge.net/DTD/sodipodi-0.dtd"
   xmlns:inkscape="http://www.inkscape.org/namespaces/inkscape"
   width="24"
   height="24"
   viewBox="0 0 24 24"
   version="1.1"
   id="SVGRoot"
   inkscape:version="0.92.4 (5da689c313, 2019-01-14)"
   sodipodi:docname="ic_fab_shuffle.svg">
  <defs
     id="defs9728" />
  <sodipodi:namedview
     id="base"
     pagecolor="#ffffff"
     bordercolor="#666666"
     borderopacity="1.0"
     inkscape:pageopacity="0.0"
     inkscape:pageshadow="2"
     inkscape:zoom="25.6"
     inkscape:cx="11.109183"
     inkscape:cy="14.463789"
     inkscape:document-units="px"
     inkscape:current-layer="layer1"
     showgrid="true"
     inkscape:window-width="1920"
     inkscape:window-height="1080"
     inkscape:window-x="0"
     inkscape:window-y="0"
     inkscape:window-maximized="1"
     inkscape:grid-bbox="true">
    <inkscape:grid
       type="xygrid"
       id="grid10288" />
    <inkscape:grid
       type="xygrid"
       id="grid10290"
       color="#ff0000"
       opacity="0.1254902"
       spacingx="20"
       spacingy="20"
       empspacing="20"
       originx="2"
       originy="2"
       empcolor="#ff0000"
       empopacity="0.1254902" />
  </sodipodi:namedview>
  <metadata
     id="metadata9731">
    <rdf:RDF>
      <cc:Work
         rdf:about="">
        <dc:format>image/svg+xml</dc:format>
        <dc:type
           rdf:resource="http://purl.org/dc/dcmitype/StillImage" />
        <dc:title></dc:title>
      </cc:Work>
    </rdf:RDF>
    <rdf:RDF>
      <cc:Work
         rdf:about="">
        <dc:title></dc:title>
      </cc:Work>
    </rdf:RDF>
  </metadata>
  <g
     inkscape:label="Layer 1"
     inkscape:groupmode="layer"
     id="layer1"
     transform="translate(0,4)">
    <path
       inkscape:connector-curvature="0"
       style="color:#000000;font-style:normal;font-variant:normal;font-weight:normal;font-stretch:normal;font-size:medium;line-height:normal;font-family:sans-serif;font-variant-ligatures:normal;font-variant-position:normal;font-variant-caps:normal;font-variant-numeric:normal;font-variant-alternates:normal;font-feature-settings:normal;text-indent:0;text-align:start;text-decoration:none;text-decoration-line:none;text-decoration-style:solid;text-decoration-color:#000000;letter-spacing:normal;word-spacing:normal;text-transform:none;writing-mode:lr-tb;direction:ltr;text-orientation:mixed;dominant-baseline:auto;baseline-shift:baseline;text-anchor:start;white-space:normal;shape-padding:0;clip-rule:nonzero;display:inline;overflow:visible;visibility:visible;opacity:1;isolation:auto;mix-blend-mode:normal;color-interpolation:sRGB;color-interpolation-filters:linearRGB;solid-color:#000000;solid-opacity:1;vector-effect:none;fill:#000000;fill-opacity:1;fill-rule:evenodd;stroke:none;stroke-width:2;stroke-linecap:butt;stroke-linejoin:round;stroke-miterlimit:4;stroke-dasharray:none;stroke-dashoffset:0;stroke-opacity:1;color-rendering:auto;image-rendering:auto;shape-rendering:auto;text-rendering:auto;enable-background:accumulate"
       d="m 3.5,-1.9999999 c -0.82843,0 -1.5,0.67157 -1.5,1.49999998 6e-5,0.3978 0.15813,0.77929 0.43945,1.06055 L 7.75781,5.87891 9.87891,3.75781 4.56836,-1.5527299 C 4.27929,-1.84187 3.8978,-1.9999399 3.5,-1.9999999 Z m 12.5,0 c -0.56391,-1.8e-4 -1.01646,0.4656299 -1,1.02929998 0.008,0.25501 0.11244,0.49746 0.29297,0.67773 L 16.73242,1.1464801 12,5.87891 9.87891,8 2.44727,15.43164 C 2.15813,15.72071 2.00006,16.1022 2,16.5 2,17.32843 2.67157,18 3.5,18 c 0.3978,-6e-5 0.77929,-0.15813 1.06055,-0.43945 L 12,10.12109 14.12109,8 18.85352,3.26758 20.29297,4.70703 C 20.90063,5.33332 21.99677,4.89021 22,4 v -5.9999999 z m 0.24219,12.1210899 -2.1211,2.1211 2.61133,2.61133 -1.43945,1.43945 C 14.66668,16.90063 15.10979,17.99677 16,18 H 20.5 22 V 16.5 12 c 1.8e-4,-0.56391 -0.46563,-1.01646 -1.0293,-1 -0.25501,0.008 -0.49746,0.11244 -0.67773,0.29297 l -1.43945,1.43945 z"
       id="path8243" />
  </g>
</svg>
