<?xml version="1.0" encoding="UTF-8" standalone="no"?>
<!-- Created with Inkscape (http://www.inkscape.org/) -->

<svg
   width="96"
   height="96"
   viewBox="0 0 96 96"
   version="1.1"
   id="SVGRoot"
   sodipodi:docname="ic_folder_usb_big.svg"
   inkscape:version="1.4 (1:1.4+202410161351+e7c3feb100)"
   xmlns:inkscape="http://www.inkscape.org/namespaces/inkscape"
   xmlns:sodipodi="http://sodipodi.sourceforge.net/DTD/sodipodi-0.dtd"
   xmlns="http://www.w3.org/2000/svg"
   xmlns:svg="http://www.w3.org/2000/svg">
  <sodipodi:namedview
     id="namedview17188"
     pagecolor="#ffffff"
     bordercolor="#111111"
     borderopacity="1"
     inkscape:pageshadow="0"
     inkscape:pageopacity="0"
     inkscape:pagecheckerboard="1"
     inkscape:document-units="px"
     showgrid="true"
     inkscape:zoom="5.1241865"
     inkscape:cx="57.862843"
     inkscape:cy="39.908774"
     inkscape:window-width="1920"
     inkscape:window-height="1043"
     inkscape:window-x="0"
     inkscape:window-y="0"
     inkscape:window-maximized="1"
     inkscape:current-layer="layer1"
     inkscape:snap-bbox="true"
     inkscape:bbox-paths="true"
     inkscape:bbox-nodes="true"
     inkscape:snap-bbox-edge-midpoints="true"
     inkscape:snap-bbox-midpoints="true"
     inkscape:object-paths="true"
     inkscape:snap-intersection-paths="true"
     inkscape:snap-smooth-nodes="true"
     inkscape:snap-midpoints="true"
     inkscape:snap-object-midpoints="true"
     inkscape:snap-center="true"
     inkscape:showpageshadow="2"
     inkscape:deskcolor="#d1d1d1">
    <inkscape:grid
       type="xygrid"
       id="grid17251"
       originx="0"
       originy="0"
       spacingy="1"
       spacingx="1"
       units="px"
       visible="true"
       empspacing="4" />
  </sodipodi:namedview>
  <defs
     id="defs17183" />
  <g
     inkscape:label="Layer 1"
     inkscape:groupmode="layer"
     id="layer1">
    <path
       id="path26442"
       style="color:#000000;overflow:visible;fill:none;stroke:#000000;stroke-width:6;stroke-linecap:butt;stroke-linejoin:round;stroke-miterlimit:4;stroke-dasharray:none;paint-order:markers fill stroke;stop-color:#000000"
       d="m 14.00016,77.000069 h 68 c 1.6569,0 3,-1.3431 3,-3 v -41.9999 c 0,-1.657 -1.3431,-3.0001 -3,-3.0001 l -35.2401,10e-5 -9.9997,-10 h -22.7602 c -1.6569,0 -3,1.3431 -3,3 v 51.9999 c 0,1.6569 1.3431,3 3,3 z"
       sodipodi:nodetypes="ccccccccccc" />
    <path
       d="m 43.00014,34.999569 h 36 v 36 h -36 z"
       fill="none"
       id="path1"
       style="stroke-width:2" />
    <path
       d="m 65.50014,45.499569 v 6 h 1.5 v 3 h -4.5 v -12 h 3 l -4.5,-6 -4.5,6 h 3 v 12 h -4.5 v -3.105 c 1.05,-0.555 1.8,-1.62 1.8,-2.895 0,-1.815 -1.485,-3.3 -3.3,-3.3 -1.815,0 -3.3,1.485 -3.3,3.3 0,1.275 0.75,2.34 1.8,2.895 v 3.105 c 0,1.665 1.335,3 3,3 h 4.5 v 4.575 c -1.065,0.555 -1.8,1.65 -1.8,2.925 0,1.83 1.485,3.3 3.3,3.3 1.815,0 3.3,-1.47 3.3,-3.3 0,-1.275 -0.735,-2.37 -1.8,-2.925 v -4.575 h 4.5 c 1.665,0 3,-1.335 3,-3 v -3 h 1.5 v -6 z"
       id="path2-36"
       style="stroke-width:2" />
  </g>
</svg>
