<?xml version="1.0" encoding="UTF-8" standalone="no"?>
<!-- Created with Inkscape (http://www.inkscape.org/) -->

<svg
   width="96"
   height="96"
   viewBox="0 0 96 96"
   version="1.1"
   id="SVGRoot"
   sodipodi:docname="ic_browser_music_big.svg"
   inkscape:version="1.2.2 (b0a8486541, 2022-12-01)"
   xmlns:inkscape="http://www.inkscape.org/namespaces/inkscape"
   xmlns:sodipodi="http://sodipodi.sourceforge.net/DTD/sodipodi-0.dtd"
   xmlns="http://www.w3.org/2000/svg"
   xmlns:svg="http://www.w3.org/2000/svg">
  <sodipodi:namedview
     id="namedview17188"
     pagecolor="#ffffff"
     bordercolor="#111111"
     borderopacity="1"
     inkscape:pageshadow="0"
     inkscape:pageopacity="0"
     inkscape:pagecheckerboard="1"
     inkscape:document-units="px"
     showgrid="true"
     inkscape:zoom="5.1241865"
     inkscape:cx="54.154938"
     inkscape:cy="40.884538"
     inkscape:window-width="1600"
     inkscape:window-height="829"
     inkscape:window-x="0"
     inkscape:window-y="0"
     inkscape:window-maximized="1"
     inkscape:current-layer="layer1"
     inkscape:snap-bbox="true"
     inkscape:bbox-paths="true"
     inkscape:bbox-nodes="true"
     inkscape:snap-bbox-edge-midpoints="true"
     inkscape:snap-bbox-midpoints="true"
     inkscape:object-paths="true"
     inkscape:snap-intersection-paths="true"
     inkscape:snap-smooth-nodes="true"
     inkscape:snap-midpoints="true"
     inkscape:snap-object-midpoints="true"
     inkscape:snap-center="true"
     inkscape:showpageshadow="2"
     inkscape:deskcolor="#d1d1d1">
    <inkscape:grid
       type="xygrid"
       id="grid17251"
       originx="0"
       originy="0" />
  </sodipodi:namedview>
  <defs
     id="defs17183" />
  <g
     inkscape:label="Layer 1"
     inkscape:groupmode="layer"
     id="layer1">
    <path
       id="path26444"
       style="color:#000000;fill:#000000;stroke-linejoin:round;-inkscape-stroke:none;paint-order:markers fill stroke"
       d="M 14 16 C 10.721886 16 8 18.721886 8 22 L 8 74 C 8 77.278114 10.721886 80 14 80 L 82 80 C 85.278114 80 88 77.278114 88 74 L 88 32 C 88 28.721884 85.278114 26 82 26 L 48.001953 26 L 38.880859 16.878906 A 3.0003 3.0003 0 0 0 36.759766 16 L 14 16 z M 14 22 L 35.517578 22 L 44.638672 31.121094 A 3.0003 3.0003 0 0 0 46.759766 32 L 82 32 L 82 74 L 14 74 L 14 22 z M 64 39.5 C 62.350002 39.5 61 40.850002 61 42.5 L 61 55.3125 C 60.115631 54.797001 59.090419 54.5 58 54.5 C 54.704073 54.5 52 57.204103 52 60.5 C 52 63.795997 54.704073 66.5 58 66.5 C 61.295927 66.5 64 63.795997 64 60.5 L 64 45.5 L 67 45.5 C 68.649998 45.5 70 44.149998 70 42.5 L 70 39.5 L 64 39.5 z M 58 57.5 C 59.674618 57.5 61 58.825302 61 60.5 C 61 62.174598 59.674618 63.5 58 63.5 C 56.325382 63.5 55 62.174598 55 60.5 C 55 58.825302 56.325382 57.5 58 57.5 z " />
  </g>
</svg>
