<?xml version="1.0" encoding="UTF-8" standalone="no"?>
<!-- Created with Inkscape (http://www.inkscape.org/) -->

<svg
   width="96"
   height="96"
   viewBox="0 0 25.399999 25.400001"
   version="1.1"
   id="svg6620"
   inkscape:version="1.1.2 (0a00cf5339, 2022-02-04)"
   sodipodi:docname="ic_fav_empty.svg"
   xmlns:inkscape="http://www.inkscape.org/namespaces/inkscape"
   xmlns:sodipodi="http://sodipodi.sourceforge.net/DTD/sodipodi-0.dtd"
   xmlns="http://www.w3.org/2000/svg"
   xmlns:svg="http://www.w3.org/2000/svg"
   xmlns:rdf="http://www.w3.org/1999/02/22-rdf-syntax-ns#"
   xmlns:cc="http://creativecommons.org/ns#"
   xmlns:dc="http://purl.org/dc/elements/1.1/">
  <defs
     id="defs6614" />
  <sodipodi:namedview
     id="base"
     pagecolor="#ffffff"
     bordercolor="#666666"
     borderopacity="1.0"
     inkscape:pageopacity="0.0"
     inkscape:pageshadow="2"
     inkscape:zoom="5.6"
     inkscape:cx="50.178571"
     inkscape:cy="40"
     inkscape:document-units="mm"
     inkscape:current-layer="layer1"
     showgrid="true"
     units="px"
     inkscape:window-width="1920"
     inkscape:window-height="1043"
     inkscape:window-x="0"
     inkscape:window-y="0"
     inkscape:window-maximized="1"
     inkscape:pagecheckerboard="1">
    <inkscape:grid
       type="xygrid"
       id="grid7165" />
  </sodipodi:namedview>
  <metadata
     id="metadata6617">
    <rdf:RDF>
      <cc:Work
         rdf:about="">
        <dc:format>image/svg+xml</dc:format>
        <dc:type
           rdf:resource="http://purl.org/dc/dcmitype/StillImage" />
      </cc:Work>
    </rdf:RDF>
  </metadata>
  <g
     inkscape:label="Layer 1"
     inkscape:groupmode="layer"
     id="layer1"
     transform="translate(0,-271.59998)">
    <path
       id="path8032"
       style="fill:#000000;stroke-width:0.529164"
       d="M 47.996094 9.8007812 C 42.939211 9.8005167 38.682997 13.134089 36.814453 17.552734 A 3.0002999 3.0002999 0 0 0 36.732422 17.773438 L 32.746094 29.740234 A 3.0002999 3.0002999 0 0 0 32.746094 29.748047 L 27.246094 46.246094 L 25.179688 52.447266 L 21.541016 52.447266 C 18.20246 52.447266 15.496805 54.719496 14.59375 57.798828 L 11.398438 68.695312 A 3.0002999 3.0002999 0 0 0 11.390625 68.703125 C 10.343853 72.279541 9.3111051 75.825931 8.2597656 79.419922 C 7.5572123 81.818108 8.3783254 84.305223 9.6484375 85.673828 C 10.435159 86.519724 11.299726 87.050471 12.083984 87.408203 A 3.0002999 3.0002999 0 0 0 12.121094 87.423828 C 12.413028 87.551954 12.703123 87.655951 12.962891 87.740234 A 3.0002999 3.0002999 0 0 0 13.382812 87.851562 C 15.924654 88.285377 18.992703 87.763783 22.138672 85.820312 C 24.144125 84.57802 25.311638 84.433616 26.398438 84.550781 C 27.485237 84.667947 28.662351 85.200873 30.185547 85.955078 C 31.708743 86.709245 33.579243 87.687839 35.994141 87.947266 C 38.409038 88.206541 41.201931 87.592911 44.070312 85.820312 C 46.075809 84.577982 47.243524 84.433616 48.330078 84.550781 C 49.416636 84.667947 50.592266 85.200873 52.115234 85.955078 C 53.638199 86.709245 55.510984 87.687839 57.925781 87.947266 C 60.340578 88.206541 63.1258 87.592911 65.994141 85.820312 A 3.0002999 3.0002999 0 0 0 66.001953 85.820312 C 69.3161 83.767349 70.380548 84.281974 72.564453 85.246094 C 74.748355 86.210176 77.818496 88.414351 82.175781 87.939453 A 3.0002999 3.0002999 0 0 0 82.478516 87.888672 C 82.944165 87.788514 83.429588 87.626978 83.888672 87.423828 A 3.0002999 3.0002999 0 0 0 83.917969 87.408203 C 84.702277 87.050282 85.558994 86.519724 86.345703 85.673828 A 3.0002999 3.0002999 0 0 0 86.353516 85.673828 C 87.622775 84.307642 88.445928 81.822114 87.742188 79.419922 C 86.69084 75.825931 85.65026 72.279541 84.603516 68.703125 A 3.0002999 3.0002999 0 0 0 84.603516 68.701172 A 3.0002999 3.0002999 0 0 0 84.603516 68.699219 A 3.0002999 3.0002999 0 0 0 84.603516 68.697266 A 3.0002999 3.0002999 0 0 0 84.603516 68.695312 L 81.400391 57.798828 C 80.497352 54.719496 77.799492 52.447266 74.460938 52.447266 L 70.822266 52.447266 L 68.755859 46.246094 L 63.255859 29.740234 L 59.298828 17.871094 A 3.0002999 3.0002999 0 0 0 59.232422 17.677734 C 57.396165 13.193287 53.102469 9.8027344 47.998047 9.8027344 L 47.996094 9.8007812 z M 47.996094 15.794922 C 50.305468 15.794922 52.689435 17.571467 53.666016 19.945312 L 57.564453 31.644531 L 63.064453 48.142578 L 65.816406 56.388672 A 3.0002999 3.0002999 0 0 0 68.658203 58.441406 L 74.460938 58.441406 C 74.779212 58.441406 75.476921 58.923393 75.642578 59.488281 A 3.0002999 3.0002999 0 0 0 75.650391 59.488281 L 78.845703 70.392578 C 79.891434 73.965517 80.933515 77.511226 81.984375 81.103516 C 82.160841 81.705935 82.103059 81.42842 81.953125 81.589844 C 81.861282 81.688489 81.642709 81.847423 81.429688 81.945312 C 79.50005 82.118415 77.888182 81.038229 74.992188 79.759766 C 72.053435 78.462443 67.569952 77.789881 62.841797 80.71875 L 62.841797 80.710938 C 60.828858 81.954818 59.659346 82.099625 58.568359 81.982422 C 57.477369 81.865257 56.295434 81.331838 54.773438 80.578125 C 53.251437 79.824412 51.382964 78.846045 48.970703 78.585938 C 46.558446 78.325906 43.771999 78.945963 40.910156 80.71875 L 40.917969 80.710938 C 38.905064 81.954818 37.727956 82.097672 36.636719 81.980469 C 35.545481 81.863303 34.371839 81.331838 32.849609 80.578125 C 31.327379 79.824412 29.453373 78.846045 27.041016 78.585938 C 24.628658 78.325906 21.840392 78.945963 18.978516 80.71875 L 18.986328 80.710938 C 16.833911 82.040651 15.685467 82.088649 14.505859 81.900391 C 14.318259 81.802879 14.12986 81.676773 14.048828 81.589844 A 3.0002999 3.0002999 0 0 0 14.041016 81.589844 C 13.892166 81.42997 13.84268 81.707144 14.019531 81.103516 C 15.070383 77.511226 16.102687 73.965479 17.148438 70.392578 L 17.148438 70.384766 L 20.351562 59.488281 C 20.517227 58.923393 21.222755 58.439453 21.541016 58.439453 L 27.341797 58.439453 A 3.0002999 3.0002999 0 0 0 30.183594 56.388672 L 32.9375 48.142578 L 38.4375 31.644531 L 42.357422 19.876953 C 43.354851 17.539655 45.712556 15.794808 47.996094 15.794922 z M 43.904297 51.767578 C 42.589031 51.758704 41.324594 52.36874 40.5 53.333984 C 39.180559 51.789594 36.737063 51.160285 34.757812 52.509766 C 33.700683 53.229388 33.046952 54.451955 33.001953 55.726562 C 32.904453 58.635287 35.476101 60.966235 39.412109 64.527344 L 39.496094 64.601562 C 40.065725 65.130205 40.941819 65.130585 41.511719 64.613281 L 41.585938 64.542969 C 45.52204 60.966893 48.101089 58.635287 47.996094 55.726562 C 47.951091 54.451955 47.299227 53.229388 46.242188 52.509766 C 45.499968 52.00089 44.693456 51.772902 43.904297 51.767578 z M 59.722656 53.412109 C 58.670444 53.40502 57.659688 53.893764 57 54.666016 C 55.944503 53.430412 53.989649 52.926237 52.40625 54.005859 C 51.56055 54.581633 51.037859 55.558522 51.001953 56.578125 C 50.923955 58.905218 52.982059 60.770246 56.130859 63.619141 L 56.195312 63.679688 C 56.651014 64.104922 57.354649 64.105302 57.810547 63.691406 L 57.869141 63.630859 C 61.017941 60.769946 63.082028 58.905218 62.998047 56.578125 C 62.962047 55.558522 62.439347 54.581633 61.59375 54.005859 C 60.999974 53.598762 60.353984 53.416363 59.722656 53.412109 z "
       transform="matrix(0.26458333,0,0,0.26458333,0,271.59998)" />
  </g>
</svg>
