<?xml version="1.0" encoding="UTF-8" standalone="no"?>
<!-- Created with Inkscape (http://www.inkscape.org/) -->

<svg
   width="56"
   height="56"
   viewBox="0 0 56 56"
   version="1.1"
   id="SVGRoot"
   inkscape:version="1.1.2 (0a00cf5339, 2022-02-04)"
   sodipodi:docname="ic_fabtv_preferences.svg"
   xmlns:inkscape="http://www.inkscape.org/namespaces/inkscape"
   xmlns:sodipodi="http://sodipodi.sourceforge.net/DTD/sodipodi-0.dtd"
   xmlns="http://www.w3.org/2000/svg"
   xmlns:svg="http://www.w3.org/2000/svg"
   xmlns:rdf="http://www.w3.org/1999/02/22-rdf-syntax-ns#"
   xmlns:cc="http://creativecommons.org/ns#"
   xmlns:dc="http://purl.org/dc/elements/1.1/">
  <defs
     id="defs7678" />
  <sodipodi:namedview
     id="base"
     pagecolor="#ffffff"
     bordercolor="#666666"
     borderopacity="1.0"
     inkscape:pageopacity="0.0"
     inkscape:pageshadow="2"
     inkscape:zoom="8.0000004"
     inkscape:cx="-20.437499"
     inkscape:cy="22.562499"
     inkscape:document-units="px"
     inkscape:current-layer="layer1"
     showgrid="true"
     inkscape:window-width="2560"
     inkscape:window-height="1376"
     inkscape:window-x="0"
     inkscape:window-y="0"
     inkscape:window-maximized="1"
     inkscape:grid-bbox="true"
     inkscape:snap-bbox="true"
     inkscape:bbox-paths="true"
     inkscape:snap-bbox-edge-midpoints="true"
     inkscape:bbox-nodes="true"
     inkscape:snap-bbox-midpoints="true"
     inkscape:object-paths="true"
     inkscape:snap-intersection-paths="true"
     inkscape:snap-smooth-nodes="true"
     inkscape:snap-midpoints="true"
     inkscape:snap-object-midpoints="true"
     inkscape:snap-center="true"
     inkscape:pagecheckerboard="0">
    <inkscape:grid
       type="xygrid"
       id="grid8234" />
  </sodipodi:namedview>
  <metadata
     id="metadata7681">
    <rdf:RDF>
      <cc:Work
         rdf:about="">
        <dc:format>image/svg+xml</dc:format>
        <dc:type
           rdf:resource="http://purl.org/dc/dcmitype/StillImage" />
      </cc:Work>
    </rdf:RDF>
  </metadata>
  <g
     inkscape:label="Layer 1"
     inkscape:groupmode="layer"
     id="layer1"
     transform="translate(0,8)">
    <circle
       style="color:#000000;display:inline;overflow:visible;visibility:visible;opacity:1;vector-effect:none;fill:#ff8800;fill-opacity:1;fill-rule:nonzero;stroke:none;stroke-width:17.63779449;stroke-linecap:butt;stroke-linejoin:round;stroke-miterlimit:4;stroke-dasharray:none;stroke-dashoffset:0;stroke-opacity:1;marker:none;enable-background:accumulate"
       id="circle17977"
       cx="28"
       cy="20"
       r="28" />
    <g
       style="fill:#ffffff"
       id="g837"
       transform="translate(16,8)">
      <path
         d="M 0,0 H 24 V 24 H 0 Z"
         fill="none"
         id="path825" />
      <path
         d="m 19.43,12.98 c 0.04,-0.32 0.07,-0.64 0.07,-0.98 0,-0.34 -0.03,-0.66 -0.07,-0.98 l 2.11,-1.65 c 0.19,-0.15 0.24,-0.42 0.12,-0.64 l -2,-3.46 C 19.57,5.11 19.4,5.02 19.22,5.02 c -0.06,0 -0.12,0.01 -0.17,0.03 l -2.49,1 C 16.04,5.65 15.48,5.32 14.87,5.07 L 14.49,2.42 C 14.46,2.18 14.25,2 14,2 H 10 C 9.75,2 9.54,2.18 9.51,2.42 L 9.13,5.07 C 8.52,5.32 7.96,5.66 7.44,6.05 l -2.49,-1 C 4.89,5.03 4.83,5.02 4.77,5.02 4.6,5.02 4.43,5.11 4.34,5.27 l -2,3.46 C 2.21,8.95 2.27,9.22 2.46,9.37 l 2.11,1.65 C 4.53,11.34 4.5,11.67 4.5,12 c 0,0.33 0.03,0.66 0.07,0.98 l -2.11,1.65 c -0.19,0.15 -0.24,0.42 -0.12,0.64 l 2,3.46 c 0.09,0.16 0.26,0.25 0.44,0.25 0.06,0 0.12,-0.01 0.17,-0.03 l 2.49,-1 c 0.52,0.4 1.08,0.73 1.69,0.98 l 0.38,2.65 C 9.54,21.82 9.75,22 10,22 h 4 c 0.25,0 0.46,-0.18 0.49,-0.42 l 0.38,-2.65 c 0.61,-0.25 1.17,-0.59 1.69,-0.98 l 2.49,1 c 0.06,0.02 0.12,0.03 0.18,0.03 0.17,0 0.34,-0.09 0.43,-0.25 l 2,-3.46 c 0.12,-0.22 0.07,-0.49 -0.12,-0.64 z m -1.98,-1.71 c 0.04,0.31 0.05,0.52 0.05,0.73 0,0.21 -0.02,0.43 -0.05,0.73 l -0.14,1.13 0.89,0.7 1.08,0.84 -0.7,1.21 -1.27,-0.51 -1.04,-0.42 -0.9,0.68 c -0.43,0.32 -0.84,0.56 -1.25,0.73 L 13.06,17.52 12.9,18.65 12.7,20 H 11.3 L 11.11,18.65 10.95,17.52 9.89,17.09 C 9.46,16.91 9.06,16.68 8.66,16.38 L 7.75,15.68 6.69,16.11 5.42,16.62 4.72,15.41 5.8,14.57 6.69,13.87 6.55,12.74 C 6.52,12.43 6.5,12.2 6.5,12 6.5,11.8 6.52,11.57 6.55,11.27 L 6.69,10.14 5.8,9.44 4.72,8.6 5.42,7.39 6.69,7.9 7.73,8.32 8.63,7.64 C 9.06,7.32 9.47,7.08 9.88,6.91 L 10.94,6.48 11.1,5.35 11.3,4 h 1.39 l 0.19,1.35 0.16,1.13 1.06,0.43 c 0.43,0.18 0.83,0.41 1.23,0.71 l 0.91,0.7 1.06,-0.43 1.27,-0.51 0.7,1.21 -1.07,0.85 -0.89,0.7 z M 12,8 c -2.21,0 -4,1.79 -4,4 0,2.21 1.79,4 4,4 2.21,0 4,-1.79 4,-4 0,-2.21 -1.79,-4 -4,-4 z m 0,6 c -1.1,0 -2,-0.9 -2,-2 0,-1.1 0.9,-2 2,-2 1.1,0 2,0.9 2,2 0,1.1 -0.9,2 -2,2 z"
         id="path827" />
    </g>
  </g>
</svg>
