<?xml version="1.0" encoding="UTF-8" standalone="no"?>
<!-- Created with Inkscape (http://www.inkscape.org/) -->

<svg
   xmlns:dc="http://purl.org/dc/elements/1.1/"
   xmlns:cc="http://creativecommons.org/ns#"
   xmlns:rdf="http://www.w3.org/1999/02/22-rdf-syntax-ns#"
   xmlns:svg="http://www.w3.org/2000/svg"
   xmlns="http://www.w3.org/2000/svg"
   xmlns:sodipodi="http://sodipodi.sourceforge.net/DTD/sodipodi-0.dtd"
   xmlns:inkscape="http://www.inkscape.org/namespaces/inkscape"
   width="48px"
   height="48px"
   viewBox="0 0 48 48"
   version="1.1"
   id="SVGRoot"
   inkscape:version="0.92.4 (5da689c313, 2019-01-14)"
   sodipodi:docname="ic_group_auto.svg">
  <defs
     id="defs7678" />
  <sodipodi:namedview
     id="base"
     pagecolor="#ffffff"
     bordercolor="#666666"
     borderopacity="1.0"
     inkscape:pageopacity="0.0"
     inkscape:pageshadow="2"
     inkscape:zoom="5.6568545"
     inkscape:cx="1.1959097"
     inkscape:cy="30.607437"
     inkscape:document-units="px"
     inkscape:current-layer="layer1"
     showgrid="true"
     inkscape:window-width="1920"
     inkscape:window-height="1016"
     inkscape:window-x="0"
     inkscape:window-y="1107"
     inkscape:window-maximized="1"
     inkscape:grid-bbox="true"
     inkscape:snap-bbox="true"
     inkscape:bbox-paths="true"
     inkscape:snap-bbox-edge-midpoints="true"
     inkscape:bbox-nodes="true"
     inkscape:snap-bbox-midpoints="true"
     inkscape:object-paths="true"
     inkscape:snap-intersection-paths="true"
     inkscape:snap-smooth-nodes="true"
     inkscape:snap-midpoints="true"
     inkscape:snap-object-midpoints="true"
     inkscape:snap-center="true">
    <inkscape:grid
       type="xygrid"
       id="grid8234" />
  </sodipodi:namedview>
  <metadata
     id="metadata7681">
    <rdf:RDF>
      <cc:Work
         rdf:about="">
        <dc:format>image/svg+xml</dc:format>
        <dc:type
           rdf:resource="http://purl.org/dc/dcmitype/StillImage" />
        <dc:title></dc:title>
      </cc:Work>
    </rdf:RDF>
  </metadata>
  <g
     inkscape:label="Layer 1"
     inkscape:groupmode="layer"
     id="layer1">
    <path
       style="opacity:1;fill:#000000;fill-opacity:1;stroke:none;stroke-width:0.75590551;stroke-linecap:round;stroke-linejoin:round;stroke-miterlimit:4;stroke-dasharray:none;stroke-dashoffset:0;stroke-opacity:1;paint-order:markers fill stroke"
       d="m 15,6 c -1.662,0 -3,1.338 -3,3 v 24 c 0,1.662 1.338,3 3,3 h 24 c 1.662,0 3,-1.338 3,-3 V 9 C 42,7.338 40.662,6 39,6 Z m 0,3 H 39 V 33 H 15 Z m 11.685547,3.011719 a 9,9 0 0 0 -7.845703,5.191406 9,9 0 0 0 4.351562,11.960937 9,9 0 0 0 11.902344,-4.242187 1.5,1.5 0 0 0 0.0625,-0.109375 v -0.002 a 1.5,1.5 0 0 0 -0.724609,-1.994141 1.5,1.5 0 0 0 -1.994141,0.726563 6.0000043,6.0000043 0 0 1 -7.972656,2.902343 6.0000043,6.0000043 0 0 1 -2.902344,-7.974609 6.0000043,6.0000043 0 0 1 7.972656,-2.902344 6.0000043,6.0000043 0 0 1 2.074219,1.615235 l -1.462891,1.46289 C 29.833584,18.961574 30.0545,19.49982 30.5,19.5 h 5 c 0.2761,-3e-5 0.5,-0.22387 0.5,-0.5 v -5 c 1e-4,-0.28234 -0.233425,-0.50878 -0.515625,-0.5 -0.1272,0.004 -0.247991,0.05639 -0.337891,0.146484 l -1.408203,1.408204 a 9,9 0 0 0 -2.935547,-2.205079 9,9 0 0 0 -4.113281,-0.83789 z M 6,13 v 26 c 0,1.65685 1.3431,3 3,3 H 35 V 39 H 9 V 13 Z"
       id="rect1776"
       inkscape:connector-curvature="0" />
  </g>
</svg>
