<?xml version="1.0" encoding="UTF-8" standalone="no"?>
<!-- Created with Inkscape (http://www.inkscape.org/) -->

<svg
   width="48px"
   height="48px"
   viewBox="0 0 48 48"
   version="1.1"
   id="SVGRoot"
   inkscape:version="1.3.2 (1:1.3.2+202311252150+091e20ef0f)"
   sodipodi:docname="ic_group_auto.svg"
   xmlns:inkscape="http://www.inkscape.org/namespaces/inkscape"
   xmlns:sodipodi="http://sodipodi.sourceforge.net/DTD/sodipodi-0.dtd"
   xmlns="http://www.w3.org/2000/svg"
   xmlns:svg="http://www.w3.org/2000/svg"
   xmlns:rdf="http://www.w3.org/1999/02/22-rdf-syntax-ns#"
   xmlns:cc="http://creativecommons.org/ns#"
   xmlns:dc="http://purl.org/dc/elements/1.1/">
  <defs
     id="defs7678" />
  <sodipodi:namedview
     id="base"
     pagecolor="#ffffff"
     bordercolor="#666666"
     borderopacity="1.0"
     inkscape:pageopacity="0.0"
     inkscape:pageshadow="2"
     inkscape:zoom="16.000001"
     inkscape:cx="33.968748"
     inkscape:cy="27.031249"
     inkscape:document-units="px"
     inkscape:current-layer="layer1"
     showgrid="true"
     inkscape:window-width="1920"
     inkscape:window-height="1043"
     inkscape:window-x="0"
     inkscape:window-y="0"
     inkscape:window-maximized="1"
     inkscape:grid-bbox="true"
     inkscape:snap-bbox="true"
     inkscape:bbox-paths="true"
     inkscape:snap-bbox-edge-midpoints="true"
     inkscape:bbox-nodes="true"
     inkscape:snap-bbox-midpoints="true"
     inkscape:object-paths="true"
     inkscape:snap-intersection-paths="true"
     inkscape:snap-smooth-nodes="true"
     inkscape:snap-midpoints="true"
     inkscape:snap-object-midpoints="true"
     inkscape:snap-center="true"
     inkscape:pagecheckerboard="1"
     inkscape:showpageshadow="0"
     inkscape:deskcolor="#d1d1d1">
    <inkscape:grid
       type="xygrid"
       id="grid8234"
       originx="0"
       originy="0"
       spacingy="1"
       spacingx="1"
       units="px"
       visible="true" />
  </sodipodi:namedview>
  <metadata
     id="metadata7681">
    <rdf:RDF>
      <cc:Work
         rdf:about="">
        <dc:format>image/svg+xml</dc:format>
        <dc:type
           rdf:resource="http://purl.org/dc/dcmitype/StillImage" />
      </cc:Work>
    </rdf:RDF>
  </metadata>
  <g
     inkscape:label="Layer 1"
     inkscape:groupmode="layer"
     id="layer1">
    <path
       id="path14965"
       style="fill:#000000;fill-opacity:1;stroke:none;stroke-width:0.755906;stroke-linecap:round;stroke-linejoin:round;stroke-miterlimit:4;stroke-dasharray:none;stroke-dashoffset:0;stroke-opacity:1;paint-order:markers fill stroke"
       d="M 16 4 C 13.784002 4 12 5.7840022 12 8 L 12 32 C 12 34.215998 13.784002 36 16 36 L 40 36 C 42.215998 36 44 34.215998 44 32 L 44 8 C 44 5.7840022 42.215998 4 40 4 L 16 4 z M 16 8 L 40 8 L 40 32 L 16 32 L 16 8 z M 28.230469 11.003906 C 28.053714 10.999558 27.876465 10.999756 27.699219 11.005859 L 27.695312 11.005859 C 24.311819 11.122935 21.280258 13.128882 19.849609 16.197266 C 17.748338 20.701833 19.696602 26.056936 24.201172 28.158203 C 28.661221 30.235082 33.962484 28.345626 36.103516 23.916016 C 36.125876 23.880446 36.146726 23.843956 36.166016 23.806641 L 36.166016 23.804688 C 36.516751 23.053933 36.192285 22.161007 35.441406 21.810547 C 34.690125 21.460068 33.796995 21.785478 33.447266 22.537109 C 32.046916 25.539911 28.477669 26.839251 25.474609 25.439453 C 22.470696 24.039088 21.171154 20.468409 22.572266 17.464844 C 23.972615 14.462042 27.541862 13.162703 30.544922 14.5625 C 31.348255 14.939337 32.058009 15.489663 32.623047 16.173828 L 31.15625 17.640625 C 30.84335 17.955715 31.06427 18.493961 31.509766 18.494141 L 36.509766 18.494141 C 36.785865 18.494111 37.009766 18.27027 37.009766 17.994141 L 37.009766 12.994141 C 37.009866 12.711801 36.77634 12.485361 36.494141 12.494141 C 36.366941 12.498141 36.24615 12.550531 36.15625 12.640625 L 34.740234 14.056641 C 33.926671 13.125801 32.930041 12.372463 31.8125 11.84375 C 30.687354 11.319089 29.467752 11.034347 28.230469 11.003906 z M 6 12 A 2 2 0 0 0 4 14 L 4 40 C 4 42.185409 5.8145908 44 8 44 L 34 44 A 2 2 0 0 0 36 42 A 2 2 0 0 0 34 40 L 8 40 L 8 14 A 2 2 0 0 0 6 12 z " />
  </g>
</svg>
