<?xml version="1.0" encoding="UTF-8" standalone="no"?>
<!-- Created with Inkscape (http://www.inkscape.org/) -->

<svg
   xmlns:dc="http://purl.org/dc/elements/1.1/"
   xmlns:cc="http://creativecommons.org/ns#"
   xmlns:rdf="http://www.w3.org/1999/02/22-rdf-syntax-ns#"
   xmlns:svg="http://www.w3.org/2000/svg"
   xmlns="http://www.w3.org/2000/svg"
   xmlns:sodipodi="http://sodipodi.sourceforge.net/DTD/sodipodi-0.dtd"
   xmlns:inkscape="http://www.inkscape.org/namespaces/inkscape"
   width="95"
   height="105"
   id="svg4682"
   version="1.1"
   inkscape:version="0.48.4 r9939"
   sodipodi:docname="ic_gesture_finger_2.svg"
   inkscape:export-filename="/home/corbax/Dev/android/Icons/Test 1/ic_play_normal.png"
   inkscape:export-xdpi="90"
   inkscape:export-ydpi="90">
  <defs
     id="defs4684" />
  <sodipodi:namedview
     id="base"
     pagecolor="#ffffff"
     bordercolor="#666666"
     borderopacity="1.0"
     inkscape:pageopacity="0.0"
     inkscape:pageshadow="2"
     inkscape:zoom="5.6"
     inkscape:cx="61.013286"
     inkscape:cy="59.560275"
     inkscape:document-units="px"
     inkscape:current-layer="layer1"
     showgrid="false"
     inkscape:window-width="1680"
     inkscape:window-height="1026"
     inkscape:window-x="1920"
     inkscape:window-y="24"
     inkscape:window-maximized="1" />
  <metadata
     id="metadata4687">
    <rdf:RDF>
      <cc:Work
         rdf:about="">
        <dc:format>image/svg+xml</dc:format>
        <dc:type
           rdf:resource="http://purl.org/dc/dcmitype/StillImage" />
        <dc:title></dc:title>
      </cc:Work>
    </rdf:RDF>
  </metadata>
  <g
     inkscape:label="Layer 1"
     inkscape:groupmode="layer"
     id="layer1"
     transform="translate(0,-947.36218)">
    <g
       id="g3874"
       transform="matrix(1.25,0,0,1.25,-226.25,338.15945)" />
    <g
       id="g6404"
       transform="translate(-3484.3145,4000.5586)">
      <path
         inkscape:connector-curvature="0"
         style="color:#000000;fill:#ff8800;fill-opacity:1;fill-rule:nonzero;stroke:none;stroke-width:2;marker:none;visibility:visible;display:inline;overflow:visible;enable-background:accumulate"
         d="m 3531.8144,-3037.755 c -7.5388,0 -15.8823,2.647 -21.1764,7.9412 -9.3204,9.3202 -10.5588,38.6945 -10.6379,51.7831 7.5332,8.5666 18.4713,14.0674 30.7224,14.3769 0.3637,0.01 0.726,0.016 1.0919,0.016 0.366,0 0.7283,-0.01 1.092,-0.016 12.2511,-0.3095 23.1892,-5.8103 30.7225,-14.3769 -0.079,-13.0886 -1.3176,-42.4629 -10.638,-51.7831 -5.2941,-5.2942 -13.6376,-7.9412 -21.1765,-7.9412 z"
         id="path6232" />
      <path
         style="color:#000000;fill:#fafafa;fill-opacity:1;fill-rule:nonzero;stroke:none;stroke-width:2;marker:none;visibility:visible;display:inline;overflow:visible;enable-background:accumulate"
         d="m 3514.8732,-3025.0559 c 4.5723,-3.8689 10.9101,-6.3529 16.9411,-6.3529 6.0311,0 12.3689,2.484 16.9412,6.3529 6.8824,5.8235 4.2353,16.4118 4.2353,16.4118 0,0 -2.1176,7.9412 -21.1765,7.9412 -19.0588,0 -21.1764,-7.9412 -21.1764,-7.9412 0,0 -2.6471,-10.5883 4.2353,-16.4118 z"
         id="path6234"
         inkscape:connector-curvature="0"
         sodipodi:nodetypes="sascscs" />
      <text
         sodipodi:linespacing="125%"
         id="text6236"
         y="-2967.4182"
         x="3520.6621"
         style="font-size:40px;font-style:normal;font-variant:normal;font-weight:normal;font-stretch:normal;line-height:125%;letter-spacing:0px;word-spacing:0px;fill:#fafafa;fill-opacity:1;stroke:none;font-family:Roboto;-inkscape-font-specification:Roboto"
         xml:space="preserve"><tspan
           style="font-weight:bold;fill:#fafafa;fill-opacity:1;-inkscape-font-specification:Roboto Bold"
           y="-2967.4182"
           x="3520.6621"
           id="tspan6238"
           sodipodi:role="line">3</tspan></text>
    </g>
  </g>
</svg>
