<?xml version="1.0" encoding="UTF-8" standalone="no"?>
<!-- Created with Inkscape (http://www.inkscape.org/) -->

<svg
   width="48.0px"
   height="48.0px"
   viewBox="0 0 48.0 48.0"
   version="1.1"
   id="SVGRoot"
   sodipodi:docname="ic_genre.svg"
   inkscape:version="1.1.2 (0a00cf5339, 2022-02-04)"
   xmlns:inkscape="http://www.inkscape.org/namespaces/inkscape"
   xmlns:sodipodi="http://sodipodi.sourceforge.net/DTD/sodipodi-0.dtd"
   xmlns="http://www.w3.org/2000/svg"
   xmlns:svg="http://www.w3.org/2000/svg">
  <sodipodi:namedview
     id="namedview10455"
     pagecolor="#ffffff"
     bordercolor="#111111"
     borderopacity="1"
     inkscape:pageshadow="0"
     inkscape:pageopacity="0"
     inkscape:pagecheckerboard="1"
     inkscape:document-units="px"
     showgrid="true"
     inkscape:zoom="10.248373"
     inkscape:cx="14.246164"
     inkscape:cy="26.101704"
     inkscape:window-width="1920"
     inkscape:window-height="1016"
     inkscape:window-x="0"
     inkscape:window-y="0"
     inkscape:window-maximized="1"
     inkscape:current-layer="layer1">
    <inkscape:grid
       type="xygrid"
       id="grid10518" />
  </sodipodi:namedview>
  <defs
     id="defs10450" />
  <g
     inkscape:label="Layer 1"
     inkscape:groupmode="layer"
     id="layer1">
    <path
       id="path4339"
       style="fill:#000000;stroke-width:1"
       d="M 26 4 A 3.9999999 3.9999999 0 0 0 22 8 L 22 15 L 26 15 L 26 8 L 42 8 L 42 18 C 42 22.42 38.42 26 34 26 C 32.1 26 30.38 25.299219 29 24.199219 L 29 28.900391 C 30.52 29.600391 32.22 30 34 30 C 40.62 30 46 24.62 46 18 L 46 8 A 3.9999999 3.9999999 0 0 0 42 4 L 26 4 z M 28 12 L 28 13 A 2 2 0 0 0 30 15 A 2 2 0 0 0 32 13 L 32 12 L 28 12 z M 36 12 L 36 13 A 2 2 0 0 0 38 15 A 2 2 0 0 0 40 13 L 40 12 L 36 12 z M 6 18 A 3.9999999 3.9999999 0 0 0 2 22 L 2 32 C 2 38.62 7.38 44 14 44 C 20.62 44 26 38.62 26 32 L 26 22 A 3.9999999 3.9999999 0 0 0 22 18 L 6 18 z M 33.980469 18 C 31.920469 18 30.160859 18.939766 29.380859 20.259766 C 29.000859 20.939766 29.499766 21.759766 30.259766 21.759766 L 37.699219 21.759766 C 38.459219 21.759766 38.960078 20.939297 38.580078 20.279297 C 37.800078 18.939297 36.040469 18 33.980469 18 z M 6 22 L 22 22 L 22 32 C 22 36.42 18.42 40 14 40 C 9.58 40 6 36.42 6 32 L 6 22 z M 10 26 A 2 2 0 0 0 8 28 L 8 29 L 12 29 L 12 28 A 2 2 0 0 0 10 26 z M 18 26 A 2 2 0 0 0 16 28 L 16 29 L 20 29 L 20 28 A 2 2 0 0 0 18 26 z M 10.279297 32 C 9.5192969 32 9.0203906 32.82 9.4003906 33.5 C 10.180391 34.84 11.94 35.779297 14 35.779297 C 16.06 35.779297 17.839609 34.84 18.599609 33.5 C 18.979609 32.82 18.480703 32 17.720703 32 L 10.279297 32 z " />
  </g>
</svg>
