<?xml version="1.0" encoding="UTF-8" standalone="no"?>
<svg width="64px" height="64px" viewBox="0 0 64 64" version="1.1" id="svg9" sodipodi:docname="ic_inverted_round.svg"
        inkscape:version="1.1.2 (0a00cf5339, 2022-02-04)" xmlns:inkscape="http://www.inkscape.org/namespaces/inkscape"
        xmlns:sodipodi="http://sodipodi.sourceforge.net/DTD/sodipodi-0.dtd" xmlns="http://www.w3.org/2000/svg"
        xmlns:rdf="http://www.w3.org/1999/02/22-rdf-syntax-ns#" xmlns:cc="http://creativecommons.org/ns#"
        xmlns:dc="http://purl.org/dc/elements/1.1/">
  <defs
     id="defs13">
    <clipPath
       clipPathUnits="userSpaceOnUse"
       id="clipPath4792">
      <path
         style="fill:#ff8800"
         d="m 48.196759,963.10825 c -1.65441,1.23855 -2.321076,3.2256 -3.761719,7.51954 -1.440643,4.29394 -1.503906,4.51171 -1.503906,4.51171 l -5.265625,15.79688 -6.015625,18.05082 -3.007812,9.0234 h -6.34375 c -2,0 -3.860873,1.5107 -4.445313,3.5039 l -3.503906,11.9199 c -1.144783,3.9115 -2.279638,7.7947 -3.429687,11.7266 -0.481394,1.6434 0.0011,2.852 0.777343,3.6875 0.481014,0.5172 1.074588,0.8913 1.621094,1.1406 0.54688,0.2429 0.920775,0.3731 1.351562,0.3731 1.004345,0 18.539258,-0.01 36.572266,-0.01 v 0 c 18.033008,0 35.567921,0.01 36.572266,0.01 0.430787,0 0.804682,-0.1302 1.351562,-0.3731 0.546506,-0.2493 1.14008,-0.6234 1.621094,-1.1406 0.776228,-0.8355 1.258738,-2.0441 0.777344,-3.6875 -1.150049,-3.9319 -2.284905,-7.8151 -3.429688,-11.7266 l -3.503906,-11.9199 c -0.58444,-1.9932 -2.445313,-3.5039 -4.445313,-3.5039 h -6.34375 l -3.007812,-9.0234 -6.015625,-18.05082 -5.265625,-15.79688 c 0,0 -0.06885,-0.23443 -1.503906,-4.51171 -1.435052,-4.27728 -2.097358,-6.25133 -3.761719,-7.51954 -0.831195,-0.63336 -1.999923,-0.74609 -3.044922,-0.74609 -1.044999,0 -2.208378,0.11982 -3.044922,0.74609 z"
         id="path4794"
         inkscape:connector-curvature="0"
         sodipodi:nodetypes="szccccscccccsccscccccscccczsas" />
    </clipPath>
  </defs>
  <sodipodi:namedview
     id="namedview11"
     pagecolor="#e6e6e6"
     bordercolor="#111111"
     borderopacity="1"
     inkscape:pageshadow="0"
     inkscape:pageopacity="0"
     inkscape:pagecheckerboard="false"
     showgrid="true"
     inkscape:zoom="7.2407734"
     inkscape:cx="-3.65983"
     inkscape:cy="45.782402"
     inkscape:window-width="2560"
     inkscape:window-height="1376"
     inkscape:window-x="0"
     inkscape:window-y="0"
     inkscape:window-maximized="1"
     inkscape:current-layer="svg9"
     inkscape:snap-bbox="true"
     inkscape:bbox-paths="true"
     inkscape:bbox-nodes="true"
     inkscape:snap-bbox-edge-midpoints="true"
     inkscape:snap-bbox-midpoints="true"
     inkscape:object-paths="true"
     inkscape:snap-intersection-paths="true"
     inkscape:snap-smooth-nodes="true"
     inkscape:snap-midpoints="true"
     inkscape:snap-object-midpoints="true"
     inkscape:snap-center="true"
     inkscape:snap-text-baseline="true">
    <inkscape:grid
       type="xygrid"
       id="grid888" />
  </sodipodi:namedview>
  <title
     id="title2">cone scan</title>
  <metadata
     id="metadata986">
    <rdf:RDF>
      <cc:Work
         rdf:about="">
        <dc:title>cone scan</dc:title>
      </cc:Work>
    </rdf:RDF>
  </metadata>
  <metadata
     id="metadata1867">
    <rdf:RDF>
      <cc:Work
         rdf:about="">
        <dc:title>cone scan</dc:title>
      </cc:Work>
    </rdf:RDF>
  </metadata>
  <path
     id="path930"
     style="fill:#757575;stroke-width:1.06666"
     d="M 0 0 L 0 32 A 32 32 0 0 1 32 0 L 0 0 z M 32 0 A 32 32 0 0 1 64 32 L 64 0 L 32 0 z M 64 32 A 32 32 0 0 1 32 64 L 64 64 L 64 32 z M 32 64 A 32 32 0 0 1 0 32 L 0 64 L 32 64 z " />
</svg>
