<?xml version="1.0" encoding="UTF-8" standalone="no"?>
<svg
   xmlns:dc="http://purl.org/dc/elements/1.1/"
   xmlns:cc="http://creativecommons.org/ns#"
   xmlns:rdf="http://www.w3.org/1999/02/22-rdf-syntax-ns#"
   xmlns:svg="http://www.w3.org/2000/svg"
   xmlns="http://www.w3.org/2000/svg"
   xmlns:sodipodi="http://sodipodi.sourceforge.net/DTD/sodipodi-0.dtd"
   xmlns:inkscape="http://www.inkscape.org/namespaces/inkscape"
   width="108.0px"
   height="108.0px"
   viewBox="0 0 108.0 108.0"
   version="1.1"
   id="SVGRoot"
   sodipodi:docname="ic_launcher_reporter_foreground.svg"
   inkscape:version="1.0.1 (3bc2e813f5, 2020-09-07)"
   inkscape:export-filename="./bitmap.png"
   inkscape:export-xdpi="300"
   inkscape:export-ydpi="300">
  <defs
     id="defs1600" />
  <sodipodi:namedview
     id="base"
     pagecolor="#ffffff"
     bordercolor="#666666"
     borderopacity="1.0"
     inkscape:pageopacity="0.0"
     inkscape:pageshadow="2"
     inkscape:zoom="2.8"
     inkscape:cx="23.739457"
     inkscape:cy="15.817969"
     inkscape:document-units="px"
     inkscape:current-layer="layer1"
     inkscape:document-rotation="0"
     showgrid="true"
     inkscape:window-width="1920"
     inkscape:window-height="1043"
     inkscape:window-x="0"
     inkscape:window-y="0"
     inkscape:window-maximized="1">
    <inkscape:grid
       type="xygrid"
       id="grid2170" />
  </sodipodi:namedview>
  <metadata
     id="metadata1603">
    <rdf:RDF>
      <cc:Work
         rdf:about="">
        <dc:format>image/svg+xml</dc:format>
        <dc:type
           rdf:resource="http://purl.org/dc/dcmitype/StillImage" />
        <dc:title></dc:title>
      </cc:Work>
    </rdf:RDF>
  </metadata>
  <g
     inkscape:label="Layer 1"
     inkscape:groupmode="layer"
     id="layer1">
    <path
       id="rect4797"
       style="color:#000000;display:inline;overflow:visible;visibility:visible;vector-effect:none;fill:#fafafa;fill-opacity:1;fill-rule:nonzero;stroke:none;stroke-width:2;stroke-linecap:round;stroke-linejoin:round;stroke-miterlimit:4;stroke-dasharray:none;stroke-dashoffset:0;stroke-opacity:1;marker:none;paint-order:normal;enable-background:accumulate"
       d="M 37.605469 29.882812 L 34.070312 33.417969 L 40.392578 39.740234 C 38.970118 40.934644 37.775064 42.38169 36.839844 44 L 29.6875 44 L 29.6875 49 L 34.970703 49 C 34.787423 49.97156 34.6875 50.97339 34.6875 52 L 34.6875 54 L 29.6875 54 L 29.6875 59 L 34.6875 59 L 34.6875 62 C 34.6875 62.67907 34.742899 63.34364 34.824219 64 L 29.6875 64 L 29.6875 69 L 36.306641 69 C 38.261841 73.02574 41.847107 76.095618 46.216797 77.361328 C 46.250397 77.207108 46.282805 77.051974 46.328125 76.896484 L 47.134766 74.130859 L 49.412109 66.322266 A 2.8030146 2.8030146 0 0 1 49.412109 66.320312 L 49.423828 66.285156 L 50.089844 64 L 44.6875 64 L 44.6875 59 L 55.193359 59 L 56.34375 55.548828 L 58.166016 50.082031 L 58.683594 48.523438 L 58.652344 48.625 C 58.652344 48.625 58.788089 48.151433 59.005859 47.595703 C 59.223629 47.039983 59.341726 46.425951 60.253906 45.494141 C 60.870386 44.864351 62.20181 44 63.6875 44 L 64.525391 44 C 63.591341 42.38316 62.403482 40.933474 60.982422 39.740234 L 65.306641 35.416016 L 66.005859 33.318359 C 66.005859 33.318359 66.17657 32.820591 66.3125 32.425781 L 63.769531 29.882812 L 56.539062 37.113281 C 54.726472 36.403871 52.75742 36 50.6875 36 C 48.61758 36 46.648528 36.403871 44.835938 37.113281 L 37.605469 29.882812 z M 63.6875 46.802734 C 63.03672 46.802734 62.609799 47.093528 62.255859 47.455078 C 61.766479 47.954988 61.34375 49.408203 61.34375 49.408203 L 60.824219 50.96875 C 62.906769 52.00999 64.392271 52.10733 66.550781 50.96875 L 66.03125 49.408203 C 66.03125 49.408203 65.608521 47.954988 65.119141 47.455078 C 64.765201 47.093528 64.33828 46.802734 63.6875 46.802734 z M 44.6875 49 L 56.6875 49 L 56.6875 54 L 44.6875 54 L 44.6875 49 z M 59.001953 56.435547 L 56.919922 62.683594 C 59.002232 64.765524 61.27061 65.285156 63.6875 65.285156 C 66.10465 65.285156 68.372588 64.766094 70.455078 62.683594 L 68.373047 56.435547 C 66.811177 57.606957 65.35557 58.193359 63.6875 58.193359 C 62.01942 58.193359 60.563823 57.606957 59.001953 56.435547 z M 53.664062 65.806641 C 52.971873 65.806641 52.317326 66.411542 52.103516 67.107422 L 49.826172 74.916016 C 49.521822 75.959496 49.63078 77 51.0625 77 L 63.6875 77 L 76.3125 77 C 77.74422 77 77.853178 75.959496 77.548828 74.916016 L 75.271484 67.107422 C 75.057674 66.411542 74.401184 65.806641 73.708984 65.806641 L 71.496094 65.806641 C 71.496094 65.806641 71.844208 66.848371 72.017578 67.369141 C 72.269048 68.124811 72.389982 68.50457 72.013672 68.9375 C 69.934892 71.01336 66.62174 71.793799 63.6875 71.792969 C 60.75137 71.792339 57.454292 70.981548 55.357422 68.929688 C 54.964752 68.545447 55.097012 68.150141 55.357422 67.369141 C 55.531012 66.848551 55.878906 65.806641 55.878906 65.806641 L 53.664062 65.806641 z " />
    <path
       id="path4789"
       style="fill:#0b99c1;fill-opacity:1;stroke-width:0.0650779"
       d="M 44.6875 49 L 44.6875 54 L 56.6875 54 L 56.6875 49 L 44.6875 49 z M 60.824219 50.96875 L 59.001953 56.435547 C 60.563823 57.606947 62.01942 58.193359 63.6875 58.193359 C 65.35557 58.193359 66.811177 57.606947 68.373047 56.435547 L 66.550781 50.96875 C 64.392271 52.10732 62.906769 52.00998 60.824219 50.96875 z M 44.6875 59 L 44.6875 64 L 50.089844 64 C 50.380364 63.45414 50.944417 63.003906 51.523438 63.003906 L 53.857422 63 L 55.193359 59 L 44.6875 59 z M 56.919922 62.683594 L 55.876953 65.806641 C 55.876953 65.806641 55.531012 66.848541 55.357422 67.369141 C 55.097012 68.150141 54.964752 68.545447 55.357422 68.929688 C 57.454292 70.981548 60.75137 71.792119 63.6875 71.792969 C 66.62174 71.793609 69.934892 71.01335 72.013672 68.9375 C 72.389712 68.50456 72.268868 68.124801 72.017578 67.369141 C 71.844208 66.848371 71.496094 65.806641 71.496094 65.806641 L 70.455078 62.683594 C 68.372588 64.766084 66.10465 65.285156 63.6875 65.285156 C 61.27035 65.285156 59.002422 64.766084 56.919922 62.683594 z " />
  </g>
</svg>
