<?xml version="1.0" encoding="UTF-8" standalone="no"?>
<svg
   xmlns:dc="http://purl.org/dc/elements/1.1/"
   xmlns:cc="http://creativecommons.org/ns#"
   xmlns:rdf="http://www.w3.org/1999/02/22-rdf-syntax-ns#"
   xmlns:svg="http://www.w3.org/2000/svg"
   xmlns="http://www.w3.org/2000/svg"
   xmlns:sodipodi="http://sodipodi.sourceforge.net/DTD/sodipodi-0.dtd"
   xmlns:inkscape="http://www.inkscape.org/namespaces/inkscape"
   width="108.0px"
   height="108.0px"
   viewBox="0 0 108.0 108.0"
   version="1.1"
   id="SVGRoot"
   sodipodi:docname="drawing.svg"
   inkscape:version="1.0.1 (3bc2e813f5, 2020-09-07)">
  <defs
     id="defs1600" />
  <sodipodi:namedview
     id="base"
     pagecolor="#ffffff"
     bordercolor="#666666"
     borderopacity="1.0"
     inkscape:pageopacity="0.0"
     inkscape:pageshadow="2"
     inkscape:zoom="3.959798"
     inkscape:cx="11.25542"
     inkscape:cy="49.664795"
     inkscape:document-units="px"
     inkscape:current-layer="layer1"
     inkscape:document-rotation="0"
     showgrid="true"
     inkscape:window-width="1920"
     inkscape:window-height="1080"
     inkscape:window-x="0"
     inkscape:window-y="0"
     inkscape:window-maximized="1">
    <inkscape:grid
       type="xygrid"
       id="grid2170" />
  </sodipodi:namedview>
  <metadata
     id="metadata1603">
    <rdf:RDF>
      <cc:Work
         rdf:about="">
        <dc:format>image/svg+xml</dc:format>
        <dc:type
           rdf:resource="http://purl.org/dc/dcmitype/StillImage" />
        <dc:title></dc:title>
      </cc:Work>
    </rdf:RDF>
  </metadata>
  <g
     inkscape:label="Layer 1"
     inkscape:groupmode="layer"
     id="layer1">
    <path
       style="fill:#000000;fill-opacity:0.19607843;stroke-width:0.102265"
       d="m 32.072266,72.72266 0.851562,3.02343 0.0059,-0.008 C 33.13378,76.48112 33.736638,77 35,77 h 38 c 1.260071,0 1.861395,-0.51613 2.066406,-1.25586 l 0.002,0.002 0.851563,-3.02148 z"
       id="path944"
       inkscape:connector-curvature="0"
       sodipodi:nodetypes="cccsscccc" />
    <path
       style="fill:#ff8800;fill-opacity:1;stroke-width:0.102265"
       d="m 58.499014,33.093732 c -3.39193,1.789174 -5.72675,1.636212 -8.99931,0 l -2.86342,8.590255 c 2.45436,1.840769 4.74182,2.761154 7.36308,2.761154 2.62125,0 4.90871,-0.920385 7.36307,-2.761154 z M 41.727564,56.41014 c 0,0 -0.54534,1.63628 -0.81812,2.454359 -0.40922,1.227283 -0.61705,1.850562 0,2.454359 3.29507,3.224352 8.47602,4.498332 13.08992,4.499662 4.61093,10e-4 9.817429,-1.22718 13.084079,-4.489232 0.59091,-0.680319 0.40116,-1.277317 0.006,-2.464789 -0.27244,-0.818351 -0.81812,-2.454359 -0.81812,-2.454359 l -1.63624,-4.908717 c -3.272479,3.272478 -6.837189,4.090598 -10.635549,4.090598 -3.79837,0 -7.36308,-0.81812 -10.63556,-4.090598 z"
       inkscape:connector-curvature="0"
       sodipodi:nodetypes="cccacccssacsccacc"
       id="path7618" />
    <path
       sodipodi:nodetypes="sccccccsccsccscsccscsccscccccccs"
       inkscape:connector-curvature="0"
       id="path933"
       d="m 53.999808,26.548541 c -1.02265,0 -1.69381,0.45529 -2.25,1.023437 -0.76902,0.785558 -1.431641,3.068359 -1.431641,3.068359 l -0.818359,2.453125 c 3.27256,1.636212 5.60807,1.789174 9,0 l -0.818359,-2.453125 c 0,0 -0.662621,-2.282801 -1.431641,-3.068359 -0.55619,-0.568147 -1.22735,-1.023437 -2.25,-1.023437 z m -7.363281,15.134765 -3.271485,9.81836 c 3.272188,3.271587 6.836809,4.089843 10.634766,4.089843 3.79836,0 7.362287,-0.817366 10.634765,-4.089843 l -3.271484,-9.81836 c -2.45436,1.840769 -4.742031,2.761719 -7.363281,2.761719 -2.62126,0 -4.908921,-0.92095 -7.363281,-2.761719 z m -8.386719,14.726563 c -1.08772,0 -2.117145,0.951402 -2.453125,2.044921 l -3.580078,12.27149 c -0.47826,1.63975 -0.306471,3.27343 1.943359,3.27343 h 19.839844 19.839845 c 2.24983,0 2.41967,-1.63368 1.9414,-3.27343 l -3.57812,-12.27149 c -0.33599,-1.093519 -1.36735,-2.044921 -2.45508,-2.044921 h -3.47656 c 0,0 0.54592,1.636727 0.81836,2.455078 0.39516,1.187472 0.58505,1.784525 -0.006,2.464843 -3.26665,3.26205 -8.473055,4.48958 -13.083985,4.48828 -4.6139,-0.001 -9.794774,-1.27565 -13.089844,-4.499998 -0.61705,-0.603797 -0.40922,-1.225842 0,-2.453125 0.27278,-0.818079 0.81836,-2.455078 0.81836,-2.455078 z"
       style="fill:#fafafa;fill-opacity:1;stroke-width:0.102265" />
  </g>
</svg>
