<?xml version="1.0" encoding="UTF-8" standalone="no"?>
<svg xmlns:dc="http://purl.org/dc/elements/1.1/" xmlns:cc="http://creativecommons.org/ns#"
        xmlns:rdf="http://www.w3.org/1999/02/22-rdf-syntax-ns#"
        xmlns:svg="http://www.w3.org/2000/svg" xmlns="http://www.w3.org/2000/svg"
        xmlns:sodipodi="http://sodipodi.sourceforge.net/DTD/sodipodi-0.dtd"
        xmlns:inkscape="http://www.inkscape.org/namespaces/inkscape" width="24" height="24"
        viewBox="0 0 24 24" version="1.1" id="svg6" sodipodi:docname="ic_browser_tvshow.svg"
        inkscape:version="0.92.3 (2405546, 2018-03-11)">
    <metadata id="metadata12">
        <rdf:RDF>
            <cc:Work rdf:about="">
                <dc:format>image/svg+xml</dc:format>
                <dc:type rdf:resource="http://purl.org/dc/dcmitype/StillImage" />
            </cc:Work>
        </rdf:RDF>
    </metadata>
    <defs id="defs10" />
    <sodipodi:namedview pagecolor="#ffffff" bordercolor="#666666" borderopacity="1"
            objecttolerance="10" gridtolerance="10" guidetolerance="10" inkscape:pageopacity="0"
            inkscape:pageshadow="2" inkscape:window-width="1920" inkscape:window-height="1053"
            id="namedview8" showgrid="false" inkscape:zoom="9.8333333" inkscape:cx="0.15254237"
            inkscape:cy="12" inkscape:window-x="0" inkscape:window-y="27"
            inkscape:window-maximized="1" inkscape:current-layer="svg6" />
    <path fill="none" d="M0 0h24v24H0V0z" id="path2" />
    <path d="M21 6h-7.59l3.29-3.29L16 2l-4 4-4-4-.71.71L10.59 6H3c-1.1 0-2 .89-2 2v12c0 1.1.9 2 2 2h18c1.1 0 2-.9 2-2V8c0-1.11-.9-2-2-2zm0 14H3V8h18v12zM9 10v8l7-4z"
            id="path4" style="fill:#757575;fill-opacity:1" />
</svg>
