<?xml version="1.0" encoding="UTF-8" standalone="no"?>
<!-- Created with Inkscape (http://www.inkscape.org/) -->

<svg
   width="48.0px"
   height="48.0px"
   viewBox="0 0 48.0 48.0"
   version="1.1"
   id="SVGRoot"
   sodipodi:docname="ic_medialibrary_date.svg"
   inkscape:version="1.3.2 (1:1.3.2+202311252150+091e20ef0f)"
   xmlns:inkscape="http://www.inkscape.org/namespaces/inkscape"
   xmlns:sodipodi="http://sodipodi.sourceforge.net/DTD/sodipodi-0.dtd"
   xmlns="http://www.w3.org/2000/svg"
   xmlns:svg="http://www.w3.org/2000/svg">
  <sodipodi:namedview
     id="namedview4293"
     pagecolor="#ffffff"
     bordercolor="#111111"
     borderopacity="1"
     inkscape:pageshadow="0"
     inkscape:pageopacity="0"
     inkscape:pagecheckerboard="1"
     inkscape:document-units="px"
     showgrid="true"
     inkscape:zoom="5.6568545"
     inkscape:cx="51.000074"
     inkscape:cy="7.5130092"
     inkscape:window-width="1920"
     inkscape:window-height="1043"
     inkscape:window-x="0"
     inkscape:window-y="0"
     inkscape:window-maximized="1"
     inkscape:current-layer="layer1"
     inkscape:snap-bbox="true"
     inkscape:bbox-paths="true"
     inkscape:bbox-nodes="true"
     inkscape:snap-bbox-edge-midpoints="true"
     inkscape:snap-bbox-midpoints="true"
     inkscape:snap-intersection-paths="true"
     inkscape:object-paths="true"
     inkscape:snap-smooth-nodes="true"
     inkscape:snap-midpoints="true"
     inkscape:snap-object-midpoints="true"
     inkscape:snap-center="true"
     inkscape:showpageshadow="0"
     inkscape:deskcolor="#d1d1d1">
    <inkscape:grid
       type="xygrid"
       id="grid4374"
       originx="0"
       originy="0"
       spacingy="1"
       spacingx="1"
       units="px"
       visible="true"
       empspacing="4" />
  </sodipodi:namedview>
  <defs
     id="defs4288" />
  <g
     inkscape:label="Layer 1"
     inkscape:groupmode="layer"
     id="layer1">
    <path
       id="path1"
       style="color:#000000;fill:#000000;stroke-linecap:round;stroke-linejoin:round;-inkscape-stroke:none"
       d="M 24,6 C 22.703646,6 21.277304,6.4600818 20.269531,7.4453125 19.261758,8.4305432 18.652913,9.7189933 18.103516,11.367188 L 10.558594,34 H 9 c -2.1854454,0 -4,1.814591 -4,4 v 2 c 1.104e-4,1.104524 0.8954762,1.99989 2,2 h 13 c 1.104569,0 2,-0.895431 2,-2 0,-1.104569 -0.895431,-2 -2,-2 h -6.556641 l 8.455079,-25.367188 c 0.4506,-1.3518 0.897144,-2.063358 1.167968,-2.328124 C 23.337231,10.03992 23.410758,10 24,10 c 0.589242,0 0.662769,0.03992 0.933594,0.304688 0.270824,0.264766 0.719321,0.976324 1.169922,2.328124 l 0.666015,2 c 0.349001,1.047898 1.481362,1.614516 2.529297,1.265626 1.048921,-0.348982 1.615791,-1.482724 1.265625,-2.53125 l -0.666015,-2 C 29.34904,9.7189933 28.738242,8.4305432 27.730469,7.4453125 26.722696,6.4600818 25.296354,6 24,6 Z m 6.464844,14 C 29.653153,20 29,20.668997 29,21.5 V 22 c -1.63908,0 -3,1.360884 -3,3 v 14 c 0,1.639116 1.36092,3 3,3 h 14 c 1.639118,0 3,-1.361005 3,-3 V 25 c 0,-1.638995 -1.360882,-3 -3,-3 V 21.5 C 43,20.668997 42.346847,20 41.535156,20 h -0.07031 C 40.653153,20 40,20.668997 40,21.5 V 22 H 32 V 21.5 C 32,20.668997 31.346847,20 30.535156,20 Z M 29,28 H 43 V 39 H 29 Z m 8,4 c -0.553991,0 -1,0.446009 -1,1 v 3 c 0,0.553991 0.446009,1 1,1 h 3 c 0.553991,0 1,-0.446009 1,-1 v -3 c 0,-0.553991 -0.446009,-1 -1,-1 z"
       sodipodi:nodetypes="ssccssccsssccssscccccsssscsssssscssssccssscccccsssssssss" />
  </g>
</svg>
