<?xml version="1.0" encoding="UTF-8" standalone="no"?>
<!-- Created with Inkscape (http://www.inkscape.org/) -->

<svg
   width="48.0px"
   height="48.0px"
   viewBox="0 0 48.0 48.0"
   version="1.1"
   id="SVGRoot"
   sodipodi:docname="ic_add_to_scan.svg"
   inkscape:version="1.3.2 (1:1.3.2+202311252150+091e20ef0f)"
   xmlns:inkscape="http://www.inkscape.org/namespaces/inkscape"
   xmlns:sodipodi="http://sodipodi.sourceforge.net/DTD/sodipodi-0.dtd"
   xmlns="http://www.w3.org/2000/svg"
   xmlns:svg="http://www.w3.org/2000/svg">
  <sodipodi:namedview
     id="namedview4293"
     pagecolor="#ffffff"
     bordercolor="#111111"
     borderopacity="1"
     inkscape:pageshadow="0"
     inkscape:pageopacity="0"
     inkscape:pagecheckerboard="1"
     inkscape:document-units="px"
     showgrid="true"
     inkscape:zoom="11.313709"
     inkscape:cx="37.69763"
     inkscape:cy="24.174213"
     inkscape:window-width="1920"
     inkscape:window-height="1043"
     inkscape:window-x="0"
     inkscape:window-y="0"
     inkscape:window-maximized="1"
     inkscape:current-layer="layer1"
     inkscape:snap-bbox="true"
     inkscape:bbox-paths="true"
     inkscape:bbox-nodes="true"
     inkscape:snap-bbox-edge-midpoints="true"
     inkscape:snap-bbox-midpoints="true"
     inkscape:snap-intersection-paths="true"
     inkscape:object-paths="true"
     inkscape:snap-smooth-nodes="true"
     inkscape:snap-midpoints="true"
     inkscape:snap-object-midpoints="true"
     inkscape:snap-center="true"
     inkscape:showpageshadow="0"
     inkscape:deskcolor="#d1d1d1">
    <inkscape:grid
       type="xygrid"
       id="grid4374"
       originx="0"
       originy="0"
       spacingy="1"
       spacingx="1"
       units="px"
       visible="true"
       empspacing="4" />
  </sodipodi:namedview>
  <defs
     id="defs4288" />
  <g
     inkscape:label="Layer 1"
     inkscape:groupmode="layer"
     id="layer1">
    <path
       id="path26848"
       style="color:#000000;fill:#000000;stroke-linecap:round;stroke-linejoin:round;-inkscape-stroke:none"
       d="M 24 6 C 22.703641 6 21.2773 6.4600835 20.269531 7.4453125 C 19.261762 8.4305515 18.652905 9.7189989 18.103516 11.367188 L 10.558594 34 L 9 34 C 6.8145522 34 5 35.814552 5 38 L 5 40 C 5.00011 41.104519 5.8954811 41.99989 7 42 L 21 42 C 22.104569 42 23 41.104569 23 40 C 23 38.895431 22.104569 38 21 38 L 13.441406 38 L 21.896484 12.632812 C 22.347094 11.281014 22.795577 10.569447 23.066406 10.304688 C 23.337226 10.039918 23.410741 10 24 10 C 24.589259 10 24.662774 10.039898 24.933594 10.304688 C 25.204423 10.569447 25.652906 11.281014 26.103516 12.632812 L 26.101562 12.632812 L 27.142578 15.757812 C 27.491568 16.806731 28.625309 17.373597 29.673828 17.023438 C 30.722747 16.674448 31.289613 15.540706 30.939453 14.492188 L 29.898438 11.367188 L 29.896484 11.367188 C 29.347185 9.7189989 28.738238 8.4305515 27.730469 7.4453125 C 26.7227 6.4600835 25.296359 6 24 6 z M 35 20 C 28.948566 20 24 24.948566 24 31 C 24 37.051434 28.948566 42 35 42 A 2.0002 2.0002 0 0 0 35.003906 42 C 38.659613 41.994 42.077436 40.167259 44.115234 37.132812 A 2 2 0 0 0 43.570312 34.357422 A 2 2 0 0 0 40.794922 34.902344 C 39.496693 36.835522 37.327938 37.99482 35 38 C 31.110324 38 28 34.889666 28 31 C 28 27.110324 31.110324 24 35 24 C 36.658948 24.00075 38.232774 24.585995 39.470703 25.615234 L 38.292969 26.792969 A 1.0001 1.0001 0 0 0 39 28.5 L 44 28.5 A 1.0001 1.0001 0 0 0 45 27.5 L 45 22.5 A 1.0001 1.0001 0 0 0 44.382812 21.576172 A 1.0001 1.0001 0 0 0 43.292969 21.792969 L 42.300781 22.785156 C 40.314513 21.020298 37.726897 20.00123 35 20 z " />
  </g>
</svg>
