<?xml version="1.0" encoding="UTF-8" standalone="no"?>
<!-- Created with Inkscape (http://www.inkscape.org/) -->

<svg
   width="48"
   height="48"
   id="svg4682"
   version="1.1"
   inkscape:version="1.1.2 (0a00cf5339, 2022-02-04)"
   sodipodi:docname="ic_menu_addtoscan.svg"
   inkscape:export-filename="/home/corbax/Dev/android/Icons/Test 1/ic_play_normal.png"
   inkscape:export-xdpi="90"
   inkscape:export-ydpi="90"
   xmlns:inkscape="http://www.inkscape.org/namespaces/inkscape"
   xmlns:sodipodi="http://sodipodi.sourceforge.net/DTD/sodipodi-0.dtd"
   xmlns="http://www.w3.org/2000/svg"
   xmlns:svg="http://www.w3.org/2000/svg"
   xmlns:rdf="http://www.w3.org/1999/02/22-rdf-syntax-ns#"
   xmlns:cc="http://creativecommons.org/ns#"
   xmlns:dc="http://purl.org/dc/elements/1.1/">
  <defs
     id="defs4684" />
  <sodipodi:namedview
     inkscape:zoom="11.2"
     inkscape:cx="22.1875"
     inkscape:cy="17.678571"
     inkscape:window-width="1920"
     inkscape:window-height="1043"
     inkscape:window-x="0"
     inkscape:window-y="0"
     inkscape:window-maximized="1"
     inkscape:current-layer="svg4682"
     id="namedview1015"
     pagecolor="#ffffff"
     bordercolor="#111111"
     borderopacity="1"
     inkscape:pageshadow="0"
     inkscape:pageopacity="0"
     inkscape:pagecheckerboard="1">
    <inkscape:grid
       type="xygrid"
       id="grid3775" />
  </sodipodi:namedview>
  <metadata
     id="metadata1017">
    <rdf:RDF>
      <cc:Work
         rdf:about="">
        <dc:format>image/svg+xml</dc:format>
        <dc:type
           rdf:resource="http://purl.org/dc/dcmitype/StillImage" />
      </cc:Work>
    </rdf:RDF>
  </metadata>
  <g
     id="g1019" />
  <path
     id="path7013"
     style="fill:#000000;fill-opacity:1;stroke-width:0.0689655"
     d="M 18.835938 8 C 18.146338 8 17.693359 8.3062831 17.318359 8.6894531 C 16.799659 9.2192231 16.353516 10.757812 16.353516 10.757812 L 15.802734 12.414062 C 18.009734 13.517482 19.583594 13.620652 21.871094 12.414062 L 21.318359 10.757812 C 21.318359 10.757812 20.872116 9.2192231 20.353516 8.6894531 C 19.978416 8.3062831 19.525537 8 18.835938 8 z M 13.871094 18.207031 L 11.664062 24.828125 C 13.870964 27.035035 16.274438 27.585938 18.835938 27.585938 C 21.397437 27.585938 23.802866 27.035035 26.009766 24.828125 L 23.802734 18.207031 C 22.147534 19.448401 20.603637 20.068359 18.835938 20.068359 C 17.068137 20.068359 15.526294 19.448401 13.871094 18.207031 z M 34 24 C 32.892 24 32 24.892 32 26 L 32 32 L 26 32 C 24.892 32 24 32.892 24 34 C 24 35.108 24.892 36 26 36 L 32 36 L 32 42 C 32 43.108 32.892 44 34 44 C 35.108 44 36 43.108 36 42 L 36 36 L 42 36 C 43.108 36 44 35.108 44 34 C 44 32.892 43.108 32 42 32 L 36 32 L 36 26 C 36 24.892 35.108 24 34 24 z M 8.2148438 28.138672 C 7.4813436 28.138672 6.7871469 28.780158 6.5605469 29.517578 L 4.1464844 37.792969 C 3.8239844 38.898799 3.9397313 40 5.4570312 40 L 18 40 L 18 34.453125 C 15.114847 34.310073 12.038353 33.430465 10.013672 31.449219 C 9.5975718 31.042009 9.7376718 30.620639 10.013672 29.792969 C 10.197672 29.241279 10.564453 28.138672 10.564453 28.138672 L 8.2148438 28.138672 z " />
</svg>
