<?xml version="1.0" encoding="UTF-8" standalone="no"?>
<svg
   xmlns:dc="http://purl.org/dc/elements/1.1/"
   xmlns:cc="http://creativecommons.org/ns#"
   xmlns:rdf="http://www.w3.org/1999/02/22-rdf-syntax-ns#"
   xmlns:svg="http://www.w3.org/2000/svg"
   xmlns="http://www.w3.org/2000/svg"
   xmlns:sodipodi="http://sodipodi.sourceforge.net/DTD/sodipodi-0.dtd"
   xmlns:inkscape="http://www.inkscape.org/namespaces/inkscape"
   width="24"
   height="24"
   viewBox="0 0 24 24"
   version="1.1"
   id="SVGRoot"
   inkscape:version="1.0.1 (c497b03c, 2020-09-10)"
   sodipodi:docname="ic_notif_speed_1_10.svg">
  <defs
     id="defs7678" />
  <sodipodi:namedview
     id="base"
     pagecolor="#ffffff"
     bordercolor="#666666"
     borderopacity="1.0"
     inkscape:pageopacity="0.0"
     inkscape:pageshadow="2"
     inkscape:zoom="2.616769"
     inkscape:cx="20.030795"
     inkscape:cy="-33.683428"
     inkscape:document-units="px"
     inkscape:current-layer="layer1"
     showgrid="true"
     inkscape:window-width="1440"
     inkscape:window-height="855"
     inkscape:window-x="0"
     inkscape:window-y="23"
     inkscape:window-maximized="1"
     inkscape:grid-bbox="true"
     inkscape:snap-bbox="true"
     inkscape:bbox-paths="true"
     inkscape:snap-bbox-edge-midpoints="true"
     inkscape:bbox-nodes="true"
     inkscape:snap-bbox-midpoints="true"
     inkscape:object-paths="true"
     inkscape:snap-intersection-paths="true"
     inkscape:snap-smooth-nodes="true"
     inkscape:snap-midpoints="true"
     inkscape:snap-object-midpoints="true"
     inkscape:snap-center="true"
     inkscape:document-rotation="0">
    <inkscape:grid
       type="xygrid"
       id="grid8234" />
  </sodipodi:namedview>
  <metadata
     id="metadata7681">
    <rdf:RDF>
      <cc:Work
         rdf:about="">
        <dc:format>image/svg+xml</dc:format>
        <dc:type
           rdf:resource="http://purl.org/dc/dcmitype/StillImage" />
        <dc:title></dc:title>
      </cc:Work>
    </rdf:RDF>
  </metadata>
  <g
     inkscape:label="Layer 1"
     inkscape:groupmode="layer"
     id="layer1">
    <path
       id="path3357"
       style="color:#000000;font-style:normal;font-variant:normal;font-weight:normal;font-stretch:normal;font-size:medium;line-height:normal;font-family:sans-serif;font-variant-ligatures:normal;font-variant-position:normal;font-variant-caps:normal;font-variant-numeric:normal;font-variant-alternates:normal;font-variant-east-asian:normal;font-feature-settings:normal;font-variation-settings:normal;text-indent:0;text-align:start;text-decoration:none;text-decoration-line:none;text-decoration-style:solid;text-decoration-color:#000000;letter-spacing:normal;word-spacing:normal;text-transform:none;writing-mode:lr-tb;direction:ltr;text-orientation:mixed;dominant-baseline:auto;baseline-shift:baseline;text-anchor:start;white-space:normal;shape-padding:0;shape-margin:0;inline-size:0;clip-rule:nonzero;display:inline;overflow:visible;visibility:visible;isolation:auto;mix-blend-mode:normal;color-interpolation:sRGB;color-interpolation-filters:linearRGB;solid-color:#000000;solid-opacity:1;vector-effect:none;fill:#000000;fill-opacity:1;fill-rule:nonzero;stroke:none;stroke-width:1.14575;stroke-linecap:butt;stroke-linejoin:round;stroke-miterlimit:4;stroke-dasharray:none;stroke-dashoffset:0;stroke-opacity:1;color-rendering:auto;image-rendering:auto;shape-rendering:auto;text-rendering:auto;enable-background:accumulate;stop-color:#000000"
       d="M 11.942937,0.50004713 C 5.6507865,0.53115712 0.5424835,5.6653441 0.5425415,11.957505 c 1.14e-4,0.872617 0.110013,1.725991 0.299863,2.548837 0.14204,0.616791 0.757259,1.001565 1.374,0.85931 0.616774,-0.142041 1.001543,-0.757271 0.859309,-1.374001 -0.155478,-0.67375 -0.241566,-1.354197 -0.241681,-2.034146 -5.7e-5,-5.0570179 4.061278,-9.1397339 9.1178555,-9.1659659 0.0149,-4.6e-5 0.02981,-4.6e-5 0.04699,0 1.476466,0 2.859177,0.354116 4.097385,0.974555 0.565707,0.284159 1.25468,0.05567 1.538477,-0.510215 0.284024,-0.566001 0.05498,-1.255071 -0.511335,-1.538477 -1.537132,-0.77024497 -3.276141,-1.21679897 -5.117813,-1.21735497 -0.02005,-6.3e-5 -0.03836,-6.3e-5 -0.05818,0 z m 8.077284,3.43723797 -9.278975,6.1069139 c -0.620708,0.410899 -1.0327375,1.112865 -1.0327375,1.913306 0,1.265557 1.0259585,2.291492 2.2914915,2.291492 0.800418,0 1.502385,-0.41199 1.913306,-1.032738 z m 1.168124,2.266875 c -0.16917,0.0038 -0.335395,0.04511 -0.486718,0.120841 -0.566333,0.283385 -0.79535,0.972461 -0.511334,1.538477 0.620421,1.238127 0.975674,2.6203969 0.975674,4.0940269 -1.15e-4,0.679319 -0.08692,1.358848 -0.2428,2.033028 -0.143001,0.616745 0.241341,1.23257 0.858191,1.375119 0.616756,0.143003 1.232583,-0.241327 1.375118,-0.858191 0.190137,-0.822434 0.300868,-1.676525 0.300983,-2.549956 0,-1.842995 -0.447731,-3.5831149 -1.218474,-5.1211699 -0.198496,-0.396145 -0.607664,-0.642324 -1.05064,-0.632175 z M 15.958642,16.804547 c -0.722059,0 -1.281505,0.238697 -1.678339,0.716091 -0.39385,0.477394 -0.590775,1.156189 -0.590775,2.036384 v 1.190502 c 0,0.874227 0.198417,1.55153 0.59525,2.031908 C 14.681613,23.25981 15.242551,23.5 15.967593,23.5 c 0.719075,0 1.275537,-0.238698 1.669387,-0.716092 0.396834,-0.477394 0.595251,-1.156189 0.595251,-2.036384 v -1.186026 c 0,-0.877211 -0.198417,-1.556007 -0.595251,-2.036384 -0.396834,-0.480378 -0.95628,-0.720567 -1.678338,-0.720567 z m -12.4331335,0.08951 -2.859889,0.9891 v 1.145746 l 1.485889,-0.43413 v 4.815713 h 1.512742 v -6.516429 z m 8.0784045,0 -2.8598905,0.9891 v 1.145746 l 1.4858895,-0.43413 v 4.815713 h 1.512743 v -6.516429 z m 4.354729,1.074136 c 0.26555,0 0.459492,0.116365 0.581824,0.349094 0.122332,0.229747 0.183498,0.578841 0.183498,1.047284 v 1.611205 c -0.003,0.468443 -0.06564,0.813062 -0.187974,1.033857 -0.122332,0.21781 -0.311798,0.326716 -0.568397,0.326716 -0.26555,0 -0.459492,-0.111889 -0.581824,-0.335668 -0.122332,-0.226762 -0.183498,-0.583315 -0.183498,-1.069661 v -1.664912 c 0.009,-0.435622 0.07161,-0.760846 0.187973,-0.975674 0.119349,-0.214827 0.308815,-0.322241 0.568398,-0.322241 z m 2.779329,0.599726 1.271061,2.358626 -1.342671,2.483941 h 1.584352 l 0.74742,-1.432182 0.760847,1.432182 h 1.5754 l -1.338195,-2.483941 1.275537,-2.358626 h -1.566449 l -0.702664,1.33372 -0.680287,-1.33372 z M 6.5867985,21.946975 c -0.241681,0 -0.44159,0.07161 -0.599727,0.214827 -0.155153,0.143218 -0.23273,0.323733 -0.23273,0.541544 0,0.217811 0.07758,0.398326 0.23273,0.541544 0.158137,0.143218 0.358046,0.214827 0.599727,0.214827 0.238697,0 0.437114,-0.07012 0.595251,-0.210351 0.158136,-0.143219 0.237205,-0.325226 0.237205,-0.54602 0,-0.220795 -0.07907,-0.40131 -0.237205,-0.541544 -0.158137,-0.143218 -0.356554,-0.214827 -0.595251,-0.214827 z" />
  </g>
</svg>
