<?xml version="1.0" encoding="UTF-8" standalone="no"?>
<svg
   xmlns:dc="http://purl.org/dc/elements/1.1/"
   xmlns:cc="http://creativecommons.org/ns#"
   xmlns:rdf="http://www.w3.org/1999/02/22-rdf-syntax-ns#"
   xmlns:svg="http://www.w3.org/2000/svg"
   xmlns="http://www.w3.org/2000/svg"
   xmlns:sodipodi="http://sodipodi.sourceforge.net/DTD/sodipodi-0.dtd"
   xmlns:inkscape="http://www.inkscape.org/namespaces/inkscape"
   width="24"
   height="24"
   viewBox="0 0 24 24"
   version="1.1"
   id="SVGRoot"
   inkscape:version="1.0.1 (c497b03c, 2020-09-10)"
   sodipodi:docname="ic_notif_rewind_10.svg">
  <defs
     id="defs2412" />
  <sodipodi:namedview
     id="base"
     pagecolor="#ffffff"
     bordercolor="#666666"
     borderopacity="1.0"
     inkscape:pageopacity="0.0"
     inkscape:pageshadow="2"
     inkscape:zoom="28.130434"
     inkscape:cx="11.319075"
     inkscape:cy="12.018793"
     inkscape:document-units="px"
     inkscape:current-layer="layer1"
     showgrid="true"
     inkscape:window-width="1190"
     inkscape:window-height="855"
     inkscape:window-x="61"
     inkscape:window-y="23"
     inkscape:window-maximized="0"
     inkscape:grid-bbox="true"
     inkscape:snap-grids="true"
     inkscape:snap-page="true"
     inkscape:document-rotation="0">
    <inkscape:grid
       type="xygrid"
       id="grid2968"
       originx="0"
       originy="0" />
  </sodipodi:namedview>
  <metadata
     id="metadata2415">
    <rdf:RDF>
      <cc:Work
         rdf:about="">
        <dc:format>image/svg+xml</dc:format>
        <dc:type
           rdf:resource="http://purl.org/dc/dcmitype/StillImage" />
        <dc:title></dc:title>
      </cc:Work>
    </rdf:RDF>
  </metadata>
  <g
     inkscape:label="Layer 1"
     inkscape:groupmode="layer"
     id="layer1">
    <path
       style="opacity:1;fill:#000000;fill-opacity:1;stroke:none;stroke-width:1.91868;stroke-linecap:round;stroke-linejoin:round;stroke-miterlimit:4;stroke-dasharray:none;stroke-dashoffset:0;stroke-opacity:1;paint-order:markers fill stroke"
       d="m 11.29361,0.50015405 c -0.194583,-0.00403 -0.382556,0.071078 -0.520893,0.2079827 L 6.6955135,4.7628547 c -0.282612,0.2806303 -0.28343,0.7376074 -0.0019,1.0193005 l 4.0790775,4.075329 c 0.453641,0.4516278 1.227079,0.130445 1.227328,-0.50965 V 6.2318472 A 7.6747347,7.6747347 0 0 1 19.674735,13.906581 7.6747347,7.6747347 0 0 1 12,21.581316 7.6747347,7.6747347 0 0 1 4.3252652,13.906581 H 2.4065815 A 9.5934183,9.5934183 0 0 0 12,23.5 9.5934183,9.5934183 0 0 0 21.593419,13.906581 9.5934183,9.5934183 0 0 0 12,4.3131632 V 1.2196604 c 2.9e-5,-0.39223655 -0.314211,-0.71231135 -0.70639,-0.71950635 z m -0.734496,11.00807295 -0.02623,0.01124 -2.3702555,0.9481 v 1.439012 l 0.959342,-0.384112 v 4.22148 h 1.4390125 v -4.796709 -1.439013 z m 3.599405,0 C 12.9627,11.508227 12,12.470926 12,13.666746 v 1.918684 c 0,1.195819 0.9627,2.158519 2.158519,2.158519 1.19582,0 2.158519,-0.9627 2.158519,-2.158519 v -1.918684 c 0,-1.19582 -0.9627,-2.158519 -2.158519,-2.158519 z m 0,1.439013 c 0.398607,0 0.719507,0.320899 0.719507,0.719506 v 1.918684 c 0,0.398606 -0.3209,0.719506 -0.719507,0.719506 -0.398606,0 -0.719506,-0.3209 -0.719506,-0.719506 v -1.918684 c 0,-0.398607 0.3209,-0.719506 0.719506,-0.719506 z"
       id="path2737" />
  </g>
</svg>
