<?xml version="1.0" encoding="UTF-8" standalone="no"?>
<!-- Created with Inkscape (http://www.inkscape.org/) -->

<svg
   width="24"
   height="24"
   id="svg4682"
   version="1.1"
   inkscape:version="1.1.2 (0a00cf5339, 2022-02-04)"
   sodipodi:docname="ic_notif_audio.svg"
   inkscape:export-filename="/home/corbax/Dev/android/Icons/Test 1/ic_play_normal.png"
   inkscape:export-xdpi="90"
   inkscape:export-ydpi="90"
   xmlns:inkscape="http://www.inkscape.org/namespaces/inkscape"
   xmlns:sodipodi="http://sodipodi.sourceforge.net/DTD/sodipodi-0.dtd"
   xmlns="http://www.w3.org/2000/svg"
   xmlns:svg="http://www.w3.org/2000/svg"
   xmlns:rdf="http://www.w3.org/1999/02/22-rdf-syntax-ns#"
   xmlns:cc="http://creativecommons.org/ns#"
   xmlns:dc="http://purl.org/dc/elements/1.1/">
  <defs
     id="defs4684" />
  <sodipodi:namedview
     id="base"
     pagecolor="#ffffff"
     bordercolor="#666666"
     borderopacity="1.0"
     inkscape:pageopacity="0.0"
     inkscape:pageshadow="2"
     inkscape:zoom="8"
     inkscape:cx="21"
     inkscape:cy="3.5"
     inkscape:document-units="px"
     inkscape:current-layer="layer1"
     showgrid="true"
     inkscape:window-width="1920"
     inkscape:window-height="1043"
     inkscape:window-x="0"
     inkscape:window-y="0"
     inkscape:window-maximized="1"
     inkscape:snap-grids="false"
     inkscape:snap-bbox="true"
     inkscape:bbox-paths="true"
     inkscape:bbox-nodes="true"
     inkscape:snap-bbox-edge-midpoints="true"
     inkscape:snap-bbox-midpoints="true"
     inkscape:object-paths="true"
     inkscape:snap-intersection-paths="true"
     inkscape:object-nodes="true"
     inkscape:snap-smooth-nodes="true"
     inkscape:snap-midpoints="true"
     inkscape:snap-object-midpoints="true"
     inkscape:snap-center="true"
     inkscape:pagecheckerboard="1">
    <inkscape:grid
       type="xygrid"
       id="grid3002" />
  </sodipodi:namedview>
  <metadata
     id="metadata4687">
    <rdf:RDF>
      <cc:Work
         rdf:about="">
        <dc:format>image/svg+xml</dc:format>
        <dc:type
           rdf:resource="http://purl.org/dc/dcmitype/StillImage" />
      </cc:Work>
    </rdf:RDF>
  </metadata>
  <g
     inkscape:label="Layer 1"
     inkscape:groupmode="layer"
     id="layer1"
     transform="translate(0,-1028.3622)">
    <path
       id="path30019-8"
       style="color:#000000;fill:#000000;stroke-linecap:round;stroke-linejoin:round;-inkscape-stroke:none"
       d="M 11.5,3 C 10.851822,3 10.138653,3.2300562 9.6347656,3.7226562 9.1308787,4.2152563 8.8254804,4.8614469 8.5507812,5.6855469 L 4.7792969,17 H 4 c -1.0927057,0 -2,0.9073 -2,2 v 1 c 5.52e-5,0.552262 0.4477381,0.999945 1,1 h 5.2929688 c 0.5522847,0 1,-0.447715 1,-1 0,-0.552285 -0.4477153,-1 -1,-1 H 6.2207031 L 10.449219,6.3164062 c 0.2253,-0.6758999 0.448572,-1.0297093 0.583984,-1.1621093 0.263862,-0.3124786 0.631912,-0.3258799 0.933594,0 0.135412,0.1324 0.358684,0.4862094 0.583984,1.1621093 l 1,3 c 0.174491,0.5244603 0.741362,0.8078958 1.265625,0.6328126 0.523438,-0.1745094 0.806621,-0.7400007 0.632813,-1.2636719 l -1,-3 C 14.17452,4.8614469 13.869121,4.2152563 13.365234,3.7226562 12.861347,3.2300562 12.148178,3 11.5,3 Z M 19,4 c -1.1,0 -2,0.9 -2,2 v 8.542969 C 16.4104,14.199369 15.727,14 15,14 c -2.1973,0 -4,1.8027 -4,4 0,2.1973 1.8027,4 4,4 2.1973,0 4,-1.8027 4,-4 V 8 h 2 c 1.1,0 2,-0.9 2,-2 V 4 Z m -4,12 c 1.1164,0 2,0.8836 2,2 0,1.1164 -0.8836,2 -2,2 -1.1164,0 -2,-0.8836 -2,-2 0,-1.1164 0.8836,-2 2,-2 z"
       transform="translate(0,1028.3622)"
       sodipodi:nodetypes="ssccssccsssccccsccccsssscsssscsscssssss" />
  </g>
</svg>
