<?xml version="1.0" encoding="UTF-8" standalone="no"?>
<svg
   xmlns:dc="http://purl.org/dc/elements/1.1/"
   xmlns:cc="http://creativecommons.org/ns#"
   xmlns:rdf="http://www.w3.org/1999/02/22-rdf-syntax-ns#"
   xmlns:svg="http://www.w3.org/2000/svg"
   xmlns="http://www.w3.org/2000/svg"
   xmlns:sodipodi="http://sodipodi.sourceforge.net/DTD/sodipodi-0.dtd"
   xmlns:inkscape="http://www.inkscape.org/namespaces/inkscape"
   width="24"
   height="24"
   viewBox="0 0 24 24"
   version="1.1"
   id="SVGRoot"
   inkscape:version="1.0.1 (c497b03c, 2020-09-10)"
   sodipodi:docname="ic_notif_speed_2_00.svg">
  <defs
     id="defs7678" />
  <sodipodi:namedview
     id="base"
     pagecolor="#ffffff"
     bordercolor="#666666"
     borderopacity="1.0"
     inkscape:pageopacity="0.0"
     inkscape:pageshadow="2"
     inkscape:zoom="5.6568543"
     inkscape:cx="33.713701"
     inkscape:cy="51.011181"
     inkscape:document-units="px"
     inkscape:current-layer="layer1"
     showgrid="true"
     inkscape:window-width="1440"
     inkscape:window-height="855"
     inkscape:window-x="0"
     inkscape:window-y="23"
     inkscape:window-maximized="1"
     inkscape:grid-bbox="true"
     inkscape:snap-bbox="true"
     inkscape:bbox-paths="true"
     inkscape:snap-bbox-edge-midpoints="true"
     inkscape:bbox-nodes="true"
     inkscape:snap-bbox-midpoints="true"
     inkscape:object-paths="true"
     inkscape:snap-intersection-paths="true"
     inkscape:snap-smooth-nodes="true"
     inkscape:snap-midpoints="true"
     inkscape:snap-object-midpoints="true"
     inkscape:snap-center="true"
     inkscape:document-rotation="0">
    <inkscape:grid
       type="xygrid"
       id="grid8234" />
  </sodipodi:namedview>
  <metadata
     id="metadata7681">
    <rdf:RDF>
      <cc:Work
         rdf:about="">
        <dc:format>image/svg+xml</dc:format>
        <dc:type
           rdf:resource="http://purl.org/dc/dcmitype/StillImage" />
        <dc:title></dc:title>
      </cc:Work>
    </rdf:RDF>
  </metadata>
  <g
     inkscape:label="Layer 1"
     inkscape:groupmode="layer"
     id="layer1">
    <path
       id="path3357"
       style="color:#000000;font-style:normal;font-variant:normal;font-weight:normal;font-stretch:normal;font-size:medium;line-height:normal;font-family:sans-serif;font-variant-ligatures:normal;font-variant-position:normal;font-variant-caps:normal;font-variant-numeric:normal;font-variant-alternates:normal;font-variant-east-asian:normal;font-feature-settings:normal;font-variation-settings:normal;text-indent:0;text-align:start;text-decoration:none;text-decoration-line:none;text-decoration-style:solid;text-decoration-color:#000000;letter-spacing:normal;word-spacing:normal;text-transform:none;writing-mode:lr-tb;direction:ltr;text-orientation:mixed;dominant-baseline:auto;baseline-shift:baseline;text-anchor:start;white-space:normal;shape-padding:0;shape-margin:0;inline-size:0;clip-rule:nonzero;display:inline;overflow:visible;visibility:visible;isolation:auto;mix-blend-mode:normal;color-interpolation:sRGB;color-interpolation-filters:linearRGB;solid-color:#000000;solid-opacity:1;vector-effect:none;fill:#000000;fill-opacity:1;fill-rule:nonzero;stroke:none;stroke-width:1.14552;stroke-linecap:butt;stroke-linejoin:round;stroke-miterlimit:4;stroke-dasharray:none;stroke-dashoffset:0;stroke-opacity:1;color-rendering:auto;image-rendering:auto;shape-rendering:auto;text-rendering:auto;enable-background:accumulate;stop-color:#000000"
       d="M 11.942948,0.50003456 C 5.6520223,0.53113546 0.5447134,5.6643269 0.5447707,11.955264 c 1.145e-4,0.872448 0.1099917,1.725655 0.2998048,2.548341 0.1420124,0.616671 0.7571115,1.001371 1.3737326,0.859143 0.6166542,-0.142013 1.001349,-0.757124 0.8591422,-1.373733 C 2.9220028,13.315396 2.8359311,12.63508 2.8358166,11.955264 2.8357593,6.8992288 6.8963035,2.8173072 11.951898,2.7910804 c 0.01489,-4.58e-5 0.0298,-4.58e-5 0.04698,0 1.476178,0 2.858621,0.3540479 4.096586,0.9743657 0.565598,0.2841035 1.254437,0.055663 1.538178,-0.5101156 0.28397,-0.5658908 0.05497,-1.2548273 -0.511234,-1.5381778 -1.536834,-0.77009504 -3.275504,-1.21656264 -5.116818,-1.21711814 -0.02005,-6.31e-5 -0.03835,-6.31e-5 -0.05817,0 z m 8.075713,3.43656884 -9.27717,6.1057266 c -0.620587,0.410819 -1.0325365,1.112649 -1.0325365,1.912934 0,1.26531 1.0257585,2.291046 2.2910465,2.291046 0.800262,0 1.502092,-0.411909 1.912934,-1.032537 z m 1.167896,2.2664349 c -0.169137,0.00384 -0.33533,0.045105 -0.486624,0.1208171 -0.566222,0.2833294 -0.795195,0.9722714 -0.511234,1.5381774 0.6203,1.237887 0.975484,2.6198882 0.975484,4.0932312 -1.14e-4,0.679186 -0.0869,1.358583 -0.242752,2.032632 -0.142973,0.616625 0.241293,1.232331 0.858023,1.374852 0.616636,0.142975 1.232344,-0.24128 1.374851,-0.858024 0.1901,-0.822274 0.300809,-1.676199 0.300924,-2.54946 0,-1.842637 -0.447644,-3.5824182 -1.218237,-5.1201742 C 22.038536,6.4390217 21.629447,6.1928912 21.186557,6.2030383 Z M 2.7507973,16.801363 c -0.4385205,0 -0.8352772,0.09546 -1.19027,0.286381 -0.3549928,0.19092 -0.6324241,0.456419 -0.832294,0.796496 -0.1998698,0.337095 -0.2998048,0.705511 -0.2998048,1.105251 h 1.5124483 c 0,-0.292347 0.071595,-0.535472 0.2147855,-0.729376 0.1431904,-0.196887 0.3296361,-0.29533 0.5593374,-0.29533 0.2326843,0 0.4101807,0.07309 0.5324892,0.21926 0.1223084,0.146173 0.1834626,0.359468 0.1834626,0.639882 0,0.346043 -0.2580409,0.812904 -0.7741229,1.400581 L 0.5626695,22.42606 v 0.984434 H 5.1089636 V 22.247072 H 2.5449611 l 0.8412434,-0.97101 c 0.4474701,-0.44747 0.77114,-0.803955 0.9710097,-1.069453 0.2028532,-0.268482 0.3520095,-0.523539 0.4474699,-0.765174 0.09546,-0.244616 0.1431904,-0.4952 0.1431904,-0.751749 0,-0.608559 -0.1909203,-1.075419 -0.5727615,-1.400581 C 3.9962553,16.963943 3.4548166,16.801363 2.7507973,16.801363 Z m 8.1394777,0.0045 c -0.721918,0 -1.2812555,0.238651 -1.6780125,0.715952 -0.393774,0.477301 -0.59066,1.155963 -0.59066,2.035988 v 1.190269 c 0,0.874058 0.198378,1.55123 0.595135,2.031514 0.396756,0.480284 0.9575845,0.720427 1.6824865,0.720427 0.718934,0 1.275289,-0.238651 1.669063,-0.715952 0.396756,-0.477301 0.595135,-1.155964 0.595135,-2.035989 v -1.185795 c 0,-0.877041 -0.198379,-1.555703 -0.595134,-2.035988 -0.396757,-0.480284 -0.956094,-0.720426 -1.678013,-0.720426 z m 5.306993,0 c -0.721918,0 -1.281256,0.238651 -1.678012,0.715952 -0.393773,0.477301 -0.59066,1.155963 -0.59066,2.035988 v 1.190269 c 0,0.874058 0.198378,1.55123 0.595135,2.031514 0.396756,0.480284 0.957585,0.720427 1.682486,0.720427 0.718934,0 1.27529,-0.238651 1.669062,-0.715952 0.396757,-0.477301 0.595135,-1.155964 0.595135,-2.035989 v -1.185795 c 0,-0.877041 -0.198378,-1.555703 -0.595135,-2.035988 -0.396755,-0.480284 -0.956094,-0.720426 -1.678011,-0.720426 z m -5.306993,1.163422 c 0.265499,0 0.459402,0.116342 0.581711,0.349026 0.122308,0.229701 0.183463,0.578727 0.183463,1.04708 v 1.610891 c -0.003,0.468352 -0.06563,0.812904 -0.187938,1.033656 -0.122309,0.217769 -0.311738,0.326653 -0.568287,0.326653 -0.265499,0 -0.459403,-0.111867 -0.581711,-0.335603 C 10.195204,21.77427 10.13405,21.417786 10.13405,20.931535 v -1.664588 c 0.009,-0.435537 0.0716,-0.760699 0.187937,-0.975484 0.119326,-0.214786 0.308755,-0.322178 0.568288,-0.322178 z m 5.306993,0 c 0.265498,0 0.459401,0.116342 0.58171,0.349026 0.122308,0.229701 0.183462,0.578727 0.183462,1.04708 v 1.610891 c -0.003,0.468352 -0.06563,0.812904 -0.187936,1.033656 -0.122309,0.217769 -0.311738,0.326653 -0.568287,0.326653 -0.265499,0 -0.459403,-0.111867 -0.581711,-0.335603 -0.122309,-0.226743 -0.183462,-0.583227 -0.183462,-1.069478 v -1.664588 c 0.0089,-0.435537 0.0716,-0.760699 0.187938,-0.975484 0.119325,-0.214786 0.308754,-0.322178 0.568286,-0.322178 z m 2.778788,0.599609 1.270814,2.358166 -1.34241,2.483459 h 1.584043 l 0.747276,-1.431904 0.760698,1.431904 h 1.575094 L 22.233637,20.92706 23.508926,18.568894 H 21.942782 L 21.240254,19.90233 20.560099,18.568869 Z M 6.8272485,21.947292 c -0.2416342,0 -0.4415039,0.0716 -0.5996101,0.214785 -0.1551227,0.143191 -0.2326844,0.32367 -0.2326844,0.541439 0,0.217769 0.077562,0.398249 0.2326844,0.541439 0.1581062,0.14319 0.3579759,0.214785 0.5996101,0.214785 0.23865,0 0.437029,-0.0701 0.595134,-0.210311 0.158107,-0.14319 0.23716,-0.325161 0.23716,-0.545913 0,-0.220752 -0.07905,-0.401231 -0.23716,-0.541439 -0.158105,-0.14319 -0.356484,-0.214785 -0.595134,-0.214785 z" />
  </g>
</svg>
