<?xml version="1.0" encoding="UTF-8"?>
<svg width="24px" height="24px" viewBox="0 0 24 24" version="1.1" xmlns="http://www.w3.org/2000/svg" xmlns:xlink="http://www.w3.org/1999/xlink">
    <title>ic-server/Off@1x</title>
    <g id="ic-server/Off" stroke="none" stroke-width="1" fill="none" fill-rule="evenodd">
        <rect id="Rectangle" x="0" y="0" width="24" height="24"></rect>
        <path d="M22.536,21.0005 L22.536,23.0005 L20.537,23.0005 L20.537,21.0005 L22.536,21.0005 Z M4.545,21.0005 L4.545,23.0005 L2.546,23.0005 L2.546,21.0005 L4.545,21.0005 Z M2.0707,2.503 L2.5647,2.817 L5.9797,5 L20.5367,14.302 L22.4557,15.527 L23.0587,15.912 L23.0637,15.904 L23.0657,15.906 L21.9897,17.592 L20.9797,16.946 C20.8843667,16.968 20.7872556,16.9846667 20.6877741,16.9933333 L20.5367,17 L13.5407,17 L13.5407,21 L18.5377,21 L18.5377,23 L6.5437,23 L6.5437,21 L11.5417,21 L11.5417,17 L4.5367,17 C3.4867,17 2.61802025,16.1799587 2.54121878,15.1478248 L2.5357,14.999 L2.5437,5.167 L0.9997,4.18 L2.0707,2.503 Z M4.5447,6.445 L4.5447,15 L17.9337,15 L4.5447,6.445 Z M10.5359,1 L12.5359,3 L20.5369,3 C21.5869,3 22.4537574,3.82004132 22.5303932,4.85130541 L22.5359,5 L22.5359,13.205 L20.5369,11.928 L20.5369,5 L12.0327,5 L9.97604112,3.00255686 L6.56746726,3.00255686 L3.7179,1.182 C3.9179,1.09 4.1339,1.02872 4.362316,1.007888 L4.5359,1 L10.5359,1 Z" id="Combined-Shape" fill="#FFFFFF"></path>
    </g>
</svg>