<?xml version="1.0" encoding="UTF-8" standalone="no"?>
<!-- Created with Inkscape (http://www.inkscape.org/) -->

<svg
   xmlns:dc="http://purl.org/dc/elements/1.1/"
   xmlns:cc="http://creativecommons.org/ns#"
   xmlns:rdf="http://www.w3.org/1999/02/22-rdf-syntax-ns#"
   xmlns:svg="http://www.w3.org/2000/svg"
   xmlns="http://www.w3.org/2000/svg"
   xmlns:sodipodi="http://sodipodi.sourceforge.net/DTD/sodipodi-0.dtd"
   xmlns:inkscape="http://www.inkscape.org/namespaces/inkscape"
   width="24"
   height="24"
   id="svg4682"
   version="1.1"
   inkscape:version="0.91 r13725"
   sodipodi:docname="ic_no_album.svg"
   inkscape:export-filename="/home/corbax/Dev/android/Icons/Test 1/ic_play_normal.png"
   inkscape:export-xdpi="90"
   inkscape:export-ydpi="90">
  <defs
     id="defs4684" />
  <sodipodi:namedview
     id="base"
     pagecolor="#ffffff"
     bordercolor="#666666"
     borderopacity="1.0"
     inkscape:pageopacity="0.0"
     inkscape:pageshadow="2"
     inkscape:zoom="22.4"
     inkscape:cx="4.1599183"
     inkscape:cy="8.4054139"
     inkscape:document-units="px"
     inkscape:current-layer="layer1"
     showgrid="true"
     inkscape:window-width="1920"
     inkscape:window-height="1056"
     inkscape:window-x="0"
     inkscape:window-y="24"
     inkscape:window-maximized="1">
    <inkscape:grid
       type="xygrid"
       id="grid3002" />
  </sodipodi:namedview>
  <metadata
     id="metadata4687">
    <rdf:RDF>
      <cc:Work
         rdf:about="">
        <dc:format>image/svg+xml</dc:format>
        <dc:type
           rdf:resource="http://purl.org/dc/dcmitype/StillImage" />
        <dc:title />
      </cc:Work>
    </rdf:RDF>
  </metadata>
  <g
     inkscape:label="Layer 1"
     inkscape:groupmode="layer"
     id="layer1"
     transform="translate(0,-1028.3622)">
    <path
       inkscape:connector-curvature="0"
       style="color:#000000;display:inline;overflow:visible;visibility:visible;opacity:1;fill:#bdbdbd;fill-opacity:1;fill-rule:nonzero;stroke:none;stroke-width:0.1;stroke-linecap:round;stroke-linejoin:round;stroke-miterlimit:4;stroke-dasharray:none;stroke-dashoffset:0;stroke-opacity:1;marker:none;enable-background:accumulate"
       d="m 12,1032.3614 a 8,8 0 0 0 -8,8 8,8 0 0 0 8,8 8,8 0 0 0 8,-8 8,8 0 0 0 -8,-8 z m 0,4 a 4,4 0 0 0 -0.33789,0.018 4,4 0 0 1 0.33789,-0.018 z m 0.33789,0.018 a 4,4 0 0 1 0.21094,0.025 4,4 0 0 0 -0.21094,-0.025 z m -0.88672,0.025 a 4,4 0 0 0 -0.18555,0.027 4,4 0 0 1 0.18555,-0.027 z m 1.28321,0.027 a 4,4 0 0 1 0.22265,0.051 4,4 0 0 0 -0.22265,-0.051 z m -1.69141,0.051 a 4,4 0 0 0 -0.1543,0.039 4,4 0 0 1 0.1543,-0.039 z m 2.06836,0.039 a 4,4 0 0 1 0.21484,0.07 4,4 0 0 0 -0.21484,-0.07 z m -2.4375,0.07 a 4,4 0 0 0 -0.17969,0.066 4,4 0 0 1 0.17969,-0.066 z m 2.83203,0.066 a 4,4 0 0 1 0.17383,0.078 4,4 0 0 0 -0.17383,-0.078 z m -3.18555,0.078 a 4,4 0 0 0 -0.18554,0.09 4,4 0 0 1 0.18554,-0.09 z m 3.54492,0.09 a 4,4 0 0 1 0.16407,0.094 4,4 0 0 0 -0.16407,-0.094 z M 12,1036.8614 a 3.5,3.5 0 0 1 3.5,3.5 3.5,3.5 0 0 1 -3.5,3.5 3.5,3.5 0 0 1 -3.5,-3.5 3.5,3.5 0 0 1 3.5,-3.5 z m -2.0293,0.059 a 4,4 0 0 0 -0.1875,0.1152 4,4 0 0 1 0.1875,-0.1152 z m 4.2461,0.1152 a 4,4 0 0 1 0.13476,0.098 4,4 0 0 0 -0.13476,-0.098 z m -4.56836,0.098 a 4,4 0 0 0 -0.18555,0.1407 4,4 0 0 1 0.18555,-0.1407 z m 4.88867,0.1407 a 4,4 0 0 1 0.12891,0.1133 4,4 0 0 0 -0.12891,-0.1133 z m -5.20313,0.1133 a 4,4 0 0 0 -0.16015,0.1484 4,4 0 0 1 0.16015,-0.1484 z m 5.49219,0.1484 a 4,4 0 0 1 0.14844,0.1601 4,4 0 0 0 -0.14844,-0.1601 z m -5.80078,0.1601 a 4,4 0 0 0 -0.11328,0.129 4,4 0 0 1 0.11328,-0.129 z m 6.0625,0.129 a 4,4 0 0 1 0.14063,0.1855 4,4 0 0 0 -0.14063,-0.1855 z m -6.31641,0.1855 a 4,4 0 0 0 -0.0976,0.1348 4,4 0 0 1 0.0976,-0.1348 z m 6.55469,0.1348 a 4,4 0 0 1 0.11524,0.1875 4,4 0 0 0 -0.11524,-0.1875 z m -6.76758,0.1875 a 4,4 0 0 0 -0.0937,0.164 4,4 0 0 1 0.0937,-0.164 z m 6.97657,0.164 a 4,4 0 0 1 0.0898,0.1856 4,4 0 0 0 -0.0898,-0.1856 z m -7.16016,0.1856 a 4,4 0 0 0 -0.0781,0.1738 4,4 0 0 1 0.0781,-0.1738 z m 7.32812,0.1738 a 4,4 0 0 1 0.0664,0.1797 4,4 0 0 0 -0.0664,-0.1797 z m -7.47265,0.1797 a 4,4 0 0 0 -0.0703,0.2148 4,4 0 0 1 0.0703,-0.2148 z m 7.60937,0.2148 a 4,4 0 0 1 0.0391,0.1542 4,4 0 0 0 -0.0391,-0.1542 z M 12,1039.3614 a 1,1 0 0 0 -1,1 1,1 0 0 0 1,1 1,1 0 0 0 1,-1 1,1 0 0 0 -1,-1 z m -3.87891,0.043 a 4,4 0 0 0 -0.0508,0.2227 4,4 0 0 1 0.0508,-0.2227 z m 7.8086,0.2227 a 4,4 0 0 1 0.0273,0.1855 4,4 0 0 0 -0.0273,-0.1855 z m -7.88672,0.1855 a 4,4 0 0 0 -0.0254,0.2109 4,4 0 0 1 0.0254,-0.2109 z m 7.93945,0.2109 a 4,4 0 0 1 0.0176,0.3379 4,4 0 0 0 -0.0176,-0.3379 z M 8,1040.3614 a 4,4 0 0 0 0.0176,0.3379 A 4,4 0 0 1 8,1040.3614 Z m 7.98242,0.3379 a 4,4 0 0 1 -0.0254,0.2109 4,4 0 0 0 0.0254,-0.2109 z m -7.93945,0.2109 a 4,4 0 0 0 0.0273,0.1856 4,4 0 0 1 -0.0273,-0.1856 z m 7.88672,0.1856 a 4,4 0 0 1 -0.0508,0.2226 4,4 0 0 0 0.0508,-0.2226 z m -7.8086,0.2226 a 4,4 0 0 0 0.0391,0.1543 4,4 0 0 1 -0.0391,-0.1543 z m 7.71875,0.1543 a 4,4 0 0 1 -0.0703,0.2149 4,4 0 0 0 0.0703,-0.2149 z m -7.60937,0.2149 a 4,4 0 0 0 0.0664,0.1797 4,4 0 0 1 -0.0664,-0.1797 z m 7.47265,0.1797 a 4,4 0 0 1 -0.0781,0.1738 4,4 0 0 0 0.0781,-0.1738 z m -7.32812,0.1738 a 4,4 0 0 0 0.0898,0.1855 4,4 0 0 1 -0.0898,-0.1855 z m 7.16016,0.1855 a 4,4 0 0 1 -0.0937,0.1641 4,4 0 0 0 0.0937,-0.1641 z m -6.97657,0.1641 a 4,4 0 0 0 0.11524,0.1875 4,4 0 0 1 -0.11524,-0.1875 z m 6.76758,0.1875 a 4,4 0 0 1 -0.0976,0.1348 4,4 0 0 0 0.0976,-0.1348 z m -6.55469,0.1348 a 4,4 0 0 0 0.14063,0.1855 4,4 0 0 1 -0.14063,-0.1855 z m 6.31641,0.1855 a 4,4 0 0 1 -0.11328,0.1289 4,4 0 0 0 0.11328,-0.1289 z m -6.0625,0.1289 a 4,4 0 0 0 0.14844,0.1602 4,4 0 0 1 -0.14844,-0.1602 z m 5.80078,0.1602 a 4,4 0 0 1 -0.16015,0.1484 4,4 0 0 0 0.16015,-0.1484 z m -5.49219,0.1484 a 4,4 0 0 0 0.12891,0.1133 4,4 0 0 1 -0.12891,-0.1133 z m 5.20313,0.1133 a 4,4 0 0 1 -0.18555,0.1406 4,4 0 0 0 0.18555,-0.1406 z m -4.88867,0.1406 a 4,4 0 0 0 0.13476,0.098 4,4 0 0 1 -0.13476,-0.098 z m 4.56836,0.098 a 4,4 0 0 1 -0.1875,0.1152 4,4 0 0 0 0.1875,-0.1152 z m -4.2461,0.1152 a 4,4 0 0 0 0.16407,0.094 4,4 0 0 1 -0.16407,-0.094 z m 3.89453,0.094 a 4,4 0 0 1 -0.18554,0.09 4,4 0 0 0 0.18554,-0.09 z m -3.54492,0.09 a 4,4 0 0 0 0.17383,0.078 4,4 0 0 1 -0.17383,-0.078 z m 3.18555,0.078 a 4,4 0 0 1 -0.17969,0.066 4,4 0 0 0 0.17969,-0.066 z m -2.83203,0.066 a 4,4 0 0 0 0.21484,0.07 4,4 0 0 1 -0.21484,-0.07 z m 2.4375,0.07 a 4,4 0 0 1 -0.1543,0.039 4,4 0 0 0 0.1543,-0.039 z m -2.06836,0.039 a 4,4 0 0 0 0.22265,0.051 4,4 0 0 1 -0.22265,-0.051 z m 1.69141,0.051 a 4,4 0 0 1 -0.18555,0.027 4,4 0 0 0 0.18555,-0.027 z m -1.28321,0.027 a 4,4 0 0 0 0.21094,0.025 4,4 0 0 1 -0.21094,-0.025 z m 0.88672,0.025 a 4,4 0 0 1 -0.33789,0.018 4,4 0 0 0 0.33789,-0.018 z"
       id="path7266" />
  </g>
</svg>
