<?xml version="1.0" encoding="UTF-8" standalone="no"?>
<!-- Created with Inkscape (http://www.inkscape.org/) -->

<svg
   width="24"
   height="24"
   id="svg4682"
   version="1.1"
   inkscape:version="1.1.2 (0a00cf5339, 2022-02-04)"
   sodipodi:docname="ic_notif_video.svg"
   inkscape:export-filename="/home/corbax/Dev/android/Icons/Test 1/ic_play_normal.png"
   inkscape:export-xdpi="90"
   inkscape:export-ydpi="90"
   xmlns:inkscape="http://www.inkscape.org/namespaces/inkscape"
   xmlns:sodipodi="http://sodipodi.sourceforge.net/DTD/sodipodi-0.dtd"
   xmlns="http://www.w3.org/2000/svg"
   xmlns:svg="http://www.w3.org/2000/svg"
   xmlns:rdf="http://www.w3.org/1999/02/22-rdf-syntax-ns#"
   xmlns:cc="http://creativecommons.org/ns#"
   xmlns:dc="http://purl.org/dc/elements/1.1/">
  <defs
     id="defs4684" />
  <sodipodi:namedview
     id="base"
     pagecolor="#ffffff"
     bordercolor="#666666"
     borderopacity="1.0"
     inkscape:pageopacity="0.0"
     inkscape:pageshadow="2"
     inkscape:zoom="8"
     inkscape:cx="9.375"
     inkscape:cy="2.5"
     inkscape:document-units="px"
     inkscape:current-layer="layer1"
     showgrid="true"
     inkscape:window-width="1920"
     inkscape:window-height="1043"
     inkscape:window-x="0"
     inkscape:window-y="0"
     inkscape:window-maximized="1"
     inkscape:snap-grids="false"
     inkscape:snap-bbox="true"
     inkscape:bbox-paths="true"
     inkscape:bbox-nodes="true"
     inkscape:snap-bbox-edge-midpoints="true"
     inkscape:snap-bbox-midpoints="true"
     inkscape:object-paths="true"
     inkscape:snap-intersection-paths="true"
     inkscape:object-nodes="true"
     inkscape:snap-smooth-nodes="true"
     inkscape:snap-midpoints="true"
     inkscape:snap-object-midpoints="true"
     inkscape:snap-center="true"
     inkscape:pagecheckerboard="1">
    <inkscape:grid
       type="xygrid"
       id="grid3002" />
  </sodipodi:namedview>
  <metadata
     id="metadata4687">
    <rdf:RDF>
      <cc:Work
         rdf:about="">
        <dc:format>image/svg+xml</dc:format>
        <dc:type
           rdf:resource="http://purl.org/dc/dcmitype/StillImage" />
      </cc:Work>
    </rdf:RDF>
  </metadata>
  <g
     inkscape:label="Layer 1"
     inkscape:groupmode="layer"
     id="layer1"
     transform="translate(0,-1028.3622)">
    <path
       id="path46413"
       style="color:#000000;fill:#000000;stroke-linecap:round;stroke-linejoin:round;-inkscape-stroke:none"
       d="M 11.5 3 C 10.851822 3 10.138653 3.2300562 9.6347656 3.7226562 C 9.1308787 4.2152563 8.8254804 4.8614469 8.5507812 5.6855469 L 4.7792969 17 L 4 17 C 2.9072943 17 2 17.9073 2 19 L 2 20 C 2.0000552 20.5523 2.4477381 20.9999 3 21 L 7 21 C 7.5522847 21 8 20.5523 8 20 C 8 19.4477 7.5522847 19 7 19 L 6.2207031 19 L 10.449219 6.3164062 C 10.674519 5.6405063 10.897791 5.2866969 11.033203 5.1542969 C 11.374002 4.8153969 11.716444 4.8175969 11.966797 5.1542969 C 12.102209 5.2866969 12.325481 5.6405063 12.550781 6.3164062 L 13.550781 9.3164062 C 13.725277 9.8409062 14.292147 10.124319 14.816406 9.9492188 C 15.339806 9.7747187 15.62298 9.2091469 15.449219 8.6855469 L 14.449219 5.6855469 C 14.17452 4.8614469 13.869121 4.2152563 13.365234 3.7226562 C 12.861347 3.2300562 12.148178 3 11.5 3 z M 11.5 12 C 10.675 12 10 12.675 10 13.5 L 10 20.5 C 10 21.325 10.675 22 11.5 22 L 21.5 22 C 22.325 22 23 21.325 23 20.5 L 23 12.75 C 23 12.3375 22.6625 12 22.25 12 L 20.5 12 L 21.320312 13.638672 C 21.402313 13.804372 21.282256 13.9991 21.097656 14 L 20.117188 14 C 19.738187 14 19.392056 13.785966 19.222656 13.447266 L 18.5 12 L 17.5 12 L 18.320312 13.638672 C 18.402313 13.804372 18.282256 13.9991 18.097656 14 L 17.117188 14 C 16.738187 14 16.392056 13.785966 16.222656 13.447266 L 15.5 12 L 14.5 12 L 15.320312 13.638672 C 15.402313 13.804372 15.282256 13.9991 15.097656 14 L 14.117188 14 C 13.738188 14 13.392056 13.785966 13.222656 13.447266 L 12.5 12 L 11.5 12 z M 12 14 L 12.722656 15.447266 C 12.892056 15.785966 13.238287 16 13.617188 16 L 14 16 L 21 16 L 21 20 L 12 20 L 12 14 z "
       transform="translate(0,1028.3622)" />
  </g>
</svg>
