<?xml version="1.0" encoding="UTF-8" standalone="no"?><!-- Created with Inkscape (http://www.inkscape.org/) -->

<svg xmlns:dc="http://purl.org/dc/elements/1.1/" xmlns:cc="http://creativecommons.org/ns#"
        xmlns:rdf="http://www.w3.org/1999/02/22-rdf-syntax-ns#"
        xmlns:svg="http://www.w3.org/2000/svg" xmlns="http://www.w3.org/2000/svg"
        xmlns:sodipodi="http://sodipodi.sourceforge.net/DTD/sodipodi-0.dtd"
        xmlns:inkscape="http://www.inkscape.org/namespaces/inkscape" width="32" height="32"
        id="svg4682" version="1.1" inkscape:version="0.92.3 (2405546, 2018-03-11)"
        sodipodi:docname="ic_nav_more.svg"
        inkscape:export-filename="/home/corbax/Dev/android/Icons/Test 1/ic_play_normal.png"
        inkscape:export-xdpi="90" inkscape:export-ydpi="90">
    <defs id="defs4684" />
    <sodipodi:namedview id="base" pagecolor="#ffffff" bordercolor="#666666" borderopacity="1.0"
            inkscape:pageopacity="0.0" inkscape:pageshadow="2" inkscape:zoom="11.2"
            inkscape:cx="-35.896268" inkscape:cy="8.3208133" inkscape:document-units="px"
            inkscape:current-layer="layer1" showgrid="true" inkscape:window-width="2560"
            inkscape:window-height="1413" inkscape:window-x="0" inkscape:window-y="27"
            inkscape:window-maximized="1">
        <inkscape:grid type="xygrid" id="grid3956" empspacing="4" visible="true" enabled="true"
                snapvisiblegridlinesonly="true" />
    </sodipodi:namedview>
    <metadata id="metadata4687">
        <rdf:RDF>
            <cc:Work rdf:about="">
                <dc:format>image/svg+xml</dc:format>
                <dc:type rdf:resource="http://purl.org/dc/dcmitype/StillImage" />
                <dc:title></dc:title>
            </cc:Work>
        </rdf:RDF>
    </metadata>
    <g inkscape:label="Layer 1" inkscape:groupmode="layer" id="layer1"
            transform="translate(0,-1020.3622)">
        <g id="g847" transform="matrix(0,1.3333333,-1.3333333,0,32,1020.3622)">
            <path id="path833" d="M 0,0 H 24 V 24 H 0 Z" inkscape:connector-curvature="0"
                    style="fill:none" />
            <path id="path835"
                    d="m 12,8 c 1.1,0 2,-0.9 2,-2 0,-1.1 -0.9,-2 -2,-2 -1.1,0 -2,0.9 -2,2 0,1.1 0.9,2 2,2 z m 0,2 c -1.1,0 -2,0.9 -2,2 0,1.1 0.9,2 2,2 1.1,0 2,-0.9 2,-2 0,-1.1 -0.9,-2 -2,-2 z m 0,6 c -1.1,0 -2,0.9 -2,2 0,1.1 0.9,2 2,2 1.1,0 2,-0.9 2,-2 0,-1.1 -0.9,-2 -2,-2 z"
                    inkscape:connector-curvature="0" style="fill:#616161;fill-opacity:1" />
        </g>
    </g>
</svg>
