<?xml version="1.0" encoding="UTF-8"?>
<svg width="24px" height="24px" viewBox="0 0 24 24" version="1.1" xmlns="http://www.w3.org/2000/svg" xmlns:xlink="http://www.w3.org/1999/xlink">
    <title>ic-server/On@1x</title>
    <g id="ic-server/On" stroke="none" stroke-width="1" fill="none" fill-rule="evenodd">
        <rect id="Rectangle" x="0" y="0" width="24" height="24"></rect>
        <path d="M20.001,23.0005 L22,23.0005 L22,21.0005 L20.001,21.0005 L20.001,23.0005 Z M4.009,14.9995 L20.001,14.9995 L20.001,4.9995 L10.9983865,4.9995 L8.97522837,2.9995 L4.001,2.9995 L4.009,4.9995 L4.009,14.9995 Z M22,15.0005 C22,16.0995 21.101,17.0005 20.001,17.0005 L13.005,17.0005 L13.005,21.0005 L11.006,21.0005 L11.006,17.0005 L4.001,17.0005 C2.9,17.0005 2,16.0995 2,14.9995 L2.01,2.9995 C2.01,1.9005 2.9,0.9995 4,0.9995 L10,0.9995 L12,2.9995 L20.001,2.9995 C21.101,2.9995 22,3.9005 22,4.9995 L22,15.0005 Z M6.008,23.0005 L18.002,23.0005 L18.002,21.0005 L6.008,21.0005 L6.008,23.0005 Z M2.01,23.0005 L4.009,23.0005 L4.009,21.0005 L2.01,21.0005 L2.01,23.0005 Z" id="Fill-1" fill="#FFFFFF"></path>
    </g>
</svg>