<?xml version="1.0" encoding="UTF-8" standalone="no"?>
<svg
   xmlns:dc="http://purl.org/dc/elements/1.1/"
   xmlns:cc="http://creativecommons.org/ns#"
   xmlns:rdf="http://www.w3.org/1999/02/22-rdf-syntax-ns#"
   xmlns:svg="http://www.w3.org/2000/svg"
   xmlns="http://www.w3.org/2000/svg"
   xmlns:sodipodi="http://sodipodi.sourceforge.net/DTD/sodipodi-0.dtd"
   xmlns:inkscape="http://www.inkscape.org/namespaces/inkscape"
   width="24"
   height="24"
   viewBox="0 0 24 24"
   version="1.1"
   id="SVGRoot"
   inkscape:version="1.0.1 (c497b03c, 2020-09-10)"
   sodipodi:docname="ic_notif_speed_1_50.svg">
  <defs
     id="defs7678" />
  <sodipodi:namedview
     id="base"
     pagecolor="#ffffff"
     bordercolor="#666666"
     borderopacity="1.0"
     inkscape:pageopacity="0.0"
     inkscape:pageshadow="2"
     inkscape:zoom="5.6568543"
     inkscape:cx="33.713701"
     inkscape:cy="36.426911"
     inkscape:document-units="px"
     inkscape:current-layer="layer1"
     showgrid="true"
     inkscape:window-width="1440"
     inkscape:window-height="855"
     inkscape:window-x="0"
     inkscape:window-y="23"
     inkscape:window-maximized="1"
     inkscape:grid-bbox="true"
     inkscape:snap-bbox="true"
     inkscape:bbox-paths="true"
     inkscape:snap-bbox-edge-midpoints="true"
     inkscape:bbox-nodes="true"
     inkscape:snap-bbox-midpoints="true"
     inkscape:object-paths="true"
     inkscape:snap-intersection-paths="true"
     inkscape:snap-smooth-nodes="true"
     inkscape:snap-midpoints="true"
     inkscape:snap-object-midpoints="true"
     inkscape:snap-center="true"
     inkscape:document-rotation="0">
    <inkscape:grid
       type="xygrid"
       id="grid8234" />
  </sodipodi:namedview>
  <metadata
     id="metadata7681">
    <rdf:RDF>
      <cc:Work
         rdf:about="">
        <dc:format>image/svg+xml</dc:format>
        <dc:type
           rdf:resource="http://purl.org/dc/dcmitype/StillImage" />
        <dc:title></dc:title>
      </cc:Work>
    </rdf:RDF>
  </metadata>
  <g
     inkscape:label="Layer 1"
     inkscape:groupmode="layer"
     id="layer1">
    <path
       id="path3357"
       style="color:#000000;font-style:normal;font-variant:normal;font-weight:normal;font-stretch:normal;font-size:medium;line-height:normal;font-family:sans-serif;font-variant-ligatures:normal;font-variant-position:normal;font-variant-caps:normal;font-variant-numeric:normal;font-variant-alternates:normal;font-variant-east-asian:normal;font-feature-settings:normal;font-variation-settings:normal;text-indent:0;text-align:start;text-decoration:none;text-decoration-line:none;text-decoration-style:solid;text-decoration-color:#000000;letter-spacing:normal;word-spacing:normal;text-transform:none;writing-mode:lr-tb;direction:ltr;text-orientation:mixed;dominant-baseline:auto;baseline-shift:baseline;text-anchor:start;white-space:normal;shape-padding:0;shape-margin:0;inline-size:0;clip-rule:nonzero;display:inline;overflow:visible;visibility:visible;isolation:auto;mix-blend-mode:normal;color-interpolation:sRGB;color-interpolation-filters:linearRGB;solid-color:#000000;solid-opacity:1;vector-effect:none;fill:#000000;fill-opacity:1;fill-rule:nonzero;stroke:none;stroke-width:1.14552;stroke-linecap:butt;stroke-linejoin:round;stroke-miterlimit:4;stroke-dasharray:none;stroke-dashoffset:0;stroke-opacity:1;color-rendering:auto;image-rendering:auto;shape-rendering:auto;text-rendering:auto;enable-background:accumulate;stop-color:#000000"
       d="M 11.942948,0.50004706 C 5.6520221,0.53114796 0.5447132,5.6643394 0.5447705,11.955276 c 1.146e-4,0.872448 0.1099917,1.725655 0.2998048,2.548341 0.1420125,0.616671 0.7571115,1.001371 1.3737326,0.859143 0.6166542,-0.142013 1.001349,-0.757124 0.8591422,-1.373733 C 2.9220027,13.315408 2.8359309,12.635092 2.8358164,11.955276 2.8357591,6.8992413 6.8963035,2.8173197 11.951898,2.7910929 c 0.01489,-4.58e-5 0.0298,-4.58e-5 0.04698,0 1.476178,0 2.858621,0.3540479 4.096587,0.9743657 0.565597,0.2841035 1.254436,0.055663 1.538178,-0.5101156 0.28397,-0.5658908 0.05497,-1.2548273 -0.511234,-1.5381778 -1.536834,-0.77009504 -3.275504,-1.21656264 -5.116818,-1.21711814 -0.02005,-6.31e-5 -0.03835,-6.31e-5 -0.05817,0 z m 8.075713,3.43656884 -9.27717,6.1057261 c -0.620587,0.410819 -1.0325365,1.112649 -1.0325365,1.912934 0,1.26531 1.0257585,2.291046 2.2910455,2.291046 0.800263,0 1.502093,-0.411909 1.912934,-1.032537 z m 1.167896,2.2664349 c -0.169137,0.00384 -0.335329,0.045105 -0.486623,0.1208171 -0.566222,0.2833294 -0.795195,0.9722714 -0.511234,1.5381774 0.6203,1.237887 0.975484,2.6198877 0.975484,4.0932307 -1.15e-4,0.679186 -0.0869,1.358583 -0.242752,2.032632 -0.142974,0.616625 0.241293,1.232331 0.858023,1.374852 0.616636,0.142975 1.232343,-0.24128 1.374851,-0.858024 0.1901,-0.822274 0.300809,-1.676199 0.300924,-2.54946 0,-1.842637 -0.447644,-3.5824177 -1.218237,-5.1201737 C 22.038536,6.4390342 21.629448,6.1929037 21.186557,6.2030508 Z M 15.957871,16.80585 c -0.721917,0 -1.281255,0.238651 -1.678011,0.715952 -0.393774,0.477301 -0.590661,1.155963 -0.590661,2.035988 v 1.190269 c 0,0.874058 0.198379,1.55123 0.595135,2.031514 C 14.681091,23.259857 15.24192,23.5 15.966821,23.5 c 0.718935,0 1.275289,-0.238651 1.669063,-0.715952 0.396756,-0.477301 0.595135,-1.155964 0.595135,-2.035989 v -1.185795 c 0,-0.877041 -0.198379,-1.555703 -0.595135,-2.035988 C 17.239127,17.045992 16.67979,16.80585 15.957871,16.80585 Z M 3.5271573,16.89534 0.6678248,17.884248 v 1.145523 l 1.4856,-0.434046 v 4.814777 H 3.6658731 V 16.89534 Z m 5.3606892,0 -0.398248,3.329176 1.19922,0.281906 c 0.173021,-0.226718 0.4355365,-0.340077 0.7875475,-0.340077 0.620491,0 0.930737,0.347535 0.930737,1.042605 0,0.751749 -0.253567,1.127624 -0.760699,1.127624 -0.223735,0 -0.404214,-0.0701 -0.541439,-0.210311 C 9.9677405,21.98606 9.8916705,21.796631 9.8767555,21.55798 h -1.512448 c -0.003,0.369908 0.09695,0.702528 0.299804,0.997858 0.202853,0.292347 0.483268,0.52354 0.841244,0.693578 C 9.8633305,23.416472 10.246664,23.5 10.655353,23.5 c 0.459403,0 0.857651,-0.09099 1.194745,-0.272957 0.337094,-0.181971 0.598118,-0.441503 0.783072,-0.778598 0.187937,-0.340077 0.281906,-0.718935 0.281906,-1.136573 0,-0.692087 -0.174513,-1.229051 -0.523539,-1.610892 -0.346044,-0.384824 -0.842735,-0.577236 -1.490075,-0.577236 -0.167055,0 -0.338586,0.02387 -0.51459,0.0716 -0.173023,0.04773 -0.313229,0.102918 -0.4206225,0.165564 L 10.113915,18.06772 h 2.581901 v -1.172376 z m 7.0700245,1.073928 c 0.265499,0 0.459403,0.116342 0.581711,0.349026 0.122309,0.229701 0.183463,0.578727 0.183463,1.04708 v 1.610891 c -0.003,0.468352 -0.06563,0.812904 -0.187937,1.033656 -0.122309,0.217769 -0.311738,0.326653 -0.568287,0.326653 -0.265499,0 -0.459402,-0.111867 -0.581711,-0.335603 -0.122308,-0.226718 -0.183462,-0.583202 -0.183462,-1.069453 V 19.26693 c 0.0089,-0.435537 0.07159,-0.760699 0.187937,-0.975484 0.119325,-0.214786 0.308755,-0.322178 0.568286,-0.322178 z m 2.778789,0.599609 1.270814,2.358166 -1.342409,2.483459 h 1.584043 l 0.747275,-1.431904 0.760698,1.431904 h 1.575094 l -1.337934,-2.483459 1.275289,-2.358166 h -1.566145 l -0.702527,1.333461 -0.680155,-1.333461 z M 6.5878515,21.947275 c -0.2416333,0 -0.4415036,0.0716 -0.5996098,0.214785 -0.1551227,0.143191 -0.2326844,0.32367 -0.2326844,0.541439 0,0.217769 0.077562,0.398249 0.2326844,0.541439 0.1581062,0.14319 0.3579765,0.214785 0.5996098,0.214785 0.238651,0 0.437029,-0.0701 0.595135,-0.210311 0.158106,-0.14319 0.237159,-0.325161 0.237159,-0.545913 0,-0.220752 -0.07905,-0.401231 -0.237159,-0.541439 -0.158106,-0.14319 -0.356484,-0.214785 -0.595135,-0.214785 z" />
  </g>
</svg>
