<?xml version="1.0" encoding="UTF-8" standalone="no"?>
<!-- Created with Inkscape (http://www.inkscape.org/) -->

<svg
   width="24"
   height="24"
   id="svg4682"
   version="1.1"
   inkscape:version="1.1.2 (0a00cf5339, 2022-02-04)"
   sodipodi:docname="ic_notif_web_server.svg"
   inkscape:export-filename="/home/corbax/Dev/android/Icons/Test 1/ic_play_normal.png"
   inkscape:export-xdpi="90"
   inkscape:export-ydpi="90"
   xmlns:inkscape="http://www.inkscape.org/namespaces/inkscape"
   xmlns:sodipodi="http://sodipodi.sourceforge.net/DTD/sodipodi-0.dtd"
   xmlns="http://www.w3.org/2000/svg"
   xmlns:svg="http://www.w3.org/2000/svg"
   xmlns:rdf="http://www.w3.org/1999/02/22-rdf-syntax-ns#"
   xmlns:cc="http://creativecommons.org/ns#"
   xmlns:dc="http://purl.org/dc/elements/1.1/">
  <defs
     id="defs4684" />
  <sodipodi:namedview
     id="base"
     pagecolor="#ffffff"
     bordercolor="#666666"
     borderopacity="1.0"
     inkscape:pageopacity="0.0"
     inkscape:pageshadow="2"
     inkscape:zoom="22.4"
     inkscape:cx="6.9419643"
     inkscape:cy="18.90625"
     inkscape:document-units="px"
     inkscape:current-layer="layer1"
     showgrid="true"
     inkscape:window-width="1920"
     inkscape:window-height="1016"
     inkscape:window-x="0"
     inkscape:window-y="0"
     inkscape:window-maximized="1"
     inkscape:snap-grids="true"
     inkscape:snap-bbox="true"
     inkscape:bbox-paths="true"
     inkscape:bbox-nodes="true"
     inkscape:snap-bbox-edge-midpoints="true"
     inkscape:snap-bbox-midpoints="true"
     inkscape:object-paths="true"
     inkscape:snap-intersection-paths="true"
     inkscape:object-nodes="true"
     inkscape:snap-smooth-nodes="true"
     inkscape:snap-midpoints="true"
     inkscape:snap-object-midpoints="true"
     inkscape:snap-center="true"
     inkscape:pagecheckerboard="1">
    <inkscape:grid
       type="xygrid"
       id="grid3002" />
  </sodipodi:namedview>
  <metadata
     id="metadata4687">
    <rdf:RDF>
      <cc:Work
         rdf:about="">
        <dc:format>image/svg+xml</dc:format>
        <dc:type
           rdf:resource="http://purl.org/dc/dcmitype/StillImage" />
      </cc:Work>
    </rdf:RDF>
  </metadata>
  <g
     inkscape:label="Layer 1"
     inkscape:groupmode="layer"
     id="layer1"
     transform="translate(0,-1028.3622)">
    <path
       id="path4438"
       style="fill:#000000;stroke-width:1"
       d="M 10.287109 3 C 10.073409 3 9.8351625 3.0237437 9.6640625 3.1523438 C 9.3256625 3.4057438 9.1893312 3.8131062 8.8945312 4.6914062 C 8.5999314 5.5697063 8.5878906 5.6132812 8.5878906 5.6132812 C 9.8186906 6.2285812 10.710628 6.2861813 11.986328 5.6132812 C 11.986328 5.6132812 11.972287 5.5663063 11.679688 4.6914062 C 11.386088 3.8165062 11.250556 3.4117437 10.910156 3.1523438 C 10.740156 3.0228436 10.500909 3 10.287109 3 z M 7.5136719 8.8359375 L 7.5097656 8.84375 L 6.2792969 12.537109 L 6.2792969 12.546875 C 6.2792969 12.546875 6.291875 12.547109 6.296875 12.537109 C 7.6570324 13.715967 9.3892664 14.193087 11.056641 13.982422 A 13.000005 13.000005 0 0 1 13.775391 10.960938 L 13.066406 8.8359375 C 11.199806 10.229638 9.3599719 10.217437 7.5136719 8.8359375 z M 21 10 C 15.488974 10 11 14.489 11 20 A 1 1 0 0 0 12 21 A 1 1 0 0 0 13 20 C 13 15.5699 16.569835 12 21 12 A 1 1 0 0 0 22 11 A 1 1 0 0 0 21 10 z M 21 14 C 17.698153 14 15 16.6982 15 20 A 1 1 0 0 0 16 21 A 1 1 0 0 0 17 20 C 17 17.7791 18.779053 16 21 16 A 1 1 0 0 0 22 15 A 1 1 0 0 0 21 14 z M 4.3671875 14.382812 C 3.9579875 14.382812 3.5765312 14.691909 3.4570312 15.099609 L 2.7402344 17.537109 C 2.5060344 18.337209 2.2742625 19.131247 2.0390625 19.935547 C 1.9400625 20.271647 2.0405188 20.518553 2.1992188 20.689453 C 2.2972187 20.795253 2.4174969 20.872928 2.5292969 20.923828 C 2.6406969 20.973828 2.7185406 21 2.8066406 21 L 9 21 A 13.000005 13.000005 0 0 1 9.4003906 17.923828 C 7.8340331 17.766347 6.3523264 17.198453 5.3710938 16.238281 C 5.1389938 16.011181 5.2171937 15.778006 5.3710938 15.316406 C 5.4734938 15.008706 5.6660156 14.388672 5.6660156 14.388672 L 4.3691406 14.388672 L 4.3671875 14.382812 z M 22 18 C 20.3431 18 19 19.3432 19 21 L 22 21 L 22 18 z "
       transform="translate(0,1028.3622)" />
  </g>
</svg>
