<?xml version="1.0" encoding="UTF-8" standalone="no"?>
<svg
   xmlns:dc="http://purl.org/dc/elements/1.1/"
   xmlns:cc="http://creativecommons.org/ns#"
   xmlns:rdf="http://www.w3.org/1999/02/22-rdf-syntax-ns#"
   xmlns:svg="http://www.w3.org/2000/svg"
   xmlns="http://www.w3.org/2000/svg"
   xmlns:sodipodi="http://sodipodi.sourceforge.net/DTD/sodipodi-0.dtd"
   xmlns:inkscape="http://www.inkscape.org/namespaces/inkscape"
   width="24"
   height="24"
   viewBox="0 0 24 24"
   version="1.1"
   id="SVGRoot"
   inkscape:version="1.0.1 (c497b03c, 2020-09-10)"
   sodipodi:docname="ic_notif_forward_10.svg">
  <defs
     id="defs2412" />
  <sodipodi:namedview
     id="base"
     pagecolor="#ffffff"
     bordercolor="#666666"
     borderopacity="1.0"
     inkscape:pageopacity="0.0"
     inkscape:pageshadow="2"
     inkscape:zoom="6.1421982"
     inkscape:cx="-45.628844"
     inkscape:cy="26.930919"
     inkscape:document-units="px"
     inkscape:current-layer="layer1"
     showgrid="true"
     inkscape:window-width="1214"
     inkscape:window-height="855"
     inkscape:window-x="116"
     inkscape:window-y="23"
     inkscape:window-maximized="0"
     inkscape:grid-bbox="true"
     inkscape:snap-grids="true"
     inkscape:snap-page="true"
     inkscape:document-rotation="0">
    <inkscape:grid
       type="xygrid"
       id="grid2968"
       originx="0"
       originy="0" />
  </sodipodi:namedview>
  <metadata
     id="metadata2415">
    <rdf:RDF>
      <cc:Work
         rdf:about="">
        <dc:format>image/svg+xml</dc:format>
        <dc:type
           rdf:resource="http://purl.org/dc/dcmitype/StillImage" />
        <dc:title></dc:title>
      </cc:Work>
    </rdf:RDF>
  </metadata>
  <g
     inkscape:label="Layer 1"
     inkscape:groupmode="layer"
     id="layer1">
    <path
       style="opacity:1;fill:#000000;fill-opacity:1;stroke:none;stroke-width:1.91868;stroke-linecap:round;stroke-linejoin:round;stroke-miterlimit:4;stroke-dasharray:none;stroke-dashoffset:0;stroke-opacity:1;paint-order:markers fill stroke"
       d="M 12.70639,0.50015061 C 12.314211,0.50735061 11.99997,0.82742051 12,1.219657 v 3.0935031 c -5.298299,0 -9.59342,4.295121 -9.59342,9.5934199 0,5.298299 4.295121,9.59342 9.59342,9.59342 5.298299,0 9.59342,-4.295121 9.59342,-9.59342 h -1.918684 c 0,4.238639 -3.436096,7.674736 -7.674736,7.674736 -4.23864,0 -7.674736,-3.436097 -7.674736,-7.674736 C 4.325264,9.6679401 7.76136,6.2318441 12,6.2318441 v 3.115988 c 2.49e-4,0.640095 0.773641,0.9612779 1.227284,0.50965 l 4.079076,-4.07533 C 17.587873,5.5004586 17.587099,5.043482 17.30446,4.7628517 L 13.227237,0.70813311 C 13.088945,0.57122361 12.900973,0.49616901 12.70639,0.50015061 Z m -2.147277,11.00807439 -0.02623,0.01124 -2.370252,0.9481 v 1.439013 l 0.959342,-0.384112 v 4.22148 h 1.439013 v -4.79671 -1.439013 z m 3.599406,0 C 12.9627,11.508225 12,12.470925 12,13.666744 v 1.918684 c 0,1.19582 0.9627,2.15852 2.158519,2.15852 1.19582,0 2.15852,-0.9627 2.15852,-2.15852 v -1.918684 c 0,-1.195819 -0.9627,-2.158519 -2.15852,-2.158519 z m 0,1.439013 c 0.398607,0 0.719507,0.3209 0.719507,0.719506 v 1.918684 c 0,0.398607 -0.3209,0.719507 -0.719507,0.719507 -0.398606,0 -0.719506,-0.3209 -0.719506,-0.719507 v -1.918684 c 0,-0.398606 0.3209,-0.719506 0.719506,-0.719506 z"
       id="path2737" />
  </g>
</svg>
