<?xml version="1.0" encoding="UTF-8" standalone="no"?>
<!-- Created with Inkscape (http://www.inkscape.org/) -->

<svg
   width="24"
   height="24"
   id="svg4682"
   version="1.1"
   inkscape:version="1.1.2 (0a00cf5339, 2022-02-04)"
   sodipodi:docname="ic_notif_scan.svg"
   inkscape:export-filename="/home/corbax/Dev/android/Icons/Test 1/ic_play_normal.png"
   inkscape:export-xdpi="90"
   inkscape:export-ydpi="90"
   xmlns:inkscape="http://www.inkscape.org/namespaces/inkscape"
   xmlns:sodipodi="http://sodipodi.sourceforge.net/DTD/sodipodi-0.dtd"
   xmlns="http://www.w3.org/2000/svg"
   xmlns:svg="http://www.w3.org/2000/svg"
   xmlns:rdf="http://www.w3.org/1999/02/22-rdf-syntax-ns#"
   xmlns:cc="http://creativecommons.org/ns#"
   xmlns:dc="http://purl.org/dc/elements/1.1/">
  <defs
     id="defs4684" />
  <sodipodi:namedview
     id="base"
     pagecolor="#ffffff"
     bordercolor="#666666"
     borderopacity="1.0"
     inkscape:pageopacity="0.0"
     inkscape:pageshadow="2"
     inkscape:zoom="11.313709"
     inkscape:cx="-9.8994949"
     inkscape:cy="7.2036503"
     inkscape:document-units="px"
     inkscape:current-layer="layer1"
     showgrid="true"
     inkscape:window-width="1920"
     inkscape:window-height="1016"
     inkscape:window-x="0"
     inkscape:window-y="0"
     inkscape:window-maximized="1"
     inkscape:snap-grids="true"
     inkscape:snap-bbox="true"
     inkscape:bbox-paths="true"
     inkscape:bbox-nodes="true"
     inkscape:snap-bbox-edge-midpoints="true"
     inkscape:snap-bbox-midpoints="true"
     inkscape:object-paths="true"
     inkscape:snap-intersection-paths="true"
     inkscape:object-nodes="true"
     inkscape:snap-smooth-nodes="true"
     inkscape:snap-midpoints="true"
     inkscape:snap-object-midpoints="true"
     inkscape:snap-center="true"
     inkscape:pagecheckerboard="1">
    <inkscape:grid
       type="xygrid"
       id="grid3002" />
  </sodipodi:namedview>
  <metadata
     id="metadata4687">
    <rdf:RDF>
      <cc:Work
         rdf:about="">
        <dc:format>image/svg+xml</dc:format>
        <dc:type
           rdf:resource="http://purl.org/dc/dcmitype/StillImage" />
      </cc:Work>
    </rdf:RDF>
  </metadata>
  <g
     inkscape:label="Layer 1"
     inkscape:groupmode="layer"
     id="layer1"
     transform="translate(0,-1028.3622)">
    <path
       id="path1749"
       style="color:#000000;fill:#000000;fill-rule:evenodd;stroke-linejoin:round;-inkscape-stroke:none"
       d="M 10.287109 3 C 10.073409 3 9.8351625 3.0237437 9.6640625 3.1523438 C 9.3256625 3.4056437 9.1893312 3.8131063 8.8945312 4.6914062 C 8.5999314 5.5697063 8.5878906 5.6132812 8.5878906 5.6132812 C 9.8186906 6.2286812 10.710628 6.2862813 11.986328 5.6132812 C 11.986328 5.6132812 11.972287 5.5662064 11.679688 4.6914062 C 11.386088 3.8165062 11.250556 3.4117437 10.910156 3.1523438 C 10.740156 3.0228436 10.500909 3 10.287109 3 z M 7.5136719 8.8359375 L 7.5097656 8.84375 L 6.2792969 12.537109 L 6.2792969 12.546875 C 6.2792969 12.545875 6.291875 12.547109 6.296875 12.537109 C 7.6299718 13.692514 9.3203928 14.175441 10.957031 13.996094 A 7 7 0 0 1 13.871094 11.251953 L 13.066406 8.8359375 C 11.199806 10.229738 9.3599719 10.217537 7.5136719 8.8359375 z M 17.496094 11.998047 L 17.496094 12 C 14.472087 12 12 14.4747 12 17.5 C 12 20.5253 14.472087 23 17.496094 23 C 19.678353 23 21.655664 21.700372 22.527344 19.701172 C 22.748289 19.195272 22.517444 18.606066 22.011719 18.384766 C 21.505821 18.163766 20.916577 18.394791 20.695312 18.900391 C 20.138593 20.177191 18.885431 21 17.496094 21 C 15.553906 21 14 19.4453 14 17.5 C 14 15.5547 15.553906 14 17.496094 14 C 18.162561 14.000144 18.808687 14.190264 19.363281 14.541016 L 18.359375 15.546875 C 18.044624 15.861875 18.267596 16.400191 18.712891 16.400391 L 22.111328 16.400391 C 22.387459 16.400391 22.6113 16.176491 22.611328 15.900391 L 22.611328 12.5 C 22.610905 12.2982 22.489188 12.116363 22.302734 12.039062 C 22.116083 11.961063 21.901045 12.004084 21.757812 12.146484 L 20.798828 13.105469 C 19.851864 12.392088 18.69473 11.998294 17.496094 11.998047 z M 4.3671875 14.382812 C 3.9579875 14.382812 3.5765312 14.691909 3.4570312 15.099609 L 2.7402344 17.537109 C 2.5060344 18.337209 2.2742625 19.131247 2.0390625 19.935547 C 1.9400625 20.271647 2.0405188 20.518553 2.1992188 20.689453 C 2.2972187 20.795253 2.4174969 20.872828 2.5292969 20.923828 C 2.6406969 20.973828 2.7185406 21 2.8066406 21 L 10.287109 21 L 10.955078 21 A 7 7 0 0 1 10.033203 17.964844 C 8.2394126 17.911938 6.4837167 17.326933 5.3710938 16.238281 C 5.1389938 16.011181 5.2171937 15.778006 5.3710938 15.316406 C 5.4734938 15.008706 5.6660156 14.388672 5.6660156 14.388672 L 4.3691406 14.388672 L 4.3671875 14.382812 z "
       transform="translate(0,1028.3622)" />
  </g>
</svg>
