<?xml version="1.0" encoding="UTF-8" standalone="no"?>
<svg
   width="64px"
   height="64px"
   viewBox="0 0 64 64"
   version="1.1"
   id="svg9"
   sodipodi:docname="ic_onboarding_scan.svg"
   inkscape:version="1.1.2 (0a00cf5339, 2022-02-04)"
   xmlns:inkscape="http://www.inkscape.org/namespaces/inkscape"
   xmlns:sodipodi="http://sodipodi.sourceforge.net/DTD/sodipodi-0.dtd"
   xmlns="http://www.w3.org/2000/svg"
   xmlns:svg="http://www.w3.org/2000/svg"
   xmlns:rdf="http://www.w3.org/1999/02/22-rdf-syntax-ns#"
   xmlns:cc="http://creativecommons.org/ns#"
   xmlns:dc="http://purl.org/dc/elements/1.1/">
  <defs
     id="defs13">
    <clipPath
       clipPathUnits="userSpaceOnUse"
       id="clipPath4792">
      <path
         style="fill:#ff8800"
         d="m 48.196759,963.10825 c -1.65441,1.23855 -2.321076,3.2256 -3.761719,7.51954 -1.440643,4.29394 -1.503906,4.51171 -1.503906,4.51171 l -5.265625,15.79688 -6.015625,18.05082 -3.007812,9.0234 h -6.34375 c -2,0 -3.860873,1.5107 -4.445313,3.5039 l -3.503906,11.9199 c -1.144783,3.9115 -2.279638,7.7947 -3.429687,11.7266 -0.481394,1.6434 0.0011,2.852 0.777343,3.6875 0.481014,0.5172 1.074588,0.8913 1.621094,1.1406 0.54688,0.2429 0.920775,0.3731 1.351562,0.3731 1.004345,0 18.539258,-0.01 36.572266,-0.01 v 0 c 18.033008,0 35.567921,0.01 36.572266,0.01 0.430787,0 0.804682,-0.1302 1.351562,-0.3731 0.546506,-0.2493 1.14008,-0.6234 1.621094,-1.1406 0.776228,-0.8355 1.258738,-2.0441 0.777344,-3.6875 -1.150049,-3.9319 -2.284905,-7.8151 -3.429688,-11.7266 l -3.503906,-11.9199 c -0.58444,-1.9932 -2.445313,-3.5039 -4.445313,-3.5039 h -6.34375 l -3.007812,-9.0234 -6.015625,-18.05082 -5.265625,-15.79688 c 0,0 -0.06885,-0.23443 -1.503906,-4.51171 -1.435052,-4.27728 -2.097358,-6.25133 -3.761719,-7.51954 -0.831195,-0.63336 -1.999923,-0.74609 -3.044922,-0.74609 -1.044999,0 -2.208378,0.11982 -3.044922,0.74609 z"
         id="path4794"
         inkscape:connector-curvature="0"
         sodipodi:nodetypes="szccccscccccsccscccccscccczsas" />
    </clipPath>
  </defs>
  <sodipodi:namedview
     id="namedview11"
     pagecolor="#e6e6e6"
     bordercolor="#111111"
     borderopacity="1"
     inkscape:pageshadow="0"
     inkscape:pageopacity="0"
     inkscape:pagecheckerboard="false"
     showgrid="true"
     inkscape:zoom="7.2407734"
     inkscape:cx="18.644417"
     inkscape:cy="45.851455"
     inkscape:window-width="1920"
     inkscape:window-height="1043"
     inkscape:window-x="0"
     inkscape:window-y="0"
     inkscape:window-maximized="1"
     inkscape:current-layer="svg9"
     inkscape:snap-bbox="true"
     inkscape:bbox-paths="true"
     inkscape:bbox-nodes="true"
     inkscape:snap-bbox-edge-midpoints="true"
     inkscape:snap-bbox-midpoints="true"
     inkscape:object-paths="true"
     inkscape:snap-intersection-paths="true"
     inkscape:snap-smooth-nodes="true"
     inkscape:snap-midpoints="true"
     inkscape:snap-object-midpoints="true"
     inkscape:snap-center="true"
     inkscape:snap-text-baseline="true">
    <inkscape:grid
       type="xygrid"
       id="grid888" />
  </sodipodi:namedview>
  <title
     id="title2">cone scan</title>
  <metadata
     id="metadata986">
    <rdf:RDF>
      <cc:Work
         rdf:about="">
        <dc:title>cone scan</dc:title>
      </cc:Work>
    </rdf:RDF>
  </metadata>
  <metadata
     id="metadata1867">
    <rdf:RDF>
      <cc:Work
         rdf:about="">
        <dc:title>cone scan</dc:title>
      </cc:Work>
    </rdf:RDF>
  </metadata>
  <path
     id="path16879"
     style="fill:#ffffff;fill-opacity:1;stroke-width:1"
     d="M 19.449219 7.6210938 L 16.550781 16.310547 C 19.033539 18.172617 21.348413 19.103516 24 19.103516 C 26.651587 19.103516 28.966461 18.172617 31.449219 16.310547 L 28.550781 7.6210938 C 25.119594 9.4309737 22.759645 9.2762437 19.449219 7.6210938 z M 13.242188 26.242188 L 11.585938 31.207031 C 11.585938 31.207031 11.033749 32.861913 10.757812 33.689453 C 10.343853 34.930943 10.133624 35.561095 10.757812 36.171875 C 14.09101 39.433545 19.33271 40.723269 24 40.724609 C 24.0989 40.724649 24.199411 40.71975 24.298828 40.71875 A 20 20 0 0 1 30.677734 29.109375 C 28.546069 30.073675 26.316465 30.378906 24 30.378906 C 20.157687 30.378906 16.552533 29.552527 13.242188 26.242188 z M 34.757812 26.242188 C 34.696272 26.303687 34.634008 26.358139 34.572266 26.417969 A 20 20 0 0 1 34.779297 26.304688 L 34.757812 26.242188 z M 44.185547 30.662109 C 43.669824 30.655436 43.146354 30.678256 42.617188 30.732422 C 36.500521 31.349092 31.466537 36.316934 30.783203 42.433594 C 29.866537 50.516934 36.116667 57.333984 44 57.333984 C 49.316667 57.333984 53.884245 54.215762 56.017578 49.732422 C 56.550912 48.615762 55.750912 47.333984 54.517578 47.333984 C 53.900912 47.333984 53.317447 47.666797 53.050781 48.216797 C 51.167447 52.266797 46.65013 54.832422 41.716797 53.732422 C 38.016797 52.915762 35.033334 49.899219 34.25 46.199219 C 32.85 39.732549 37.766667 34 44 34 C 46.766667 34 49.233203 35.150127 51.033203 36.966797 L 48.517578 39.482422 C 47.467578 40.532422 48.20026 42.333984 49.683594 42.333984 L 55.666016 42.333984 C 56.582683 42.333984 57.333984 41.582676 57.333984 40.666016 L 57.333984 34.683594 C 57.333984 33.200264 55.532422 32.45 54.482422 33.5 L 53.416016 34.583984 C 51.038933 32.206907 47.795605 30.708824 44.185547 30.662109 z " />
  <path
     id="path16881"
     style="fill:#ff8800;stroke-width:1"
     d="m 24,1 c -1.034482,0 -1.712768,0.46044 -2.275391,1.03516 -0.77792,0.79465 -1.449218,3.10351 -1.449218,3.10351 l -0.826172,2.48242 c 3.310426,1.65515 5.670375,1.80988 9.101562,0 L 27.724609,5.13867 c 0,0 -0.671298,-2.30887 -1.449218,-3.10351 C 25.712768,1.46044 25.034483,1 24,1 Z m -7.449219,15.31055 -3.308593,9.93164 c 3.310344,3.31034 6.915498,4.13672 10.757812,4.13672 2.316674,0 4.545894,-0.30503 6.677734,-1.26954 a 20,20 0 0 1 3.894532,-2.6914 c 0.06174,-0.0598 0.124008,-0.11424 0.185546,-0.17578 L 31.449219,16.31055 C 28.966461,18.17262 26.651587,19.10352 24,19.10352 c -2.651587,0 -4.966461,-0.9309 -7.449219,-2.79297 z M 8.068359,31.20703 c -1.100312,0 -2.142546,0.96218 -2.482422,2.06836 L 1.964844,45.68945 C 1.481048,47.34817 1.655779,49 3.931641,49 H 24 24.671875 A 20,20 0 0 1 24,44 20,20 0 0 1 24.298828,40.71484 c -0.09886,10e-4 -0.200482,0.01 -0.298828,0.01 -4.667289,-0.002 -9.908991,-1.29107 -13.242188,-4.55273 -0.624188,-0.61078 -0.41396,-1.24094 0,-2.48242 0.275936,-0.82755 0.828126,-2.48242 0.828126,-2.48242 z" />
</svg>
