<?xml version="1.0" encoding="UTF-8"?>
<svg width="64px" height="64px" viewBox="0 0 64 64" version="1.1" xmlns="http://www.w3.org/2000/svg" xmlns:xlink="http://www.w3.org/1999/xlink">
    <title>cone scan</title>
    <g id="cone-scan" stroke="none" stroke-width="1" fill="none" fill-rule="evenodd">
        <g id="vlc-scan" transform="translate(3.000000, 0.000000)">
            <path d="M57.3529412,32.2352941 L57.3529412,44.9413353 L44.6470255,44.9413353 L49.3248994,40.2631882 C47.2427568,38.1774707 44.4176679,37.0038096 41.4705469,37.0001588 C35.3304349,37.0001583 30.3528858,41.9776939 30.3528697,48.1178059 C30.3528858,54.2579179 35.3304349,59.2354535 41.4705469,59.2354529 C46.3865271,59.2346378 50.7183566,56.0053306 52.1229316,51.2942765 L52.1229316,51.2942765 L57.0179172,51.2942765 C55.5095309,58.6837653 49.0124121,63.9934496 41.4705469,64.0001588 C32.6989583,64.0001588 25.5881511,56.8893945 25.5881511,48.1178059 C25.5881511,43.9055124 27.2614253,39.8657328 30.2399557,36.8871807 C33.2184861,33.9086285 37.2582535,32.2352941 41.4705469,32.2352941 C45.6813354,32.2392647 49.7182093,33.9152166 52.6936814,36.8947 L52.6936814,36.8947 L57.3529412,32.2352941 Z M23.6803474,0.180172174 C24.3560366,0.180172174 24.9018377,0.29145913 25.4376823,0.637528696 C26.2882246,1.07876853 27.5507435,4.93473939 27.6313112,5.18305256 L27.6353691,5.19559826 L28.5142629,7.93034609 L31.5903909,17.5061896 L34.5482169,26.7146053 C25.5933348,29.1152561 19,37.2876501 19,47 C19,49.2772441 19.362473,51.4698281 20.0328709,53.5232038 L2.47647086,53.5227809 C2.04154971,53.5227809 1.15496229,53.2368157 0.568429714,52.6113548 C0.112690286,52.1248852 -0.157947429,51.4332157 0.100470857,50.5156852 C1.36088229,46.0473026 2.70864,41.2704157 4.15143771,36.1545026 C4.51133976,34.9045647 5.95823422,34.0187794 6.60345026,33.9372533 L6.693984,33.9311113 L10.4960366,33.9311113 L12.2556343,28.4616157 L12.2547291,28.4611461 L15.770304,17.5183983 L18.846432,7.94396348 L19.7253257,5.20827652 C19.7253257,5.20827652 21.0436663,1.10521565 21.92256,0.649267826 C22.3574811,0.369406957 22.7991909,0.243563478 23.3124069,0.205998261 L23.4931526,0.196489565 L23.4931526,0.196489565 L23.6803474,0.19332 L23.6803474,0.180172174 Z" id="Combined-Shape" fill="#FFFFFF"></path>
            <path d="M19,47 C19,49.2772441 19.362473,51.4698281 20.0328709,53.5232038 L2.47647086,53.5227809 C2.04154971,53.5227809 1.15496229,53.2368157 0.568429714,52.6113548 C0.112690286,52.1248852 -0.157947429,51.4332157 0.100470857,50.5156852 C1.36088229,46.0473026 2.70864,41.2704157 4.15143771,36.1545026 C4.51133976,34.9045647 5.95823422,34.0187794 6.60345026,33.9372533 L6.693984,33.9311113 L10.4960366,33.9311113 L10.4950782,33.9291722 L10.4971227,33.9320504 L9.61822903,36.6677374 C9.5532221,36.8066446 8.77313892,38.526132 9.61822903,39.4029548 C11.9903262,41.8641228 15.4403058,43.442412 19.1940925,44.1328828 L19.1940925,44.1328828 L19.1644947,44.358823 C19.0559338,45.223947 19,46.1054415 19,47 Z M31.5901193,17.5183983 L31.5930782,17.5151722 L34.5482169,26.7146053 C30.6599128,27.7569932 27.216852,29.8875785 24.5654719,32.7599237 L24.4484572,32.888497 C20.1307829,33.0871292 15.7583165,31.611189 12.2549102,28.4606765 L12.2549102,28.4606765 L15.770304,17.5183983 C21.0433947,21.6223983 26.2588279,21.6486939 31.5901193,17.5183983 Z M23.6803474,0.180172174 C24.3560366,0.180172174 24.9018377,0.29145913 25.4376823,0.637528696 C26.2882246,1.07876853 27.5507435,4.93473939 27.6313112,5.18305256 L27.6353691,5.19559826 L28.5142629,7.93034609 L28.5190414,7.94465275 C28.5173584,7.94442288 28.515675,7.94419312 28.5139913,7.94396348 C24.9979639,9.76728522 22.3617353,9.76728522 18.8461605,7.94396348 L19.7253257,5.20827652 C19.7253257,5.20827652 21.0436663,1.10521565 21.92256,0.649267826 C22.3574811,0.369406957 22.7991909,0.243563478 23.3124069,0.205998261 L23.4931526,0.196489565 L23.4931526,0.196489565 L23.6803474,0.19332 L23.6803474,0.180172174 Z" id="Combined-Shape" fill="#FF8800"></path>
        </g>
    </g>
</svg>