<?xml version="1.0" encoding="UTF-8"?>
<svg width="58px" height="58px" viewBox="0 0 58 58" version="1.1" xmlns="http://www.w3.org/2000/svg" xmlns:xlink="http://www.w3.org/1999/xlink">
    <title>cone!</title>
    <g id="cone!" stroke="none" stroke-width="1" fill="none" fill-rule="evenodd">
        <g id="application_resources_assets_images_svg_ic_warning" transform="translate(0.000000, 2.000000)" fill-rule="nonzero">
            <path d="M28.8,-6.98580558e-05 C26.00046,0.02898 23.182056,2.45394 21.6,7.20018 L8.4023442,46.80018 L3.6,46.80018 C1.6056,46.80018 0,48.40578 0,50.40018 L0,54.00018 L57.6,54.00018 L57.6,50.40018 C57.6,48.40578 55.9944,46.80018 54,46.80018 L49.1976558,46.80018 L36,7.20018 C34.38018,2.34072 31.599504,-0.02808 28.8,-6.98580558e-05 Z" id="path7543" fill="#FF8800"></path>
            <path d="M28.8,43.20018 C30.7882251,43.20018 32.4,44.8119549 32.4,46.80018 C32.4,48.7884051 30.7882251,50.40018 28.8,50.40018 C26.8117749,50.40018 25.2,48.7884051 25.2,46.80018 C25.2,44.8119549 26.8117749,43.20018 28.8,43.20018 Z M28.8,14.40018 C30.7882251,14.40018 32.4,16.0119549 32.4,18.00018 C32.3976198,18.1059187 32.390581,18.2115011 32.378904,18.31662 L32.4,18.31662 L30.5929692,37.90566 C30.5934255,37.9290578 30.5934255,37.9524622 30.5929692,37.97586 L30.5789292,38.08746 C30.4347702,38.9573197 29.6817229,39.594705 28.8,39.5931628 C27.9235343,39.5919239 27.1753689,38.9595697 27.028125,38.09556 L27.021105,38.09556 L27.007065,37.92636 L25.2,18.31662 L25.21404,18.31662 C25.2047196,18.2113971 25.2,18.1058149 25.2,18.00018 C25.2,16.0119549 26.8117749,14.40018 28.8,14.40018 Z" id="Combined-Shape" fill="#FFFFFF"></path>
        </g>
    </g>
</svg>