<?xml version="1.0" encoding="UTF-8" standalone="no"?>
<svg
   width="64px"
   height="64px"
   viewBox="0 0 64 64"
   version="1.1"
   id="svg9"
   sodipodi:docname="ic_onboarding_notification.svg"
   inkscape:version="1.1.2 (0a00cf5339, 2022-02-04)"
   xmlns:inkscape="http://www.inkscape.org/namespaces/inkscape"
   xmlns:sodipodi="http://sodipodi.sourceforge.net/DTD/sodipodi-0.dtd"
   xmlns="http://www.w3.org/2000/svg"
   xmlns:svg="http://www.w3.org/2000/svg"
   xmlns:rdf="http://www.w3.org/1999/02/22-rdf-syntax-ns#"
   xmlns:cc="http://creativecommons.org/ns#"
   xmlns:dc="http://purl.org/dc/elements/1.1/">
  <defs
     id="defs13">
    <clipPath
       clipPathUnits="userSpaceOnUse"
       id="clipPath4792">
      <path
         style="fill:#ff8800"
         d="m 48.196759,963.10825 c -1.65441,1.23855 -2.321076,3.2256 -3.761719,7.51954 -1.440643,4.29394 -1.503906,4.51171 -1.503906,4.51171 l -5.265625,15.79688 -6.015625,18.05082 -3.007812,9.0234 h -6.34375 c -2,0 -3.860873,1.5107 -4.445313,3.5039 l -3.503906,11.9199 c -1.144783,3.9115 -2.279638,7.7947 -3.429687,11.7266 -0.481394,1.6434 0.0011,2.852 0.777343,3.6875 0.481014,0.5172 1.074588,0.8913 1.621094,1.1406 0.54688,0.2429 0.920775,0.3731 1.351562,0.3731 1.004345,0 18.539258,-0.01 36.572266,-0.01 v 0 c 18.033008,0 35.567921,0.01 36.572266,0.01 0.430787,0 0.804682,-0.1302 1.351562,-0.3731 0.546506,-0.2493 1.14008,-0.6234 1.621094,-1.1406 0.776228,-0.8355 1.258738,-2.0441 0.777344,-3.6875 -1.150049,-3.9319 -2.284905,-7.8151 -3.429688,-11.7266 l -3.503906,-11.9199 c -0.58444,-1.9932 -2.445313,-3.5039 -4.445313,-3.5039 h -6.34375 l -3.007812,-9.0234 -6.015625,-18.05082 -5.265625,-15.79688 c 0,0 -0.06885,-0.23443 -1.503906,-4.51171 -1.435052,-4.27728 -2.097358,-6.25133 -3.761719,-7.51954 -0.831195,-0.63336 -1.999923,-0.74609 -3.044922,-0.74609 -1.044999,0 -2.208378,0.11982 -3.044922,0.74609 z"
         id="path4794"
         inkscape:connector-curvature="0"
         sodipodi:nodetypes="szccccscccccsccscccccscccczsas" />
    </clipPath>
  </defs>
  <sodipodi:namedview
     id="namedview11"
     pagecolor="#e6e6e6"
     bordercolor="#111111"
     borderopacity="1"
     inkscape:pageshadow="0"
     inkscape:pageopacity="0"
     inkscape:pagecheckerboard="false"
     showgrid="true"
     inkscape:zoom="5.1200001"
     inkscape:cx="8.7890623"
     inkscape:cy="16.992187"
     inkscape:window-width="1920"
     inkscape:window-height="1043"
     inkscape:window-x="0"
     inkscape:window-y="0"
     inkscape:window-maximized="1"
     inkscape:current-layer="svg9"
     inkscape:snap-bbox="true"
     inkscape:bbox-paths="true"
     inkscape:bbox-nodes="true"
     inkscape:snap-bbox-edge-midpoints="true"
     inkscape:snap-bbox-midpoints="true"
     inkscape:object-paths="true"
     inkscape:snap-intersection-paths="true"
     inkscape:snap-smooth-nodes="true"
     inkscape:snap-midpoints="true"
     inkscape:snap-object-midpoints="true"
     inkscape:snap-center="true"
     inkscape:snap-text-baseline="true">
    <inkscape:grid
       type="xygrid"
       id="grid888" />
  </sodipodi:namedview>
  <title
     id="title2">cone scan</title>
  <metadata
     id="metadata986">
    <rdf:RDF>
      <cc:Work
         rdf:about="">
        <dc:title>cone scan</dc:title>
      </cc:Work>
    </rdf:RDF>
  </metadata>
  <metadata
     id="metadata1867">
    <rdf:RDF>
      <cc:Work
         rdf:about="">
        <dc:title>cone scan</dc:title>
      </cc:Work>
    </rdf:RDF>
  </metadata>
  <path
     id="path1944"
     style="fill:#ffffff;fill-opacity:1;stroke-width:1"
     d="m 19.449219,7.62109 -2.898438,8.68946 c 2.482758,1.86207 4.797629,2.79297 7.449219,2.79297 2.65159,0 4.96646,-0.9309 7.44922,-2.79297 L 28.55078,7.62109 c -3.43119,1.80988 -5.79113,1.65515 -9.101561,0 z m -6.207031,18.6211 -1.65625,4.96484 c 0,0 -0.55219,1.65488 -0.828126,2.48242 -0.413959,1.24149 -0.624188,1.87164 0,2.48242 3.333198,3.26167 8.574898,4.5514 13.242188,4.55274 0.0989,4e-5 0.19941,-0.005 0.29883,-0.006 a 20,20 0 0 1 6.3789,-11.60934 c -2.13166,0.9643 -4.36127,1.26954 -6.67773,1.26954 -3.84231,0 -7.447467,-0.82638 -10.757812,-4.13672 z m 21.515622,0 c -0.0615,0.0615 -0.1238,0.11595 -0.18554,0.17578 a 20,20 0 0 1 0.20703,-0.11328 z" />
  <path
     id="path1946"
     style="fill:#ff8800;stroke-width:1"
     d="m 24,1 c -1.03448,0 -1.71277,0.46044 -2.27539,1.03516 -0.77792,0.79465 -1.44922,3.10351 -1.44922,3.10351 l -0.826171,2.48242 c 3.310431,1.65515 5.670371,1.80988 9.101561,0 L 27.72461,5.13867 c 0,0 -0.6713,-2.30887 -1.44922,-3.10351 C 25.71277,1.46044 25.03448,1 24,1 Z m -7.449219,15.31055 -3.308593,9.93164 C 16.552532,29.55253 20.15769,30.37891 24,30.37891 c 2.31667,0 4.54589,-0.30503 6.67773,-1.26954 a 20,20 0 0 1 3.89454,-2.6914 c 0.0617,-0.0598 0.124,-0.11424 0.18554,-0.17578 L 31.44922,16.31055 C 28.96646,18.17262 26.65159,19.10352 24,19.10352 c -2.65159,0 -4.966461,-0.9309 -7.449219,-2.79297 z M 8.0683593,31.20703 c -1.1003124,0 -2.1425464,0.96218 -2.4824224,2.06836 L 1.9648439,45.68945 C 1.4810479,47.34817 1.6557789,49 3.9316409,49 H 24 24.67188 A 20,20 0 0 1 24,44 20,20 0 0 1 24.29883,40.71484 c -0.0989,10e-4 -0.20048,0.01 -0.29883,0.01 -4.667289,-0.002 -9.908991,-1.29107 -13.242188,-4.55273 -0.624188,-0.61078 -0.41396,-1.24094 0,-2.48242 0.275936,-0.82755 0.828126,-2.48242 0.828126,-2.48242 z" />
  <path
     id="path1950"
     style="fill:#ffffff;fill-opacity:1;stroke-width:2"
     d="m 43.997409,31.083331 c -1.383334,0 -2.483725,1.116666 -2.483725,2.5 v 1.132812 c -4.783334,1.133333 -7.5,5.400521 -7.5,10.533856 v 8.333332 l -2.166342,2.148438 c -1.05,1.05 -0.316342,2.851562 1.166992,2.851562 h 21.949867 c 1.483339,0 2.233279,-1.801562 1.183279,-2.851562 l -2.133796,-2.148438 v -8.333332 c 0,-5.116668 -2.733333,-9.400523 -7.5,-10.533856 v -1.132812 c 0,-1.383334 -1.132942,-2.5 -2.516275,-2.5 z m -9.803059,0.846354 c -0.41875,-0.0062 -0.838741,0.14414 -1.163741,0.452474 -2.850001,2.6 -4.817509,6.134244 -5.450842,10.100911 -0.15,1.016667 0.633333,1.933593 1.666666,1.933593 0.8,0 1.500775,-0.583463 1.634109,-1.383462 0.5,-3.233334 2.099025,-6.117384 4.415692,-8.23405 0.7,-0.633334 0.717125,-1.716146 0.05042,-2.382813 -0.316666,-0.316667 -0.733591,-0.480403 -1.152341,-0.486653 z m 19.640301,0 c -0.420834,0.0063 -0.837309,0.169986 -1.153975,0.486653 -0.666667,0.666667 -0.632875,1.733203 0.05042,2.366537 2.3,2.116667 3.915694,4.999088 4.415694,8.232422 0.11666,0.8 0.81744,1.383463 1.63411,1.383463 1.01666,0 1.81543,-0.916927 1.64876,-1.933593 -0.63333,-3.95 -2.58333,-7.466341 -5.416664,-10.083008 -0.333333,-0.308333 -0.75755,-0.458724 -1.178383,-0.452474 z m -9.820967,5.82194 c 3.693333,0 6.666667,2.973333 6.666667,6.666667 V 55.251626 H 37.347017 V 44.418292 c 0,-3.693334 2.973333,-6.666667 6.666667,-6.666667 z m -3.349609,22.498372 c 0,1.833334 1.483334,3.333335 3.333334,3.333335 1.833333,0 3.333333,-1.500001 3.333333,-3.333335 z" />
</svg>
