<?xml version="1.0" encoding="UTF-8" standalone="no"?>
<!-- Created with Inkscape (http://www.inkscape.org/) -->

<svg
   width="48.0px"
   height="48.0px"
   viewBox="0 0 48.0 48.0"
   version="1.1"
   id="SVGRoot"
   sodipodi:docname="ic_play_next.svg"
   inkscape:version="1.3.2 (1:1.3.2+202311252150+091e20ef0f)"
   xmlns:inkscape="http://www.inkscape.org/namespaces/inkscape"
   xmlns:sodipodi="http://sodipodi.sourceforge.net/DTD/sodipodi-0.dtd"
   xmlns="http://www.w3.org/2000/svg"
   xmlns:svg="http://www.w3.org/2000/svg">
  <sodipodi:namedview
     id="namedview4293"
     pagecolor="#ffffff"
     bordercolor="#111111"
     borderopacity="1"
     inkscape:pageshadow="0"
     inkscape:pageopacity="0"
     inkscape:pagecheckerboard="1"
     inkscape:document-units="px"
     showgrid="true"
     inkscape:zoom="10.248373"
     inkscape:cx="50.49582"
     inkscape:cy="19.076199"
     inkscape:window-width="1920"
     inkscape:window-height="1043"
     inkscape:window-x="0"
     inkscape:window-y="0"
     inkscape:window-maximized="1"
     inkscape:current-layer="layer1"
     inkscape:showpageshadow="0"
     inkscape:deskcolor="#d1d1d1">
    <inkscape:grid
       type="xygrid"
       id="grid4374"
       originx="0"
       originy="0"
       spacingy="1"
       spacingx="1"
       units="px"
       visible="true"
       empspacing="4" />
  </sodipodi:namedview>
  <defs
     id="defs4288" />
  <g
     inkscape:label="Layer 1"
     inkscape:groupmode="layer"
     id="layer1">
    <path
       id="path42"
       style="color:#000000;fill:#1a1a1a;fill-rule:evenodd;stroke-width:0.999996;stroke-linejoin:round;-inkscape-stroke:none"
       d="M 6.0019531 8 C 5.6566122 7.999655 5.3116678 8.0892883 5.0019531 8.2675781 C 4.3825237 8.6243178 4.00031 9.2849007 4 10 L 4 32 C 4.00062 33.540138 5.6687445 34.499865 7.0019531 33.728516 L 26.001953 22.728516 C 27.331442 21.957916 27.331442 20.038177 26.001953 19.267578 L 7.0019531 8.2695312 C 6.6927134 8.0906214 6.347294 8.000345 6.0019531 8 z M 8 13.46875 L 21.009766 20.998047 L 8 28.529297 L 8 13.46875 z M 42 26 A 2 2 0 0 0 40 28 L 40 38 A 2 2 0 0 0 42 40 A 2 2 0 0 0 44 38 L 44 28 A 2 2 0 0 0 42 26 z M 28.085938 26.001953 A 2.0002 2.0002 0 0 0 27.048828 26.240234 A 2.0002 2.0002 0 0 0 26 28 L 26 38 A 2.0002 2.0002 0 0 0 29.097656 39.671875 L 36.720703 34.671875 A 2.0002 2.0002 0 0 0 36.720703 31.328125 L 29.097656 26.328125 A 2.0002 2.0002 0 0 0 28.085938 26.001953 z " />
  </g>
</svg>
