<?xml version="1.0" encoding="UTF-8" standalone="no"?>
<!-- Created with Inkscape (http://www.inkscape.org/) -->

<svg
   width="84"
   height="128"
   viewBox="0 0 84 128"
   version="1.1"
   id="svg846"
   sodipodi:docname="permissions_1_vlc.svg"
   inkscape:version="1.1.1 (3bf5ae0d25, 2021-09-20)"
   xmlns:inkscape="http://www.inkscape.org/namespaces/inkscape"
   xmlns:sodipodi="http://sodipodi.sourceforge.net/DTD/sodipodi-0.dtd"
   xmlns="http://www.w3.org/2000/svg"
   xmlns:svg="http://www.w3.org/2000/svg">
  <sodipodi:namedview
     id="namedview848"
     pagecolor="#ffffff"
     bordercolor="#111111"
     borderopacity="1"
     inkscape:pageshadow="0"
     inkscape:pageopacity="0"
     inkscape:pagecheckerboard="1"
     inkscape:document-units="px"
     showgrid="true"
     units="px"
     width="87mm"
     inkscape:zoom="4"
     inkscape:cx="23"
     inkscape:cy="69.75"
     inkscape:window-width="1920"
     inkscape:window-height="1043"
     inkscape:window-x="0"
     inkscape:window-y="0"
     inkscape:window-maximized="1"
     inkscape:current-layer="layer1">
    <inkscape:grid
       type="xygrid"
       id="grid946" />
  </sodipodi:namedview>
  <defs
     id="defs843" />
  <g
     inkscape:label="Layer 1"
     inkscape:groupmode="layer"
     id="layer1">
    <path
       id="path3050"
       style="fill:#000000;stroke-width:1"
       d="m 42,24 c -1.83333,10e-5 -3.47461,0.576172 -6.474609,1.576172 l -0.01563,0.0098 -0.01367,0.0098 c 0,0 -13.997798,4.998213 -22.023438,8.007813 C 10.457406,34.734216 8.5,37.876313 8.5,41.007812 v 16 c 0,27.592601 16.391866,45.318808 33.22266,48.474608 L 42,105.5332 42.27734,105.4824 C 59.10813,102.31832 75.5,84.5926 75.5,57 V 41 c 0,-3.1315 -1.95741,-6.273597 -4.97266,-7.404297 C 66.50169,32.086103 54.51744,27.717138 48.5,25.585938 h -0.01172 l -0.01367,-0.0098 C 45.47461,24.576172 43.83332,23.9999 42,24 Z m 0,3 c 1.16667,0 2.52539,0.423828 5.52539,1.423828 5.98959,2.1216 17.97755,6.491869 21.94727,7.980469 C 70.95873,36.961597 72.5,39.3241 72.5,41 V 57 C 72.5,83.2462 57.08132,99.45366 42,102.44336 26.91868,99.45366 11.5,83.2462 11.5,57 V 41 c 0,-1.6759 1.541274,-4.038403 3.027344,-4.595703 7.96359,-2.9863 21.909585,-7.966969 21.947265,-7.980469 C 39.47461,27.423828 40.83333,27 42,27 Z M 31.074219,40 c -0.416667,0 -0.770834,0.145833 -1.0625,0.4375 -0.291667,0.291667 -0.4375,0.645833 -0.4375,1.0625 v 9.75 C 29.290885,51.016667 28.962891,50.832552 28.587891,50.699219 28.212891,50.565885 27.790885,50.5 27.324219,50.5 c -1.05,0 -1.93711,0.362891 -2.66211,1.087891 -0.725,0.725 -1.08789,1.612109 -1.08789,2.662109 0,1.05 0.36289,1.937109 1.08789,2.662109 0.725,0.725 1.61211,1.087891 2.66211,1.087891 1.05,0 1.939062,-0.362891 2.664062,-1.087891 0.725,-0.725 1.085938,-1.612109 1.085938,-2.662109 V 43.375 H 33.75 c 0.466667,0 0.8625,-0.166667 1.1875,-0.5 0.325,-0.333333 0.488281,-0.732552 0.488281,-1.199219 0,-0.466666 -0.163281,-0.8625 -0.488281,-1.1875 C 34.6125,40.163281 34.216667,40 33.75,40 Z M 45,41 c -0.4,0 -0.75078,0.149219 -1.05078,0.449219 C 43.64922,41.749219 43.5,42.1 43.5,42.5 v 13 c 0,0.4 0.14922,0.750781 0.44922,1.050781 C 44.24922,56.850781 44.6,57 45,57 h 17 c 0.4,0 0.75078,-0.149219 1.05078,-0.449219 C 63.35078,56.250781 63.5,55.9 63.5,55.5 v -13 c 0,-0.4 -0.14922,-0.750781 -0.44922,-1.050781 C 62.75078,41.149219 62.4,41 62,41 h -2.80078 l 1.85156,3.800781 h -3.25 L 55.94922,41 h -2.22461 l 1.84961,3.800781 h -3.25 L 50.47461,41 H 48.25 l 1.84961,3.800781 h -3.25 z m 0,5.300781 H 62 V 55.5 H 45 Z M 29.5,63 c -1.366667,0 -2.658333,0.262109 -3.875,0.787109 -1.216667,0.525 -2.279167,1.242058 -3.1875,2.150391 -0.908333,0.908333 -1.625391,1.970833 -2.150391,3.1875 C 19.762109,70.341667 19.5,71.633333 19.5,73 c 0,1.366667 0.262109,2.658333 0.787109,3.875 0.525,1.216667 1.242058,2.279167 2.150391,3.1875 0.908333,0.908333 1.970833,1.625391 3.1875,2.150391 C 26.841667,82.737891 28.133333,83 29.5,83 c 1.366667,0 2.658333,-0.262109 3.875,-0.787109 1.216667,-0.525 2.279167,-1.242058 3.1875,-2.150391 0.908333,-0.908333 1.62539,-1.970833 2.15039,-3.1875 C 39.23789,75.658333 39.5,74.366667 39.5,73 39.5,71.633333 39.23789,70.341667 38.71289,69.125 38.18789,67.908333 37.470833,66.845833 36.5625,65.9375 35.654167,65.029167 34.591667,64.312109 33.375,63.787109 32.158333,63.262109 30.866667,63 29.5,63 Z M 47,63 c -0.4,0 -0.75078,0.149219 -1.05078,0.449219 C 45.64922,63.749219 45.5,64.1 45.5,64.5 v 17 c 0,0.4 0.14922,0.750781 0.44922,1.050781 C 46.24922,82.850781 46.6,83 47,83 h 13 c 0.4,0 0.75078,-0.149219 1.05078,-0.449219 C 61.35078,82.250781 61.5,81.9 61.5,81.5 V 69.099609 c 0,-0.2 -0.03828,-0.390885 -0.11328,-0.574218 -0.075,-0.183334 -0.18594,-0.35 -0.33594,-0.5 l -4.57617,-4.576172 c -0.15,-0.15 -0.31667,-0.260938 -0.5,-0.335938 C 55.79128,63.038281 55.60039,63 55.40039,63 Z m -17.5,1.5 c 2.333333,0 4.333333,0.833333 6,2.5 1.666667,1.666667 2.5,3.666667 2.5,6 0,2.333333 -0.833333,4.333333 -2.5,6 -1.666667,1.666667 -3.666667,2.5 -6,2.5 -2.333333,0 -4.333333,-0.833333 -6,-2.5 -1.666667,-1.666667 -2.5,-3.666667 -2.5,-6 0,-2.333333 0.833333,-4.333333 2.5,-6 1.666667,-1.666667 3.666667,-2.5 6,-2.5 z m 17.5,0 h 8.27539 v 3.900391 c 0,0.216666 0.07122,0.395442 0.21289,0.537109 0.14167,0.141667 0.32044,0.212891 0.53711,0.212891 H 60 V 81.5 H 47 V 69.150391 Z m -17.5,4.25 c -1.15,0 -2.120443,0.416667 -2.912109,1.25 -0.791667,0.833333 -1.1875,1.833333 -1.1875,3 0,1.15 0.395833,2.120443 1.1875,2.912109 0.791666,0.791667 1.762109,1.1875 2.912109,1.1875 1.166667,0 2.166667,-0.395833 3,-1.1875 C 33.333333,75.120443 33.75,74.15 33.75,73 33.75,71.816667 33.336719,70.813281 32.511719,69.988281 31.686719,69.163281 30.683333,68.75 29.5,68.75 Z m 0,3.25 c 0.283333,0 0.521224,0.09544 0.712891,0.287109 C 30.404557,72.478776 30.5,72.716667 30.5,73 c 0,0.283333 -0.09544,0.521224 -0.287109,0.712891 C 30.021224,73.904557 29.783333,74 29.5,74 29.216667,74 28.978776,73.904557 28.787109,73.712891 28.595443,73.521224 28.5,73.283333 28.5,73 c 0,-0.283333 0.09544,-0.521224 0.287109,-0.712891 C 28.978776,72.095443 29.216667,72 29.5,72 Z" />
  </g>
</svg>
