<?xml version="1.0" encoding="UTF-8" standalone="no"?>
<!-- Created with Inkscape (http://www.inkscape.org/) -->

<svg
   width="48.0px"
   height="48.0px"
   viewBox="0 0 48.0 48.0"
   version="1.1"
   id="SVGRoot"
   sodipodi:docname="ic_playlist.svg"
   inkscape:version="1.1.2 (0a00cf5339, 2022-02-04)"
   xmlns:inkscape="http://www.inkscape.org/namespaces/inkscape"
   xmlns:sodipodi="http://sodipodi.sourceforge.net/DTD/sodipodi-0.dtd"
   xmlns="http://www.w3.org/2000/svg"
   xmlns:svg="http://www.w3.org/2000/svg">
  <sodipodi:namedview
     id="namedview10455"
     pagecolor="#ffffff"
     bordercolor="#111111"
     borderopacity="1"
     inkscape:pageshadow="0"
     inkscape:pageopacity="0"
     inkscape:pagecheckerboard="1"
     inkscape:document-units="px"
     showgrid="true"
     inkscape:zoom="10.248373"
     inkscape:cx="14.246164"
     inkscape:cy="26.101704"
     inkscape:window-width="1920"
     inkscape:window-height="1016"
     inkscape:window-x="0"
     inkscape:window-y="0"
     inkscape:window-maximized="1"
     inkscape:current-layer="layer1">
    <inkscape:grid
       type="xygrid"
       id="grid10518" />
  </sodipodi:namedview>
  <defs
     id="defs10450" />
  <g
     inkscape:label="Layer 1"
     inkscape:groupmode="layer"
     id="layer1">
    <path
       id="path2-69"
       style="fill:#000000;stroke-width:1"
       d="M 8 12 C 6.9 12 6 12.9 6 14 C 6 15.1 6.9 16 8 16 L 28 16 C 29.1 16 30 15.1 30 14 C 30 12.9 29.1 12 28 12 L 8 12 z M 37 12 C 35.3501 12 34 13.35012 34 15 L 34 18 L 34 28.34375 A 6 6 0 0 0 32 28 A 6 6 0 0 0 26 34 A 6 6 0 0 0 32 40 A 6 6 0 0 0 38 34 L 38 18 L 40 18 C 41.6499 18 43 16.64986 43 15 L 43 12 L 37 12 z M 8 20 C 6.9 20 6 20.9 6 22 C 6 23.1 6.9 24 8 24 L 28 24 C 29.1 24 30 23.1 30 22 C 30 20.9 29.1 20 28 20 L 8 20 z M 8 28 C 6.9 28 6 28.9 6 30 C 6 31.1 6.9 32 8 32 L 20 32 C 21.1 32 22 31.1 22 30 C 22 28.9 21.1 28 20 28 L 8 28 z " />
  </g>
</svg>
