<?xml version="1.0" encoding="UTF-8" standalone="no"?>
<!-- Created with Inkscape (http://www.inkscape.org/) -->

<svg
   xmlns:dc="http://purl.org/dc/elements/1.1/"
   xmlns:cc="http://creativecommons.org/ns#"
   xmlns:rdf="http://www.w3.org/1999/02/22-rdf-syntax-ns#"
   xmlns:svg="http://www.w3.org/2000/svg"
   xmlns="http://www.w3.org/2000/svg"
   xmlns:sodipodi="http://sodipodi.sourceforge.net/DTD/sodipodi-0.dtd"
   xmlns:inkscape="http://www.inkscape.org/namespaces/inkscape"
   width="48px"
   height="48px"
   viewBox="0 0 48 48"
   version="1.1"
   id="SVGRoot"
   inkscape:version="0.92.4 (5da689c313, 2019-01-14)"
   sodipodi:docname="ic_player_rewind_10.svg">
  <defs
     id="defs7678" />
  <sodipodi:namedview
     id="base"
     pagecolor="#ffffff"
     bordercolor="#666666"
     borderopacity="1.0"
     inkscape:pageopacity="0.0"
     inkscape:pageshadow="2"
     inkscape:zoom="8.0000004"
     inkscape:cx="22.680822"
     inkscape:cy="1.6631113"
     inkscape:document-units="px"
     inkscape:current-layer="layer1"
     showgrid="true"
     inkscape:window-width="960"
     inkscape:window-height="1016"
     inkscape:window-x="960"
     inkscape:window-y="1107"
     inkscape:window-maximized="0"
     inkscape:grid-bbox="true">
    <inkscape:grid
       type="xygrid"
       id="grid8234" />
  </sodipodi:namedview>
  <metadata
     id="metadata7681">
    <rdf:RDF>
      <cc:Work
         rdf:about="">
        <dc:format>image/svg+xml</dc:format>
        <dc:type
           rdf:resource="http://purl.org/dc/dcmitype/StillImage" />
        <dc:title></dc:title>
      </cc:Work>
    </rdf:RDF>
  </metadata>
  <g
     inkscape:label="Layer 1"
     inkscape:groupmode="layer"
     id="layer1">
    <path
       inkscape:connector-curvature="0"
       style="opacity:1;fill:#000000;fill-opacity:1;stroke:none;stroke-width:3;stroke-linecap:round;stroke-linejoin:round;stroke-miterlimit:4;stroke-dasharray:none;stroke-dashoffset:0;stroke-opacity:1;paint-order:markers fill stroke"
       d="m 22.9707,4.0507812 c -0.25474,0.0071 -0.49715,0.111207 -0.67773,0.291016 l -6.5,6.4999998 c -0.39037,0.39053 -0.39037,1.023532 0,1.414062 l 6.5,6.5 C 22.92296,19.385413 23.99965,18.939463 24,18.048828 V 13 A 10.999996,10.999996 0 0 1 35,24 10.999996,10.999996 0 0 1 24,35 10.999996,10.999996 0 0 1 13,24 H 10 A 14,14 0 0 0 24,38 14,14 0 0 0 38,24 14,14 0 0 0 24,10 V 5.0488282 c -9.2e-4,-0.56314 -0.4664,-1.01449 -1.0293,-0.998047 z M 21.99805,22 20,22.857422 18.5,23.5 v 2 L 20,24.857422 V 31 h 2 V 24 22 Z M 27,22 c -1.662,0 -3,1.337998 -3,3 v 3 c 0,1.662002 1.338,3 3,3 1.662,0 3,-1.337998 3,-3 v -3 c 0,-1.662002 -1.338,-3 -3,-3 z m 0,2 c 0.554,0 1,0.445998 1,1 v 3 c 0,0.554002 -0.446,1 -1,1 -0.554,0 -1,-0.445998 -1,-1 v -3 c 0,-0.554002 0.446,-1 1,-1 z"
       id="path2254-2" />
  </g>
</svg>
