<?xml version="1.0" encoding="UTF-8" standalone="no"?>
<!-- Created with Inkscape (http://www.inkscape.org/) -->

<svg
   xmlns:dc="http://purl.org/dc/elements/1.1/"
   xmlns:cc="http://creativecommons.org/ns#"
   xmlns:rdf="http://www.w3.org/1999/02/22-rdf-syntax-ns#"
   xmlns:svg="http://www.w3.org/2000/svg"
   xmlns="http://www.w3.org/2000/svg"
   xmlns:sodipodi="http://sodipodi.sourceforge.net/DTD/sodipodi-0.dtd"
   xmlns:inkscape="http://www.inkscape.org/namespaces/inkscape"
   width="36px"
   height="36px"
   viewBox="0 0 36 36"
   version="1.1"
   id="SVGRoot"
   inkscape:version="0.92.4 (5da689c313, 2019-01-14)"
   sodipodi:docname="ic_player_audiotrack.svg">
  <defs
     id="defs2412" />
  <sodipodi:namedview
     id="base"
     pagecolor="#ffffff"
     bordercolor="#666666"
     borderopacity="1.0"
     inkscape:pageopacity="0.0"
     inkscape:pageshadow="2"
     inkscape:zoom="7.111111"
     inkscape:cx="25.032588"
     inkscape:cy="22.003701"
     inkscape:document-units="px"
     inkscape:current-layer="layer1"
     showgrid="true"
     inkscape:window-width="960"
     inkscape:window-height="1043"
     inkscape:window-x="960"
     inkscape:window-y="0"
     inkscape:window-maximized="0"
     inkscape:grid-bbox="true">
    <inkscape:grid
       type="xygrid"
       id="grid2968"
       originx="0"
       originy="0" />
  </sodipodi:namedview>
  <metadata
     id="metadata2415">
    <rdf:RDF>
      <cc:Work
         rdf:about="">
        <dc:format>image/svg+xml</dc:format>
        <dc:type
           rdf:resource="http://purl.org/dc/dcmitype/StillImage" />
        <dc:title />
      </cc:Work>
    </rdf:RDF>
  </metadata>
  <g
     inkscape:label="Layer 1"
     inkscape:groupmode="layer"
     id="layer1">
    <path
       style="opacity:1;fill:#000000;fill-opacity:1;stroke:none;stroke-width:1;stroke-linecap:round;stroke-linejoin:round;stroke-miterlimit:4;stroke-dasharray:none;stroke-dashoffset:0;stroke-opacity:1;paint-order:markers fill stroke"
       d="M 8,8 C 6.8919982,8 6,8.891998 6,10 v 16 c 0,1.108002 0.8919982,2 2,2 h 20 c 1.108002,0 2,-0.891998 2,-2 V 10 C 30,8.891998 29.108002,8 28,8 Z m 1.75,10 h 1.5 c 0.6925,0 1.25,0.5575 1.25,1.25 0,0.6925 -0.5575,1.25 -1.25,1.25 H 9.75 C 9.0575,20.5 8.5,19.9425 8.5,19.25 8.5,18.5575 9.0575,18 9.75,18 Z m 6.5,0 h 10 c 0.6925,0 1.25,0.5575 1.25,1.25 0,0.6925 -0.5575,1.25 -1.25,1.25 h -10 C 15.5575,20.5 15,19.9425 15,19.25 15,18.5575 15.5575,18 16.25,18 Z m -6.5,5 h 9 c 0.6925,0 1.25,0.5575 1.25,1.25 0,0.6925 -0.5575,1.25 -1.25,1.25 h -9 C 9.0575,25.5 8.5,24.9425 8.5,24.25 8.5,23.5575 9.0575,23 9.75,23 Z m 14,0 h 2.5 c 0.6925,0 1.25,0.5575 1.25,1.25 0,0.6925 -0.5575,1.25 -1.25,1.25 h -2.5 c -0.6925,0 -1.25,-0.5575 -1.25,-1.25 0,-0.6925 0.5575,-1.25 1.25,-1.25 z"
       id="rect2536-0"
       inkscape:connector-curvature="0" />
  </g>
</svg>
