<?xml version="1.0" encoding="UTF-8" standalone="no"?>
<!-- Created with Inkscape (http://www.inkscape.org/) -->

<svg
   width="36px"
   height="36px"
   viewBox="0 0 36 36"
   version="1.1"
   id="SVGRoot"
   inkscape:version="1.1.2 (0a00cf5339, 2022-02-04)"
   sodipodi:docname="ic_player_bookmark_next.svg"
   xmlns:inkscape="http://www.inkscape.org/namespaces/inkscape"
   xmlns:sodipodi="http://sodipodi.sourceforge.net/DTD/sodipodi-0.dtd"
   xmlns="http://www.w3.org/2000/svg"
   xmlns:svg="http://www.w3.org/2000/svg"
   xmlns:rdf="http://www.w3.org/1999/02/22-rdf-syntax-ns#"
   xmlns:cc="http://creativecommons.org/ns#"
   xmlns:dc="http://purl.org/dc/elements/1.1/">
  <defs
     id="defs2412" />
  <sodipodi:namedview
     id="base"
     pagecolor="#ffffff"
     bordercolor="#666666"
     borderopacity="1.0"
     inkscape:pageopacity="0.0"
     inkscape:pageshadow="2"
     inkscape:zoom="45.254832"
     inkscape:cx="16.274505"
     inkscape:cy="20.362467"
     inkscape:document-units="px"
     inkscape:current-layer="layer1"
     showgrid="true"
     inkscape:window-width="2560"
     inkscape:window-height="1376"
     inkscape:window-x="0"
     inkscape:window-y="27"
     inkscape:window-maximized="1"
     inkscape:grid-bbox="true"
     inkscape:snap-grids="true"
     inkscape:snap-page="true"
     inkscape:pagecheckerboard="0">
    <inkscape:grid
       type="xygrid"
       id="grid2968"
       originx="0"
       originy="0" />
  </sodipodi:namedview>
  <metadata
     id="metadata2415">
    <rdf:RDF>
      <cc:Work
         rdf:about="">
        <dc:format>image/svg+xml</dc:format>
        <dc:type
           rdf:resource="http://purl.org/dc/dcmitype/StillImage" />
      </cc:Work>
    </rdf:RDF>
  </metadata>
  <g
     inkscape:label="Layer 1"
     inkscape:groupmode="layer"
     id="layer1">
    <path
       style="opacity:1;fill:#000000;fill-opacity:1;stroke:none;stroke-width:2;stroke-linecap:round;stroke-linejoin:round;stroke-miterlimit:4;stroke-dasharray:none;stroke-dashoffset:0;stroke-opacity:1;paint-order:markers fill stroke"
       d="m 18.736328,4.0253906 c -0.4088,0.0075 -0.736358,0.34114 -0.736328,0.75 V 8 C 12.477153,8 8,12.477153 8,18 c 0,5.522847 4.477153,10 10,10 5.522847,0 10,-4.477153 10,-10 h -2 c 0,4.418278 -3.581722,8 -8,8 -4.418278,0 -8,-3.581722 -8,-8 0,-4.418278 3.581722,-8 8,-8 v 3.248047 c 2.6e-4,0.667223 0.80643,1.002018 1.279297,0.53125 L 23.53125,9.53125 c 0.293443,-0.293632 0.292637,-0.769976 -0.002,-1.0625 l -4.25,-4.2265625 C 19.135097,4.0994756 18.939158,4.0212406 18.736328,4.0253906 Z"
       id="path2737"
       inkscape:connector-curvature="0"
       sodipodi:nodetypes="cccssccssccccccc" />
    <g
       style="fill:#000000"
       id="g833"
       transform="matrix(0.01180556,0,0,0.01180556,12.333331,24.833334)">
      <path
         d="m 200,-120 v -640 q 0,-33 23.5,-56.5 Q 247,-840 280,-840 h 400 q 33,0 56.5,23.5 23.5,23.5 23.5,56.5 v 640 L 480,-240 Z"
         id="path824"
         style="fill:#000000" />
    </g>
  </g>
</svg>
