<?xml version="1.0" encoding="UTF-8" standalone="no"?>
<svg
   xmlns:dc="http://purl.org/dc/elements/1.1/"
   xmlns:cc="http://creativecommons.org/ns#"
   xmlns:rdf="http://www.w3.org/1999/02/22-rdf-syntax-ns#"
   xmlns:svg="http://www.w3.org/2000/svg"
   xmlns="http://www.w3.org/2000/svg"
   xmlns:sodipodi="http://sodipodi.sourceforge.net/DTD/sodipodi-0.dtd"
   xmlns:inkscape="http://www.inkscape.org/namespaces/inkscape"
   width="48.0px"
   height="48.0px"
   viewBox="0 0 48.0 48.0"
   version="1.1"
   id="SVGRoot"
   sodipodi:docname="ic_passthrough.svg"
   inkscape:version="1.0.2 (e86c870879, 2021-01-15)">
  <defs
     id="defs4262" />
  <sodipodi:namedview
     id="base"
     pagecolor="#ffffff"
     bordercolor="#666666"
     borderopacity="1.0"
     inkscape:pageopacity="0.0"
     inkscape:pageshadow="2"
     inkscape:zoom="11.2"
     inkscape:cx="29.227628"
     inkscape:cy="16.939843"
     inkscape:document-units="px"
     inkscape:current-layer="layer1"
     inkscape:document-rotation="0"
     showgrid="true"
     inkscape:window-width="1920"
     inkscape:window-height="1043"
     inkscape:window-x="0"
     inkscape:window-y="0"
     inkscape:window-maximized="1">
    <inkscape:grid
       type="xygrid"
       id="grid4832" />
  </sodipodi:namedview>
  <metadata
     id="metadata4265">
    <rdf:RDF>
      <cc:Work
         rdf:about="">
        <dc:format>image/svg+xml</dc:format>
        <dc:type
           rdf:resource="http://purl.org/dc/dcmitype/StillImage" />
        <dc:title />
      </cc:Work>
    </rdf:RDF>
  </metadata>
  <g
     inkscape:label="Layer 1"
     inkscape:groupmode="layer"
     id="layer1">
    <path
       id="rect3843-3"
       style="color:#000000;overflow:visible;fill:#000000;fill-opacity:1;stroke:none;stroke-width:4;stroke-linecap:butt;stroke-linejoin:round;stroke-miterlimit:4;stroke-dasharray:none"
       d="M 8 8 C 5.784 8 4 9.7840003 4 12 L 4 36 C 4 38.216 5.784 40 8 40 L 34 40 C 36.216 40 38 38.216 38 36 L 38 30 L 34 30 L 34 36 L 8 36 L 8 12 L 34 12 L 34 19 L 38 19 L 38 12 C 38 9.7840003 36.216 8 34 8 L 8 8 z M 13.222656 16.222656 A 11 11 0 0 0 10 24 A 11 11 0 0 0 13.222656 31.777344 L 15.34375 29.65625 A 8 8 0 0 1 13 24 A 8 8 0 0 1 15.34375 18.34375 L 13.222656 16.222656 z M 28.777344 16.222656 L 26.65625 18.34375 A 8 8 0 0 1 29 24 A 8 8 0 0 1 26.65625 29.65625 L 28.777344 31.777344 A 11 11 0 0 0 32 24 A 11 11 0 0 0 28.777344 16.222656 z M 21 19 A 5 5 0 0 0 16 24 A 5 5 0 0 0 21 29 A 5 5 0 0 0 26 24 A 5 5 0 0 0 21 19 z M 41.029297 19 C 40.465631 18.983537 39.999816 19.436093 40 20 L 40 22 L 34 22 L 34 26 L 40 26 L 40 28 C 40.00035 28.890637 41.077036 29.336587 41.707031 28.707031 L 45.707031 24.707031 C 46.097399 24.316501 46.097399 23.683499 45.707031 23.292969 L 41.707031 19.292969 C 41.526757 19.112443 41.284307 19.007637 41.029297 19 z M 20.949219 22 A 2.0000043 2.0000043 0 0 1 20.951172 22 A 2.0000043 2.0000043 0 0 1 21 22 A 2.0000043 2.0000043 0 0 1 23 24 A 2.0000043 2.0000043 0 0 1 21 26 A 2.0000043 2.0000043 0 0 1 19 24 A 2.0000043 2.0000043 0 0 1 20.949219 22 z " />
  </g>
</svg>
