<?xml version="1.0" encoding="UTF-8" standalone="no"?>
<!-- Created with Inkscape (http://www.inkscape.org/) -->

<svg
   xmlns:dc="http://purl.org/dc/elements/1.1/"
   xmlns:cc="http://creativecommons.org/ns#"
   xmlns:rdf="http://www.w3.org/1999/02/22-rdf-syntax-ns#"
   xmlns:svg="http://www.w3.org/2000/svg"
   xmlns="http://www.w3.org/2000/svg"
   xmlns:sodipodi="http://sodipodi.sourceforge.net/DTD/sodipodi-0.dtd"
   xmlns:inkscape="http://www.inkscape.org/namespaces/inkscape"
   width="48px"
   height="48px"
   viewBox="0 0 48 48"
   version="1.1"
   id="SVGRoot"
   inkscape:version="0.92.4 (5da689c313, 2019-01-14)"
   sodipodi:docname="ic_player_screenshare_stop.svg">
  <defs
     id="defs7678" />
  <sodipodi:namedview
     id="base"
     pagecolor="#ffffff"
     bordercolor="#666666"
     borderopacity="1.0"
     inkscape:pageopacity="0.0"
     inkscape:pageshadow="2"
     inkscape:zoom="5.6568545"
     inkscape:cx="28.535394"
     inkscape:cy="45.655772"
     inkscape:document-units="px"
     inkscape:current-layer="layer1"
     showgrid="true"
     inkscape:window-width="960"
     inkscape:window-height="1016"
     inkscape:window-x="960"
     inkscape:window-y="1107"
     inkscape:window-maximized="0"
     inkscape:grid-bbox="true">
    <inkscape:grid
       type="xygrid"
       id="grid8234" />
  </sodipodi:namedview>
  <metadata
     id="metadata7681">
    <rdf:RDF>
      <cc:Work
         rdf:about="">
        <dc:format>image/svg+xml</dc:format>
        <dc:type
           rdf:resource="http://purl.org/dc/dcmitype/StillImage" />
        <dc:title></dc:title>
      </cc:Work>
    </rdf:RDF>
  </metadata>
  <g
     inkscape:label="Layer 1"
     inkscape:groupmode="layer"
     id="layer1">
    <path
       style="opacity:1;fill:#000000;fill-opacity:1;stroke:none;stroke-width:0.27325207;stroke-linecap:round;stroke-linejoin:round;stroke-miterlimit:4;stroke-dasharray:none;stroke-dashoffset:0;stroke-opacity:1;paint-order:markers fill stroke"
       d="m 8,8 -1.5,1.5 3.94531,3.945312 C 10.16713,13.89743 10,14.426547 10,15 v 15 c 0,1.662 1.338,3 3,3 H 8 v 3 H 33 L 38.5,41.5 40,40 Z m 7,4 3,3 h 17 v 15 h -2 l 2.86133,2.861328 C 37.09779,32.490957 38,31.360149 38,30 V 15 c 0,-1.662 -1.338,-3 -3,-3 z m -2,4 6.50391,6.503906 C 18.28472,23.8016 17.43521,25.612697 17,28 c 1.32681,-1.454645 2.87142,-2.590555 4.72656,-3.273438 L 27,30 H 13 Z m 13,1 v 1 2 c -0.96574,0.0066 -1.85925,0.113213 -2.68359,0.316406 L 28,25 31,22 Z m 10,16 3,3 h 1 v -3 z"
       id="path9716"
       inkscape:connector-curvature="0"
       sodipodi:nodetypes="cccsscccccccccccccssscccccccccccccccccccc" />
  </g>
</svg>
