<?xml version="1.0" encoding="UTF-8" standalone="no"?>
<!-- Created with Inkscape (http://www.inkscape.org/) -->

<svg
   xmlns:dc="http://purl.org/dc/elements/1.1/"
   xmlns:cc="http://creativecommons.org/ns#"
   xmlns:rdf="http://www.w3.org/1999/02/22-rdf-syntax-ns#"
   xmlns:svg="http://www.w3.org/2000/svg"
   xmlns="http://www.w3.org/2000/svg"
   xmlns:sodipodi="http://sodipodi.sourceforge.net/DTD/sodipodi-0.dtd"
   xmlns:inkscape="http://www.inkscape.org/namespaces/inkscape"
   width="48px"
   height="48px"
   viewBox="0 0 48 48"
   version="1.1"
   id="SVGRoot"
   inkscape:version="0.92.4 (5da689c313, 2019-01-14)"
   sodipodi:docname="ic_player_forward_10.svg">
  <defs
     id="defs7678" />
  <sodipodi:namedview
     id="base"
     pagecolor="#ffffff"
     bordercolor="#666666"
     borderopacity="1.0"
     inkscape:pageopacity="0.0"
     inkscape:pageshadow="2"
     inkscape:zoom="8.0000004"
     inkscape:cx="27.680822"
     inkscape:cy="1.6631113"
     inkscape:document-units="px"
     inkscape:current-layer="layer1"
     showgrid="true"
     inkscape:window-width="960"
     inkscape:window-height="1016"
     inkscape:window-x="960"
     inkscape:window-y="1107"
     inkscape:window-maximized="0"
     inkscape:grid-bbox="true">
    <inkscape:grid
       type="xygrid"
       id="grid8234" />
  </sodipodi:namedview>
  <metadata
     id="metadata7681">
    <rdf:RDF>
      <cc:Work
         rdf:about="">
        <dc:format>image/svg+xml</dc:format>
        <dc:type
           rdf:resource="http://purl.org/dc/dcmitype/StillImage" />
        <dc:title></dc:title>
      </cc:Work>
    </rdf:RDF>
  </metadata>
  <g
     inkscape:label="Layer 1"
     inkscape:groupmode="layer"
     id="layer1">
    <path
       style="opacity:1;fill:#000000;fill-opacity:1;stroke:none;stroke-width:3;stroke-linecap:round;stroke-linejoin:round;stroke-miterlimit:4;stroke-dasharray:none;stroke-dashoffset:0;stroke-opacity:1;paint-order:markers fill stroke"
       d="M 25.029297 4.0507812 C 24.466397 4.0343383 24.00092 4.4856881 24 5.0488281 L 24 10 C 16.268014 10 10 16.268014 10 24 C 10 31.731986 16.268014 38 24 38 C 31.731986 38 38 31.731986 38 24 L 35 24 C 35.000002 30.075133 30.075133 35.000002 24 35 C 17.924867 35.000002 12.999998 30.075133 13 24 C 12.999998 17.924867 17.924867 12.999998 24 13 L 24 18.048828 C 24.00035 18.939463 25.077041 19.385413 25.707031 18.755859 L 32.207031 12.255859 C 32.597401 11.865329 32.597401 11.232327 32.207031 10.841797 L 25.707031 4.3417969 C 25.526451 4.1619879 25.284037 4.0578813 25.029297 4.0507812 z M 21.998047 22 L 20 22.857422 L 18.5 23.5 L 18.5 25.5 L 20 24.857422 L 20 31 L 22 31 L 22 24 L 22 22 L 21.998047 22 z M 27 22 C 25.338 22 24 23.337998 24 25 L 24 28 C 24 29.662002 25.338 31 27 31 C 28.662 31 30 29.662002 30 28 L 30 25 C 30 23.337998 28.662 22 27 22 z M 27 24 C 27.554 24 28 24.445998 28 25 L 28 28 C 28 28.554002 27.554 29 27 29 C 26.446 29 26 28.554002 26 28 L 26 25 C 26 24.445998 26.446 24 27 24 z "
       id="path2254-2" />
  </g>
</svg>
