<?xml version="1.0" encoding="UTF-8" standalone="no"?>
<svg
   xmlns:dc="http://purl.org/dc/elements/1.1/"
   xmlns:cc="http://creativecommons.org/ns#"
   xmlns:rdf="http://www.w3.org/1999/02/22-rdf-syntax-ns#"
   xmlns:svg="http://www.w3.org/2000/svg"
   xmlns="http://www.w3.org/2000/svg"
   xmlns:sodipodi="http://sodipodi.sourceforge.net/DTD/sodipodi-0.dtd"
   xmlns:inkscape="http://www.inkscape.org/namespaces/inkscape"
   height="24px"
   viewBox="0 0 24 24"
   width="24px"
   fill="#000000"
   version="1.1"
   id="svg6"
   sodipodi:docname="ic_playlist_delete.svg"
   inkscape:version="0.92.5 (2060ec1f9f, 2020-04-08)">
  <metadata
     id="metadata12">
    <rdf:RDF>
      <cc:Work
         rdf:about="">
        <dc:format>image/svg+xml</dc:format>
        <dc:type
           rdf:resource="http://purl.org/dc/dcmitype/StillImage" />
        <dc:title></dc:title>
      </cc:Work>
    </rdf:RDF>
  </metadata>
  <defs
     id="defs10" />
  <sodipodi:namedview
     pagecolor="#ffffff"
     bordercolor="#666666"
     borderopacity="1"
     objecttolerance="10"
     gridtolerance="10"
     guidetolerance="10"
     inkscape:pageopacity="0"
     inkscape:pageshadow="2"
     inkscape:window-width="2560"
     inkscape:window-height="1376"
     id="namedview8"
     showgrid="false"
     inkscape:zoom="9.8333333"
     inkscape:cx="11.898305"
     inkscape:cy="12"
     inkscape:window-x="0"
     inkscape:window-y="27"
     inkscape:window-maximized="1"
     inkscape:current-layer="svg6" />
  <path
     d="M0 0h24v24H0V0z"
     fill="none"
     id="path2" />
  <path
     d="m 17.733788,6.275313 c -0.354948,-0.3549488 -0.928327,-0.3549488 -1.283276,0 L 12,10.716724 7.5494882,6.2662117 c -0.3549489,-0.3549488 -0.9283277,-0.3549488 -1.2832765,0 -0.3549488,0.3549488 -0.3549488,0.9283276 0,1.2832765 L 10.716724,12 6.2662117,16.450512 c -0.3549488,0.354949 -0.3549488,0.928328 0,1.283276 0.3549488,0.354949 0.9283276,0.354949 1.2832765,0 L 12,13.283276 l 4.450512,4.450512 c 0.354949,0.354949 0.928328,0.354949 1.283276,0 0.354949,-0.354948 0.354949,-0.928327 0,-1.283276 L 13.283276,12 17.733788,7.5494882 c 0.345848,-0.3458476 0.345848,-0.9283277 0,-1.2741752 z"
     id="path4"
     inkscape:connector-curvature="0"
     style="stroke-width:0.91012514" />
</svg>
