<?xml version="1.0" encoding="UTF-8" standalone="no"?>
<!-- Created with Inkscape (http://www.inkscape.org/) -->

<svg
   width="48.0px"
   height="48.0px"
   viewBox="0 0 48.0 48.0"
   version="1.1"
   id="SVGRoot"
   sodipodi:docname="ic_play_as_audio.svg"
   inkscape:version="1.3.2 (1:1.3.2+202311252150+091e20ef0f)"
   xmlns:inkscape="http://www.inkscape.org/namespaces/inkscape"
   xmlns:sodipodi="http://sodipodi.sourceforge.net/DTD/sodipodi-0.dtd"
   xmlns="http://www.w3.org/2000/svg"
   xmlns:svg="http://www.w3.org/2000/svg">
  <sodipodi:namedview
     id="namedview4293"
     pagecolor="#ffffff"
     bordercolor="#111111"
     borderopacity="1"
     inkscape:pageshadow="0"
     inkscape:pageopacity="0"
     inkscape:pagecheckerboard="1"
     inkscape:document-units="px"
     showgrid="true"
     inkscape:zoom="11.313708"
     inkscape:cx="34.117904"
     inkscape:cy="29.654292"
     inkscape:window-width="1920"
     inkscape:window-height="1043"
     inkscape:window-x="0"
     inkscape:window-y="0"
     inkscape:window-maximized="1"
     inkscape:current-layer="layer1"
     inkscape:showpageshadow="0"
     inkscape:deskcolor="#d1d1d1">
    <inkscape:grid
       type="xygrid"
       id="grid4374"
       originx="0"
       originy="0"
       spacingy="1"
       spacingx="1"
       units="px"
       visible="true"
       empspacing="4" />
  </sodipodi:namedview>
  <defs
     id="defs4288" />
  <g
     inkscape:label="Layer 1"
     inkscape:groupmode="layer"
     id="layer1">
    <path
       id="path42"
       style="color:#000000;fill:#1a1a1a;fill-rule:evenodd;stroke-width:0.999996;stroke-linejoin:round;-inkscape-stroke:none"
       d="M 10.001953,8 C 9.6566122,7.999655 9.3116678,8.0892883 9.0019531,8.2675781 8.3825237,8.6243178 8.00031,9.2849007 8,10 v 22 c 6.2e-4,1.540138 1.6687445,2.499865 3.001953,1.728516 l 19,-11 c 1.329489,-0.7706 1.329489,-2.690339 0,-3.460938 l -19,-10.9980468 C 10.692713,8.0906214 10.347294,8.000345 10.001953,8 Z M 38,16 c -1.649898,0 -3,1.350122 -3,3 v 3 10.34375 C 34.357687,32.11644 33.681349,32.000194 33,32 c -3.313708,0 -6,2.686292 -6,6 0,3.313708 2.686292,6 6,6 3.313708,0 6,-2.686292 6,-6 V 22 h 2 c 1.649898,0 3,-1.350142 3,-3 V 16 Z M 12,13.46875 25.009766,20.998047 12,28.529297 Z"
       sodipodi:nodetypes="scccccccssscccssscsscscccc" />
  </g>
</svg>
