<?xml version="1.0" encoding="UTF-8" standalone="no"?>
<svg
   xmlns:dc="http://purl.org/dc/elements/1.1/"
   xmlns:cc="http://creativecommons.org/ns#"
   xmlns:rdf="http://www.w3.org/1999/02/22-rdf-syntax-ns#"
   xmlns:svg="http://www.w3.org/2000/svg"
   xmlns="http://www.w3.org/2000/svg"
   xmlns:sodipodi="http://sodipodi.sourceforge.net/DTD/sodipodi-0.dtd"
   xmlns:inkscape="http://www.inkscape.org/namespaces/inkscape"
   width="48.0px"
   height="48.0px"
   viewBox="0 0 48.0 48.0"
   version="1.1"
   id="SVGRoot"
   sodipodi:docname="ic_playlisttips.svg"
   inkscape:version="1.0.2 (e86c870879, 2021-01-15)">
  <defs
     id="defs4873" />
  <sodipodi:namedview
     id="base"
     pagecolor="#ffffff"
     bordercolor="#666666"
     borderopacity="1.0"
     inkscape:pageopacity="0.0"
     inkscape:pageshadow="2"
     inkscape:zoom="7.919596"
     inkscape:cx="48.289947"
     inkscape:cy="33.446325"
     inkscape:document-units="px"
     inkscape:current-layer="layer1"
     inkscape:document-rotation="0"
     showgrid="true"
     inkscape:window-width="1920"
     inkscape:window-height="1043"
     inkscape:window-x="0"
     inkscape:window-y="0"
     inkscape:window-maximized="1">
    <inkscape:grid
       type="xygrid"
       id="grid5443" />
  </sodipodi:namedview>
  <metadata
     id="metadata4876">
    <rdf:RDF>
      <cc:Work
         rdf:about="">
        <dc:format>image/svg+xml</dc:format>
        <dc:type
           rdf:resource="http://purl.org/dc/dcmitype/StillImage" />
        <dc:title />
      </cc:Work>
    </rdf:RDF>
  </metadata>
  <g
     inkscape:label="Layer 1"
     inkscape:groupmode="layer"
     id="layer1">
    <path
       id="path3604"
       style="fill:#000000;fill-rule:evenodd;stroke:none;stroke-width:1px;stroke-linecap:butt;stroke-linejoin:miter;stroke-opacity:1"
       d="M 9.9003906 12 C 8.8475026 12 8 12.892002 8 14 C 8 15.107998 8.8475026 16 9.9003906 16 L 26.099609 16 C 27.152497 16 28 15.107998 28 14 C 28 12.892002 27.152497 12 26.099609 12 L 9.9003906 12 z M 10 20 C 8.892 20 8 20.892002 8 22 C 8 23.107998 8.892 24 10 24 L 26 24 C 27.108 24 28 23.107998 28 22 C 28 20.892002 27.108 20 26 20 L 10 20 z M 38 20 L 36.666016 24.666016 L 32 26 L 36.666016 27.333984 L 38 32 L 39.333984 27.333984 L 44 26 L 39.333984 24.666016 L 38 20 z M 10 28 C 8.892 28 8 28.892 8 30 C 8 31.108 8.892 32 10 32 L 18 32 C 19.108 32 20 31.108 20 30 C 20 28.892 19.108 28 18 28 L 10 28 z M 32 28 L 30 34 L 24 36 L 30 38 L 32 44 L 34 38 L 40 36 L 34 34 L 32 28 z " />
  </g>
</svg>
