<?xml version="1.0" encoding="UTF-8" standalone="no"?>
<!-- Created with Inkscape (http://www.inkscape.org/) -->

<svg
   width="84"
   height="128"
   viewBox="0 0 84 128"
   version="1.1"
   id="svg846"
   sodipodi:docname="permissions_1_android.svg"
   inkscape:version="1.1.1 (3bf5ae0d25, 2021-09-20)"
   xmlns:inkscape="http://www.inkscape.org/namespaces/inkscape"
   xmlns:sodipodi="http://sodipodi.sourceforge.net/DTD/sodipodi-0.dtd"
   xmlns="http://www.w3.org/2000/svg"
   xmlns:svg="http://www.w3.org/2000/svg">
  <sodipodi:namedview
     id="namedview848"
     pagecolor="#ffffff"
     bordercolor="#111111"
     borderopacity="1"
     inkscape:pageshadow="0"
     inkscape:pageopacity="0"
     inkscape:pagecheckerboard="1"
     inkscape:document-units="px"
     showgrid="true"
     units="px"
     width="87mm"
     inkscape:zoom="5.6568543"
     inkscape:cx="81.31728"
     inkscape:cy="31.112698"
     inkscape:window-width="1920"
     inkscape:window-height="1043"
     inkscape:window-x="0"
     inkscape:window-y="0"
     inkscape:window-maximized="1"
     inkscape:current-layer="layer1">
    <inkscape:grid
       type="xygrid"
       id="grid946" />
  </sodipodi:namedview>
  <defs
     id="defs843" />
  <g
     inkscape:label="Layer 1"
     inkscape:groupmode="layer"
     id="layer1">
    <path
       id="path11155"
       style="fill:#000000;stroke-width:1"
       d="m 42,24 c -1.83333,10e-5 -3.47461,0.576172 -6.474609,1.576172 l -0.01563,0.0098 -0.01367,0.0098 c 0,0 -13.997798,4.998212 -22.023438,8.007812 C 10.457406,34.734215 8.5,37.876312 8.5,41.007812 v 16 c 0,27.5926 16.391866,45.318818 33.22266,48.474618 l 0.27734,0.0508 0.27734,-0.0508 C 59.10813,102.31833 75.5,84.5926 75.5,57 V 41 c 0,-3.1315 -1.95741,-6.273597 -4.97266,-7.404297 C 66.50169,32.086103 54.51744,27.717137 48.5,25.585937 h -0.01172 l -0.01367,-0.0098 C 45.47461,24.576172 43.83332,23.9999 42,24 Z m 0,3 c 1.16667,0 2.52539,0.423828 5.52539,1.423828 5.98959,2.1216 17.97755,6.491869 21.94727,7.980469 C 70.95873,36.961597 72.5,39.3241 72.5,41 V 57 C 72.5,83.2462 57.08132,99.45366 42,102.44336 26.91868,99.45366 11.5,83.2462 11.5,57 V 41 c 0,-1.6759 1.541274,-4.038403 3.027344,-4.595703 7.96359,-2.9863 21.909585,-7.966969 21.947265,-7.980469 C 39.47461,27.423828 40.83333,27 42,27 Z M 31.074219,50.003906 c -0.416667,0 -0.770834,0.145833 -1.0625,0.4375 -0.291667,0.291667 -0.4375,0.645833 -0.4375,1.0625 v 9.75 c -0.283334,-0.233333 -0.611328,-0.417448 -0.986328,-0.550781 -0.375,-0.133334 -0.797006,-0.199219 -1.263672,-0.199219 -1.05,0 -1.93711,0.362891 -2.66211,1.087891 -0.725,0.725 -1.08789,1.612109 -1.08789,2.662109 0,1.05 0.36289,1.937109 1.08789,2.662109 0.725,0.725 1.61211,1.087891 2.66211,1.087891 1.05,0 1.939062,-0.362891 2.664062,-1.087891 0.725,-0.725 1.085938,-1.612109 1.085938,-2.662109 v -10.875 H 33.75 c 0.466667,0 0.8625,-0.166667 1.1875,-0.5 0.325,-0.333333 0.488281,-0.732552 0.488281,-1.199219 0,-0.466666 -0.163281,-0.8625 -0.488281,-1.1875 -0.325,-0.325 -0.720833,-0.488281 -1.1875,-0.488281 z m 13.925781,1 c -0.4,0 -0.75078,0.149219 -1.05078,0.449219 -0.3,0.3 -0.44922,0.650781 -0.44922,1.050781 v 13 c 0,0.4 0.14922,0.750781 0.44922,1.050781 0.3,0.3 0.65078,0.449219 1.05078,0.449219 h 17 c 0.4,0 0.75078,-0.149219 1.05078,-0.449219 0.3,-0.3 0.44922,-0.650781 0.44922,-1.050781 v -13 c 0,-0.4 -0.14922,-0.750781 -0.44922,-1.050781 -0.3,-0.3 -0.65078,-0.449219 -1.05078,-0.449219 h -2.80078 l 1.85156,3.800781 h -3.25 l -1.85156,-3.800781 h -2.22461 l 1.84961,3.800781 h -3.25 L 50.47461,51.003906 H 48.25 l 1.84961,3.800781 h -3.25 z m 0,5.300781 h 17 v 9.199219 H 45 Z" />
  </g>
</svg>
