<?xml version="1.0" encoding="UTF-8" standalone="no"?>
<svg
   width="48.0px"
   height="48.0px"
   viewBox="0 0 48.0 48.0"
   version="1.1"
   id="SVGRoot"
   sodipodi:docname="ic_player_navmenu_.svg"
   inkscape:version="1.1.2 (0a00cf5339, 2022-02-04)"
   xmlns:inkscape="http://www.inkscape.org/namespaces/inkscape"
   xmlns:sodipodi="http://sodipodi.sourceforge.net/DTD/sodipodi-0.dtd"
   xmlns="http://www.w3.org/2000/svg"
   xmlns:svg="http://www.w3.org/2000/svg"
   xmlns:rdf="http://www.w3.org/1999/02/22-rdf-syntax-ns#"
   xmlns:cc="http://creativecommons.org/ns#"
   xmlns:dc="http://purl.org/dc/elements/1.1/">
  <defs
     id="defs3529" />
  <sodipodi:namedview
     id="base"
     pagecolor="#ffffff"
     bordercolor="#666666"
     borderopacity="1.0"
     inkscape:pageopacity="0.0"
     inkscape:pageshadow="2"
     inkscape:zoom="11.313709"
     inkscape:cx="7.4246212"
     inkscape:cy="14.71666"
     inkscape:document-units="px"
     inkscape:current-layer="layer1"
     inkscape:document-rotation="0"
     showgrid="true"
     inkscape:window-width="1920"
     inkscape:window-height="1016"
     inkscape:window-x="0"
     inkscape:window-y="0"
     inkscape:window-maximized="1"
     inkscape:snap-page="true"
     inkscape:snap-text-baseline="true"
     inkscape:snap-center="true"
     inkscape:snap-object-midpoints="true"
     inkscape:snap-midpoints="true"
     inkscape:snap-smooth-nodes="true"
     inkscape:snap-intersection-paths="true"
     inkscape:object-paths="true"
     inkscape:snap-bbox="true"
     inkscape:bbox-paths="true"
     inkscape:bbox-nodes="true"
     inkscape:snap-bbox-edge-midpoints="true"
     inkscape:snap-bbox-midpoints="true"
     inkscape:pagecheckerboard="0">
    <inkscape:grid
       type="xygrid"
       id="grid4099" />
  </sodipodi:namedview>
  <metadata
     id="metadata3532">
    <rdf:RDF>
      <cc:Work
         rdf:about="">
        <dc:format>image/svg+xml</dc:format>
        <dc:type
           rdf:resource="http://purl.org/dc/dcmitype/StillImage" />
      </cc:Work>
    </rdf:RDF>
  </metadata>
  <g
     inkscape:label="Layer 1"
     inkscape:groupmode="layer"
     id="layer1">
    <path
       id="path3196-9"
       style="fill:#000000;stroke-width:2"
       d="m 23.9997,4 c -11.04,0 -20,8.96 -20,20 0,11.04 8.96,20 20,20 v -4 c -8.82,0 -16,-7.18 -16,-16 0,-8.82 7.18,-16 16,-16 8.82,0 16,7.18 16,16 0,0.50477 -0.026,1.0031 -0.072,1.49609 l 3.5352,3.09375 C 43.8098,27.11515 44,25.58008 44,24 44,12.96 35.04,4 24,4 Z m -7.2695,10.95898 a 2,2 0 0 0 -1.1914,0.57032 v 0 c -2.2526,2.24088 -3.5255,5.28549 -3.5371,8.46289 A 2,2 0 0 0 13.9939,26 2,2 0 0 0 16.0017,24.00781 c 0.01,-2.11948 0.8548,-4.14774 2.3574,-5.64258 a 2,2 0 0 0 0.01,-2.82812 2,2 0 0 0 -1.6367,-0.57813 z M 23.9997,20 a 4.0000043,4.0000043 0 0 0 -4,4 4.0000043,4.0000043 0 0 0 4,4 4.0000043,4.0000043 0 0 0 4,-4 4.0000043,4.0000043 0 0 0 -4,-4 z m 10,6 c -0.3527,0 -0.7054,0.12339 -0.9883,0.37109 l -8,7 C 23.9692,34.28343 24.6146,36.00017 25.9997,36 h 2 v 3 5 h 4 v -5 h 4 v 5 h 4 v -5 -3 h 2 c 1.3851,1.7e-4 2.0305,-1.71657 0.9883,-2.62891 l -8,-7 C 34.7051,26.12339 34.3524,26 33.9997,26 Z" />
  </g>
</svg>
