<?xml version="1.0" encoding="UTF-8" standalone="no"?>
<!-- Created with Inkscape (http://www.inkscape.org/) -->

<svg
   width="48px"
   height="48px"
   viewBox="0 0 48 48"
   version="1.1"
   id="SVGRoot"
   inkscape:version="1.1.2 (0a00cf5339, 2022-02-04)"
   sodipodi:docname="ic_remove_from_group.svg"
   xmlns:inkscape="http://www.inkscape.org/namespaces/inkscape"
   xmlns:sodipodi="http://sodipodi.sourceforge.net/DTD/sodipodi-0.dtd"
   xmlns="http://www.w3.org/2000/svg"
   xmlns:svg="http://www.w3.org/2000/svg"
   xmlns:rdf="http://www.w3.org/1999/02/22-rdf-syntax-ns#"
   xmlns:cc="http://creativecommons.org/ns#"
   xmlns:dc="http://purl.org/dc/elements/1.1/">
  <defs
     id="defs7678" />
  <sodipodi:namedview
     id="base"
     pagecolor="#ffffff"
     bordercolor="#666666"
     borderopacity="1.0"
     inkscape:pageopacity="0.0"
     inkscape:pageshadow="2"
     inkscape:zoom="5.6568545"
     inkscape:cx="1.2374368"
     inkscape:cy="30.582367"
     inkscape:document-units="px"
     inkscape:current-layer="layer1"
     showgrid="true"
     inkscape:window-width="1920"
     inkscape:window-height="1043"
     inkscape:window-x="0"
     inkscape:window-y="0"
     inkscape:window-maximized="1"
     inkscape:grid-bbox="true"
     inkscape:snap-bbox="true"
     inkscape:bbox-paths="true"
     inkscape:snap-bbox-edge-midpoints="true"
     inkscape:bbox-nodes="true"
     inkscape:snap-bbox-midpoints="true"
     inkscape:object-paths="true"
     inkscape:snap-intersection-paths="true"
     inkscape:snap-smooth-nodes="true"
     inkscape:snap-midpoints="true"
     inkscape:snap-object-midpoints="true"
     inkscape:snap-center="true"
     inkscape:pagecheckerboard="1">
    <inkscape:grid
       type="xygrid"
       id="grid8234" />
  </sodipodi:namedview>
  <metadata
     id="metadata7681">
    <rdf:RDF>
      <cc:Work
         rdf:about="">
        <dc:format>image/svg+xml</dc:format>
        <dc:type
           rdf:resource="http://purl.org/dc/dcmitype/StillImage" />
      </cc:Work>
    </rdf:RDF>
  </metadata>
  <g
     inkscape:label="Layer 1"
     inkscape:groupmode="layer"
     id="layer1">
    <path
       id="path14977"
       style="fill:#000000;fill-opacity:1;stroke:none;stroke-width:5.65268;stroke-linecap:round;stroke-linejoin:miter;stroke-miterlimit:4;stroke-dasharray:none;stroke-dashoffset:0;stroke-opacity:1;paint-order:markers fill stroke"
       d="M 16 4 C 13.784 4 12 5.784 12 8 L 12 32 C 12 34.216 13.784 36 16 36 L 40 36 C 42.216 36 44 34.216 44 32 L 44 8 C 44 5.784 42.216 4 40 4 L 16 4 z M 16 8 L 40 8 L 40 32 L 16 32 L 16 8 z M 22.001953 11.998047 C 21.490703 11.998048 20.979591 12.194237 20.587891 12.585938 C 19.804391 13.369407 19.804491 14.630652 20.587891 15.414062 L 25.171875 20 L 20.585938 24.585938 C 19.802537 25.369367 19.802537 26.630652 20.585938 27.414062 C 21.369438 28.197533 22.630562 28.197492 23.414062 27.414062 L 28 22.828125 L 32.585938 27.412109 C 33.369437 28.195509 34.630563 28.195579 35.414062 27.412109 C 36.197463 26.628709 36.197463 25.367394 35.414062 24.583984 L 30.828125 20 L 35.414062 15.414062 C 36.197463 14.630633 36.197463 13.369417 35.414062 12.585938 C 34.630662 11.802537 33.369438 11.802508 32.585938 12.585938 L 28 17.169922 L 23.416016 12.585938 C 23.024316 12.194233 22.513203 11.998046 22.001953 11.998047 z M 4 12 L 4 40 C 4 42.185411 5.8145886 44 8 44 L 36 44 L 36 40 L 8 40 L 8 12 L 4 12 z " />
  </g>
</svg>
