<?xml version="1.0" encoding="UTF-8" standalone="no"?><!-- Created with Inkscape (http://www.inkscape.org/) -->

<svg xmlns:dc="http://purl.org/dc/elements/1.1/" xmlns:cc="http://creativecommons.org/ns#"
        xmlns:rdf="http://www.w3.org/1999/02/22-rdf-syntax-ns#"
        xmlns:svg="http://www.w3.org/2000/svg" xmlns="http://www.w3.org/2000/svg"
        xmlns:sodipodi="http://sodipodi.sourceforge.net/DTD/sodipodi-0.dtd"
        xmlns:inkscape="http://www.inkscape.org/namespaces/inkscape" width="272" height="320"
        id="svg5199" version="1.1" inkscape:version="0.92.2 (5c3e80d, 2017-08-06)"
        sodipodi:docname="renderer_background_cone.svg">
    <defs id="defs5201" />
    <sodipodi:namedview id="base" pagecolor="#ffffff" bordercolor="#666666" borderopacity="1.0"
            inkscape:pageopacity="0" inkscape:pageshadow="2" inkscape:zoom="2"
            inkscape:cx="30.692463" inkscape:cy="181.32624" inkscape:document-units="px"
            inkscape:current-layer="layer1" showgrid="true" inkscape:snap-grids="true"
            inkscape:window-width="1920" inkscape:window-height="1052" inkscape:window-x="1920"
            inkscape:window-y="0" inkscape:window-maximized="1" fit-margin-top="80"
            fit-margin-left="80" fit-margin-right="80" fit-margin-bottom="80"
            inkscape:snap-bbox="true" inkscape:bbox-nodes="true" inkscape:bbox-paths="true"
            inkscape:snap-bbox-edge-midpoints="true" inkscape:snap-bbox-midpoints="true"
            inkscape:object-paths="true" inkscape:snap-intersection-paths="true"
            inkscape:snap-smooth-nodes="true" inkscape:snap-midpoints="true"
            inkscape:snap-object-midpoints="true" inkscape:snap-center="true">
        <inkscape:grid type="xygrid" id="grid5236" empspacing="4" visible="true" enabled="true"
                snapvisiblegridlinesonly="true" originx="0" originy="0" />
    </sodipodi:namedview>
    <metadata id="metadata5204">
        <rdf:RDF>
            <cc:Work rdf:about="">
                <dc:format>image/svg+xml</dc:format>
                <dc:type rdf:resource="http://purl.org/dc/dcmitype/StillImage" />
                <dc:title></dc:title>
            </cc:Work>
        </rdf:RDF>
    </metadata>
    <g inkscape:label="Layer 1" inkscape:groupmode="layer" id="layer1"
            transform="translate(-108,-652.36273)">
        <path inkscape:connector-curvature="0"
                style="color:#000000;display:inline;overflow:visible;visibility:visible;opacity:1;vector-effect:none;fill:#ff8800;fill-opacity:0.85098039;fill-rule:evenodd;stroke:none;stroke-width:16.00003433;stroke-linecap:butt;stroke-linejoin:round;stroke-miterlimit:4;stroke-dasharray:none;stroke-dashoffset:4.19999981;stroke-opacity:1;marker:none;enable-background:accumulate"
                d="m 223.99957,692.36274 c -6.64804,0 -12.00006,5.352 -12.00006,11.99999 v 28.00001 h 12.00006 V 704.36273 H 328 v 88.00001 h -44.00019 v 11.99999 H 328 c 6.64802,0 12.00004,-5.35199 12.00004,-11.99999 v -88.00001 c 0,-6.64799 -5.35202,-11.99999 -12.00004,-11.99999 z m 12.00004,24 v 20.2188 c 20.44993,7.24961 36.54039,23.334 43.79706,43.7812 h 36.20328 v -64 z m -24.0001,28 v 11.99999 c 26.50979,0 48.0002,21.4904 48.0002,48 h 12.00006 c 0,-33.13759 -26.863,-59.99999 -60.00026,-59.99999 z m 0,24 v 12 c 13.25486,0 24.0001,10.74479 24.0001,23.99999 h 12.00005 c 0,-19.88239 -16.11783,-35.99999 -36.00015,-35.99999 z m 0,23.99999 c -1.65076,0 -3.48716,0.19337 -4.80862,1.18798 -2.61346,1.97033 -3.66958,5.13223 -5.94533,11.96346 -2.27574,6.83124 -2.375,7.17567 -2.375,7.17567 9.50534,4.7864 16.40582,5.23374 26.25791,0 0,0 -0.10801,-0.37083 -2.37502,-7.17567 -2.26693,-6.80464 -3.31616,-9.94581 -5.94532,-11.96346 -1.31301,-1.00751 -3.15786,-1.18798 -4.80862,-1.18798 z m -21.44541,45.45753 v 0 l -9.50394,28.71433 -0.02,0.0665 c 0.0424,-0.0201 0.0744,-0.0282 0.1172,-0.0383 17.82248,15.55662 43.96295,15.55964 61.78542,0 0.012,0 0.0206,0.0201 0.0312,0.0201 l -0.016,-0.0483 -9.50394,-28.7105 c -0.006,0 -0.014,0.0201 -0.02,0.0201 -14.41481,10.84013 -28.6133,10.74385 -42.87128,-0.0282 z m -24.27744,43.07753 c -3.15935,0 -6.09632,2.39975 -7.01955,5.57072 l -5.53518,18.96591 c -1.80841,6.22294 -3.60132,12.39974 -5.41801,18.65511 -0.76046,2.61445 1.6e-4,4.53643 1.22658,5.8656 0.75985,0.82301 1.69922,1.42104 2.56252,1.81764 0.86386,0.38653 1.45229,0.58997 2.13281,0.58997 1.58653,0 29.28728,-0.0201 57.77368,-0.0201 28.4864,0 56.18714,0.0201 57.77368,0.0201 0.6805,0 1.2689,-0.20344 2.13281,-0.58997 0.86331,-0.3966 1.80267,-0.99463 2.56253,-1.81764 1.22619,-1.32917 1.98701,-3.25115 1.22657,-5.8656 -1.81671,-6.25537 -3.60962,-12.43217 -5.41801,-18.65511 l -5.53518,-18.96591 c -0.92322,-3.17097 -3.8602,-5.57072 -7.01955,-5.57072 h -10.02348 c -0.004,0.0202 -0.01,0.0202 -0.016,0.0322 0,0 1.58371,4.78196 2.37502,7.17567 1.14824,3.47373 1.71637,5.19347 0,7.18351 -8.354,8.4134 -21.68525,12.90089 -35.30875,13.42277 -15.44136,0.59621 -31.15993,-3.99099 -40.73063,-13.42277 -1.79227,-1.76626 -1.18864,-3.59336 0,-7.18351 0.79228,-2.3929 2.28125,-7.20728 2.28125,-7.20728 z"
                id="path8877"
                sodipodi:nodetypes="sscccccccsssssccccccccccccccccsccccccsccccccccccccccccccssscccccsccccccccc" />
    </g>
</svg>
