<?xml version="1.0" encoding="UTF-8" standalone="no"?>
<!-- Created with Inkscape (http://www.inkscape.org/) -->

<svg
   width="96"
   height="96"
   viewBox="0 0 96 96"
   version="1.1"
   id="SVGRoot"
   sodipodi:docname="ic_scan_big.svg"
   inkscape:version="1.1.2 (0a00cf5339, 2022-02-04)"
   xmlns:inkscape="http://www.inkscape.org/namespaces/inkscape"
   xmlns:sodipodi="http://sodipodi.sourceforge.net/DTD/sodipodi-0.dtd"
   xmlns="http://www.w3.org/2000/svg"
   xmlns:svg="http://www.w3.org/2000/svg">
  <sodipodi:namedview
     id="namedview17188"
     pagecolor="#ffffff"
     bordercolor="#111111"
     borderopacity="1"
     inkscape:pageshadow="0"
     inkscape:pageopacity="0"
     inkscape:pagecheckerboard="1"
     inkscape:document-units="px"
     showgrid="true"
     inkscape:zoom="8"
     inkscape:cx="59.375"
     inkscape:cy="48.125"
     inkscape:window-width="1920"
     inkscape:window-height="1043"
     inkscape:window-x="0"
     inkscape:window-y="0"
     inkscape:window-maximized="1"
     inkscape:current-layer="layer1"
     inkscape:snap-bbox="true"
     inkscape:bbox-paths="true"
     inkscape:bbox-nodes="true"
     inkscape:snap-bbox-edge-midpoints="true"
     inkscape:snap-bbox-midpoints="true"
     inkscape:object-paths="true"
     inkscape:snap-intersection-paths="true"
     inkscape:snap-smooth-nodes="true"
     inkscape:snap-midpoints="true"
     inkscape:snap-object-midpoints="true"
     inkscape:snap-center="true"
     inkscape:showpageshadow="2"
     inkscape:deskcolor="#d1d1d1">
    <inkscape:grid
       type="xygrid"
       id="grid17251"
       originx="0"
       originy="0" />
  </sodipodi:namedview>
  <defs
     id="defs17183" />
  <g
     inkscape:label="Layer 1"
     inkscape:groupmode="layer"
     id="layer1">
    <path
       id="path7941"
       style="color:#000000;fill:#000000;stroke-linecap:round;stroke-linejoin:round;-inkscape-stroke:none"
       d="M 44 12 C 41.584067 12 39.069592 12.815122 37.238281 14.605469 C 35.406971 16.395816 34.228394 18.828489 33.154297 22.050781 L 17.837891 68 L 14 68 C 10.16961 68 7 71.169493 7 75 L 7 81 A 3.0003 3.0003 0 0 0 10 84 L 38.916016 84 A 3 3 0 0 0 41.916016 81 A 3 3 0 0 0 38.916016 78 L 13 78 L 13 75 C 13 74.412111 13.412194 74 14 74 L 20 74 A 3.0003 3.0003 0 0 0 22.845703 71.949219 L 38.845703 23.949219 C 39.771604 21.171517 40.707707 19.604182 41.433594 18.894531 C 42.159481 18.184881 42.644737 18 44 18 C 45.355263 18 45.840519 18.184881 46.566406 18.894531 C 47.292293 19.604182 48.228396 21.171517 49.154297 23.949219 L 52.757812 34.761719 A 3 3 0 0 0 56.552734 36.658203 A 3 3 0 0 0 58.449219 32.863281 L 54.845703 22.050781 C 53.771606 18.828489 52.593029 16.395816 50.761719 14.605469 C 48.930408 12.815122 46.415933 12 44 12 z M 66 44 C 54.9899 43.99985 46 52.9898 46 64 C 46 75.0101 54.9899 84 66 84 C 73.8448 84 80.980144 79.392894 84.214844 72.246094 C 84.897161 70.737014 84.22743 68.96055 82.71875 68.277344 C 81.209643 67.59504 79.433168 68.264717 78.75 69.773438 C 76.4804 74.787937 71.5041 77.9983 66 78 C 58.2325 78 52 71.7674 52 64 C 52 56.2325 58.2325 50 66 50 C 70.3828 50.0009 74.469763 52.049575 77.101562 55.484375 L 74.292969 58.292969 C 73.663306 58.922948 74.109298 59.999684 75 60 L 85 60 C 85.552262 59.999945 85.999945 59.552262 86 59 L 86 49 C 86.000001 48.595567 85.75643 48.231014 85.382812 48.076172 C 85.291742 48.038942 85.195615 48.015039 85.097656 48.005859 C 84.799985 47.976399 84.50477 48.081749 84.292969 48.292969 L 81.369141 51.216797 C 77.602641 46.688297 71.9842 44.00175 66 44 z " />
  </g>
</svg>
