<?xml version="1.0" encoding="UTF-8" standalone="no"?>
<!-- Created with Inkscape (http://www.inkscape.org/) -->

<svg
   width="96"
   height="96"
   viewBox="0 0 96 96"
   version="1.1"
   id="SVGRoot"
   sodipodi:docname="ic_browser_subtitles_big.svg"
   inkscape:version="1.2.2 (b0a8486541, 2022-12-01)"
   xmlns:inkscape="http://www.inkscape.org/namespaces/inkscape"
   xmlns:sodipodi="http://sodipodi.sourceforge.net/DTD/sodipodi-0.dtd"
   xmlns="http://www.w3.org/2000/svg"
   xmlns:svg="http://www.w3.org/2000/svg">
  <sodipodi:namedview
     id="namedview17188"
     pagecolor="#ffffff"
     bordercolor="#111111"
     borderopacity="1"
     inkscape:pageshadow="0"
     inkscape:pageopacity="0"
     inkscape:pagecheckerboard="1"
     inkscape:document-units="px"
     showgrid="true"
     inkscape:zoom="5.1241865"
     inkscape:cx="54.35009"
     inkscape:cy="41.079691"
     inkscape:window-width="1920"
     inkscape:window-height="1043"
     inkscape:window-x="0"
     inkscape:window-y="0"
     inkscape:window-maximized="1"
     inkscape:current-layer="layer1"
     inkscape:snap-bbox="true"
     inkscape:bbox-paths="true"
     inkscape:bbox-nodes="true"
     inkscape:snap-bbox-edge-midpoints="true"
     inkscape:snap-bbox-midpoints="true"
     inkscape:object-paths="true"
     inkscape:snap-intersection-paths="true"
     inkscape:snap-smooth-nodes="true"
     inkscape:snap-midpoints="true"
     inkscape:snap-object-midpoints="true"
     inkscape:snap-center="true"
     inkscape:showpageshadow="2"
     inkscape:deskcolor="#d1d1d1">
    <inkscape:grid
       type="xygrid"
       id="grid17251"
       originx="0"
       originy="0" />
  </sodipodi:namedview>
  <defs
     id="defs17183" />
  <g
     inkscape:label="Layer 1"
     inkscape:groupmode="layer"
     id="layer1">
    <path
       id="rect8219"
       style="color:#000000;fill:#000000;stroke-linecap:round;stroke-linejoin:round;stroke-dashoffset:10;-inkscape-stroke:none"
       d="M 14 16 C 10.727898 16 8 18.727898 8 22 L 8 74 C 8 77.272102 10.727898 80 14 80 L 82 80 C 85.272102 80 88 77.272102 88 74 L 88 22 C 88 18.727898 85.272102 16 82 16 L 14 16 z M 14 22 L 82 22 L 82 74 L 14 74 L 14 22 z M 27 41 A 3 3 0 0 0 24 44 A 3 3 0 0 0 27 47 L 29 47 A 3 3 0 0 0 32 44 A 3 3 0 0 0 29 41 L 27 41 z M 43 41 A 3 3 0 0 0 40 44 A 3 3 0 0 0 43 47 L 69 47 A 3 3 0 0 0 72 44 A 3 3 0 0 0 69 41 L 43 41 z M 27 57 A 3 3 0 0 0 24 60 A 3 3 0 0 0 27 63 L 53 63 A 3 3 0 0 0 56 60 A 3 3 0 0 0 53 57 L 27 57 z M 67 57 A 3 3 0 0 0 64 60 A 3 3 0 0 0 67 63 L 69 63 A 3 3 0 0 0 72 60 A 3 3 0 0 0 69 57 L 67 57 z " />
  </g>
</svg>
