<?xml version="1.0" encoding="UTF-8" standalone="no"?>
<!-- Created with Inkscape (http://www.inkscape.org/) -->

<svg
   width="48.0px"
   height="48.0px"
   viewBox="0 0 48.0 48.0"
   version="1.1"
   id="SVGRoot"
   sodipodi:docname="ic_song.svg"
   inkscape:version="1.1.2 (0a00cf5339, 2022-02-04)"
   xmlns:inkscape="http://www.inkscape.org/namespaces/inkscape"
   xmlns:sodipodi="http://sodipodi.sourceforge.net/DTD/sodipodi-0.dtd"
   xmlns="http://www.w3.org/2000/svg"
   xmlns:svg="http://www.w3.org/2000/svg">
  <sodipodi:namedview
     id="namedview10455"
     pagecolor="#ffffff"
     bordercolor="#111111"
     borderopacity="1"
     inkscape:pageshadow="0"
     inkscape:pageopacity="0"
     inkscape:pagecheckerboard="1"
     inkscape:document-units="px"
     showgrid="true"
     inkscape:zoom="10.248373"
     inkscape:cx="22.052281"
     inkscape:cy="26.052916"
     inkscape:window-width="1920"
     inkscape:window-height="1043"
     inkscape:window-x="0"
     inkscape:window-y="0"
     inkscape:window-maximized="1"
     inkscape:current-layer="layer1">
    <inkscape:grid
       type="xygrid"
       id="grid10518" />
  </sodipodi:namedview>
  <defs
     id="defs10450" />
  <g
     inkscape:label="Layer 1"
     inkscape:groupmode="layer"
     id="layer1">
    <path
       id="path4331-6"
       style="fill:#000000;stroke-width:1"
       d="m 28,6 c -2.2,0 -4,1.8 -4,4 V 27.08398 C 22.82084,26.3967 21.4539,26 20,26 c -4.39458,0 -8,3.60542 -8,8 0,4.39459 3.60542,8 8,8 4.39458,0 8,-3.60541 8,-8 V 14 h 4 c 2.2,0 4,-1.8 4,-4 V 6 Z m -8,24 c 2.23283,0 4,1.76717 4,4 0,2.23283 -1.76717,4 -4,4 -2.23283,0 -4,-1.76717 -4,-4 0,-2.23283 1.76717,-4 4,-4 z" />
  </g>
</svg>
