<?xml version="1.0" encoding="UTF-8" standalone="no"?>
<!-- Created with Inkscape (http://www.inkscape.org/) -->

<svg
   width="48.0px"
   height="48.0px"
   viewBox="0 0 48.0 48.0"
   version="1.1"
   id="SVGRoot"
   sodipodi:docname="ic_scan.svg"
   inkscape:version="1.1.2 (0a00cf5339, 2022-02-04)"
   xmlns:inkscape="http://www.inkscape.org/namespaces/inkscape"
   xmlns:sodipodi="http://sodipodi.sourceforge.net/DTD/sodipodi-0.dtd"
   xmlns="http://www.w3.org/2000/svg"
   xmlns:svg="http://www.w3.org/2000/svg">
  <sodipodi:namedview
     id="namedview17188"
     pagecolor="#ffffff"
     bordercolor="#111111"
     borderopacity="1"
     inkscape:pageshadow="0"
     inkscape:pageopacity="0"
     inkscape:pagecheckerboard="1"
     inkscape:document-units="px"
     showgrid="true"
     inkscape:zoom="5.1241865"
     inkscape:cx="-33.371151"
     inkscape:cy="32.102657"
     inkscape:window-width="1920"
     inkscape:window-height="1016"
     inkscape:window-x="0"
     inkscape:window-y="0"
     inkscape:window-maximized="1"
     inkscape:current-layer="layer1"
     inkscape:snap-bbox="true"
     inkscape:bbox-paths="true"
     inkscape:bbox-nodes="true"
     inkscape:snap-bbox-edge-midpoints="true"
     inkscape:snap-bbox-midpoints="true"
     inkscape:object-paths="true"
     inkscape:snap-intersection-paths="true"
     inkscape:snap-smooth-nodes="true"
     inkscape:snap-midpoints="true"
     inkscape:snap-object-midpoints="true"
     inkscape:snap-center="true"
     inkscape:showpageshadow="2"
     inkscape:deskcolor="#d1d1d1">
    <inkscape:grid
       type="xygrid"
       id="grid17251" />
  </sodipodi:namedview>
  <defs
     id="defs17183" />
  <g
     inkscape:label="Layer 1"
     inkscape:groupmode="layer"
     id="layer1">
    <path
       style="color:#000000;fill:#000000;stroke-linecap:round;stroke-linejoin:round;-inkscape-stroke:none"
       d="m 21.896484,12.632813 c 0.450602,-1.351806 0.899101,-2.063361 1.169922,-2.328125 C 23.337227,10.039923 23.410744,10 24,10 c 0.589256,0 0.662773,0.03992 0.933594,0.304688 0.270821,0.264764 0.71932,0.976319 1.169922,2.328125 h -0.002 l 1.041016,3.125 c 0.348983,1.04892 1.482724,1.615791 2.53125,1.265624 1.04892,-0.348982 1.615791,-1.482723 1.265625,-2.531249 l -1.041016,-3.125 h -0.002 C 29.347087,9.718996 28.738242,8.430547 27.730469,7.4453125 26.722696,6.460078 25.296362,6 24,6 22.703638,6 21.277304,6.460078 20.269531,7.4453125 19.261758,8.430547 18.652913,9.718996 18.103516,11.367188 L 10.558594,34 H 9 c -2.185447,0 -4,1.814553 -4,4 v 2 c 1.104e-4,1.104524 0.8954762,1.99989 2,2 h 14 c 1.104569,0 2,-0.895431 2,-2 0,-1.104569 -0.895431,-2 -2,-2 h -7.558594 z"
       id="path26848"
       sodipodi:nodetypes="cssscccccccsssccssccssscc" />
    <path
       id="path26850"
       style="color:#000000;fill:#000000;stroke-linecap:round;stroke-linejoin:round;-inkscape-stroke:none;paint-order:markers fill stroke"
       d="M 35 20 C 28.948564 20 24 24.948564 24 31 C 24 37.051436 28.948564 42 35 42 A 2.0002 2.0002 0 0 0 35.003906 42 C 38.65962 41.9939 42.077438 40.167265 44.115234 37.132812 A 2 2 0 0 0 43.570312 34.357422 A 2 2 0 0 0 40.794922 34.902344 C 39.496694 36.835525 37.327939 37.994819 35 38 C 31.110325 38 28 34.889675 28 31 C 28 27.110325 31.110325 24 35 24 C 36.658952 24.00075 38.232774 24.585994 39.470703 25.615234 L 38.292969 26.792969 A 1.0001 1.0001 0 0 0 39 28.5 L 44 28.5 A 1.0001 1.0001 0 0 0 45 27.5 L 45 22.5 A 1.0001 1.0001 0 0 0 44.382812 21.576172 A 1.0001 1.0001 0 0 0 43.292969 21.792969 L 42.300781 22.785156 C 40.314512 21.020298 37.7269 20.00123 35 20 z " />
  </g>
</svg>
