<?xml version="1.0" encoding="UTF-8" standalone="no"?>
<!-- Created with Inkscape (http://www.inkscape.org/) -->

<svg
   width="96.0px"
   height="96.0px"
   viewBox="0 0 96.0 96.0"
   version="1.1"
   id="SVGRoot"
   sodipodi:docname="ic_music_note_big.svg"
   inkscape:version="1.1.2 (0a00cf5339, 2022-02-04)"
   xmlns:inkscape="http://www.inkscape.org/namespaces/inkscape"
   xmlns:sodipodi="http://sodipodi.sourceforge.net/DTD/sodipodi-0.dtd"
   xmlns="http://www.w3.org/2000/svg"
   xmlns:svg="http://www.w3.org/2000/svg">
  <sodipodi:namedview
     id="namedview10963"
     pagecolor="#ffffff"
     bordercolor="#111111"
     borderopacity="1"
     inkscape:pageshadow="0"
     inkscape:pageopacity="0"
     inkscape:pagecheckerboard="1"
     inkscape:document-units="px"
     showgrid="true"
     inkscape:zoom="5.1241863"
     inkscape:cx="65.181081"
     inkscape:cy="38.249975"
     inkscape:window-width="1920"
     inkscape:window-height="1043"
     inkscape:window-x="0"
     inkscape:window-y="0"
     inkscape:window-maximized="1"
     inkscape:current-layer="layer1">
    <inkscape:grid
       type="xygrid"
       id="grid11026" />
  </sodipodi:namedview>
  <defs
     id="defs10958" />
  <g
     inkscape:label="Layer 1"
     inkscape:groupmode="layer"
     id="layer1">
    <path
       id="circle5298"
       style="color:#000000;fill:#000000;stroke-linecap:round;-inkscape-stroke:none;paint-order:markers fill stroke"
       d="M 58 12 A 7.9999398 7.9999398 0 0 0 50 20 L 50 24 L 50 55.537109 C 47.255693 53.328415 43.776355 52 40 52 C 31.199018 52 24 59.199018 24 68 C 24 76.800982 31.199018 84 40 84 C 48.800982 84 56 76.800982 56 68 L 56 24 L 64 24 A 7.9999398 7.9999398 0 0 0 72 16 L 72 12 L 58 12 z M 40 58 C 45.558344 58 50 62.441656 50 68 C 50 73.558344 45.558344 78 40 78 C 34.441656 78 30 73.558344 30 68 C 30 62.441656 34.441656 58 40 58 z " />
  </g>
</svg>
