<?xml version="1.0" encoding="utf-8"?>
<!-- Generator: Adobe Illustrator 24.0.3, SVG Export Plug-In . SVG Version: 6.00 Build 0)  -->
<svg version="1.1"
	 id="svg6" xmlns:cc="http://creativecommons.org/ns#" xmlns:dc="http://purl.org/dc/elements/1.1/" xmlns:inkscape="http://www.inkscape.org/namespaces/inkscape" xmlns:rdf="http://www.w3.org/1999/02/22-rdf-syntax-ns#" xmlns:sodipodi="http://sodipodi.sourceforge.net/DTD/sodipodi-0.dtd" xmlns:svg="http://www.w3.org/2000/svg"
	 xmlns="http://www.w3.org/2000/svg" xmlns:xlink="http://www.w3.org/1999/xlink" x="0px" y="0px" viewBox="0 0 32 32"
	 style="enable-background:new 0 0 32 32;" xml:space="preserve">
<style type="text/css">
	.st0{fill-rule:evenodd;clip-rule:evenodd;fill:#FFFFFF;}
</style>
<sodipodi:namedview  bordercolor="#666666" borderopacity="1" gridtolerance="10" guidetolerance="10" id="namedview8" inkscape:current-layer="svg6" inkscape:cx="0.15254237" inkscape:cy="12" inkscape:pageopacity="0" inkscape:pageshadow="2" inkscape:window-height="1413" inkscape:window-maximized="1" inkscape:window-width="2560" inkscape:window-x="0" inkscape:window-y="27" inkscape:zoom="9.8333333" objecttolerance="10" pagecolor="#ffffff" showgrid="false">
	</sodipodi:namedview>
<path class="st0" d="M16,8.7c1.4,0,2.5,1.1,2.5,2.5v1.6h-5v-1.6C13.5,9.8,14.6,8.7,16,8.7z M16,16.8c0.9,0,1.6,0.7,1.6,1.6
	S16.9,20,16,20c-0.9,0-1.6-0.7-1.6-1.6S15.1,16.8,16,16.8z M16,7.2c-2.2,0-4,1.8-4,4v1.6h-0.8c-0.9,0-1.6,0.7-1.6,1.6v8
	c0,0.9,0.7,1.6,1.6,1.6h9.6c0.9,0,1.6-0.7,1.6-1.6v-8c0-0.9-0.7-1.6-1.6-1.6H20v-1.6C20,9,18.2,7.2,16,7.2z M16,0
	c8.8,0,16,7.2,16,16s-7.2,16-16,16S0,24.8,0,16S7.2,0,16,0z"/>
</svg>
