<?xml version="1.0" encoding="UTF-8" standalone="no"?>
<!-- Created with Inkscape (http://www.inkscape.org/) -->

<svg
   width="29"
   height="48"
   viewBox="0 0 29 48"
   version="1.1"
   id="SVGRoot"
   sodipodi:docname="ic_song_vertical.svg"
   inkscape:version="1.1.2 (0a00cf5339, 2022-02-04)"
   xmlns:inkscape="http://www.inkscape.org/namespaces/inkscape"
   xmlns:sodipodi="http://sodipodi.sourceforge.net/DTD/sodipodi-0.dtd"
   xmlns="http://www.w3.org/2000/svg"
   xmlns:svg="http://www.w3.org/2000/svg">
  <sodipodi:namedview
     id="namedview4022"
     pagecolor="#ffffff"
     bordercolor="#111111"
     borderopacity="1"
     inkscape:pageshadow="0"
     inkscape:pageopacity="0"
     inkscape:pagecheckerboard="1"
     inkscape:document-units="px"
     showgrid="true"
     inkscape:zoom="14.493388"
     inkscape:cx="-5.5887556"
     inkscape:cy="26.322349"
     inkscape:window-width="1920"
     inkscape:window-height="1016"
     inkscape:window-x="0"
     inkscape:window-y="0"
     inkscape:window-maximized="1"
     inkscape:current-layer="layer1">
    <inkscape:grid
       type="xygrid"
       id="grid4085" />
  </sodipodi:namedview>
  <defs
     id="defs4017" />
  <g
     inkscape:label="Layer 1"
     inkscape:groupmode="layer"
     id="layer1">
    <path
       id="path4331-6"
       style="fill:#000000;stroke-width:1"
       d="m 16,15 c -1.1,0 -2,0.9 -2,2 v 8.54199 C 13.41042,25.19835 12.72695,25 12,25 c -2.1972899,0 -3.9999999,1.80271 -3.9999999,4 0,2.197295 1.80271,4 3.9999999,4 2.19729,0 4,-1.802705 4,-4 V 19 h 2 c 1.1,0 2,-0.9 2,-2 v -2 z m -4,12 c 1.116415,0 2,0.883585 2,2 0,1.116415 -0.883585,2 -2,2 -1.116415,0 -2,-0.883585 -2,-2 0,-1.116415 0.883585,-2 2,-2 z" />
  </g>
</svg>
