<?xml version="1.0" encoding="UTF-8" standalone="no"?>
<!-- Created with Inkscape (http://www.inkscape.org/) -->

<svg
   xmlns:dc="http://purl.org/dc/elements/1.1/"
   xmlns:cc="http://creativecommons.org/ns#"
   xmlns:rdf="http://www.w3.org/1999/02/22-rdf-syntax-ns#"
   xmlns:svg="http://www.w3.org/2000/svg"
   xmlns="http://www.w3.org/2000/svg"
   xmlns:sodipodi="http://sodipodi.sourceforge.net/DTD/sodipodi-0.dtd"
   xmlns:inkscape="http://www.inkscape.org/namespaces/inkscape"
   width="48px"
   height="48px"
   viewBox="0 0 48 48"
   version="1.1"
   id="SVGRoot"
   inkscape:version="0.92.4 (5da689c313, 2019-01-14)"
   sodipodi:docname="ic_theme.svg">
  <defs
     id="defs7678" />
  <sodipodi:namedview
     id="base"
     pagecolor="#ffffff"
     bordercolor="#666666"
     borderopacity="1.0"
     inkscape:pageopacity="0.0"
     inkscape:pageshadow="2"
     inkscape:zoom="8.0000004"
     inkscape:cx="-6.9423447"
     inkscape:cy="27.631304"
     inkscape:document-units="px"
     inkscape:current-layer="layer1"
     showgrid="true"
     inkscape:window-width="1920"
     inkscape:window-height="1016"
     inkscape:window-x="0"
     inkscape:window-y="1107"
     inkscape:window-maximized="1"
     inkscape:grid-bbox="true"
     inkscape:snap-bbox="true"
     inkscape:bbox-paths="true"
     inkscape:snap-bbox-edge-midpoints="true"
     inkscape:bbox-nodes="true"
     inkscape:snap-bbox-midpoints="true"
     inkscape:object-paths="true"
     inkscape:snap-intersection-paths="true"
     inkscape:snap-smooth-nodes="true"
     inkscape:snap-midpoints="true"
     inkscape:snap-object-midpoints="true"
     inkscape:snap-center="true">
    <inkscape:grid
       type="xygrid"
       id="grid8234" />
  </sodipodi:namedview>
  <metadata
     id="metadata7681">
    <rdf:RDF>
      <cc:Work
         rdf:about="">
        <dc:format>image/svg+xml</dc:format>
        <dc:type
           rdf:resource="http://purl.org/dc/dcmitype/StillImage" />
        <dc:title />
      </cc:Work>
    </rdf:RDF>
  </metadata>
  <g
     inkscape:label="Layer 1"
     inkscape:groupmode="layer"
     id="layer1">
    <path
       style="opacity:1;fill:#000000;fill-opacity:1;stroke:none;stroke-width:6;stroke-linecap:round;stroke-linejoin:round;stroke-miterlimit:4;stroke-dasharray:none;stroke-dashoffset:0;stroke-opacity:1"
       d="m 24,7.999999 a 16,16 0 0 0 -16,16 16,16 0 0 0 16,16.000002 2.9999983,2.9999983 0 0 0 3,-3 2.9999983,2.9999983 0 0 0 -3,-3 2.9999983,2.9999983 0 0 1 -3,-3.000002 2.9999983,2.9999983 0 0 1 3,-3 h 12 c 0,0 4,0 4,-4 a 16,16 0 0 0 -16,-16 z m -4.3359,3.9395 a 2.9999967,2.9999967 0 0 1 2.8281,1.7304 2.9999967,2.9999967 0 0 1 -1.4512,3.9864 2.9999967,2.9999967 0 0 1 -3.9863,-1.4512 2.9999967,2.9999967 0 0 1 1.4512,-3.9863 2.9999967,2.9999967 0 0 1 1.1582,-0.2793 z m 8.4589,0 a 2.9999967,2.9999967 0 0 1 1.3711,0.2793 2.9999967,2.9999967 0 0 1 1.4512,3.9863 2.9999967,2.9999967 0 0 1 -3.9863,1.4512 2.9999967,2.9999967 0 0 1 -1.4512,-3.9864 2.9999967,2.9999967 0 0 1 2.6152,-1.7304 z m -13.8085,6.4726 a 2.9999967,2.9999967 0 0 1 0.8027,0.1016 2.9999967,2.9999967 0 0 1 2.1211,3.6738 2.9999967,2.9999967 0 0 1 -3.6738,2.1211 2.9999967,2.9999967 0 0 1 -2.1211,-3.6738 2.9999967,2.9999967 0 0 1 2.8711,-2.2227 z m 19.4589,0 a 2.9999967,2.9999967 0 0 1 2.7832,2.2207 2.9999967,2.9999967 0 0 1 -2.1211,3.6738 2.9999967,2.9999967 0 0 1 -3.6738,-2.1211 2.9999967,2.9999967 0 0 1 2.1211,-3.6738 2.9999967,2.9999967 0 0 1 0.8906,-0.1 z"
       id="path2126"
       inkscape:connector-curvature="0" />
  </g>
</svg>
