<?xml version="1.0" encoding="UTF-8" standalone="no"?>
<!-- Created with Inkscape (http://www.inkscape.org/) -->

<svg
   xmlns:dc="http://purl.org/dc/elements/1.1/"
   xmlns:cc="http://creativecommons.org/ns#"
   xmlns:rdf="http://www.w3.org/1999/02/22-rdf-syntax-ns#"
   xmlns:svg="http://www.w3.org/2000/svg"
   xmlns="http://www.w3.org/2000/svg"
   xmlns:sodipodi="http://sodipodi.sourceforge.net/DTD/sodipodi-0.dtd"
   xmlns:inkscape="http://www.inkscape.org/namespaces/inkscape"
   width="100"
   height="160"
   viewBox="0 0 26.458333 42.333332"
   version="1.1"
   id="svg8"
   inkscape:version="0.92.4 (33fec40, 2019-01-16)"
   sodipodi:docname="ic_theme_daynight.svg"
   inkscape:export-filename="/home/nicolas/Documents/vlc/ic_theme_daynight.svg.png"
   inkscape:export-xdpi="960"
   inkscape:export-ydpi="960">
  <defs
     id="defs2" />
  <sodipodi:namedview
     id="base"
     pagecolor="#ffffff"
     bordercolor="#666666"
     borderopacity="1.0"
     inkscape:pageopacity="0.0"
     inkscape:pageshadow="2"
     inkscape:zoom="2.8"
     inkscape:cx="8.3605412"
     inkscape:cy="23.438988"
     inkscape:document-units="px"
     inkscape:current-layer="layer1"
     showgrid="false"
     units="px"
     showguides="true"
     inkscape:guide-bbox="true"
     inkscape:window-width="1920"
     inkscape:window-height="1053"
     inkscape:window-x="0"
     inkscape:window-y="27"
     inkscape:window-maximized="1">
    <sodipodi:guide
       position="0,38.085907"
       orientation="1,0"
       id="guide3738"
       inkscape:locked="false"
       inkscape:label=""
       inkscape:color="rgb(0,0,255)" />
    <sodipodi:guide
       position="7.884451,42.333332"
       orientation="0,1"
       id="guide3740"
       inkscape:locked="false"
       inkscape:label=""
       inkscape:color="rgb(0,0,255)" />
  </sodipodi:namedview>
  <metadata
     id="metadata5">
    <rdf:RDF>
      <cc:Work
         rdf:about="">
        <dc:format>image/svg+xml</dc:format>
        <dc:type
           rdf:resource="http://purl.org/dc/dcmitype/StillImage" />
        <dc:title></dc:title>
      </cc:Work>
    </rdf:RDF>
  </metadata>
  <g
     inkscape:label="Calque 1"
     inkscape:groupmode="layer"
     id="layer1"
     transform="translate(0,-254.66667)">
    <g
       transform="translate(3.0197218e-7,2.224e-4)"
       id="g5071">
      <path
         inkscape:connector-curvature="0"
         id="rect3713-3-6"
         d="m 1.5783435,254.66667 c -0.78290945,0 -1.43123928,0.56649 -1.57834380197218,1.32292 H 26.458332 c -0.147101,-0.75643 -0.79595,-1.32292 -1.578858,-1.32292 z"
         style="fill:#222222;fill-opacity:1;stroke-width:0.07055799" />
      <path
         inkscape:connector-curvature="0"
         id="rect3713-7-1"
         d="M 0.02635515,255.98964 C 0.01002506,256.07938 0,256.17135 0,256.26579 v 2.87018 c 0.09812602,0.0181 0.19913071,0.0286 0.30282356,0.0286 H 26.458333 v -2.89885 c 0,-0.0944 -0.01003,-0.18641 -0.02635,-0.27615 z"
         style="fill:#2a2a2a;fill-opacity:1;stroke-width:0.06861404" />
      <path
         id="rect3713-5-2"
         d="m 1.542542,254.66955 c -0.0563,0.002 -0.111768,0.007 -0.166398,0.015 0.05495,-0.007 0.109829,-0.0137 0.166398,-0.015 z M 0,259.13594 v 36.25722 c 0,0.88995 0.716676,1.60662 1.606621,1.60662 h 23.245091 c 0.889945,0 1.606621,-0.71667 1.606621,-1.60662 V 259.16437 H 0.302824 c -0.103693,0 -0.204698,-0.0103 -0.302824,-0.0284 z"
         style="fill:#313131;fill-opacity:1;stroke-width:0.06954572"
         inkscape:connector-curvature="0" />
      <rect
         ry="0.96673107"
         y="261.28125"
         x="1.3229166"
         height="3.96875"
         width="3.96875"
         id="rect4638-9"
         style="fill:#bbbbbb;fill-opacity:1;stroke-width:0.28493589" />
      <rect
         ry="0.52916664"
         y="263.92706"
         x="6.614583"
         height="1.0583333"
         width="15.875"
         id="rect4640-31"
         style="fill:#bbbbbb;fill-opacity:1;stroke-width:0.24491194" />
      <rect
         ry="0.52916664"
         y="261.81039"
         x="6.614583"
         height="1.0583333"
         width="15.875"
         id="rect4640-3-94"
         style="fill:#bbbbbb;fill-opacity:1;stroke-width:0.24491194" />
      <rect
         ry="0.96673107"
         y="267.89584"
         x="1.3229166"
         height="3.96875"
         width="3.96875"
         id="rect4638-6-7"
         style="fill:#bbbbbb;fill-opacity:1;stroke-width:0.28493589" />
      <rect
         ry="0.52916664"
         y="270.54166"
         x="6.614583"
         height="1.0583333"
         width="15.875"
         id="rect4640-2-8"
         style="fill:#bbbbbb;fill-opacity:1;stroke-width:0.24491194" />
      <rect
         ry="0.52916664"
         y="268.42499"
         x="6.614583"
         height="1.0583333"
         width="15.875"
         id="rect4640-3-9-4"
         style="fill:#bbbbbb;fill-opacity:1;stroke-width:0.24491194" />
      <rect
         ry="0.96673107"
         y="274.51041"
         x="1.3229166"
         height="3.96875"
         width="3.96875"
         id="rect4638-6-2-5"
         style="fill:#bbbbbb;fill-opacity:1;stroke-width:0.28493589" />
      <rect
         ry="0.52916664"
         y="277.15622"
         x="6.614583"
         height="1.0583333"
         width="15.875"
         id="rect4640-2-7-0"
         style="fill:#bbbbbb;fill-opacity:1;stroke-width:0.24491194" />
      <rect
         ry="0.52916664"
         y="275.03955"
         x="6.614583"
         height="1.0583333"
         width="15.875"
         id="rect4640-3-9-0-3"
         style="fill:#bbbbbb;fill-opacity:1;stroke-width:0.24491194" />
      <rect
         ry="0.96673107"
         y="281.125"
         x="1.3229166"
         height="3.96875"
         width="3.96875"
         id="rect4638-6-2-3-6"
         style="fill:#bbbbbb;fill-opacity:1;stroke-width:0.28493589" />
      <rect
         ry="0.52916664"
         y="283.77081"
         x="6.614583"
         height="1.0583333"
         width="15.875"
         id="rect4640-2-7-6-1"
         style="fill:#bbbbbb;fill-opacity:1;stroke-width:0.24491194" />
      <rect
         ry="0.52916664"
         y="281.65414"
         x="6.614583"
         height="1.0583333"
         width="15.875"
         id="rect4640-3-9-0-0-0"
         style="fill:#bbbbbb;fill-opacity:1;stroke-width:0.24491194" />
      <rect
         ry="0.96673107"
         y="287.73959"
         x="1.3229166"
         height="3.96875"
         width="3.96875"
         id="rect4638-6-2-3-2-6"
         style="fill:#bbbbbb;fill-opacity:1;stroke-width:0.28493589" />
      <rect
         ry="0.52916664"
         y="290.38541"
         x="6.614583"
         height="1.0583333"
         width="15.875"
         id="rect4640-2-7-6-6"
         style="fill:#bbbbbb;fill-opacity:1;stroke-width:0.24491194" />
      <rect
         ry="0.52916664"
         y="288.26874"
         x="6.614583"
         height="1.0583333"
         width="15.875"
         id="rect4640-3-9-0-0-1"
         style="fill:#bbbbbb;fill-opacity:1;stroke-width:0.24491194" />
      <circle
         r="1.984375"
         cy="291.84064"
         cx="22.621874"
         id="path4811"
         style="fill:#fc7c00;fill-opacity:1;stroke-width:0.29243419" />
    </g>
    <path
       style="fill:#fc7100;fill-opacity:1;stroke-width:0.26667586"
       d="M 3.578125 0.515625 C 2.2189639 1.109689 1.1265447 2.189159 0.4921875 3.5507812 L 0.4921875 5 L 96.310547 5 L 98.302734 1.8144531 C 97.763468 1.2677901 97.129047 0.82547319 96.419922 0.515625 L 3.578125 0.515625 z "
       transform="matrix(0.26458333,0,0,0.26458333,0,254.66667)"
       id="rect3713-3" />
    <path
       style="fill:#fc8600;fill-opacity:1;stroke-width:0.25932866"
       d="M 0.4921875 5 L 0.4921875 16.960938 C 0.70662648 16.984217 0.92349974 17 1.1445312 17 L 88.808594 17 L 96.310547 5 L 0.4921875 5 z "
       transform="matrix(0.26458333,0,0,0.26458333,0,254.66667)"
       id="rect3713-7" />
    <path
       style="fill:#fafafa;fill-opacity:1;stroke-width:0.26284999"
       d="M 0.4921875 16.960938 L 0.4921875 156.32812 C 0.64960997 156.69521 0.84299687 157.042 1.0664062 157.36719 L 88.808594 17 L 1.1445312 17 C 0.92349942 17 0.70662685 16.984008 0.4921875 16.960938 z "
       transform="matrix(0.26458333,0,0,0.26458333,0,254.66667)"
       id="rect3713-5" />
    <rect
       style="fill:#757575;fill-opacity:1;stroke-width:0.28493589"
       id="rect4638"
       width="3.96875"
       height="3.96875"
       x="1.3229166"
       y="261.28125"
       ry="0.96673107" />
    <path
       style="fill:#757575;fill-opacity:1;stroke-width:0.92565143"
       d="M 27 35 C 25.892 35 25 35.892 25 37 C 25 38.108 25.892 39 27 39 L 75.056641 39 L 77.556641 35 L 27 35 z "
       transform="matrix(0.26458333,0,0,0.26458333,0,254.66667)"
       id="rect4640" />
    <path
       style="fill:#757575;fill-opacity:1;stroke-width:0.92565143"
       d="M 27 27 C 25.892 27 25 27.892 25 29 C 25 30.108 25.892 31 27 31 L 80.058594 31 L 82.558594 27 L 27 27 z "
       transform="matrix(0.26458333,0,0,0.26458333,0,254.66667)"
       id="rect4640-3" />
    <rect
       style="fill:#757575;fill-opacity:1;stroke-width:0.28493589"
       id="rect4638-6"
       width="3.96875"
       height="3.96875"
       x="1.3229166"
       y="267.89584"
       ry="0.96673107" />
    <path
       style="fill:#757575;fill-opacity:1;stroke-width:0.92565143"
       d="M 27 60 C 25.892 60 25 60.892 25 62 C 25 63.108 25.892 64 27 64 L 59.429688 64 L 61.929688 60 L 27 60 z "
       transform="matrix(0.26458333,0,0,0.26458333,0,254.66667)"
       id="rect4640-2" />
    <path
       style="fill:#757575;fill-opacity:1;stroke-width:0.92565143"
       d="M 27 52 C 25.892 52 25 52.892 25 54 C 25 55.108 25.892 56 27 56 L 64.429688 56 L 66.929688 52 L 27 52 z "
       transform="matrix(0.26458333,0,0,0.26458333,0,254.66667)"
       id="rect4640-3-9" />
    <rect
       style="fill:#757575;fill-opacity:1;stroke-width:0.28493589"
       id="rect4638-6-2"
       width="3.96875"
       height="3.96875"
       x="1.3229166"
       y="274.51041"
       ry="0.96673107" />
    <path
       style="fill:#757575;fill-opacity:1;stroke-width:0.92565143"
       d="M 27 85 C 25.892 85 25 85.892 25 87 C 25 88.108 25.892 89 27 89 L 43.802734 89 L 46.302734 85 L 27 85 z "
       transform="matrix(0.26458333,0,0,0.26458333,0,254.66667)"
       id="rect4640-2-7" />
    <path
       style="fill:#757575;fill-opacity:1;stroke-width:0.92565143"
       d="M 27 77 C 25.892 77 25 77.892 25 79 C 25 80.108 25.892 81 27 81 L 48.802734 81 L 51.302734 77 L 27 77 z "
       transform="matrix(0.26458333,0,0,0.26458333,0,254.66667)"
       id="rect4640-3-9-0" />
    <rect
       style="fill:#757575;fill-opacity:1;stroke-width:0.28493589"
       id="rect4638-6-2-3"
       width="3.96875"
       height="3.96875"
       x="1.3229166"
       y="281.125"
       ry="0.96673107" />
    <path
       style="fill:#757575;fill-opacity:1;stroke-width:0.92565143"
       d="M 27 110 C 25.892 110 25 110.892 25 112 C 25 113.108 25.892 114 27 114 L 28.173828 114 L 30.675781 110 L 27 110 z "
       transform="matrix(0.26458333,0,0,0.26458333,0,254.66667)"
       id="rect4640-2-7-6" />
    <path
       style="fill:#757575;fill-opacity:1;stroke-width:0.92565143"
       d="M 27 102 C 25.892 102 25 102.892 25 104 C 25 105.108 25.892 106 27 106 L 33.175781 106 L 35.675781 102 L 27 102 z "
       transform="matrix(0.26458333,0,0,0.26458333,0,254.66667)"
       id="rect4640-3-9-0-0" />
    <path
       style="fill:#757575;fill-opacity:1;stroke-width:1.07692313"
       d="M 8.6542969 125 C 6.630099 125 5 126.6301 5 128.6543 L 5 136.3457 C 5 138.3699 6.630099 140 8.6542969 140 L 11.921875 140 L 19.777344 127.43555 C 19.2761 126.01703 17.940082 125 16.345703 125 L 8.6542969 125 z "
       transform="matrix(0.26458333,0,0,0.26458333,0,254.66667)"
       id="rect4638-6-2-3-2" />
  </g>
</svg>
