<?xml version="1.0" encoding="UTF-8" standalone="no"?>
<svg
   xmlns:dc="http://purl.org/dc/elements/1.1/"
   xmlns:cc="http://creativecommons.org/ns#"
   xmlns:rdf="http://www.w3.org/1999/02/22-rdf-syntax-ns#"
   xmlns:svg="http://www.w3.org/2000/svg"
   xmlns="http://www.w3.org/2000/svg"
   xmlns:sodipodi="http://sodipodi.sourceforge.net/DTD/sodipodi-0.dtd"
   xmlns:inkscape="http://www.inkscape.org/namespaces/inkscape"
   width="48.0px"
   height="48.0px"
   viewBox="0 0 48.0 48.0"
   version="1.1"
   id="SVGRoot"
   sodipodi:docname="ic_video_controls.svg"
   inkscape:version="1.0.2 (e86c870879, 2021-01-15)">
  <defs
     id="defs3853" />
  <sodipodi:namedview
     id="base"
     pagecolor="#ffffff"
     bordercolor="#666666"
     borderopacity="1.0"
     inkscape:pageopacity="0.0"
     inkscape:pageshadow="2"
     inkscape:zoom="15.839192"
     inkscape:cx="32.715179"
     inkscape:cy="40.169908"
     inkscape:document-units="px"
     inkscape:current-layer="layer1"
     inkscape:document-rotation="0"
     showgrid="true"
     inkscape:window-width="1920"
     inkscape:window-height="1043"
     inkscape:window-x="0"
     inkscape:window-y="0"
     inkscape:window-maximized="1">
    <inkscape:grid
       type="xygrid"
       id="grid4423" />
  </sodipodi:namedview>
  <metadata
     id="metadata3856">
    <rdf:RDF>
      <cc:Work
         rdf:about="">
        <dc:format>image/svg+xml</dc:format>
        <dc:type
           rdf:resource="http://purl.org/dc/dcmitype/StillImage" />
        <dc:title />
      </cc:Work>
    </rdf:RDF>
  </metadata>
  <g
     inkscape:label="Layer 1"
     inkscape:groupmode="layer"
     id="layer1">
    <path
       id="rect3843"
       style="color:#000000;overflow:visible;fill:#000000;fill-opacity:1;stroke:none;stroke-width:4;stroke-linecap:butt;stroke-linejoin:round;stroke-miterlimit:4;stroke-dasharray:none"
       d="M 8 8 C 5.784 8 4 9.784 4 12 L 4 36 C 4 38.216 5.784 40 8 40 L 24 40 L 24 36 L 8 36 L 8 12 L 40 12 L 40 20 L 44 20 L 44 12 C 44 9.784 42.216 8 40 8 L 8 8 z M 20 17 C 19.447738 17.000055 19.000055 17.447738 19 18 L 19 30 C 18.999419 30.798475 19.866316 31.271312 20.554688 30.832031 L 29.554688 24.832031 C 30.148274 24.436148 30.148274 23.563852 29.554688 23.167969 L 20.554688 17.167969 C 20.390424 17.058458 20.197422 17.000014 20 17 z M 36 26 L 35.691406 28.46875 C 35.218506 28.668586 34.780153 28.931542 34.376953 29.240234 L 32.072266 28.267578 L 30.072266 31.732422 L 32.054688 33.234375 C 32.021987 33.4858 32 33.740299 32 34 C 32 34.259701 32.021687 34.5142 32.054688 34.765625 L 30.072266 36.267578 L 32.072266 39.732422 L 34.376953 38.759766 C 34.780153 39.068458 35.218506 39.331414 35.691406 39.53125 L 36 42 L 40 42 L 40.308594 39.53125 C 40.781494 39.331414 41.219847 39.068458 41.623047 38.759766 L 43.927734 39.732422 L 45.927734 36.267578 L 43.945312 34.765625 C 43.978013 34.5142 44 34.259701 44 34 C 44 33.740299 43.978312 33.4858 43.945312 33.234375 L 45.927734 31.732422 L 43.927734 28.267578 L 41.623047 29.240234 C 41.219847 28.931542 40.781494 28.668586 40.308594 28.46875 L 40 26 L 36 26 z M 38 32 C 39.1283 32 40 32.871741 40 34 C 40 35.128259 39.1283 36 38 36 C 36.8717 36 36 35.128259 36 34 C 36 32.871741 36.8717 32 38 32 z " />
  </g>
</svg>
