<?xml version="1.0" encoding="UTF-8" standalone="no"?>
<svg
   xmlns:dc="http://purl.org/dc/elements/1.1/"
   xmlns:cc="http://creativecommons.org/ns#"
   xmlns:rdf="http://www.w3.org/1999/02/22-rdf-syntax-ns#"
   xmlns:svg="http://www.w3.org/2000/svg"
   xmlns="http://www.w3.org/2000/svg"
   xmlns:sodipodi="http://sodipodi.sourceforge.net/DTD/sodipodi-0.dtd"
   xmlns:inkscape="http://www.inkscape.org/namespaces/inkscape"
   width="48.0px"
   height="48.0px"
   viewBox="0 0 48.0 48.0"
   version="1.1"
   id="SVGRoot"
   sodipodi:docname="ic_videotips.svg"
   inkscape:version="1.0.2 (e86c870879, 2021-01-15)">
  <defs
     id="defs3204" />
  <sodipodi:namedview
     id="base"
     pagecolor="#ffffff"
     bordercolor="#666666"
     borderopacity="1.0"
     inkscape:pageopacity="0.0"
     inkscape:pageshadow="2"
     inkscape:zoom="7.9195959"
     inkscape:cx="15.69018"
     inkscape:cy="36.144539"
     inkscape:document-units="px"
     inkscape:current-layer="layer1"
     inkscape:document-rotation="0"
     showgrid="true"
     inkscape:window-width="1920"
     inkscape:window-height="1043"
     inkscape:window-x="0"
     inkscape:window-y="0"
     inkscape:window-maximized="1">
    <inkscape:grid
       type="xygrid"
       id="grid3774" />
  </sodipodi:namedview>
  <metadata
     id="metadata3207">
    <rdf:RDF>
      <cc:Work
         rdf:about="">
        <dc:format>image/svg+xml</dc:format>
        <dc:type
           rdf:resource="http://purl.org/dc/dcmitype/StillImage" />
        <dc:title></dc:title>
      </cc:Work>
    </rdf:RDF>
  </metadata>
  <g
     inkscape:label="Layer 1"
     inkscape:groupmode="layer"
     id="layer1">
    <path
       id="path3524-8"
       style="fill:#000000;fill-rule:evenodd;stroke:none;stroke-width:1px;stroke-linecap:butt;stroke-linejoin:miter;stroke-opacity:1"
       d="m 36,1.9999352 -2,4 -4,2 4,2 2,3.9999998 2,-3.9999998 4,-2 -4,-2 z m -28,6 c -2.216,0 -4,1.784 -4,3.9999998 v 24 c 0,2.216 1.784,4 4,4 h 32 c 2.216,0 4,-1.784 4,-4 v -10 h -4 v 10 H 8 v -24 H 26 V 7.9999352 Z M 42,13.999935 40.666,16.665951 38,17.999935 40.666,19.333919 42,21.999935 43.334,19.333919 46,17.999935 43.334,16.665951 Z m -23.0215,2 c -0.5438,0.01175 -0.9786,0.456025 -0.9785,1 v 14 c 8e-4,0.789092 0.8948,1.263474 1.5371,0.84375 l 11,-7 c 0.6176,-0.392992 0.6176,-1.294508 0,-1.6875 l -11,-7 c -0.1667,-0.106122 -0.3611,-0.160492 -0.5586,-0.15625 z" />
  </g>
</svg>
