<?xml version="1.0" encoding="UTF-8" standalone="no"?>
<svg
   xmlns:dc="http://purl.org/dc/elements/1.1/"
   xmlns:cc="http://creativecommons.org/ns#"
   xmlns:rdf="http://www.w3.org/1999/02/22-rdf-syntax-ns#"
   xmlns:svg="http://www.w3.org/2000/svg"
   xmlns="http://www.w3.org/2000/svg"
   xmlns:sodipodi="http://sodipodi.sourceforge.net/DTD/sodipodi-0.dtd"
   xmlns:inkscape="http://www.inkscape.org/namespaces/inkscape"
   width="48.0px"
   height="48.0px"
   viewBox="0 0 48.0 48.0"
   version="1.1"
   id="SVGRoot"
   sodipodi:docname="ic_videotips.svg"
   inkscape:version="1.0.2 (e86c870879, 2021-01-15)">
  <defs
     id="defs3204" />
  <sodipodi:namedview
     id="base"
     pagecolor="#ffffff"
     bordercolor="#666666"
     borderopacity="1.0"
     inkscape:pageopacity="0.0"
     inkscape:pageshadow="2"
     inkscape:zoom="5.6"
     inkscape:cx="37.062995"
     inkscape:cy="29.997194"
     inkscape:document-units="px"
     inkscape:current-layer="layer1"
     inkscape:document-rotation="0"
     showgrid="true"
     inkscape:window-width="1920"
     inkscape:window-height="1043"
     inkscape:window-x="0"
     inkscape:window-y="0"
     inkscape:window-maximized="1">
    <inkscape:grid
       type="xygrid"
       id="grid3774" />
  </sodipodi:namedview>
  <metadata
     id="metadata3207">
    <rdf:RDF>
      <cc:Work
         rdf:about="">
        <dc:format>image/svg+xml</dc:format>
        <dc:type
           rdf:resource="http://purl.org/dc/dcmitype/StillImage" />
        <dc:title />
      </cc:Work>
    </rdf:RDF>
  </metadata>
  <g
     inkscape:label="Layer 1"
     inkscape:groupmode="layer"
     id="layer1">
    <path
       id="path3524-8"
       style="fill:#000000;fill-rule:evenodd;stroke:none;stroke-width:1px;stroke-linecap:butt;stroke-linejoin:miter;stroke-opacity:1"
       d="M 34 2 L 32 8 L 26 10 L 32 12 L 34 18 L 36 12 L 42 10 L 36 8 L 34 2 z M 8 8 C 5.784 8 4 9.7840002 4 12 L 4 36 C 4 38.216 5.784 40 8 40 L 40 40 C 42.216 40 44 38.216 44 36 L 44 30 L 40 30 L 40 36 L 8 36 L 8 12 L 22 12 L 22 8 L 8 8 z M 40 14 L 38.666016 18.666016 L 34 20 L 38.666016 21.333984 L 40 26 L 41.333984 21.333984 L 46 20 L 41.333984 18.666016 L 40 14 z M 20 17 C 19.447738 17.000055 19.000055 17.447738 19 18 L 19 30 C 18.999806 30.798465 19.879351 31.271266 20.554688 30.832031 L 29.554688 24.832031 C 30.148273 24.436148 30.148273 23.563852 29.554688 23.167969 L 20.554688 17.167969 C 20.390424 17.058458 20.197422 17.000014 20 17 z " />
  </g>
</svg>
