<?xml version="1.0" encoding="UTF-8" standalone="no"?>
<svg xmlns:dc="http://purl.org/dc/elements/1.1/" xmlns:cc="http://creativecommons.org/ns#" xmlns:rdf="http://www.w3.org/1999/02/22-rdf-syntax-ns#"
        xmlns="http://www.w3.org/2000/svg" xmlns:sodipodi="http://sodipodi.sourceforge.net/DTD/sodipodi-0.dtd"
        xmlns:inkscape="http://www.inkscape.org/namespaces/inkscape" width="48px" height="48px"
        viewBox="0 0 48 48" version="1.1" id="svg9" sodipodi:docname="ic_widget_play.svg"
        inkscape:version="0.92.5 (2060ec1f9f, 2020-04-08)">
  <metadata
     id="metadata15">
    <rdf:RDF>
      <cc:Work
         rdf:about="">
        <dc:format>image/svg+xml</dc:format>
        <dc:type
           rdf:resource="http://purl.org/dc/dcmitype/StillImage" />
      </cc:Work>
    </rdf:RDF>
  </metadata>
  <defs
     id="defs13" />
  <sodipodi:namedview
     pagecolor="#ffffff"
     bordercolor="#666666"
     borderopacity="1"
     objecttolerance="10"
     gridtolerance="10"
     guidetolerance="10"
     inkscape:pageopacity="0"
     inkscape:pageshadow="2"
     inkscape:window-width="2560"
     inkscape:window-height="1376"
     id="namedview11"
     showgrid="false"
     inkscape:zoom="4.9166667"
     inkscape:cx="23.288136"
     inkscape:cy="24"
     inkscape:window-x="0"
     inkscape:window-y="27"
     inkscape:window-maximized="1"
     inkscape:current-layer="svg9" />
  <title
     id="title2">ic_play_player@1x</title>
  <g
     id="ic_play_player"
     transform="matrix(0.8,0,0,0.8,4.8,4.8)"
     style="fill:none;fill-rule:evenodd;stroke:none;stroke-width:1">
    <g
       transform="translate(4,4)"
       id="g6"
       style="fill:#ffffff;fill-rule:nonzero">
      <path
         d="M 16,29 28,20 16,11 Z M 20,0 C 8.96,0 0,8.96 0,20 0,31.04 8.96,40 20,40 31.04,40 40,31.04 40,20 40,8.96 31.04,0 20,0 Z m 0,37.5 C 10.353125,37.5 2.5,29.646875 2.5,20 2.5,10.353125 10.353125,2.5 20,2.5 c 9.646875,0 17.5,7.853125 17.5,17.5 0,9.646875 -7.853125,17.5 -17.5,17.5 z"
         id="path4"
         inkscape:connector-curvature="0" />
    </g>
  </g>
</svg>
